<?xml version="1.0" encoding="utf-8"?>
<!-- Generator: Adobe Illustrator 18.1.1, SVG Export Plug-In . SVG Version: 6.00 Build 0)  -->
<svg version="1.1" id="Layer_1" xmlns="http://www.w3.org/2000/svg" xmlns:xlink="http://www.w3.org/1999/xlink" x="0px" y="0px"
	 viewBox="0 0 239.2 116.2" enable-background="new 0 0 239.2 116.2" xml:space="preserve">
<polyline fill="none" stroke="#000000" stroke-width="0.2" stroke-linejoin="bevel" stroke-miterlimit="1.414" points="86.5,57.5 
	59.7,57.5 37.6,80.1 "/>
<line fill="none" stroke="#000000" stroke-width="0.601" stroke-linejoin="round" stroke-miterlimit="1.414" x1="37.6" y1="80.1" x2="42.7" y2="81.4"/>
<line fill="none" stroke="#000000" stroke-width="0.601" stroke-linejoin="round" stroke-miterlimit="1.414" x1="37.6" y1="80.1" x2="36.2" y2="75.1"/>
<path fill-rule="evenodd" clip-rule="evenodd" d="M90.3,65.7v-2.1h1.3c0.3,0,0.6,0,0.8,0.1c0.1,0.1,0.3,0.2,0.3,0.3
	c0.1,0.2,0.1,0.4,0.1,0.6c0,0.4-0.1,0.7-0.3,0.8c-0.2,0.2-0.5,0.3-0.8,0.3H90.3 M89.7,68.8h0.6v-2.3h1.3c0.7,0,1.2-0.2,1.4-0.5
	c0.3-0.3,0.4-0.8,0.4-1.3c0-0.4-0.1-0.8-0.3-1c-0.2-0.3-0.4-0.5-0.7-0.6C92.3,63,92,63,91.6,63h-1.8V68.8"/>
<path fill-rule="evenodd" clip-rule="evenodd" d="M95.1,66.4l0.6-1.7c0.1-0.4,0.2-0.8,0.3-1.2c0.1,0.3,0.2,0.8,0.3,1.3l0.5,1.6H95.1
	 M93.7,68.8h0.7l0.5-1.8h2l0.6,1.8h0.8l-2-5.8h-0.7L93.7,68.8"/>
<rect x="98.9" y="63" fill-rule="evenodd" clip-rule="evenodd" width="0.6" height="5.8"/>
<polygon fill-rule="evenodd" clip-rule="evenodd" points="100.6,68.8 101.2,68.8 101.2,64.2 103.8,68.8 104.4,68.8 104.4,63 
	103.8,63 103.8,67.6 101.2,63 100.6,63 "/>
<polygon fill-rule="evenodd" clip-rule="evenodd" points="106.8,68.8 107.4,68.8 107.4,63.6 109,63.6 109,63 105.2,63 105.2,63.6 
	106.8,63.6 "/>
<polygon fill-rule="evenodd" clip-rule="evenodd" points="109.7,68.8 113.3,68.8 113.3,68.1 110.3,68.1 110.3,66.1 113,66.1 
	113,65.5 110.3,65.5 110.3,63.6 113.2,63.6 113.2,63 109.7,63 "/>
<path fill-rule="evenodd" clip-rule="evenodd" d="M114.8,68.1v-4.5h1.1c0.3,0,0.6,0,0.8,0.1c0.3,0.2,0.5,0.3,0.7,0.8
	c0.2,0.3,0.3,0.8,0.3,1.4c0,0.5-0.1,1-0.3,1.4c-0.1,0.3-0.3,0.5-0.5,0.7c-0.2,0.1-0.5,0.2-0.9,0.2H114.8 M114.2,68.8h1.8
	c0.5,0,0.8-0.1,1.2-0.3c0.3-0.2,0.6-0.5,0.8-1c0.3-0.5,0.3-1,0.3-1.7c0-0.6-0.1-1-0.2-1.4c-0.2-0.3-0.3-0.7-0.5-0.9
	c-0.3-0.3-0.5-0.4-0.8-0.5c-0.3-0.1-0.5-0.1-0.9-0.1h-1.7V68.8"/>
<path fill-rule="evenodd" clip-rule="evenodd" d="M121.6,65.7v-2.1h1.3c0.3,0,0.5,0,0.7,0.1c0.1,0.1,0.3,0.2,0.3,0.3
	c0.1,0.2,0.1,0.4,0.1,0.6c0,0.4-0.1,0.7-0.3,0.8c-0.2,0.2-0.4,0.3-0.8,0.3H121.6 M121,68.8h0.7v-2.3h1.3c0.7,0,1.1-0.2,1.3-0.5
	c0.3-0.3,0.4-0.8,0.4-1.3c0-0.4-0.1-0.8-0.3-1c-0.2-0.3-0.3-0.5-0.7-0.6c-0.2-0.1-0.5-0.1-0.9-0.1H121V68.8"/>
<polygon fill-rule="evenodd" clip-rule="evenodd" points="126.7,68.8 127.4,68.8 127.4,63.6 129,63.6 129,63 125.1,63 125.1,63.6 
	126.7,63.6 "/>
<rect x="129.3" y="66.3" fill-rule="evenodd" clip-rule="evenodd" width="1.8" height="0.8"/>
<path fill-rule="evenodd" clip-rule="evenodd" d="M133.6,66.7H132l1.6-2.6V66.7z M133.6,68.8h0.6v-1.4h0.7v-0.7h-0.7V63h-0.5
	l-2.3,3.8v0.7h2.2V68.8"/>
<path fill-rule="evenodd" clip-rule="evenodd" d="M93.1,57.9c-0.1,0.5-0.3,0.9-0.5,1.2c-0.3,0.3-0.6,0.3-0.9,0.3
	c-0.5,0-0.8-0.2-1.2-0.6c-0.3-0.4-0.4-1-0.4-1.8c0-0.5,0.1-0.9,0.3-1.3c0.2-0.3,0.3-0.6,0.6-0.8c0.3-0.2,0.5-0.3,0.8-0.3
	c0.7,0,1.1,0.4,1.3,1.3l0.7-0.2c-0.2-0.6-0.4-1-0.8-1.3c-0.3-0.3-0.7-0.4-1.2-0.4c-0.4,0-0.8,0.1-1.2,0.3c-0.3,0.3-0.6,0.6-0.8,1
	c-0.2,0.5-0.3,1-0.3,1.7s0.2,1.3,0.3,1.8c0.3,0.5,0.5,0.8,0.8,1c0.3,0.3,0.8,0.3,1.2,0.3c0.5,0,1-0.2,1.3-0.5
	c0.3-0.3,0.6-0.8,0.8-1.4L93.1,57.9"/>
<polygon fill-rule="evenodd" clip-rule="evenodd" points="94.6,60 97.6,60 97.6,59.3 95.2,59.3 95.2,54 94.6,54 "/>
<path fill-rule="evenodd" clip-rule="evenodd" d="M99.2,57.5l0.5-1.8c0.2-0.3,0.3-0.8,0.3-1.1c0.1,0.3,0.3,0.7,0.4,1.2l0.5,1.7H99.2
	 M97.8,60h0.7l0.6-1.8h2l0.6,1.8h0.8l-2-5.9h-0.8L97.8,60"/>
<path fill-rule="evenodd" clip-rule="evenodd" d="M103.5,59.3v-4.5h1c0.4,0,0.7,0,0.8,0.1c0.3,0.1,0.5,0.3,0.7,0.7
	c0.2,0.3,0.3,0.8,0.3,1.4c0,0.6-0.1,1.1-0.3,1.4c-0.2,0.3-0.3,0.6-0.5,0.7c-0.3,0.2-0.5,0.3-0.9,0.3H103.5 M102.8,60h1.8
	c0.5,0,0.9-0.1,1.3-0.3c0.3-0.3,0.6-0.6,0.8-1c0.2-0.5,0.3-1.1,0.3-1.8c0-0.5-0.1-0.9-0.3-1.3c-0.1-0.3-0.3-0.7-0.4-0.9
	c-0.3-0.3-0.5-0.4-0.8-0.5c-0.3-0.1-0.6-0.2-0.9-0.2h-1.8V60"/>
<path fill-rule="evenodd" clip-rule="evenodd" d="M108.4,59.3v-4.5h1c0.3,0,0.7,0,0.8,0.1c0.3,0.1,0.4,0.3,0.6,0.7
	c0.2,0.3,0.3,0.8,0.3,1.4c0,0.6-0.1,1.1-0.3,1.4c-0.1,0.3-0.3,0.6-0.4,0.7c-0.3,0.2-0.6,0.3-1,0.3H108.4 M107.8,60h1.8
	c0.5,0,0.9-0.1,1.3-0.3c0.3-0.3,0.5-0.6,0.8-1c0.2-0.5,0.3-1.1,0.3-1.8c0-0.5-0.1-0.9-0.2-1.3c-0.1-0.3-0.3-0.7-0.5-0.9
	c-0.2-0.3-0.4-0.4-0.8-0.5c-0.2-0.1-0.5-0.2-0.9-0.2h-1.7V60"/>
<rect x="112.8" y="54" fill-rule="evenodd" clip-rule="evenodd" width="0.7" height="5.9"/>
<polygon fill-rule="evenodd" clip-rule="evenodd" points="114.5,60 115.2,60 115.2,55.4 117.7,60 118.4,60 118.4,54 117.8,54 
	117.8,58.7 115.2,54 114.5,54 "/>
<path fill-rule="evenodd" clip-rule="evenodd" d="M121.7,57.6h1.4v1.2c-0.1,0.2-0.3,0.3-0.6,0.4c-0.3,0.1-0.5,0.2-0.8,0.2
	c-0.6,0-1-0.2-1.3-0.6c-0.3-0.4-0.5-1-0.5-1.8c0-0.6,0.1-1,0.3-1.3c0.2-0.4,0.3-0.7,0.6-0.8c0.3-0.2,0.6-0.3,0.9-0.3
	c0.3,0,0.5,0.1,0.7,0.2c0.2,0.1,0.3,0.2,0.5,0.3c0.1,0.2,0.2,0.4,0.3,0.8l0.6-0.2c-0.1-0.4-0.3-0.8-0.4-1c-0.2-0.3-0.3-0.4-0.6-0.6
	c-0.3-0.1-0.6-0.2-1-0.2c-0.4,0-0.8,0.1-1.3,0.3c-0.3,0.3-0.6,0.6-0.8,1.1c-0.2,0.5-0.3,1-0.3,1.7c0,0.7,0.2,1.2,0.3,1.7
	c0.3,0.4,0.5,0.8,0.9,1c0.3,0.3,0.8,0.3,1.3,0.3c0.3,0,0.7-0.1,1-0.2c0.3-0.2,0.7-0.4,1-0.8V57h-2.1V57.6"/>
<polygon fill-rule="evenodd" clip-rule="evenodd" points="126.6,60 130.2,60 130.2,59.3 127.3,59.3 127.3,57.3 130,57.3 130,56.5 
	127.3,56.5 127.3,54.8 130.1,54.8 130.1,54 126.6,54 "/>
<path fill-rule="evenodd" clip-rule="evenodd" d="M132,60h0.7l1-4.5c0.1-0.2,0.1-0.4,0.2-0.7l0.2,0.7l1,4.5h0.6l1.3-5.9h-0.6
	l-0.8,3.8c-0.1,0.4-0.2,0.9-0.2,1.3c-0.1-0.7-0.3-1.3-0.4-2.1l-0.7-3h-0.8l-1,4l-0.2,1.1c-0.1-0.4-0.2-0.8-0.3-1.2l-0.7-3.9h-0.7
	L132,60"/>
<path fill-rule="evenodd" clip-rule="evenodd" d="M137.3,58c0,0.3,0.1,0.6,0.2,0.8c0.1,0.3,0.2,0.5,0.3,0.7c0.4,0.3,0.8,0.5,1.5,0.5
	c0.3,0,0.7-0.1,1-0.2c0.3-0.2,0.4-0.4,0.6-0.7c0.2-0.3,0.3-0.6,0.3-0.9c0-0.3-0.1-0.7-0.3-0.8c-0.1-0.3-0.3-0.5-0.7-0.7
	c-0.2-0.1-0.5-0.2-1-0.3c-0.5-0.1-0.8-0.3-0.9-0.4c-0.2-0.1-0.3-0.3-0.3-0.5c0-0.3,0.2-0.5,0.3-0.7c0.2-0.2,0.5-0.3,0.8-0.3
	s0.6,0.1,0.8,0.3c0.2,0.2,0.3,0.4,0.3,0.8l0.6-0.1c0-0.3-0.1-0.7-0.3-0.9c-0.1-0.3-0.3-0.5-0.6-0.6c-0.3-0.2-0.6-0.3-0.9-0.3
	c-0.6,0-1,0.2-1.3,0.5c-0.3,0.3-0.5,0.7-0.5,1.2c0,0.3,0.1,0.5,0.2,0.7c0.1,0.3,0.3,0.4,0.4,0.5c0.3,0.2,0.6,0.3,1,0.4
	c0.5,0.2,0.8,0.3,1,0.4c0.2,0.1,0.3,0.2,0.3,0.3c0.1,0.2,0.2,0.3,0.2,0.5c0,0.3-0.2,0.5-0.3,0.8c-0.3,0.2-0.5,0.3-0.9,0.3
	c-0.3,0-0.5-0.1-0.7-0.2c-0.3-0.1-0.4-0.3-0.5-0.4c-0.2-0.3-0.2-0.5-0.3-0.8H137.3"/>
<rect x="141.8" y="57.5" fill-rule="evenodd" clip-rule="evenodd" width="1.8" height="0.8"/>
<path fill-rule="evenodd" clip-rule="evenodd" d="M144.1,58.4c0,0.5,0.2,0.9,0.4,1.3c0.3,0.3,0.7,0.4,1.1,0.4c0.4,0,0.8-0.2,1.2-0.5
	c0.3-0.3,0.5-0.8,0.5-1.3c0-0.3-0.1-0.5-0.2-0.7c-0.1-0.3-0.2-0.4-0.3-0.5c-0.1-0.2-0.3-0.3-0.4-0.3c0.2-0.2,0.3-0.3,0.5-0.5
	c0.1-0.3,0.2-0.4,0.2-0.8c0-0.4-0.2-0.8-0.4-1.1c-0.3-0.3-0.7-0.4-1-0.4c-0.4,0-0.8,0.2-1,0.4c-0.3,0.3-0.4,0.6-0.5,1.1l0.6,0.2
	c0.1-0.3,0.2-0.7,0.3-0.8c0.2-0.2,0.3-0.3,0.6-0.3c0.3,0,0.4,0.1,0.6,0.3c0.1,0.2,0.2,0.4,0.2,0.7c0,0.3-0.1,0.6-0.3,0.8
	c-0.2,0.2-0.4,0.3-0.7,0.3h-0.2v0.7c0.2-0.1,0.3-0.1,0.4-0.1c0.3,0,0.4,0.1,0.7,0.3c0.2,0.3,0.3,0.5,0.3,0.8c0,0.4-0.1,0.7-0.3,0.9
	c-0.2,0.3-0.4,0.3-0.7,0.3c-0.5,0-0.8-0.3-0.9-1.2L144.1,58.4"/>
<path fill-rule="evenodd" clip-rule="evenodd" d="M148.2,60h0.3c0,0.3-0.1,0.4-0.1,0.6c-0.1,0.2-0.2,0.3-0.3,0.3l0.2,0.3
	c0.2-0.1,0.3-0.3,0.4-0.4c0.1-0.2,0.2-0.4,0.2-0.8v-0.8h-0.7V60"/>
<rect y="0" fill="none" width="233.2" height="116.2"/>
<text transform="matrix(1 0 0 1 12.7556 27.1184)" fill="#1D1D1B" font-family="'Helvetica'" font-size="9">NOTES</text>
<text transform="matrix(1 0 0 1 64.9919 104.1316)" fill="#CD1719" font-family="'Helvetica'" font-size="9">O</text>
<text transform="matrix(1 0 0 1 71.6609 104.1316)"><tspan x="0" y="0" fill="#CD1719" font-family="'Helvetica'" font-size="9">btuse angle ar</tspan><tspan x="55" y="0" fill="#CD1719" font-family="'Helvetica'" font-size="9">r</tspan><tspan x="57.7" y="0" fill="#CD1719" font-family="'Helvetica'" font-size="9">ow</tspan></text>
<text transform="matrix(1 0 0 1 176.5144 87.1848)" fill="#CD1719" font-family="'Helvetica'" font-size="9">G</text>
<path fill="#CD1719" d="M184.1,85c0,0.2,0,0.4,0.1,0.6c0.1,0.2,0.1,0.4,0.3,0.6c0.1,0.2,0.3,0.3,0.5,0.4c0.2,0.1,0.4,0.2,0.7,0.2
	c0.4,0,0.7-0.1,1-0.3c0.2-0.2,0.4-0.5,0.5-0.9h0.6c-0.1,0.5-0.3,0.9-0.7,1.2c-0.3,0.3-0.8,0.4-1.4,0.4c-0.4,0-0.7-0.1-1-0.2
	c-0.3-0.1-0.5-0.3-0.6-0.5c-0.2-0.2-0.3-0.5-0.4-0.8c-0.1-0.3-0.1-0.6-0.1-0.9c0-0.3,0-0.6,0.1-0.9c0.1-0.3,0.2-0.6,0.4-0.8
	c0.2-0.2,0.4-0.4,0.6-0.6c0.3-0.1,0.6-0.2,1-0.2c0.4,0,0.7,0.1,1,0.2c0.3,0.2,0.5,0.3,0.6,0.6c0.2,0.2,0.3,0.5,0.4,0.8
	c0.1,0.3,0.1,0.6,0.1,1H184.1z M187.1,84.5c0-0.2,0-0.4-0.1-0.6c-0.1-0.2-0.2-0.4-0.3-0.5c-0.1-0.2-0.3-0.3-0.5-0.4
	c-0.2-0.1-0.4-0.1-0.6-0.1c-0.2,0-0.4,0-0.6,0.1c-0.2,0.1-0.3,0.2-0.5,0.4c-0.1,0.2-0.2,0.3-0.3,0.5c-0.1,0.2-0.1,0.4-0.1,0.6H187.1
	z M188.4,82.5h0.6v0.8h0c0.1-0.1,0.1-0.3,0.2-0.4s0.2-0.2,0.3-0.3c0.1-0.1,0.3-0.1,0.4-0.2c0.2,0,0.3-0.1,0.5-0.1
	c0.3,0,0.6,0,0.8,0.1c0.2,0.1,0.4,0.2,0.5,0.4c0.1,0.2,0.2,0.3,0.3,0.6c0.1,0.2,0.1,0.5,0.1,0.7v3h-0.6v-2.9c0-0.2,0-0.4-0.1-0.6
	c0-0.2-0.1-0.3-0.2-0.4s-0.2-0.2-0.4-0.3c-0.2-0.1-0.3-0.1-0.6-0.1c-0.2,0-0.4,0-0.6,0.1c-0.2,0.1-0.3,0.2-0.5,0.3
	c-0.1,0.1-0.2,0.3-0.3,0.5c-0.1,0.2-0.1,0.4-0.1,0.6v2.7h-0.6V82.5z M193.6,85c0,0.2,0,0.4,0.1,0.6c0.1,0.2,0.1,0.4,0.3,0.6
	c0.1,0.2,0.3,0.3,0.5,0.4c0.2,0.1,0.4,0.2,0.7,0.2c0.4,0,0.7-0.1,1-0.3c0.2-0.2,0.4-0.5,0.5-0.9h0.6c-0.1,0.5-0.3,0.9-0.7,1.2
	c-0.3,0.3-0.8,0.4-1.4,0.4c-0.4,0-0.7-0.1-1-0.2c-0.3-0.1-0.5-0.3-0.6-0.5c-0.2-0.2-0.3-0.5-0.4-0.8c-0.1-0.3-0.1-0.6-0.1-0.9
	c0-0.3,0-0.6,0.1-0.9c0.1-0.3,0.2-0.6,0.4-0.8c0.2-0.2,0.4-0.4,0.6-0.6c0.3-0.1,0.6-0.2,1-0.2c0.4,0,0.7,0.1,1,0.2
	c0.3,0.2,0.5,0.3,0.6,0.6c0.2,0.2,0.3,0.5,0.4,0.8c0.1,0.3,0.1,0.6,0.1,1H193.6z M196.6,84.5c0-0.2,0-0.4-0.1-0.6
	c-0.1-0.2-0.2-0.4-0.3-0.5c-0.1-0.2-0.3-0.3-0.5-0.4c-0.2-0.1-0.4-0.1-0.6-0.1c-0.2,0-0.4,0-0.6,0.1c-0.2,0.1-0.3,0.2-0.5,0.4
	c-0.1,0.2-0.2,0.3-0.3,0.5c-0.1,0.2-0.1,0.4-0.1,0.6H196.6z M197.9,82.5h0.5v1.1h0c0.1-0.4,0.4-0.7,0.7-0.9c0.3-0.2,0.7-0.3,1.1-0.3
	V83c-0.3,0-0.5,0-0.7,0.1c-0.2,0.1-0.4,0.2-0.5,0.3c-0.2,0.2-0.3,0.3-0.4,0.5c-0.1,0.2-0.1,0.4-0.1,0.7v2.5h-0.6V82.5z M200.7,80.8
	h0.6v0.9h-0.6V80.8z M200.7,82.5h0.6v4.6h-0.6V82.5z M205.7,84c-0.1-0.3-0.2-0.6-0.4-0.8c-0.2-0.2-0.5-0.3-0.9-0.3
	c-0.3,0-0.5,0.1-0.7,0.2c-0.2,0.1-0.4,0.3-0.5,0.5c-0.1,0.2-0.2,0.4-0.3,0.6c-0.1,0.2-0.1,0.5-0.1,0.7c0,0.2,0,0.5,0.1,0.7
	c0.1,0.2,0.2,0.4,0.3,0.6c0.1,0.2,0.3,0.3,0.5,0.5c0.2,0.1,0.4,0.2,0.7,0.2c0.2,0,0.3,0,0.5-0.1c0.2-0.1,0.3-0.2,0.4-0.3
	c0.1-0.1,0.2-0.3,0.3-0.4c0.1-0.2,0.1-0.3,0.1-0.5h0.6c-0.1,0.6-0.3,1-0.6,1.3c-0.3,0.3-0.8,0.5-1.3,0.5c-0.4,0-0.7-0.1-0.9-0.2
	c-0.3-0.1-0.5-0.3-0.7-0.5c-0.2-0.2-0.3-0.5-0.4-0.8c-0.1-0.3-0.1-0.6-0.1-0.9c0-0.3,0-0.6,0.1-0.9c0.1-0.3,0.2-0.6,0.4-0.8
	c0.2-0.2,0.4-0.4,0.7-0.5c0.3-0.1,0.6-0.2,0.9-0.2c0.5,0,0.9,0.1,1.3,0.4c0.3,0.3,0.6,0.7,0.6,1.2H205.7z M209.9,83h-0.8v-0.5h0.8
	v-0.4c0-0.2,0-0.4,0-0.5c0-0.2,0.1-0.3,0.2-0.4c0.1-0.1,0.2-0.2,0.3-0.3c0.1-0.1,0.3-0.1,0.6-0.1c0.1,0,0.2,0,0.2,0
	c0.1,0,0.2,0,0.2,0v0.5c-0.1,0-0.2,0-0.2,0c-0.1,0-0.1,0-0.2,0c-0.2,0-0.3,0-0.4,0.1c-0.1,0-0.1,0.1-0.2,0.2c0,0.1-0.1,0.2-0.1,0.3
	c0,0.1,0,0.2,0,0.4v0.4h0.9V83h-0.9v4.2h-0.6V83z M211.9,80.8h0.6v0.9h-0.6V80.8z M211.9,82.5h0.6v4.6h-0.6V82.5z M213.6,82.5h0.6
	v0.8h0c0.1-0.1,0.1-0.3,0.2-0.4s0.2-0.2,0.3-0.3c0.1-0.1,0.3-0.1,0.4-0.2c0.2,0,0.3-0.1,0.5-0.1c0.3,0,0.6,0,0.8,0.1
	c0.2,0.1,0.4,0.2,0.5,0.4c0.1,0.2,0.2,0.3,0.3,0.6c0.1,0.2,0.1,0.5,0.1,0.7v3h-0.6v-2.9c0-0.2,0-0.4-0.1-0.6c0-0.2-0.1-0.3-0.2-0.4
	s-0.2-0.2-0.4-0.3c-0.2-0.1-0.3-0.1-0.6-0.1c-0.2,0-0.4,0-0.6,0.1c-0.2,0.1-0.3,0.2-0.5,0.3c-0.1,0.1-0.2,0.3-0.3,0.5
	c-0.1,0.2-0.1,0.4-0.1,0.6v2.7h-0.6V82.5z M218.4,80.8h0.6v0.9h-0.6V80.8z M218.4,82.5h0.6v4.6h-0.6V82.5z M222.8,83.9
	c0-0.2,0-0.3-0.1-0.5c-0.1-0.1-0.2-0.2-0.3-0.3c-0.1-0.1-0.2-0.1-0.4-0.2c-0.1,0-0.3-0.1-0.5-0.1c-0.1,0-0.3,0-0.4,0
	c-0.1,0-0.2,0.1-0.4,0.1c-0.1,0.1-0.2,0.1-0.3,0.2c-0.1,0.1-0.1,0.2-0.1,0.4c0,0.1,0,0.2,0.1,0.3c0.1,0.1,0.1,0.2,0.2,0.2
	c0.1,0.1,0.2,0.1,0.3,0.1c0.1,0,0.2,0.1,0.3,0.1l0.8,0.2c0.2,0,0.3,0.1,0.5,0.1c0.2,0.1,0.3,0.1,0.4,0.2c0.1,0.1,0.2,0.2,0.3,0.4
	c0.1,0.1,0.1,0.3,0.1,0.5c0,0.3-0.1,0.5-0.2,0.6c-0.1,0.2-0.3,0.3-0.4,0.4c-0.2,0.1-0.4,0.2-0.6,0.2c-0.2,0.1-0.4,0.1-0.7,0.1
	c-0.5,0-1-0.1-1.3-0.4c-0.3-0.3-0.5-0.7-0.6-1.2h0.6c0,0.4,0.2,0.7,0.4,0.9c0.3,0.2,0.6,0.3,0.9,0.3c0.1,0,0.3,0,0.4,0
	c0.1,0,0.3-0.1,0.4-0.2c0.1-0.1,0.2-0.2,0.3-0.3c0.1-0.1,0.1-0.2,0.1-0.4c0-0.1,0-0.2-0.1-0.3c-0.1-0.1-0.1-0.2-0.2-0.2
	c-0.1-0.1-0.2-0.1-0.3-0.2c-0.1,0-0.2-0.1-0.4-0.1l-0.7-0.2c-0.2,0-0.4-0.1-0.5-0.2c-0.2-0.1-0.3-0.1-0.4-0.2
	c-0.1-0.1-0.2-0.2-0.3-0.3c-0.1-0.1-0.1-0.3-0.1-0.5c0-0.2,0.1-0.4,0.2-0.6c0.1-0.2,0.2-0.3,0.4-0.4c0.2-0.1,0.4-0.2,0.6-0.2
	c0.2,0,0.4-0.1,0.6-0.1c0.2,0,0.5,0,0.7,0.1c0.2,0.1,0.4,0.2,0.5,0.3c0.2,0.1,0.3,0.3,0.4,0.5c0.1,0.2,0.1,0.4,0.2,0.7H222.8z
	 M224.4,80.8h0.6v2.6h0c0.1-0.1,0.1-0.3,0.2-0.4s0.2-0.2,0.3-0.3c0.1-0.1,0.3-0.1,0.4-0.2c0.2,0,0.3-0.1,0.5-0.1
	c0.3,0,0.6,0,0.8,0.1c0.2,0.1,0.4,0.2,0.5,0.4c0.1,0.2,0.2,0.3,0.3,0.6c0.1,0.2,0.1,0.5,0.1,0.7v3h-0.6v-2.9c0-0.2,0-0.4-0.1-0.6
	c0-0.2-0.1-0.3-0.2-0.4s-0.2-0.2-0.4-0.3c-0.2-0.1-0.3-0.1-0.6-0.1c-0.2,0-0.4,0-0.6,0.1c-0.2,0.1-0.3,0.2-0.5,0.3
	c-0.1,0.1-0.2,0.3-0.3,0.5c-0.1,0.2-0.1,0.4-0.1,0.6v2.7h-0.6V80.8z"/>
<text transform="matrix(1 0 0 1 228.6868 87.1848)" fill="#CD1719" font-family="'Helvetica'" font-size="9"> </text>
<text transform="matrix(1 0 0 1 176.5144 97.7844)" fill="#CD1719" font-family="'Helvetica'" font-size="9">description</text>
<text transform="matrix(1 0 0 1 176.5144 35.4524)" fill="#CD1719" font-family="'Helvetica'" font-size="9">G</text>
<text transform="matrix(1 0 0 1 183.1833 35.4524)" fill="#CD1719" font-family="'Helvetica'" font-size="9">eneric system</text>
<text transform="matrix(1 0 0 1 236.6877 35.4524)" fill="#CD1719" font-family="'Helvetica'" font-size="9"> </text>
<text transform="matrix(1 0 0 1 176.5144 46.0525)" fill="#CD1719" font-family="'Helvetica'" font-size="9">description</text>
<text transform="matrix(1 0 0 1 176.5144 69.6096)" fill="#CD1719" font-family="'Helvetica'" font-size="9">F</text>
<text transform="matrix(1 0 0 1 181.3474 69.6096)" fill="#CD1719" font-family="'Helvetica'" font-size="9">inish code</text>
<text transform="matrix(1 0 0 1 176.5144 58.4128)" fill="#CD1719" font-family="'Helvetica'" font-size="9">S</text>
<text transform="matrix(1 0 0 1 182.1843 58.4128)" fill="#CD1719" font-family="'Helvetica'" font-size="9">ystem code</text>
<text transform="matrix(1 0 0 1 13.1682 35.4524)" fill="#CD1719" font-family="'Helvetica'" font-size="9">C</text>
<text transform="matrix(1 0 0 1 19.5041 35.4524)" fill="#CD1719" font-family="'Helvetica'" font-size="9">ranked lead </text>
<text transform="matrix(1 0 0 1 67.3562 35.4524)" fill="#CD1719" font-family="'Helvetica'" font-size="9"> </text>
<text transform="matrix(1 0 0 1 13.1682 46.0525)" fill="#CD1719" font-family="'Helvetica'" font-size="9">line</text>
<line fill="none" stroke="#CD1719" stroke-width="0.75" stroke-linecap="round" stroke-linejoin="round" stroke-dasharray="0,2.192" x1="33.2" y1="44.1" x2="34.3" y2="44.1"/>
<line fill="none" stroke="#CD1719" stroke-width="0.75" stroke-linecap="round" stroke-linejoin="round" stroke-dasharray="0,2.316" x1="37" y1="45.8" x2="50.4" y2="60.2"/>
<path fill="none" stroke="#CD1719" stroke-width="0.75" stroke-linecap="round" stroke-linejoin="round" d="M51.2,61.1L51.2,61.1
	 M35.4,44.1L35.4,44.1 M31,44.1L31,44.1"/>
<line fill="none" stroke="#CD1719" stroke-width="0.75" stroke-linecap="round" stroke-linejoin="round" stroke-dasharray="0,2.173" x1="59.5" y1="100.9" x2="54.1" y2="100.9"/>
<line fill="none" stroke="#CD1719" stroke-width="0.75" stroke-linecap="round" stroke-linejoin="round" stroke-dasharray="0,2.216" x1="51.5" y1="99.3" x2="38.6" y2="85.5"/>
<path fill="none" stroke="#CD1719" stroke-width="0.75" stroke-linecap="round" stroke-linejoin="round" d="M37.9,84.7L37.9,84.7
	 M53,100.9L53,100.9 M61.7,100.9L61.7,100.9"/>
<line fill="none" stroke="#CD1719" stroke-width="0.75" stroke-linecap="round" stroke-linejoin="round" stroke-dasharray="0,2.242" x1="171.1" y1="84.6" x2="116.1" y2="84.6"/>
<line fill="none" stroke="#CD1719" stroke-width="0.75" stroke-linecap="round" stroke-linejoin="round" stroke-dasharray="0,2.165" x1="113.5" y1="83.1" x2="104.9" y2="74.8"/>
<path fill="none" stroke="#CD1719" stroke-width="0.75" stroke-linecap="round" stroke-linejoin="round" d="M104.2,74L104.2,74
	 M115,84.6L115,84.6 M173.3,84.6L173.3,84.6"/>
<line fill="none" stroke="#CD1719" stroke-width="0.75" stroke-linecap="round" stroke-linejoin="round" stroke-dasharray="0,2.242" x1="171.1" y1="33.2" x2="116.1" y2="33.2"/>
<line fill="none" stroke="#CD1719" stroke-width="0.75" stroke-linecap="round" stroke-linejoin="round" stroke-dasharray="0,2.354" x1="113.2" y1="34.7" x2="99.5" y2="45.9"/>
<path fill="none" stroke="#CD1719" stroke-width="0.75" stroke-linecap="round" stroke-linejoin="round" d="M98.6,46.7L98.6,46.7
	 M115,33.2L115,33.2 M173.3,33.2L173.3,33.2"/>
<line fill="none" stroke="#CD1719" stroke-width="0.75" stroke-linecap="round" stroke-linejoin="round" stroke-dasharray="0,2.275" x1="170.5" y1="66.5" x2="139.8" y2="66.5"/>
<path fill="none" stroke="#CD1719" stroke-width="0.75" stroke-linecap="round" stroke-linejoin="round" d="M138.6,66.5L138.6,66.5
	 M172.8,66.5L172.8,66.5"/>
<line fill="none" stroke="#CD1719" stroke-width="0.75" stroke-linecap="round" stroke-linejoin="round" stroke-dasharray="0,2.316" x1="170.4" y1="56.2" x2="155.4" y2="56.2"/>
<path fill="none" stroke="#CD1719" stroke-width="0.75" stroke-linecap="round" stroke-linejoin="round" d="M154.2,56.2L154.2,56.2
	 M172.7,56.2L172.7,56.2"/>
</svg>
