<?xml version="1.0" encoding="utf-8"?>
<!-- Generator: Adobe Illustrator 18.1.1, SVG Export Plug-In . SVG Version: 6.00 Build 0)  -->
<svg version="1.1" id="Layer_1" xmlns="http://www.w3.org/2000/svg" xmlns:xlink="http://www.w3.org/1999/xlink" x="0px" y="0px"
	 viewBox="0 0 127 89.8" enable-background="new 0 0 127 89.8" xml:space="preserve">
<polyline fill="none" stroke="#000000" stroke-width="3.600000e-002" stroke-linejoin="bevel" stroke-miterlimit="1.414" points="
	58.9,63.7 48,63.7 39.1,72.9 "/>
<line fill="none" stroke="#000000" stroke-width="0.108" stroke-linejoin="round" stroke-miterlimit="1.414" x1="39.1" y1="72.9" x2="41.1" y2="73.4"/>
<line fill="none" stroke="#000000" stroke-width="0.108" stroke-linejoin="round" stroke-miterlimit="1.414" x1="39.1" y1="72.9" x2="38.5" y2="70.8"/>
<polyline fill="none" stroke="#000000" stroke-width="3.600000e-002" stroke-linejoin="bevel" stroke-miterlimit="1.414" points="
	48.2,38.4 48.2,49.2 39.1,58.2 "/>
<line fill="none" stroke="#000000" stroke-width="0.108" stroke-linejoin="round" stroke-miterlimit="1.414" x1="39.1" y1="58.2" x2="38.5" y2="56.1"/>
<line fill="none" stroke="#000000" stroke-width="0.108" stroke-linejoin="round" stroke-miterlimit="1.414" x1="39.1" y1="58.2" x2="41.1" y2="58.7"/>
<path fill-rule="evenodd" clip-rule="evenodd" d="M60.4,67v-0.9h0.5c0.1,0,0.2,0,0.3,0c0.1,0,0.1,0.1,0.1,0.1c0,0.1,0.1,0.2,0.1,0.2
	c0,0.2,0,0.3-0.1,0.3C61.2,67,61.1,67,60.9,67H60.4 M60.1,68.3h0.3v-1h0.5c0.3,0,0.5-0.1,0.6-0.2c0.1-0.1,0.2-0.3,0.2-0.5
	c0-0.2,0-0.3-0.1-0.4c-0.1-0.1-0.2-0.2-0.3-0.2c-0.1,0-0.2,0-0.4,0h-0.7V68.3"/>
<path fill-rule="evenodd" clip-rule="evenodd" d="M62.3,67.3l0.2-0.7c0-0.2,0.1-0.3,0.1-0.5c0,0.1,0.1,0.3,0.1,0.5l0.2,0.7H62.3
	 M61.7,68.3H62l0.2-0.7h0.8l0.2,0.7h0.3l-0.8-2.4h-0.3L61.7,68.3"/>
<rect x="63.8" y="65.9" fill-rule="evenodd" clip-rule="evenodd" width="0.3" height="2.4"/>
<polygon fill-rule="evenodd" clip-rule="evenodd" points="64.5,68.3 64.8,68.3 64.8,66.4 65.8,68.3 66.1,68.3 66.1,65.9 65.8,65.9 
	65.8,67.8 64.8,65.9 64.5,65.9 "/>
<polygon fill-rule="evenodd" clip-rule="evenodd" points="67,68.3 67.3,68.3 67.3,66.2 67.9,66.2 67.9,65.9 66.4,65.9 66.4,66.2 
	67,66.2 "/>
<polygon fill-rule="evenodd" clip-rule="evenodd" points="68.2,68.3 69.7,68.3 69.7,68 68.5,68 68.5,67.2 69.6,67.2 69.6,66.9 
	68.5,66.9 68.5,66.2 69.6,66.2 69.6,65.9 68.2,65.9 "/>
<path fill-rule="evenodd" clip-rule="evenodd" d="M70.3,68v-1.8h0.4c0.1,0,0.3,0,0.3,0c0.1,0.1,0.2,0.2,0.3,0.3
	c0.1,0.1,0.1,0.3,0.1,0.6c0,0.2,0,0.4-0.1,0.6c0,0.1-0.1,0.2-0.2,0.3C71,68,70.9,68,70.7,68H70.3 M70,68.3h0.7c0.2,0,0.4,0,0.5-0.1
	c0.1-0.1,0.2-0.2,0.3-0.4c0.1-0.2,0.1-0.4,0.1-0.7c0-0.2,0-0.4-0.1-0.5c0-0.2-0.1-0.3-0.2-0.4c-0.1-0.1-0.2-0.2-0.3-0.2
	c-0.1,0-0.2,0-0.4,0H70V68.3"/>
<path fill-rule="evenodd" clip-rule="evenodd" d="M73,67v-0.9h0.5c0.1,0,0.2,0,0.3,0c0,0,0.1,0.1,0.1,0.1c0,0.1,0,0.2,0,0.2
	c0,0.2,0,0.3-0.1,0.3C73.8,67,73.7,67,73.5,67H73 M72.8,68.3H73v-1h0.5c0.3,0,0.5-0.1,0.6-0.2c0.1-0.1,0.2-0.3,0.2-0.5
	c0-0.2,0-0.3-0.1-0.4C74.1,66.1,74,66,73.9,66c-0.1,0-0.2,0-0.4,0h-0.7V68.3"/>
<polygon fill-rule="evenodd" clip-rule="evenodd" points="75.1,68.3 75.4,68.3 75.4,66.2 76,66.2 76,65.9 74.4,65.9 74.4,66.2 
	75.1,66.2 "/>
<rect x="76.1" y="67.3" fill-rule="evenodd" clip-rule="evenodd" width="0.7" height="0.3"/>
<path fill-rule="evenodd" clip-rule="evenodd" d="M77.9,67.4h-0.6l0.6-1.1V67.4z M77.9,68.3h0.2v-0.6h0.3v-0.3h-0.3v-1.5h-0.2
	L77,67.4v0.3h0.9V68.3"/>
<path fill-rule="evenodd" clip-rule="evenodd" d="M61.5,63.9c0,0.2-0.1,0.3-0.2,0.5c-0.1,0.1-0.2,0.2-0.4,0.2
	c-0.2,0-0.3-0.1-0.5-0.2c-0.1-0.2-0.2-0.4-0.2-0.7c0-0.2,0-0.4,0.1-0.5c0.1-0.1,0.1-0.2,0.2-0.3c0.1-0.1,0.2-0.1,0.3-0.1
	c0.3,0,0.4,0.2,0.5,0.5l0.3-0.1c-0.1-0.2-0.2-0.4-0.3-0.5c-0.1-0.1-0.3-0.2-0.5-0.2c-0.2,0-0.3,0-0.5,0.1c-0.1,0.1-0.3,0.2-0.3,0.4
	c-0.1,0.2-0.1,0.4-0.1,0.7c0,0.3,0,0.5,0.1,0.7c0.1,0.2,0.2,0.3,0.3,0.4c0.1,0.1,0.3,0.1,0.5,0.1c0.2,0,0.4-0.1,0.5-0.2
	c0.1-0.1,0.2-0.3,0.3-0.6L61.5,63.9"/>
<polygon fill-rule="evenodd" clip-rule="evenodd" points="62.1,64.7 63.3,64.7 63.3,64.4 62.4,64.4 62.4,62.3 62.1,62.3 "/>
<path fill-rule="evenodd" clip-rule="evenodd" d="M64,63.7l0.2-0.7c0-0.2,0.1-0.3,0.1-0.5c0,0.1,0.1,0.3,0.1,0.5l0.2,0.7H64
	 M63.4,64.7h0.3l0.2-0.7h0.8l0.2,0.7h0.3l-0.8-2.4h-0.3L63.4,64.7"/>
<path fill-rule="evenodd" clip-rule="evenodd" d="M65.7,64.4v-1.8h0.4c0.1,0,0.3,0,0.3,0c0.1,0,0.2,0.2,0.3,0.3
	c0.1,0.1,0.1,0.3,0.1,0.6c0,0.2,0,0.4-0.1,0.6c0,0.1-0.1,0.2-0.2,0.3c-0.1,0.1-0.2,0.1-0.4,0.1H65.7 M65.5,64.7h0.7
	c0.2,0,0.4,0,0.5-0.1c0.1-0.1,0.2-0.2,0.3-0.4c0.1-0.2,0.1-0.4,0.1-0.7c0-0.2,0-0.4-0.1-0.5c0-0.2-0.1-0.3-0.2-0.4
	c-0.1-0.1-0.2-0.2-0.3-0.2c-0.1,0-0.2,0-0.4,0h-0.7V64.7"/>
<path fill-rule="evenodd" clip-rule="evenodd" d="M67.7,64.4v-1.8h0.4c0.1,0,0.3,0,0.3,0c0.1,0,0.2,0.2,0.3,0.3
	c0.1,0.1,0.1,0.3,0.1,0.6c0,0.2,0,0.4-0.1,0.6c0,0.1-0.1,0.2-0.2,0.3c-0.1,0.1-0.2,0.1-0.4,0.1H67.7 M67.4,64.7h0.7
	c0.2,0,0.4,0,0.5-0.1c0.1-0.1,0.2-0.2,0.3-0.4c0.1-0.2,0.1-0.4,0.1-0.7c0-0.2,0-0.4-0.1-0.5c0-0.2-0.1-0.3-0.2-0.4
	c-0.1-0.1-0.2-0.2-0.3-0.2c-0.1,0-0.2,0-0.4,0h-0.7V64.7"/>
<rect x="69.5" y="62.3" fill-rule="evenodd" clip-rule="evenodd" width="0.3" height="2.4"/>
<polygon fill-rule="evenodd" clip-rule="evenodd" points="70.2,64.7 70.4,64.7 70.4,62.8 71.4,64.7 71.7,64.7 71.7,62.3 71.5,62.3 
	71.5,64.2 70.4,62.3 70.2,62.3 "/>
<path fill-rule="evenodd" clip-rule="evenodd" d="M73.1,63.8h0.6v0.4c-0.1,0.1-0.1,0.1-0.3,0.2c-0.1,0-0.2,0.1-0.3,0.1
	c-0.2,0-0.4-0.1-0.5-0.2c-0.1-0.2-0.2-0.4-0.2-0.7c0-0.2,0-0.4,0.1-0.5c0.1-0.2,0.2-0.3,0.2-0.3c0.1-0.1,0.2-0.1,0.4-0.1
	c0.1,0,0.2,0,0.3,0c0.1,0,0.1,0.1,0.2,0.2c0,0.1,0.1,0.2,0.1,0.3l0.2-0.1c0-0.2-0.1-0.3-0.1-0.4c-0.1-0.1-0.2-0.2-0.3-0.2
	c-0.1-0.1-0.2-0.1-0.4-0.1c-0.2,0-0.4,0-0.5,0.1c-0.2,0.1-0.3,0.2-0.3,0.4c-0.1,0.2-0.1,0.4-0.1,0.7c0,0.3,0,0.5,0.1,0.7
	c0.1,0.2,0.2,0.3,0.4,0.4c0.1,0.1,0.3,0.2,0.5,0.2c0.2,0,0.3,0,0.4-0.1c0.1-0.1,0.3-0.2,0.4-0.3v-0.9h-0.8V63.8"/>
<polygon fill-rule="evenodd" clip-rule="evenodd" points="75.1,64.7 76.5,64.7 76.5,64.4 75.3,64.4 75.3,63.6 76.4,63.6 76.4,63.3 
	75.3,63.3 75.3,62.6 76.5,62.6 76.5,62.3 75.1,62.3 "/>
<path fill-rule="evenodd" clip-rule="evenodd" d="M77.2,64.7h0.3l0.4-1.8c0-0.1,0-0.2,0-0.3l0.1,0.3l0.4,1.8h0.3l0.5-2.4H79
	l-0.3,1.5c0,0.2-0.1,0.4-0.1,0.5c0-0.3-0.1-0.6-0.2-0.8l-0.3-1.2h-0.3l-0.4,1.6l-0.1,0.4c0-0.2-0.1-0.3-0.1-0.5L77,62.3h-0.3
	L77.2,64.7"/>
<path fill-rule="evenodd" clip-rule="evenodd" d="M79.4,63.9c0,0.1,0,0.2,0.1,0.3c0,0.1,0.1,0.2,0.2,0.3c0.2,0.2,0.3,0.2,0.6,0.2
	c0.2,0,0.3,0,0.4-0.1c0.1-0.1,0.2-0.1,0.3-0.3c0.1-0.1,0.1-0.2,0.1-0.4c0-0.1,0-0.3-0.1-0.3c-0.1-0.1-0.1-0.2-0.3-0.2
	c-0.1,0-0.2-0.1-0.4-0.2c-0.2,0-0.3-0.1-0.4-0.1c0-0.1-0.1-0.1-0.1-0.2c0-0.1,0-0.2,0.1-0.3c0.1-0.1,0.2-0.1,0.3-0.1
	c0.1,0,0.3,0,0.3,0.1c0.1,0.1,0.1,0.2,0.1,0.3l0.3,0c0-0.2,0-0.3-0.1-0.4c-0.1-0.1-0.2-0.2-0.3-0.3c-0.1,0-0.2-0.1-0.4-0.1
	c-0.2,0-0.4,0.1-0.5,0.2c-0.1,0.1-0.2,0.3-0.2,0.5c0,0.1,0,0.2,0.1,0.3c0,0.1,0.1,0.2,0.2,0.2c0.1,0,0.2,0.1,0.4,0.2
	c0.2,0.1,0.3,0.1,0.4,0.1c0.1,0,0.1,0.1,0.1,0.1c0,0,0,0.1,0,0.2c0,0.1,0,0.2-0.1,0.3c-0.1,0.1-0.2,0.1-0.4,0.1
	c-0.1,0-0.2,0-0.3-0.1c-0.1,0-0.1-0.1-0.2-0.2c0-0.1-0.1-0.2-0.1-0.3L79.4,63.9"/>
<rect x="81.2" y="63.7" fill-rule="evenodd" clip-rule="evenodd" width="0.7" height="0.3"/>
<path fill-rule="evenodd" clip-rule="evenodd" d="M82.1,64.1c0,0.2,0.1,0.4,0.2,0.5c0.1,0.1,0.3,0.2,0.4,0.2c0.2,0,0.3-0.1,0.5-0.2
	c0.1-0.1,0.2-0.3,0.2-0.5c0-0.1,0-0.2,0-0.3c0-0.1-0.1-0.2-0.1-0.2c0,0-0.1-0.1-0.2-0.1c0.1,0,0.1-0.1,0.2-0.2
	c0-0.1,0.1-0.2,0.1-0.3c0-0.2-0.1-0.3-0.2-0.4c-0.1-0.1-0.2-0.2-0.4-0.2c-0.2,0-0.3,0-0.4,0.1c-0.1,0.1-0.2,0.3-0.2,0.5l0.2,0
	c0-0.1,0-0.2,0.1-0.3c0.1-0.1,0.1-0.1,0.2-0.1c0.1,0,0.2,0,0.2,0.1c0.1,0.1,0.1,0.2,0.1,0.3c0,0.1,0,0.2-0.1,0.3
	c-0.1,0.1-0.2,0.1-0.3,0.1h0l0,0.3c0.1,0,0.1,0,0.2,0c0.1,0,0.2,0,0.3,0.1c0.1,0.1,0.1,0.2,0.1,0.3c0,0.1,0,0.3-0.1,0.4
	c-0.1,0.1-0.2,0.1-0.3,0.1c-0.2,0-0.3-0.2-0.4-0.5L82.1,64.1"/>
<path fill-rule="evenodd" clip-rule="evenodd" d="M83.8,64.7h0.1c0,0.1,0,0.2,0,0.2c0,0-0.1,0.1-0.1,0.1l0.1,0.1
	c0.1,0,0.1-0.1,0.2-0.2c0-0.1,0.1-0.2,0.1-0.3v-0.3h-0.3V64.7"/>
<path fill-rule="evenodd" clip-rule="evenodd" d="M51.5,36.8h-0.9v-0.5c0-0.1,0-0.2,0-0.3c0,0,0.1-0.1,0.1-0.1c0.1,0,0.2,0,0.2,0
	c0.2,0,0.3,0,0.3,0.1c0.1,0.1,0.1,0.2,0.1,0.3V36.8 M52.8,37.1v-0.3h-1v-0.5c0-0.3-0.1-0.5-0.2-0.6c-0.1-0.1-0.3-0.2-0.5-0.2
	c-0.2,0-0.3,0-0.4,0.1c-0.1,0.1-0.2,0.2-0.2,0.3c0,0.1,0,0.2,0,0.4v0.7H52.8"/>
<path fill-rule="evenodd" clip-rule="evenodd" d="M51.8,34.9l-0.7-0.2c-0.2,0-0.3-0.1-0.5-0.1c0.1,0,0.3-0.1,0.5-0.1l0.7-0.2V34.9
	 M52.8,35.5v-0.3L52,35v-0.8l0.7-0.2v-0.3l-2.4,0.8v0.3L52.8,35.5"/>
<rect x="50.4" y="33.1" fill-rule="evenodd" clip-rule="evenodd" width="2.4" height="0.3"/>
<polygon fill-rule="evenodd" clip-rule="evenodd" points="52.8,32.7 52.8,32.4 50.9,32.4 52.8,31.4 52.8,31.1 50.4,31.1 50.4,31.4 
	52.2,31.4 50.4,32.4 50.4,32.7 "/>
<polygon fill-rule="evenodd" clip-rule="evenodd" points="52.8,30.2 52.8,29.9 50.6,29.9 50.6,29.3 50.4,29.3 50.4,30.8 50.6,30.8 
	50.6,30.2 "/>
<polygon fill-rule="evenodd" clip-rule="evenodd" points="52.8,29 52.8,27.6 52.5,27.6 52.5,28.8 51.7,28.8 51.7,27.7 51.4,27.7 
	51.4,28.8 50.6,28.8 50.6,27.6 50.4,27.6 50.4,29 "/>
<path fill-rule="evenodd" clip-rule="evenodd" d="M52.5,27h-1.8v-0.4c0-0.2,0-0.3,0-0.3c0-0.1,0.2-0.2,0.3-0.3
	c0.1-0.1,0.3-0.1,0.6-0.1c0.2,0,0.4,0,0.6,0.1c0.1,0,0.2,0.1,0.3,0.2c0.1,0.1,0.1,0.2,0.1,0.4V27 M52.8,27.2v-0.7
	c0-0.2,0-0.4-0.1-0.5c-0.1-0.1-0.2-0.2-0.4-0.3c-0.2-0.1-0.4-0.1-0.7-0.1c-0.2,0-0.4,0-0.5,0.1c-0.2,0-0.3,0.1-0.4,0.2
	c-0.1,0.1-0.2,0.2-0.2,0.3c0,0.1,0,0.2,0,0.4v0.7H52.8"/>
<path fill-rule="evenodd" clip-rule="evenodd" d="M51.5,24.2h-0.9v-0.5c0-0.1,0-0.2,0-0.3c0-0.1,0.1-0.1,0.1-0.1
	c0.1,0,0.2-0.1,0.2-0.1c0.2,0,0.3,0,0.3,0.1c0.1,0.1,0.1,0.2,0.1,0.4V24.2 M52.8,24.5v-0.3h-1v-0.5c0-0.3-0.1-0.5-0.2-0.6
	C51.4,23,51.3,23,51.1,23c-0.2,0-0.3,0-0.4,0.1c-0.1,0.1-0.2,0.2-0.2,0.3c0,0.1,0,0.2,0,0.4v0.7H52.8"/>
<polygon fill-rule="evenodd" clip-rule="evenodd" points="52.8,22.1 52.8,21.9 50.6,21.9 50.6,21.2 50.4,21.2 50.4,22.8 50.6,22.8 
	50.6,22.1 "/>
<rect x="51.7" y="20.4" fill-rule="evenodd" clip-rule="evenodd" width="0.3" height="0.7"/>
<path fill-rule="evenodd" clip-rule="evenodd" d="M51.9,19.4V20l-1.1-0.6H51.9z M52.8,19.4v-0.2h-0.6v-0.3h-0.3v0.3h-1.6v0.2
	l1.6,0.9h0.3v-0.9H52.8"/>
<path fill-rule="evenodd" clip-rule="evenodd" d="M48.3,35.7c0.2,0,0.4,0.1,0.5,0.2c0.1,0.1,0.2,0.2,0.2,0.4c0,0.2-0.1,0.3-0.3,0.5
	c-0.2,0.1-0.4,0.2-0.7,0.2c-0.2,0-0.4,0-0.5-0.1c-0.1,0-0.2-0.1-0.3-0.2C47,36.5,47,36.4,47,36.3c0-0.3,0.2-0.5,0.5-0.5l-0.1-0.3
	c-0.2,0-0.4,0.2-0.5,0.3c-0.1,0.1-0.2,0.3-0.2,0.5c0,0.2,0.1,0.3,0.2,0.5c0.1,0.2,0.2,0.3,0.4,0.3c0.2,0.1,0.4,0.1,0.7,0.1
	c0.3,0,0.5,0,0.7-0.1c0.2-0.1,0.3-0.2,0.4-0.3c0.1-0.1,0.1-0.3,0.1-0.5c0-0.2-0.1-0.4-0.2-0.5c-0.1-0.1-0.3-0.3-0.6-0.3L48.3,35.7"
	/>
<polygon fill-rule="evenodd" clip-rule="evenodd" points="49.2,35.1 49.2,33.9 48.9,33.9 48.9,34.9 46.8,34.9 46.8,35.1 "/>
<path fill-rule="evenodd" clip-rule="evenodd" d="M48.2,33.3L47.5,33c-0.2,0-0.3-0.1-0.5-0.1c0.1,0,0.3-0.1,0.5-0.1l0.7-0.2V33.3
	 M49.2,33.8v-0.3l-0.7-0.2v-0.8l0.7-0.2V32l-2.4,0.8v0.3L49.2,33.8"/>
<path fill-rule="evenodd" clip-rule="evenodd" d="M48.9,31.5h-1.8v-0.4c0-0.1,0-0.3,0-0.3c0-0.1,0.1-0.2,0.3-0.3
	c0.1-0.1,0.3-0.1,0.6-0.1c0.2,0,0.4,0,0.6,0.1c0.1,0,0.2,0.1,0.3,0.2c0,0.1,0.1,0.2,0.1,0.4V31.5 M49.2,31.8v-0.7
	c0-0.2,0-0.4-0.1-0.5c-0.1-0.1-0.2-0.2-0.4-0.3c-0.2-0.1-0.4-0.1-0.7-0.1c-0.2,0-0.4,0-0.6,0.1c-0.2,0-0.3,0.1-0.4,0.2
	c-0.1,0.1-0.2,0.2-0.2,0.3c0,0.1,0,0.2,0,0.4v0.7H49.2"/>
<path fill-rule="evenodd" clip-rule="evenodd" d="M48.9,29.5h-1.8v-0.4c0-0.1,0-0.3,0-0.3c0-0.1,0.1-0.2,0.3-0.3
	c0.1-0.1,0.3-0.1,0.6-0.1c0.2,0,0.4,0,0.6,0.1c0.1,0,0.2,0.1,0.3,0.2c0,0.1,0.1,0.2,0.1,0.4V29.5 M49.2,29.8v-0.7
	c0-0.2,0-0.4-0.1-0.5c-0.1-0.1-0.2-0.2-0.4-0.3c-0.2-0.1-0.4-0.1-0.7-0.1c-0.2,0-0.4,0-0.6,0.1c-0.2,0-0.3,0.1-0.4,0.2
	c-0.1,0.1-0.2,0.2-0.2,0.3c0,0.1,0,0.2,0,0.4v0.7H49.2"/>
<rect x="46.8" y="27.5" fill-rule="evenodd" clip-rule="evenodd" width="2.4" height="0.3"/>
<polygon fill-rule="evenodd" clip-rule="evenodd" points="49.2,27.1 49.2,26.8 47.3,26.8 49.2,25.8 49.2,25.5 46.8,25.5 46.8,25.8 
	48.7,25.8 46.8,26.8 46.8,27.1 "/>
<path fill-rule="evenodd" clip-rule="evenodd" d="M48.2,24.2v-0.6h0.4c0.1,0.1,0.1,0.1,0.2,0.3c0,0.1,0.1,0.2,0.1,0.3
	c0,0.2-0.1,0.4-0.2,0.5c-0.2,0.1-0.4,0.2-0.7,0.2c-0.2,0-0.4,0-0.5-0.1c-0.2-0.1-0.3-0.1-0.3-0.2C47,24.4,47,24.3,47,24.2
	c0-0.1,0-0.2,0.1-0.3c0-0.1,0.1-0.2,0.2-0.2c0.1,0,0.2-0.1,0.3-0.1l-0.1-0.2c-0.2,0-0.3,0.1-0.4,0.1c-0.1,0.1-0.2,0.2-0.2,0.3
	c-0.1,0.1-0.1,0.2-0.1,0.4c0,0.2,0.1,0.4,0.1,0.5c0.1,0.2,0.2,0.3,0.4,0.3c0.2,0.1,0.4,0.1,0.7,0.1s0.5,0,0.7-0.1
	c0.2-0.1,0.3-0.2,0.4-0.3c0.1-0.2,0.2-0.3,0.2-0.5c0-0.2,0-0.3-0.1-0.4c-0.1-0.1-0.2-0.3-0.3-0.4H48v0.8H48.2"/>
<polygon fill-rule="evenodd" clip-rule="evenodd" points="49.2,22.2 49.2,20.7 48.9,20.7 48.9,21.9 48.1,21.9 48.1,20.8 47.8,20.8 
	47.8,21.9 47.1,21.9 47.1,20.8 46.8,20.8 46.8,22.2 "/>
<path fill-rule="evenodd" clip-rule="evenodd" d="M49.2,20v-0.3l-1.8-0.4c-0.1,0-0.2,0-0.3-0.1l0.3-0.1l1.8-0.4v-0.2L46.8,18v0.3
	l1.5,0.3c0.2,0,0.4,0.1,0.5,0.1c-0.3,0-0.6,0.1-0.8,0.2l-1.2,0.3v0.3l1.6,0.4l0.5,0.1c-0.2,0-0.3,0.1-0.5,0.1l-1.6,0.3v0.3L49.2,20"
	/>
<path fill-rule="evenodd" clip-rule="evenodd" d="M48.4,17.9c0.1,0,0.2,0,0.3-0.1c0.1,0,0.2-0.1,0.3-0.2c0.2-0.1,0.2-0.3,0.2-0.6
	c0-0.2,0-0.3-0.1-0.4s-0.2-0.2-0.3-0.3c-0.1-0.1-0.2-0.1-0.4-0.1c-0.1,0-0.3,0-0.4,0.1c-0.1,0.1-0.2,0.1-0.2,0.3
	c0,0.1-0.1,0.2-0.1,0.4c0,0.2-0.1,0.3-0.2,0.4c0,0.1-0.1,0.1-0.2,0.1c-0.1,0-0.2,0-0.2-0.1C47,17.3,47,17.2,47,17.1
	c0-0.1,0-0.3,0.1-0.3c0.1-0.1,0.2-0.1,0.3-0.1l0-0.3c-0.2,0-0.3,0-0.4,0.1c-0.1,0.1-0.2,0.1-0.3,0.3c-0.1,0.1-0.1,0.2-0.1,0.4
	c0,0.2,0.1,0.4,0.2,0.5c0.1,0.1,0.3,0.2,0.5,0.2c0.1,0,0.2,0,0.3-0.1c0.1,0,0.2-0.1,0.2-0.2c0.1-0.1,0.1-0.2,0.2-0.4
	c0.1-0.2,0.1-0.3,0.1-0.4c0-0.1,0.1-0.1,0.1-0.1c0,0,0.1,0,0.2,0c0.1,0,0.2,0,0.3,0.1c0.1,0.1,0.1,0.2,0.1,0.4c0,0.1,0,0.2-0.1,0.3
	c0,0.1-0.1,0.1-0.2,0.2c-0.1,0-0.2,0.1-0.3,0.1L48.4,17.9"/>
<rect x="48.2" y="15.3" fill-rule="evenodd" clip-rule="evenodd" width="0.3" height="0.7"/>
<path fill-rule="evenodd" clip-rule="evenodd" d="M48.5,15.1c0.2,0,0.4-0.1,0.5-0.2c0.1-0.1,0.2-0.3,0.2-0.4c0-0.2-0.1-0.3-0.2-0.5
	c-0.1-0.1-0.3-0.2-0.5-0.2c-0.1,0-0.2,0-0.3,0C48.1,13.9,48,14,48,14c0,0.1-0.1,0.1-0.1,0.2c0-0.1-0.1-0.1-0.2-0.2
	c-0.1,0-0.2-0.1-0.3-0.1c-0.2,0-0.3,0.1-0.5,0.2c-0.1,0.1-0.2,0.3-0.2,0.4c0,0.2,0,0.3,0.1,0.4c0.1,0.1,0.3,0.2,0.5,0.2l0-0.2
	c-0.1,0-0.2-0.1-0.3-0.1C47,14.7,47,14.6,47,14.5c0-0.1,0-0.2,0.1-0.2c0.1-0.1,0.2-0.1,0.3-0.1c0.1,0,0.2,0,0.3,0.1
	c0.1,0.1,0.1,0.2,0.1,0.3v0l0.3,0c0-0.1,0-0.1,0-0.2c0-0.1,0-0.2,0.1-0.3c0.1-0.1,0.2-0.1,0.3-0.1c0.1,0,0.3,0,0.4,0.1
	c0.1,0.1,0.2,0.2,0.2,0.3c0,0.2-0.2,0.3-0.5,0.4L48.5,15.1"/>
<path fill-rule="evenodd" clip-rule="evenodd" d="M49.2,13.5v-0.1c0.1,0,0.2,0,0.2,0c0.1,0,0.1,0.1,0.1,0.1l0.1-0.1
	c0-0.1-0.1-0.1-0.2-0.2c-0.1,0-0.2-0.1-0.3-0.1h-0.3v0.3H49.2"/>
</svg>
