<?xml version="1.0" standalone="no"?>
<!DOCTYPE svg PUBLIC "-//W3C//DTD SVG 20010904//EN"
 "http://www.w3.org/TR/2001/REC-SVG-20010904/DTD/svg10.dtd">
<svg version="1.0" xmlns="http://www.w3.org/2000/svg"
 width="289.000000pt" height="289.000000pt" viewBox="0 0 289.000000 289.000000"
 preserveAspectRatio="xMidYMid meet">
<metadata>
Created by potrace 1.11, written by Peter Selinger 2001-2013
</metadata>
<g transform="translate(0.000000,289.000000) scale(0.100000,-0.100000)"
fill="#000000" stroke="none">
<path d="M1230 2845 c-583 -93 -1041 -537 -1172 -1138 -32 -147 -32 -457 -1
-599 64 -283 186 -515 376 -714 120 -126 234 -210 394 -290 146 -74 210 -89
243 -59 18 16 20 31 20 160 l0 142 -52 -9 c-79 -15 -188 -4 -252 25 -79 36
-129 92 -181 202 -45 93 -74 130 -170 212 -32 27 -36 35 -25 48 17 21 86 19
135 -4 48 -22 106 -77 142 -134 74 -120 186 -174 308 -147 87 19 102 28 110
68 7 40 49 127 65 137 18 11 11 25 -14 25 -48 0 -224 51 -294 86 -193 94 -298
280 -318 560 -11 152 21 281 99 397 l42 62 -13 50 c-17 63 -10 211 13 284 l17
54 56 -6 c70 -6 167 -44 261 -102 l70 -44 98 22 c138 29 378 29 516 0 l97 -21
74 44 c100 60 189 95 257 101 l56 6 18 -49 c23 -66 31 -235 13 -294 -14 -44
-13 -46 18 -87 84 -110 119 -240 110 -408 -19 -372 -190 -574 -542 -641 -49
-10 -91 -19 -93 -21 -3 -2 6 -14 18 -27 12 -13 32 -47 44 -77 20 -50 21 -75
25 -324 4 -311 4 -310 82 -303 88 9 296 118 432 226 259 208 436 490 515 822
30 130 42 390 24 521 -49 347 -206 654 -453 884 -265 246 -602 377 -964 374
-66 -1 -157 -7 -204 -14z"/>
</g>
</svg>
