<svg version="1.1" {{include.meta}} xmlns="http://www.w3.org/2000/svg" xmlns:xlink="http://www.w3.org/1999/xlink" x="0px" y="0px" viewBox="0 0 350.9 677.3" enable-background="new 0 0 350.9 677.3" xml:space="preserve">
<polygon class="crazy-space" points="272.2,199.6 335.2,199.6 335.2,300 301.7,300.7 301.7,336.2 272.2,336.2 "/>
<polygon class="wc" points="111.5,408.9 137.4,408.9 137.4,409.6 149.3,409.6 151.5,409.2 154.6,408.9 156.9,408 159.2,407 161.8,405.3 164,403.5 165.9,401.3 167.5,398.6 168.8,395.8 170.6,391 174.9,379.3 132,379.3 126.8,381 123.6,383.4 121.1,385.9 119,388.9 116.9,393.7 "/>
<polygon class="open-space" points="335.2,198.7 335.2,31.2 318.1,31.2 318.1,16.5 288.7,24.7 288.7,99.6 288.7,198.7 "/>
<polygon class="open-space" points="306.6,424.6 286.5,424.6 286.5,377.8 313.5,377.8 319.1,378.6 324.5,381 329.1,384.5 332.4,389 334.5,394.2 335,400.1 333.9,405.8 332,411.6 327.8,424.6 322.6,424.6 322.4,420.2 312.7,420.2 310.7,420.7 308.9,422.2 "/>
<polygon class="open-space" points="304.9,552.8 315.1,552.8 317.4,552.3 321.2,551.4 325,549.6 328.4,547 331.3,543.6 333.5,539.8 334.7,535.3 335.2,531.6 334.7,528.1 334.2,525.3 329.1,509.8 322.8,491.3 319,480.2 305.8,480.1 304.1,480.5 302.8,481.4 301.7,482.4 300.9,484 299.8,488.4 298.1,495.1 297.6,497.3 297.4,498.7 297.5,500.2 298.2,501.9 301.1,510.3 301.8,510.2 304.8,518.4 305.9,519.9 307.4,520.6 308.3,520.8 308.4,523.6 317.9,523.6 318,520.7 322,520.8 323.4,521.3 324.2,522.2 324.2,523.6 323.5,524.9 322.4,525.6 321.1,523.7 309.1,530.6 310.3,532.8 309.5,533.5 308.7,534.7 308.5,536.2 308.5,549.1 304.9,549.4 "/>
<rect    class="private-space" x="183.6" y="205.2" width="6.6" height="11.2"/>
<rect    class="private-space" x="183.6" y="115.7" width="6.6" height="11.2"/>
<rect    class="private-space" x="183.6" y="193.1" width="6.6" height="11.2"/>
<rect    class="private-space" x="122.3" y="480.5" width="6.6" height="9.1"/>
<rect    class="private-space" x="146.7" y="480.5" width="6.6" height="9.1"/>
<rect    class="private-space" x="122.3" y="490.5" width="6.6" height="9.1"/>
<rect    class="private-space" x="146.7" y="490.5" width="6.6" height="9.1"/>
<rect    class="private-space" x="183.6" y="103.6" width="6.6" height="11.2"/>
<polygon class="meeting-room" points="298.2,443.5 298.1,436.5 298.8,436.5 298.8,436 309.7,424.6 322.5,424.6 327.8,424.6 322.2,441.3 319,450.6 317.4,450.1 319.5,443.6 "/>
<polygon class="meeting-room" points="318.1,29.2 334.3,29.2 339.1,25.2 339.1,10.2 319.1,15.9 319.1,22.8 318.1,22.8 "/>
<rect    class="meeting-room" x="192.3" y="193.1"  width="16.5" height="22.4"/>
<rect    class="meeting-room" x="122.3" y="512.2"  width="15.6" height="16.8"/>
<rect    class="meeting-room" x="270" y="77.2"     width="16.5" height="22.4"/>
<rect    class="meeting-room" x="255.6" y="56.2"   width="30.9" height="18.8"/>
<rect    class="meeting-room" x="192.3" y="104.5"  width="16.5" height="22.4"/>
<rect    class="meeting-room" x="112.6" y="30.8"   width="16.5" height="17.6"/>
<polygon class="meeting-room" points="302.5,300.7 335.2,300.7 335.2,332.3 331,332.3 331,335.5 335.2,335.5 335.2,336.2 302.5,336.2 "/>
<polygon class="meeting-room" points="247.5,523 247.5,462.3 248.3,460.4 249.6,459.3 251.4,458.6 266.3,458.6 267,459 270.2,455.3 284.8,468.2 281.6,471.6 285.6,475.6 285.9,476.6 286.1,477.5 285.9,519.6 251.1,519.6 251.1,523 "/>
<!-- there was a whole load of stuff in here. Use gh history to check what it was. -->

<g class="legend">
 <text transform="matrix(1 0 0 1 26.4676 626.7647)" font-size="7">LEGEND 01</text>
 <text transform="matrix(1 0 0 1 26.4676 638.1046)" font-size="7">LEGEND 02</text>
 <text transform="matrix(1 0 0 1 26.4676 660.7852)" font-size="7">LEGEND 04</text>
 <text transform="matrix(1 0 0 1 26.4676 649.4444)" font-size="7">LEGEND 03</text>
 <text transform="matrix(1 0 0 1 26.4676 672.1251)" font-size="7">LEGEND 05</text>
 <rect class="open-space" width="15.6" height="8.5" x="5.2" y="619.7" />
 <rect class="crazy-space" width="15.6" height="8.5" x="5.2" y="631.1" />
 <rect class="private-space" width="15.6" height="8.5" x="5.2" y="642.4" />
 <rect class="meeting-room" width="15.6" height="8.5" x="5.2" y="653.7" />
 <rect class="wc" width="15.6" height="8.5" x="5.2" y="665.1" />
</g>
<image overflow="visible" width="509" height="925" xlink:href="{{site.baseurl}}/assets/asb-plan.png" transform="matrix(0.6142 0 0 0.6142 50.3056 1)" style="mix-blend-mode: darken;"></image>
</svg>