<?xml version="1.0" encoding="utf-8"?>
<!-- Generator: Adobe Illustrator 18.1.1, SVG Export Plug-In . SVG Version: 6.00 Build 0)  -->
<svg id="Layer_1" xmlns="http://www.w3.org/2000/svg" xmlns:xlink="http://www.w3.org/1999/xlink" x="0px" y="0px"
	 viewBox="0 0 320 65.019" enable-background="new 0 0 320 65.019" xml:space="preserve">
<rect y="0" fill="#ffffff" width="320.315" height="65.019"/>
<rect x="2.562" y="3.928" fill="#c5d9f1" width="156.66" height="4.056"/>
<rect x="162.541" y="3.929" fill="#c5d9f1" width="156.818" height="4.055"/>
<rect x="2.562" y="51.969" fill="#c5d9f1" width="156.66" height="4.056"/>
<rect x="162.541" y="51.97" fill="#c5d9f1" width="156.818" height="4.055"/>
<g>
	<text transform="matrix(1 0 0 1 146.9474 2.6635)" font-family="'Arial'" font-size="2.6865">.</text>
	<text transform="matrix(1 0 0 1 118.6077 2.6635)" font-family="'Arial'" font-size="2.6865">.</text>
</g>
<g>
	<text transform="matrix(1 0 0 1 307.0842 2.6635)" font-family="'Arial'" font-size="2.6865">.</text>
	<text transform="matrix(1 0 0 1 278.7445 2.6635)" font-family="'Arial'" font-size="2.6865">.</text>
</g>
<rect x="0.071" y="0" fill="none" width="319.393" height="65.018"/>
<text transform="matrix(1 0 0 1 16.4152 6.7199)" font-family="'Arial'" font-weight="bolder" font-size="2.6865">Floor finishes</text>
<text transform="matrix(1 0 0 1 118.7146 6.7199)" font-family="'Arial'" font-weight="bolder" font-size="2.6865">.</text>
<text transform="matrix(1 0 0 1 147.0548 6.7199)" font-family="'Arial'" font-weight="bolder" font-size="2.6865">.</text>
<text transform="matrix(1 0 0 1 176.5557 6.7199)" font-family="'Arial'" font-weight="bolder" font-size="2.6865">Floor finishes</text>
<text transform="matrix(1 0 0 1 278.8546 6.7199)" font-family="'Arial'" font-weight="bolder" font-size="2.6865">.</text>
<text transform="matrix(1 0 0 1 307.1937 6.7199)" font-family="'Arial'" font-weight="bolder" font-size="2.6865">.</text>
<text transform="matrix(1 0 0 1 2.9291 10.6715)"><tspan x="0" y="0" font-family="'Arial'" font-size="2.6865">FL-0</tspan><tspan x="5.524" y="0" font-family="'Arial'" font-size="2.6865" letter-spacing="6">1</tspan><tspan x="13.484" y="0" font-family="'Arial'" font-size="2.6865">Vinyl Sheet Flooring - Forbo Surestep Natural Oak 1892</tspan></text>
<text transform="matrix(1 0 0 1 105.1157 10.6715)"><tspan x="0" y="0" font-family="'Arial'" font-size="2.6865">Resilient Floor Finishe</tspan><tspan x="26.576" y="0" font-family="'Arial'" font-size="2.6865" letter-spacing="10">s</tspan><tspan x="38.031" y="0" font-family="'Arial'" font-size="2.6865">05-50</tspan><tspan x="44.902" y="0" font-family="'Arial'" font-size="2.6865" letter-spacing="11">0</tspan><tspan x="57.94" y="0" font-family="'Arial'" font-size="2.6865">FL-1</tspan><tspan x="63.464" y="0" font-family="'Arial'" font-size="2.6865" letter-spacing="6">1</tspan><tspan x="71.425" y="0" font-family="'Arial'" font-size="2.6865">Vinyl Sheet Flooring - Armstrong </tspan></text>
<text transform="matrix(1 0 0 1 216.1194 10.6715)"><tspan x="0" y="0" font-family="'Arial'" font-size="2.6865">Accolade Safe Plus: Sand Gre</tspan><tspan x="36.288" y="0" font-family="'Arial'" font-size="2.6865" letter-spacing="11">y</tspan><tspan x="49.138" y="0" font-family="'Arial'" font-size="2.6865">Resilient Floor Finishe</tspan><tspan x="75.714" y="0" font-family="'Arial'" font-size="2.6865" letter-spacing="10">s</tspan><tspan x="87.169" y="0" font-family="'Arial'" font-size="2.6865">05-500</tspan></text>
<text transform="matrix(1 0 0 1 2.9318 14.6747)"><tspan x="0" y="0" font-family="'Arial'" font-size="2.6865">FL-0</tspan><tspan x="5.524" y="0" font-family="'Arial'" font-size="2.6865" letter-spacing="6">2</tspan><tspan x="13.484" y="0" font-family="'Arial'" font-size="2.6865">Vinyl Sheet Flooring - Armstrong Accolade Plus: Spice White</tspan></text>
<text transform="matrix(1 0 0 1 105.1184 14.6747)"><tspan x="0" y="0" font-family="'Arial'" font-size="2.6865">Resilient Floor Finishe</tspan><tspan x="26.576" y="0" font-family="'Arial'" font-size="2.6865" letter-spacing="10">s</tspan><tspan x="38.031" y="0" font-family="'Arial'" font-size="2.6865">05-50</tspan><tspan x="44.902" y="0" font-family="'Arial'" font-size="2.6865" letter-spacing="11">0</tspan><tspan x="57.94" y="0" font-family="'Arial'" font-size="2.6865">FL-1</tspan><tspan x="63.464" y="0" font-family="'Arial'" font-size="2.6865" letter-spacing="6">2</tspan><tspan x="71.425" y="0" font-family="'Arial'" font-size="2.6865">Vinyl Sheet Flooring - Altro</tspan></text>
<text transform="matrix(1 0 0 1 208.5082 14.6747)" font-family="'Arial'" font-size="2.6865"> VM20 Cloud VM2014</text>
<text transform="matrix(1 0 0 1 265.2579 14.6747)"><tspan x="0" y="0" font-family="'Arial'" font-size="2.6865">Resilient Floor Finishe</tspan><tspan x="26.576" y="0" font-family="'Arial'" font-size="2.6865" letter-spacing="10">s</tspan><tspan x="38.031" y="0" font-family="'Arial'" font-size="2.6865">05-500</tspan></text>
<text transform="matrix(1 0 0 1 2.9318 18.6769)"><tspan x="0" y="0" font-family="'Arial'" font-size="2.6865">FL-0</tspan><tspan x="5.524" y="0" font-family="'Arial'" font-size="2.6865" letter-spacing="6">3</tspan><tspan x="13.484" y="0" font-family="'Arial'" font-size="2.6865">Vinyl Sheet Flooring - Armstrong Accolade Plus: Leaf Green</tspan></text>
<text transform="matrix(1 0 0 1 105.1184 18.6769)"><tspan x="0" y="0" font-family="'Arial'" font-size="2.6865">Resilient Floor Finishe</tspan><tspan x="26.576" y="0" font-family="'Arial'" font-size="2.6865" letter-spacing="10">s</tspan><tspan x="38.031" y="0" font-family="'Arial'" font-size="2.6865">05-50</tspan><tspan x="44.902" y="0" font-family="'Arial'" font-size="2.6865" letter-spacing="11">0</tspan><tspan x="57.94" y="0" font-family="'Arial'" font-size="2.6865">FL-1</tspan><tspan x="63.464" y="0" font-family="'Arial'" font-size="2.6865" letter-spacing="6">3</tspan><tspan x="71.425" y="0" font-family="'Arial'" font-size="2.6865">Vinyl Sheet Flooring  - Forbo</tspan></text>
<text transform="matrix(1 0 0 1 210.7493 18.6769)" font-family="'Arial'" font-size="2.6865"> Smaragd Marble</text>
<text transform="matrix(1 0 0 1 265.2601 18.6769)"><tspan x="0" y="0" font-family="'Arial'" font-size="2.6865">Resilient Floor Finishe</tspan><tspan x="26.576" y="0" font-family="'Arial'" font-size="2.6865" letter-spacing="10">s</tspan><tspan x="38.031" y="0" font-family="'Arial'" font-size="2.6865">05-500</tspan></text>
<text transform="matrix(1 0 0 1 2.9344 22.6806)"><tspan x="0" y="0" font-family="'Arial'" font-size="2.6865">FL-0</tspan><tspan x="5.524" y="0" font-family="'Arial'" font-size="2.6865" letter-spacing="6">4</tspan><tspan x="13.484" y="0" font-family="'Arial'" font-size="2.6865">Vinyl Sheet Flooring - Armstrong Accolade Plus: Spring Green</tspan></text>
<text transform="matrix(1 0 0 1 105.1184 22.6806)"><tspan x="0" y="0" font-family="'Arial'" font-size="2.6865">Resilient Floor Finishe</tspan><tspan x="26.576" y="0" font-family="'Arial'" font-size="2.6865" letter-spacing="10">s</tspan><tspan x="38.031" y="0" font-family="'Arial'" font-size="2.6865">05-50</tspan><tspan x="44.902" y="0" font-family="'Arial'" font-size="2.6865" letter-spacing="11">0</tspan><tspan x="57.94" y="0" font-family="'Arial'" font-size="2.6865">FL-1</tspan><tspan x="63.464" y="0" font-family="'Arial'" font-size="2.6865" letter-spacing="6">4</tspan><tspan x="71.425" y="0" font-family="'Arial'" font-size="2.6865">Carpet Tile - Desso Verso 5</tspan></text>
<text transform="matrix(1 0 0 1 209.7012 22.6806)" font-family="'Arial'" font-size="2.6865">011642</text>
<text transform="matrix(1 0 0 1 265.2601 22.6806)"><tspan x="0" y="0" font-family="'Arial'" font-size="2.6865">Resilient Floor Finishe</tspan><tspan x="26.576" y="0" font-family="'Arial'" font-size="2.6865" letter-spacing="10">s</tspan><tspan x="38.031" y="0" font-family="'Arial'" font-size="2.6865">05-550</tspan></text>
<text transform="matrix(1 0 0 1 2.9344 26.6833)"><tspan x="0" y="0" font-family="'Arial'" font-size="2.6865">FL-0</tspan><tspan x="5.524" y="0" font-family="'Arial'" font-size="2.6865" letter-spacing="6">5</tspan><tspan x="13.484" y="0" font-family="'Arial'" font-size="2.6865">Vinyl Sheet Flooring - Armstrong Accolade Plus: Lime Green</tspan></text>
<text transform="matrix(1 0 0 1 105.1211 26.6833)"><tspan x="0" y="0" font-family="'Arial'" font-size="2.6865">Resilient Floor Finishe</tspan><tspan x="26.576" y="0" font-family="'Arial'" font-size="2.6865" letter-spacing="10">s</tspan><tspan x="38.031" y="0" font-family="'Arial'" font-size="2.6865">05-50</tspan><tspan x="44.902" y="0" font-family="'Arial'" font-size="2.6865" letter-spacing="11">0</tspan><tspan x="57.94" y="0" font-family="'Arial'" font-size="2.6865">FL-1</tspan><tspan x="63.464" y="0" font-family="'Arial'" font-size="2.6865" letter-spacing="6">5</tspan><tspan x="71.425" y="0" font-family="'Arial'" font-size="2.6865">Carpet Tile - Desso Verso 501</tspan></text>
<text transform="matrix(1 0 0 1 212.6908 26.6833)" font-family="'Arial'" font-size="2.6865">1643</text>
<text transform="matrix(1 0 0 1 265.2638 26.6833)"><tspan x="0" y="0" font-family="'Arial'" font-size="2.6865">Resilient Floor Finishe</tspan><tspan x="26.576" y="0" font-family="'Arial'" font-size="2.6865" letter-spacing="10">s</tspan><tspan x="38.031" y="0" font-family="'Arial'" font-size="2.6865">05-550</tspan></text>
<text transform="matrix(1 0 0 1 2.9376 30.6859)"><tspan x="0" y="0" font-family="'Arial'" font-size="2.6865">FL-0</tspan><tspan x="5.524" y="0" font-family="'Arial'" font-size="2.6865" letter-spacing="6">6</tspan><tspan x="13.484" y="0" font-family="'Arial'" font-size="2.6865">Vinyl Sheet Flooring - Armstrong Accolade Plus: Mint Green</tspan></text>
<text transform="matrix(1 0 0 1 105.1233 30.6859)"><tspan x="0" y="0" font-family="'Arial'" font-size="2.6865">Resilient Floor Finishe</tspan><tspan x="26.576" y="0" font-family="'Arial'" font-size="2.6865" letter-spacing="10">s</tspan><tspan x="38.031" y="0" font-family="'Arial'" font-size="2.6865">05-50</tspan><tspan x="44.902" y="0" font-family="'Arial'" font-size="2.6865" letter-spacing="11">0</tspan><tspan x="57.94" y="0" font-family="'Arial'" font-size="2.6865">FL-1</tspan><tspan x="63.464" y="0" font-family="'Arial'" font-size="2.6865" letter-spacing="6">6</tspan><tspan x="71.425" y="0" font-family="'Arial'" font-size="2.6865">Vinyl Sheet Flooring - Tarket</tspan></text>
<text transform="matrix(1 0 0 1 210.6016 30.6859)" font-family="'Arial'" font-size="2.6865">t IQ Optima: 846 colour.</text>
<text transform="matrix(1 0 0 1 265.266 30.6859)"><tspan x="0" y="0" font-family="'Arial'" font-size="2.6865">Resilient Floor Finishe</tspan><tspan x="26.576" y="0" font-family="'Arial'" font-size="2.6865" letter-spacing="10">s</tspan><tspan x="38.031" y="0" font-family="'Arial'" font-size="2.6865">05-500</tspan></text>
<text transform="matrix(1 0 0 1 2.9376 34.6886)"><tspan x="0" y="0" font-family="'Arial'" font-size="2.6865">FL-0</tspan><tspan x="5.524" y="0" font-family="'Arial'" font-size="2.6865" letter-spacing="6">7</tspan><tspan x="13.484" y="0" font-family="'Arial'" font-size="2.6865">Vinyl Sheet Flooring - Forbo Smaragd Marble</tspan></text>
<text transform="matrix(1 0 0 1 105.1233 34.6886)"><tspan x="0" y="0" font-family="'Arial'" font-size="2.6865">Resilient Floor Finishe</tspan><tspan x="26.576" y="0" font-family="'Arial'" font-size="2.6865" letter-spacing="10">s</tspan><tspan x="38.136" y="0" font-family="'Arial'" font-size="2.6865">05-50</tspan><tspan x="45.007" y="0" font-family="'Arial'" font-size="2.6865" letter-spacing="11">0</tspan><tspan x="57.94" y="0" font-family="'Arial'" font-size="2.6865">FL-1</tspan><tspan x="63.464" y="0" font-family="'Arial'" font-size="2.6865" letter-spacing="6">7</tspan><tspan x="71.425" y="0" font-family="'Arial'" font-size="2.6865">Vinyl Sheet Flooring - Tarkett IQ Optima: 85</tspan></text>
<text transform="matrix(1 0 0 1 228.8184 34.6886)" font-family="'Arial'" font-size="2.6865">7 colour.</text>
<text transform="matrix(1 0 0 1 265.266 34.6886)"><tspan x="0" y="0" font-family="'Arial'" font-size="2.6865">Resilient Floor Finishe</tspan><tspan x="26.576" y="0" font-family="'Arial'" font-size="2.6865" letter-spacing="10">s</tspan><tspan x="38.031" y="0" font-family="'Arial'" font-size="2.6865">05-500</tspan></text>
<text transform="matrix(1 0 0 1 2.9376 38.6918)"><tspan x="0" y="0" font-family="'Arial'" font-size="2.6865">FL-0</tspan><tspan x="5.524" y="0" font-family="'Arial'" font-size="2.6865" letter-spacing="6">8</tspan><tspan x="13.484" y="0" font-family="'Arial'" font-size="2.6865">Vinyl Sheet Flooring - Armstrong Accolade Plus: Sand Grey</tspan></text>
<text transform="matrix(1 0 0 1 105.1233 38.6918)"><tspan x="0" y="0" font-family="'Arial'" font-size="2.6865">Resilient Floor Finishe</tspan><tspan x="26.576" y="0" font-family="'Arial'" font-size="2.6865" letter-spacing="10">s</tspan><tspan x="38.031" y="0" font-family="'Arial'" font-size="2.6865">05-50</tspan><tspan x="44.902" y="0" font-family="'Arial'" font-size="2.6865" letter-spacing="11">0</tspan><tspan x="57.94" y="0" font-family="'Arial'" font-size="2.6865">FL-1</tspan><tspan x="63.464" y="0" font-family="'Arial'" font-size="2.6865" letter-spacing="6">8</tspan><tspan x="71.425" y="0" font-family="'Arial'" font-size="2.6865">Vinyl Sheet Flooring - Tarkett</tspan></text>
<text transform="matrix(1 0 0 1 211.348 38.6918)" font-family="'Arial'" font-size="2.6865"> IQ Optima: 867 colour.</text>
<text transform="matrix(1 0 0 1 265.266 38.6918)"><tspan x="0" y="0" font-family="'Arial'" font-size="2.6865">Resilient Floor Finishe</tspan><tspan x="26.576" y="0" font-family="'Arial'" font-size="2.6865" letter-spacing="10">s</tspan><tspan x="38.031" y="0" font-family="'Arial'" font-size="2.6865">05-500</tspan></text>
<text transform="matrix(1 0 0 1 2.9376 42.6944)"><tspan x="0" y="0" font-family="'Arial'" font-size="2.6865">FL-0</tspan><tspan x="5.524" y="0" font-family="'Arial'" font-size="2.6865" letter-spacing="6">9</tspan><tspan x="13.484" y="0" font-family="'Arial'" font-size="2.6865">Vinyl Sheet Flooring - Armstrong Accolade Plus: Black Opal</tspan></text>
<text transform="matrix(1 0 0 1 105.1233 42.6944)"><tspan x="0" y="0" font-family="'Arial'" font-size="2.6865">Resilient Floor Finishe</tspan><tspan x="26.576" y="0" font-family="'Arial'" font-size="2.6865" letter-spacing="10">s</tspan><tspan x="38.031" y="0" font-family="'Arial'" font-size="2.6865">05-50</tspan><tspan x="44.902" y="0" font-family="'Arial'" font-size="2.6865" letter-spacing="11">0</tspan><tspan x="57.94" y="0" font-family="'Arial'" font-size="2.6865">FL-1</tspan><tspan x="63.464" y="0" font-family="'Arial'" font-size="2.6865" letter-spacing="6">9</tspan><tspan x="71.425" y="0" font-family="'Arial'" font-size="2.6865">Vinyl Sheet Flooring - Tarket</tspan></text>
<text transform="matrix(1 0 0 1 210.6038 42.6944)" font-family="'Arial'" font-size="2.6865">t IQ Optima: 859 colour.</text>
<text transform="matrix(1 0 0 1 265.2686 42.6944)"><tspan x="0" y="0" font-family="'Arial'" font-size="2.6865">Resilient Floor Finishe</tspan><tspan x="26.576" y="0" font-family="'Arial'" font-size="2.6865" letter-spacing="10">s</tspan><tspan x="38.031" y="0" font-family="'Arial'" font-size="2.6865">05-500</tspan></text>
<text transform="matrix(1 0 0 1 2.9398 46.6975)"><tspan x="0" y="0" font-family="'Arial'" font-size="2.6865">FL-1</tspan><tspan x="5.524" y="0" font-family="'Arial'" font-size="2.6865" letter-spacing="6">0</tspan><tspan x="13.484" y="0" font-family="'Arial'" font-size="2.6865">Vinyl Sheet Flooring - Armstrong Accolade Safe Plus: Spice Whit</tspan><tspan x="90.68" y="0" font-family="'Arial'" font-size="2.6865" letter-spacing="10">e</tspan><tspan x="102.189" y="0" font-family="'Arial'" font-size="2.6865">Resilient Floor Finishe</tspan><tspan x="128.766" y="0" font-family="'Arial'" font-size="2.6865" letter-spacing="10">s</tspan><tspan x="140.221" y="0" font-family="'Arial'" font-size="2.6865">05-50</tspan><tspan x="147.092" y="0" font-family="'Arial'" font-size="2.6865" letter-spacing="11">0</tspan><tspan x="160.13" y="0" font-family="'Arial'" font-size="2.6865">FL-2</tspan><tspan x="165.653" y="0" font-family="'Arial'" font-size="2.6865" letter-spacing="6">0</tspan><tspan x="173.614" y="0" font-family="'Arial'" font-size="2.6865">Vinyl Sheet Flooring - </tspan></text>
<text transform="matrix(1 0 0 1 202.9894 46.6975)" font-family="'Arial'" font-size="2.6865">Tarkett IQ Optima: 824 colour.</text>
<text transform="matrix(1 0 0 1 265.2686 46.6975)"><tspan x="0" y="0" font-family="'Arial'" font-size="2.6865">Resilient Floor Finishe</tspan><tspan x="26.576" y="0" font-family="'Arial'" font-size="2.6865" letter-spacing="10">s</tspan><tspan x="38.136" y="0" font-family="'Arial'" font-size="2.6865">05-500</tspan></text>
<g>
	<text transform="matrix(1 0 0 1 146.9581 50.7003)" font-family="'Arial'" font-size="2.6865">.</text>
	<text transform="matrix(1 0 0 1 118.6174 50.7003)" font-family="'Arial'" font-size="2.6865">.</text>
</g>
<g>
	<text transform="matrix(1 0 0 1 307.0852 50.7051)" font-family="'Arial'" font-size="2.6865">.</text>
	<text transform="matrix(1 0 0 1 278.7455 50.7051)" font-family="'Arial'" font-size="2.6865">.</text>
</g>
<rect x="0.071" y="0" fill="none" width="319.393" height="65.018"/>
<text transform="matrix(1 0 0 1 16.4152 54.7609)" font-family="'Arial'" font-weight="bolder" font-size="2.6865">Glass Types</text>
<text transform="matrix(1 0 0 1 118.6067 54.7609)" font-family="'Arial'" font-weight="bolder" font-size="2.6865">.</text>
<text transform="matrix(1 0 0 1 146.9474 54.7609)" font-family="'Arial'" font-weight="bolder" font-size="2.6865">.</text>
<text transform="matrix(1 0 0 1 176.552 54.7609)" font-family="'Arial'" font-weight="bolder" font-size="2.6865">Glass Types</text>
<g>
	<text transform="matrix(1 0 0 1 307.0852 54.7609)" font-family="'Arial'" font-weight="bolder" font-size="2.6865">.</text>
	<text transform="matrix(1 0 0 1 278.7455 54.7609)" font-family="'Arial'" font-weight="bolder" font-size="2.6865">.</text>
</g>
<rect x="0.071" y="0" fill="none" width="319.393" height="65.018"/>
<text transform="matrix(1 0 0 1 2.9302 58.7115)"><tspan x="0" y="0" font-family="'Arial'" font-size="2.6865">VG-0</tspan><tspan x="6.27" y="0" font-family="'Arial'" font-size="2.6865" letter-spacing="5">1</tspan><tspan x="13.484" y="0" font-family="'Arial'" font-size="2.6865">Vision Glass</tspan></text>
<text transform="matrix(1 0 0 1 109.651 58.7115)" font-family="'Arial'" font-size="2.6865">Façade Glazing</text>
<text transform="matrix(1 0 0 1 163.0621 58.7115)"><tspan x="0" y="0" font-family="'Arial'" font-size="2.6865">VG-0</tspan><tspan x="6.27" y="0" font-family="'Arial'" font-size="2.6865" letter-spacing="5">6</tspan><tspan x="13.484" y="0" font-family="'Arial'" font-size="2.6865">Vision Glass</tspan></text>
<text transform="matrix(1 0 0 1 269.7825 58.7115)" font-family="'Arial'" font-size="2.6865">Façade Glazing</text>
<text transform="matrix(1 0 0 1 2.9302 62.7147)"><tspan x="0" y="0" font-family="'Arial'" font-size="2.6865">VG-0</tspan><tspan x="6.27" y="0" font-family="'Arial'" font-size="2.6865" letter-spacing="5">2</tspan><tspan x="13.484" y="0" font-family="'Arial'" font-size="2.6865">Safety Vision Glass</tspan></text>
<text transform="matrix(1 0 0 1 109.651 62.7147)" font-family="'Arial'" font-size="2.6865">Façade Glazing</text>
<text transform="matrix(1 0 0 1 163.0621 62.7147)"><tspan x="0" y="0" font-family="'Arial'" font-size="2.6865">VG-0</tspan><tspan x="6.27" y="0" font-family="'Arial'" font-size="2.6865" letter-spacing="5">7</tspan><tspan x="13.484" y="0" font-family="'Arial'" font-size="2.6865">Safety Vision Glass</tspan></text>
<text transform="matrix(1 0 0 1 269.7825 62.7147)" font-family="'Arial'" font-size="2.6865">Façade Glazing</text>
<rect x="0.071" y="0" fill="none" width="319.393" height="65.018"/>
<rect x="2.562" y="0.001" width="156.766" height="0.082"/>
<rect x="2.562" y="3.823" width="156.766" height="0.263"/>
<rect x="2.562" y="7.826" width="156.766" height="0.263"/>
<rect x="2.562" y="11.829" width="156.766" height="0.264"/>
<rect x="2.562" y="15.832" width="156.766" height="0.264"/>
<rect x="2.562" y="19.836" width="156.766" height="0.263"/>
<rect x="2.562" y="23.84" width="156.766" height="0.263"/>
<rect x="2.562" y="27.843" width="156.766" height="0.264"/>
<rect x="2.562" y="31.846" width="156.766" height="0.264"/>
<rect x="2.562" y="35.85" width="156.766" height="0.263"/>
<rect x="2.562" y="39.853" width="156.766" height="0.263"/>
<rect x="2.562" y="43.856" width="156.766" height="0.264"/>
<rect x="2.562" y="47.86" width="156.766" height="0.264"/>
<rect x="2.562" y="51.864" width="156.766" height="0.263"/>
<rect x="2.562" y="55.867" width="156.766" height="0.263"/>
<rect x="2.562" y="59.87" width="156.766" height="0.264"/>
<rect x="2.562" y="64.084" width="156.766" height="0.264"/>
<rect x="2.299" y="0" width="0.263" height="65.018"/>
<rect x="15.784" y="0" width="0.264" height="65.018"/>
<rect x="102.384" y="0" width="0.263" height="65.018"/>
<rect x="135.254" y="0" width="0.264" height="65.018"/>
<rect x="159.064" y="0" width="0.263" height="65.018"/>
<rect x="162.436" y="0" width="0.263" height="65.018"/>
<rect x="175.92" y="0" width="0.264" height="65.018"/>
<rect x="262.521" y="0" width="0.263" height="65.018"/>
<rect x="295.391" y="0" width="0.264" height="65.018"/>
<rect x="319.201" y="0" width="0.263" height="65.018"/>
<rect x="162.699" y="0.001" width="156.766" height="0.082"/>
<rect x="162.699" y="3.823" width="156.766" height="0.263"/>
<rect x="162.699" y="7.826" width="156.766" height="0.263"/>
<rect x="162.699" y="11.829" width="156.766" height="0.264"/>
<rect x="162.699" y="15.832" width="156.766" height="0.264"/>
<rect x="162.699" y="19.836" width="156.766" height="0.263"/>
<rect x="162.699" y="23.84" width="156.766" height="0.263"/>
<rect x="162.699" y="27.843" width="156.766" height="0.264"/>
<rect x="162.699" y="31.846" width="156.766" height="0.264"/>
<rect x="162.699" y="35.85" width="156.766" height="0.263"/>
<rect x="162.699" y="39.853" width="156.766" height="0.263"/>
<rect x="162.699" y="43.856" width="156.766" height="0.264"/>
<rect x="162.699" y="47.86" width="156.766" height="0.264"/>
<rect x="162.699" y="51.864" width="156.766" height="0.263"/>
<rect x="162.699" y="55.867" width="156.766" height="0.263"/>
<rect x="162.699" y="59.87" width="156.766" height="0.264"/>
<rect x="162.699" y="64.084" width="156.766" height="0.264"/>
</svg>
