<?xml version="1.0" encoding="utf-8"?>
<!-- Generator: Adobe Illustrator 18.1.1, SVG Export Plug-In . SVG Version: 6.00 Build 0)  -->
<svg version="1.1" id="Layer_1" xmlns="http://www.w3.org/2000/svg" xmlns:xlink="http://www.w3.org/1999/xlink" x="0px" y="0px"
	 viewBox="0 0 320 65.019" enable-background="new 0 0 320 65.019" xml:space="preserve">
<rect y="0" fill="#FFFFFF" width="320.315" height="65.019"/>
<rect x="2.563" y="4.632" fill="#C5D9F1" width="156.66" height="4.056"/>
<rect x="162.541" y="4.632" fill="#C5D9F1" width="156.818" height="4.056"/>
<rect x="2.563" y="24.65" fill="#C5D9F1" width="156.66" height="4.056"/>
<rect x="162.541" y="24.65" fill="#C5D9F1" width="156.818" height="4.056"/>
<rect x="2.563" y="48.67" fill="#C5D9F1" width="156.66" height="4.056"/>
<rect x="162.541" y="48.67" fill="#C5D9F1" width="156.818" height="4.056"/>
<rect x="2.563" y="56.677" fill="#C5D9F1" width="156.66" height="4.056"/>
<rect x="162.541" y="56.677" fill="#C5D9F1" width="156.818" height="4.056"/>
<rect x="2.563" y="64.684" fill="#C5D9F1" width="156.66" height="0.335"/>
<rect x="162.541" y="64.684" fill="#C5D9F1" width="156.818" height="0.335"/>
<rect x="0.071" y="0" fill="none" width="319.393" height="65.019"/>
<g>
	<text transform="matrix(1 0 0 1 146.9481 3.3681)" fill="#1D1D1B" font-family="'ArialMT'" font-size="2.6865">.</text>
	<text transform="matrix(1 0 0 1 118.6089 3.3681)" fill="#1D1D1B" font-family="'ArialMT'" font-size="2.6865">.</text>
</g>
<text transform="matrix(1 0 0 1 16.4169 7.425)" fill="#1D1D1B" font-family="'Arial-BoldMT'" font-size="2.6865">Rainwater Goods / Systems</text>
<text transform="matrix(1 0 0 1 118.6089 7.4787)" fill="#1D1D1B" font-family="'Arial-BoldMT'" font-size="2.6865">.</text>
<text transform="matrix(1 0 0 1 147.0538 7.6886)" fill="#1D1D1B" font-family="'Arial-BoldMT'" font-size="2.6865">.</text>
<text transform="matrix(1 0 0 1 176.5516 7.425)" fill="#1D1D1B" font-family="'Arial-BoldMT'" font-size="2.6865">Rainwater Goods / Systems</text>
<text transform="matrix(1 0 0 1 278.7431 7.4781)" fill="#1D1D1B" font-family="'Arial-BoldMT'" font-size="2.6865">.</text>
<text transform="matrix(1 0 0 1 307.1875 7.6875)" fill="#1D1D1B" font-family="'Arial-BoldMT'" font-size="2.6865">.</text>
<text transform="matrix(1 0 0 1 2.9282 11.3766)"><tspan x="0" y="0" fill="#1D1D1B" font-family="'ArialMT'" font-size="2.6865">RWS-0</tspan><tspan x="8.656" y="0" fill="#1D1D1B" font-family="'ArialMT'" font-size="2.6865" letter-spacing="3">1</tspan><tspan x="13.484" y="0" fill="#1D1D1B" font-family="'ArialMT'" font-size="2.6865">Downpipes</tspan></text>
<text transform="matrix(1 0 0 1 110.7566 11.4304)" fill="#1D1D1B" font-family="'ArialMT'" font-size="2.6865">Metal Roofing</text>
<text transform="matrix(1 0 0 1 143.2578 11.6934)" fill="#1D1D1B" font-family="'ArialMT'" font-size="2.6865">04-160</text>
<text transform="matrix(1 0 0 1 163.0655 11.3766)"><tspan x="0" y="0" fill="#1D1D1B" font-family="'ArialMT'" font-size="2.6865">RWS-0</tspan><tspan x="8.656" y="0" fill="#1D1D1B" font-family="'ArialMT'" font-size="2.6865" letter-spacing="3">4</tspan><tspan x="13.484" y="0" fill="#1D1D1B" font-family="'ArialMT'" font-size="2.6865">Downpipes</tspan></text>
<text transform="matrix(1 0 0 1 270.8925 11.4304)" fill="#1D1D1B" font-family="'ArialMT'" font-size="2.6865">Metal Roofing</text>
<text transform="matrix(1 0 0 1 303.3942 11.6934)" fill="#1D1D1B" font-family="'ArialMT'" font-size="2.6865">04-160</text>
<text transform="matrix(1 0 0 1 2.9282 15.382)"><tspan x="0" y="0" fill="#1D1D1B" font-family="'ArialMT'" font-size="2.6865">RWS-0</tspan><tspan x="8.656" y="0" fill="#1D1D1B" font-family="'ArialMT'" font-size="2.6865" letter-spacing="3">2</tspan><tspan x="13.484" y="0" fill="#1D1D1B" font-family="'ArialMT'" font-size="2.6865">Eaves Gutters</tspan></text>
<text transform="matrix(1 0 0 1 110.7566 15.4362)" fill="#1D1D1B" font-family="'ArialMT'" font-size="2.6865">Metal Roofing</text>
<text transform="matrix(1 0 0 1 143.2578 15.6992)" fill="#1D1D1B" font-family="'ArialMT'" font-size="2.6865">04-203</text>
<text transform="matrix(1 0 0 1 163.0655 15.382)"><tspan x="0" y="0" fill="#1D1D1B" font-family="'ArialMT'" font-size="2.6865">RWS-0</tspan><tspan x="8.656" y="0" fill="#1D1D1B" font-family="'ArialMT'" font-size="2.6865" letter-spacing="3">5</tspan><tspan x="13.484" y="0" fill="#1D1D1B" font-family="'ArialMT'" font-size="2.6865">Eaves Gutters</tspan></text>
<text transform="matrix(1 0 0 1 270.8925 15.4362)" fill="#1D1D1B" font-family="'ArialMT'" font-size="2.6865">Metal Roofing</text>
<text transform="matrix(1 0 0 1 303.3942 15.6992)" fill="#1D1D1B" font-family="'ArialMT'" font-size="2.6865">04-203</text>
<text transform="matrix(1 0 0 1 2.9282 19.3847)"><tspan x="0" y="0" fill="#1D1D1B" font-family="'ArialMT'" font-size="2.6865">RWS-0</tspan><tspan x="8.656" y="0" fill="#1D1D1B" font-family="'ArialMT'" font-size="2.6865" letter-spacing="3">3</tspan><tspan x="13.484" y="0" fill="#1D1D1B" font-family="'ArialMT'" font-size="2.6865">Box Gutters</tspan></text>
<text transform="matrix(1 0 0 1 110.7566 19.4384)" fill="#1D1D1B" font-family="'ArialMT'" font-size="2.6865">Metal Roofing</text>
<text transform="matrix(1 0 0 1 143.2578 19.702)" fill="#1D1D1B" font-family="'ArialMT'" font-size="2.6865">04-203</text>
<text transform="matrix(1 0 0 1 163.0655 19.3847)"><tspan x="0" y="0" fill="#1D1D1B" font-family="'ArialMT'" font-size="2.6865">RWS-0</tspan><tspan x="8.656" y="0" fill="#1D1D1B" font-family="'ArialMT'" font-size="2.6865" letter-spacing="3">6</tspan><tspan x="13.484" y="0" fill="#1D1D1B" font-family="'ArialMT'" font-size="2.6865">Box Gutters</tspan></text>
<text transform="matrix(1 0 0 1 270.8925 19.4384)" fill="#1D1D1B" font-family="'ArialMT'" font-size="2.6865">Metal Roofing</text>
<text transform="matrix(1 0 0 1 303.3942 19.702)" fill="#1D1D1B" font-family="'ArialMT'" font-size="2.6865">04-203</text>
<text transform="matrix(1 0 0 1 118.6063 23.4415)" fill="#1D1D1B" font-family="'ArialMT'" font-size="2.6865">.</text>
<text transform="matrix(1 0 0 1 147.0506 23.7046)" fill="#1D1D1B" font-family="'ArialMT'" font-size="2.6865">.</text>
<text transform="matrix(1 0 0 1 278.7431 23.4415)" fill="#1D1D1B" font-family="'ArialMT'" font-size="2.6865">.</text>
<text transform="matrix(1 0 0 1 307.1875 23.7046)" fill="#1D1D1B" font-family="'ArialMT'" font-size="2.6865">.</text>
<text transform="matrix(1 0 0 1 16.4147 27.4442)" fill="#1D1D1B" font-family="'Arial-BoldMT'" font-size="2.6865">Roofing Systems</text>
<text transform="matrix(1 0 0 1 118.6063 27.4979)" fill="#1D1D1B" font-family="'Arial-BoldMT'" font-size="2.6865">.</text>
<text transform="matrix(1 0 0 1 147.0506 27.7078)" fill="#1D1D1B" font-family="'Arial-BoldMT'" font-size="2.6865">.</text>
<text transform="matrix(1 0 0 1 176.5489 27.4442)" fill="#1D1D1B" font-family="'Arial-BoldMT'" font-size="2.6865">Roofing Systems</text>
<text transform="matrix(1 0 0 1 278.7409 27.4979)" fill="#1D1D1B" font-family="'Arial-BoldMT'" font-size="2.6865">.</text>
<text transform="matrix(1 0 0 1 307.1852 27.7078)" fill="#1D1D1B" font-family="'Arial-BoldMT'" font-size="2.6865">.</text>
<text transform="matrix(1 0 0 1 2.926 31.3964)"><tspan x="0" y="0" fill="#1D1D1B" font-family="'ArialMT'" font-size="2.6865">RFS-0</tspan><tspan x="7.762" y="0" fill="#1D1D1B" font-family="'ArialMT'" font-size="2.6865" letter-spacing="4">1</tspan><tspan x="13.484" y="0" fill="#1D1D1B" font-family="'ArialMT'" font-size="2.6865">Metal Deck Roof</tspan></text>
<text transform="matrix(1 0 0 1 110.7539 31.4496)" fill="#1D1D1B" font-family="'ArialMT'" font-size="2.6865">Metal Roofing</text>
<text transform="matrix(1 0 0 1 143.2547 31.7137)" fill="#1D1D1B" font-family="'ArialMT'" font-size="2.6865">04-203</text>
<text transform="matrix(1 0 0 1 163.0623 31.3964)"><tspan x="0" y="0" fill="#1D1D1B" font-family="'ArialMT'" font-size="2.6865">RFS-0</tspan><tspan x="7.762" y="0" fill="#1D1D1B" font-family="'ArialMT'" font-size="2.6865" letter-spacing="4">5</tspan><tspan x="13.484" y="0" fill="#1D1D1B" font-family="'ArialMT'" font-size="2.6865">Metal Deck Roof</tspan></text>
<text transform="matrix(1 0 0 1 270.8903 31.4496)" fill="#1D1D1B" font-family="'ArialMT'" font-size="2.6865">Metal Roofing</text>
<text transform="matrix(1 0 0 1 303.3915 31.7137)" fill="#1D1D1B" font-family="'ArialMT'" font-size="2.6865">04-203</text>
<text transform="matrix(1 0 0 1 2.926 35.7158)" fill="#1D1D1B" font-family="'ArialMT'" font-size="2.6865">RFS-02</text>
<text transform="matrix(1 0 0 1 16.4116 35.399)" fill="#1D1D1B" font-family="'ArialMT'" font-size="2.6865">Primary Parapet Capping</text>
<text transform="matrix(1 0 0 1 110.7566 35.4532)" fill="#1D1D1B" font-family="'ArialMT'" font-size="2.6865">Metal Roofing</text>
<text transform="matrix(1 0 0 1 143.2578 35.7158)" fill="#1D1D1B" font-family="'ArialMT'" font-size="2.6865">04-203</text>
<text transform="matrix(1 0 0 1 163.0655 35.399)"><tspan x="0" y="0" fill="#1D1D1B" font-family="'ArialMT'" font-size="2.6865">RFS-0</tspan><tspan x="7.762" y="0" fill="#1D1D1B" font-family="'ArialMT'" font-size="2.6865" letter-spacing="4">6</tspan><tspan x="13.484" y="0" fill="#1D1D1B" font-family="'ArialMT'" font-size="2.6865">Primary Parapet Capping</tspan></text>
<text transform="matrix(1 0 0 1 270.8925 35.4532)" fill="#1D1D1B" font-family="'ArialMT'" font-size="2.6865">Metal Roofing</text>
<text transform="matrix(1 0 0 1 303.3942 35.7158)" fill="#1D1D1B" font-family="'ArialMT'" font-size="2.6865">04-203</text>
<text transform="matrix(1 0 0 1 2.9282 39.4044)"><tspan x="0" y="0" fill="#1D1D1B" font-family="'ArialMT'" font-size="2.6865">RFS-0</tspan><tspan x="7.762" y="0" fill="#1D1D1B" font-family="'ArialMT'" font-size="2.6865" letter-spacing="4">3</tspan><tspan x="13.484" y="0" fill="#1D1D1B" font-family="'ArialMT'" font-size="2.6865">Parapet Capping </tspan></text>
<text transform="matrix(1 0 0 1 108.9129 39.4586)" fill="#1D1D1B" font-family="'ArialMT'" font-size="2.6865">Façade Cladding</text>
<text transform="matrix(1 0 0 1 163.0655 39.4044)"><tspan x="0" y="0" fill="#1D1D1B" font-family="'ArialMT'" font-size="2.6865">RFS-0</tspan><tspan x="7.762" y="0" fill="#1D1D1B" font-family="'ArialMT'" font-size="2.6865" letter-spacing="4">7</tspan><tspan x="13.484" y="0" fill="#1D1D1B" font-family="'ArialMT'" font-size="2.6865">Parapet Capping </tspan></text>
<text transform="matrix(1 0 0 1 269.0497 39.4586)" fill="#1D1D1B" font-family="'ArialMT'" font-size="2.6865">Façade Cladding</text>
<text transform="matrix(1 0 0 1 2.9282 43.4102)"><tspan x="0" y="0" fill="#1D1D1B" font-family="'ArialMT'" font-size="2.6865">RFS-0</tspan><tspan x="7.762" y="0" fill="#1D1D1B" font-family="'ArialMT'" font-size="2.6865" letter-spacing="4">4</tspan><tspan x="13.484" y="0" fill="#1D1D1B" font-family="'ArialMT'" font-size="2.6865">Metal Deck Roof</tspan></text>
<text transform="matrix(1 0 0 1 110.7566 43.4639)" fill="#1D1D1B" font-family="'ArialMT'" font-size="2.6865">Metal Roofing</text>
<text transform="matrix(1 0 0 1 143.2578 43.727)" fill="#1D1D1B" font-family="'ArialMT'" font-size="2.6865">04-203</text>
<text transform="matrix(1 0 0 1 163.0655 43.4102)"><tspan x="0" y="0" fill="#1D1D1B" font-family="'ArialMT'" font-size="2.6865">RFS-0</tspan><tspan x="7.762" y="0" fill="#1D1D1B" font-family="'ArialMT'" font-size="2.6865" letter-spacing="4">8</tspan><tspan x="13.484" y="0" fill="#1D1D1B" font-family="'ArialMT'" font-size="2.6865">Metal Deck Roof</tspan></text>
<text transform="matrix(1 0 0 1 270.8925 43.4639)" fill="#1D1D1B" font-family="'ArialMT'" font-size="2.6865">Metal Roofing</text>
<text transform="matrix(1 0 0 1 303.3942 43.727)" fill="#1D1D1B" font-family="'ArialMT'" font-size="2.6865">04-203</text>
<g>
	<text transform="matrix(1 0 0 1 146.946 47.4671)" fill="#1D1D1B" font-family="'ArialMT'" font-size="2.6865">.</text>
	<text transform="matrix(1 0 0 1 118.6063 47.4671)" fill="#1D1D1B" font-family="'ArialMT'" font-size="2.6865">.</text>
</g>
<g>
	<text transform="matrix(1 0 0 1 307.0839 47.458)" fill="#1D1D1B" font-family="'ArialMT'" font-size="2.6865">.</text>
	<text transform="matrix(1 0 0 1 278.7441 47.458)" fill="#1D1D1B" font-family="'ArialMT'" font-size="2.6865">.</text>
</g>
<rect x="0.071" y="0" fill="none" width="319.393" height="65.019"/>
<text transform="matrix(1 0 0 1 16.4153 51.5138)" fill="#1D1D1B" font-family="'Arial-BoldMT'" font-size="2.6865">Rooflight/ Skylight</text>
<text transform="matrix(1 0 0 1 118.6127 51.5138)" fill="#1D1D1B" font-family="'Arial-BoldMT'" font-size="2.6865">.</text>
<text transform="matrix(1 0 0 1 146.9529 51.5138)" fill="#1D1D1B" font-family="'Arial-BoldMT'" font-size="2.6865">.</text>
<text transform="matrix(1 0 0 1 176.5575 51.5138)" fill="#1D1D1B" font-family="'Arial-BoldMT'" font-size="2.6865">Rooflight/ Skylight</text>
<text transform="matrix(1 0 0 1 278.7549 51.5138)" fill="#1D1D1B" font-family="'Arial-BoldMT'" font-size="2.6865">.</text>
<text transform="matrix(1 0 0 1 307.0946 51.5138)" fill="#1D1D1B" font-family="'Arial-BoldMT'" font-size="2.6865">.</text>
<g>
	<text transform="matrix(1 0 0 1 146.9492 55.4654)" fill="#1D1D1B" font-family="'ArialMT'" font-size="2.6865">.</text>
	<text transform="matrix(1 0 0 1 118.61 55.4654)" fill="#1D1D1B" font-family="'ArialMT'" font-size="2.6865">.</text>
</g>
<g>
	<text transform="matrix(1 0 0 1 307.0839 55.4644)" fill="#1D1D1B" font-family="'ArialMT'" font-size="2.6865">.</text>
	<text transform="matrix(1 0 0 1 278.7441 55.4644)" fill="#1D1D1B" font-family="'ArialMT'" font-size="2.6865">.</text>
</g>
<rect x="0.071" y="0" fill="none" width="319.393" height="65.019"/>
<text transform="matrix(1 0 0 1 16.4153 59.5212)" fill="#1D1D1B" font-family="'Arial-BoldMT'" font-size="2.6865">Sanitaryware</text>
<text transform="matrix(1 0 0 1 118.6068 59.5212)" fill="#1D1D1B" font-family="'Arial-BoldMT'" font-size="2.6865">.</text>
<text transform="matrix(1 0 0 1 146.947 59.5212)" fill="#1D1D1B" font-family="'Arial-BoldMT'" font-size="2.6865">.</text>
<text transform="matrix(1 0 0 1 176.5526 59.5212)" fill="#1D1D1B" font-family="'Arial-BoldMT'" font-size="2.6865">Sanitaryware</text>
<text transform="matrix(1 0 0 1 278.7441 59.5212)" fill="#1D1D1B" font-family="'Arial-BoldMT'" font-size="2.6865">.</text>
<text transform="matrix(1 0 0 1 307.0839 59.5212)" fill="#1D1D1B" font-family="'Arial-BoldMT'" font-size="2.6865">.</text>
<text transform="matrix(1 0 0 1 118.61 63.4724)" fill="#1D1D1B" font-family="'ArialMT'" font-size="2.6865">.</text>
<text transform="matrix(1 0 0 1 147.0528 63.7344)" fill="#1D1D1B" font-family="'ArialMT'" font-size="2.6865">.</text>
<rect x="0.071" y="0" fill="none" width="319.393" height="65.019"/>
<text transform="matrix(1 0 0 1 278.7441 63.4713)" fill="#1D1D1B" font-family="'ArialMT'" font-size="2.6865">.</text>
<text transform="matrix(1 0 0 1 307.1895 63.7344)" fill="#1D1D1B" font-family="'ArialMT'" font-size="2.6865">.</text>
<rect x="0.071" y="0" fill="none" width="319.393" height="65.019"/>
<rect x="2.563" y="0.523" fill="#1D1D1B" width="156.766" height="0.264"/>
<rect x="2.563" y="4.527" fill="#1D1D1B" width="156.766" height="0.264"/>
<rect x="2.563" y="8.531" fill="#1D1D1B" width="156.766" height="0.263"/>
<rect x="2.563" y="12.534" fill="#1D1D1B" width="156.766" height="0.263"/>
<rect x="2.563" y="16.537" fill="#1D1D1B" width="156.766" height="0.264"/>
<rect x="2.563" y="20.54" fill="#1D1D1B" width="156.766" height="0.264"/>
<rect x="2.563" y="24.543" fill="#1D1D1B" width="156.766" height="0.264"/>
<rect x="2.563" y="28.548" fill="#1D1D1B" width="156.766" height="0.263"/>
<rect x="2.563" y="32.551" fill="#1D1D1B" width="156.766" height="0.264"/>
<rect x="2.563" y="36.554" fill="#1D1D1B" width="156.766" height="0.264"/>
<rect x="2.563" y="40.557" fill="#1D1D1B" width="156.766" height="0.264"/>
<rect x="2.563" y="44.561" fill="#1D1D1B" width="156.766" height="0.263"/>
<rect x="2.563" y="48.565" fill="#1D1D1B" width="156.766" height="0.263"/>
<rect x="2.563" y="52.568" fill="#1D1D1B" width="156.766" height="0.264"/>
<rect x="2.563" y="56.571" fill="#1D1D1B" width="156.766" height="0.264"/>
<rect x="2.563" y="60.575" fill="#1D1D1B" width="156.766" height="0.263"/>
<rect x="2.563" y="64.578" fill="#1D1D1B" width="156.766" height="0.263"/>
<rect x="2.3" y="0" fill="#1D1D1B" width="0.263" height="65.019"/>
<rect x="15.785" y="0" fill="#1D1D1B" width="0.264" height="65.019"/>
<rect x="102.384" y="0" fill="#1D1D1B" width="0.264" height="65.019"/>
<rect x="135.255" y="0" fill="#1D1D1B" width="0.264" height="65.019"/>
<rect x="159.064" y="0" fill="#1D1D1B" width="0.264" height="65.019"/>
<rect x="162.436" y="0" fill="#1D1D1B" width="0.264" height="65.019"/>
<rect x="175.921" y="0" fill="#1D1D1B" width="0.263" height="65.019"/>
<rect x="262.521" y="0" fill="#1D1D1B" width="0.264" height="65.019"/>
<rect x="295.391" y="0" fill="#1D1D1B" width="0.264" height="65.019"/>
<rect x="319.201" y="0" fill="#1D1D1B" width="0.263" height="65.019"/>
<rect x="162.7" y="0.523" fill="#1D1D1B" width="156.765" height="0.264"/>
<rect x="162.7" y="4.527" fill="#1D1D1B" width="156.765" height="0.264"/>
<rect x="162.7" y="8.531" fill="#1D1D1B" width="156.765" height="0.263"/>
<rect x="162.7" y="12.534" fill="#1D1D1B" width="156.765" height="0.263"/>
<rect x="162.7" y="16.537" fill="#1D1D1B" width="156.765" height="0.264"/>
<rect x="162.7" y="20.54" fill="#1D1D1B" width="156.765" height="0.264"/>
<rect x="162.7" y="24.543" fill="#1D1D1B" width="156.765" height="0.264"/>
<rect x="162.7" y="28.548" fill="#1D1D1B" width="156.765" height="0.263"/>
<rect x="162.7" y="32.551" fill="#1D1D1B" width="156.765" height="0.264"/>
<rect x="162.7" y="36.554" fill="#1D1D1B" width="156.765" height="0.264"/>
<rect x="162.7" y="40.557" fill="#1D1D1B" width="156.765" height="0.264"/>
<rect x="162.7" y="44.561" fill="#1D1D1B" width="156.765" height="0.263"/>
<rect x="162.7" y="48.565" fill="#1D1D1B" width="156.765" height="0.263"/>
<rect x="162.7" y="52.568" fill="#1D1D1B" width="156.765" height="0.264"/>
<rect x="162.7" y="56.571" fill="#1D1D1B" width="156.765" height="0.264"/>
<rect x="162.7" y="60.575" fill="#1D1D1B" width="156.765" height="0.263"/>
<rect x="162.7" y="64.578" fill="#1D1D1B" width="156.765" height="0.263"/>
</svg>
