<?xml version="1.0" encoding="utf-8"?>
<!-- Generator: Adobe Illustrator 18.1.1, SVG Export Plug-In . SVG Version: 6.00 Build 0)  -->
<svg version="1.1" id="Layer_1" xmlns="http://www.w3.org/2000/svg" xmlns:xlink="http://www.w3.org/1999/xlink" x="0px" y="0px"
	 viewBox="0 0 320 65.019" enable-background="new 0 0 320 65.019" xml:space="preserve">
<rect y="0" fill="#ffffff" width="320.315" height="65.019"/>
<rect x="2.562" y="4.881" fill="#c5d9f1" width="156.66" height="4.056"/>
<rect x="162.54" y="4.881" fill="#c5d9f1" width="156.819" height="4.056"/>
<rect x="2.562" y="60.929" fill="#c5d9f1" width="156.66" height="4.056"/>
<rect x="162.54" y="60.929" fill="#c5d9f1" width="156.819" height="4.056"/>
<rect x="0.072" y="0" fill="none" width="319.393" height="65.019"/>
<g>
	<text transform="matrix(1 0 0 1 146.9482 3.6167)" font-family="'Arial'" font-size="2.6865">.</text>
	<text transform="matrix(1 0 0 1 118.6079 3.6167)" font-family="'Arial'" font-size="2.6865">.</text>
</g>
<g>
	<text transform="matrix(1 0 0 1 307.085 3.6167)" font-family="'Arial'" font-size="2.6865">.</text>
	<text transform="matrix(1 0 0 1 278.7458 3.6167)" font-family="'Arial'" font-size="2.6865">.</text>
</g>
<rect x="0.072" y="0" fill="none" width="319.393" height="65.019"/>
<text transform="matrix(1 0 0 1 16.4154 7.6725)" font-family="'Arial'" font-weight="bolder" font-size="2.6865">Architectural Metalwork</text>
<text transform="matrix(1 0 0 1 118.6074 7.6725)" font-family="'Arial'" font-weight="bolder" font-size="2.6865">.</text>
<text transform="matrix(1 0 0 1 146.9471 7.6725)" font-family="'Arial'" font-weight="bolder" font-size="2.6865">.</text>
<text transform="matrix(1 0 0 1 176.5527 7.6725)" font-family="'Arial'" font-weight="bolder" font-size="2.6865">Architectural Metalwork</text>
<text transform="matrix(1 0 0 1 278.7442 7.6725)" font-family="'Arial'" font-weight="bolder" font-size="2.6865">.</text>
<text transform="matrix(1 0 0 1 307.0839 7.6725)" font-family="'Arial'" font-weight="bolder" font-size="2.6865">.</text>
<text transform="matrix(1 0 0 1 2.932 11.6247)"><tspan x="0" y="0" font-family="'Arial'" font-size="2.6865">AM-0</tspan><tspan x="6.418" y="0" font-family="'Arial'" font-size="2.6865" letter-spacing="5">1</tspan><tspan x="13.484" y="0" font-family="'Arial'" font-size="2.6865">Roof access ladder</tspan></text>
<text transform="matrix(1 0 0 1 109.1777 11.6247)" font-family="'Arial'" font-size="2.6865">Access &amp; Safety</text>
<text transform="matrix(1 0 0 1 143.1543 11.6247)"><tspan x="0" y="0" font-family="'Arial'" font-size="2.6865">06-50</tspan><tspan x="6.871" y="0" font-family="'Arial'" font-size="2.6865" letter-spacing="11">0</tspan><tspan x="19.909" y="0" font-family="'Arial'" font-size="2.6865">AM-1</tspan><tspan x="26.327" y="0" font-family="'Arial'" font-size="2.6865" letter-spacing="5">5</tspan><tspan x="33.394" y="0" font-family="'Arial'" font-size="2.6865">Maxi Bins Panels</tspan></text>
<text transform="matrix(1 0 0 1 272.6268 11.6247)" font-family="'Arial'" font-size="2.6865"> Metalwork</text>
<text transform="matrix(1 0 0 1 303.2821 11.6247)" font-family="'Arial'" font-size="2.6865">05-800</text>
<text transform="matrix(1 0 0 1 2.932 15.6273)"><tspan x="0" y="0" font-family="'Arial'" font-size="2.6865">AM-0</tspan><tspan x="6.418" y="0" font-family="'Arial'" font-size="2.6865" letter-spacing="5">2</tspan><tspan x="13.484" y="0" font-family="'Arial'" font-size="2.6865">Roof access walkway</tspan></text>
<text transform="matrix(1 0 0 1 109.1777 15.6273)" font-family="'Arial'" font-size="2.6865">Access &amp; Safety</text>
<text transform="matrix(1 0 0 1 143.1543 15.6273)"><tspan x="0" y="0" font-family="'Arial'" font-size="2.6865">06-50</tspan><tspan x="6.871" y="0" font-family="'Arial'" font-size="2.6865" letter-spacing="11">0</tspan><tspan x="19.909" y="0" font-family="'Arial'" font-size="2.6865">AM-1</tspan><tspan x="26.327" y="0" font-family="'Arial'" font-size="2.6865" letter-spacing="5">7</tspan><tspan x="33.394" y="0" font-family="'Arial'" font-size="2.6865">Patient Lifter - Ceiling Mounted</tspan></text>
<text transform="matrix(1 0 0 1 272.6241 15.6273)" font-family="'Arial'" font-size="2.6865"> Metalwork</text>
<text transform="matrix(1 0 0 1 303.2799 15.6273)" font-family="'Arial'" font-size="2.6865">05-800</text>
<text transform="matrix(1 0 0 1 2.9293 19.63)"><tspan x="0" y="0" font-family="'Arial'" font-size="2.6865">AM-0</tspan><tspan x="6.418" y="0" font-family="'Arial'" font-size="2.6865" letter-spacing="5">3</tspan><tspan x="13.484" y="0" font-family="'Arial'" font-size="2.6865">Aluminium Boxed out Frame</tspan></text>
<text transform="matrix(1 0 0 1 163.0662 19.63)"><tspan x="0" y="0" font-family="'Arial'" font-size="2.6865">AM-1</tspan><tspan x="6.418" y="0" font-family="'Arial'" font-size="2.6865" letter-spacing="5">9</tspan><tspan x="13.484" y="0" font-family="'Arial'" font-size="2.6865">Brackets - Monitor</tspan></text>
<text transform="matrix(1 0 0 1 272.6326 19.63)" font-family="'Arial'" font-size="2.6865"> Metalwork</text>
<text transform="matrix(1 0 0 1 303.288 19.63)" font-family="'Arial'" font-size="2.6865">05-800</text>
<text transform="matrix(1 0 0 1 2.9293 23.6332)"><tspan x="0" y="0" font-family="'Arial'" font-size="2.6865">AM-0</tspan><tspan x="6.418" y="0" font-family="'Arial'" font-size="2.6865" letter-spacing="5">4</tspan><tspan x="13.484" y="0" font-family="'Arial'" font-size="2.6865">Step Bridge</tspan></text>
<text transform="matrix(1 0 0 1 109.175 23.6332)" font-family="'Arial'" font-size="2.6865">Access &amp; Safety</text>
<text transform="matrix(1 0 0 1 143.1512 23.6332)"><tspan x="0" y="0" font-family="'Arial'" font-size="2.6865">06-50</tspan><tspan x="6.871" y="0" font-family="'Arial'" font-size="2.6865" letter-spacing="11">0</tspan><tspan x="19.909" y="0" font-family="'Arial'" font-size="2.6865">AM-2</tspan><tspan x="26.327" y="0" font-family="'Arial'" font-size="2.6865" letter-spacing="5">0</tspan><tspan x="33.394" y="0" font-family="'Arial'" font-size="2.6865">Brackets - Sharps</tspan></text>
<text transform="matrix(1 0 0 1 272.6268 23.6332)" font-family="'Arial'" font-size="2.6865"> Metalwork</text>
<text transform="matrix(1 0 0 1 303.2821 23.6332)" font-family="'Arial'" font-size="2.6865">05-800</text>
<text transform="matrix(1 0 0 1 2.9293 27.6359)"><tspan x="0" y="0" font-family="'Arial'" font-size="2.6865">AM-0</tspan><tspan x="6.418" y="0" font-family="'Arial'" font-size="2.6865" letter-spacing="5">5</tspan><tspan x="13.484" y="0" font-family="'Arial'" font-size="2.6865">WC Grab rails</tspan></text>
<text transform="matrix(1 0 0 1 112.4958 27.6359)" font-family="'Arial'" font-size="2.6865"> Metalwork</text>
<text transform="matrix(1 0 0 1 143.1512 27.6359)"><tspan x="0" y="0" font-family="'Arial'" font-size="2.6865">05-80</tspan><tspan x="6.871" y="0" font-family="'Arial'" font-size="2.6865" letter-spacing="11">0</tspan><tspan x="19.909" y="0" font-family="'Arial'" font-size="2.6865">AM-2</tspan><tspan x="26.327" y="0" font-family="'Arial'" font-size="2.6865" letter-spacing="5">1</tspan><tspan x="33.394" y="0" font-family="'Arial'" font-size="2.6865">Bracket: TV Flexible</tspan></text>
<text transform="matrix(1 0 0 1 272.6268 27.6359)" font-family="'Arial'" font-size="2.6865"> Metalwork</text>
<text transform="matrix(1 0 0 1 303.2821 27.6359)" font-family="'Arial'" font-size="2.6865">05-800</text>
<text transform="matrix(1 0 0 1 2.9293 31.6396)"><tspan x="0" y="0" font-family="'Arial'" font-size="2.6865">AM-0</tspan><tspan x="6.418" y="0" font-family="'Arial'" font-size="2.6865" letter-spacing="5">6</tspan><tspan x="13.484" y="0" font-family="'Arial'" font-size="2.6865">Shower Grab rails</tspan></text>
<text transform="matrix(1 0 0 1 112.4926 31.6396)" font-family="'Arial'" font-size="2.6865"> Metalwork</text>
<text transform="matrix(1 0 0 1 143.1484 31.6396)"><tspan x="0" y="0" font-family="'Arial'" font-size="2.6865">05-80</tspan><tspan x="6.871" y="0" font-family="'Arial'" font-size="2.6865" letter-spacing="11">0</tspan><tspan x="19.909" y="0" font-family="'Arial'" font-size="2.6865">AM-2</tspan><tspan x="26.327" y="0" font-family="'Arial'" font-size="2.6865" letter-spacing="5">2</tspan><tspan x="33.394" y="0" font-family="'Arial'" font-size="2.6865">Wall mounted Patient entertainment System bracket</tspan></text>
<text transform="matrix(1 0 0 1 272.6219 31.6396)" font-family="'Arial'" font-size="2.6865"> Metalwork</text>
<text transform="matrix(1 0 0 1 303.2907 31.6927)" font-family="'Arial'" font-size="2.6865">05-800</text>
<text transform="matrix(1 0 0 1 2.9299 35.6443)"><tspan x="0" y="0" font-family="'Arial'" font-size="2.6865">AM-0</tspan><tspan x="6.418" y="0" font-family="'Arial'" font-size="2.6865" letter-spacing="5">7</tspan><tspan x="13.484" y="0" font-family="'Arial'" font-size="2.6865">Accessible WC Grab rails</tspan></text>
<text transform="matrix(1 0 0 1 112.4926 35.6443)" font-family="'Arial'" font-size="2.6865"> Metalwork</text>
<text transform="matrix(1 0 0 1 143.1484 35.6443)"><tspan x="0" y="0" font-family="'Arial'" font-size="2.6865">05-80</tspan><tspan x="6.871" y="0" font-family="'Arial'" font-size="2.6865" letter-spacing="11">0</tspan><tspan x="19.909" y="0" font-family="'Arial'" font-size="2.6865">AM-2</tspan><tspan x="26.327" y="0" font-family="'Arial'" font-size="2.6865" letter-spacing="5">3</tspan><tspan x="33.394" y="0" font-family="'Arial'" font-size="2.6865">Coathook</tspan></text>
<text transform="matrix(1 0 0 1 272.6219 35.6443)" font-family="'Arial'" font-size="2.6865"> Metalwork</text>
<text transform="matrix(1 0 0 1 303.288 35.6981)" font-family="'Arial'" font-size="2.6865">05-800</text>
<text transform="matrix(1 0 0 1 2.9266 39.6497)"><tspan x="0" y="0" font-family="'Arial'" font-size="2.6865">AM-0</tspan><tspan x="6.418" y="0" font-family="'Arial'" font-size="2.6865" letter-spacing="5">9</tspan><tspan x="13.484" y="0" font-family="'Arial'" font-size="2.6865">Curtain Track</tspan></text>
<text transform="matrix(1 0 0 1 107.7511 39.6497)"><tspan x="0" y="0" font-family="'Arial'" font-size="2.6865">Window Covering</tspan><tspan x="21.052" y="0" font-family="'Arial'" font-size="2.6865" letter-spacing="13">s</tspan><tspan x="35.398" y="0" font-family="'Arial'" font-size="2.6865">06-20</tspan><tspan x="42.269" y="0" font-family="'Arial'" font-size="2.6865" letter-spacing="11">0</tspan><tspan x="55.307" y="0" font-family="'Arial'" font-size="2.6865">AM-2</tspan><tspan x="61.726" y="0" font-family="'Arial'" font-size="2.6865" letter-spacing="5">4</tspan><tspan x="68.792" y="0" font-family="'Arial'" font-size="2.6865">Hook: Equipment </tspan></text>
<text transform="matrix(1 0 0 1 272.6191 39.6497)" font-family="'Arial'" font-size="2.6865"> Metalwork</text>
<text transform="matrix(1 0 0 1 303.288 39.7039)" font-family="'Arial'" font-size="2.6865">05-800</text>
<text transform="matrix(1 0 0 1 2.9266 43.6555)"><tspan x="0" y="0" font-family="'Arial'" font-size="2.6865">AM-1</tspan><tspan x="6.418" y="0" font-family="'Arial'" font-size="2.6865" letter-spacing="5">1</tspan><tspan x="13.484" y="0" font-family="'Arial'" font-size="2.6865">Metal shelving</tspan></text>
<text transform="matrix(1 0 0 1 112.4904 43.6555)" font-family="'Arial'" font-size="2.6865"> Metalwork</text>
<text transform="matrix(1 0 0 1 143.1463 43.6555)"><tspan x="0" y="0" font-family="'Arial'" font-size="2.6865">05-80</tspan><tspan x="6.871" y="0" font-family="'Arial'" font-size="2.6865" letter-spacing="11">0</tspan><tspan x="19.909" y="0" font-family="'Arial'" font-size="2.6865">AM-2</tspan><tspan x="26.327" y="0" font-family="'Arial'" font-size="2.6865" letter-spacing="5">5</tspan><tspan x="33.394" y="0" font-family="'Arial'" font-size="2.6865">Hook: Catheter Bag </tspan></text>
<text transform="matrix(1 0 0 1 272.6191 43.6555)" font-family="'Arial'" font-size="2.6865"> Metalwork</text>
<text transform="matrix(1 0 0 1 303.2858 43.7092)" font-family="'Arial'" font-size="2.6865">05-800</text>
<text transform="matrix(1 0 0 1 2.924 47.6614)"><tspan x="0" y="0" font-family="'Arial'" font-size="2.6865">AM-1</tspan><tspan x="6.418" y="0" font-family="'Arial'" font-size="2.6865" letter-spacing="5">2</tspan><tspan x="13.484" y="0" font-family="'Arial'" font-size="2.6865">Folding shower seat</tspan></text>
<text transform="matrix(1 0 0 1 112.4877 47.6614)" font-family="'Arial'" font-size="2.6865"> Metalwork</text>
<text transform="matrix(1 0 0 1 143.1436 47.6614)"><tspan x="0" y="0" font-family="'Arial'" font-size="2.6865">05-80</tspan><tspan x="6.871" y="0" font-family="'Arial'" font-size="2.6865" letter-spacing="11">0</tspan><tspan x="19.909" y="0" font-family="'Arial'" font-size="2.6865">AM-2</tspan><tspan x="26.327" y="0" font-family="'Arial'" font-size="2.6865" letter-spacing="5">6</tspan><tspan x="33.394" y="0" font-family="'Arial'" font-size="2.6865">Hook: IV Flask </tspan></text>
<text transform="matrix(1 0 0 1 272.6191 47.6614)" font-family="'Arial'" font-size="2.6865"> Metalwork</text>
<text transform="matrix(1 0 0 1 303.2858 47.7146)" font-family="'Arial'" font-size="2.6865">05-800</text>
<text transform="matrix(1 0 0 1 2.924 51.6668)"><tspan x="0" y="0" font-family="'Arial'" font-size="2.6865">AM-1</tspan><tspan x="6.418" y="0" font-family="'Arial'" font-size="2.6865" letter-spacing="5">3</tspan><tspan x="13.484" y="0" font-family="'Arial'" font-size="2.6865">Horizontal Wall Mounted Baby Change Table</tspan></text>
<text transform="matrix(1 0 0 1 112.4823 51.6668)" font-family="'Arial'" font-size="2.6865"> Metalwork</text>
<text transform="matrix(1 0 0 1 143.1377 51.6668)"><tspan x="0" y="0" font-family="'Arial'" font-size="2.6865">05-80</tspan><tspan x="6.871" y="0" font-family="'Arial'" font-size="2.6865" letter-spacing="11">0</tspan><tspan x="19.909" y="0" font-family="'Arial'" font-size="2.6865">AM-2</tspan><tspan x="26.327" y="0" font-family="'Arial'" font-size="2.6865" letter-spacing="5">7</tspan><tspan x="33.394" y="0" font-family="'Arial'" font-size="2.6865">Utility Wall shelf</tspan></text>
<text transform="matrix(1 0 0 1 272.6111 51.6668)" font-family="'Arial'" font-size="2.6865"> Metalwork</text>
<text transform="matrix(1 0 0 1 303.2831 51.7205)" font-family="'Arial'" font-size="2.6865">05-800</text>
<text transform="matrix(1 0 0 1 2.9213 55.6721)"><tspan x="0" y="0" font-family="'Arial'" font-size="2.6865">AM-1</tspan><tspan x="6.418" y="0" font-family="'Arial'" font-size="2.6865" letter-spacing="5">4</tspan><tspan x="13.484" y="0" font-family="'Arial'" font-size="2.6865">Vertical Wall Mounted Baby Change Table.</tspan></text>
<text transform="matrix(1 0 0 1 112.4823 55.6721)" font-family="'Arial'" font-size="2.6865"> Metalwork</text>
<text transform="matrix(1 0 0 1 143.1377 55.6721)"><tspan x="0" y="0" font-family="'Arial'" font-size="2.6865">05-80</tspan><tspan x="6.871" y="0" font-family="'Arial'" font-size="2.6865" letter-spacing="11">0</tspan><tspan x="19.909" y="0" font-family="'Arial'" font-size="2.6865">AM-2</tspan><tspan x="26.327" y="0" font-family="'Arial'" font-size="2.6865" letter-spacing="5">8</tspan><tspan x="33.394" y="0" font-family="'Arial'" font-size="2.6865">Rack - Pan &amp; Bottle</tspan></text>
<text transform="matrix(1 0 0 1 272.6133 55.6721)" font-family="'Arial'" font-size="2.6865"> Metalwork</text>
<text transform="matrix(1 0 0 1 303.2831 55.7258)" font-family="'Arial'" font-size="2.6865">05-800</text>
<g>
	<text transform="matrix(1 0 0 1 147.0437 59.678)" font-family="'Arial'" font-size="2.6865">.</text>
	<text transform="matrix(1 0 0 1 118.7041 59.678)" font-family="'Arial'" font-size="2.6865">.</text>
</g>
<g>
	<text transform="matrix(1 0 0 1 307.1902 59.6646)" font-family="'Arial'" font-size="2.6865">.</text>
	<text transform="matrix(1 0 0 1 278.8505 59.6646)" font-family="'Arial'" font-size="2.6865">.</text>
</g>
<text transform="matrix(1 0 0 1 16.417 63.7215)" font-family="'Arial'" font-weight="bolder" font-size="2.6865">Balustrades/ Handrails</text>
<text transform="matrix(1 0 0 1 118.6085 63.7215)" font-family="'Arial'" font-weight="bolder" font-size="2.6865">.</text>
<text transform="matrix(1 0 0 1 146.9492 63.7215)" font-family="'Arial'" font-weight="bolder" font-size="2.6865">.</text>
<text transform="matrix(1 0 0 1 176.5544 63.7215)" font-family="'Arial'" font-weight="bolder" font-size="2.6865">Balustrades/ Handrails</text>
<text transform="matrix(1 0 0 1 278.7458 63.7215)" font-family="'Arial'" font-weight="bolder" font-size="2.6865">.</text>
<text transform="matrix(1 0 0 1 307.086 63.7215)" font-family="'Arial'" font-weight="bolder" font-size="2.6865">.</text>
<rect x="0.072" y="0" fill="none" width="319.393" height="65.019"/>
<rect x="2.562" y="0.772" width="156.766" height="0.263"/>
<rect x="2.562" y="4.775" width="156.766" height="0.263"/>
<rect x="2.562" y="8.779" width="156.766" height="0.264"/>
<rect x="2.562" y="12.782" width="156.766" height="0.264"/>
<rect x="2.562" y="16.786" width="156.766" height="0.263"/>
<rect x="2.562" y="20.789" width="156.766" height="0.263"/>
<rect x="2.562" y="24.792" width="156.766" height="0.264"/>
<rect x="2.562" y="28.795" width="156.766" height="0.264"/>
<rect x="2.562" y="32.8" width="156.766" height="0.263"/>
<rect x="2.562" y="36.803" width="156.766" height="0.263"/>
<rect x="2.562" y="40.806" width="156.766" height="0.264"/>
<rect x="2.562" y="44.809" width="156.766" height="0.264"/>
<rect x="2.562" y="48.813" width="156.766" height="0.263"/>
<rect x="2.562" y="52.816" width="156.766" height="0.263"/>
<rect x="2.562" y="56.82" width="156.766" height="0.264"/>
<rect x="2.562" y="60.823" width="156.766" height="0.264"/>
<rect x="2.562" y="64.827" width="156.766" height="0.192"/>
<rect x="2.298" y="0" width="0.264" height="65.019"/>
<rect x="15.784" y="0" width="0.264" height="65.019"/>
<rect x="102.384" y="0" width="0.263" height="65.019"/>
<rect x="135.254" y="0" width="0.264" height="65.019"/>
<rect x="159.065" y="0" width="0.263" height="65.019"/>
<rect x="162.435" y="0" width="0.264" height="65.019"/>
<rect x="175.921" y="0" width="0.264" height="65.019"/>
<rect x="262.521" y="0" width="0.263" height="65.019"/>
<rect x="295.391" y="0" width="0.264" height="65.019"/>
<rect x="319.202" y="0" width="0.263" height="65.019"/>
<rect x="162.699" y="0.772" width="156.766" height="0.263"/>
<rect x="162.699" y="4.775" width="156.766" height="0.263"/>
<rect x="162.699" y="8.779" width="156.766" height="0.264"/>
<rect x="162.699" y="12.782" width="156.766" height="0.264"/>
<rect x="162.699" y="16.786" width="156.766" height="0.263"/>
<rect x="162.699" y="20.789" width="156.766" height="0.263"/>
<rect x="162.699" y="24.792" width="156.766" height="0.264"/>
<rect x="162.699" y="28.795" width="156.766" height="0.264"/>
<rect x="162.699" y="32.8" width="156.766" height="0.263"/>
<rect x="162.699" y="36.803" width="156.766" height="0.263"/>
<rect x="162.699" y="40.806" width="156.766" height="0.264"/>
<rect x="162.699" y="44.809" width="156.766" height="0.264"/>
<rect x="162.699" y="48.813" width="156.766" height="0.263"/>
<rect x="162.699" y="52.816" width="156.766" height="0.263"/>
<rect x="162.699" y="56.82" width="156.766" height="0.264"/>
<rect x="162.699" y="60.823" width="156.766" height="0.264"/>
<rect x="162.699" y="64.827" width="156.766" height="0.192"/>
</svg>
