<?xml version="1.0" encoding="utf-8"?>
<!-- Generator: Adobe Illustrator 18.1.1, SVG Export Plug-In . SVG Version: 6.00 Build 0)  -->
<svg version="1.1" id="Layer_1" xmlns="http://www.w3.org/2000/svg" xmlns:xlink="http://www.w3.org/1999/xlink" x="0px" y="0px"
	 viewBox="0 0 320 65.02" enable-background="new 0 0 320 65.02" xml:space="preserve">
<rect y="0" fill="#FFFFFF" width="320.315" height="65.019"/>
<rect x="2.561" y="0.001" fill="#C5D9F1" width="156.66" height="3.975"/>
<rect x="162.541" y="0.001" fill="#C5D9F1" width="156.819" height="3.975"/>
<rect x="2.562" y="15.934" fill="#C5D9F1" width="156.66" height="4.056"/>
<rect x="162.541" y="15.935" fill="#C5D9F1" width="156.819" height="4.056"/>
<rect x="2.562" y="55.969" fill="#C5D9F1" width="156.66" height="4.056"/>
<rect x="162.541" y="55.969" fill="#C5D9F1" width="156.819" height="4.056"/>
<rect x="2.561" y="64.187" fill="#C5D9F1" width="156.66" height="0.833"/>
<rect x="162.541" y="64.187" fill="#C5D9F1" width="156.819" height="0.833"/>
<text transform="matrix(1 0 0 1 16.4134 2.7144)" font-family="'Arial-BoldMT'" font-size="2.6865">Operable Walls</text>
<text transform="matrix(1 0 0 1 118.6086 2.7144)" font-family="'Arial-BoldMT'" font-size="2.6865">.</text>
<text transform="matrix(1 0 0 1 146.9483 2.7144)" font-family="'Arial-BoldMT'" font-size="2.6865">.</text>
<text transform="matrix(1 0 0 1 176.5535 2.7144)" font-family="'Arial-BoldMT'" font-size="2.6865">Operable Walls</text>
<text transform="matrix(1 0 0 1 278.7481 2.7144)" font-family="'Arial-BoldMT'" font-size="2.6865">.</text>
<text transform="matrix(1 0 0 1 307.0878 2.7144)" font-family="'Arial-BoldMT'" font-size="2.6865">.</text>
<rect x="0.071" y="0.001" fill="none" width="319.394" height="65.019"/>
<text transform="matrix(1 0 0 1 2.93 6.6634)"><tspan x="0" y="0" font-family="'ArialMT'" font-size="2.6865">OW-0</tspan><tspan x="7.014" y="0" font-family="'ArialMT'" font-size="2.6865" letter-spacing="4">1</tspan><tspan x="13.483" y="0" font-family="'ArialMT'" font-size="2.6865">Operable Wall - Solid</tspan></text>
<text transform="matrix(1 0 0 1 109.9123 6.6634)" font-family="'ArialMT'" font-size="2.6865">Operable Walls</text>
<text transform="matrix(1 0 0 1 143.2539 6.6634)"><tspan x="0" y="0" font-family="'ArialMT'" font-size="2.6865">05-18</tspan><tspan x="6.871" y="0" font-family="'ArialMT'" font-size="2.6865" letter-spacing="11">0</tspan><tspan x="19.805" y="0" font-family="'ArialMT'" font-size="2.6865">OW-0</tspan><tspan x="26.818" y="0" font-family="'ArialMT'" font-size="2.6865" letter-spacing="4">1</tspan><tspan x="33.288" y="0" font-family="'ArialMT'" font-size="2.6865">Operable Wall - Solid</tspan></text>
<text transform="matrix(1 0 0 1 270.0411 6.6634)" font-family="'ArialMT'" font-size="2.6865">Operable Walls</text>
<text transform="matrix(1 0 0 1 303.3826 6.6634)" font-family="'ArialMT'" font-size="2.6865">05-180</text>
<text transform="matrix(1 0 0 1 2.93 10.6655)"><tspan x="0" y="0" font-family="'ArialMT'" font-size="2.6865">OW-0</tspan><tspan x="7.014" y="0" font-family="'ArialMT'" font-size="2.6865" letter-spacing="4">2</tspan><tspan x="13.483" y="0" font-family="'ArialMT'" font-size="2.6865">Operable Wall - Glass</tspan></text>
<text transform="matrix(1 0 0 1 109.915 10.6655)" font-family="'ArialMT'" font-size="2.6865">Operable Walls</text>
<text transform="matrix(1 0 0 1 143.2576 10.6655)"><tspan x="0" y="0" font-family="'ArialMT'" font-size="2.6865">05-18</tspan><tspan x="6.871" y="0" font-family="'ArialMT'" font-size="2.6865" letter-spacing="11">0</tspan><tspan x="19.805" y="0" font-family="'ArialMT'" font-size="2.6865">OW-0</tspan><tspan x="26.818" y="0" font-family="'ArialMT'" font-size="2.6865" letter-spacing="4">2</tspan><tspan x="33.288" y="0" font-family="'ArialMT'" font-size="2.6865">Operable Wall - Glass</tspan></text>
<text transform="matrix(1 0 0 1 270.0469 10.6655)" font-family="'ArialMT'" font-size="2.6865">Operable Walls</text>
<text transform="matrix(1 0 0 1 303.3885 10.6655)" font-family="'ArialMT'" font-size="2.6865">05-180</text>
<g>
	<text transform="matrix(1 0 0 1 146.951 14.6687)" font-family="'ArialMT'" font-size="2.6865">.</text>
	<text transform="matrix(1 0 0 1 118.6108 14.6687)" font-family="'ArialMT'" font-size="2.6865">.</text>
</g>
<g>
	<text transform="matrix(1 0 0 1 307.0857 14.6703)" font-family="'ArialMT'" font-size="2.6865">.</text>
	<text transform="matrix(1 0 0 1 278.7449 14.6703)" font-family="'ArialMT'" font-size="2.6865">.</text>
</g>
<rect x="0.071" y="0.001" fill="none" width="319.394" height="65.019"/>
<text transform="matrix(1 0 0 1 16.4155 18.7261)" font-family="'Arial-BoldMT'" font-size="2.6865">Paint / Clear Finishes</text>
<text transform="matrix(1 0 0 1 118.7149 18.7261)" font-family="'Arial-BoldMT'" font-size="2.6865">.</text>
<text transform="matrix(1 0 0 1 147.0546 18.7261)" font-family="'Arial-BoldMT'" font-size="2.6865">.</text>
<text transform="matrix(1 0 0 1 176.5546 18.7261)" font-family="'Arial-BoldMT'" font-size="2.6865">Paint / Clear Finishes</text>
<text transform="matrix(1 0 0 1 278.8545 18.7261)" font-family="'Arial-BoldMT'" font-size="2.6865">.</text>
<text transform="matrix(1 0 0 1 307.1942 18.7261)" font-family="'Arial-BoldMT'" font-size="2.6865">.</text>
<text transform="matrix(1 0 0 1 2.9295 22.6777)"><tspan x="0" y="0" font-family="'ArialMT'" font-size="2.6865">PT-0</tspan><tspan x="5.822" y="0" font-family="'ArialMT'" font-size="2.6865" letter-spacing="6">1</tspan><tspan x="13.484" y="0" font-family="'ArialMT'" font-size="2.6865">Interior Acrylic Paint - Low Sheen</tspan></text>
<text transform="matrix(1 0 0 1 103.2219 22.6777)"><tspan x="0" y="0" font-family="'ArialMT'" font-size="2.6865">Painting and Wall Finishe</tspan><tspan x="30.313" y="0" font-family="'ArialMT'" font-size="2.6865" letter-spacing="8">s</tspan><tspan x="39.928" y="0" font-family="'ArialMT'" font-size="2.6865">05-60</tspan><tspan x="46.799" y="0" font-family="'ArialMT'" font-size="2.6865" letter-spacing="11">0</tspan><tspan x="59.837" y="0" font-family="'ArialMT'" font-size="2.6865">PT-0</tspan><tspan x="65.659" y="0" font-family="'ArialMT'" font-size="2.6865" letter-spacing="6">8</tspan><tspan x="73.321" y="0" font-family="'ArialMT'" font-size="2.6865">Interior Acrylic Paint - Low Sheen</tspan></text>
<text transform="matrix(1 0 0 1 263.3475 22.6777)" font-family="'ArialMT'" font-size="2.6865">Painting and Wall</text>
<text transform="matrix(1 0 0 1 284.2676 22.6777)"><tspan x="0" y="0" font-family="'ArialMT'" font-size="2.6865"> Finishe</tspan><tspan x="9.406" y="0" font-family="'ArialMT'" font-size="2.6865" letter-spacing="8">s</tspan><tspan x="19.019" y="0" font-family="'ArialMT'" font-size="2.6865">05-606</tspan></text>
<text transform="matrix(1 0 0 1 2.9295 26.681)"><tspan x="0" y="0" font-family="'ArialMT'" font-size="2.6865">PT-0</tspan><tspan x="5.822" y="0" font-family="'ArialMT'" font-size="2.6865" letter-spacing="6">2</tspan><tspan x="13.484" y="0" font-family="'ArialMT'" font-size="2.6865">Interior Acrylic Paint - Low Sheen</tspan></text>
<text transform="matrix(1 0 0 1 103.2219 26.681)"><tspan x="0" y="0" font-family="'ArialMT'" font-size="2.6865">Painting and Wall Finishe</tspan><tspan x="30.313" y="0" font-family="'ArialMT'" font-size="2.6865" letter-spacing="8">s</tspan><tspan x="40.033" y="0" font-family="'ArialMT'" font-size="2.6865">05-60</tspan><tspan x="46.904" y="0" font-family="'ArialMT'" font-size="2.6865" letter-spacing="11">0</tspan><tspan x="59.837" y="0" font-family="'ArialMT'" font-size="2.6865">PT-0</tspan><tspan x="65.659" y="0" font-family="'ArialMT'" font-size="2.6865" letter-spacing="6">9</tspan><tspan x="73.321" y="0" font-family="'ArialMT'" font-size="2.6865">Interior Acrylic Paint - Low Sheen</tspan></text>
<text transform="matrix(1 0 0 1 263.3475 26.681)" font-family="'ArialMT'" font-size="2.6865">Painting and Wall</text>
<text transform="matrix(1 0 0 1 284.2676 26.681)"><tspan x="0" y="0" font-family="'ArialMT'" font-size="2.6865"> Finishe</tspan><tspan x="9.406" y="0" font-family="'ArialMT'" font-size="2.6865" letter-spacing="8">s</tspan><tspan x="19.019" y="0" font-family="'ArialMT'" font-size="2.6865">05-607</tspan></text>
<text transform="matrix(1 0 0 1 2.9295 30.6831)"><tspan x="0" y="0" font-family="'ArialMT'" font-size="2.6865">PT-0</tspan><tspan x="5.822" y="0" font-family="'ArialMT'" font-size="2.6865" letter-spacing="6">3</tspan><tspan x="13.484" y="0" font-family="'ArialMT'" font-size="2.6865">Interior Acrylic Paint - Low Sheen</tspan></text>
<text transform="matrix(1 0 0 1 103.2219 30.6831)"><tspan x="0" y="0" font-family="'ArialMT'" font-size="2.6865">Painting and Wall Finishe</tspan><tspan x="30.313" y="0" font-family="'ArialMT'" font-size="2.6865" letter-spacing="8">s</tspan><tspan x="39.928" y="0" font-family="'ArialMT'" font-size="2.6865">05-60</tspan><tspan x="46.799" y="0" font-family="'ArialMT'" font-size="2.6865" letter-spacing="11">0</tspan><tspan x="59.837" y="0" font-family="'ArialMT'" font-size="2.6865">PT-1</tspan><tspan x="65.659" y="0" font-family="'ArialMT'" font-size="2.6865" letter-spacing="6">0</tspan><tspan x="73.321" y="0" font-family="'ArialMT'" font-size="2.6865">Interior Acrylic Paint - Low Sheen</tspan></text>
<text transform="matrix(1 0 0 1 263.3475 30.6831)" font-family="'ArialMT'" font-size="2.6865">Painting and Wall</text>
<text transform="matrix(1 0 0 1 284.2676 30.6831)"><tspan x="0" y="0" font-family="'ArialMT'" font-size="2.6865"> Finishe</tspan><tspan x="9.406" y="0" font-family="'ArialMT'" font-size="2.6865" letter-spacing="8">s</tspan><tspan x="19.019" y="0" font-family="'ArialMT'" font-size="2.6865">05-600</tspan></text>
<text transform="matrix(1 0 0 1 2.9295 34.6867)"><tspan x="0" y="0" font-family="'ArialMT'" font-size="2.6865">PT-0</tspan><tspan x="5.822" y="0" font-family="'ArialMT'" font-size="2.6865" letter-spacing="6">4</tspan><tspan x="13.484" y="0" font-family="'ArialMT'" font-size="2.6865">Interior Acrylic Paint - Low Sheen</tspan></text>
<text transform="matrix(1 0 0 1 103.2219 34.6867)"><tspan x="0" y="0" font-family="'ArialMT'" font-size="2.6865">Painting and Wall Finishe</tspan><tspan x="30.313" y="0" font-family="'ArialMT'" font-size="2.6865" letter-spacing="8">s</tspan><tspan x="39.928" y="0" font-family="'ArialMT'" font-size="2.6865">05-60</tspan><tspan x="46.799" y="0" font-family="'ArialMT'" font-size="2.6865" letter-spacing="11">0</tspan><tspan x="59.837" y="0" font-family="'ArialMT'" font-size="2.6865">PT-1</tspan><tspan x="65.659" y="0" font-family="'ArialMT'" font-size="2.6865" letter-spacing="6">1</tspan><tspan x="73.321" y="0" font-family="'ArialMT'" font-size="2.6865">Interior Acrylic Enamel Paint - Gloss</tspan></text>
<text transform="matrix(1 0 0 1 263.3475 34.6867)" font-family="'ArialMT'" font-size="2.6865">Painting and W</text>
<text transform="matrix(1 0 0 1 281.5809 34.6867)"><tspan x="0" y="0" font-family="'ArialMT'" font-size="2.6865">all Finishe</tspan><tspan x="12.095" y="0" font-family="'ArialMT'" font-size="2.6865" letter-spacing="8">s</tspan><tspan x="21.709" y="0" font-family="'ArialMT'" font-size="2.6865">05-600</tspan></text>
<text transform="matrix(1 0 0 1 2.9295 38.6895)"><tspan x="0" y="0" font-family="'ArialMT'" font-size="2.6865">PT-0</tspan><tspan x="5.822" y="0" font-family="'ArialMT'" font-size="2.6865" letter-spacing="6">5</tspan><tspan x="13.484" y="0" font-family="'ArialMT'" font-size="2.6865">Interior Acrylic Paint - Low Sheen</tspan></text>
<text transform="matrix(1 0 0 1 103.2219 38.6895)"><tspan x="0" y="0" font-family="'ArialMT'" font-size="2.6865">Painting and Wall Finishe</tspan><tspan x="30.313" y="0" font-family="'ArialMT'" font-size="2.6865" letter-spacing="8">s</tspan><tspan x="39.928" y="0" font-family="'ArialMT'" font-size="2.6865">05-60</tspan><tspan x="46.799" y="0" font-family="'ArialMT'" font-size="2.6865" letter-spacing="11">3</tspan><tspan x="59.837" y="0" font-family="'ArialMT'" font-size="2.6865">PT-1</tspan><tspan x="65.659" y="0" font-family="'ArialMT'" font-size="2.6865" letter-spacing="6">3</tspan><tspan x="73.321" y="0" font-family="'ArialMT'" font-size="2.6865">Concrete Floor Sealer</tspan></text>
<text transform="matrix(1 0 0 1 263.3475 38.6895)"><tspan x="0" y="0" font-family="'ArialMT'" font-size="2.6865">Painting and Wall Finishe</tspan><tspan x="30.313" y="0" font-family="'ArialMT'" font-size="2.6865" letter-spacing="8">s</tspan><tspan x="40.033" y="0" font-family="'ArialMT'" font-size="2.6865">05-6</tspan></text>
<text transform="matrix(1 0 0 1 308.7733 38.6895)" font-family="'ArialMT'" font-size="2.6865">00</text>
<text transform="matrix(1 0 0 1 2.9295 42.6921)"><tspan x="0" y="0" font-family="'ArialMT'" font-size="2.6865">PT-0</tspan><tspan x="5.822" y="0" font-family="'ArialMT'" font-size="2.6865" letter-spacing="6">6</tspan><tspan x="13.484" y="0" font-family="'ArialMT'" font-size="2.6865">Interior Acrylic Paint - Low Sheen</tspan></text>
<text transform="matrix(1 0 0 1 103.2219 42.6921)"><tspan x="0" y="0" font-family="'ArialMT'" font-size="2.6865">Painting and Wall Finishe</tspan><tspan x="30.313" y="0" font-family="'ArialMT'" font-size="2.6865" letter-spacing="8">s</tspan><tspan x="39.928" y="0" font-family="'ArialMT'" font-size="2.6865">05-60</tspan><tspan x="46.799" y="0" font-family="'ArialMT'" font-size="2.6865" letter-spacing="11">4</tspan><tspan x="59.837" y="0" font-family="'ArialMT'" font-size="2.6865">PT-1</tspan><tspan x="65.659" y="0" font-family="'ArialMT'" font-size="2.6865" letter-spacing="6">4</tspan><tspan x="73.321" y="0" font-family="'ArialMT'" font-size="2.6865">Paint to External Metalwork</tspan></text>
<text transform="matrix(1 0 0 1 263.3475 42.6921)" font-family="'ArialMT'" font-size="2.6865">Painting and Wall Finish</text>
<text transform="matrix(1 0 0 1 292.1795 42.6921)"><tspan x="0" y="0" font-family="'ArialMT'" font-size="2.6865">e</tspan><tspan x="1.494" y="0" font-family="'ArialMT'" font-size="2.6865" letter-spacing="8">s</tspan><tspan x="11.109" y="0" font-family="'ArialMT'" font-size="2.6865">05-600</tspan></text>
<text transform="matrix(1 0 0 1 2.9263 46.6948)"><tspan x="0" y="0" font-family="'ArialMT'" font-size="2.6865">PT-0</tspan><tspan x="5.822" y="0" font-family="'ArialMT'" font-size="2.6865" letter-spacing="6">7</tspan><tspan x="13.484" y="0" font-family="'ArialMT'" font-size="2.6865">Interior Acrylic Paint - Low Sheen</tspan></text>
<text transform="matrix(1 0 0 1 103.2192 46.6948)"><tspan x="0" y="0" font-family="'ArialMT'" font-size="2.6865">Painting and Wall Finishe</tspan><tspan x="30.313" y="0" font-family="'ArialMT'" font-size="2.6865" letter-spacing="8">s</tspan><tspan x="39.928" y="0" font-family="'ArialMT'" font-size="2.6865">05-60</tspan><tspan x="46.799" y="0" font-family="'ArialMT'" font-size="2.6865" letter-spacing="11">0</tspan><tspan x="59.837" y="0" font-family="'ArialMT'" font-size="2.6865">PT-1</tspan><tspan x="65.659" y="0" font-family="'ArialMT'" font-size="2.6865" letter-spacing="6">5</tspan><tspan x="73.321" y="0" font-family="'ArialMT'" font-size="2.6865">Line Marking Paint </tspan></text>
<text transform="matrix(1 0 0 1 263.3458 46.6948)"><tspan x="0" y="0" font-family="'ArialMT'" font-size="2.6865">Painting and Wall Finishe</tspan><tspan x="30.313" y="0" font-family="'ArialMT'" font-size="2.6865" letter-spacing="8">s</tspan><tspan x="39.929" y="0" font-family="'ArialMT'" font-size="2.6865">05-600</tspan></text>
<text transform="matrix(1 0 0 1 118.6044 50.6979)" font-family="'ArialMT'" font-size="2.6865">.</text>
<text transform="matrix(1 0 0 1 146.9451 50.6979)" font-family="'ArialMT'" font-size="2.6865">.</text>
<text transform="matrix(1 0 0 1 163.0641 50.6979)"><tspan x="0" y="0" font-family="'ArialMT'" font-size="2.6865">PT-1</tspan><tspan x="5.821" y="0" font-family="'ArialMT'" font-size="2.6865" letter-spacing="6">6</tspan><tspan x="13.483" y="0" font-family="'ArialMT'" font-size="2.6865">Write-on Wall Paint</tspan></text>
<text transform="matrix(1 0 0 1 263.3582 50.6979)"><tspan x="0" y="0" font-family="'ArialMT'" font-size="2.6865">Painting and Wall Finishe</tspan><tspan x="30.313" y="0" font-family="'ArialMT'" font-size="2.6865" letter-spacing="8">s</tspan><tspan x="39.929" y="0" font-family="'ArialMT'" font-size="2.6865">05-600</tspan></text>
<g>
	<text transform="matrix(1 0 0 1 146.9451 54.7006)" font-family="'ArialMT'" font-size="2.6865">.</text>
	<text transform="matrix(1 0 0 1 118.6044 54.7006)" font-family="'ArialMT'" font-size="2.6865">.</text>
</g>
<g>
	<text transform="matrix(1 0 0 1 307.0857 54.7043)" font-family="'ArialMT'" font-size="2.6865">.</text>
	<text transform="matrix(1 0 0 1 278.7449 54.7043)" font-family="'ArialMT'" font-size="2.6865">.</text>
</g>
<rect x="0.071" y="0.001" fill="none" width="319.394" height="65.019"/>
<text transform="matrix(1 0 0 1 16.4155 58.7602)" font-family="'Arial-BoldMT'" font-size="2.6865">Panelling / Cubicles</text>
<text transform="matrix(1 0 0 1 118.6102 58.7602)" font-family="'Arial-BoldMT'" font-size="2.6865">.</text>
<text transform="matrix(1 0 0 1 147.0546 58.7602)" font-family="'Arial-BoldMT'" font-size="2.6865">.</text>
<text transform="matrix(1 0 0 1 176.5546 58.7602)" font-family="'Arial-BoldMT'" font-size="2.6865">Panelling / Cubicles</text>
<text transform="matrix(1 0 0 1 278.7498 58.7602)" font-family="'Arial-BoldMT'" font-size="2.6865">.</text>
<text transform="matrix(1 0 0 1 307.1942 58.7602)" font-family="'Arial-BoldMT'" font-size="2.6865">.</text>
<g>
	<text transform="matrix(1 0 0 1 146.944 62.7119)" font-family="'ArialMT'" font-size="2.6865">.</text>
	<text transform="matrix(1 0 0 1 118.6044 62.7119)" font-family="'ArialMT'" font-size="2.6865">.</text>
</g>
<g>
	<text transform="matrix(1 0 0 1 296.0205 63.2378)" font-family="'Calibri'" font-size="2.9499">.</text>
	<text transform="matrix(1 0 0 1 263.1532 63.2378)" font-family="'Calibri'" font-size="2.9499">.</text>
</g>
<rect x="0.071" y="0.001" fill="none" width="319.394" height="65.019"/>
<rect x="2.561" y="0.001" width="156.766" height="0.077"/>
<rect x="2.561" y="3.818" width="156.766" height="0.264"/>
<rect x="2.561" y="7.822" width="156.766" height="0.264"/>
<rect x="2.561" y="11.825" width="156.766" height="0.264"/>
<rect x="2.561" y="15.829" width="156.766" height="0.263"/>
<rect x="2.561" y="19.832" width="156.766" height="0.264"/>
<rect x="2.561" y="23.835" width="156.766" height="0.264"/>
<rect x="2.561" y="27.839" width="156.766" height="0.264"/>
<rect x="2.561" y="31.843" width="156.766" height="0.263"/>
<rect x="2.561" y="35.846" width="156.766" height="0.264"/>
<rect x="2.561" y="39.849" width="156.766" height="0.264"/>
<rect x="2.561" y="43.852" width="156.766" height="0.264"/>
<rect x="2.561" y="47.856" width="156.766" height="0.263"/>
<rect x="2.561" y="51.86" width="156.766" height="0.264"/>
<rect x="2.561" y="55.863" width="156.766" height="0.264"/>
<rect x="2.561" y="59.866" width="156.766" height="0.264"/>
<rect x="2.561" y="64.081" width="156.766" height="0.263"/>
<rect x="2.299" y="0.001" width="0.263" height="65.019"/>
<rect x="15.783" y="0.001" width="0.264" height="65.019"/>
<rect x="102.384" y="0.001" width="0.264" height="65.019"/>
<rect x="135.254" y="0.001" width="0.264" height="65.019"/>
<rect x="159.064" y="0.001" width="0.263" height="65.019"/>
<rect x="162.436" y="0.001" width="0.263" height="65.019"/>
<rect x="175.92" y="0.001" width="0.264" height="65.019"/>
<rect x="262.521" y="0.001" width="0.264" height="65.019"/>
<rect x="295.392" y="0.001" width="0.263" height="65.019"/>
<rect x="319.201" y="0.001" width="0.264" height="65.019"/>
<rect x="162.698" y="0.001" width="156.767" height="0.077"/>
<rect x="162.698" y="3.818" width="156.767" height="0.264"/>
<rect x="162.698" y="7.822" width="156.767" height="0.264"/>
<rect x="162.698" y="11.825" width="156.767" height="0.264"/>
<rect x="162.698" y="15.829" width="156.767" height="0.263"/>
<rect x="162.698" y="19.832" width="156.767" height="0.264"/>
<rect x="162.698" y="23.835" width="156.767" height="0.264"/>
<rect x="162.698" y="27.839" width="156.767" height="0.264"/>
<rect x="162.698" y="31.843" width="156.767" height="0.263"/>
<rect x="162.698" y="35.846" width="156.767" height="0.264"/>
<rect x="162.698" y="39.849" width="156.767" height="0.264"/>
<rect x="162.698" y="43.852" width="156.767" height="0.264"/>
<rect x="162.698" y="47.856" width="156.767" height="0.263"/>
<rect x="162.698" y="51.86" width="156.767" height="0.264"/>
<rect x="162.698" y="55.863" width="156.767" height="0.264"/>
<rect x="162.698" y="59.866" width="156.767" height="0.264"/>
<rect x="162.698" y="64.081" width="156.767" height="0.263"/>
</svg>
