<svg xmlns="http://www.w3.org/2000/svg" xmlns:xlink="http://www.w3.org/1999/xlink" viewBox="0 0 235.276 167.953">
  <path fill="#FFF" d="M2.835 2.835h229.606v162.283H2.835z"/>
  <path fill="none" stroke="#010202" stroke-width=".25" d="M2.835 2.835h229.606v162.283H2.835z"/>
  <defs>
    <path id="a" d="M0 0h235.276v167.953H0z"/>
  </defs>
  <clipPath id="b">
    <use xlink:href="#a" overflow="visible"/>
  </clipPath>
  <path clip-path="url(#b)" fill="#010202" d="M19.441 13.96v4.336h-1.114l1.114-4.336zm-4.285 4.336c.138-.272.216-.58.216-.905 0-.574-.243-1.092-.63-1.46.387-.368.63-.887.63-1.462 0-.002-.001-.003-.001-.005l.99 3.832h-1.205zm-2.705 0v-1.81h.904c.499.002.904.408.904.905 0 .498-.405.904-.902.905h-.906zm.904-4.732c.499.002.904.408.904.905 0 .498-.405.904-.902.905h-.906v-1.81h.904zm5.04 0l-1.052 4.09-1.056-4.09h2.108zm4.157 4.732h-1.999v-3.298l1.999 3.298zm.431-1.434l-1.999-3.298h1.999v3.298zm-11.644 2.546h12.756v-6.956H11.339v6.956zM57.642 9.848v-.945h-.116v.941c0 .01-.004.018-.008.026-.026.046-.09.11-.122.126-.006.004-.016.006-.026.006h-.248c-.01 0-.02-.002-.026-.006-.032-.016-.1-.08-.126-.126-.004-.008-.008-.016-.008-.026v-.941h-.116v.945c0 .034.008.068.026.096.022.034.1.116.136.138.028.018.072.032.104.032h.268c.032 0 .074-.014.102-.032.036-.022.114-.104.136-.138.018-.028.024-.062.024-.096m-1.724-.134l.228-.697h.026l.23.697h-.484zm.61.39h.124l-.402-1.2h-.18l-.402 1.2h.122l.092-.279h.556l.09.279zm-1.1-.156h-.156v.156h.156v-.156zm-.452.156V8.903h-.164l-.328.703-.326-.703h-.166v1.201h.112V9.027l.34.755h.078l.342-.755v1.077h.112zm-1.4-.26c0 .01-.002.018-.006.026-.026.046-.094.11-.126.126-.006.004-.016.006-.026.006h-.298c-.01 0-.02-.002-.026-.006-.032-.016-.098-.08-.124-.126-.004-.008-.008-.016-.008-.026v-.675c0-.01.004-.022.008-.03.026-.046.092-.11.124-.126.006-.004.016-.006.026-.006h.298c.01 0 .02.002.026.006.032.016.1.08.126.126.004.008.006.02.006.03v.675zm.116.002v-.681c0-.034-.008-.07-.026-.098-.022-.034-.1-.118-.136-.139-.028-.018-.072-.032-.104-.032h-.316c-.032 0-.074.014-.102.032-.036.021-.116.105-.138.139-.018.028-.024.064-.024.098v.681c0 .034.006.07.024.098.022.034.102.116.138.138.028.018.07.032.102.032h.316c.032 0 .076-.014.104-.032.036-.022.114-.104.136-.138.018-.028.026-.064.026-.098m-1.088.032l-.116-.033c-.028.055-.092.129-.134.151-.006.004-.018.006-.028.006h-.25c-.01 0-.02-.002-.026-.006-.032-.016-.1-.08-.126-.127-.004-.008-.006-.016-.006-.026v-.677c0-.01.002-.02.006-.028.026-.046.094-.111.126-.127.006-.004.016-.006.026-.006h.25c.01 0 .022.002.028.006.042.022.11.097.134.153l.116-.034c-.012-.028-.032-.059-.046-.079-.028-.038-.082-.1-.124-.125-.028-.018-.07-.032-.102-.032h-.266c-.032 0-.074.014-.102.032-.036.021-.114.105-.136.139-.018.029-.026.063-.026.097v.685c0 .034.008.069.026.097.022.034.1.116.136.138.028.018.072.032.104.032h.264c.032 0 .074-.014.102-.032.042-.026.096-.088.124-.126.014-.02.034-.05.046-.078m-1.096.07h-.156v.156h.156v-.156zm-.452.156V8.903h-.112v1.035l-.518-1.035h-.154v1.201h.112V9.079l.522 1.025h.15zm-.994-1.201h-.122l-.334 1.077h-.028l-.336-1.077h-.122l.382 1.201h.18l.38-1.201zm-1.244.951c0 .012-.002.024-.006.032-.018.034-.062.08-.094.098-.01.006-.022.008-.034.008h-.422v-.439h.424c.012 0 .024.002.032.006.032.018.076.064.094.098.004.008.006.02.006.032v.165zm0-.551c0 .012-.002.026-.006.034-.018.034-.062.08-.094.099-.008.004-.02.007-.032.007h-.424v-.428h.422c.012 0 .024.002.034.008.032.018.076.066.094.1.004.008.006.02.006.032v.148zm.116.555v-.171c0-.038-.008-.076-.028-.106-.012-.018-.05-.058-.078-.084.028-.026.066-.065.078-.083.02-.03.028-.069.028-.107v-.154c0-.038-.008-.076-.028-.106-.014-.022-.074-.084-.1-.104-.032-.023-.078-.039-.12-.039h-.54v1.2h.54c.042 0 .088-.014.12-.038.026-.02.086-.084.1-.106.02-.03.028-.064.028-.102m-1.426-.955h-.126l-.634 1.201h.128l.632-1.201zm-2.046.811l.228-.697h.026l.23.697h-.484zm.61.39h.124l-.402-1.2h-.18l-.402 1.2h.122l.092-.279h.556l.09.279zM45 8.903h-.116v1.2H45v-1.2zm-.35 1.201v-.112h-.56V8.903h-.116v1.201h.676zm-1.604-.39l.228-.697h.026l.23.697h-.484zm.61.39h.124l-.402-1.2h-.18l-.402 1.2h.122l.092-.279h.556l.09.279zm-1.184-.78c0 .012 0 .026-.004.034-.018.034-.066.078-.098.096-.01.006-.022.008-.034.008h-.422v-.447h.422c.012 0 .024 0 .034.006.032.018.08.066.098.1.004.008.004.022.004.034v.169zm.116.004v-.177c0-.038-.01-.074-.03-.104-.014-.022-.076-.086-.102-.106-.032-.023-.076-.037-.118-.037h-.54v1.2h.116v-.531h.3l.296.531h.132l-.298-.531c.04 0 .08-.014.112-.038.026-.02.088-.081.102-.103.02-.03.03-.066.03-.104m-1.012-.313v-.111h-.8v.111h.342v1.089h.116V9.015h.342zm-.985.831V9.71c0-.084-.05-.164-.128-.186l-.547-.153c-.036-.01-.062-.05-.062-.09v-.126c0-.01.004-.018.008-.026.026-.046.092-.1.124-.116.006-.004.016-.006.026-.006h.283c.009 0 .02.002.026.006.034.018.096.078.122.126 0 0 .006.008.014.026l.116-.034c-.012-.028-.032-.058-.046-.078-.028-.038-.082-.1-.124-.125-.028-.018-.07-.032-.103-.032h-.298c-.032 0-.074.014-.102.032-.036.021-.116.105-.138.139-.018.028-.024.064-.024.098v.124c0 .084.046.167.124.189l.549.15c.038.01.064.054.064.094v.128c0 .01-.002.018-.006.026-.026.046-.094.104-.126.12-.006.004-.014.006-.024.006H40c-.01 0-.022-.002-.028-.006-.034-.018-.094-.078-.122-.126 0 0-.006-.006-.014-.024l-.114.032c.012.028.03.058.044.078.028.038.082.1.124.126.028.018.072.032.104.032h.333c.032 0 .074-.014.102-.032.036-.022.116-.104.138-.138.018-.028.024-.064.024-.098m-1.127.002v-.945h-.116v.941c0 .01-.004.018-.008.026-.026.046-.09.11-.122.126-.006.004-.016.006-.026.006h-.248c-.01 0-.02-.002-.026-.006-.032-.016-.1-.08-.126-.126-.004-.008-.008-.016-.008-.026v-.941h-.116v.945c0 .034.008.068.026.096.022.034.1.116.136.138.028.018.072.032.104.032h.268c.032 0 .074-.014.102-.032.036-.022.114-.104.136-.138.018-.028.024-.062.024-.096m-1.724-.134l.228-.697h.026l.23.697h-.484zm.61.39h.124l-.402-1.2h-.18l-.402 1.2h.122l.092-.279h.556l.09.279zm-1.606-.243c0 .012-.002.025-.006.033-.018.034-.063.08-.095.098-.01.006-.022.008-.034.008h-.246c-.012 0-.024-.002-.034-.008-.032-.018-.078-.064-.096-.098-.004-.008-.004-.021-.004-.033v-.715c0-.012 0-.026.004-.034.018-.035.064-.081.096-.099.01-.006.022-.008.034-.008h.246c.012 0 .024.002.034.008.032.018.077.064.095.099.004.008.006.022.006.034v.715zm.117.004v-.723c0-.038-.01-.075-.03-.105-.014-.022-.075-.086-.101-.105-.032-.024-.077-.038-.119-.038h-.25c-.042 0-.086.014-.118.038-.026.019-.086.083-.1.105-.02.03-.03.067-.03.105v.723c0 .039.01.073.03.103.014.022.074.086.1.106.032.024.076.038.118.038h.25c.042 0 .087-.014.119-.038.026-.02.087-.084.101-.106.02-.03.03-.064.03-.103m-1.125-.004c0 .012-.002.025-.006.033-.018.034-.063.08-.095.098-.01.006-.022.008-.034.008h-.246c-.012 0-.024-.002-.034-.008-.032-.018-.078-.064-.096-.098-.004-.008-.004-.021-.004-.033v-.715c0-.012 0-.026.004-.034.018-.035.064-.081.096-.099.01-.006.022-.008.034-.008h.246c.012 0 .024.002.034.008.032.018.077.064.095.099.004.008.006.022.006.034v.715zm.117.004v-.723c0-.038-.01-.075-.03-.105-.014-.022-.075-.086-.101-.105-.032-.024-.077-.038-.119-.038h-.25c-.042 0-.086.014-.118.038-.026.019-.086.083-.1.105-.02.03-.03.067-.03.105v.723c0 .039.01.073.03.103.014.022.074.086.1.106.032.024.076.038.118.038h.25c.042 0 .087-.014.119-.038.026-.02.087-.084.101-.106.02-.03.03-.064.03-.103m-1.125-.004c0 .012-.002.025-.006.033-.018.034-.063.08-.095.098-.01.006-.022.008-.034.008h-.246c-.012 0-.024-.002-.034-.008-.032-.018-.078-.064-.096-.098-.004-.008-.004-.021-.004-.033v-.715c0-.012 0-.026.004-.034.018-.035.064-.081.096-.099.01-.006.022-.008.034-.008h.246c.012 0 .024.002.034.008.032.018.077.064.095.099.004.008.006.022.006.034v.715zm.117.004v-.723c0-.038-.01-.075-.03-.105-.014-.022-.075-.086-.101-.105-.031-.024-.077-.038-.119-.038h-.25c-.042 0-.086.014-.118.038-.026.019-.086.083-.1.105-.02.03-.03.067-.03.105v.723c0 .039.01.073.03.103.014.022.074.086.1.106.032.024.076.038.118.038h.25c.042 0 .088-.014.119-.038.026-.02.087-.084.101-.106.02-.03.03-.064.03-.103m-1.01-.583v-.14c0-.038-.01-.075-.03-.105-.014-.022-.074-.086-.1-.105-.032-.024-.078-.038-.12-.038h-.226c-.032 0-.076.014-.104.032-.042.025-.096.087-.124.125-.014.02-.032.051-.044.079l.114.034c.024-.056.092-.131.134-.153.006-.004.02-.006.03-.006h.218c.012 0 .024.002.034.008.032.018.078.064.096.099.004.008.006.022.006.034v.13c0 .04-.026.074-.06.092l-.42.225c-.078.042-.128.102-.128.186v.325h.708v-.112h-.592v-.203c0-.04.028-.074.064-.094l.418-.225c.07-.038.126-.104.126-.188m-1.348-.379h-.126l-.306.571-.302-.571h-.128l.372.689v.512h.116v-.512l.374-.689zm-1.053 1.201v-.112h-.572V9.56h.542v-.112h-.542v-.432h.572v-.112h-.688v1.2h.688zm-1.002 0V8.903h-.111v1.035l-.519-1.035h-.153v1.201h.111V9.079l.523 1.025h.149zm-1.199-.929v.659c0 .01-.002.018-.006.026-.026.046-.092.11-.124.126-.006.004-.016.006-.026.006h-.403v-.977h.403c.01 0 .02.002.026.006.032.016.098.078.124.124.004.008.006.02.006.03m.116.663v-.667c0-.034-.006-.068-.024-.096-.022-.034-.1-.12-.136-.142-.028-.017-.07-.029-.102-.029h-.529v1.2h.529c.032 0 .074-.014.102-.032.036-.022.114-.104.136-.138.018-.028.024-.062.024-.096m-.954-.935h-.126l-.306.571-.302-.571h-.128l.372.689v.512h.116v-.512l.374-.689zm-1.012.943V9.71c0-.084-.05-.164-.128-.186l-.546-.153c-.037-.01-.063-.05-.063-.09v-.126c0-.01.004-.018.008-.026.026-.046.093-.1.125-.116.006-.004.016-.006.026-.006h.282c.01 0 .02.002.026.006.034.018.096.078.122.126 0 0 .006.008.014.026l.116-.034c-.012-.028-.032-.058-.046-.078-.028-.038-.082-.1-.124-.125-.028-.018-.07-.032-.102-.032h-.298c-.032 0-.074.014-.103.032-.036.021-.116.105-.138.139-.018.028-.024.064-.024.098v.124c0 .084.046.167.124.189l.549.15c.038.01.064.054.064.094v.128c0 .01-.002.018-.006.026-.026.046-.094.104-.126.12-.006.004-.014.006-.024.006h-.318c-.01 0-.022-.002-.028-.006-.034-.018-.095-.078-.123-.126 0 0-.006-.006-.014-.024l-.114.032c.012.028.03.058.044.078.028.038.082.1.124.126.029.018.073.032.105.032h.332c.032 0 .074-.014.102-.032.036-.022.116-.104.138-.138.018-.028.024-.064.024-.098m-1.466-.943h-.126l-.634 1.201h.128l.632-1.201zm-1.34.112v-.111h-.8v.111h.342v1.089h.116V9.015h.342zm-1.027 1.089v-.112h-.572V9.56h.542v-.112h-.542v-.432h.572v-.112h-.688v1.2h.688zm-.995 0v-.112h-.572V9.56h.542v-.112h-.542v-.432h.572v-.112h-.689v1.2h.689zm-1.116-.78c0 .012 0 .026-.004.034-.018.034-.066.078-.098.096-.01.006-.022.008-.034.008h-.422v-.447h.422c.012 0 .024 0 .034.006.032.018.08.066.098.1.004.008.004.022.004.034v.169zm.116.004v-.177c0-.038-.01-.074-.03-.104-.014-.022-.076-.086-.102-.106-.032-.023-.076-.037-.118-.037h-.541v1.2h.117v-.531h.3l.296.531h.132l-.298-.531c.04 0 .08-.014.112-.038.026-.02.088-.081.102-.103.02-.03.03-.066.03-.104m-1.012-.313v-.111h-.8v.111h.342v1.089h.116V9.015h.342zm-.986.831V9.71c0-.084-.05-.164-.128-.186l-.546-.153c-.036-.01-.062-.05-.062-.09v-.126c0-.01.004-.018.008-.026.026-.046.092-.1.124-.116.006-.004.016-.006.026-.006h.282c.01 0 .02.002.026.006.034.018.096.078.122.126 0 0 .006.008.014.026l.116-.034c-.012-.028-.032-.058-.046-.078-.028-.038-.082-.1-.124-.125-.028-.018-.07-.032-.102-.032h-.298c-.032 0-.074.014-.102.032-.036.021-.116.105-.138.139-.018.028-.024.064-.024.098v.124c0 .084.046.167.124.189l.548.15c.038.01.064.054.064.094v.128c0 .01-.002.018-.006.026-.026.046-.094.104-.126.12-.006.004-.014.006-.024.006h-.318c-.01 0-.022-.002-.028-.006-.034-.018-.094-.078-.122-.126 0 0-.006-.006-.014-.024l-.114.032c.012.028.03.058.044.078.028.038.082.1.124.126.028.018.072.032.104.032h.332c.032 0 .074-.014.102-.032.036-.022.116-.104.138-.138.018-.028.024-.064.024-.098m-1.506-.831v-.111h-.8v.111h.342v1.089h.116V9.015h.342zm-.94 0v-.111h-.8v.111h.342v1.089h.116V9.015h.342zm-1.034-.112h-.116v1.2h.116v-1.2zm-.486.421c0 .012 0 .026-.004.034-.018.034-.066.078-.098.096-.01.006-.022.008-.034.008h-.422v-.447h.422c.012 0 .024 0 .034.006.032.018.08.066.098.1.004.008.004.022.004.034v.169zm.116.004v-.177c0-.038-.01-.074-.03-.104-.014-.022-.076-.086-.102-.106-.032-.023-.076-.037-.118-.037h-.54v1.2h.116v-.531h.424c.042 0 .086-.014.118-.038.026-.02.088-.081.102-.103.02-.03.03-.066.03-.104m-1.518.538v-.234c0-.038-.01-.074-.03-.104-.014-.022-.074-.082-.1-.102-.032-.024-.078-.04-.12-.04h-.33v-.371h.518v-.111h-.634v.594h.444c.012 0 .026.002.036.008.032.018.076.062.094.096.004.008.006.022.006.034v.228c0 .012-.002.024-.006.032-.018.034-.062.08-.094.098-.01.006-.024.008-.036.008h-.224c-.01 0-.024-.002-.03-.006-.042-.022-.106-.096-.134-.15l-.116.032c.012.028.032.06.046.08.028.038.082.098.124.124.028.018.072.032.104.032h.232c.042 0 .088-.014.12-.038.026-.02.086-.084.1-.106.02-.03.03-.066.03-.104m-1.008 0v-.234c0-.038-.01-.074-.03-.104-.014-.022-.074-.082-.1-.102-.032-.024-.078-.04-.12-.04h-.33v-.371h.518v-.111h-.634v.594h.444c.012 0 .026.002.036.008.032.018.076.062.094.096.004.008.006.022.006.034v.228c0 .012-.002.024-.006.032-.018.034-.062.08-.094.098-.01.006-.024.008-.036.008h-.224c-.01 0-.024-.002-.03-.006-.042-.022-.106-.096-.134-.15l-.116.032c.012.028.032.06.046.08.028.038.082.098.124.124.028.018.072.032.104.032h.232c.042 0 .088-.014.12-.038.026-.02.086-.084.1-.106.02-.03.03-.066.03-.104m-1.016-.584v-.14c0-.038-.01-.075-.03-.105-.014-.022-.074-.086-.1-.105-.032-.024-.078-.038-.12-.038h-.226c-.032 0-.076.014-.104.032-.042.025-.096.087-.124.125-.014.02-.032.051-.044.079l.114.034c.024-.056.092-.131.134-.153.006-.004.02-.006.03-.006h.218c.012 0 .024.002.034.008.032.018.078.064.096.099.004.008.006.022.006.034v.13c0 .04-.026.074-.06.092l-.42.225c-.078.042-.128.102-.128.186v.325h.708v-.112h-.592v-.203c0-.04.028-.074.064-.094l.418-.225c.07-.038.126-.104.126-.188"/>
  <path clip-path="url(#b)" fill="#FFF" d="M2.835 50.315h162.283v114.803H2.835z"/>
  <path clip-path="url(#b)" fill="none" stroke="#010202" stroke-width=".25" d="M2.835 50.315h162.283v114.803H2.835z"/>
  <path clip-path="url(#b)" fill="#010202" d="M19.441 61.44v4.336h-1.114l1.114-4.336zm-4.285 4.336c.138-.272.216-.58.216-.905 0-.574-.243-1.092-.63-1.46.387-.368.63-.887.63-1.462 0-.002-.001-.003-.001-.005l.99 3.832h-1.205zm-2.705 0v-1.81h.904c.499.002.904.408.904.905 0 .498-.405.904-.902.905h-.906zm.904-4.732c.499.002.904.408.904.905 0 .498-.405.904-.902.905h-.906v-1.81h.904zm5.04 0l-1.052 4.09-1.056-4.09h2.108zm4.157 4.732h-1.999v-3.298l1.999 3.298zm.431-1.434l-1.999-3.298h1.999v3.298zm-11.644 2.546h12.756v-6.956H11.339v6.956zM57.642 57.328v-.945h-.116v.941c0 .01-.004.018-.008.026-.026.046-.09.11-.122.126-.006.004-.016.006-.026.006h-.248c-.01 0-.02-.002-.026-.006-.032-.016-.1-.08-.126-.126-.004-.008-.008-.016-.008-.026v-.941h-.116v.945c0 .034.008.068.026.096.022.034.1.116.136.138.028.018.072.032.104.032h.268c.032 0 .074-.014.102-.032.036-.022.114-.104.136-.138.018-.028.024-.062.024-.096m-1.724-.134l.228-.697h.026l.23.697h-.484zm.61.39h.124l-.402-1.2h-.18l-.402 1.2h.122l.092-.279h.556l.09.279zm-1.1-.156h-.156v.156h.156v-.156zm-.452.156v-1.201h-.164l-.328.703-.326-.703h-.166v1.201h.112v-1.077l.34.755h.078l.342-.755v1.077h.112zm-1.4-.26c0 .01-.002.018-.006.026-.026.046-.094.11-.126.126-.006.004-.016.006-.026.006h-.298c-.01 0-.02-.002-.026-.006-.032-.016-.098-.08-.124-.126-.004-.008-.008-.016-.008-.026v-.675c0-.01.004-.022.008-.03.026-.046.092-.11.124-.126.006-.004.016-.006.026-.006h.298c.01 0 .02.002.026.006.032.016.1.08.126.126.004.008.006.02.006.03v.675zm.116.002v-.681c0-.034-.008-.07-.026-.098-.022-.034-.1-.118-.136-.139-.028-.018-.072-.032-.104-.032h-.316c-.032 0-.074.014-.102.032-.036.021-.116.105-.138.139-.018.028-.024.064-.024.098v.681c0 .034.006.07.024.098.022.034.102.116.138.138.028.018.07.032.102.032h.316c.032 0 .076-.014.104-.032.036-.022.114-.104.136-.138.018-.028.026-.064.026-.098m-1.088.032l-.116-.033c-.028.055-.092.129-.134.151-.006.004-.018.006-.028.006h-.25c-.01 0-.02-.002-.026-.006-.032-.016-.1-.08-.126-.127-.004-.008-.006-.016-.006-.026v-.677c0-.01.002-.02.006-.028.026-.046.094-.111.126-.127.006-.004.016-.006.026-.006h.25c.01 0 .022.002.028.006.042.022.11.097.134.153l.116-.034c-.012-.028-.032-.059-.046-.079-.028-.038-.082-.1-.124-.125-.028-.018-.07-.032-.102-.032h-.266c-.032 0-.074.014-.102.032-.036.021-.114.105-.136.139-.018.029-.026.063-.026.097v.685c0 .034.008.069.026.097.022.034.1.116.136.138.028.018.072.032.104.032h.264c.032 0 .074-.014.102-.032.042-.026.096-.088.124-.126.014-.02.034-.05.046-.078m-1.096.07h-.156v.156h.156v-.156zm-.452.156v-1.201h-.112v1.035l-.518-1.035h-.154v1.201h.112v-1.025l.522 1.025h.15zm-.994-1.201h-.122l-.334 1.077h-.028l-.336-1.077h-.122l.382 1.201h.18l.38-1.201zm-1.244.951c0 .012-.002.024-.006.032-.018.034-.062.08-.094.098-.01.006-.022.008-.034.008h-.422v-.439h.424c.012 0 .024.002.032.006.032.018.076.064.094.098.004.008.006.02.006.032v.165zm0-.551c0 .012-.002.026-.006.034-.018.034-.062.08-.094.099-.008.004-.02.007-.032.007h-.424v-.428h.422c.012 0 .024.002.034.008.032.018.076.066.094.1.004.008.006.02.006.032v.148zm.116.555v-.171c0-.038-.008-.076-.028-.106-.012-.018-.05-.058-.078-.084.028-.026.066-.065.078-.083.02-.03.028-.069.028-.107v-.154c0-.038-.008-.076-.028-.106-.014-.022-.074-.084-.1-.104-.032-.023-.078-.039-.12-.039h-.54v1.2h.54c.042 0 .088-.014.12-.038.026-.02.086-.084.1-.106.02-.03.028-.064.028-.102m-1.426-.955h-.126l-.634 1.201h.128l.632-1.201zm-2.046.811l.228-.697h.026l.23.697h-.484zm.61.39h.124l-.402-1.2h-.18l-.402 1.2h.122l.092-.279h.556l.09.279zM45 56.383h-.116v1.2H45v-1.2zm-.35 1.201v-.112h-.56v-1.089h-.116v1.201h.676zm-1.604-.39l.228-.697h.026l.23.697h-.484zm.61.39h.124l-.402-1.2h-.18l-.402 1.2h.122l.092-.279h.556l.09.279zm-1.184-.78c0 .012 0 .026-.004.034-.018.034-.066.078-.098.096-.01.006-.022.008-.034.008h-.422v-.447h.422c.012 0 .024 0 .034.006.032.018.08.066.098.1.004.008.004.022.004.034v.169zm.116.004v-.177c0-.038-.01-.074-.03-.104-.014-.022-.076-.086-.102-.106-.032-.023-.076-.037-.118-.037h-.54v1.2h.116v-.531h.3l.296.531h.132l-.298-.531c.04 0 .08-.014.112-.038.026-.02.088-.081.102-.103.02-.03.03-.066.03-.104m-1.012-.313v-.111h-.8v.111h.342v1.089h.116v-1.089h.342zm-.985.831v-.136c0-.084-.05-.164-.128-.186l-.547-.153c-.036-.01-.062-.05-.062-.09v-.126c0-.01.004-.018.008-.026.026-.046.092-.1.124-.116.006-.004.016-.006.026-.006h.283c.009 0 .02.002.026.006.034.018.096.078.122.126 0 0 .006.008.014.026l.116-.034c-.012-.028-.032-.058-.046-.078-.028-.038-.082-.1-.124-.125-.028-.018-.07-.032-.103-.032h-.298c-.032 0-.074.014-.102.032-.036.021-.116.105-.138.139-.018.028-.024.064-.024.098v.124c0 .084.046.167.124.189l.549.15c.038.01.064.054.064.094v.128c0 .01-.002.018-.006.026-.026.046-.094.104-.126.12-.006.004-.014.006-.024.006H40c-.01 0-.022-.002-.028-.006-.034-.018-.094-.078-.122-.126 0 0-.006-.006-.014-.024l-.114.032c.012.028.03.058.044.078.028.038.082.1.124.126.028.018.072.032.104.032h.333c.032 0 .074-.014.102-.032.036-.022.116-.104.138-.138.018-.028.024-.064.024-.098m-1.127.002v-.945h-.116v.941c0 .01-.004.018-.008.026-.026.046-.09.11-.122.126-.006.004-.016.006-.026.006h-.248c-.01 0-.02-.002-.026-.006-.032-.016-.1-.08-.126-.126-.004-.008-.008-.016-.008-.026v-.941h-.116v.945c0 .034.008.068.026.096.022.034.1.116.136.138.028.018.072.032.104.032h.268c.032 0 .074-.014.102-.032.036-.022.114-.104.136-.138.018-.028.024-.062.024-.096m-1.724-.134l.228-.697h.026l.23.697h-.484zm.61.39h.124l-.402-1.2h-.18l-.402 1.2h.122l.092-.279h.556l.09.279zm-1.606-.243c0 .012-.002.025-.006.033-.018.034-.063.08-.095.098-.01.006-.022.008-.034.008h-.246c-.012 0-.024-.002-.034-.008-.032-.018-.078-.064-.096-.098-.004-.008-.004-.021-.004-.033v-.715c0-.012 0-.026.004-.034.018-.035.064-.081.096-.099.01-.006.022-.008.034-.008h.246c.012 0 .024.002.034.008.032.018.077.064.095.099.004.008.006.022.006.034v.715zm.117.004v-.723c0-.038-.01-.075-.03-.105-.014-.022-.075-.086-.101-.105-.032-.024-.077-.038-.119-.038h-.25c-.042 0-.086.014-.118.038-.026.019-.086.083-.1.105-.02.03-.03.067-.03.105v.723c0 .039.01.073.03.103.014.022.074.086.1.106.032.024.076.038.118.038h.25c.042 0 .087-.014.119-.038.026-.02.087-.084.101-.106.02-.03.03-.064.03-.103m-1.125-.004c0 .012-.002.025-.006.033-.018.034-.063.08-.095.098-.01.006-.022.008-.034.008h-.246c-.012 0-.024-.002-.034-.008-.032-.018-.078-.064-.096-.098-.004-.008-.004-.021-.004-.033v-.715c0-.012 0-.026.004-.034.018-.035.064-.081.096-.099.01-.006.022-.008.034-.008h.246c.012 0 .024.002.034.008.032.018.077.064.095.099.004.008.006.022.006.034v.715zm.117.004v-.723c0-.038-.01-.075-.03-.105-.014-.022-.075-.086-.101-.105-.032-.024-.077-.038-.119-.038h-.25c-.042 0-.086.014-.118.038-.026.019-.086.083-.1.105-.02.03-.03.067-.03.105v.723c0 .039.01.073.03.103.014.022.074.086.1.106.032.024.076.038.118.038h.25c.042 0 .087-.014.119-.038.026-.02.087-.084.101-.106.02-.03.03-.064.03-.103m-1.125-.004c0 .012-.002.025-.006.033-.018.034-.063.08-.095.098-.01.006-.022.008-.034.008h-.246c-.012 0-.024-.002-.034-.008-.032-.018-.078-.064-.096-.098-.004-.008-.004-.021-.004-.033v-.715c0-.012 0-.026.004-.034.018-.035.064-.081.096-.099.01-.006.022-.008.034-.008h.246c.012 0 .024.002.034.008.032.018.077.064.095.099.004.008.006.022.006.034v.715zm.117.004v-.723c0-.038-.01-.075-.03-.105-.014-.022-.075-.086-.101-.105-.031-.024-.077-.038-.119-.038h-.25c-.042 0-.086.014-.118.038-.026.019-.086.083-.1.105-.02.03-.03.067-.03.105v.723c0 .039.01.073.03.103.014.022.074.086.1.106.032.024.076.038.118.038h.25c.042 0 .088-.014.119-.038.026-.02.087-.084.101-.106.02-.03.03-.064.03-.103m-1.01-.583v-.14c0-.038-.01-.075-.03-.105-.014-.022-.074-.086-.1-.105-.032-.024-.078-.038-.12-.038h-.226c-.032 0-.076.014-.104.032-.042.025-.096.087-.124.125-.014.02-.032.051-.044.079l.114.034c.024-.056.092-.131.134-.153.006-.004.02-.006.03-.006h.218c.012 0 .024.002.034.008.032.018.078.064.096.099.004.008.006.022.006.034v.13c0 .04-.026.074-.06.092l-.42.225c-.078.042-.128.102-.128.186v.325h.708v-.112h-.592v-.203c0-.04.028-.074.064-.094l.418-.225c.07-.038.126-.104.126-.188m-1.348-.379h-.126l-.306.571-.302-.571h-.128l.372.689v.512h.116v-.512l.374-.689zm-1.053 1.201v-.112h-.572v-.432h.542v-.112h-.542v-.432h.572v-.112h-.688v1.2h.688zm-1.002 0v-1.201h-.111v1.035l-.519-1.035h-.153v1.201h.111v-1.025l.523 1.025h.149zm-1.199-.929v.659c0 .01-.002.018-.006.026-.026.046-.092.11-.124.126-.006.004-.016.006-.026.006h-.403v-.977h.403c.01 0 .02.002.026.006.032.016.098.078.124.124.004.008.006.02.006.03m.116.663v-.667c0-.034-.006-.068-.024-.096-.022-.034-.1-.12-.136-.142-.028-.017-.07-.029-.102-.029h-.529v1.2h.529c.032 0 .074-.014.102-.032.036-.022.114-.104.136-.138.018-.028.024-.062.024-.096m-.954-.935h-.126l-.306.571-.302-.571h-.128l.372.689v.512h.116v-.512l.374-.689zm-1.012.943v-.136c0-.084-.05-.164-.128-.186l-.546-.153c-.037-.01-.063-.05-.063-.09v-.126c0-.01.004-.018.008-.026.026-.046.093-.1.125-.116.006-.004.016-.006.026-.006h.282c.01 0 .02.002.026.006.034.018.096.078.122.126 0 0 .006.008.014.026l.116-.034c-.012-.028-.032-.058-.046-.078-.028-.038-.082-.1-.124-.125-.028-.018-.07-.032-.102-.032h-.298c-.032 0-.074.014-.103.032-.036.021-.116.105-.138.139-.018.028-.024.064-.024.098v.124c0 .084.046.167.124.189l.549.15c.038.01.064.054.064.094v.128c0 .01-.002.018-.006.026-.026.046-.094.104-.126.12-.006.004-.014.006-.024.006h-.318c-.01 0-.022-.002-.028-.006-.034-.018-.095-.078-.123-.126 0 0-.006-.006-.014-.024l-.114.032c.012.028.03.058.044.078.028.038.082.1.124.126.029.018.073.032.105.032h.332c.032 0 .074-.014.102-.032.036-.022.116-.104.138-.138.018-.028.024-.064.024-.098m-1.466-.943h-.126l-.634 1.201h.128l.632-1.201zm-1.34.112v-.111h-.8v.111h.342v1.089h.116v-1.089h.342zm-1.027 1.089v-.112h-.572v-.432h.542v-.112h-.542v-.432h.572v-.112h-.688v1.2h.688zm-.995 0v-.112h-.572v-.432h.542v-.112h-.542v-.432h.572v-.112h-.689v1.2h.689zm-1.116-.78c0 .012 0 .026-.004.034-.018.034-.066.078-.098.096-.01.006-.022.008-.034.008h-.422v-.447h.422c.012 0 .024 0 .034.006.032.018.08.066.098.1.004.008.004.022.004.034v.169zm.116.004v-.177c0-.038-.01-.074-.03-.104-.014-.022-.076-.086-.102-.106-.032-.023-.076-.037-.118-.037h-.541v1.2h.117v-.531h.3l.296.531h.132l-.298-.531c.04 0 .08-.014.112-.038.026-.02.088-.081.102-.103.02-.03.03-.066.03-.104m-1.012-.313v-.111h-.8v.111h.342v1.089h.116v-1.089h.342zm-.986.831v-.136c0-.084-.05-.164-.128-.186l-.546-.153c-.036-.01-.062-.05-.062-.09v-.126c0-.01.004-.018.008-.026.026-.046.092-.1.124-.116.006-.004.016-.006.026-.006h.282c.01 0 .02.002.026.006.034.018.096.078.122.126 0 0 .006.008.014.026l.116-.034c-.012-.028-.032-.058-.046-.078-.028-.038-.082-.1-.124-.125-.028-.018-.07-.032-.102-.032h-.298c-.032 0-.074.014-.102.032-.036.021-.116.105-.138.139-.018.028-.024.064-.024.098v.124c0 .084.046.167.124.189l.548.15c.038.01.064.054.064.094v.128c0 .01-.002.018-.006.026-.026.046-.094.104-.126.12-.006.004-.014.006-.024.006h-.318c-.01 0-.022-.002-.028-.006-.034-.018-.094-.078-.122-.126 0 0-.006-.006-.014-.024l-.114.032c.012.028.03.058.044.078.028.038.082.1.124.126.028.018.072.032.104.032h.332c.032 0 .074-.014.102-.032.036-.022.116-.104.138-.138.018-.028.024-.064.024-.098m-1.506-.831v-.111h-.8v.111h.342v1.089h.116v-1.089h.342zm-.94 0v-.111h-.8v.111h.342v1.089h.116v-1.089h.342zm-1.034-.112h-.116v1.2h.116v-1.2zm-.486.421c0 .012 0 .026-.004.034-.018.034-.066.078-.098.096-.01.006-.022.008-.034.008h-.422v-.447h.422c.012 0 .024 0 .034.006.032.018.08.066.098.1.004.008.004.022.004.034v.169zm.116.004v-.177c0-.038-.01-.074-.03-.104-.014-.022-.076-.086-.102-.106-.032-.023-.076-.037-.118-.037h-.54v1.2h.116v-.531h.424c.042 0 .086-.014.118-.038.026-.02.088-.081.102-.103.02-.03.03-.066.03-.104m-1.518.538v-.234c0-.038-.01-.074-.03-.104-.014-.022-.074-.082-.1-.102-.032-.024-.078-.04-.12-.04h-.33v-.371h.518v-.111h-.634v.594h.444c.012 0 .026.002.036.008.032.018.076.062.094.096.004.008.006.022.006.034v.228c0 .012-.002.024-.006.032-.018.034-.062.08-.094.098-.01.006-.024.008-.036.008h-.224c-.01 0-.024-.002-.03-.006-.042-.022-.106-.096-.134-.15l-.116.032c.012.028.032.06.046.08.028.038.082.098.124.124.028.018.072.032.104.032h.232c.042 0 .088-.014.12-.038.026-.02.086-.084.1-.106.02-.03.03-.066.03-.104m-1.008 0v-.234c0-.038-.01-.074-.03-.104-.014-.022-.074-.082-.1-.102-.032-.024-.078-.04-.12-.04h-.33v-.371h.518v-.111h-.634v.594h.444c.012 0 .026.002.036.008.032.018.076.062.094.096.004.008.006.022.006.034v.228c0 .012-.002.024-.006.032-.018.034-.062.08-.094.098-.01.006-.024.008-.036.008h-.224c-.01 0-.024-.002-.03-.006-.042-.022-.106-.096-.134-.15l-.116.032c.012.028.032.06.046.08.028.038.082.098.124.124.028.018.072.032.104.032h.232c.042 0 .088-.014.12-.038.026-.02.086-.084.1-.106.02-.03.03-.066.03-.104m-1.016-.584v-.14c0-.038-.01-.075-.03-.105-.014-.022-.074-.086-.1-.105-.032-.024-.078-.038-.12-.038h-.226c-.032 0-.076.014-.104.032-.042.025-.096.087-.124.125-.014.02-.032.051-.044.079l.114.034c.024-.056.092-.131.134-.153.006-.004.02-.006.03-.006h.218c.012 0 .024.002.034.008.032.018.078.064.096.099.004.008.006.022.006.034v.13c0 .04-.026.074-.06.092l-.42.225c-.078.042-.128.102-.128.186v.325h.708v-.112h-.592v-.203c0-.04.028-.074.064-.094l.418-.225c.07-.038.126-.104.126-.188"/>
  <path clip-path="url(#b)" fill="#FFF" d="M2.835 87.165h155.906v77.953H2.835z"/>
  <path clip-path="url(#b)" fill="none" stroke="#010202" stroke-width=".25" d="M2.835 87.165h155.906v77.953H2.835z"/>
  <path clip-path="url(#b)" fill="#010202" d="M19.441 98.291v4.336h-1.114l1.114-4.336zm-4.285 4.336c.138-.271.216-.58.216-.905 0-.573-.243-1.092-.63-1.46.387-.367.63-.887.63-1.462 0-.002-.001-.003-.001-.005l.99 3.832h-1.205zm-2.705 0v-1.81h.904c.499.002.904.408.904.904 0 .498-.405.904-.902.905h-.906zm.904-4.731c.499.002.904.407.904.904 0 .498-.405.904-.902.905h-.906v-1.81h.904zm5.04 0l-1.052 4.09-1.056-4.09h2.108zm4.157 4.731h-1.999v-3.298l1.999 3.298zm.431-1.434l-1.999-3.298h1.999v3.298zm-11.644 2.546h12.756v-6.956H11.339v6.956zM57.642 94.179v-.945h-.116v.941c0 .01-.004.018-.008.025-.026.046-.09.11-.122.126-.006.004-.016.007-.026.007h-.248c-.01 0-.02-.003-.026-.007-.032-.016-.1-.08-.126-.126-.004-.008-.008-.016-.008-.025v-.941h-.116v.945c0 .034.008.067.026.096.022.034.1.116.136.138.028.019.072.032.104.032h.268c.032 0 .074-.014.102-.032.036-.021.114-.104.136-.138.018-.029.024-.062.024-.096m-1.724-.134l.228-.697h.026l.23.697h-.484zm.61.39h.124l-.402-1.2h-.18l-.402 1.2h.122l.092-.279h.556l.09.279zm-1.1-.157h-.156v.156h.156v-.156zm-.452.157v-1.201h-.164l-.328.703-.326-.703h-.166v1.201h.112v-1.077l.34.755h.078l.342-.755v1.077h.112zm-1.4-.26c0 .01-.002.018-.006.025-.026.046-.094.11-.126.126-.006.004-.016.007-.026.007h-.298c-.01 0-.02-.003-.026-.007-.032-.016-.098-.08-.124-.126-.004-.008-.008-.016-.008-.025V93.5c0-.011.004-.022.008-.03.026-.046.092-.11.124-.126.006-.004.016-.006.026-.006h.298c.01 0 .02.002.026.006.032.016.1.08.126.126.004.008.006.02.006.03v.675zm.116.002v-.682c0-.033-.008-.069-.026-.098-.022-.034-.1-.118-.136-.139-.028-.019-.072-.032-.104-.032h-.316c-.032 0-.074.014-.102.032-.036.021-.116.104-.138.139-.018.028-.024.064-.024.098v.682c0 .034.006.069.024.098.022.034.102.116.138.138.028.019.07.032.102.032h.316c.032 0 .076-.014.104-.032.036-.021.114-.104.136-.138.018-.029.026-.064.026-.098m-1.088.032l-.116-.033c-.028.055-.092.129-.134.15-.006.004-.018.007-.028.007h-.25c-.01 0-.02-.003-.026-.007-.032-.016-.1-.08-.126-.127-.004-.008-.006-.016-.006-.025v-.678c0-.01.002-.02.006-.027.026-.046.094-.111.126-.127.006-.004.016-.006.026-.006h.25c.01 0 .022.002.028.006.042.021.11.097.134.152l.116-.033c-.012-.028-.032-.06-.046-.079-.028-.038-.082-.101-.124-.125-.028-.019-.07-.032-.102-.032h-.266c-.032 0-.074.014-.102.032-.036.021-.114.104-.136.139-.018.029-.026.063-.026.097v.686c0 .034.008.068.026.097.022.034.1.116.136.138.028.019.072.032.104.032h.264c.032 0 .074-.014.102-.032.042-.025.096-.088.124-.126.014-.021.034-.052.046-.079m-1.096.069h-.156v.156h.156v-.156zm-.452.157v-1.201h-.112v1.035l-.518-1.035h-.154v1.201h.112V93.41l.522 1.025h.15zm-.994-1.202h-.122l-.334 1.077h-.028l-.336-1.077h-.122l.382 1.201h.18l.38-1.201zm-1.244.952c0 .012-.002.024-.006.032-.018.034-.062.08-.094.098-.01.006-.022.008-.034.008h-.422v-.438h.424c.012 0 .024.002.032.006.032.018.076.063.094.098.004.008.006.021.006.032v.164zm0-.551c0 .012-.002.025-.006.034-.018.033-.062.079-.094.099-.008.004-.02.007-.032.007h-.424v-.428h.422c.012 0 .024.002.034.008.032.018.076.066.094.1.004.009.006.021.006.032v.148zm.116.554v-.171c0-.038-.008-.076-.028-.106-.012-.018-.05-.058-.078-.084.028-.025.066-.064.078-.083.02-.029.028-.068.028-.106v-.154c0-.038-.008-.076-.028-.105-.014-.022-.074-.084-.1-.104-.032-.022-.078-.039-.12-.039h-.54v1.2h.54c.042 0 .088-.014.12-.038.026-.02.086-.084.1-.105.02-.032.028-.066.028-.105m-1.426-.955h-.126l-.634 1.201h.128l.632-1.201zm-2.046.812l.228-.697h.026l.23.697h-.484zm.61.39h.124l-.402-1.2h-.18l-.402 1.2h.122l.092-.279h.556l.09.279zM45 93.233h-.116v1.2H45v-1.2zm-.35 1.202v-.112h-.56v-1.089h-.116v1.201h.676zm-1.604-.39l.228-.697h.026l.23.697h-.484zm.61.39h.124l-.402-1.2h-.18l-.402 1.2h.122l.092-.279h.556l.09.279zm-1.184-.781c0 .013 0 .026-.004.034-.018.034-.066.078-.098.096-.01.007-.022.009-.034.009h-.422v-.447h.422c.012 0 .024 0 .034.006.032.018.08.066.098.1.004.009.004.022.004.034v.168zm.116.004v-.177c0-.038-.01-.074-.03-.104-.014-.022-.076-.086-.102-.106-.032-.023-.076-.037-.118-.037h-.54v1.2h.116v-.531h.3l.296.531h.132l-.298-.531c.04 0 .08-.014.112-.038.026-.02.088-.081.102-.103.02-.03.03-.066.03-.104m-1.012-.312v-.111h-.8v.111h.342v1.089h.116v-1.089h.342zm-.985.831v-.136c0-.085-.05-.164-.128-.187l-.547-.153c-.036-.01-.062-.05-.062-.09v-.126c0-.01.004-.018.008-.025.026-.047.092-.101.124-.116.006-.004.016-.006.026-.006h.283c.009 0 .02.002.026.006.034.018.096.078.122.126 0 0 .006.008.014.025l.116-.033c-.012-.028-.032-.059-.046-.078-.028-.038-.082-.101-.124-.125-.028-.019-.07-.032-.103-.032h-.298c-.032 0-.074.014-.102.032-.036.021-.116.104-.138.139-.018.028-.024.064-.024.098v.124c0 .084.046.167.124.189l.549.15c.038.01.064.054.064.094v.128c0 .01-.002.018-.006.025-.026.047-.094.104-.126.12-.006.004-.014.007-.024.007H40c-.01 0-.022-.003-.028-.007-.034-.018-.094-.078-.122-.126 0 0-.006-.006-.014-.023l-.114.032c.012.027.03.058.044.077.028.038.082.101.124.126.028.019.072.032.104.032h.333c.032 0 .074-.014.102-.032.036-.021.116-.104.138-.138.018-.028.024-.063.024-.097m-1.127.002v-.945h-.116v.941c0 .01-.004.018-.008.025-.026.046-.09.11-.122.126-.006.004-.016.007-.026.007h-.248c-.01 0-.02-.003-.026-.007-.032-.016-.1-.08-.126-.126-.004-.008-.008-.016-.008-.025v-.941h-.116v.945c0 .034.008.067.026.096.022.034.1.116.136.138.028.019.072.032.104.032h.268c.032 0 .074-.014.102-.032.036-.021.114-.104.136-.138.018-.029.024-.062.024-.096m-1.724-.134l.228-.697h.026l.23.697h-.484zm.61.39h.124l-.402-1.2h-.18l-.402 1.2h.122l.092-.279h.556l.09.279zm-1.606-.244c0 .012-.002.025-.006.033-.018.034-.063.08-.095.098-.01.006-.022.008-.034.008h-.246c-.012 0-.024-.002-.034-.008-.032-.018-.078-.063-.096-.098-.004-.008-.004-.021-.004-.033v-.715c0-.012 0-.026.004-.034.018-.035.064-.081.096-.099.01-.006.022-.008.034-.008h.246c.012 0 .024.002.034.008.032.018.077.063.095.099.004.008.006.022.006.034v.715zm.117.004v-.723c0-.038-.01-.075-.03-.105-.014-.021-.075-.086-.101-.104-.032-.024-.077-.038-.119-.038h-.25c-.042 0-.086.014-.118.038-.026.019-.086.083-.1.104-.02.03-.03.067-.03.105v.723c0 .039.01.073.03.104.014.021.074.086.1.105.032.024.076.038.118.038h.25c.042 0 .087-.014.119-.038.026-.02.087-.084.101-.105.02-.03.03-.065.03-.104m-1.125-.004c0 .012-.002.025-.006.033-.018.034-.063.08-.095.098-.01.006-.022.008-.034.008h-.246c-.012 0-.024-.002-.034-.008-.032-.018-.078-.063-.096-.098-.004-.008-.004-.021-.004-.033v-.715c0-.012 0-.026.004-.034.018-.035.064-.081.096-.099.01-.006.022-.008.034-.008h.246c.012 0 .024.002.034.008.032.018.077.063.095.099.004.008.006.022.006.034v.715zm.117.004v-.723c0-.038-.01-.075-.03-.105-.014-.021-.075-.086-.101-.104-.032-.024-.077-.038-.119-.038h-.25c-.042 0-.086.014-.118.038-.026.019-.086.083-.1.104-.02.03-.03.067-.03.105v.723c0 .039.01.073.03.104.014.021.074.086.1.105.032.024.076.038.118.038h.25c.042 0 .087-.014.119-.038.026-.02.087-.084.101-.105.02-.03.03-.065.03-.104m-1.125-.004c0 .012-.002.025-.006.033-.018.034-.063.08-.095.098-.01.006-.022.008-.034.008h-.246c-.012 0-.024-.002-.034-.008-.032-.018-.078-.063-.096-.098-.004-.008-.004-.021-.004-.033v-.715c0-.012 0-.026.004-.034.018-.035.064-.081.096-.099.01-.006.022-.008.034-.008h.246c.012 0 .024.002.034.008.032.018.077.063.095.099.004.008.006.022.006.034v.715zm.117.004v-.723c0-.038-.01-.075-.03-.105-.014-.021-.075-.086-.101-.104-.031-.024-.077-.038-.119-.038h-.25c-.042 0-.086.014-.118.038-.026.019-.086.083-.1.104-.02.03-.03.067-.03.105v.723c0 .039.01.073.03.104.014.021.074.086.1.105.032.024.076.038.118.038h.25c.042 0 .088-.014.119-.038.026-.02.087-.084.101-.105.02-.03.03-.065.03-.104m-1.01-.583v-.14c0-.038-.01-.075-.03-.105-.014-.021-.074-.086-.1-.104-.032-.024-.078-.038-.12-.038h-.226c-.032 0-.076.014-.104.032-.042.024-.096.087-.124.125-.014.02-.032.051-.044.079l.114.033c.024-.056.092-.131.134-.152.006-.004.02-.006.03-.006h.218c.012 0 .024.002.034.008.032.018.078.063.096.099.004.008.006.022.006.034v.13c0 .04-.026.074-.06.092l-.42.226c-.078.042-.128.102-.128.186v.325h.708v-.112h-.592v-.203c0-.04.028-.073.064-.094l.418-.225c.07-.039.126-.106.126-.19m-1.348-.379h-.126l-.306.571-.302-.571h-.128l.372.689v.512h.116v-.512l.374-.689zm-1.053 1.202v-.112h-.572v-.432h.542v-.112h-.542v-.432h.572v-.112h-.688v1.2h.688zm-1.002 0v-1.201h-.111v1.035l-.519-1.035h-.153v1.201h.111V93.41l.523 1.025h.149zm-1.199-.929v.658c0 .011-.002.019-.006.026-.026.046-.092.11-.124.126-.006.004-.016.006-.026.006h-.403v-.977h.403c.01 0 .02.002.026.006.032.016.098.078.124.124.004.008.006.02.006.031m.116.663v-.667c0-.034-.006-.068-.024-.097-.022-.034-.1-.12-.136-.142-.028-.018-.07-.029-.102-.029h-.529v1.2h.529c.032 0 .074-.014.102-.032.036-.021.114-.104.136-.138.018-.028.024-.062.024-.095m-.954-.936h-.126l-.306.571-.302-.571h-.128l.372.689v.512h.116v-.512l.374-.689zm-1.012.944v-.136c0-.085-.05-.164-.128-.187l-.546-.153c-.037-.01-.063-.05-.063-.09v-.126c0-.01.004-.018.008-.025.026-.047.093-.101.125-.116.006-.004.016-.006.026-.006h.282c.01 0 .02.002.026.006.034.018.096.078.122.126 0 0 .006.008.014.025l.116-.033c-.012-.028-.032-.059-.046-.078-.028-.038-.082-.101-.124-.125-.028-.019-.07-.032-.102-.032h-.298c-.032 0-.074.014-.103.032-.036.021-.116.104-.138.139-.018.028-.024.064-.024.098v.124c0 .084.046.167.124.189l.549.15c.038.01.064.054.064.094v.128c0 .01-.002.018-.006.025-.026.047-.094.104-.126.12-.006.004-.014.007-.024.007h-.318c-.01 0-.022-.003-.028-.007-.034-.018-.095-.078-.123-.126 0 0-.006-.006-.014-.023l-.114.032c.012.027.03.058.044.077.028.038.082.101.124.126.029.019.073.032.105.032h.332c.032 0 .074-.014.102-.032.036-.021.116-.104.138-.138.018-.028.024-.063.024-.097m-1.466-.944h-.126l-.634 1.201h.128l.632-1.201zm-1.34.113v-.111h-.8v.111h.342v1.089h.116v-1.089h.342zm-1.027 1.089v-.112h-.572v-.432h.542v-.112h-.542v-.432h.572v-.112h-.688v1.2h.688zm-.995 0v-.112h-.572v-.432h.542v-.112h-.542v-.432h.572v-.112h-.689v1.2h.689zm-1.116-.781c0 .013 0 .026-.004.034-.018.034-.066.078-.098.096-.01.007-.022.009-.034.009h-.422v-.447h.422c.012 0 .024 0 .034.006.032.018.08.066.098.1.004.009.004.022.004.034v.168zm.116.004v-.177c0-.038-.01-.074-.03-.104-.014-.022-.076-.086-.102-.106-.032-.023-.076-.037-.118-.037h-.541v1.2h.117v-.531h.3l.296.531h.132l-.298-.531c.04 0 .08-.014.112-.038.026-.02.088-.081.102-.103.02-.03.03-.066.03-.104m-1.012-.312v-.111h-.8v.111h.342v1.089h.116v-1.089h.342zm-.986.831v-.136c0-.085-.05-.164-.128-.187l-.546-.153c-.036-.01-.062-.05-.062-.09v-.126c0-.01.004-.018.008-.025.026-.047.092-.101.124-.116.006-.004.016-.006.026-.006h.282c.01 0 .02.002.026.006.034.018.096.078.122.126 0 0 .006.008.014.025l.116-.033c-.012-.028-.032-.059-.046-.078-.028-.038-.082-.101-.124-.125-.028-.019-.07-.032-.102-.032h-.298c-.032 0-.074.014-.102.032-.036.021-.116.104-.138.139-.018.028-.024.064-.024.098v.124c0 .084.046.167.124.189l.548.15c.038.01.064.054.064.094v.128c0 .01-.002.018-.006.025-.026.047-.094.104-.126.12-.006.004-.014.007-.024.007h-.318c-.01 0-.022-.003-.028-.007-.034-.018-.094-.078-.122-.126 0 0-.006-.006-.014-.023l-.114.032c.012.027.03.058.044.077.028.038.082.101.124.126.028.019.072.032.104.032h.332c.032 0 .074-.014.102-.032.036-.021.116-.104.138-.138.018-.028.024-.063.024-.097m-1.506-.831v-.111h-.8v.111h.342v1.089h.116v-1.089h.342zm-.94 0v-.111h-.8v.111h.342v1.089h.116v-1.089h.342zm-1.034-.113h-.116v1.2h.116v-1.2zm-.486.421c0 .013 0 .026-.004.034-.018.034-.066.078-.098.096-.01.007-.022.009-.034.009h-.422v-.447h.422c.012 0 .024 0 .034.006.032.018.08.066.098.1.004.009.004.022.004.034v.168zm.116.004v-.177c0-.038-.01-.074-.03-.104-.014-.022-.076-.086-.102-.106-.032-.023-.076-.037-.118-.037h-.54v1.2h.116v-.531h.424c.042 0 .086-.014.118-.038.026-.02.088-.081.102-.103.02-.03.03-.066.03-.104m-1.518.538v-.233c0-.038-.01-.074-.03-.104-.014-.021-.074-.082-.1-.102-.032-.024-.078-.04-.12-.04h-.33v-.371h.518v-.111h-.634v.594h.444c.012 0 .026.002.036.009.032.018.076.062.094.096.004.008.006.021.006.034v.228c0 .012-.002.024-.006.032-.018.034-.062.08-.094.098-.01.006-.024.009-.036.009h-.224c-.01 0-.024-.003-.03-.007-.042-.021-.106-.096-.134-.149l-.116.032c.012.027.032.06.046.079.028.038.082.099.124.124.028.019.072.032.104.032h.232c.042 0 .088-.014.12-.038.026-.02.086-.084.1-.105.02-.032.03-.069.03-.107m-1.008 0v-.233c0-.038-.01-.074-.03-.104-.014-.021-.074-.082-.1-.102-.032-.024-.078-.04-.12-.04h-.33v-.371h.518v-.111h-.634v.594h.444c.012 0 .026.002.036.009.032.018.076.062.094.096.004.008.006.021.006.034v.228c0 .012-.002.024-.006.032-.018.034-.062.08-.094.098-.01.006-.024.009-.036.009h-.224c-.01 0-.024-.003-.03-.007-.042-.021-.106-.096-.134-.149l-.116.032c.012.027.032.06.046.079.028.038.082.099.124.124.028.019.072.032.104.032h.232c.042 0 .088-.014.12-.038.026-.02.086-.084.1-.105.02-.032.03-.069.03-.107m-1.016-.584v-.14c0-.038-.01-.075-.03-.105-.014-.021-.074-.086-.1-.104-.032-.024-.078-.038-.12-.038h-.226c-.032 0-.076.014-.104.032-.042.024-.096.087-.124.125-.014.02-.032.051-.044.079l.114.033c.024-.056.092-.131.134-.152.006-.004.02-.006.03-.006h.218c.012 0 .024.002.034.008.032.018.078.063.096.099.004.008.006.022.006.034v.13c0 .04-.026.074-.06.092l-.42.226c-.078.042-.128.102-.128.186v.325h.708v-.112h-.592v-.203c0-.04.028-.073.064-.094l.418-.225c.07-.039.126-.106.126-.19"/>
</svg>
