<svg xmlns="http://www.w3.org/2000/svg" xmlns:xlink="http://www.w3.org/1999/xlink" width="215.683" height="154.743">
  <path fill="#FFF" d="M2.835 2.834h104.882v74.409H2.835z"/>
  <path fill="none" stroke="#010202" stroke-width=".25" d="M2.835 2.834h104.882v74.409H2.835z"/>
  <defs>
    <path id="a" d="M0 0h215.683v154.743H0z"/>
  </defs>
  <clipPath id="b">
    <use xlink:href="#a" overflow="visible"/>
  </clipPath>
  <path clip-path="url(#b)" fill="#010202" d="M19.441 13.96v4.336h-1.114l1.114-4.336zm-4.285 4.336c.138-.272.216-.58.216-.905 0-.574-.243-1.092-.63-1.46.387-.368.63-.887.63-1.462 0-.002-.001-.003-.001-.005l.99 3.832h-1.205zm-2.705 0v-1.81h.904c.499.002.904.408.904.905 0 .498-.405.904-.902.905h-.906zm.904-4.732c.499.002.904.408.904.905 0 .498-.405.904-.902.905h-.906v-1.81h.904zm5.04 0l-1.052 4.09-1.056-4.09h2.108zm4.157 4.732h-1.999v-3.298l1.999 3.298zm.431-1.434l-1.999-3.298h1.999v3.298zm-11.644 2.546h12.756v-6.956H11.339v6.956zM57.642 9.848v-.945h-.116v.941c0 .01-.004.018-.008.026-.026.046-.09.11-.122.126-.006.004-.016.006-.026.006h-.248c-.01 0-.02-.002-.026-.006-.032-.016-.1-.08-.126-.126-.004-.008-.008-.016-.008-.026v-.941h-.116v.945c0 .034.008.068.026.096.022.034.1.116.136.138.028.018.072.032.104.032h.268c.032 0 .074-.014.102-.032.036-.022.114-.104.136-.138.018-.028.024-.062.024-.096m-1.724-.134l.228-.697h.026l.23.697h-.484zm.61.39h.124l-.402-1.2h-.18l-.402 1.2h.122l.092-.279h.556l.09.279zm-1.1-.156h-.156v.156h.156v-.156zm-.452.156V8.903h-.164l-.328.703-.326-.703h-.166v1.201h.112V9.028l.34.754h.078l.342-.754v1.076h.112zm-1.4-.26c0 .01-.002.018-.006.026-.026.046-.094.11-.126.126-.006.004-.016.006-.026.006h-.298c-.01 0-.02-.002-.026-.006-.032-.016-.098-.08-.124-.126-.004-.008-.008-.016-.008-.026v-.675c0-.01.004-.022.008-.03.026-.046.092-.11.124-.126.006-.004.016-.006.026-.006h.298c.01 0 .02.002.026.006.032.016.1.08.126.126.004.008.006.02.006.03v.675zm.116.002v-.681c0-.034-.008-.07-.026-.098-.022-.034-.1-.118-.136-.139-.028-.018-.072-.032-.104-.032h-.316c-.032 0-.074.014-.102.032-.036.021-.116.105-.138.139-.018.028-.024.064-.024.098v.681c0 .034.006.07.024.098.022.034.102.116.138.138.028.018.07.032.102.032h.316c.032 0 .076-.014.104-.032.036-.022.114-.104.136-.138.018-.028.026-.064.026-.098m-1.088.031l-.116-.032c-.028.055-.092.129-.134.151-.006.004-.018.006-.028.006h-.25c-.01 0-.02-.002-.026-.006-.032-.016-.1-.08-.126-.127-.004-.008-.006-.016-.006-.026v-.677c0-.01.002-.02.006-.028.026-.046.094-.111.126-.127.006-.004.016-.006.026-.006h.25c.01 0 .022.002.028.006.042.022.11.097.134.153l.116-.034c-.012-.028-.032-.059-.046-.079-.028-.038-.082-.1-.124-.125-.028-.018-.07-.032-.102-.032h-.266c-.032 0-.074.014-.102.032-.036.021-.114.105-.136.139-.018.029-.026.063-.026.097v.685c0 .034.008.069.026.097.022.034.1.116.136.138.028.018.072.032.104.032h.264c.032 0 .074-.014.102-.032.042-.026.096-.088.124-.126.014-.02.034-.05.046-.079m-1.096.071h-.156v.156h.156v-.156zm-.452.156V8.903h-.112v1.035l-.518-1.035h-.154v1.201h.112V9.08l.522 1.024h.15zm-.994-1.201h-.122l-.334 1.077h-.028l-.336-1.077h-.122l.382 1.201h.18l.38-1.201zm-1.244.951c0 .012-.002.024-.006.032-.018.034-.062.08-.094.098-.01.006-.022.008-.034.008h-.422v-.439h.424c.012 0 .024.002.032.006.032.018.076.064.094.098.004.008.006.02.006.032v.165zm0-.551c0 .012-.002.026-.006.034-.018.035-.062.081-.094.099-.008.004-.02.008-.032.008h-.424v-.429h.422c.012 0 .024.002.034.008.032.018.076.066.094.1.004.008.006.02.006.032v.148zm.116.555v-.171c0-.038-.008-.076-.028-.106-.012-.018-.05-.058-.078-.084.028-.026.066-.065.078-.083.02-.03.028-.069.028-.107v-.154c0-.038-.008-.076-.028-.106-.014-.022-.074-.084-.1-.104-.032-.023-.078-.039-.12-.039h-.54v1.2h.54c.042 0 .088-.014.12-.038.026-.02.086-.084.1-.106.02-.03.028-.064.028-.102m-1.426-.955h-.126l-.634 1.201h.128l.632-1.201zm-2.046.811l.228-.697h.026l.23.697h-.484zm.61.39h.124l-.402-1.2h-.18l-.402 1.2h.122l.092-.279h.556l.09.279zM45 8.903h-.116v1.2H45v-1.2zm-.35 1.201v-.112h-.56V8.903h-.116v1.201h.676zm-1.604-.39l.228-.697h.026l.23.697h-.484zm.61.39h.124l-.402-1.2h-.18l-.402 1.2h.122l.092-.279h.556l.09.279zm-1.184-.78c0 .012 0 .026-.004.034-.018.034-.066.078-.098.096-.01.006-.022.008-.034.008h-.422v-.447h.422c.012 0 .024 0 .034.006.032.018.08.066.098.1.004.008.004.022.004.034v.169zm.116.004v-.177c0-.038-.01-.074-.03-.104-.014-.022-.076-.086-.102-.106-.032-.023-.076-.037-.118-.037h-.54v1.2h.116v-.531h.3l.296.531h.132l-.298-.531c.04 0 .08-.014.112-.038.026-.02.088-.081.102-.103.02-.03.03-.066.03-.104m-1.012-.313v-.111h-.8v.111h.342v1.089h.116V9.015h.342zm-.985.831V9.71c0-.084-.05-.164-.128-.186l-.547-.153c-.036-.01-.062-.05-.062-.09v-.126c0-.01.004-.018.008-.026.026-.046.092-.1.124-.116.006-.004.016-.006.026-.006h.283c.009 0 .02.002.026.006.034.018.096.078.122.126 0 0 .006.008.014.026l.116-.034c-.012-.028-.032-.058-.046-.078-.028-.038-.082-.1-.124-.125-.028-.018-.07-.032-.103-.032h-.298c-.032 0-.074.014-.102.032-.036.021-.116.105-.138.139-.018.028-.024.064-.024.098v.124c0 .084.046.167.124.189l.549.15c.038.01.064.054.064.094v.128c0 .01-.002.018-.006.026-.026.046-.094.104-.126.12-.006.004-.014.006-.024.006H40c-.01 0-.022-.002-.028-.006-.034-.018-.094-.078-.122-.126 0 0-.006-.006-.014-.024l-.114.032c.012.028.03.058.044.078.028.038.082.1.124.126.028.018.072.032.104.032h.333c.032 0 .074-.014.102-.032.036-.022.116-.104.138-.138.018-.028.024-.064.024-.098m-1.127.002v-.945h-.116v.941c0 .01-.004.018-.008.026-.026.046-.09.11-.122.126-.006.004-.016.006-.026.006h-.248c-.01 0-.02-.002-.026-.006-.032-.016-.1-.08-.126-.126-.004-.008-.008-.016-.008-.026v-.941h-.116v.945c0 .034.008.068.026.096.022.034.1.116.136.138.028.018.072.032.104.032h.268c.032 0 .074-.014.102-.032.036-.022.114-.104.136-.138.018-.028.024-.062.024-.096m-1.724-.134l.228-.697h.026l.23.697h-.484zm.61.39h.124l-.402-1.2h-.18l-.402 1.2h.122l.092-.279h.556l.09.279zm-1.606-.243c0 .012-.002.025-.006.033-.018.034-.063.08-.095.098-.01.006-.022.008-.034.008h-.246c-.012 0-.024-.002-.034-.008-.032-.018-.078-.064-.096-.098-.004-.008-.004-.021-.004-.033v-.715c0-.012 0-.026.004-.034.018-.034.064-.081.096-.099.01-.006.022-.008.034-.008h.246c.012 0 .024.002.034.008.032.018.077.065.095.099.004.008.006.022.006.034v.715zm.117.004v-.723c0-.038-.01-.075-.03-.105-.014-.022-.075-.086-.101-.105-.032-.024-.077-.038-.119-.038h-.25c-.042 0-.086.014-.118.038-.026.019-.086.083-.1.105-.02.03-.03.067-.03.105v.723c0 .039.01.073.03.103.014.022.074.086.1.106.032.024.076.038.118.038h.25c.042 0 .087-.014.119-.038.026-.02.087-.084.101-.106.02-.03.03-.064.03-.103m-1.125-.004c0 .012-.002.025-.006.033-.018.034-.063.08-.095.098-.01.006-.022.008-.034.008h-.246c-.012 0-.024-.002-.034-.008-.032-.018-.078-.064-.096-.098-.004-.008-.004-.021-.004-.033v-.715c0-.012 0-.026.004-.034.018-.034.064-.081.096-.099.01-.006.022-.008.034-.008h.246c.012 0 .024.002.034.008.032.018.077.065.095.099.004.008.006.022.006.034v.715zm.117.004v-.723c0-.038-.01-.075-.03-.105-.014-.022-.075-.086-.101-.105-.032-.024-.077-.038-.119-.038h-.25c-.042 0-.086.014-.118.038-.026.019-.086.083-.1.105-.02.03-.03.067-.03.105v.723c0 .039.01.073.03.103.014.022.074.086.1.106.032.024.076.038.118.038h.25c.042 0 .087-.014.119-.038.026-.02.087-.084.101-.106.02-.03.03-.064.03-.103m-1.125-.004c0 .012-.002.025-.006.033-.018.034-.063.08-.095.098-.01.006-.022.008-.034.008h-.246c-.012 0-.024-.002-.034-.008-.032-.018-.078-.064-.096-.098-.004-.008-.004-.021-.004-.033v-.715c0-.012 0-.026.004-.034.018-.034.064-.081.096-.099.01-.006.022-.008.034-.008h.246c.012 0 .024.002.034.008.032.018.077.065.095.099.004.008.006.022.006.034v.715zm.117.004v-.723c0-.038-.01-.075-.03-.105-.014-.022-.075-.086-.101-.105-.031-.024-.077-.038-.119-.038h-.25c-.042 0-.086.014-.118.038-.026.019-.086.083-.1.105-.02.03-.03.067-.03.105v.723c0 .039.01.073.03.103.014.022.074.086.1.106.032.024.076.038.118.038h.25c.042 0 .088-.014.119-.038.026-.02.087-.084.101-.106.02-.03.03-.064.03-.103m-1.01-.583v-.14c0-.038-.01-.075-.03-.105-.014-.022-.074-.086-.1-.105-.032-.024-.078-.038-.12-.038h-.226c-.032 0-.076.014-.104.032-.042.025-.096.087-.124.125-.014.02-.032.051-.044.079l.114.034c.024-.056.092-.131.134-.153.006-.004.02-.006.03-.006h.218c.012 0 .024.002.034.008.032.018.078.065.096.099.004.008.006.022.006.034v.13c0 .04-.026.074-.06.092l-.42.225c-.078.042-.128.102-.128.186v.325h.708v-.112h-.592v-.203c0-.04.028-.074.064-.094l.418-.225c.07-.038.126-.104.126-.188m-1.348-.379h-.126l-.306.571-.302-.571h-.128l.372.689v.512h.116v-.512l.374-.689zm-1.053 1.201v-.112h-.572V9.56h.542v-.112h-.542v-.432h.572v-.112h-.688v1.2h.688zm-1.002 0V8.903h-.111v1.035l-.519-1.035h-.153v1.201h.111V9.08l.523 1.024h.149zm-1.199-.929v.659c0 .01-.002.018-.006.026-.026.046-.092.11-.124.126-.006.004-.016.006-.026.006h-.403v-.977h.403c.01 0 .02.002.026.006.032.016.098.078.124.124.004.008.006.02.006.03m.116.663v-.667c0-.034-.006-.068-.024-.096-.022-.034-.1-.12-.136-.141-.028-.018-.07-.03-.102-.03h-.529v1.2h.529c.032 0 .074-.014.102-.032.036-.022.114-.104.136-.138.018-.028.024-.062.024-.096m-.954-.935h-.126l-.306.571-.302-.571h-.128l.372.689v.512h.116v-.512l.374-.689zm-1.012.943V9.71c0-.084-.05-.164-.128-.186l-.546-.153c-.037-.01-.063-.05-.063-.09v-.126c0-.01.004-.018.008-.026.026-.046.093-.1.125-.116.006-.004.016-.006.026-.006h.282c.01 0 .02.002.026.006.034.018.096.078.122.126 0 0 .006.008.014.026l.116-.034c-.012-.028-.032-.058-.046-.078-.028-.038-.082-.1-.124-.125-.028-.018-.07-.032-.102-.032h-.298c-.032 0-.074.014-.103.032-.036.021-.116.105-.138.139-.018.028-.024.064-.024.098v.124c0 .084.046.167.124.189l.549.15c.038.01.064.054.064.094v.128c0 .01-.002.018-.006.026-.026.046-.094.104-.126.12-.006.004-.014.006-.024.006h-.318c-.01 0-.022-.002-.028-.006-.034-.018-.095-.078-.123-.126 0 0-.006-.006-.014-.024l-.114.032c.012.028.03.058.044.078.028.038.082.1.124.126.029.018.073.032.105.032h.332c.032 0 .074-.014.102-.032.036-.022.116-.104.138-.138.018-.028.024-.064.024-.098m-1.466-.943h-.126l-.634 1.201h.128l.632-1.201zm-1.34.112v-.111h-.8v.111h.342v1.089h.116V9.015h.342zm-1.027 1.089v-.112h-.572V9.56h.542v-.112h-.542v-.432h.572v-.112h-.688v1.2h.688zm-.995 0v-.112h-.572V9.56h.542v-.112h-.542v-.432h.572v-.112h-.689v1.2h.689zm-1.116-.78c0 .012 0 .026-.004.034-.018.034-.066.078-.098.096-.01.006-.022.008-.034.008h-.422v-.447h.422c.012 0 .024 0 .034.006.032.018.08.066.098.1.004.008.004.022.004.034v.169zm.116.004v-.177c0-.038-.01-.074-.03-.104-.014-.022-.076-.086-.102-.106-.032-.023-.076-.037-.118-.037h-.541v1.2h.117v-.531h.3l.296.531h.132l-.298-.531c.04 0 .08-.014.112-.038.026-.02.088-.081.102-.103.02-.03.03-.066.03-.104m-1.012-.313v-.111h-.8v.111h.342v1.089h.116V9.015h.342zm-.986.831V9.71c0-.084-.05-.164-.128-.186l-.546-.153c-.036-.01-.062-.05-.062-.09v-.126c0-.01.004-.018.008-.026.026-.046.092-.1.124-.116.006-.004.016-.006.026-.006h.282c.01 0 .02.002.026.006.034.018.096.078.122.126 0 0 .006.008.014.026l.116-.034c-.012-.028-.032-.058-.046-.078-.028-.038-.082-.1-.124-.125-.028-.018-.07-.032-.102-.032h-.298c-.032 0-.074.014-.102.032-.036.021-.116.105-.138.139-.018.028-.024.064-.024.098v.124c0 .084.046.167.124.189l.548.15c.038.01.064.054.064.094v.128c0 .01-.002.018-.006.026-.026.046-.094.104-.126.12-.006.004-.014.006-.024.006h-.318c-.01 0-.022-.002-.028-.006-.034-.018-.094-.078-.122-.126 0 0-.006-.006-.014-.024l-.114.032c.012.028.03.058.044.078.028.038.082.1.124.126.028.018.072.032.104.032h.332c.032 0 .074-.014.102-.032.036-.022.116-.104.138-.138.018-.028.024-.064.024-.098m-1.506-.831v-.111h-.8v.111h.342v1.089h.116V9.015h.342zm-.94 0v-.111h-.8v.111h.342v1.089h.116V9.015h.342zm-1.034-.112h-.116v1.2h.116v-1.2zm-.486.421c0 .012 0 .026-.004.034-.018.034-.066.078-.098.096-.01.006-.022.008-.034.008h-.422v-.447h.422c.012 0 .024 0 .034.006.032.018.08.066.098.1.004.008.004.022.004.034v.169zm.116.004v-.177c0-.038-.01-.074-.03-.104-.014-.022-.076-.086-.102-.106-.032-.023-.076-.037-.118-.037h-.54v1.2h.116v-.531h.424c.042 0 .086-.014.118-.038.026-.02.088-.081.102-.103.02-.03.03-.066.03-.104m-1.518.538v-.234c0-.038-.01-.074-.03-.104-.014-.022-.074-.082-.1-.102-.032-.024-.078-.04-.12-.04h-.33v-.371h.518v-.111h-.634v.594h.444c.012 0 .026.002.036.008.032.018.076.062.094.096.004.008.006.022.006.034v.228c0 .012-.002.024-.006.032-.018.034-.062.08-.094.098-.01.006-.024.008-.036.008h-.224c-.01 0-.024-.002-.03-.006-.042-.022-.106-.096-.134-.15l-.116.032c.012.028.032.06.046.08.028.038.082.098.124.124.028.018.072.032.104.032h.232c.042 0 .088-.014.12-.038.026-.02.086-.084.1-.106.02-.03.03-.066.03-.104m-1.008 0v-.234c0-.038-.01-.074-.03-.104-.014-.022-.074-.082-.1-.102-.032-.024-.078-.04-.12-.04h-.33v-.371h.518v-.111h-.634v.594h.444c.012 0 .026.002.036.008.032.018.076.062.094.096.004.008.006.022.006.034v.228c0 .012-.002.024-.006.032-.018.034-.062.08-.094.098-.01.006-.024.008-.036.008h-.224c-.01 0-.024-.002-.03-.006-.042-.022-.106-.096-.134-.15l-.116.032c.012.028.032.06.046.08.028.038.082.098.124.124.028.018.072.032.104.032h.232c.042 0 .088-.014.12-.038.026-.02.086-.084.1-.106.02-.03.03-.066.03-.104m-1.016-.584v-.14c0-.038-.01-.075-.03-.105-.014-.022-.074-.086-.1-.105-.032-.024-.078-.038-.12-.038h-.226c-.032 0-.076.014-.104.032-.042.025-.096.087-.124.125-.014.02-.032.051-.044.079l.114.034c.024-.056.092-.131.134-.153.006-.004.02-.006.03-.006h.218c.012 0 .024.002.034.008.032.018.078.065.096.099.004.008.006.022.006.034v.13c0 .04-.026.074-.06.092l-.42.225c-.078.042-.128.102-.128.186v.325h.708v-.112h-.592v-.203c0-.04.028-.074.064-.094l.418-.225c.07-.038.126-.104.126-.188"/>
  <path clip-path="url(#b)" fill="#FFF" d="M107.967 2.834h104.882v74.409H107.967z"/>
  <path clip-path="url(#b)" fill="none" stroke="#010202" stroke-width=".25" d="M107.967 2.834h104.882v74.409H107.967z"/>
  <path clip-path="url(#b)" fill="#010202" d="M124.573 13.96v4.336h-1.114l1.114-4.336zm-4.285 4.336c.138-.272.216-.58.216-.905 0-.574-.243-1.092-.63-1.46.387-.368.63-.887.63-1.462 0-.002-.001-.003-.001-.005l.99 3.832h-1.205zm-2.705 0v-1.81h.904c.499.002.903.408.903.905 0 .498-.404.904-.901.905h-.906zm.904-4.732c.499.002.903.408.903.905 0 .498-.404.904-.901.905h-.906v-1.81h.904zm5.04 0l-1.053 4.09-1.056-4.09h2.109zm4.157 4.732h-1.999v-3.298l1.999 3.298zm.431-1.434l-1.999-3.298h1.999v3.298zm-11.644 2.546h12.756v-6.956h-12.756v6.956zM162.774 9.848v-.945h-.116v.941c0 .01-.004.018-.008.026-.026.046-.091.11-.122.126-.006.004-.017.006-.026.006h-.248c-.01 0-.02-.002-.026-.006-.031-.016-.1-.08-.126-.126-.004-.008-.008-.016-.008-.026v-.941h-.116v.945c0 .034.009.068.026.096.022.034.1.116.136.138.028.018.072.032.104.032h.268c.032 0 .074-.014.103-.032.036-.022.113-.104.136-.138.017-.028.023-.062.023-.096m-1.724-.134l.229-.697h.025l.23.697h-.484zm.61.39h.124l-.402-1.2h-.18l-.402 1.2h.122l.092-.279h.557l.089.279zm-1.1-.156h-.155v.156h.155v-.156zm-.452.156V8.903h-.164l-.328.703-.326-.703h-.166v1.201h.112V9.028l.34.754h.078l.342-.754v1.076h.112zm-1.4-.26c0 .01-.002.018-.006.026-.026.046-.094.11-.126.126-.006.004-.017.006-.026.006h-.298c-.01 0-.02-.002-.026-.006-.031-.016-.098-.08-.124-.126-.004-.008-.008-.016-.008-.026v-.675c0-.01.004-.022.008-.03.026-.046.093-.11.124-.126.007-.004.017-.006.026-.006h.298c.01 0 .021.002.026.006.032.016.1.08.126.126.004.008.006.02.006.03v.675zm.116.002v-.681c0-.034-.008-.07-.026-.098-.021-.034-.1-.118-.136-.139-.028-.018-.072-.032-.104-.032h-.315c-.032 0-.074.014-.103.032-.036.021-.115.105-.138.139-.018.028-.024.064-.024.098v.681c0 .034.007.07.024.098.022.034.102.116.138.138.028.018.07.032.103.032h.315c.032 0 .076-.014.104-.032.036-.022.114-.104.136-.138.018-.028.026-.064.026-.098m-1.088.031l-.116-.032c-.028.055-.092.129-.134.151-.006.004-.019.006-.028.006h-.25c-.01 0-.021-.002-.026-.006-.031-.016-.1-.08-.126-.127-.004-.008-.006-.016-.006-.026v-.677c0-.01.002-.02.006-.028.026-.046.095-.111.126-.127.006-.004.017-.006.026-.006h.25c.01 0 .022.002.028.006.042.022.109.097.134.153l.116-.034c-.013-.028-.032-.059-.046-.079-.028-.038-.082-.1-.124-.125-.028-.018-.07-.032-.103-.032h-.266c-.032 0-.074.014-.103.032-.036.021-.113.105-.136.139-.018.029-.026.063-.026.097v.685c0 .034.009.069.026.097.022.034.1.116.136.138.028.018.072.032.104.032h.264c.032 0 .074-.014.103-.032.042-.026.096-.088.124-.126.015-.02.035-.05.047-.079m-1.096.071h-.155v.156h.155v-.156zm-.452.156V8.903h-.111v1.035l-.519-1.035h-.153v1.201h.111V9.08l.522 1.024h.15zm-.994-1.201h-.122l-.334 1.077h-.028l-.336-1.077h-.122l.382 1.201h.181l.379-1.201zm-1.244.951c0 .012-.002.024-.006.032-.019.034-.063.08-.095.098-.01.006-.021.008-.033.008h-.423v-.439h.425c.012 0 .023.002.031.006.032.018.076.064.095.098.004.008.006.02.006.032v.165zm0-.551c0 .012-.002.026-.006.034-.019.035-.063.081-.095.099-.008.004-.02.008-.031.008h-.425v-.429h.423c.012 0 .023.002.033.008.032.018.076.066.095.1.004.008.006.02.006.032v.148zm.116.555v-.171c0-.038-.009-.076-.028-.106-.012-.018-.05-.058-.078-.084.028-.026.066-.065.078-.083.02-.03.028-.069.028-.107v-.154c0-.038-.009-.076-.028-.106-.014-.022-.074-.084-.101-.104-.031-.023-.077-.039-.119-.039h-.54v1.2h.54c.042 0 .088-.014.119-.038.026-.02.087-.084.101-.106.02-.03.028-.064.028-.102m-1.426-.955h-.126l-.634 1.201h.128l.632-1.201zm-2.046.811l.229-.697h.025l.23.697h-.484zm.61.39h.124l-.402-1.2h-.18l-.402 1.2h.122l.092-.279h.557l.089.279zm-1.072-1.201h-.116v1.2h.116v-1.2zm-.35 1.201v-.112h-.561V8.903h-.115v1.201h.676zm-1.604-.39l.229-.697h.025l.23.697h-.484zm.61.39h.124l-.402-1.2h-.18l-.402 1.2h.122l.092-.279h.557l.089.279zm-1.184-.78c0 .012 0 .026-.004.034-.018.034-.065.078-.098.096-.01.006-.021.008-.034.008h-.422v-.447h.422c.013 0 .024 0 .034.006.032.018.08.066.098.1.004.008.004.022.004.034v.169zm.116.004v-.177c0-.038-.01-.074-.029-.104-.015-.022-.076-.086-.103-.106-.032-.023-.076-.037-.118-.037h-.54v1.2h.116v-.531h.3l.296.531h.133l-.299-.531c.04 0 .08-.014.112-.038.026-.02.088-.081.103-.103.019-.03.029-.066.029-.104m-1.012-.313v-.111h-.8v.111h.342v1.089h.116V9.015h.342zm-.985.831V9.71c0-.084-.05-.164-.128-.186l-.547-.153c-.036-.01-.062-.05-.062-.09v-.126c0-.01.004-.018.008-.026.025-.046.092-.1.124-.116.006-.004.016-.006.025-.006h.282c.01 0 .021.002.026.006.035.018.097.078.123.126 0 0 .006.008.014.026l.116-.034c-.012-.028-.032-.058-.046-.078-.028-.038-.082-.1-.124-.125-.028-.018-.07-.032-.104-.032h-.298c-.032 0-.074.014-.102.032-.036.021-.116.105-.139.139-.018.028-.023.064-.023.098v.124c0 .084.046.167.124.189l.549.15c.038.01.064.054.064.094v.128c0 .01-.002.018-.007.026-.025.046-.094.104-.127.12-.005.004-.014.006-.022.006h-.319c-.01 0-.021-.002-.028-.006-.033-.018-.094-.078-.121-.126 0 0-.007-.006-.015-.024l-.114.032c.013.028.03.058.045.078.027.038.082.1.124.126.027.018.071.032.104.032h.332c.033 0 .075-.014.103-.032.036-.022.116-.104.139-.138.018-.028.024-.064.024-.098m-1.127.002v-.945h-.115v.941c0 .01-.005.018-.009.026-.025.046-.09.11-.122.126-.006.004-.016.006-.025.006h-.248c-.01 0-.021-.002-.026-.006-.032-.016-.1-.08-.126-.126-.004-.008-.008-.016-.008-.026v-.941h-.117v.945c0 .034.008.068.026.096.021.034.1.116.136.138.028.018.072.032.104.032h.268c.032 0 .074-.014.102-.032.036-.022.114-.104.137-.138.017-.028.023-.062.023-.096m-1.724-.134l.228-.697h.026l.23.697h-.484zm.61.39h.124l-.402-1.2h-.18l-.402 1.2h.122l.092-.279h.556l.09.279zm-1.606-.243c0 .012-.002.025-.006.033-.019.034-.064.08-.095.098-.011.006-.022.008-.034.008h-.246c-.012 0-.024-.002-.034-.008-.032-.018-.078-.064-.096-.098-.004-.008-.004-.021-.004-.033v-.715c0-.012 0-.026.004-.034.018-.034.063-.081.096-.099.01-.006.022-.008.034-.008h.246c.012 0 .022.002.034.008.03.018.076.065.095.099.004.008.006.022.006.034v.715zm.117.004v-.723c0-.038-.01-.075-.031-.105-.014-.022-.074-.086-.1-.105-.032-.024-.078-.038-.119-.038h-.25c-.042 0-.086.014-.118.038-.026.019-.086.083-.1.105-.021.03-.03.067-.03.105v.723c0 .039.01.073.03.103.014.022.073.086.1.106.032.024.076.038.118.038h.25c.041 0 .087-.014.119-.038.025-.02.086-.084.1-.106.021-.03.031-.064.031-.103m-1.125-.004c0 .012-.002.025-.006.033-.019.034-.064.08-.096.098-.01.006-.021.008-.033.008h-.246c-.013 0-.024-.002-.034-.008-.032-.018-.078-.064-.096-.098-.005-.008-.005-.021-.005-.033v-.715c0-.012 0-.026.005-.034.018-.034.063-.081.096-.099.01-.006.021-.008.034-.008h.246c.012 0 .023.002.033.008.031.018.077.065.096.099.004.008.006.022.006.034v.715zm.117.004v-.723c0-.038-.011-.075-.03-.105-.015-.022-.075-.086-.102-.105-.031-.024-.077-.038-.118-.038h-.25c-.042 0-.086.014-.118.038-.026.019-.086.083-.101.105-.02.03-.029.067-.029.105v.723c0 .039.01.073.029.103.015.022.074.086.101.106.032.024.076.038.118.038h.25c.041 0 .087-.014.118-.038.026-.02.087-.084.102-.106.02-.03.03-.064.03-.103m-1.125-.004c0 .012-.002.025-.007.033-.018.034-.063.08-.095.098-.01.006-.021.008-.034.008h-.246c-.012 0-.023-.002-.033-.008-.032-.018-.078-.064-.097-.098-.004-.008-.004-.021-.004-.033v-.715c0-.012 0-.026.004-.034.019-.034.064-.081.097-.099.01-.006.021-.008.033-.008h.246c.013 0 .024.002.034.008.031.018.077.065.095.099.005.008.007.022.007.034v.715zm.117.004v-.723c0-.038-.01-.075-.029-.105-.016-.022-.075-.086-.102-.105-.031-.024-.078-.038-.119-.038h-.25c-.042 0-.086.014-.117.038-.026.019-.086.083-.101.105-.02.03-.03.067-.03.105v.723c0 .039.011.073.03.103.015.022.074.086.101.106.031.024.075.038.117.038h.25c.041 0 .088-.014.119-.038.026-.02.086-.084.102-.106.019-.03.029-.064.029-.103m-1.01-.583v-.14c0-.038-.01-.075-.03-.105-.014-.022-.073-.086-.1-.105-.032-.024-.078-.038-.12-.038h-.226c-.032 0-.076.014-.104.032-.042.025-.096.087-.124.125-.014.02-.031.051-.044.079l.114.034c.024-.056.092-.131.134-.153.006-.004.021-.006.03-.006h.218c.012 0 .024.002.034.008.032.018.078.065.096.099.004.008.006.022.006.034v.13c0 .04-.025.074-.06.092l-.42.225c-.078.042-.128.102-.128.186v.325h.708v-.112h-.592v-.203c0-.04.027-.074.063-.094l.418-.225c.071-.038.127-.104.127-.188m-1.348-.379h-.126l-.307.571-.302-.571h-.128l.372.689v.512h.116v-.512l.375-.689zm-1.053 1.201v-.112h-.572V9.56h.542v-.112h-.542v-.432h.572v-.112h-.688v1.2h.688zm-1.002 0V8.903h-.111v1.035l-.52-1.035h-.152v1.201h.11V9.08l.523 1.024h.15zm-1.199-.929v.659c0 .01-.002.018-.006.026-.026.046-.093.11-.124.126-.007.004-.017.006-.026.006h-.403v-.977h.403c.01 0 .02.002.026.006.031.016.098.078.124.124.004.008.006.02.006.03m.116.663v-.667c0-.034-.007-.068-.024-.096-.022-.034-.1-.12-.136-.141-.028-.018-.07-.03-.103-.03h-.528v1.2h.528c.032 0 .074-.014.103-.032.036-.022.113-.104.136-.138.018-.028.024-.062.024-.096m-.954-.935h-.126l-.307.571-.302-.571h-.128l.372.689v.512h.116v-.512l.375-.689zm-1.012.943V9.71c0-.084-.05-.164-.128-.186l-.547-.153c-.036-.01-.062-.05-.062-.09v-.126c0-.01.004-.018.008-.026.025-.046.093-.1.125-.116.006-.004.016-.006.025-.006h.282c.01 0 .021.002.026.006.034.018.096.078.122.126 0 0 .006.008.014.026l.116-.034c-.012-.028-.032-.058-.046-.078-.028-.038-.082-.1-.124-.125-.028-.018-.07-.032-.103-.032h-.298c-.032 0-.075.014-.103.032-.036.021-.116.105-.139.139-.018.028-.023.064-.023.098v.124c0 .084.046.167.124.189l.549.15c.038.01.064.054.064.094v.128c0 .01-.002.018-.007.026-.025.046-.094.104-.126.12-.006.004-.014.006-.023.006h-.318c-.01 0-.021-.002-.027-.006-.035-.018-.096-.078-.123-.126 0 0-.007-.006-.015-.024l-.113.032c.012.028.029.058.044.078.027.038.082.1.124.126.028.018.072.032.104.032h.332c.032 0 .074-.014.102-.032.036-.022.116-.104.139-.138.019-.028.025-.064.025-.098m-1.466-.943h-.126l-.634 1.201h.128l.632-1.201zm-1.34.112v-.111h-.8v.111h.342v1.089h.116V9.015h.342zm-1.027 1.089v-.112h-.571V9.56h.542v-.112h-.542v-.432h.571v-.112h-.688v1.2h.688zm-.996 0v-.112h-.57V9.56h.541v-.112h-.541v-.432h.57v-.112h-.688v1.2h.688zm-1.115-.78c0 .012 0 .026-.004.034-.019.034-.066.078-.099.096-.01.006-.021.008-.034.008h-.422v-.447h.422c.013 0 .024 0 .034.006.032.018.08.066.099.1.004.008.004.022.004.034v.169zm.116.004v-.177c0-.038-.01-.074-.029-.104-.015-.022-.076-.086-.103-.106-.031-.023-.076-.037-.118-.037h-.54v1.2h.116v-.531h.301l.296.531h.132l-.298-.531c.04 0 .08-.014.111-.038.026-.02.088-.081.103-.103.019-.03.029-.066.029-.104m-1.012-.313v-.111h-.8v.111h.342v1.089h.116V9.015h.342zm-.986.831V9.71c0-.084-.051-.164-.129-.186l-.546-.153c-.036-.01-.062-.05-.062-.09v-.126c0-.01.004-.018.008-.026.026-.046.092-.1.124-.116.006-.004.016-.006.026-.006h.281c.011 0 .021.002.026.006.034.018.096.078.122.126 0 0 .006.008.014.026l.116-.034c-.012-.028-.032-.058-.046-.078-.028-.038-.082-.1-.124-.125-.028-.018-.07-.032-.102-.032h-.299c-.031 0-.073.014-.102.032-.036.021-.116.105-.138.139-.019.028-.024.064-.024.098v.124c0 .084.046.167.124.189l.548.15c.038.01.064.054.064.094v.128c0 .01-.002.018-.006.026-.026.046-.095.104-.126.12-.007.004-.015.006-.024.006h-.318c-.01 0-.021-.002-.027-.006-.034-.018-.095-.078-.122-.126 0 0-.006-.006-.015-.024l-.113.032c.012.028.029.058.044.078.027.038.082.1.124.126.027.018.071.032.104.032h.332c.032 0 .074-.014.103-.032.036-.022.115-.104.138-.138.019-.028.025-.064.025-.098m-1.506-.831v-.111h-.8v.111h.342v1.089h.116V9.015h.342zm-.94 0v-.111h-.8v.111h.342v1.089h.116V9.015h.342zm-1.034-.112h-.116v1.2h.116v-1.2zm-.486.421c0 .012 0 .026-.004.034-.018.034-.065.078-.098.096-.01.006-.022.008-.034.008h-.422v-.447h.422c.012 0 .024 0 .034.006.032.018.08.066.098.1.004.008.004.022.004.034v.169zm.116.004v-.177c0-.038-.01-.074-.03-.104-.014-.022-.075-.086-.102-.106-.032-.023-.076-.037-.118-.037h-.54v1.2h.116v-.531h.424c.042 0 .086-.014.118-.038.026-.02.088-.081.102-.103.02-.03.03-.066.03-.104m-1.518.538v-.234c0-.038-.011-.074-.03-.104-.014-.022-.074-.082-.1-.102-.032-.024-.078-.04-.12-.04h-.33v-.371h.518v-.111h-.634v.594h.444c.012 0 .025.002.036.008.031.018.075.062.094.096.004.008.006.022.006.034v.228c0 .012-.002.024-.006.032-.019.034-.063.08-.094.098-.011.006-.024.008-.036.008h-.225c-.01 0-.023-.002-.029-.006-.042-.022-.106-.096-.135-.15l-.115.032c.012.028.031.06.046.08.027.038.082.098.124.124.027.018.071.032.104.032h.232c.042 0 .088-.014.12-.038.025-.02.086-.084.1-.106.02-.03.03-.066.03-.104m-1.008 0v-.234c0-.038-.011-.074-.03-.104-.015-.022-.074-.082-.101-.102-.031-.024-.077-.04-.119-.04h-.33v-.371h.518v-.111h-.634v.594h.443c.013 0 .026.002.036.008.032.018.076.062.095.096.004.008.006.022.006.034v.228c0 .012-.002.024-.006.032-.019.034-.063.08-.095.098-.01.006-.023.008-.036.008h-.224c-.01 0-.023-.002-.03-.006-.042-.022-.105-.096-.134-.15l-.116.032c.013.028.032.06.046.08.028.038.082.098.124.124.028.018.072.032.104.032h.232c.042 0 .088-.014.119-.038.026-.02.086-.084.101-.106.021-.03.031-.066.031-.104m-1.016-.584v-.14c0-.038-.01-.075-.03-.105-.014-.022-.073-.086-.1-.105-.032-.024-.078-.038-.12-.038h-.226c-.032 0-.076.014-.104.032-.042.025-.096.087-.124.125-.014.02-.032.051-.044.079l.114.034c.023-.056.092-.131.134-.153.006-.004.021-.006.03-.006h.218c.012 0 .024.002.034.008.032.018.078.065.096.099.004.008.006.022.006.034v.13c0 .04-.025.074-.06.092l-.42.225c-.078.042-.128.102-.128.186v.325h.708v-.112h-.592v-.203c0-.04.027-.074.063-.094l.418-.225c.071-.038.127-.104.127-.188"/>
  <path clip-path="url(#b)" fill="#FFF" d="M2.835 77.494h104.882v74.409H2.835z"/>
  <path clip-path="url(#b)" fill="none" stroke="#010202" stroke-width=".25" d="M2.835 77.494h104.882v74.409H2.835z"/>
  <path clip-path="url(#b)" fill="#010202" d="M19.441 88.619v4.336h-1.114l1.114-4.336zm-4.285 4.336c.138-.271.216-.58.216-.905 0-.573-.243-1.092-.63-1.46.387-.368.63-.887.63-1.462 0-.002-.001-.003-.001-.005l.99 3.832h-1.205zm-2.705 0v-1.81h.904c.499.002.904.407.904.904 0 .498-.405.904-.902.905h-.906zm.904-4.731c.499.002.904.407.904.904 0 .498-.405.904-.902.905h-.906v-1.81h.904zm5.04 0l-1.052 4.09-1.056-4.09h2.108zm4.157 4.731h-1.999v-3.298l1.999 3.298zm.431-1.434l-1.999-3.298h1.999v3.298zm-11.644 2.546h12.756v-6.956H11.339v6.956zM57.642 84.508v-.945h-.116v.94c0 .011-.004.019-.008.026-.026.046-.09.11-.122.126-.006.004-.016.006-.026.006h-.248c-.01 0-.02-.002-.026-.006-.032-.016-.1-.08-.126-.126-.004-.008-.008-.016-.008-.026v-.94h-.116v.945c0 .033.008.067.026.096.022.034.1.116.136.138.028.019.072.032.104.032h.268c.032 0 .074-.014.102-.032.036-.021.114-.104.136-.138.018-.029.024-.063.024-.096m-1.724-.135l.228-.696h.026l.23.696h-.484zm.61.391h.124l-.402-1.2h-.18l-.402 1.2h.122l.092-.279h.556l.09.279zm-1.1-.157h-.156v.156h.156v-.156zm-.452.157v-1.201h-.164l-.328.703-.326-.703h-.166v1.201h.112v-1.076l.34.754h.078l.342-.754v1.076h.112zm-1.4-.261c0 .011-.002.019-.006.026-.026.046-.094.11-.126.126-.006.004-.016.006-.026.006h-.298c-.01 0-.02-.002-.026-.006-.032-.016-.098-.08-.124-.126-.004-.008-.008-.016-.008-.026v-.675c0-.01.004-.021.008-.029.026-.047.092-.11.124-.126.006-.005.016-.007.026-.007h.298c.01 0 .02.002.026.007.032.016.1.079.126.126.004.008.006.02.006.029v.675zm.116.002v-.681c0-.034-.008-.07-.026-.098-.022-.034-.1-.118-.136-.14-.028-.018-.072-.031-.104-.031h-.316c-.032 0-.074.014-.102.031-.036.021-.116.105-.138.14-.018.027-.024.063-.024.098v.681c0 .034.006.07.024.099.022.034.102.116.138.138.028.019.07.032.102.032h.316c.032 0 .076-.014.104-.032.036-.021.114-.104.136-.138.018-.029.026-.065.026-.099m-1.088.031l-.116-.032c-.028.056-.092.13-.134.151-.006.004-.018.006-.028.006h-.25c-.01 0-.02-.002-.026-.006-.032-.016-.1-.08-.126-.127-.004-.008-.006-.016-.006-.026v-.677c0-.01.002-.02.006-.027.026-.047.094-.111.126-.128.006-.004.016-.006.026-.006h.25c.01 0 .022.002.028.006.042.022.11.098.134.153l.116-.034c-.012-.027-.032-.059-.046-.079-.028-.037-.082-.1-.124-.125-.028-.018-.07-.031-.102-.031h-.266c-.032 0-.074.014-.102.031-.036.021-.114.105-.136.14-.018.028-.026.063-.026.097v.686c0 .033.008.068.026.097.022.034.1.116.136.138.028.019.072.032.104.032h.264c.032 0 .074-.014.102-.032.042-.025.096-.088.124-.126.014-.021.034-.052.046-.081m-1.096.071h-.156v.156h.156v-.156zm-.452.157v-1.201h-.112v1.035l-.518-1.035h-.154v1.201h.112V83.74l.522 1.024h.15zm-.994-1.201h-.122l-.334 1.077h-.028l-.336-1.077h-.122l.382 1.201h.18l.38-1.201zm-1.244.951c0 .012-.002.023-.006.031-.018.034-.062.08-.094.099-.01.006-.022.008-.034.008h-.422v-.439h.424c.012 0 .024.003.032.007.032.018.076.063.094.098.004.008.006.02.006.032v.164zm0-.552c0 .013-.002.026-.006.034-.018.035-.062.081-.094.1-.008.004-.02.008-.032.008h-.424v-.429h.422c.012 0 .024.002.034.008.032.018.076.065.094.1.004.008.006.021.006.032v.147zm.116.556v-.171c0-.038-.008-.076-.028-.106-.012-.018-.05-.058-.078-.084.028-.026.066-.064.078-.083.02-.03.028-.069.028-.106v-.154c0-.038-.008-.076-.028-.106-.014-.021-.074-.084-.1-.104-.032-.023-.078-.039-.12-.039h-.54v1.2h.54c.042 0 .088-.015.12-.038.026-.021.086-.084.1-.106.02-.031.028-.065.028-.103m-1.426-.955h-.126l-.634 1.201h.128l.632-1.201zm-2.046.81l.228-.696h.026l.23.696h-.484zm.61.391h.124l-.402-1.2h-.18l-.402 1.2h.122l.092-.279h.556l.09.279zM45 83.563h-.116v1.2H45v-1.2zm-.35 1.201v-.112h-.56v-1.089h-.116v1.201h.676zm-1.604-.391l.228-.696h.026l.23.696h-.484zm.61.391h.124l-.402-1.2h-.18l-.402 1.2h.122l.092-.279h.556l.09.279zm-1.184-.781c0 .012 0 .026-.004.034-.018.034-.066.078-.098.096-.01.006-.022.008-.034.008h-.422v-.446h.422c.012 0 .024 0 .034.006.032.018.08.065.098.1.004.008.004.022.004.034v.168zm.116.004v-.177c0-.038-.01-.074-.03-.104-.014-.021-.076-.086-.102-.105-.032-.023-.076-.037-.118-.037h-.54v1.2h.116v-.531h.3l.296.531h.132l-.298-.531c.04 0 .08-.014.112-.038.026-.02.088-.081.102-.103.02-.03.03-.067.03-.105m-1.012-.312v-.111h-.8v.111h.342v1.089h.116v-1.089h.342zm-.985.83v-.136c0-.084-.05-.164-.128-.186l-.547-.153c-.036-.01-.062-.05-.062-.09v-.126c0-.01.004-.019.008-.026.026-.046.092-.1.124-.115.006-.005.016-.007.026-.007h.283c.009 0 .02.002.026.007.034.018.096.077.122.126 0 0 .006.008.014.025l.116-.034c-.012-.027-.032-.058-.046-.078-.028-.037-.082-.1-.124-.125-.028-.018-.07-.031-.103-.031h-.298c-.032 0-.074.014-.102.031-.036.021-.116.105-.138.14-.018.027-.024.063-.024.098v.124c0 .084.046.167.124.189l.549.149c.038.011.064.055.064.095v.128c0 .01-.002.018-.006.025-.026.046-.094.104-.126.12-.006.004-.014.006-.024.006H40c-.01 0-.022-.002-.028-.006-.034-.018-.094-.078-.122-.126 0 0-.006-.006-.014-.024l-.114.032c.012.028.03.059.044.078.028.038.082.101.124.126.028.019.072.032.104.032h.333c.032 0 .074-.014.102-.032.036-.021.116-.104.138-.138.018-.028.024-.064.024-.098m-1.127.003v-.945h-.116v.94c0 .011-.004.019-.008.026-.026.046-.09.11-.122.126-.006.004-.016.006-.026.006h-.248c-.01 0-.02-.002-.026-.006-.032-.016-.1-.08-.126-.126-.004-.008-.008-.016-.008-.026v-.94h-.116v.945c0 .033.008.067.026.096.022.034.1.116.136.138.028.019.072.032.104.032h.268c.032 0 .074-.014.102-.032.036-.021.114-.104.136-.138.018-.029.024-.063.024-.096m-1.724-.135l.228-.696h.026l.23.696h-.484zm.61.391h.124l-.402-1.2h-.18l-.402 1.2h.122l.092-.279h.556l.09.279zm-1.606-.243c0 .012-.002.024-.006.033-.018.033-.063.08-.095.098-.01.006-.022.008-.034.008h-.246c-.012 0-.024-.002-.034-.008-.032-.018-.078-.064-.096-.098-.004-.009-.004-.021-.004-.033v-.715c0-.013 0-.026.004-.034.018-.034.064-.081.096-.099.01-.007.022-.009.034-.009h.246c.012 0 .024.002.034.009.032.018.077.064.095.099.004.008.006.021.006.034v.715zm.117.003v-.723c0-.038-.01-.075-.03-.105-.014-.021-.075-.086-.101-.104-.032-.024-.077-.038-.119-.038h-.25c-.042 0-.086.014-.118.038-.026.019-.086.083-.1.104-.02.03-.03.067-.03.105v.723c0 .039.01.073.03.103.014.022.074.086.1.106.032.024.076.038.118.038h.25c.042 0 .087-.014.119-.038.026-.021.087-.084.101-.106.02-.029.03-.064.03-.103m-1.125-.003c0 .012-.002.024-.006.033-.018.033-.063.08-.095.098-.01.006-.022.008-.034.008h-.246c-.012 0-.024-.002-.034-.008-.032-.018-.078-.064-.096-.098-.004-.009-.004-.021-.004-.033v-.715c0-.013 0-.026.004-.034.018-.034.064-.081.096-.099.01-.007.022-.009.034-.009h.246c.012 0 .024.002.034.009.032.018.077.064.095.099.004.008.006.021.006.034v.715zm.117.003v-.723c0-.038-.01-.075-.03-.105-.014-.021-.075-.086-.101-.104-.032-.024-.077-.038-.119-.038h-.25c-.042 0-.086.014-.118.038-.026.019-.086.083-.1.104-.02.03-.03.067-.03.105v.723c0 .039.01.073.03.103.014.022.074.086.1.106.032.024.076.038.118.038h.25c.042 0 .087-.014.119-.038.026-.021.087-.084.101-.106.02-.029.03-.064.03-.103m-1.125-.003c0 .012-.002.024-.006.033-.018.033-.063.08-.095.098-.01.006-.022.008-.034.008h-.246c-.012 0-.024-.002-.034-.008-.032-.018-.078-.064-.096-.098-.004-.009-.004-.021-.004-.033v-.715c0-.013 0-.026.004-.034.018-.034.064-.081.096-.099.01-.007.022-.009.034-.009h.246c.012 0 .024.002.034.009.032.018.077.064.095.099.004.008.006.021.006.034v.715zm.117.003v-.723c0-.038-.01-.075-.03-.105-.014-.021-.075-.086-.101-.104-.031-.024-.077-.038-.119-.038h-.25c-.042 0-.086.014-.118.038-.026.019-.086.083-.1.104-.02.03-.03.067-.03.105v.723c0 .039.01.073.03.103.014.022.074.086.1.106.032.024.076.038.118.038h.25c.042 0 .088-.014.119-.038.026-.021.087-.084.101-.106.02-.029.03-.064.03-.103m-1.01-.583v-.14c0-.038-.01-.075-.03-.105-.014-.021-.074-.086-.1-.104-.032-.024-.078-.038-.12-.038h-.226c-.032 0-.076.014-.104.031-.042.025-.096.088-.124.125-.014.021-.032.052-.044.079l.114.034c.024-.056.092-.131.134-.153.006-.004.02-.006.03-.006h.218c.012 0 .024.002.034.009.032.018.078.064.096.099.004.008.006.021.006.034v.13c0 .04-.026.074-.06.092l-.42.225c-.078.042-.128.103-.128.187v.325h.708v-.112h-.592v-.203c0-.04.028-.074.064-.094l.418-.226c.07-.038.126-.105.126-.189m-1.348-.378h-.126l-.306.571-.302-.571h-.128l.372.688v.513h.116v-.513l.374-.688zm-1.053 1.201v-.112h-.572v-.432h.542v-.112h-.542v-.432h.572v-.112h-.688v1.2h.688zm-1.002 0v-1.201h-.111v1.035l-.519-1.035h-.153v1.201h.111V83.74l.523 1.024h.149zm-1.199-.93v.659c0 .01-.002.019-.006.026-.026.046-.092.109-.124.126-.006.004-.016.006-.026.006h-.403v-.977h.403c.01 0 .02.002.026.006.032.016.098.078.124.124.004.009.006.02.006.03m.116.663v-.667c0-.034-.006-.067-.024-.096-.022-.034-.1-.12-.136-.141-.028-.019-.07-.03-.102-.03h-.529v1.2h.529c.032 0 .074-.015.102-.032.036-.022.114-.104.136-.138.018-.028.024-.062.024-.096m-.954-.934h-.126l-.306.571-.302-.571h-.128l.372.688v.513h.116v-.513l.374-.688zm-1.012.942v-.136c0-.084-.05-.164-.128-.186l-.546-.153c-.037-.01-.063-.05-.063-.09v-.126c0-.01.004-.019.008-.026.026-.046.093-.1.125-.115.006-.005.016-.007.026-.007h.282c.01 0 .02.002.026.007.034.018.096.077.122.126 0 0 .006.008.014.025l.116-.034c-.012-.027-.032-.058-.046-.078-.028-.037-.082-.1-.124-.125-.028-.018-.07-.031-.102-.031h-.298c-.032 0-.074.014-.103.031-.036.021-.116.105-.138.14-.018.027-.024.063-.024.098v.124c0 .084.046.167.124.189l.549.149c.038.011.064.055.064.095v.128c0 .01-.002.018-.006.025-.026.046-.094.104-.126.12-.006.004-.014.006-.024.006h-.318c-.01 0-.022-.002-.028-.006-.034-.018-.095-.078-.123-.126 0 0-.006-.006-.014-.024l-.114.032c.012.028.03.059.044.078.028.038.082.101.124.126.029.019.073.032.105.032h.332c.032 0 .074-.014.102-.032.036-.021.116-.104.138-.138.018-.028.024-.064.024-.098m-1.466-.942h-.126l-.634 1.201h.128l.632-1.201zm-1.34.112v-.111h-.8v.111h.342v1.089h.116v-1.089h.342zm-1.027 1.089v-.112h-.572v-.432h.542v-.112h-.542v-.432h.572v-.112h-.688v1.2h.688zm-.995 0v-.112h-.572v-.432h.542v-.112h-.542v-.432h.572v-.112h-.689v1.2h.689zm-1.116-.781c0 .012 0 .026-.004.034-.018.034-.066.078-.098.096-.01.006-.022.008-.034.008h-.422v-.446h.422c.012 0 .024 0 .034.006.032.018.08.065.098.1.004.008.004.022.004.034v.168zm.116.004v-.177c0-.038-.01-.074-.03-.104-.014-.021-.076-.086-.102-.105-.032-.023-.076-.037-.118-.037h-.541v1.2h.117v-.531h.3l.296.531h.132l-.298-.531c.04 0 .08-.014.112-.038.026-.02.088-.081.102-.103.02-.03.03-.067.03-.105m-1.012-.312v-.111h-.8v.111h.342v1.089h.116v-1.089h.342zm-.986.83v-.136c0-.084-.05-.164-.128-.186l-.546-.153c-.036-.01-.062-.05-.062-.09v-.126c0-.01.004-.019.008-.026.026-.046.092-.1.124-.115.006-.005.016-.007.026-.007h.282c.01 0 .02.002.026.007.034.018.096.077.122.126 0 0 .006.008.014.025l.116-.034c-.012-.027-.032-.058-.046-.078-.028-.037-.082-.1-.124-.125-.028-.018-.07-.031-.102-.031h-.298c-.032 0-.074.014-.102.031-.036.021-.116.105-.138.14-.018.027-.024.063-.024.098v.124c0 .084.046.167.124.189l.548.149c.038.011.064.055.064.095v.128c0 .01-.002.018-.006.025-.026.046-.094.104-.126.12-.006.004-.014.006-.024.006h-.318c-.01 0-.022-.002-.028-.006-.034-.018-.094-.078-.122-.126 0 0-.006-.006-.014-.024l-.114.032c.012.028.03.059.044.078.028.038.082.101.124.126.028.019.072.032.104.032h.332c.032 0 .074-.014.102-.032.036-.021.116-.104.138-.138.018-.028.024-.064.024-.098m-1.506-.83v-.111h-.8v.111h.342v1.089h.116v-1.089h.342zm-.94 0v-.111h-.8v.111h.342v1.089h.116v-1.089h.342zm-1.034-.112h-.116v1.2h.116v-1.2zm-.486.42c0 .012 0 .026-.004.034-.018.034-.066.078-.098.096-.01.006-.022.008-.034.008h-.422v-.446h.422c.012 0 .024 0 .034.006.032.018.08.065.098.1.004.008.004.022.004.034v.168zm.116.004v-.177c0-.038-.01-.074-.03-.104-.014-.021-.076-.086-.102-.105-.032-.023-.076-.037-.118-.037h-.54v1.2h.116v-.531h.424c.042 0 .086-.014.118-.038.026-.02.088-.081.102-.103.02-.03.03-.067.03-.105m-1.518.538v-.234c0-.038-.01-.073-.03-.104-.014-.022-.074-.082-.1-.103-.032-.023-.078-.04-.12-.04h-.33v-.37h.518v-.111h-.634v.594h.444c.012 0 .026.002.036.008.032.019.076.063.094.097.004.008.006.021.006.033v.229c0 .012-.002.024-.006.032-.018.034-.062.08-.094.098-.01.006-.024.008-.036.008h-.224c-.01 0-.024-.002-.03-.006-.042-.021-.106-.096-.134-.15l-.116.032c.012.028.032.061.046.08.028.038.082.099.124.124.028.019.072.032.104.032h.232c.042 0 .088-.014.12-.038.026-.02.086-.084.1-.106.02-.03.03-.067.03-.105m-1.008 0v-.234c0-.038-.01-.073-.03-.104-.014-.022-.074-.082-.1-.103-.032-.023-.078-.04-.12-.04h-.33v-.37h.518v-.111h-.634v.594h.444c.012 0 .026.002.036.008.032.019.076.063.094.097.004.008.006.021.006.033v.229c0 .012-.002.024-.006.032-.018.034-.062.08-.094.098-.01.006-.024.008-.036.008h-.224c-.01 0-.024-.002-.03-.006-.042-.021-.106-.096-.134-.15l-.116.032c.012.028.032.061.046.08.028.038.082.099.124.124.028.019.072.032.104.032h.232c.042 0 .088-.014.12-.038.026-.02.086-.084.1-.106.02-.03.03-.067.03-.105m-1.016-.584v-.14c0-.038-.01-.075-.03-.105-.014-.021-.074-.086-.1-.104-.032-.024-.078-.038-.12-.038h-.226c-.032 0-.076.014-.104.031-.042.025-.096.088-.124.125-.014.021-.032.052-.044.079l.114.034c.024-.056.092-.131.134-.153.006-.004.02-.006.03-.006h.218c.012 0 .024.002.034.009.032.018.078.064.096.099.004.008.006.021.006.034v.13c0 .04-.026.074-.06.092l-.42.225c-.078.042-.128.103-.128.187v.325h.708v-.112h-.592v-.203c0-.04.028-.074.064-.094l.418-.226c.07-.038.126-.105.126-.189"/>
  <path clip-path="url(#b)" fill="#FFF" d="M107.967 77.494h104.882v74.409H107.967z"/>
  <path clip-path="url(#b)" fill="none" stroke="#010202" stroke-width=".25" d="M107.967 77.494h104.882v74.409H107.967z"/>
  <path clip-path="url(#b)" fill="#010202" d="M124.573 88.619v4.336h-1.114l1.114-4.336zm-4.285 4.336c.138-.271.216-.58.216-.905 0-.573-.243-1.092-.63-1.46.387-.368.63-.887.63-1.462 0-.002-.001-.003-.001-.005l.99 3.832h-1.205zm-2.705 0v-1.81h.904c.499.002.903.407.903.904 0 .498-.404.904-.901.905h-.906zm.904-4.731c.499.002.903.407.903.904 0 .498-.404.904-.901.905h-.906v-1.81h.904zm5.04 0l-1.053 4.09-1.056-4.09h2.109zm4.157 4.731h-1.999v-3.298l1.999 3.298zm.431-1.434l-1.999-3.298h1.999v3.298zm-11.644 2.546h12.756v-6.956h-12.756v6.956zM162.774 84.508v-.945h-.116v.94c0 .011-.004.019-.008.026-.026.046-.091.11-.122.126-.006.004-.017.006-.026.006h-.248c-.01 0-.02-.002-.026-.006-.031-.016-.1-.08-.126-.126-.004-.008-.008-.016-.008-.026v-.94h-.116v.945c0 .033.009.067.026.096.022.034.1.116.136.138.028.019.072.032.104.032h.268c.032 0 .074-.014.103-.032.036-.021.113-.104.136-.138.017-.029.023-.063.023-.096m-1.724-.135l.229-.696h.025l.23.696h-.484zm.61.391h.124l-.402-1.2h-.18l-.402 1.2h.122l.092-.279h.557l.089.279zm-1.1-.157h-.155v.156h.155v-.156zm-.452.157v-1.201h-.164l-.328.703-.326-.703h-.166v1.201h.112v-1.076l.34.754h.078l.342-.754v1.076h.112zm-1.4-.261c0 .011-.002.019-.006.026-.026.046-.094.11-.126.126-.006.004-.017.006-.026.006h-.298c-.01 0-.02-.002-.026-.006-.031-.016-.098-.08-.124-.126-.004-.008-.008-.016-.008-.026v-.675c0-.01.004-.021.008-.029.026-.047.093-.11.124-.126.007-.005.017-.007.026-.007h.298c.01 0 .021.002.026.007.032.016.1.079.126.126.004.008.006.02.006.029v.675zm.116.002v-.681c0-.034-.008-.07-.026-.098-.021-.034-.1-.118-.136-.14-.028-.018-.072-.031-.104-.031h-.315c-.032 0-.074.014-.103.031-.036.021-.115.105-.138.14-.018.027-.024.063-.024.098v.681c0 .034.007.07.024.099.022.034.102.116.138.138.028.019.07.032.103.032h.315c.032 0 .076-.014.104-.032.036-.021.114-.104.136-.138.018-.029.026-.065.026-.099m-1.088.031l-.116-.032c-.028.056-.092.13-.134.151-.006.004-.019.006-.028.006h-.25c-.01 0-.021-.002-.026-.006-.031-.016-.1-.08-.126-.127-.004-.008-.006-.016-.006-.026v-.677c0-.01.002-.02.006-.027.026-.047.095-.111.126-.128.006-.004.017-.006.026-.006h.25c.01 0 .022.002.028.006.042.022.109.098.134.153l.116-.034c-.013-.027-.032-.059-.046-.079-.028-.037-.082-.1-.124-.125-.028-.018-.07-.031-.103-.031h-.266c-.032 0-.074.014-.103.031-.036.021-.113.105-.136.14-.018.028-.026.063-.026.097v.686c0 .033.009.068.026.097.022.034.1.116.136.138.028.019.072.032.104.032h.264c.032 0 .074-.014.103-.032.042-.025.096-.088.124-.126.015-.021.035-.052.047-.081m-1.096.071h-.155v.156h.155v-.156zm-.452.157v-1.201h-.111v1.035l-.519-1.035h-.153v1.201h.111V83.74l.522 1.024h.15zm-.994-1.201h-.122l-.334 1.077h-.028l-.336-1.077h-.122l.382 1.201h.181l.379-1.201zm-1.244.951c0 .012-.002.023-.006.031-.019.034-.063.08-.095.099-.01.006-.021.008-.033.008h-.423v-.439h.425c.012 0 .023.003.031.007.032.018.076.063.095.098.004.008.006.02.006.032v.164zm0-.552c0 .013-.002.026-.006.034-.019.035-.063.081-.095.1-.008.004-.02.008-.031.008h-.425v-.429h.423c.012 0 .023.002.033.008.032.018.076.065.095.1.004.008.006.021.006.032v.147zm.116.556v-.171c0-.038-.009-.076-.028-.106-.012-.018-.05-.058-.078-.084.028-.026.066-.064.078-.083.02-.03.028-.069.028-.106v-.154c0-.038-.009-.076-.028-.106-.014-.021-.074-.084-.101-.104-.031-.023-.077-.039-.119-.039h-.54v1.2h.54c.042 0 .088-.015.119-.038.026-.021.087-.084.101-.106.02-.031.028-.065.028-.103m-1.426-.955h-.126l-.634 1.201h.128l.632-1.201zm-2.046.81l.229-.696h.025l.23.696h-.484zm.61.391h.124l-.402-1.2h-.18l-.402 1.2h.122l.092-.279h.557l.089.279zm-1.072-1.201h-.116v1.2h.116v-1.2zm-.35 1.201v-.112h-.561v-1.089h-.115v1.201h.676zm-1.604-.391l.229-.696h.025l.23.696h-.484zm.61.391h.124l-.402-1.2h-.18l-.402 1.2h.122l.092-.279h.557l.089.279zm-1.184-.781c0 .012 0 .026-.004.034-.018.034-.065.078-.098.096-.01.006-.021.008-.034.008h-.422v-.446h.422c.013 0 .024 0 .034.006.032.018.08.065.098.1.004.008.004.022.004.034v.168zm.116.004v-.177c0-.038-.01-.074-.029-.104-.015-.021-.076-.086-.103-.105-.032-.023-.076-.037-.118-.037h-.54v1.2h.116v-.531h.3l.296.531h.133l-.299-.531c.04 0 .08-.014.112-.038.026-.02.088-.081.103-.103.019-.03.029-.067.029-.105m-1.012-.312v-.111h-.8v.111h.342v1.089h.116v-1.089h.342zm-.985.83v-.136c0-.084-.05-.164-.128-.186l-.547-.153c-.036-.01-.062-.05-.062-.09v-.126c0-.01.004-.019.008-.026.025-.046.092-.1.124-.115.006-.005.016-.007.025-.007h.282c.01 0 .021.002.026.007.035.018.097.077.123.126 0 0 .006.008.014.025l.116-.034c-.012-.027-.032-.058-.046-.078-.028-.037-.082-.1-.124-.125-.028-.018-.07-.031-.104-.031h-.298c-.032 0-.074.014-.102.031-.036.021-.116.105-.139.14-.018.027-.023.063-.023.098v.124c0 .084.046.167.124.189l.549.149c.038.011.064.055.064.095v.128c0 .01-.002.018-.007.025-.025.046-.094.104-.127.12-.005.004-.014.006-.022.006h-.319c-.01 0-.021-.002-.028-.006-.033-.018-.094-.078-.121-.126 0 0-.007-.006-.015-.024l-.114.032c.013.028.03.059.045.078.027.038.082.101.124.126.027.019.071.032.104.032h.332c.033 0 .075-.014.103-.032.036-.021.116-.104.139-.138.018-.028.024-.064.024-.098m-1.127.003v-.945h-.115v.94c0 .011-.005.019-.009.026-.025.046-.09.11-.122.126-.006.004-.016.006-.025.006h-.248c-.01 0-.021-.002-.026-.006-.032-.016-.1-.08-.126-.126-.004-.008-.008-.016-.008-.026v-.94h-.117v.945c0 .033.008.067.026.096.021.034.1.116.136.138.028.019.072.032.104.032h.268c.032 0 .074-.014.102-.032.036-.021.114-.104.137-.138.017-.029.023-.063.023-.096m-1.724-.135l.228-.696h.026l.23.696h-.484zm.61.391h.124l-.402-1.2h-.18l-.402 1.2h.122l.092-.279h.556l.09.279zm-1.606-.243c0 .012-.002.024-.006.033-.019.033-.064.08-.095.098-.012.006-.022.008-.034.008h-.246c-.012 0-.024-.002-.034-.008-.032-.018-.078-.064-.096-.098-.004-.009-.004-.021-.004-.033v-.715c0-.013 0-.026.004-.034.018-.034.063-.081.096-.099.01-.007.022-.009.034-.009h.246c.012 0 .022.002.034.009.03.018.076.064.095.099.004.008.006.021.006.034v.715zm.117.003v-.723c0-.038-.01-.075-.031-.105-.014-.021-.074-.086-.1-.104-.032-.024-.078-.038-.119-.038h-.25c-.042 0-.086.014-.118.038-.026.019-.086.083-.1.104-.021.03-.03.067-.03.105v.723c0 .039.01.073.03.103.014.022.073.086.1.106.032.024.076.038.118.038h.25c.041 0 .087-.014.119-.038.025-.021.086-.084.1-.106.021-.029.031-.064.031-.103m-1.125-.003c0 .012-.002.024-.006.033-.019.033-.064.08-.096.098-.01.006-.021.008-.033.008h-.246c-.013 0-.024-.002-.034-.008-.032-.018-.078-.064-.096-.098-.005-.009-.005-.021-.005-.033v-.715c0-.013 0-.026.005-.034.018-.034.063-.081.096-.099.01-.007.021-.009.034-.009h.246c.012 0 .023.002.033.009.031.018.077.064.096.099.004.008.006.021.006.034v.715zm.117.003v-.723c0-.038-.011-.075-.03-.105-.015-.021-.075-.086-.102-.104-.031-.024-.077-.038-.118-.038h-.25c-.042 0-.086.014-.118.038-.026.019-.086.083-.101.104-.02.03-.029.067-.029.105v.723c0 .039.01.073.029.103.015.022.074.086.101.106.032.024.076.038.118.038h.25c.041 0 .087-.014.118-.038.026-.021.087-.084.102-.106.02-.029.03-.064.03-.103m-1.125-.003c0 .012-.002.024-.007.033-.018.033-.063.08-.095.098-.01.006-.021.008-.034.008h-.246c-.012 0-.023-.002-.033-.008-.032-.018-.078-.064-.097-.098-.004-.009-.004-.021-.004-.033v-.715c0-.013 0-.026.004-.034.019-.034.064-.081.097-.099.01-.007.021-.009.033-.009h.246c.013 0 .024.002.034.009.031.018.077.064.095.099.005.008.007.021.007.034v.715zm.117.003v-.723c0-.038-.01-.075-.029-.105-.016-.021-.075-.086-.102-.104-.031-.024-.078-.038-.119-.038h-.25c-.042 0-.086.014-.117.038-.026.019-.086.083-.101.104-.02.03-.03.067-.03.105v.723c0 .039.011.073.03.103.015.022.074.086.101.106.031.024.075.038.117.038h.25c.041 0 .088-.014.119-.038.026-.021.086-.084.102-.106.019-.029.029-.064.029-.103m-1.01-.583v-.14c0-.038-.01-.075-.03-.105-.014-.021-.073-.086-.1-.104-.032-.024-.078-.038-.12-.038h-.226c-.032 0-.076.014-.104.031-.042.025-.096.088-.124.125-.014.021-.031.052-.044.079l.114.034c.024-.056.092-.131.134-.153.006-.004.021-.006.03-.006h.218c.012 0 .024.002.034.009.032.018.078.064.096.099.004.008.006.021.006.034v.13c0 .04-.025.074-.06.092l-.42.225c-.078.042-.128.103-.128.187v.325h.708v-.112h-.592v-.203c0-.04.027-.074.063-.094l.418-.226c.071-.038.127-.105.127-.189m-1.348-.378h-.126l-.307.571-.302-.571h-.128l.372.688v.513h.116v-.513l.375-.688zm-1.053 1.201v-.112h-.572v-.432h.542v-.112h-.542v-.432h.572v-.112h-.688v1.2h.688zm-1.002 0v-1.201h-.111v1.035l-.52-1.035h-.152v1.201h.11V83.74l.523 1.024h.15zm-1.199-.93v.659c0 .01-.002.019-.006.026-.026.046-.093.109-.124.126-.007.004-.017.006-.026.006h-.403v-.977h.403c.01 0 .02.002.026.006.031.016.098.078.124.124.004.009.006.02.006.03m.116.663v-.667c0-.034-.007-.067-.024-.096-.022-.034-.1-.12-.136-.141-.028-.019-.07-.03-.103-.03h-.528v1.2h.528c.032 0 .074-.015.103-.032.036-.022.113-.104.136-.138.018-.028.024-.062.024-.096m-.954-.934h-.126l-.307.571-.302-.571h-.128l.372.688v.513h.116v-.513l.375-.688zm-1.012.942v-.136c0-.084-.05-.164-.128-.186l-.547-.153c-.036-.01-.062-.05-.062-.09v-.126c0-.01.004-.019.008-.026.025-.046.093-.1.125-.115.006-.005.016-.007.025-.007h.282c.01 0 .021.002.026.007.034.018.096.077.122.126 0 0 .006.008.014.025l.116-.034c-.012-.027-.032-.058-.046-.078-.028-.037-.082-.1-.124-.125-.028-.018-.07-.031-.103-.031h-.298c-.032 0-.075.014-.103.031-.036.021-.116.105-.139.14-.018.027-.023.063-.023.098v.124c0 .084.046.167.124.189l.549.149c.038.011.064.055.064.095v.128c0 .01-.002.018-.007.025-.025.046-.094.104-.126.12-.006.004-.014.006-.023.006h-.318c-.01 0-.021-.002-.027-.006-.035-.018-.096-.078-.123-.126 0 0-.007-.006-.015-.024l-.113.032c.012.028.029.059.044.078.027.038.082.101.124.126.028.019.072.032.104.032h.332c.032 0 .074-.014.102-.032.036-.021.116-.104.139-.138.019-.028.025-.064.025-.098m-1.466-.942h-.126l-.634 1.201h.128l.632-1.201zm-1.34.112v-.111h-.8v.111h.342v1.089h.116v-1.089h.342zm-1.027 1.089v-.112h-.571v-.432h.542v-.112h-.542v-.432h.571v-.112h-.688v1.2h.688zm-.996 0v-.112h-.57v-.432h.541v-.112h-.541v-.432h.57v-.112h-.688v1.2h.688zm-1.115-.781c0 .012 0 .026-.004.034-.019.034-.066.078-.099.096-.01.006-.021.008-.034.008h-.422v-.446h.422c.013 0 .024 0 .034.006.032.018.08.065.099.1.004.008.004.022.004.034v.168zm.116.004v-.177c0-.038-.01-.074-.029-.104-.015-.021-.076-.086-.103-.105-.031-.023-.076-.037-.118-.037h-.54v1.2h.116v-.531h.301l.296.531h.132l-.298-.531c.04 0 .08-.014.111-.038.026-.02.088-.081.103-.103.019-.03.029-.067.029-.105m-1.012-.312v-.111h-.8v.111h.342v1.089h.116v-1.089h.342zm-.986.83v-.136c0-.084-.051-.164-.129-.186l-.546-.153c-.036-.01-.062-.05-.062-.09v-.126c0-.01.004-.019.008-.026.026-.046.092-.1.124-.115.006-.005.016-.007.026-.007h.281c.011 0 .021.002.026.007.034.018.096.077.122.126 0 0 .006.008.014.025l.116-.034c-.012-.027-.032-.058-.046-.078-.028-.037-.082-.1-.124-.125-.028-.018-.07-.031-.102-.031h-.299c-.031 0-.073.014-.102.031-.036.021-.116.105-.138.14-.019.027-.024.063-.024.098v.124c0 .084.046.167.124.189l.548.149c.038.011.064.055.064.095v.128c0 .01-.002.018-.006.025-.026.046-.095.104-.126.12-.007.004-.015.006-.024.006h-.318c-.01 0-.021-.002-.027-.006-.034-.018-.095-.078-.122-.126 0 0-.006-.006-.015-.024l-.113.032c.012.028.029.059.044.078.027.038.082.101.124.126.027.019.071.032.104.032h.332c.032 0 .074-.014.103-.032.036-.021.115-.104.138-.138.019-.028.025-.064.025-.098m-1.506-.83v-.111h-.8v.111h.342v1.089h.116v-1.089h.342zm-.94 0v-.111h-.8v.111h.342v1.089h.116v-1.089h.342zm-1.034-.112h-.116v1.2h.116v-1.2zm-.486.42c0 .012 0 .026-.004.034-.018.034-.065.078-.098.096-.01.006-.022.008-.034.008h-.422v-.446h.422c.012 0 .024 0 .034.006.032.018.08.065.098.1.004.008.004.022.004.034v.168zm.116.004v-.177c0-.038-.01-.074-.03-.104-.014-.021-.075-.086-.102-.105-.032-.023-.076-.037-.118-.037h-.54v1.2h.116v-.531h.424c.042 0 .086-.014.118-.038.026-.02.088-.081.102-.103.02-.03.03-.067.03-.105m-1.518.538v-.234c0-.038-.011-.073-.03-.104-.014-.022-.074-.082-.1-.103-.032-.023-.078-.04-.12-.04h-.33v-.37h.518v-.111h-.634v.594h.444c.012 0 .025.002.036.008.031.019.075.063.094.097.004.008.006.021.006.033v.229c0 .012-.002.024-.006.032-.019.034-.063.08-.094.098-.011.006-.024.008-.036.008h-.225c-.01 0-.023-.002-.029-.006-.042-.021-.106-.096-.135-.15l-.115.032c.012.028.031.061.046.08.027.038.082.099.124.124.027.019.071.032.104.032h.232c.042 0 .088-.014.12-.038.025-.02.086-.084.1-.106.02-.03.03-.067.03-.105m-1.008 0v-.234c0-.038-.011-.073-.03-.104-.015-.022-.074-.082-.101-.103-.031-.023-.077-.04-.119-.04h-.33v-.37h.518v-.111h-.634v.594h.443c.013 0 .026.002.036.008.032.019.076.063.095.097.004.008.006.021.006.033v.229c0 .012-.002.024-.006.032-.019.034-.063.08-.095.098-.01.006-.023.008-.036.008h-.224c-.01 0-.023-.002-.03-.006-.042-.021-.105-.096-.134-.15l-.116.032c.013.028.032.061.046.08.028.038.082.099.124.124.028.019.072.032.104.032h.232c.042 0 .088-.014.119-.038.026-.02.086-.084.101-.106.021-.03.031-.067.031-.105m-1.016-.584v-.14c0-.038-.01-.075-.03-.105-.014-.021-.073-.086-.1-.104-.032-.024-.078-.038-.12-.038h-.226c-.032 0-.076.014-.104.031-.042.025-.096.088-.124.125-.014.021-.032.052-.044.079l.114.034c.023-.056.092-.131.134-.153.006-.004.021-.006.03-.006h.218c.012 0 .024.002.034.009.032.018.078.064.096.099.004.008.006.021.006.034v.13c0 .04-.025.074-.06.092l-.42.225c-.078.042-.128.103-.128.187v.325h.708v-.112h-.592v-.203c0-.04.027-.074.063-.094l.418-.226c.071-.038.127-.105.127-.189"/>
</svg>
