<?xml version="1.0" encoding="utf-8"?>
<!-- Generator: Adobe Illustrator 18.1.1, SVG Export Plug-In . SVG Version: 6.00 Build 0)  -->
<svg version="1.1" id="Layer_1" xmlns="http://www.w3.org/2000/svg" xmlns:xlink="http://www.w3.org/1999/xlink" x="0px" y="0px"
	 viewBox="0 0 551.3 137.8" enable-background="new 0 0 551.3 137.8" xml:space="preserve">
<rect y="65.5" fill="#ffffff" width="243" height="72.3"/>
<line fill="none" stroke="#231f20" stroke-width="0.291" stroke-linejoin="bevel" stroke-miterlimit="1.414" x1="32.1" y1="68.8" x2="238.5" y2="68.8"/>
<line fill="none" stroke="#231f20" stroke-width="0.291" stroke-linejoin="bevel" stroke-miterlimit="1.414" x1="187" y1="120.4" x2="187" y2="68.8"/>
<line fill="none" stroke="#231f20" stroke-width="0.291" stroke-linejoin="bevel" stroke-miterlimit="1.414" x1="32.1" y1="120.4" x2="238.5" y2="120.4"/>
<g>
	<path fill-rule="evenodd" clip-rule="evenodd" fill="#231f20" d="M35.3,109.6l1.2-4c0.2-1,0.5-1.8,0.6-2.7c0.2,0.7,0.5,1.7,0.8,2.8
		l1.1,3.9H35.3 M32.1,115.1h1.6l1.2-4.1h4.7l1.3,4.1h1.7L38,101.4h-1.6L32.1,115.1"/>
	<path fill-rule="evenodd" clip-rule="evenodd" fill="#231f20" d="M45.3,107.5v-4.6h3.6c0.7,0,1.3,0.2,1.8,0.6
		c0.4,0.5,0.6,1,0.6,1.7c0,0.5-0.1,0.9-0.4,1.2c-0.2,0.4-0.5,0.7-0.8,0.9c-0.4,0.1-1,0.2-1.6,0.2H45.3 M43.8,115.1h1.5v-6.1H47
		c0.5,0,1,0.1,1.2,0.2c0.2,0.1,0.6,0.4,0.8,0.7c0.2,0.4,0.7,1.2,1.3,2.3l1.5,2.8h1.9l-1.9-3.8c-0.4-0.6-0.7-1.2-1.2-1.7
		c-0.2-0.2-0.6-0.5-1-0.7c1.1-0.2,1.8-0.6,2.3-1.2c0.6-0.7,0.8-1.6,0.8-2.5c0-0.8-0.1-1.5-0.5-2.1c-0.2-0.6-0.7-1.1-1.2-1.3
		c-0.5-0.2-1.2-0.4-2.3-0.4h-5V115.1"/>
	<rect x="54.5" y="109.3" fill="#231f20" width="4.2" height="1.7"/>
	<path fill-rule="evenodd" clip-rule="evenodd" fill="#231f20" d="M61.9,113.6V103h2.3c1,0,1.6,0.1,1.9,0.4c0.6,0.2,1.1,0.7,1.5,1.6
		c0.4,0.7,0.6,1.8,0.6,3.3c0,1.3-0.2,2.4-0.6,3.3c-0.2,0.7-0.6,1.2-1.1,1.6c-0.5,0.4-1.2,0.5-2.2,0.5H61.9 M60.5,115.1h4
		c1.2,0,2.1-0.2,2.8-0.6c0.7-0.5,1.3-1.2,1.8-2.3c0.5-1.1,0.6-2.4,0.6-4c0-1.2-0.1-2.3-0.4-3.2c-0.2-0.9-0.6-1.6-1.1-2.2
		c-0.5-0.6-1.1-1-1.7-1.2c-0.5-0.1-1.2-0.2-2.2-0.2h-3.9V115.1"/>
	<rect x="71.2" y="109.3" fill="#231f20" width="4.2" height="1.7"/>
	<path fill-rule="evenodd" clip-rule="evenodd" fill="#231f20" d="M78,108.3c0-2.2,0.2-3.6,0.6-4.4c0.4-0.8,1-1.2,1.6-1.2
		c0.7,0,1.2,0.4,1.7,1.1c0.4,0.8,0.6,2.3,0.6,4.5c0,2.3-0.2,3.8-0.6,4.5c-0.5,0.8-1,1.2-1.6,1.2c-0.7,0-1.2-0.4-1.7-1.2
		C78.2,112.1,78,110.6,78,108.3 M76.5,108.3c0,2.7,0.4,4.5,1.1,5.5c0.6,1.1,1.5,1.6,2.6,1.6c1.2,0,2.2-0.6,2.8-1.7
		c0.6-1.2,1-3,1-5.3c0-2.5-0.4-4.4-1.2-5.6c-0.6-0.9-1.5-1.3-2.5-1.3c-1.2,0-2.1,0.5-2.7,1.7C76.9,104.3,76.5,106,76.5,108.3"/>
	<path fill-rule="evenodd" clip-rule="evenodd" fill="#231f20" d="M90.5,115.1v-13.7h-0.9c-0.2,0.5-0.7,1.2-1.2,1.8
		c-0.6,0.6-1.3,1.1-2.1,1.6v1.6c0.5-0.1,1-0.5,1.5-0.9c0.6-0.4,1-0.7,1.3-1.1v10.7H90.5"/>
	<rect x="93.9" y="109.3" fill="#231f20" width="4.2" height="1.7"/>
	<path fill-rule="evenodd" clip-rule="evenodd" fill="#231f20" d="M104.5,115.1v-13.7h-1c-0.2,0.5-0.6,1.2-1.2,1.8
		c-0.6,0.6-1.2,1.1-2.1,1.6v1.6c0.5-0.1,1-0.5,1.6-0.9c0.5-0.4,1-0.7,1.2-1.1v10.7H104.5"/>
	<path fill-rule="evenodd" clip-rule="evenodd" fill="#231f20" d="M109.5,108.3c0-2.2,0.1-3.6,0.6-4.4c0.4-0.8,1-1.2,1.6-1.2
		c0.6,0,1.2,0.4,1.7,1.1c0.4,0.8,0.6,2.3,0.6,4.5c0,2.3-0.2,3.8-0.6,4.5c-0.5,0.8-1,1.2-1.6,1.2c-0.7,0-1.2-0.4-1.7-1.2
		C109.6,112.1,109.5,110.6,109.5,108.3 M108.1,108.3c0,2.7,0.4,4.5,1,5.5c0.7,1.1,1.6,1.6,2.7,1.6c1.2,0,2.2-0.6,2.8-1.7
		c0.6-1.2,1-3,1-5.3c0-2.5-0.4-4.4-1.2-5.6c-0.6-0.9-1.5-1.3-2.5-1.3c-1.2,0-2.1,0.5-2.7,1.7C108.4,104.3,108.1,106,108.1,108.3"/>
	<path fill-rule="evenodd" clip-rule="evenodd" fill="#231f20" d="M196.2,115.1v-13.7h-0.9c-0.2,0.5-0.7,1.2-1.2,1.8
		c-0.6,0.6-1.3,1.1-2.1,1.6v1.6c0.5-0.1,1-0.5,1.5-0.9c0.6-0.4,1-0.7,1.3-1.1v10.7H196.2"/>
	<path fill-rule="evenodd" clip-rule="evenodd" fill="#231f20" d="M204.2,110.3h-3.5l3.5-6.2V110.3z M204.2,115.1h1.3v-3.3h1.6v-1.6
		h-1.6v-8.9h-1.1l-5.1,8.9v1.6h4.9V115.1"/>
	<path fill-rule="evenodd" clip-rule="evenodd" fill="#231f20" d="M33.4,79.9v-5.2h1.2c0.5,0,0.7,0,1,0.1c0.2,0.1,0.5,0.4,0.7,0.9
		c0.1,0.4,0.2,0.8,0.2,1.6c0,0.7,0,1.2-0.2,1.7c-0.1,0.4-0.4,0.6-0.6,0.7c-0.2,0.2-0.6,0.2-1.1,0.2H33.4 M32.7,80.8h2.1
		c0.6,0,1.1-0.1,1.3-0.4c0.4-0.2,0.7-0.6,1-1.1c0.2-0.6,0.4-1.2,0.4-2.1c0-0.6-0.1-1.1-0.2-1.6c-0.1-0.4-0.4-0.7-0.6-1.1
		c-0.2-0.2-0.5-0.5-0.8-0.6c-0.2,0-0.6-0.1-1.1-0.1h-1.9V80.8"/>
	<path fill-rule="evenodd" clip-rule="evenodd" fill="#231f20" d="M39.1,76.9v-2.3h1.8c0.4,0,0.7,0.1,0.8,0.4
		c0.2,0.2,0.4,0.5,0.4,0.9c0,0.2,0,0.4-0.1,0.6c-0.1,0.1-0.2,0.4-0.5,0.4c-0.1,0.1-0.5,0.1-0.7,0.1H39.1 M38.4,80.8h0.7v-3H40
		c0.2,0,0.5,0,0.6,0.1c0.1,0,0.2,0.1,0.5,0.4c0.1,0.1,0.4,0.6,0.6,1.1l0.7,1.5h1l-1-1.9c-0.1-0.2-0.4-0.6-0.6-0.9
		c-0.1-0.1-0.2-0.2-0.5-0.4c0.5-0.1,1-0.2,1.2-0.6c0.2-0.4,0.4-0.7,0.4-1.2c0-0.5,0-0.7-0.2-1.1c-0.1-0.2-0.4-0.5-0.6-0.6
		c-0.2-0.1-0.6-0.2-1.1-0.2h-2.5V80.8"/>
	<path fill-rule="evenodd" clip-rule="evenodd" fill="#231f20" d="M45.1,78l0.6-2.1c0.2-0.5,0.2-0.9,0.4-1.3
		c0.1,0.4,0.2,0.9,0.4,1.5L47,78H45.1 M43.5,80.8h0.7l0.6-2.1h2.4l0.6,2.1h0.8l-2.3-6.9h-0.7L43.5,80.8"/>
	<path fill-rule="evenodd" clip-rule="evenodd" fill="#231f20" d="M50.4,80.8h0.7l1.2-5.2c0-0.2,0.1-0.5,0.1-0.8l0.1,0.8l1.2,5.2
		h0.7l1.6-6.9h-0.7l-1,4.5c-0.1,0.5-0.1,1-0.2,1.5c-0.1-0.7-0.2-1.6-0.4-2.4l-0.8-3.5h-1l-1,4.7l-0.2,1.2c-0.1-0.5-0.2-1-0.2-1.5
		l-1-4.5h-0.7L50.4,80.8"/>
	<rect x="57" y="73.9" fill="#231f20" width="0.7" height="6.9"/>
	<polygon fill-rule="evenodd" clip-rule="evenodd" fill="#231f20" points="58.9,80.8 59.6,80.8 59.6,75.3 62.7,80.8 63.4,80.8 
		63.4,73.9 62.7,73.9 62.7,79.3 59.7,73.9 58.9,73.9 	"/>
	<path fill-rule="evenodd" clip-rule="evenodd" fill="#231f20" d="M67.3,78.1H69v1.2c-0.1,0.2-0.4,0.4-0.7,0.5
		c-0.4,0.2-0.6,0.2-0.8,0.2c-0.6,0-1.2-0.2-1.6-0.7c-0.4-0.4-0.6-1.1-0.6-2.1c0-0.6,0.1-1.1,0.4-1.5c0.1-0.5,0.4-0.7,0.7-1
		c0.2-0.2,0.6-0.2,1-0.2c0.4,0,0.6,0,0.8,0.1c0.1,0.1,0.4,0.2,0.5,0.5c0.1,0.1,0.2,0.5,0.4,0.8l0.6-0.2c0-0.5-0.2-0.8-0.4-1.1
		c-0.2-0.4-0.5-0.6-0.8-0.7c-0.2-0.1-0.6-0.2-1.1-0.2c-0.5,0-1,0.1-1.5,0.4c-0.4,0.4-0.7,0.7-1,1.3c-0.2,0.5-0.4,1.2-0.4,1.9
		c0,0.7,0.1,1.3,0.4,1.9c0.2,0.5,0.6,0.9,1.1,1.1c0.4,0.4,0.8,0.5,1.5,0.5c0.4,0,0.8-0.1,1.2-0.2c0.4-0.2,0.7-0.5,1.1-0.9v-2.5h-2.4
		V78.1"/>
	<polygon fill-rule="evenodd" clip-rule="evenodd" fill="#231f20" points="73,80.8 73.7,80.8 73.7,75.3 76.6,80.8 77.5,80.8 
		77.5,73.9 76.7,73.9 76.7,79.3 73.7,73.9 73,73.9 	"/>
	<path fill-rule="evenodd" clip-rule="evenodd" fill="#231f20" d="M82.3,73.9v4c0,0.8-0.1,1.5-0.4,1.7c-0.2,0.4-0.6,0.5-1.1,0.5
		c-0.4,0-0.6,0-0.8-0.2c-0.2-0.1-0.4-0.4-0.5-0.6c0-0.2-0.1-0.7-0.1-1.3v-4h-0.7v4c0,1.1,0.2,1.9,0.6,2.3c0.4,0.5,0.8,0.7,1.6,0.7
		c0.6,0,1-0.1,1.3-0.4c0.4-0.2,0.6-0.6,0.7-1.1c0.1-0.4,0.2-1,0.2-1.6v-4H82.3"/>
	<path fill-rule="evenodd" clip-rule="evenodd" fill="#231f20" d="M84.4,80.8h0.7V75l1.6,5.8h0.7L89,75v5.8h0.7v-6.9h-1l-1.3,4.9
		c-0.1,0.5-0.2,0.9-0.4,1.1l-0.2-1.1l-1.3-4.9h-1.1V80.8"/>
	<path fill-rule="evenodd" clip-rule="evenodd" fill="#231f20" d="M91.7,79.9v-2.3H93c0.4,0,0.6,0,0.8,0.1c0.1,0,0.2,0.2,0.4,0.4
		c0.1,0.1,0.2,0.4,0.2,0.6c0,0.4-0.1,0.6-0.2,0.7c-0.1,0.2-0.2,0.4-0.5,0.5h-0.6H91.7 M91.7,76.8v-2.1h1.1c0.5,0,0.7,0,0.8,0.1
		c0.2,0,0.4,0.1,0.5,0.4c0,0.1,0.1,0.4,0.1,0.6c0,0.2-0.1,0.5-0.2,0.6c0,0.1-0.2,0.2-0.4,0.4h-0.7H91.7 M90.9,80.8h2.2
		c0.5,0,0.8-0.1,1.1-0.2c0.4-0.1,0.5-0.4,0.7-0.6c0.1-0.4,0.2-0.7,0.2-1.2c0-0.4-0.1-0.7-0.2-1c-0.2-0.4-0.5-0.5-0.8-0.6
		c0.2-0.2,0.5-0.4,0.6-0.6c0.1-0.2,0.2-0.6,0.2-0.8c0-0.4-0.1-0.7-0.2-1c-0.2-0.2-0.4-0.5-0.6-0.6c-0.2-0.1-0.6-0.2-1.1-0.2h-2.1
		V80.8"/>
	<polygon fill-rule="evenodd" clip-rule="evenodd" fill="#231f20" points="96.2,80.8 100.4,80.8 100.4,79.9 97,79.9 97,77.6 
		100,77.6 100,76.8 97,76.8 97,74.7 100.3,74.7 100.3,73.9 96.2,73.9 	"/>
	<path fill-rule="evenodd" clip-rule="evenodd" fill="#231f20" d="M102.2,76.9v-2.3h1.7c0.5,0,0.7,0.1,1,0.4
		c0.2,0.2,0.2,0.5,0.2,0.9c0,0.2,0,0.4-0.1,0.6c-0.1,0.1-0.2,0.4-0.4,0.4c-0.2,0.1-0.5,0.1-0.8,0.1H102.2 M101.5,80.8h0.7v-3h0.8
		c0.2,0,0.4,0,0.6,0.1c0.1,0,0.2,0.1,0.4,0.4c0.1,0.1,0.4,0.6,0.7,1.1l0.7,1.5h1l-1.1-1.9c-0.1-0.2-0.4-0.6-0.5-0.9
		c-0.1-0.1-0.4-0.2-0.5-0.4c0.5-0.1,0.8-0.2,1.1-0.6c0.4-0.4,0.5-0.7,0.5-1.2c0-0.5-0.1-0.7-0.2-1.1c-0.2-0.2-0.4-0.5-0.6-0.6
		c-0.2-0.1-0.7-0.2-1.2-0.2h-2.4V80.8"/>
	<rect x="191.1" y="73.9" fill="#231f20" width="0.7" height="6.9"/>
	<path fill-rule="evenodd" clip-rule="evenodd" fill="#231f20" d="M192.9,78.6c0,0.4,0.1,0.6,0.1,1c0.1,0.2,0.4,0.5,0.5,0.7
		c0.5,0.4,1,0.6,1.7,0.6c0.5,0,0.9-0.1,1.2-0.2c0.2-0.2,0.5-0.5,0.7-0.7c0.1-0.4,0.2-0.7,0.2-1.1c0-0.4-0.1-0.7-0.2-1.1
		c-0.2-0.2-0.5-0.5-0.9-0.6c-0.1-0.1-0.6-0.2-1.1-0.5c-0.6-0.1-1-0.2-1.1-0.4c-0.2-0.2-0.2-0.4-0.2-0.7c0-0.2,0.1-0.5,0.4-0.7
		c0.1-0.1,0.5-0.2,0.9-0.2c0.5,0,0.9,0.1,1,0.4c0.2,0.1,0.4,0.5,0.5,1l0.7-0.1c0-0.4-0.1-0.7-0.4-1.1c-0.1-0.2-0.4-0.5-0.7-0.7
		c-0.2-0.1-0.6-0.2-1.1-0.2c-0.6,0-1.1,0.2-1.5,0.6c-0.4,0.4-0.5,0.7-0.5,1.3c0,0.2,0,0.6,0.1,0.8c0.1,0.2,0.4,0.4,0.6,0.6
		c0.2,0.1,0.6,0.2,1.1,0.5c0.6,0.1,1,0.2,1.2,0.4c0.1,0.1,0.2,0.2,0.4,0.4c0.1,0.1,0.1,0.4,0.1,0.5c0,0.4-0.1,0.7-0.4,0.8
		c-0.2,0.2-0.6,0.4-1,0.4c-0.4,0-0.6,0-0.9-0.1c-0.2-0.2-0.5-0.4-0.6-0.6c-0.1-0.1-0.2-0.5-0.2-0.8L192.9,78.6"/>
	<path fill-rule="evenodd" clip-rule="evenodd" fill="#231f20" d="M198.1,78.6c0,0.4,0.1,0.6,0.2,1c0.1,0.2,0.2,0.5,0.5,0.7
		c0.4,0.4,1,0.6,1.6,0.6c0.5,0,0.9-0.1,1.2-0.2c0.4-0.2,0.6-0.5,0.7-0.7c0.2-0.4,0.2-0.7,0.2-1.1c0-0.4,0-0.7-0.2-1.1
		c-0.1-0.2-0.4-0.5-0.7-0.6c-0.2-0.1-0.6-0.2-1.2-0.5c-0.6-0.1-1-0.2-1.1-0.4c-0.1-0.2-0.2-0.4-0.2-0.7c0-0.2,0.1-0.5,0.4-0.7
		c0.2-0.1,0.5-0.2,1-0.2c0.4,0,0.7,0.1,1,0.4c0.2,0.1,0.4,0.5,0.4,1l0.7-0.1c0-0.4-0.1-0.7-0.2-1.1c-0.2-0.2-0.5-0.5-0.7-0.7
		c-0.4-0.1-0.7-0.2-1.1-0.2c-0.6,0-1.1,0.2-1.5,0.6c-0.4,0.4-0.6,0.7-0.6,1.3c0,0.2,0.1,0.6,0.2,0.8c0.1,0.2,0.2,0.4,0.5,0.6
		c0.2,0.1,0.6,0.2,1.1,0.5c0.6,0.1,1.1,0.2,1.2,0.4c0.1,0.1,0.4,0.2,0.4,0.4c0.1,0.1,0.1,0.4,0.1,0.5c0,0.4-0.1,0.7-0.4,0.8
		c-0.2,0.2-0.5,0.4-1,0.4c-0.4,0-0.6,0-0.9-0.1c-0.2-0.2-0.5-0.4-0.6-0.6c-0.1-0.1-0.2-0.5-0.2-0.8L198.1,78.6"/>
	<path fill-rule="evenodd" clip-rule="evenodd" fill="#231f20" d="M207.3,73.9v4c0,0.8-0.1,1.5-0.4,1.7c-0.2,0.4-0.6,0.5-1.1,0.5
		c-0.4,0-0.6,0-0.8-0.2c-0.2-0.1-0.4-0.4-0.5-0.6c-0.1-0.2-0.1-0.7-0.1-1.3v-4h-0.7v4c0,1.1,0.1,1.9,0.5,2.3c0.4,0.5,1,0.7,1.7,0.7
		c0.5,0,1-0.1,1.3-0.4c0.4-0.2,0.6-0.6,0.7-1.1c0.1-0.4,0.1-1,0.1-1.6v-4H207.3"/>
	<polygon fill-rule="evenodd" clip-rule="evenodd" fill="#231f20" points="209.4,80.8 213.5,80.8 213.5,79.9 210.1,79.9 210.1,77.6 
		213.3,77.6 213.3,76.8 210.1,76.8 210.1,74.7 213.4,74.7 213.4,73.9 209.4,73.9 	"/>
</g>
<text transform="matrix(1 0 0 1 178.6638 7.7129)" fill="#cd1719" font-family="'Helvetica'" font-size="9">A</text>
<text transform="matrix(1 0 0 1 184.3337 7.7129)"><tspan x="0" y="0" fill="#cd1719" font-family="'Helvetica'" font-size="9">R for ‘A</tspan><tspan x="29.3" y="0" fill="#cd1719" font-family="'Helvetica'" font-size="9">r</tspan><tspan x="32" y="0" fill="#cd1719" font-family="'Helvetica'" font-size="9">chitectu</tspan><tspan x="62.7" y="0" fill="#cd1719" font-family="'Helvetica'" font-size="9">r</tspan><tspan x="65.4" y="0" fill="#cd1719" font-family="'Helvetica'" font-size="9">e’</tspan></text>
<line fill="none" stroke="#cd1719" stroke-width="0.75" stroke-linecap="round" stroke-linejoin="round" stroke-dasharray="0,2.251" x1="173.2" y1="7.4" x2="75.3" y2="7.4"/>
<line fill="none" stroke="#cd1719" stroke-width="0.75" stroke-linecap="round" stroke-linejoin="round" stroke-dasharray="0,2.244" x1="73.4" y1="9.5" x2="44.9" y2="95.8"/>
<path fill="none" stroke="#cd1719" stroke-width="0.75" stroke-linecap="round" stroke-linejoin="round" d="M44.6,96.9L44.6,96.9
	 M74.2,7.4L74.2,7.4 M175.5,7.4L175.5,7.4"/>
<text transform="matrix(1 0 0 1 178.6638 25.2837)" fill="#cd1719" font-family="'Helvetica'" font-size="9">D</text>
<text transform="matrix(1 0 0 1 184.8288 25.2837)" fill="#cd1719" font-family="'Helvetica'" font-size="9"> for drawing series as per BVN Alphabet</text>
<line fill="none" stroke="#cd1719" stroke-width="0.75" stroke-linecap="round" stroke-linejoin="round" stroke-dasharray="0,2.266" x1="173.2" y1="24.4" x2="92.8" y2="24.4"/>
<line fill="none" stroke="#cd1719" stroke-width="0.75" stroke-linecap="round" stroke-linejoin="round" stroke-dasharray="0,2.249" x1="90.9" y1="26.5" x2="67.6" y2="95.8"/>
<path fill="none" stroke="#cd1719" stroke-width="0.75" stroke-linecap="round" stroke-linejoin="round" d="M67.3,96.9L67.3,96.9
	 M91.6,24.4L91.6,24.4 M175.5,24.4L175.5,24.4"/>
<text transform="matrix(1 0 0 1 178.6638 42.8545)" fill="#cd1719" font-family="'Helvetica'" font-size="9">0</text>
<line fill="none" stroke="#cd1719" stroke-width="0.75" stroke-linecap="round" stroke-linejoin="round" stroke-dasharray="0,2.243" x1="173.2" y1="42" x2="107.1" y2="42"/>
<line fill="none" stroke="#cd1719" stroke-width="0.75" stroke-linecap="round" stroke-linejoin="round" stroke-dasharray="0,2.249" x1="105.2" y1="44.1" x2="86.2" y2="95.8"/>
<path fill="none" stroke="#cd1719" stroke-width="0.75" stroke-linecap="round" stroke-linejoin="round" d="M85.8,96.9L85.8,96.9
	 M105.9,42L105.9,42 M175.5,42L175.5,42"/>
<text transform="matrix(1 0 0 1 178.6638 60.4248)" fill="#cd1719" font-family="'Helvetica'" font-size="9">1</text>
<text transform="matrix(1 0 0 1 183.6682 60.4248)" fill="#cd1719" font-family="'Helvetica'" font-size="9">0 sequential number (start with 01)</text>
<line fill="none" stroke="#cd1719" stroke-width="0.75" stroke-linecap="round" stroke-linejoin="round" stroke-dasharray="0,2.28" x1="173.2" y1="59.5" x2="126.5" y2="59.5"/>
<line fill="none" stroke="#cd1719" stroke-width="0.75" stroke-linecap="round" stroke-linejoin="round" stroke-dasharray="0,2.222" x1="124.5" y1="61.6" x2="111.4" y2="95.8"/>
<path fill="none" stroke="#cd1719" stroke-width="0.75" stroke-linecap="round" stroke-linejoin="round" d="M111,96.9L111,96.9
	 M125.3,59.5L125.3,59.5 M175.5,59.5L175.5,59.5"/>
<rect x="405.2" y="61.7" fill="#ffffff" width="52.4" height="55"/>
<g>
	<path fill-rule="evenodd" clip-rule="evenodd" fill="#ffffff" d="M446.9,90.7c0-3.9-1.6-7.7-4.3-10.5c-2.8-2.8-6.6-4.3-10.6-4.3
		c-3.9,0-7.7,1.5-10.5,4.3c-2.7,2.8-4.3,6.6-4.3,10.5c0,3.9,1.6,7.7,4.3,10.5c2.8,2.8,6.6,4.3,10.5,4.3c4,0,7.8-1.5,10.6-4.3
		C445.3,98.4,446.9,94.6,446.9,90.7"/>
	<path fill="none" stroke="#000000" stroke-width="0.519" stroke-linejoin="round" stroke-miterlimit="1.414" d="M446.9,90.7
		c0-3.9-1.6-7.7-4.3-10.5c-2.8-2.8-6.6-4.3-10.6-4.3c-3.9,0-7.7,1.5-10.5,4.3c-2.7,2.8-4.3,6.6-4.3,10.5c0,3.9,1.6,7.7,4.3,10.5
		c2.8,2.8,6.6,4.3,10.5,4.3c4,0,7.8-1.5,10.6-4.3C445.3,98.4,446.9,94.6,446.9,90.7"/>
	
		<line fill="none" stroke="#000000" stroke-width="0.519" stroke-linejoin="round" stroke-miterlimit="1.414" x1="446.9" y1="90.7" x2="417.1" y2="90.7"/>
	<path fill-rule="evenodd" clip-rule="evenodd" d="M432,105.6v6.5l21-21.3l-21-21.3v6.5c1.8,0,3.7,0.3,5.5,1
		c1.8,0.8,3.6,1.8,5.1,3.4c1.4,1.4,2.5,3.1,3.2,5c0.8,1.9,1.1,3.8,1.1,5.5c0,1.7-0.3,3.7-1.1,5.5c-0.8,1.8-1.8,3.6-3.2,5
		c-1.5,1.5-3.2,2.6-5.1,3.4C435.6,105.2,433.8,105.6,432,105.6"/>
	<path fill-rule="evenodd" clip-rule="evenodd" d="M423.8,95.6c-0.1,0.4-0.2,0.9-0.4,1.1c-0.2,0.2-0.5,0.3-0.9,0.3
		c-0.4,0-0.9-0.2-1.1-0.5c-0.3-0.4-0.4-1-0.4-1.7c0-0.5,0.1-1,0.2-1.3c0.1-0.3,0.3-0.5,0.5-0.6c0.2-0.2,0.5-0.3,0.8-0.3
		c0.6,0,1.1,0.4,1.3,1.2l0.5-0.2c-0.1-0.4-0.3-0.9-0.6-1.2c-0.3-0.2-0.6-0.3-1.2-0.3c-0.3,0-0.8,0.1-1.1,0.3
		c-0.3,0.2-0.5,0.5-0.8,0.9c-0.2,0.4-0.2,1-0.2,1.6c0,0.7,0,1.2,0.2,1.6c0.2,0.4,0.4,0.8,0.8,1c0.3,0.2,0.6,0.3,1.1,0.3
		c0.4,0,0.9-0.2,1.2-0.4c0.3-0.3,0.6-0.9,0.8-1.4L423.8,95.6"/>
	<rect x="424.9" y="95.2" fill-rule="evenodd" clip-rule="evenodd" width="1.7" height="0.6"/>
	<path fill-rule="evenodd" clip-rule="evenodd" d="M426.9,97.6h0.8l1.1-1.9c0.1-0.1,0.1-0.2,0.2-0.4c0.1,0.1,0.2,0.3,0.2,0.4
		l1.2,1.9h0.8l-1.7-2.9l1.6-2.7h-0.7l-1,1.5c-0.1,0.2-0.2,0.4-0.3,0.7c-0.1-0.2-0.2-0.4-0.4-0.7l-0.8-1.5h-0.8l1.5,2.7L426.9,97.6"
		/>
	<path fill-rule="evenodd" clip-rule="evenodd" d="M431.1,97.6h0.8l1.2-1.9c0-0.1,0.1-0.2,0.2-0.4c0,0.1,0.1,0.3,0.1,0.4l1.2,1.9
		h0.8l-1.7-2.9l1.6-2.7h-0.7l-1,1.5c-0.1,0.2-0.2,0.4-0.3,0.7c-0.1-0.2-0.2-0.4-0.3-0.7l-0.9-1.5h-0.8l1.6,2.7L431.1,97.6"/>
	<rect x="435.5" y="95.2" fill-rule="evenodd" clip-rule="evenodd" width="1.7" height="0.6"/>
	<path fill-rule="evenodd" clip-rule="evenodd" d="M438.3,94.9c0-1,0-1.5,0.2-1.8c0.2-0.3,0.4-0.5,0.6-0.5c0.2,0,0.4,0.2,0.6,0.5
		c0.2,0.3,0.2,0.9,0.2,1.8c0,0.9,0,1.4-0.2,1.7c-0.1,0.3-0.3,0.5-0.6,0.5c-0.2,0-0.4-0.2-0.6-0.5C438.3,96.3,438.3,95.7,438.3,94.9
		 M437.7,94.9c0,1,0.2,1.7,0.4,2.2c0.3,0.4,0.6,0.6,1.1,0.6c0.5,0,0.9-0.2,1.1-0.8c0.3-0.4,0.4-1.2,0.4-2.1c0-1.1-0.2-1.8-0.4-2.3
		c-0.3-0.4-0.6-0.6-1.1-0.6s-0.9,0.3-1.1,0.8C437.8,93.1,437.7,93.9,437.7,94.9"/>
	<path fill-rule="evenodd" clip-rule="evenodd" d="M443.4,97.6v-5.6H443c-0.1,0.3-0.2,0.5-0.4,0.8c-0.3,0.3-0.5,0.5-0.9,0.6V94
		c0.2,0,0.3-0.2,0.6-0.3c0.2-0.1,0.3-0.3,0.4-0.4v4.3H443.4"/>
	<path fill-rule="evenodd" clip-rule="evenodd" d="M428.9,84.9c0-1.2,0.2-2.1,0.4-2.5c0.2-0.4,0.5-0.6,0.9-0.6c0.4,0,0.6,0.2,1,0.6
		c0.2,0.4,0.3,1.3,0.3,2.5c0,1.3-0.1,2.2-0.3,2.6c-0.3,0.4-0.5,0.6-1,0.6c-0.3,0-0.6-0.2-0.9-0.6C429.1,87.1,428.9,86.2,428.9,84.9
		 M428.2,84.9c0,1.5,0.2,2.5,0.5,3.1c0.4,0.5,1,0.9,1.5,0.9c0.8,0,1.2-0.3,1.6-1c0.3-0.7,0.5-1.7,0.5-3c0-1.4-0.2-2.5-0.6-3.1
		c-0.4-0.5-0.9-0.8-1.5-0.8c-0.6,0-1.2,0.3-1.5,1C428.4,82.6,428.2,83.6,428.2,84.9"/>
	<path fill-rule="evenodd" clip-rule="evenodd" d="M436.1,88.8V81h-0.5c-0.1,0.3-0.3,0.6-0.6,1c-0.3,0.4-0.8,0.6-1.2,1v0.9
		c0.3-0.1,0.5-0.2,0.9-0.4c0.3-0.2,0.5-0.4,0.8-0.6v6.1H436.1"/>
</g>
<text transform="matrix(1 0 0 1 327.2477 105.6279)" fill="#cd1719" font-family="'Helvetica'" font-size="9">D</text>
<text transform="matrix(1 0 0 1 333.4128 105.6279)" fill="#cd1719" font-family="'Helvetica'" font-size="9">rawing series</text>
<line fill="none" stroke="#cd1719" stroke-width="0.75" stroke-linecap="round" stroke-linejoin="round" stroke-dasharray="0,2.229" x1="388.5" y1="105.3" x2="403" y2="105.3"/>
<line fill="none" stroke="#cd1719" stroke-width="0.75" stroke-linecap="round" stroke-linejoin="round" stroke-dasharray="0,2.407" x1="406.3" y1="104.3" x2="418.3" y2="98.8"/>
<path fill="none" stroke="#cd1719" stroke-width="0.75" stroke-linecap="round" stroke-linejoin="round" d="M419.4,98.3L419.4,98.3
	 M404.1,105.3L404.1,105.3 M386.3,105.3L386.3,105.3"/>
<text transform="matrix(1 0 0 1 327.2477 120.7524)" fill="#cd1719" font-family="'Helvetica'" font-size="9">L</text>
<text transform="matrix(1 0 0 1 332.0807 120.7524)" fill="#cd1719" font-family="'Helvetica'" font-size="9">evel</text>
<line fill="none" stroke="#cd1719" stroke-width="0.75" stroke-linecap="round" stroke-linejoin="round" stroke-dasharray="0,2.221" x1="352.5" y1="120.3" x2="391.4" y2="120.3"/>
<line fill="none" stroke="#cd1719" stroke-width="0.75" stroke-linecap="round" stroke-linejoin="round" stroke-dasharray="0,2.259" x1="394.5" y1="119.2" x2="429.5" y2="100.8"/>
<path fill="none" stroke="#cd1719" stroke-width="0.75" stroke-linecap="round" stroke-linejoin="round" d="M430.5,100.3
	L430.5,100.3 M392.5,120.3L392.5,120.3 M350.3,120.3L350.3,120.3"/>
<text transform="matrix(1 0 0 1 478.4372 121.0845)" fill="#cd1719" font-family="'Helvetica'" font-size="9">S</text>
<text transform="matrix(1 0 0 1 484.1071 121.0845)" fill="#cd1719" font-family="'Helvetica'" font-size="9">equential number</text>
<line fill="none" stroke="#cd1719" stroke-width="0.75" stroke-linecap="round" stroke-linejoin="round" stroke-dasharray="0,2.255" x1="473" y1="120.3" x2="458.3" y2="120.3"/>
<line fill="none" stroke="#cd1719" stroke-width="0.75" stroke-linecap="round" stroke-linejoin="round" stroke-dasharray="0,2.329" x1="455.7" y1="118.5" x2="441.9" y2="101.2"/>
<path fill="none" stroke="#cd1719" stroke-width="0.75" stroke-linecap="round" stroke-linejoin="round" d="M441.2,100.3
	L441.2,100.3 M457.2,120.3L457.2,120.3 M475.2,120.3L475.2,120.3"/>
<text transform="matrix(1 0 0 1 183.7087 42.9326)" fill="#cd1719" font-family="'Helvetica'" font-size="9">1 for level (if not level specific, replace with ‘XX’)</text>
</svg>
