<?xml version="1.0" standalone="no"?>
<!DOCTYPE svg PUBLIC "-//W3C//DTD SVG 20010904//EN"
 "http://www.w3.org/TR/2001/REC-SVG-20010904/DTD/svg10.dtd">
<svg version="1.0" xmlns="http://www.w3.org/2000/svg"
 width="500.000000pt" height="500.000000pt" viewBox="0 0 500.000000 500.000000"
 preserveAspectRatio="xMidYMid meet">
<metadata>
Created by potrace 1.11, written by Peter Selinger 2001-2013
</metadata>
<g transform="translate(0.000000,500.000000) scale(0.100000,-0.100000)"
fill="#000000" stroke="none">
<path d="M265 4986 c-125 -40 -214 -128 -249 -246 -14 -48 -16 -274 -16 -2240
0 -1966 2 -2192 16 -2240 30 -101 100 -181 203 -229 l56 -26 2225 0 2225 0 66
32 c79 39 140 102 177 181 l27 57 3 2205 c2 1991 1 2210 -14 2259 -29 100
-102 182 -204 230 l-55 26 -2210 2 c-1764 1 -2218 -1 -2250 -11z m1028 -713
c89 -42 168 -121 210 -210 43 -93 50 -219 17 -317 -103 -310 -499 -397 -722
-158 -158 169 -155 429 6 592 95 97 183 131 326 127 82 -2 104 -7 163 -34z
m2223 -1094 c419 -46 631 -252 716 -694 20 -105 21 -144 25 -927 l4 -818 -370
0 -369 0 -5 708 c-3 612 -6 716 -20 777 -47 195 -149 290 -327 302 -141 10
-282 -36 -350 -114 -42 -47 -84 -135 -105 -218 -17 -63 -19 -137 -22 -762 l-4
-693 -370 0 -369 0 0 1195 0 1195 355 0 355 0 1 -167 c0 -134 3 -164 12 -149
78 123 173 211 297 275 166 86 334 114 546 90z m-2028 -1246 l2 -1193 -375 0
-375 0 0 1195 0 1195 373 -2 372 -3 3 -1192z"/>
</g>
</svg>
