<?xml version="1.0" encoding="utf-8"?>
<!-- Generator: Adobe Illustrator 18.1.1, SVG Export Plug-In . SVG Version: 6.00 Build 0)  -->
<svg version="1.1" id="Layer_1" xmlns="http://www.w3.org/2000/svg" xmlns:xlink="http://www.w3.org/1999/xlink" x="0px" y="0px"
	 viewBox="0 0 320 65.019" enable-background="new 0 0 320 65.019" xml:space="preserve">
<rect y="0" fill="#FFFFFF" width="320.315" height="65.019"/>
<rect x="2.562" y="23.485" fill="#C5D9F1" width="156.66" height="4.056"/>
<rect x="162.54" y="23.485" fill="#C5D9F1" width="156.819" height="4.056"/>
<rect x="2.562" y="43.502" fill="#C5D9F1" width="156.66" height="4.056"/>
<rect x="162.54" y="43.502" fill="#C5D9F1" width="156.819" height="4.056"/>
<rect x="2.562" y="51.509" fill="#C5D9F1" width="156.66" height="4.056"/>
<rect x="162.54" y="51.509" fill="#C5D9F1" width="156.819" height="4.056"/>
<rect x="2.562" y="59.516" fill="#C5D9F1" width="156.66" height="4.056"/>
<rect x="162.54" y="59.516" fill="#C5D9F1" width="156.819" height="4.056"/>
<text transform="matrix(1 0 0 1 2.9293 2.2036)"><tspan x="0" y="0" fill="#1D1D1B" font-family="'ArialMT'" font-size="2.6865">CLAD-0</tspan><tspan x="9.555" y="0" fill="#1D1D1B" font-family="'ArialMT'" font-size="2.6865" letter-spacing="2">2</tspan><tspan x="13.483" y="0" fill="#1D1D1B" font-family="'ArialMT'" font-size="2.6865">Insulated Wall System Cladding - 80mm</tspan></text>
<text transform="matrix(1 0 0 1 108.9065 2.2036)" fill="#1D1D1B" font-family="'ArialMT'" font-size="2.6865">Façade Cladding</text>
<text transform="matrix(1 0 0 1 146.9337 2.2036)" fill="#1D1D1B" font-family="'ArialMT'" font-size="2.6865">.</text>
<text transform="matrix(1 0 0 1 163.0527 2.2036)"><tspan x="0" y="0" fill="#1D1D1B" font-family="'ArialMT'" font-size="2.6865">CLAD-1</tspan><tspan x="9.555" y="0" fill="#1D1D1B" font-family="'ArialMT'" font-size="2.6865" letter-spacing="2">0</tspan><tspan x="13.483" y="0" fill="#1D1D1B" font-family="'ArialMT'" font-size="2.6865">Aluminium Composite Cladding</tspan></text>
<text transform="matrix(1 0 0 1 269.0262 2.2036)" fill="#1D1D1B" font-family="'ArialMT'" font-size="2.6865">Façade Cladding</text>
<text transform="matrix(1 0 0 1 2.9304 6.2068)"><tspan x="0" y="0" fill="#1D1D1B" font-family="'ArialMT'" font-size="2.6865">CLAD-0</tspan><tspan x="9.555" y="0" fill="#1D1D1B" font-family="'ArialMT'" font-size="2.6865" letter-spacing="2">3</tspan><tspan x="13.483" y="0" fill="#1D1D1B" font-family="'ArialMT'" font-size="2.6865">Insulated Wall System Cladding - 38mm</tspan></text>
<text transform="matrix(1 0 0 1 108.9071 6.2068)" fill="#1D1D1B" font-family="'ArialMT'" font-size="2.6865">Façade Cladding</text>
<text transform="matrix(1 0 0 1 146.9342 6.2068)" fill="#1D1D1B" font-family="'ArialMT'" font-size="2.6865">.</text>
<text transform="matrix(1 0 0 1 163.0537 6.2068)"><tspan x="0" y="0" fill="#1D1D1B" font-family="'ArialMT'" font-size="2.6865">CLAD-1</tspan><tspan x="9.555" y="0" fill="#1D1D1B" font-family="'ArialMT'" font-size="2.6865" letter-spacing="2">1</tspan><tspan x="13.483" y="0" fill="#1D1D1B" font-family="'ArialMT'" font-size="2.6865">Fibre Cement sheet cladding</tspan></text>
<text transform="matrix(1 0 0 1 269.031 6.2068)" fill="#1D1D1B" font-family="'ArialMT'" font-size="2.6865">Façade Cladding</text>
<text transform="matrix(1 0 0 1 2.9272 10.21)"><tspan x="0" y="0" fill="#1D1D1B" font-family="'ArialMT'" font-size="2.6865">CLAD-0</tspan><tspan x="9.555" y="0" fill="#1D1D1B" font-family="'ArialMT'" font-size="2.6865" letter-spacing="2">4</tspan><tspan x="13.483" y="0" fill="#1D1D1B" font-family="'ArialMT'" font-size="2.6865">Insulated Wall System Cladding - 50mm</tspan></text>
<text transform="matrix(1 0 0 1 108.9044 10.21)" fill="#1D1D1B" font-family="'ArialMT'" font-size="2.6865">Façade Cladding</text>
<text transform="matrix(1 0 0 1 146.9315 10.21)" fill="#1D1D1B" font-family="'ArialMT'" font-size="2.6865">.</text>
<text transform="matrix(1 0 0 1 163.0506 10.21)"><tspan x="0" y="0" fill="#1D1D1B" font-family="'ArialMT'" font-size="2.6865">CLAD-1</tspan><tspan x="9.555" y="0" fill="#1D1D1B" font-family="'ArialMT'" font-size="2.6865" letter-spacing="2">2</tspan><tspan x="13.483" y="0" fill="#1D1D1B" font-family="'ArialMT'" font-size="2.6865">Primary Weathershield boards</tspan></text>
<text transform="matrix(1 0 0 1 269.0273 10.21)" fill="#1D1D1B" font-family="'ArialMT'" font-size="2.6865">Façade Cladding</text>
<text transform="matrix(1 0 0 1 2.925 14.2122)"><tspan x="0" y="0" fill="#1D1D1B" font-family="'ArialMT'" font-size="2.6865">CLAD-0</tspan><tspan x="9.555" y="0" fill="#1D1D1B" font-family="'ArialMT'" font-size="2.6865" letter-spacing="2">5</tspan><tspan x="13.483" y="0" fill="#1D1D1B" font-family="'ArialMT'" font-size="2.6865">Aluminium Composite Cladding</tspan></text>
<text transform="matrix(1 0 0 1 108.8991 14.2122)" fill="#1D1D1B" font-family="'ArialMT'" font-size="2.6865">Façade Cladding</text>
<text transform="matrix(1 0 0 1 146.9257 14.2122)" fill="#1D1D1B" font-family="'ArialMT'" font-size="2.6865">.</text>
<text transform="matrix(1 0 0 1 163.0458 14.2122)"><tspan x="0" y="0" fill="#1D1D1B" font-family="'ArialMT'" font-size="2.6865">CLAD-1</tspan><tspan x="9.555" y="0" fill="#1D1D1B" font-family="'ArialMT'" font-size="2.6865" letter-spacing="2">3</tspan><tspan x="13.483" y="0" fill="#1D1D1B" font-family="'ArialMT'" font-size="2.6865">Insulated Wall System Cladding</tspan></text>
<text transform="matrix(1 0 0 1 269.0251 14.2122)" fill="#1D1D1B" font-family="'ArialMT'" font-size="2.6865">Façade Cladding</text>
<text transform="matrix(1 0 0 1 2.925 18.2153)"><tspan x="0" y="0" fill="#1D1D1B" font-family="'ArialMT'" font-size="2.6865">CLAD-0</tspan><tspan x="9.555" y="0" fill="#1D1D1B" font-family="'ArialMT'" font-size="2.6865" letter-spacing="2">8</tspan><tspan x="13.483" y="0" fill="#1D1D1B" font-family="'ArialMT'" font-size="2.6865">Fibre Cement sheet cladding</tspan></text>
<text transform="matrix(1 0 0 1 108.9017 18.2153)" fill="#1D1D1B" font-family="'ArialMT'" font-size="2.6865">Façade Cladding</text>
<text transform="matrix(1 0 0 1 146.9294 18.2153)" fill="#1D1D1B" font-family="'ArialMT'" font-size="2.6865">.</text>
<text transform="matrix(1 0 0 1 163.0479 18.2153)"><tspan x="0" y="0" fill="#1D1D1B" font-family="'ArialMT'" font-size="2.6865">CLAD-1</tspan><tspan x="9.555" y="0" fill="#1D1D1B" font-family="'ArialMT'" font-size="2.6865" letter-spacing="2">4</tspan><tspan x="13.483" y="0" fill="#1D1D1B" font-family="'ArialMT'" font-size="2.6865">Aluminium Composite Cladding</tspan></text>
<text transform="matrix(1 0 0 1 269.0224 18.2153)" fill="#1D1D1B" font-family="'ArialMT'" font-size="2.6865">Façade Cladding</text>
<g>
	<text transform="matrix(1 0 0 1 146.9374 22.2186)" fill="#1D1D1B" font-family="'ArialMT'" font-size="2.6865">.</text>
	<text transform="matrix(1 0 0 1 118.5972 22.2186)" fill="#1D1D1B" font-family="'ArialMT'" font-size="2.6865">.</text>
</g>
<g>
	<text transform="matrix(1 0 0 1 307.085 22.2207)" fill="#1D1D1B" font-family="'ArialMT'" font-size="2.6865">.</text>
	<text transform="matrix(1 0 0 1 278.7458 22.2207)" fill="#1D1D1B" font-family="'ArialMT'" font-size="2.6865">.</text>
</g>
<rect x="0.071" y="0" fill="none" width="319.394" height="65.019"/>
<text transform="matrix(1 0 0 1 16.4149 26.277)" fill="#1D1D1B" font-family="'Arial-BoldMT'" font-size="2.6865">External wall systems</text>
<text transform="matrix(1 0 0 1 118.6074 26.277)" fill="#1D1D1B" font-family="'Arial-BoldMT'" font-size="2.6865">.</text>
<text transform="matrix(1 0 0 1 146.9471 26.277)" fill="#1D1D1B" font-family="'Arial-BoldMT'" font-size="2.6865">.</text>
<text transform="matrix(1 0 0 1 176.5527 26.277)" fill="#1D1D1B" font-family="'Arial-BoldMT'" font-size="2.6865">External wall systems</text>
<text transform="matrix(1 0 0 1 278.7442 26.277)" fill="#1D1D1B" font-family="'Arial-BoldMT'" font-size="2.6865">.</text>
<text transform="matrix(1 0 0 1 307.0839 26.277)" fill="#1D1D1B" font-family="'Arial-BoldMT'" font-size="2.6865">.</text>
<text transform="matrix(1 0 0 1 2.9315 30.2287)"><tspan x="0" y="0" fill="#1D1D1B" font-family="'ArialMT'" font-size="2.6865">EWS-0</tspan><tspan x="8.508" y="0" fill="#1D1D1B" font-family="'ArialMT'" font-size="2.6865" letter-spacing="3">1</tspan><tspan x="13.484" y="0" fill="#1D1D1B" font-family="'ArialMT'" font-size="2.6865">Insulated Wall System Cladding - 80mm</tspan></text>
<text transform="matrix(1 0 0 1 108.9114 30.2287)" fill="#1D1D1B" font-family="'ArialMT'" font-size="2.6865">Façade Cladding</text>
<text transform="matrix(1 0 0 1 146.9385 30.2287)" fill="#1D1D1B" font-family="'ArialMT'" font-size="2.6865">.</text>
<text transform="matrix(1 0 0 1 163.0576 30.2287)"><tspan x="0" y="0" fill="#1D1D1B" font-family="'ArialMT'" font-size="2.6865">EWS-0</tspan><tspan x="8.508" y="0" fill="#1D1D1B" font-family="'ArialMT'" font-size="2.6865" letter-spacing="3">4</tspan><tspan x="13.483" y="0" fill="#1D1D1B" font-family="'ArialMT'" font-size="2.6865">Aluminium Composite Cladding</tspan></text>
<text transform="matrix(1 0 0 1 269.0348 30.2287)" fill="#1D1D1B" font-family="'ArialMT'" font-size="2.6865">Façade Cladding</text>
<text transform="matrix(1 0 0 1 2.9293 34.2313)"><tspan x="0" y="0" fill="#1D1D1B" font-family="'ArialMT'" font-size="2.6865">EWS-0</tspan><tspan x="8.508" y="0" fill="#1D1D1B" font-family="'ArialMT'" font-size="2.6865" letter-spacing="3">2</tspan><tspan x="13.484" y="0" fill="#1D1D1B" font-family="'ArialMT'" font-size="2.6865">Insulated Wall System Cladding - 38mm</tspan></text>
<text transform="matrix(1 0 0 1 108.9087 34.2313)" fill="#1D1D1B" font-family="'ArialMT'" font-size="2.6865">Façade Cladding</text>
<text transform="matrix(1 0 0 1 146.9363 34.2313)" fill="#1D1D1B" font-family="'ArialMT'" font-size="2.6865">.</text>
<text transform="matrix(1 0 0 1 163.0554 34.2313)"><tspan x="0" y="0" fill="#1D1D1B" font-family="'ArialMT'" font-size="2.6865">EWS-0</tspan><tspan x="8.508" y="0" fill="#1D1D1B" font-family="'ArialMT'" font-size="2.6865" letter-spacing="3">5</tspan><tspan x="13.483" y="0" fill="#1D1D1B" font-family="'ArialMT'" font-size="2.6865">Fibre Cement sheet cladding</tspan></text>
<text transform="matrix(1 0 0 1 269.0348 34.2313)" fill="#1D1D1B" font-family="'ArialMT'" font-size="2.6865">Façade Cladding</text>
<text transform="matrix(1 0 0 1 2.9266 38.2345)"><tspan x="0" y="0" fill="#1D1D1B" font-family="'ArialMT'" font-size="2.6865">EWS-0</tspan><tspan x="8.508" y="0" fill="#1D1D1B" font-family="'ArialMT'" font-size="2.6865" letter-spacing="3">3</tspan><tspan x="13.484" y="0" fill="#1D1D1B" font-family="'ArialMT'" font-size="2.6865">Insulated Wall System Cladding - 50mm</tspan></text>
<text transform="matrix(1 0 0 1 108.9065 38.2345)" fill="#1D1D1B" font-family="'ArialMT'" font-size="2.6865">Façade Cladding</text>
<text transform="matrix(1 0 0 1 146.9337 38.2345)" fill="#1D1D1B" font-family="'ArialMT'" font-size="2.6865">.</text>
<text transform="matrix(1 0 0 1 163.0527 38.2345)"><tspan x="0" y="0" fill="#1D1D1B" font-family="'ArialMT'" font-size="2.6865">EWS-0</tspan><tspan x="8.508" y="0" fill="#1D1D1B" font-family="'ArialMT'" font-size="2.6865" letter-spacing="3">6</tspan><tspan x="13.483" y="0" fill="#1D1D1B" font-family="'ArialMT'" font-size="2.6865">Primary Weathershield boards</tspan></text>
<text transform="matrix(1 0 0 1 269.0321 38.2345)" fill="#1D1D1B" font-family="'ArialMT'" font-size="2.6865">Façade Cladding</text>
<text transform="matrix(1 0 0 1 16.41 46.2935)" fill="#1D1D1B" font-family="'Arial-BoldMT'" font-size="2.6865">Fences</text>
<text transform="matrix(1 0 0 1 118.6015 46.2935)" fill="#1D1D1B" font-family="'Arial-BoldMT'" font-size="2.6865">.</text>
<text transform="matrix(1 0 0 1 146.9412 46.2935)" fill="#1D1D1B" font-family="'Arial-BoldMT'" font-size="2.6865">.</text>
<text transform="matrix(1 0 0 1 176.5468 46.2935)" fill="#1D1D1B" font-family="'Arial-BoldMT'" font-size="2.6865">Fences</text>
<g>
	<text transform="matrix(1 0 0 1 307.085 46.2941)" fill="#1D1D1B" font-family="'Arial-BoldMT'" font-size="2.6865">.</text>
	<text transform="matrix(1 0 0 1 278.7458 46.2941)" fill="#1D1D1B" font-family="'Arial-BoldMT'" font-size="2.6865">.</text>
</g>
<g>
	<text transform="matrix(1 0 0 1 146.9471 50.2446)" fill="#1D1D1B" font-family="'ArialMT'" font-size="2.6865">.</text>
	<text transform="matrix(1 0 0 1 118.6079 50.2446)" fill="#1D1D1B" font-family="'ArialMT'" font-size="2.6865">.</text>
</g>
<g>
	<text transform="matrix(1 0 0 1 307.085 50.2446)" fill="#1D1D1B" font-family="'ArialMT'" font-size="2.6865">.</text>
	<text transform="matrix(1 0 0 1 278.7458 50.2446)" fill="#1D1D1B" font-family="'ArialMT'" font-size="2.6865">.</text>
</g>
<text transform="matrix(1 0 0 1 16.4149 54.3015)" fill="#1D1D1B" font-family="'Arial-BoldMT'" font-size="2.6865">Fire protection</text>
<text transform="matrix(1 0 0 1 118.6101 54.3015)" fill="#1D1D1B" font-family="'Arial-BoldMT'" font-size="2.6865">.</text>
<text transform="matrix(1 0 0 1 146.9492 54.3015)" fill="#1D1D1B" font-family="'Arial-BoldMT'" font-size="2.6865">.</text>
<text transform="matrix(1 0 0 1 176.5554 54.3015)" fill="#1D1D1B" font-family="'Arial-BoldMT'" font-size="2.6865">Fire protection</text>
<text transform="matrix(1 0 0 1 278.7491 54.3015)" fill="#1D1D1B" font-family="'Arial-BoldMT'" font-size="2.6865">.</text>
<text transform="matrix(1 0 0 1 307.0888 54.3015)" fill="#1D1D1B" font-family="'Arial-BoldMT'" font-size="2.6865">.</text>
<g>
	<text transform="matrix(1 0 0 1 146.9492 58.2526)" fill="#1D1D1B" font-family="'ArialMT'" font-size="2.6865">.</text>
	<text transform="matrix(1 0 0 1 118.6101 58.2526)" fill="#1D1D1B" font-family="'ArialMT'" font-size="2.6865">.</text>
</g>
<g>
	<text transform="matrix(1 0 0 1 307.085 58.2516)" fill="#1D1D1B" font-family="'ArialMT'" font-size="2.6865">.</text>
	<text transform="matrix(1 0 0 1 278.7458 58.2516)" fill="#1D1D1B" font-family="'ArialMT'" font-size="2.6865">.</text>
</g>
<text transform="matrix(1 0 0 1 16.4149 62.3074)" fill="#1D1D1B" font-family="'Arial-BoldMT'" font-size="2.6865">Fixtures / Fittings</text>
<text transform="matrix(1 0 0 1 118.6101 62.3074)" fill="#1D1D1B" font-family="'Arial-BoldMT'" font-size="2.6865">.</text>
<text transform="matrix(1 0 0 1 146.9492 62.3074)" fill="#1D1D1B" font-family="'Arial-BoldMT'" font-size="2.6865">.</text>
<text transform="matrix(1 0 0 1 176.5554 62.3074)" fill="#1D1D1B" font-family="'Arial-BoldMT'" font-size="2.6865">Fixtures / Fittings</text>
<text transform="matrix(1 0 0 1 278.7491 62.3074)" fill="#1D1D1B" font-family="'Arial-BoldMT'" font-size="2.6865">.</text>
<text transform="matrix(1 0 0 1 307.0888 62.3074)" fill="#1D1D1B" font-family="'Arial-BoldMT'" font-size="2.6865">.</text>
<rect x="0.071" y="0" fill="none" width="319.394" height="65.019"/>
<rect x="2.562" y="3.362" fill="#1D1D1B" width="156.766" height="0.263"/>
<rect x="2.562" y="7.365" fill="#1D1D1B" width="156.766" height="0.264"/>
<rect x="2.562" y="11.369" fill="#1D1D1B" width="156.766" height="0.264"/>
<rect x="2.562" y="15.373" fill="#1D1D1B" width="156.766" height="0.263"/>
<rect x="2.562" y="19.376" fill="#1D1D1B" width="156.766" height="0.264"/>
<rect x="2.562" y="23.379" fill="#1D1D1B" width="156.766" height="0.264"/>
<rect x="2.562" y="27.382" fill="#1D1D1B" width="156.766" height="0.264"/>
<rect x="2.562" y="31.386" fill="#1D1D1B" width="156.766" height="0.263"/>
<rect x="2.562" y="35.39" fill="#1D1D1B" width="156.766" height="0.264"/>
<rect x="2.562" y="39.393" fill="#1D1D1B" width="156.766" height="0.264"/>
<rect x="2.562" y="43.396" fill="#1D1D1B" width="156.766" height="0.264"/>
<rect x="2.562" y="47.4" fill="#1D1D1B" width="156.766" height="0.263"/>
<rect x="2.562" y="51.403" fill="#1D1D1B" width="156.766" height="0.264"/>
<rect x="2.562" y="55.406" fill="#1D1D1B" width="156.766" height="0.264"/>
<rect x="2.562" y="59.41" fill="#1D1D1B" width="156.766" height="0.264"/>
<rect x="2.562" y="63.414" fill="#1D1D1B" width="156.766" height="0.263"/>
<rect x="2.298" y="0" fill="#1D1D1B" width="0.264" height="65.019"/>
<rect x="15.784" y="0" fill="#1D1D1B" width="0.263" height="65.019"/>
<rect x="102.384" y="0" fill="#1D1D1B" width="0.264" height="65.019"/>
<rect x="135.254" y="0" fill="#1D1D1B" width="0.264" height="65.019"/>
<rect x="159.064" y="0" fill="#1D1D1B" width="0.264" height="65.019"/>
<rect x="162.435" y="0" fill="#1D1D1B" width="0.264" height="65.019"/>
<rect x="175.921" y="0" fill="#1D1D1B" width="0.263" height="65.019"/>
<rect x="262.521" y="0" fill="#1D1D1B" width="0.263" height="65.019"/>
<rect x="295.391" y="0" fill="#1D1D1B" width="0.264" height="65.019"/>
<rect x="319.202" y="0" fill="#1D1D1B" width="0.263" height="65.019"/>
<rect x="162.699" y="3.362" fill="#1D1D1B" width="156.766" height="0.263"/>
<rect x="162.699" y="7.365" fill="#1D1D1B" width="156.766" height="0.264"/>
<rect x="162.699" y="11.369" fill="#1D1D1B" width="156.766" height="0.264"/>
<rect x="162.699" y="15.373" fill="#1D1D1B" width="156.766" height="0.263"/>
<rect x="162.699" y="19.376" fill="#1D1D1B" width="156.766" height="0.264"/>
<rect x="162.699" y="23.379" fill="#1D1D1B" width="156.766" height="0.264"/>
<rect x="162.699" y="27.382" fill="#1D1D1B" width="156.766" height="0.264"/>
<rect x="162.699" y="31.386" fill="#1D1D1B" width="156.766" height="0.263"/>
<rect x="162.699" y="35.39" fill="#1D1D1B" width="156.766" height="0.264"/>
<rect x="162.699" y="39.393" fill="#1D1D1B" width="156.766" height="0.264"/>
<rect x="162.699" y="43.396" fill="#1D1D1B" width="156.766" height="0.264"/>
<rect x="162.699" y="47.4" fill="#1D1D1B" width="156.766" height="0.263"/>
<rect x="162.699" y="51.403" fill="#1D1D1B" width="156.766" height="0.264"/>
<rect x="162.699" y="55.406" fill="#1D1D1B" width="156.766" height="0.264"/>
<rect x="162.699" y="59.41" fill="#1D1D1B" width="156.766" height="0.264"/>
<rect x="162.699" y="63.414" fill="#1D1D1B" width="156.766" height="0.263"/>
</svg>
