<svg id="graphical-elements-cropping" baseProfile="tiny" xmlns="http://www.w3.org/2000/svg" viewBox="0 0 303.3 216.3">
  <path fill="#FFF" d="M2.8 3h297.6v210.5H2.8z"/>
  <path fill="#FFF" d="M3 145.3h25.5v68H3zM102.1 14.4c-8.7 0-16.3-4.5-20.7-11.4h-3.8v36h49v174.3h173.8V3.1H122.8c-4.4 6.8-12 11.3-20.7 11.3z"/>
  <path fill="#FFF" d="M3 213.3v-68h-.2v68.1h25.7v-.1"/>
  <path fill="#010202" d="M3 213.3v-68h-.2v68.1h25.7v-.1"/>
  <path fill="#FFF" d="M122.8 3.1h177.6v210.2H126.6v.1h173.9V3H122.8v.1z"/>
  <path fill="#010202" d="M122.8 3.1h177.6v210.2H126.6v.1h173.9V3H122.8v.1z"/>
  <path fill="#FFF" d="M81.4 3.1l-.1-.1h-3.8v.1h3.9z"/>
  <path fill="#010202" d="M81.4 3.1l-.1-.1h-3.8v.1h3.9z"/>
  <path fill="#FFF" d="M102.1 14.4c8.7 0 16.3-4.5 20.7-11.4H81.4c4.3 6.9 12 11.4 20.7 11.4z"/>
  <path fill="#010202" d="M102.1 14.4c8.7 0 16.3-4.5 20.7-11.4H81.4c4.3 6.9 12 11.4 20.7 11.4z"/>
  <path fill="#FFF" d="M77.5 39V3.1H3v142.2h25.5v68h98.1V39"/>
  <path fill="#010202" d="M77.5 39V3.1H3v142.2h25.5v68h98.1V39"/>
  <path fill="#FFF" d="M28.5 213.3h98.1v.1H28.5z"/>
  <path fill="#010202" d="M28.5 213.3h98.1v.1H28.5z"/>
  <path fill="#010202" d="M28.5 213.3h98.1v.1H28.5z"/>
  <path fill="#FFF" d="M122.8 3.1l.1-.1H81.3l.1.1h41.4z"/>
  <path fill="#010202" d="M122.8 3.1l.1-.1H81.3l.1.1h41.4z"/>
  <path fill="#010202" d="M122.8 3.1l.1-.1H81.3l.1.1h41.4z"/>
  <path fill="#FFF" d="M3 3.1h74.5V3H2.8v142.3H3"/>
  <path fill="#010202" d="M3 3.1h74.5V3H2.8v142.3H3"/>
  <path fill="#010202" d="M3 3.1h74.5V3H2.8v142.3H3"/>
  <g>
    <path fill="#010202" d="M8.5 166.2l-.6-.4h.6v.4zm0-.6v.1h-.7v.1l.7.4h.1v-.5h.2v-.1H8.5zm.4.9l-.1.2h-1v.3h.1v-.2h.9v.3h.1v-.6zm-.3 1s.1 0 0 0c.1 0 .1.1.1.1v.2l-.1.1H8l-.1-.1v-.2l.1-.1h.6zm0-.1H8h-.1l-.1.1v.4l.1.1H8.7l.1-.1V167.6v-.1s0-.1-.2-.1c.1 0 .1 0 0 0m-.5.9H8h-.1l-.1.1v.4l.1.1H8v-.1l-.1-.1v-.2l.1-.1h.1s.1 0 .1.1l.2.4c0 .1.1.1.2.1h.3v-.6h-.1v.5h-.2s-.1 0-.1-.1l-.2-.4c0-.1-.1-.1-.2-.1m.8 1.3l-.1.5h-.4v-.5h-.1v.5h-.4v-.5h-.1v.6h1.1v-.6zm0 .9H7.8v.1h.9l-.9.4v.1h1.1v-.1H8l.9-.5zm-.3.9h-.8v.1h.8l.1.1v.2l-.1.1h-.8v.1h.9l.1-.1V171.6v-.1s-.1-.1-.2-.1c.1 0 .1 0 0 0m0 1h-.8v.1h.8l.1.1v.1l-.1.1v.1h.1l.1-.1v-.2-.1s-.1-.1-.2-.1c.1 0 .1 0 0 0m.3.8l-.1.5h-.4v-.5h-.1v.5h-.4v-.5h-.1v.6h1.1v-.6zm-1 .8l-.1.7h.1v-.3h1v-.1h-1v-.3zm.6 1.3l-.6-.2.6-.2v.4zm.4-.5v-.1l-1.1.3v.2l1.1.4v-.1l-.2-.1v-.5l.2-.1zm-.9 1h.6l.1.1v.4h-.8v-.4l.1-.1m.6-.1H8h-.1l-.1.1v.6h1.1v-.5-.1c-.1 0-.2-.1-.3-.1.1 0 0 0 0 0m.3 1.4H7.8v.1h.5v.5h-.5v.1h1.1v-.1h-.5v-.5h.5v-.1zm-1 .9l-.1.7h.1v-.3h1v-.1h-1v-.3zm1 .9H7.8v.1h1.1v-.1zm-1.1.3v.1l.9.2-.9.2v.1l.9.2-.9.2v.1l1.1-.2v-.1l-.9-.2.9-.2v-.1l-1.1-.3zm1.1 1.7l-.1.5h-.4v-.5h-.1v.5h-.4v-.5h-.1v.6h1.1v-.6zm-.7 1c.1 0 .1.1.1.1v.4h-.4v-.4l.1-.1h.2zm0-.1H8h-.1l-.1.1v.6h1.1v-.1h-.5v-.3l.5-.3v-.1l-.5.3v-.1c-.1 0-.1-.1-.2-.1m.7 1l-.1.5h-.4v-.5h-.1v.5h-.4v-.5h-.1v.6h1.1v-.6zm0 .8H7.8v.1h.5v.5h-.5v.1h1.1v-.1h-.5v-.5h.5v-.1zm-.3 1.4h-.1c-.1 0-.1 0-.2.1l-.1.5s0 .1-.1.1H8l-.1-.1v-.2l.1-.1v-.1h-.1l-.1.1v.5l.1.1h.2c.1 0 .1 0 .2-.1l.1-.5s0-.1.1-.1h.1l.1.1v.3l-.1.1v.1h.1l.1-.1v-.4-.1c0-.1-.1-.2-.2-.2.1 0 .1 0 0 0m.3 1l-.1.5h-.4v-.5h-.1v.5h-.4v-.5h-.1v.6h1.1v-.6zm0 .8H7.8v.1l.6.3-.6.3v.1h1.1v-.1h-1l.7-.3v-.1l-.7-.3h1zm-.3 1.3c.1 0 .1.1.1.1v.3l-.1.1H8l-.1-.1v-.3l.1-.1h.6zm0-.1H8h-.1l-.1.1v.5l.1.1H8.7l.1-.1v-.4-.1s-.1-.1-.2-.1c.1 0 .1 0 0 0m.1.9v.1l.1.1v.2l-.1.1H8l-.1-.1v-.2l.1-.1v-.1h-.1l-.1.1v.4l.1.1H8.7l.1-.1V189.1v-.1l-.1-.1m.2 1.4l-.1.5h-.4v-.5h-.1v.5h-.4v-.5h-.1v.6h1.1v-.6zm0 .8l-.1.5h-1v.1h1.1v-.6zm-1 .8l-.1.7h.1v-.3h1v-.1h-1v-.3zm1 .9H7.8v.1h1.1v-.1zm-1 .3l-.1.7h.1v-.3h1v-.1h-1v-.3zm1 1.3H7.8v.1h.9l-.9.5v.1h1.1v-.1H8l.9-.5v-.1zm-.3 1c.1 0 .1.1.1.1v.3l-.1.1H8l-.1-.1v-.3l.1-.1h.6zm0-.1H8h-.1l-.1.1v.5l.1.1H8.7l.1-.1v-.4-.1s-.1 0-.2-.1c.1 0 .1 0 0 0m.3 1H7.8v.1h1.1v-.1zm-.3.4h-.1c-.1 0-.1 0-.2.1l-.1.5s0 .1-.1.1H8l-.1-.1v-.2l.1-.1v-.1h-.1l-.1.1v.5l.1.1h.2c.1 0 .1 0 .2-.1l.1-.5s0-.1.1-.1h.1l.1.1v.3l-.1.1v.1h.1l.1-.1v-.4-.1c0-.1-.1-.2-.2-.2.1 0 .1 0 0 0m0 .9h-.1c-.1 0-.1 0-.2.1l-.1.5s0 .1-.1.1H8l-.1-.1v-.2l.1-.1v-.1h-.1l-.1.1v.5l.1.1h.2c.1 0 .1 0 .2-.1l.1-.5s0-.1.1-.1h.1l.1.1v.3l-.1.1v.1h.1l.1-.1v-.4-.1c0-.1-.1-.1-.2-.2.1 0 .1 0 0 0m.3 1H7.8v.1h1.1v-.1zm0 .4H7.8v.1l.6.3-.6.3v.1h1.1v-.1h-1l.7-.3v-.1l-.7-.3h1zm-.3 1.2s.1 0 0 0c.1 0 .1.1.1.1v.4h-.3v-.4l.1-.1h.1zm-.4 0c.1 0 .1.1.1.1v.4h-.4v-.4l.1-.1h.2zm.4-.1h-.1-.1s-.1 0-.1.1l-.1-.1H8h-.1l-.1.1v.6h1.1v-.5-.1c-.1 0-.2-.1-.3-.1.1 0 .1 0 0 0m0 1h-.8v.1h.8l.1.1v.2l-.1.1h-.8v.1h.9l.1-.1V201.3v-.1s-.1-.1-.2-.1c.1 0 .1 0 0 0m0 .9h-.1c-.1 0-.1 0-.2.1l-.1.5s0 .1-.1.1H8l-.1-.1v-.2l.1-.1v-.1h-.1l-.1.1v.5l.1.1h.2c.1 0 .1 0 .2-.1l.1-.5s0-.1.1-.1h.1l.1.1v.3l-.1.1v.1h.1l.1-.1v-.4-.1c0-.1-.1-.2-.2-.2.1 0 .1 0 0 0"/>
  </g>
  <path fill="#010202" d="M8.3 107.5h-.6l.6-1v1zm.5.2v-.3h-.2V106h-.4l-.9 1.4v.2h1v.5h.3v-.5h.2z"/>
  <g fill="#010202">
    <path d="M295.9 197.1h-1v.1h.9l-.9.5v.1h1v-.1h-.9l.9-.5v-.1zm-.3 1c.1 0 .1.1.1.1v.3l-.1.1h-.6l-.1-.1v-.3l.1-.1h.6zm0-.1h-.6-.1l-.1.1v.5l.1.1H295.7l.1-.1v-.4-.1c0 .1-.1 0-.2-.1.1 0 .1 0 0 0m.3 1h-1v.1h1v-.1zm-1 .3l-.1.7h.1v-.3h1v-.1h-1v-.3zm.8.9v.1l.1.1v.2l-.1.1h-.7l-.1-.1v-.2l.1-.1v-.1h-.1l-.1.1v.4l.1.1H295.7l.1-.1V200.4v-.1l-.1-.1m.2 1l-.1.5h-.4v-.5h-.1v.5h-.4v-.5h-.1v.6h1v-.6zm-.3.8h-.1c-.1 0-.1 0-.2.1l-.1.5s0 .1-.1.1h-.1l-.1-.1v-.2l.1-.1v-.1h-.1l-.1.1v.5l.1.1h.2c.1 0 .1 0 .2-.1l.1-.5s0-.1.1-.1h.1l.1.1v.3l-.1.1v.1h.1l.1-.1v-.4-.1c0-.1-.1-.2-.2-.2.1 0 .1 0 0 0M295.8 107.8v-.4c0-.1 0-.1-.1-.2l-.2-.2c-.1 0-.1-.1-.2-.1h-.5v-.5h.9v-.3h-1.2v1.1h.8c.1 0 .1.1.1.1v.4l-.1.1h-.4c-.1 0-.1-.1-.2-.2v-.1l-.3.1c0 .1.1.2.1.2.1.1.3.3.4.3h.4c.1 0 .2 0 .2-.1 0 0 .2-.1.2-.2 0 .1.1 0 .1 0M265.5 176.8h-.4v1.8h3v-.4h-1.3v-1.4h-.4v1.4h-.9v-1.4zm2.7 2.6h-.4v1.4h-.9v-1.3h-.4v1.3h-.9v-1.4h-.4v1.8h3v-1.8zm0 2.5h-3v.4h3v-.4zm-2 1.6c.1 0 .1 0 0 0 .1 0 .3.2.3.3v1h-1v-1c0-.1.2-.2.2-.2h.5zm2-.6l-1.3.7c0-.1 0-.2-.1-.2 0-.1-.2-.2-.3-.3-.1-.1-.2-.1-.3-.1h-.4c-.1 0-.2 0-.3.1-.1 0-.2.2-.3.3-.1.1-.1.2-.1.3v1.4h3v-.4h-1.3v-.7l1.3-.7v-.4zm-.7 3.4c.1 0 .3.2.3.3v1h-.9v-1c0-.1.1-.2.2-.2h.4zm-1.3 0c.1 0 .3.2.3.3v1h-.9v-1c0-.1.2-.2.2-.3h.4zm1.3-.4h-.4c-.2 0-.3.1-.5.2-.1-.2-.2-.2-.5-.2h-.4c-.1 0-.2 0-.3.1-.1 0-.2.2-.3.3-.1.1-.1.2-.1.3v1.4h3v-1.4c0-.1 0-.2-.1-.3 0-.1-.2-.2-.3-.3.1-.1 0-.1-.1-.1m.7 3.9h-3v.4h2.3l-2.3 1.3v.5h3v-.4h-2.3l2.3-1.3v-.5zm0 2.9h-3v.4h3v-.4zm0 2.3h-3v.4h2.3l-2.3 1.3v.5h3v-.4h-2.3l2.3-1.3v-.5zm-3 2.6v.4l2.6.8-2.6.8v.4l3-1v-.5l-3-.9zm2.3 3.3c.1 0 .3.2.3.3v1h-.9v-1c0-.1.1-.2.2-.2h.4zm-1.3 0c.1 0 .3.2.3.3v1h-.9v-1c0-.1.2-.2.2-.3h.4zm1.3-.4h-.4c-.2 0-.3.1-.5.2-.1-.2-.2-.2-.5-.2h-.4c-.1 0-.2 0-.3.1-.1 0-.2.2-.3.3-.1.1-.1.2-.1.3v1.4h3v-1.4c0-.1 0-.2-.1-.3 0-.1-.2-.2-.3-.3.1-.1 0-.1-.1-.1M260.6 103.7h-10.5v1h9l-9 4.5v1.3h10.5v-1h-9l9-4.6v-1.2zm-2.3 10.5c.1 0 .2 0 .2.1.4.2 1 .8 1.1 1.1 0 .1.1.1.1.2v2.6c0 .1 0 .2-.1.2-.1.3-.7.9-1.1 1.1-.1 0-.1.1-.2.1h-5.9c-.1 0-.2 0-.3-.1-.4-.2-1-.8-1.1-1.1 0-.1-.1-.1-.1-.2v-2.6c0-.1 0-.2.1-.2.1-.3.7-.9 1.1-1.1.1 0 .2-.1.3-.1h5.9zm.1-1h-6c-.3 0-.6.1-.9.2-.3.2-1 .9-1.2 1.2-.2.2-.3.6-.3.9v2.8c0 .3.1.6.3.9.2.3.9 1 1.2 1.2.2.2.6.2.9.2h6c.3 0 .6-.1.9-.2.3-.2 1-.9 1.2-1.2.2-.2.3-.6.3-.9v-2.8c0-.3-.1-.7-.3-.9-.2-.3-.9-1-1.2-1.2-.3-.1-.6-.2-.9-.2m2.2 10.1h-10.5v1h10.5v-1zm-9.5 2.9h-1v7h1v-3h9.5v-1h-9.5v-3zm7.5 8.5l-.3 1c.5.2 1.1.8 1.3 1.2 0 .1.1.2.1.2v2.2c0 .1 0 .2-.1.2-.1.3-.7.9-1.1 1.1-.1 0-.1.1-.2.1h-5.9c-.1 0-.2 0-.2-.1-.4-.2-1-.8-1.1-1.1 0-.1-.1-.1-.1-.2v-2.2c0-.1 0-.2.1-.2.2-.4.8-1 1.3-1.2l-.3-1c-.2.1-.5.3-.7.4-.3.2-.9.7-1.1 1.1-.2.2-.3.6-.3.9v2.3c0 .3.1.6.3.9.2.3.9 1 1.2 1.2.2.2.5.2.8.2h6c.3 0 .6-.1.8-.2.3-.2 1-.9 1.2-1.2.2-.2.3-.6.3-.9v-2.3c0-.3-.1-.6-.3-.9-.2-.4-.8-.8-1.1-1.1-.1-.1-.3-.3-.6-.4m-.2 9.6h-8.3v1h8.2c.1 0 .2 0 .2.1.4.2 1 .8 1.1 1.1 0 .1.1.1.1.2v2.2c0 .1 0 .2-.1.2-.1.3-.7.9-1.1 1.1-.1 0-.1.1-.2.1h-8.2v1h8.3c.3 0 .6-.1.8-.2.3-.2 1-.9 1.2-1.2.2-.2.3-.6.3-.9v-2.3c0-.3-.1-.6-.3-.9-.2-.3-.9-1-1.2-1.2-.2-.3-.5-.3-.8-.3m-5.9 10.6h5.8c.1 0 .2 0 .2.1.4.2 1 .8 1.1 1.1 0 .1.1.1.1.2v3.5h-8.5v-3.5c0-.1 0-.2.1-.2.1-.3.7-.9 1.1-1.1-.1-.1 0-.1.1-.1m5.8-1.1h-5.8c-.3 0-.6.1-.8.2-.3.2-1 .9-1.2 1.2-.2.2-.3.6-.3.9v4.6h10.5v-4.6c0-.3-.1-.6-.3-.9-.2-.3-.9-1-1.2-1.2-.3-.1-.6-.2-.9-.2m0 10.6c.1 0 .2 0 .2.1.4.2 1 .8 1.1 1.1 0 .1.1.1.1.2v2.6c0 .1 0 .2-.1.2-.1.3-.7.9-1.1 1.1-.1 0-.1.1-.2.1h-5.9c-.1 0-.2 0-.3-.1-.4-.2-1-.8-1.1-1.1 0-.1-.1-.1-.1-.2v-2.6c0-.1 0-.2.1-.2.1-.3.7-.9 1.1-1.1.1 0 .2-.1.3-.1h5.9zm.1-1h-6c-.3 0-.6.1-.9.2-.3.2-1 .9-1.2 1.2-.2.2-.3.6-.3.9v2.8c0 .3.1.6.3.9.2.3.9 1 1.2 1.2.2.2.6.2.9.2h6c.3 0 .6-.1.9-.2.3-.2 1-.9 1.2-1.2.2-.2.3-.6.3-.9v-2.8c0-.3-.1-.7-.3-.9-.2-.3-.9-1-1.2-1.2-.3-.2-.6-.2-.9-.2m-4.6 11h.3c.3.2.7.6.8.9.1.1.1.2.1.3v3.7h-3.9v-3.7c0-.1 0-.2.1-.3.2-.3.6-.7.9-.9h1.7zm0-1h-1.5c-.3 0-.6.1-.9.3-.2.1-.8.7-.9.9-.2.3-.3.7-.3 1v4.7h10.5v-1H256v-2.6l4.6-2.6v-1.2l-4.6 2.6c0-.3-.1-.7-.3-1-.2-.2-.7-.8-.9-.9-.3-.1-.6-.2-1-.2m-2.7 8.9h-1v7h1v-3h9.5v-1h-9.5v-3zm9.5 9h-10.5v1h9l-9 4.5v1.3h10.5v-1h-9l9-4.6v-1.2zm0 9.6h-10.5v1h10.5v-1z"/>
  </g>
  <path fill="none" stroke="#010202" stroke-width=".25" d="M151.7 2.8v210.8"/>
</svg>
