<?xml version="1.0" encoding="utf-8"?>
<!-- Generator: Adobe Illustrator 18.1.1, SVG Export Plug-In . SVG Version: 6.00 Build 0)  -->
<svg version="1.1" id="Layer_1" xmlns="http://www.w3.org/2000/svg" xmlns:xlink="http://www.w3.org/1999/xlink" x="0px" y="0px"
	 viewBox="0 0 320 65.019" enable-background="new 0 0 320 65.019" xml:space="preserve">
<rect y="0" fill="#ffffff" width="320.315" height="65.019"/>
<rect x="2.562" y="28.654" fill="#c5d9f1" width="156.66" height="4.056"/>
<rect x="162.541" y="28.654" fill="#c5d9f1" width="156.818" height="4.056"/>
<rect x="2.562" y="44.668" fill="#c5d9f1" width="156.66" height="4.056"/>
<rect x="162.541" y="44.668" fill="#c5d9f1" width="156.818" height="4.056"/>
<rect x="0.072" y="0" fill="none" width="319.393" height="65.019"/>
<text transform="matrix(1 0 0 1 2.9305 3.3688)"><tspan x="0" y="0" fill="#1d1d1b" font-family="'Arial'" font-size="2.6865">AM-0</tspan><tspan x="6.418" y="0" fill="#1d1d1b" font-family="'Arial'" font-size="2.6865" letter-spacing="5">7</tspan><tspan x="13.484" y="0" fill="#1d1d1b" font-family="'Arial'" font-size="2.6865">Accessible WC Grab rails</tspan></text>
<text transform="matrix(1 0 0 1 112.4942 3.3688)" fill="#1d1d1b" font-family="'Arial'" font-size="2.6865"> Metalwork</text>
<text transform="matrix(1 0 0 1 143.1501 3.3688)"><tspan x="0" y="0" fill="#1d1d1b" font-family="'Arial'" font-size="2.6865">05-80</tspan><tspan x="6.871" y="0" fill="#1d1d1b" font-family="'Arial'" font-size="2.6865" letter-spacing="11">0</tspan><tspan x="19.909" y="0" fill="#1d1d1b" font-family="'Arial'" font-size="2.6865">AM-2</tspan><tspan x="26.327" y="0" fill="#1d1d1b" font-family="'Arial'" font-size="2.6865" letter-spacing="5">3</tspan><tspan x="33.394" y="0" fill="#1d1d1b" font-family="'Arial'" font-size="2.6865">Coathook</tspan></text>
<text transform="matrix(1 0 0 1 272.623 3.3688)" fill="#1d1d1b" font-family="'Arial'" font-size="2.6865"> Metalwork</text>
<text transform="matrix(1 0 0 1 303.2891 3.4225)" fill="#1d1d1b" font-family="'Arial'" font-size="2.6865">05-800</text>
<text transform="matrix(1 0 0 1 2.9277 7.3742)"><tspan x="0" y="0" fill="#1d1d1b" font-family="'Arial'" font-size="2.6865">AM-0</tspan><tspan x="6.418" y="0" fill="#1d1d1b" font-family="'Arial'" font-size="2.6865" letter-spacing="5">9</tspan><tspan x="13.484" y="0" fill="#1d1d1b" font-family="'Arial'" font-size="2.6865">Curtain Track</tspan></text>
<text transform="matrix(1 0 0 1 107.7527 7.3742)"><tspan x="0" y="0" fill="#1d1d1b" font-family="'Arial'" font-size="2.6865">Window Covering</tspan><tspan x="21.053" y="0" fill="#1d1d1b" font-family="'Arial'" font-size="2.6865" letter-spacing="13">s</tspan><tspan x="35.398" y="0" fill="#1d1d1b" font-family="'Arial'" font-size="2.6865">06-20</tspan><tspan x="42.27" y="0" fill="#1d1d1b" font-family="'Arial'" font-size="2.6865" letter-spacing="11">0</tspan><tspan x="55.308" y="0" fill="#1d1d1b" font-family="'Arial'" font-size="2.6865">AM-2</tspan><tspan x="61.726" y="0" fill="#1d1d1b" font-family="'Arial'" font-size="2.6865" letter-spacing="5">4</tspan><tspan x="68.792" y="0" fill="#1d1d1b" font-family="'Arial'" font-size="2.6865">Hook: Equipment </tspan></text>
<text transform="matrix(1 0 0 1 272.6208 7.3742)" fill="#1d1d1b" font-family="'Arial'" font-size="2.6865"> Metalwork</text>
<text transform="matrix(1 0 0 1 303.2891 7.4279)" fill="#1d1d1b" font-family="'Arial'" font-size="2.6865">05-800</text>
<text transform="matrix(1 0 0 1 2.9277 11.38)"><tspan x="0" y="0" fill="#1d1d1b" font-family="'Arial'" font-size="2.6865">AM-1</tspan><tspan x="6.418" y="0" fill="#1d1d1b" font-family="'Arial'" font-size="2.6865" letter-spacing="5">1</tspan><tspan x="13.484" y="0" fill="#1d1d1b" font-family="'Arial'" font-size="2.6865">Metal shelving</tspan></text>
<text transform="matrix(1 0 0 1 112.4915 11.38)" fill="#1d1d1b" font-family="'Arial'" font-size="2.6865"> Metalwork</text>
<text transform="matrix(1 0 0 1 143.1474 11.38)"><tspan x="0" y="0" fill="#1d1d1b" font-family="'Arial'" font-size="2.6865">05-80</tspan><tspan x="6.871" y="0" fill="#1d1d1b" font-family="'Arial'" font-size="2.6865" letter-spacing="11">0</tspan><tspan x="19.909" y="0" fill="#1d1d1b" font-family="'Arial'" font-size="2.6865">AM-2</tspan><tspan x="26.327" y="0" fill="#1d1d1b" font-family="'Arial'" font-size="2.6865" letter-spacing="5">5</tspan><tspan x="33.394" y="0" fill="#1d1d1b" font-family="'Arial'" font-size="2.6865">Hook: Catheter Bag </tspan></text>
<text transform="matrix(1 0 0 1 272.6208 11.38)" fill="#1d1d1b" font-family="'Arial'" font-size="2.6865"> Metalwork</text>
<text transform="matrix(1 0 0 1 303.2869 11.4337)" fill="#1d1d1b" font-family="'Arial'" font-size="2.6865">05-800</text>
<text transform="matrix(1 0 0 1 2.9256 15.3854)"><tspan x="0" y="0" fill="#1d1d1b" font-family="'Arial'" font-size="2.6865">AM-1</tspan><tspan x="6.418" y="0" fill="#1d1d1b" font-family="'Arial'" font-size="2.6865" letter-spacing="5">2</tspan><tspan x="13.484" y="0" fill="#1d1d1b" font-family="'Arial'" font-size="2.6865">Folding shower seat</tspan></text>
<text transform="matrix(1 0 0 1 112.4888 15.3854)" fill="#1d1d1b" font-family="'Arial'" font-size="2.6865"> Metalwork</text>
<text transform="matrix(1 0 0 1 143.1442 15.3854)"><tspan x="0" y="0" fill="#1d1d1b" font-family="'Arial'" font-size="2.6865">05-80</tspan><tspan x="6.871" y="0" fill="#1d1d1b" font-family="'Arial'" font-size="2.6865" letter-spacing="11">0</tspan><tspan x="19.909" y="0" fill="#1d1d1b" font-family="'Arial'" font-size="2.6865">AM-2</tspan><tspan x="26.327" y="0" fill="#1d1d1b" font-family="'Arial'" font-size="2.6865" letter-spacing="5">6</tspan><tspan x="33.394" y="0" fill="#1d1d1b" font-family="'Arial'" font-size="2.6865">Hook: IV Flask </tspan></text>
<text transform="matrix(1 0 0 1 272.6208 15.3854)" fill="#1d1d1b" font-family="'Arial'" font-size="2.6865"> Metalwork</text>
<text transform="matrix(1 0 0 1 303.2869 15.4396)" fill="#1d1d1b" font-family="'Arial'" font-size="2.6865">05-800</text>
<text transform="matrix(1 0 0 1 2.9256 19.3907)"><tspan x="0" y="0" fill="#1d1d1b" font-family="'Arial'" font-size="2.6865">AM-1</tspan><tspan x="6.418" y="0" fill="#1d1d1b" font-family="'Arial'" font-size="2.6865" letter-spacing="5">3</tspan><tspan x="13.484" y="0" fill="#1d1d1b" font-family="'Arial'" font-size="2.6865">Horizontal Wall Mounted Baby Change Table</tspan></text>
<text transform="matrix(1 0 0 1 112.4834 19.3907)" fill="#1d1d1b" font-family="'Arial'" font-size="2.6865"> Metalwork</text>
<text transform="matrix(1 0 0 1 143.1394 19.3907)"><tspan x="0" y="0" fill="#1d1d1b" font-family="'Arial'" font-size="2.6865">05-80</tspan><tspan x="6.871" y="0" fill="#1d1d1b" font-family="'Arial'" font-size="2.6865" letter-spacing="11">0</tspan><tspan x="19.909" y="0" fill="#1d1d1b" font-family="'Arial'" font-size="2.6865">AM-2</tspan><tspan x="26.327" y="0" fill="#1d1d1b" font-family="'Arial'" font-size="2.6865" letter-spacing="5">7</tspan><tspan x="33.394" y="0" fill="#1d1d1b" font-family="'Arial'" font-size="2.6865">Utility Wall shelf</tspan></text>
<text transform="matrix(1 0 0 1 272.6122 19.3907)" fill="#1d1d1b" font-family="'Arial'" font-size="2.6865"> Metalwork</text>
<text transform="matrix(1 0 0 1 303.2842 19.4449)" fill="#1d1d1b" font-family="'Arial'" font-size="2.6865">05-800</text>
<text transform="matrix(1 0 0 1 2.9229 23.3966)"><tspan x="0" y="0" fill="#1d1d1b" font-family="'Arial'" font-size="2.6865">AM-1</tspan><tspan x="6.418" y="0" fill="#1d1d1b" font-family="'Arial'" font-size="2.6865" letter-spacing="5">4</tspan><tspan x="13.484" y="0" fill="#1d1d1b" font-family="'Arial'" font-size="2.6865">Vertical Wall Mounted Baby Change Table.</tspan></text>
<text transform="matrix(1 0 0 1 112.4834 23.3966)" fill="#1d1d1b" font-family="'Arial'" font-size="2.6865"> Metalwork</text>
<text transform="matrix(1 0 0 1 143.1394 23.3966)"><tspan x="0" y="0" fill="#1d1d1b" font-family="'Arial'" font-size="2.6865">05-80</tspan><tspan x="6.871" y="0" fill="#1d1d1b" font-family="'Arial'" font-size="2.6865" letter-spacing="11">0</tspan><tspan x="19.909" y="0" fill="#1d1d1b" font-family="'Arial'" font-size="2.6865">AM-2</tspan><tspan x="26.327" y="0" fill="#1d1d1b" font-family="'Arial'" font-size="2.6865" letter-spacing="5">8</tspan><tspan x="33.394" y="0" fill="#1d1d1b" font-family="'Arial'" font-size="2.6865">Rack - Pan &amp; Bottle</tspan></text>
<text transform="matrix(1 0 0 1 272.6149 23.3966)" fill="#1d1d1b" font-family="'Arial'" font-size="2.6865"> Metalwork</text>
<text transform="matrix(1 0 0 1 303.2842 23.4508)" fill="#1d1d1b" font-family="'Arial'" font-size="2.6865">05-800</text>
<g>
	<text transform="matrix(1 0 0 1 147.0448 27.4025)" fill="#1d1d1b" font-family="'Arial'" font-size="2.6865">.</text>
	<text transform="matrix(1 0 0 1 118.7056 27.4025)" fill="#1d1d1b" font-family="'Arial'" font-size="2.6865">.</text>
</g>
<g>
	<text transform="matrix(1 0 0 1 307.1902 27.3895)" fill="#1d1d1b" font-family="'Arial'" font-size="2.6865">.</text>
	<text transform="matrix(1 0 0 1 278.8505 27.3895)" fill="#1d1d1b" font-family="'Arial'" font-size="2.6865">.</text>
</g>
<rect x="0.072" y="0" fill="none" width="319.393" height="65.019"/>
<text transform="matrix(1 0 0 1 16.4154 31.4464)" fill="#1d1d1b" font-family="'Arial'" font-weight="bolder" font-size="2.6865">Balustrades/ Handrails</text>
<text transform="matrix(1 0 0 1 118.6074 31.4464)" fill="#1d1d1b" font-family="'Arial'" font-weight="bolder" font-size="2.6865">.</text>
<text transform="matrix(1 0 0 1 146.9471 31.4464)" fill="#1d1d1b" font-family="'Arial'" font-weight="bolder" font-size="2.6865">.</text>
<text transform="matrix(1 0 0 1 176.5527 31.4464)" fill="#1d1d1b" font-family="'Arial'" font-weight="bolder" font-size="2.6865">Balustrades/ Handrails</text>
<text transform="matrix(1 0 0 1 278.7442 31.4464)" fill="#1d1d1b" font-family="'Arial'" font-weight="bolder" font-size="2.6865">.</text>
<text transform="matrix(1 0 0 1 307.0839 31.4464)" fill="#1d1d1b" font-family="'Arial'" font-weight="bolder" font-size="2.6865">.</text>
<text transform="matrix(1 0 0 1 2.932 35.3976)"><tspan x="0" y="0" fill="#1d1d1b" font-family="'Arial'" font-size="2.6865">HR-0</tspan><tspan x="6.269" y="0" fill="#1d1d1b" font-family="'Arial'" font-size="2.6865" letter-spacing="5">1</tspan><tspan x="13.482" y="0" fill="#1d1d1b" font-family="'Arial'" font-size="2.6865">Timber Handrail</tspan></text>
<text transform="matrix(1 0 0 1 112.6005 35.3976)" fill="#1d1d1b" font-family="'Arial'" font-size="2.6865"> Metalwork</text>
<text transform="matrix(1 0 0 1 143.2558 35.3976)"><tspan x="0" y="0" fill="#1d1d1b" font-family="'Arial'" font-size="2.6865">05-80</tspan><tspan x="6.871" y="0" fill="#1d1d1b" font-family="'Arial'" font-size="2.6865" letter-spacing="11">0</tspan><tspan x="19.805" y="0" fill="#1d1d1b" font-family="'Arial'" font-size="2.6865">TRM-0</tspan><tspan x="28.012" y="0" fill="#1d1d1b" font-family="'Arial'" font-size="2.6865" letter-spacing="3">2</tspan><tspan x="33.289" y="0" fill="#1d1d1b" font-family="'Arial'" font-size="2.6865">Integrated stainless steel nosing</tspan></text>
<text transform="matrix(1 0 0 1 272.7266 35.3976)" fill="#1d1d1b" font-family="'Arial'" font-size="2.6865"> Metalwork</text>
<text transform="matrix(1 0 0 1 303.3819 35.3976)" fill="#1d1d1b" font-family="'Arial'" font-size="2.6865">05-800</text>
<text transform="matrix(1 0 0 1 2.932 39.4007)"><tspan x="0" y="0" fill="#1d1d1b" font-family="'Arial'" font-size="2.6865">HR-0</tspan><tspan x="6.269" y="0" fill="#1d1d1b" font-family="'Arial'" font-size="2.6865" letter-spacing="5">2</tspan><tspan x="13.482" y="0" fill="#1d1d1b" font-family="'Arial'" font-size="2.6865">Integrated crashrail and handrail</tspan></text>
<text transform="matrix(1 0 0 1 112.4904 39.4007)" fill="#1d1d1b" font-family="'Arial'" font-size="2.6865"> Metalwork</text>
<text transform="matrix(1 0 0 1 143.1463 39.4007)"><tspan x="0" y="0" fill="#1d1d1b" font-family="'Arial'" font-size="2.6865">05-80</tspan><tspan x="6.871" y="0" fill="#1d1d1b" font-family="'Arial'" font-size="2.6865" letter-spacing="11">0</tspan><tspan x="19.909" y="0" fill="#1d1d1b" font-family="'Arial'" font-size="2.6865">TRM-0</tspan><tspan x="28.116" y="0" fill="#1d1d1b" font-family="'Arial'" font-size="2.6865" letter-spacing="3">3</tspan><tspan x="33.394" y="0" fill="#1d1d1b" font-family="'Arial'" font-size="2.6865">Tactile ground surface indicators</tspan></text>
<text transform="matrix(1 0 0 1 272.616 39.4007)" fill="#1d1d1b" font-family="'Arial'" font-size="2.6865"> Metalwork</text>
<text transform="matrix(1 0 0 1 303.2714 39.4007)" fill="#1d1d1b" font-family="'Arial'" font-size="2.6865">05-800</text>
<text transform="matrix(1 0 0 1 118.6074 43.4034)" fill="#1d1d1b" font-family="'Arial'" font-size="2.6865">.</text>
<text transform="matrix(1 0 0 1 278.7442 43.4034)" fill="#1d1d1b" font-family="'Arial'" font-size="2.6865">.</text>
<text transform="matrix(1 0 0 1 16.4154 47.4597)" fill="#1d1d1b" font-family="'Arial'" font-weight="bolder" font-size="2.6865">Blockwork</text>
<text transform="matrix(1 0 0 1 118.6074 47.4597)" fill="#1d1d1b" font-family="'Arial'" font-weight="bolder" font-size="2.6865">.</text>
<text transform="matrix(1 0 0 1 146.9471 47.4597)" fill="#1d1d1b" font-family="'Arial'" font-weight="bolder" font-size="2.6865">.</text>
<text transform="matrix(1 0 0 1 176.5527 47.4597)" fill="#1d1d1b" font-family="'Arial'" font-weight="bolder" font-size="2.6865">Blockwork</text>
<g>
	<text transform="matrix(1 0 0 1 307.085 47.4592)" fill="#1d1d1b" font-family="'Arial'" font-weight="bolder" font-size="2.6865">.</text>
	<text transform="matrix(1 0 0 1 278.7448 47.4592)" fill="#1d1d1b" font-family="'Arial'" font-weight="bolder" font-size="2.6865">.</text>
</g>
<rect x="0.072" y="0" fill="none" width="319.393" height="65.019"/>
<text transform="matrix(1 0 0 1 2.9304 51.4098)"><tspan x="0" y="0" fill="#1d1d1b" font-family="'Arial'" font-size="2.6865">BLK-0</tspan><tspan x="7.466" y="0" fill="#1d1d1b" font-family="'Arial'" font-size="2.6865" letter-spacing="4">1</tspan><tspan x="13.485" y="0" fill="#1d1d1b" font-family="'Arial'" font-size="2.6865">Face Block work - 190mm</tspan></text>
<text transform="matrix(1 0 0 1 112.5984 51.4098)" fill="#1d1d1b" font-family="'Arial'" font-size="2.6865">Block work</text>
<text transform="matrix(1 0 0 1 143.2537 51.4098)"><tspan x="0" y="0" fill="#1d1d1b" font-family="'Arial'" font-size="2.6865">03-65</tspan><tspan x="6.871" y="0" fill="#1d1d1b" font-family="'Arial'" font-size="2.6865" letter-spacing="11">0</tspan><tspan x="19.805" y="0" fill="#1d1d1b" font-family="'Arial'" font-size="2.6865">BLK-0</tspan><tspan x="27.271" y="0" fill="#1d1d1b" font-family="'Arial'" font-size="2.6865" letter-spacing="4">1</tspan><tspan x="33.289" y="0" fill="#1d1d1b" font-family="'Arial'" font-size="2.6865">Face Block work - 190mm</tspan></text>
<text transform="matrix(1 0 0 1 272.7276 51.4098)" fill="#1d1d1b" font-family="'Arial'" font-size="2.6865">Block work</text>
<text transform="matrix(1 0 0 1 303.3835 51.4098)" fill="#1d1d1b" font-family="'Arial'" font-size="2.6865">03-650</text>
<text transform="matrix(1 0 0 1 2.9272 55.413)"><tspan x="0" y="0" fill="#1d1d1b" font-family="'Arial'" font-size="2.6865">BLK-0</tspan><tspan x="7.466" y="0" fill="#1d1d1b" font-family="'Arial'" font-size="2.6865" letter-spacing="4">2</tspan><tspan x="13.485" y="0" fill="#1d1d1b" font-family="'Arial'" font-size="2.6865">Face Block work - 290mm</tspan></text>
<text transform="matrix(1 0 0 1 112.491 55.413)" fill="#1d1d1b" font-family="'Arial'" font-size="2.6865">Block work</text>
<text transform="matrix(1 0 0 1 143.1463 55.413)"><tspan x="0" y="0" fill="#1d1d1b" font-family="'Arial'" font-size="2.6865">03-65</tspan><tspan x="6.871" y="0" fill="#1d1d1b" font-family="'Arial'" font-size="2.6865" letter-spacing="11">0</tspan><tspan x="19.909" y="0" fill="#1d1d1b" font-family="'Arial'" font-size="2.6865">BLK-0</tspan><tspan x="27.376" y="0" fill="#1d1d1b" font-family="'Arial'" font-size="2.6865" letter-spacing="4">2</tspan><tspan x="33.394" y="0" fill="#1d1d1b" font-family="'Arial'" font-size="2.6865">Face Block work - 290mm</tspan></text>
<text transform="matrix(1 0 0 1 272.6192 55.413)" fill="#1d1d1b" font-family="'Arial'" font-size="2.6865">Block work</text>
<text transform="matrix(1 0 0 1 303.2761 55.413)" fill="#1d1d1b" font-family="'Arial'" font-size="2.6865">03-650</text>
<text transform="matrix(1 0 0 1 2.925 59.4156)"><tspan x="0" y="0" fill="#1d1d1b" font-family="'Arial'" font-size="2.6865">BLK-0</tspan><tspan x="7.466" y="0" fill="#1d1d1b" font-family="'Arial'" font-size="2.6865" letter-spacing="4">3</tspan><tspan x="13.485" y="0" fill="#1d1d1b" font-family="'Arial'" font-size="2.6865">Block Work</tspan></text>
<text transform="matrix(1 0 0 1 112.491 59.4156)" fill="#1d1d1b" font-family="'Arial'" font-size="2.6865">Block work</text>
<text transform="matrix(1 0 0 1 143.1463 59.4156)"><tspan x="0" y="0" fill="#1d1d1b" font-family="'Arial'" font-size="2.6865">03-65</tspan><tspan x="6.871" y="0" fill="#1d1d1b" font-family="'Arial'" font-size="2.6865" letter-spacing="11">0</tspan><tspan x="19.909" y="0" fill="#1d1d1b" font-family="'Arial'" font-size="2.6865">BLK-0</tspan><tspan x="27.376" y="0" fill="#1d1d1b" font-family="'Arial'" font-size="2.6865" letter-spacing="4">3</tspan><tspan x="33.394" y="0" fill="#1d1d1b" font-family="'Arial'" font-size="2.6865">Block Work</tspan></text>
<text transform="matrix(1 0 0 1 272.6219 59.4156)" fill="#1d1d1b" font-family="'Arial'" font-size="2.6865">Block work</text>
<text transform="matrix(1 0 0 1 303.2783 59.4156)" fill="#1d1d1b" font-family="'Arial'" font-size="2.6865">03-650</text>
<text transform="matrix(1 0 0 1 2.9304 63.421)"><tspan x="0" y="0" fill="#1d1d1b" font-family="'Arial'" font-size="2.6865">BLK-0</tspan><tspan x="7.466" y="0" fill="#1d1d1b" font-family="'Arial'" font-size="2.6865" letter-spacing="4">4</tspan><tspan x="13.485" y="0" fill="#1d1d1b" font-family="'Arial'" font-size="2.6865">Common Block work - 140mm</tspan></text>
<text transform="matrix(1 0 0 1 112.4931 63.421)" fill="#1d1d1b" font-family="'Arial'" font-size="2.6865">Block work</text>
<text transform="matrix(1 0 0 1 143.15 63.421)"><tspan x="0" y="0" fill="#1d1d1b" font-family="'Arial'" font-size="2.6865">03-65</tspan><tspan x="6.871" y="0" fill="#1d1d1b" font-family="'Arial'" font-size="2.6865" letter-spacing="11">0</tspan><tspan x="19.909" y="0" fill="#1d1d1b" font-family="'Arial'" font-size="2.6865">BLK-0</tspan><tspan x="27.376" y="0" fill="#1d1d1b" font-family="'Arial'" font-size="2.6865" letter-spacing="4">4</tspan><tspan x="33.394" y="0" fill="#1d1d1b" font-family="'Arial'" font-size="2.6865">Common Block work - 140mm</tspan></text>
<text transform="matrix(1 0 0 1 272.6219 63.421)" fill="#1d1d1b" font-family="'Arial'" font-size="2.6865">Block work</text>
<text transform="matrix(1 0 0 1 303.2783 63.421)" fill="#1d1d1b" font-family="'Arial'" font-size="2.6865">03-650</text>
<rect x="0.072" y="0" fill="none" width="319.393" height="65.019"/>
<rect x="2.562" y="0.524" fill="#1d1d1b" width="156.766" height="0.264"/>
<rect x="2.562" y="4.527" fill="#1d1d1b" width="156.766" height="0.264"/>
<rect x="2.562" y="8.531" fill="#1d1d1b" width="156.766" height="0.263"/>
<rect x="2.562" y="12.535" fill="#1d1d1b" width="156.766" height="0.264"/>
<rect x="2.562" y="16.538" fill="#1d1d1b" width="156.766" height="0.264"/>
<rect x="2.562" y="20.541" fill="#1d1d1b" width="156.766" height="0.264"/>
<rect x="2.562" y="24.545" fill="#1d1d1b" width="156.766" height="0.263"/>
<rect x="2.562" y="28.548" fill="#1d1d1b" width="156.766" height="0.264"/>
<rect x="2.562" y="32.551" fill="#1d1d1b" width="156.766" height="0.264"/>
<rect x="2.562" y="36.555" fill="#1d1d1b" width="156.766" height="0.264"/>
<rect x="2.562" y="40.559" fill="#1d1d1b" width="156.766" height="0.263"/>
<rect x="2.562" y="44.562" fill="#1d1d1b" width="156.766" height="0.263"/>
<rect x="2.562" y="48.565" fill="#1d1d1b" width="156.766" height="0.264"/>
<rect x="2.562" y="52.568" fill="#1d1d1b" width="156.766" height="0.264"/>
<rect x="2.562" y="56.573" fill="#1d1d1b" width="156.766" height="0.263"/>
<rect x="2.562" y="60.576" fill="#1d1d1b" width="156.766" height="0.263"/>
<rect x="2.562" y="64.579" fill="#1d1d1b" width="156.766" height="0.264"/>
<rect x="2.299" y="0" fill="#1d1d1b" width="0.263" height="65.019"/>
<rect x="15.784" y="0" fill="#1d1d1b" width="0.264" height="65.019"/>
<rect x="102.384" y="0" fill="#1d1d1b" width="0.264" height="65.019"/>
<rect x="135.254" y="0" fill="#1d1d1b" width="0.264" height="65.019"/>
<rect x="159.065" y="0" fill="#1d1d1b" width="0.263" height="65.019"/>
<rect x="162.436" y="0" fill="#1d1d1b" width="0.263" height="65.019"/>
<rect x="175.921" y="0" fill="#1d1d1b" width="0.264" height="65.019"/>
<rect x="262.521" y="0" fill="#1d1d1b" width="0.263" height="65.019"/>
<rect x="295.391" y="0" fill="#1d1d1b" width="0.264" height="65.019"/>
<rect x="319.202" y="0" fill="#1d1d1b" width="0.263" height="65.019"/>
<rect x="162.699" y="0.524" fill="#1d1d1b" width="156.766" height="0.264"/>
<rect x="162.699" y="4.527" fill="#1d1d1b" width="156.766" height="0.264"/>
<rect x="162.699" y="8.531" fill="#1d1d1b" width="156.766" height="0.263"/>
<rect x="162.699" y="12.535" fill="#1d1d1b" width="156.766" height="0.264"/>
<rect x="162.699" y="16.538" fill="#1d1d1b" width="156.766" height="0.264"/>
<rect x="162.699" y="20.541" fill="#1d1d1b" width="156.766" height="0.264"/>
<rect x="162.699" y="24.545" fill="#1d1d1b" width="156.766" height="0.263"/>
<rect x="162.699" y="28.548" fill="#1d1d1b" width="156.766" height="0.264"/>
<rect x="162.699" y="32.551" fill="#1d1d1b" width="156.766" height="0.264"/>
<rect x="162.699" y="36.555" fill="#1d1d1b" width="156.766" height="0.264"/>
<rect x="162.699" y="40.559" fill="#1d1d1b" width="156.766" height="0.263"/>
<rect x="162.699" y="44.562" fill="#1d1d1b" width="156.766" height="0.263"/>
<rect x="162.699" y="48.565" fill="#1d1d1b" width="156.766" height="0.264"/>
<rect x="162.699" y="52.568" fill="#1d1d1b" width="156.766" height="0.264"/>
<rect x="162.699" y="56.573" fill="#1d1d1b" width="156.766" height="0.263"/>
<rect x="162.699" y="60.576" fill="#1d1d1b" width="156.766" height="0.263"/>
<rect x="162.699" y="64.579" fill="#1d1d1b" width="156.766" height="0.264"/>
</svg>
