
<svg class="Layer_1" xmlns="http://www.w3.org/2000/svg" xmlns:xlink="http://www.w3.org/1999/xlink" x="0px" y="0px"
	  viewBox="0 0 10 3.813" enable-background="new 0 0 10 3.813" xml:space="preserve">
<g>
	<g>
		<path fill="#ffffff" d="M7.977,3.661c0,0,0.002-0.001,0.002,0H7.98l0.002,0.004l1.131-0.719c0-0.001,0-0.001,0-0.001l0.023-0.048
			c0-0.001,0-0.001,0-0.001c0.002,0,0.002,0,0.002,0l0.023,0.019l0.021-0.013V2.901H9.18V2.897l0.002-0.001c0,0,0,0,0.002,0.001
			l0.004,0.002l0.679-0.43L9.859,2.458l0.004-0.002l0.008,0.011l0.128-0.082V1.723L9.948,1.728V1.727L9.943,1.724l0.053-0.097
			c0-0.001,0.001-0.001,0.002-0.001s0.001,0,0.001,0.001V1.095H9.467L9.432,1.11V1.109H9.428L9.43,1.095H8.487l0.132,0.919
			c0,0.002,0,0.004-0.001,0.005S8.614,2.022,8.612,2.022H8.167l0.015,0.016L8.178,2.042L8.157,2.022H7.025l0.13,0.9L7.16,2.926
			c0.001,0,0.001,0.002,0.001,0.002c0,0.001-0.001,0.002-0.001,0.002L7.156,2.931l0.001,0.007c0,0.002,0,0.004-0.001,0.006
			C7.154,2.946,7.152,2.946,7.15,2.946H7.107L7.1,2.95l0,0c-0.002,0-0.002-0.001-0.002-0.003c0,0,0-0.001,0-0.002H6.121L6.111,2.95
			l0,0c0,0-0.002-0.001-0.002-0.003c0,0,0-0.001,0-0.002H5.747v0.472l0.001-0.001l0.007,0.011L5.751,3.429L5.747,3.422v0.1
			L5.749,3.52l0.007,0.014L5.752,3.536L5.747,3.526v0.287h2.002L7.973,3.67L7.977,3.661z M9.65,2.224L9.648,2.208h0.005l0.003,0.016
			H9.65z M9.96,2.261c0.001,0,0.001,0.001,0.001,0.002S9.96,2.265,9.96,2.265L9.898,2.283l0,0c-0.002,0-0.002,0-0.002-0.001
			c-0.002-0.002,0-0.002,0-0.003l0.022-0.048c0,0,0-0.001,0.001-0.001h0.001L9.96,2.261z M9.918,1.163
			C9.918,1.163,9.918,1.162,9.918,1.163C9.919,1.162,9.92,1.162,9.921,1.162l0.038,0.028c0.001,0,0.001,0.001,0.001,0.002
			c0,0,0,0.001-0.001,0.001L9.898,1.214l0,0c-0.002,0-0.002,0-0.002-0.001c-0.002-0.001,0-0.001,0-0.002L9.918,1.163z M9.867,1.505
			L9.859,1.493l0.005-0.002l0.007,0.012L9.867,1.505z M9.863,1.386L9.87,1.397L9.866,1.399L9.859,1.388L9.863,1.386z M9.788,2.465
			L9.78,2.454l0.004-0.003l0.007,0.013L9.788,2.465z M9.788,1.5L9.78,1.489l0.003-0.002l0.008,0.012L9.788,1.5z M9.783,1.381
			l0.009,0.012L9.788,1.396L9.779,1.383L9.783,1.381z M9.678,1.795H9.68l0.039,0.029c0,0,0.002,0.001,0.002,0.002L9.719,1.827
			L9.657,1.848c0,0,0,0-0.001,0s-0.001,0-0.001-0.001s-0.001-0.001,0-0.002l0.022-0.048C9.678,1.796,9.678,1.795,9.678,1.795z
			 M9.653,1.137l0.002,0.017H9.65L9.648,1.138L9.653,1.137z M9.457,1.794l0.008,0.011L9.461,1.808L9.454,1.797L9.457,1.794z
			 M9.441,2.069c0-0.001,0-0.002,0.002-0.002h0.002l0.068,0.07c0,0,0,0.001,0,0.002c0,0,0,0.001-0.002,0.001l-0.08,0.04V2.178H9.428
			L9.441,2.069z M9.18,1.934c0-0.001,0.002-0.001,0.002-0.002c0,0,0,0,0.002,0L9.223,1.96c0,0,0,0.001,0,0.002s0,0.001,0,0.002
			L9.182,1.977L9.18,1.974l0.037-0.012L9.184,1.938l0,0H9.18V1.934z M9.137,1.935c0-0.001,0.002-0.001,0.002-0.001s0,0,0.002,0
			L9.18,1.962c0,0,0,0.001,0,0.002s0,0.001,0,0.002L9.117,1.984c0,0,0,0-0.001,0s-0.001,0-0.001,0c0-0.001-0.001-0.002,0-0.002
			L9.137,1.935z M8.686,2.793l-0.06,0.019c0,0.001,0,0.001-0.001,0.001S8.624,2.812,8.623,2.811c0,0-0.001-0.001,0-0.002
			l0.021-0.048C8.646,2.76,8.646,2.76,8.646,2.76c0.002,0,0.002,0,0.002,0l0.039,0.03v0.002C8.688,2.792,8.688,2.793,8.686,2.793z
			 M8.621,2.224L8.619,2.208h0.004l0.002,0.017L8.621,2.224z M8.758,2.465L8.75,2.454l0.003-0.002l0.009,0.012L8.758,2.465z
			 M8.867,2.284c-0.001,0-0.001,0-0.002-0.001s0-0.001,0-0.003l0.023-0.048c0,0,0-0.001,0.002-0.001l0,0L8.93,2.261
			c0,0,0,0.001,0,0.002s0,0.002,0,0.002L8.867,2.284C8.868,2.284,8.867,2.284,8.867,2.284z M9.01,2.684H9.008L8.917,2.692V2.691
			L8.913,2.689l0.051-0.098C8.965,2.59,8.967,2.59,8.967,2.59s0.002,0,0.002,0.002l0.041,0.09C9.01,2.682,9.01,2.683,9.01,2.684z
			 M8.967,1.625c0,0,0.002,0,0.002,0.001l0.041,0.09c0,0.001,0,0.001,0,0.002S9.008,1.719,9.008,1.719L8.917,1.726v0.001
			L8.913,1.724l0.052-0.097C8.965,1.626,8.965,1.625,8.967,1.625z M8.889,1.163L8.889,1.163l0.002-0.001L8.93,1.191
			c0,0,0,0.001,0,0.002v0.001L8.868,1.214l0,0c-0.001,0-0.001,0-0.002-0.001s0-0.001,0-0.002L8.889,1.163z M8.832,1.387l0.007,0.011
			L8.836,1.4L8.829,1.389L8.832,1.387z M8.842,1.503L8.837,1.505L8.829,1.494l0.004-0.002L8.842,1.503z M8.832,2.456l0.007,0.012
			L8.836,2.47L8.829,2.459L8.832,2.456z M8.758,1.5L8.75,1.489l0.003-0.002l0.009,0.012L8.758,1.5z M8.752,1.382L8.76,1.393
			L8.756,1.396L8.749,1.384L8.752,1.382z M8.648,1.796c0,0,0,0,0.002,0l0.039,0.028c0,0,0,0.001,0,0.002v0.001L8.626,1.849
			c0,0,0,0-0.001,0s-0.001,0-0.001-0.001s-0.001-0.001,0-0.002l0.022-0.049C8.646,1.797,8.646,1.796,8.648,1.796z M8.618,1.138
			h0.004l0.002,0.017H8.62L8.618,1.138z M8.622,3.172l0.002,0.016L8.62,3.189L8.618,3.172H8.622z M5.828,3.42l0.007,0.011
			L5.831,3.434L5.824,3.422L5.828,3.42z M5.832,3.539L5.825,3.528l0.004-0.003l0.007,0.012L5.832,3.539z M5.862,3.249
			C5.862,3.249,5.861,3.249,5.862,3.249C5.859,3.247,5.859,3.247,5.861,3.245l0.021-0.048c0-0.001,0.002-0.002,0.002-0.002
			s0,0,0.002,0l0.039,0.029c0,0,0,0,0,0.002c0,0,0,0.001-0.002,0.002L5.862,3.249C5.863,3.249,5.863,3.249,5.862,3.249z
			 M6.004,3.752L6.004,3.752L5.913,3.761V3.76L5.908,3.758L5.96,3.66c0,0,0.001,0,0.002,0s0.001,0,0.002,0l0.04,0.09V3.752z
			 M6.467,3.106L6.385,3.145L6.383,3.143H6.378l0.017-0.108c0-0.001,0-0.002,0-0.002c0.002,0,0.002,0,0.002,0.001l0.068,0.069
			C6.467,3.104,6.467,3.104,6.467,3.106L6.467,3.106z M6.602,3.189L6.6,3.172h0.004l0.002,0.016L6.602,3.189z M6.734,3.416
			l0.008,0.013L6.739,3.43L6.73,3.418L6.734,3.416z M6.74,3.536L6.732,3.524l0.004-0.002l0.008,0.012L6.74,3.536z M6.814,3.42
			l0.008,0.011L6.818,3.434L6.811,3.422L6.814,3.42z M6.818,3.54L6.813,3.528l0.004-0.003l0.007,0.014L6.818,3.54z M6.85,3.249
			c0,0,0,0-0.002-0.001c0-0.001,0-0.001,0-0.003L6.87,3.198c0-0.001,0-0.002,0.001-0.002c0,0,0.001,0,0.002,0l0.038,0.029
			c0.001,0.001,0.001,0.002,0.001,0.002c0,0.002,0,0.002-0.001,0.002L6.85,3.249L6.85,3.249z M6.991,3.753
			c0,0.001-0.001,0.001-0.002,0.001L6.898,3.762V3.76L6.895,3.758L6.946,3.66c0,0,0.001-0.001,0.002,0c0,0,0.001,0,0.002,0
			l0.04,0.091C6.992,3.752,6.992,3.752,6.991,3.753z M8.412,2.069c0-0.001,0-0.002,0.001-0.002s0.002,0,0.002,0l0.067,0.071
			c0,0,0,0.001,0,0.002s0,0.001,0,0.001L8.402,2.18V2.179l0,0H8.398L8.412,2.069z M8.434,2.77L8.43,2.773L8.424,2.762l0.002-0.003
			L8.434,2.77z M8.412,3.034c0-0.001,0-0.002,0.001-0.002s0.001,0,0.002,0.001l0.067,0.069c0,0.001,0,0.001,0,0.002s0,0.001,0,0.001
			L8.4,3.145V3.143H8.396L8.412,3.034z M8.15,2.898C8.15,2.897,8.15,2.897,8.15,2.898l0.002-0.001l0.039,0.028
			c0,0.001,0,0.001,0,0.003v0.001L8.129,2.95l0,0c-0.001,0-0.001-0.001-0.002-0.003c0,0,0-0.001,0-0.002L8.15,2.898z M7.979,2.59
			c0,0,0.002,0,0.002,0.002L8.021,2.68c0,0.001,0,0.002,0,0.002c0,0.002-0.002,0.002-0.002,0.002L7.93,2.692V2.69L7.926,2.688
			l0.051-0.097C7.977,2.59,7.979,2.59,7.979,2.59z M7.9,2.232c0,0,0-0.001,0.002-0.001c0,0,0.001,0,0.002,0L7.941,2.26
			c0,0,0,0.001,0,0.002s0,0.002,0,0.002L7.88,2.283l0,0c0,0-0.001,0-0.002-0.001c-0.001-0.002,0-0.002,0-0.003L7.9,2.232z
			 M7.846,2.456l0.008,0.011L7.85,2.469L7.842,2.458L7.846,2.456z M7.637,2.207l0.002,0.017H7.635L7.633,2.208L7.637,2.207z
			 M7.204,2.929L7.163,2.942L7.162,2.938l0.036-0.012L7.165,2.901v0.002L7.161,2.9l0.002-0.003l0.001-0.001
			c0.001,0,0.001,0,0.002,0.001l0.039,0.028C7.205,2.926,7.206,2.926,7.204,2.929L7.204,2.929z M7.496,3.106L7.415,3.144
			L7.414,3.143l0,0H7.41l0.016-0.108c0-0.001,0-0.002,0-0.002c0.002,0,0.002,0,0.002,0.001l0.068,0.069
			C7.497,3.104,7.497,3.104,7.496,3.106C7.497,3.106,7.497,3.106,7.496,3.106z M7.436,2.762l0.002-0.003l0.01,0.011L7.443,2.773
			L7.436,2.762z M7.496,2.142L7.415,2.18L7.414,2.178H7.41L7.426,2.07c0-0.001,0-0.002,0-0.002c0.002,0,0.002,0,0.002,0l0.068,0.07
			c0,0,0,0.001,0,0.002C7.497,2.141,7.497,2.142,7.496,2.142z M7.633,3.189L7.631,3.171L7.637,3.17v0.018L7.633,3.189z M7.7,2.792
			l-0.062,0.02c0,0.001,0,0.001,0,0.001s0-0.001-0.002-0.002c0,0,0-0.001,0-0.002L7.66,2.761c0-0.001,0.001-0.001,0.002-0.001h0.001
			l0.038,0.028C7.701,2.79,7.701,2.79,7.7,2.792C7.701,2.792,7.7,2.792,7.7,2.792z M7.77,3.536L7.764,3.523L7.768,3.52l0.006,0.014
			L7.77,3.536z M7.762,3.418l0.004-0.002l0.008,0.011L7.77,3.429L7.762,3.418z M7.77,2.465L7.764,2.454l0.004-0.003l0.006,0.013
			L7.77,2.465z M7.846,3.42l0.006,0.011L7.85,3.434L7.842,3.422L7.846,3.42z M7.85,3.539L7.842,3.528l0.004-0.003l0.008,0.012
			L7.85,3.539z M7.88,3.249L7.88,3.249c-0.001,0-0.002,0-0.002-0.001s0-0.002,0-0.003L7.9,3.198c0-0.001,0-0.002,0-0.002
			s0.002,0,0.003,0l0.038,0.029c0,0,0,0,0,0.002c0,0,0,0.001,0,0.002L7.88,3.249z"/>
		<polygon fill="#ffffff" points="7.885,3.243 7.936,3.225 7.903,3.202 		"/>
		<polygon fill="#ffffff" points="6.383,3.14 6.461,3.104 6.398,3.04 		"/>
		<polygon fill="#ffffff" points="7.773,3.813 9.999,3.813 9.999,2.401 		"/>
		<polygon fill="#ffffff" points="8.648,1.802 8.629,1.843 8.682,1.826 		"/>
		<path fill="#ffffff" d="M6.506,1.846c0.006,0,0.01-0.003,0.014-0.007s0.004-0.011,0.004-0.021c0-0.006,0-0.012-0.002-0.015
			C6.52,1.8,6.518,1.797,6.516,1.796C6.514,1.794,6.51,1.792,6.506,1.792c-0.005,0-0.01,0.003-0.013,0.007
			C6.49,1.804,6.488,1.811,6.488,1.82c0,0.01,0.002,0.016,0.005,0.02C6.497,1.843,6.501,1.846,6.506,1.846z"/>
		<path fill="#ffffff" d="M6.387,1.835c0.002-0.004,0.002-0.01,0.002-0.017c0-0.008,0-0.012-0.002-0.016S6.383,1.796,6.379,1.795
			c-0.002,0-0.005-0.001-0.009-0.001H6.357v0.05h0.012c0.004,0,0.008-0.001,0.011-0.001C6.383,1.841,6.385,1.838,6.387,1.835z"/>
		<path fill="#ffffff" d="M9.956,0.223L9.96,0.226c0.001,0,0.001,0.001,0.001,0.002S9.96,0.23,9.96,0.23H9.957l0.042,0.294V0.168
			H9.948L9.956,0.223z"/>
		<polygon fill="#ffffff" points="9.432,1.105 9.455,1.095 9.434,1.095 		"/>
		<polygon fill="#ffffff" points="9.95,1.723 9.999,1.719 9.999,1.637 9.997,1.633 		"/>
		<rect x="9.999" y="0.136" fill="#ffffff" width="0" height="0.019"/>
		<path fill="#ffffff" d="M7.814,0.621c0.004,0,0.007-0.002,0.01-0.007c0.002-0.003,0.003-0.011,0.003-0.021
			c0-0.011-0.001-0.019-0.003-0.022c-0.003-0.004-0.006-0.006-0.01-0.006c-0.002,0-0.004,0.002-0.006,0.006
			C7.807,0.576,7.805,0.582,7.805,0.593c0,0.01,0.002,0.018,0.004,0.021C7.809,0.619,7.813,0.621,7.814,0.621z"/>
		<path fill="#ffffff" d="M7.857,0.621c0.002,0,0.006-0.002,0.008-0.007c0.002-0.003,0.003-0.011,0.003-0.021
			c0-0.011-0.001-0.019-0.003-0.022C7.864,0.568,7.861,0.566,7.857,0.566S7.852,0.568,7.85,0.572
			C7.848,0.576,7.848,0.582,7.848,0.593c0,0.01,0,0.018,0.002,0.021C7.852,0.619,7.854,0.621,7.857,0.621z"/>
		<polygon fill="#ffffff" points="8.967,1.633 8.918,1.723 9.003,1.716 		"/>
		<polygon fill="#ffffff" points="7.643,2.806 7.693,2.79 7.662,2.766 		"/>
		<polygon fill="#ffffff" points="9.141,2.903 9.12,2.942 9.159,2.918 		"/>
		<polygon fill="#ffffff" points="9.141,1.939 9.121,1.979 9.172,1.963 		"/>
		<polygon fill="#ffffff" points="8.416,3.04 8.402,3.139 8.479,3.104 		"/>
		<polygon fill="#ffffff" points="8.629,2.807 8.682,2.791 8.648,2.766 		"/>
		<polygon fill="#ffffff" points="9.446,2.074 9.432,2.175 9.51,2.139 		"/>
		<polygon fill="#ffffff" points="5.867,3.243 5.918,3.225 5.887,3.202 		"/>
		<polygon fill="#ffffff" points="9.68,1.801 9.661,1.842 9.712,1.826 		"/>
		<polygon fill="#ffffff" points="8.152,2.903 8.133,2.944 8.186,2.926 		"/>
		<polygon fill="#ffffff" points="8.918,2.688 9.003,2.68 8.967,2.598 		"/>
		<polygon fill="#ffffff" points="8.891,1.167 8.871,1.208 8.924,1.192 		"/>
		<polygon fill="#ffffff" points="6.854,3.243 6.906,3.227 6.873,3.202 		"/>
		<polygon fill="#ffffff" points="7.979,2.598 7.932,2.686 8.016,2.68 		"/>
		<polygon fill="#ffffff" points="8.871,2.278 8.924,2.262 8.891,2.237 		"/>
		<polygon fill="#ffffff" points="8.416,2.074 8.402,2.175 8.479,2.14 		"/>
		<polygon fill="#ffffff" points="6.9,3.757 6.986,3.75 6.949,3.667 		"/>
		<path fill="#ffffff" d="M7.143,2.932L7.012,2.016c0-0.002,0-0.004,0.002-0.005c0-0.001,0.002-0.003,0.004-0.003h0.006l0.021-0.021
			l0,0h0.164l0.005-0.001L7.051,1.82H6.75V1.818h0.301l0,0l0.163,0.166L7.229,1.93l0.008,0.002L7.221,1.987h0.17l0,0l0.021,0.021
			h0.731L8.128,1.992l0.005-0.006l0.021,0.021V1.09L8.152,1.089H8.089V1.087H8.15L8.128,1.065L8.133,1.06l0.026,0.027h0.062v0.002
			h-0.06L8.182,1.11L8.178,1.115L8.156,1.093v0.916h0.447l-0.131-0.92c0-0.002,0-0.004,0-0.005c0.002-0.001,0.004-0.002,0.006-0.002
			h0.004L8.504,1.06h0.001h0.347l0,0l0.021,0.021h1.126v-0.46L9.934,0.163c0-0.002,0-0.004,0.002-0.005
			c0-0.003,0.002-0.004,0.004-0.004h0.006l0.021-0.021l0,0h0.032V0H5.747v2.933L7.143,2.932L7.143,2.932z M8.121,1.591H8.07
			c0.002,0.002,0.003,0.004,0.006,0.007C8.078,1.601,8.079,1.603,8.08,1.605H8.072c-0.004-0.003-0.006-0.007-0.01-0.01
			C8.061,1.592,8.059,1.59,8.055,1.589V1.585h0.066V1.591z M8.121,1.56c-0.005,0-0.012-0.001-0.02-0.003
			C8.096,1.556,8.088,1.553,8.081,1.55C8.075,1.547,8.068,1.544,8.063,1.541v0.025H8.057V1.532h0.006
			c0.006,0.005,0.016,0.009,0.025,0.014C8.1,1.55,8.111,1.552,8.121,1.553V1.56z M8.1,1.489c0.006,0,0.012,0.003,0.017,0.006
			C8.12,1.497,8.122,1.502,8.122,1.507S8.12,1.515,8.118,1.519C8.114,1.523,8.109,1.525,8.104,1.526V1.518
			c0.004,0,0.008-0.002,0.01-0.003c0.002-0.002,0.003-0.004,0.003-0.007S8.114,1.502,8.111,1.5C8.107,1.498,8.105,1.497,8.1,1.497
			c-0.004,0-0.008,0.001-0.011,0.003S8.085,1.505,8.085,1.508c0,0.002,0,0.004,0.001,0.006c0.002,0.001,0.003,0.003,0.006,0.004
			L8.09,1.524L8.057,1.519V1.492h0.006v0.021l0.019,0.002C8.079,1.514,8.078,1.51,8.078,1.506S8.08,1.498,8.084,1.495
			C8.087,1.491,8.094,1.489,8.1,1.489z M8.662,0.944H8.615L8.613,0.945v0.063H8.611V0.947L8.589,0.969L8.584,0.964l0.021-0.021
			H8.482L8.48,0.946v0.063H8.479V0.948L8.456,0.969L8.451,0.964l0.021-0.021H8.43V0.941h0.045l0.002-0.003V0.876h0.002v0.06
			l0.022-0.021l0.005,0.004L8.484,0.941h0.123l0.002-0.003V0.876h0.003v0.06l0.021-0.021l0.004,0.004l-0.02,0.021h0.044L8.662,0.944
			L8.662,0.944z M8.525,0.853C8.523,0.85,8.521,0.849,8.518,0.849c-0.002,0-0.004,0.001-0.006,0.004
			C8.51,0.854,8.508,0.858,8.508,0.862H8.5c0.001-0.007,0.003-0.011,0.006-0.015c0.002-0.002,0.008-0.004,0.012-0.004
			c0.006,0,0.012,0.002,0.014,0.005c0.003,0.004,0.004,0.009,0.004,0.013S8.534,0.869,8.532,0.873S8.525,0.882,8.52,0.888
			C8.516,0.892,8.514,0.895,8.512,0.896c0,0.001-0.002,0.003-0.002,0.005h0.025v0.008H8.499c0-0.004,0.001-0.007,0.003-0.011
			S8.508,0.89,8.514,0.884s0.01-0.011,0.012-0.014C8.528,0.867,8.529,0.864,8.529,0.86C8.529,0.857,8.528,0.854,8.525,0.853z
			 M8.568,0.876c-0.002-0.003-0.006-0.004-0.01-0.004c-0.002,0-0.004,0-0.006,0.002c0,0.001-0.002,0.003-0.002,0.005L8.543,0.878
			l0.006-0.035h0.027v0.008H8.555L8.551,0.87c0.004-0.003,0.006-0.006,0.01-0.006S8.568,0.867,8.573,0.87
			c0.003,0.005,0.004,0.01,0.004,0.016c0,0.007-0.001,0.012-0.004,0.017C8.57,0.908,8.564,0.91,8.559,0.91
			c-0.004,0-0.008-0.001-0.01-0.005C8.544,0.902,8.542,0.897,8.542,0.892l0.007-0.001C8.551,0.895,8.551,0.898,8.553,0.9
			s0.004,0.003,0.006,0.003c0.004,0,0.006-0.001,0.008-0.004C8.57,0.895,8.571,0.892,8.571,0.887S8.571,0.879,8.568,0.876z
			 M7.844,0.568c0.004-0.005,0.008-0.009,0.014-0.009c0.005,0,0.009,0.003,0.013,0.007C7.873,0.572,7.874,0.58,7.874,0.593
			c0,0.01-0.001,0.019-0.003,0.025C7.868,0.625,7.864,0.627,7.857,0.627c-0.006,0-0.01-0.003-0.012-0.007
			C7.842,0.614,7.839,0.606,7.839,0.594C7.839,0.583,7.842,0.574,7.844,0.568z M7.803,0.568c0.002-0.005,0.006-0.009,0.012-0.009
			c0.007,0,0.011,0.003,0.013,0.007C7.831,0.572,7.833,0.58,7.833,0.593c0,0.01-0.001,0.019-0.005,0.025
			C7.826,0.625,7.822,0.627,7.814,0.627c-0.004,0-0.008-0.003-0.012-0.007C7.799,0.614,7.797,0.606,7.797,0.594
			C7.797,0.583,7.799,0.574,7.803,0.568z M7.78,0.598C7.779,0.595,7.775,0.594,7.773,0.594s-0.004,0-0.006,0.001L7.77,0.588v0.001
			c0.004,0,0.008-0.002,0.01-0.004C7.78,0.583,7.781,0.58,7.781,0.577c0-0.005-0.001-0.007-0.002-0.009
			C7.777,0.567,7.775,0.566,7.773,0.566c-0.004,0-0.006,0.001-0.006,0.003c-0.002,0.002-0.004,0.006-0.004,0.01H7.758
			c0-0.007,0.002-0.012,0.004-0.014C7.766,0.562,7.768,0.56,7.771,0.56c0.006,0,0.009,0.002,0.012,0.006
			c0.004,0.002,0.005,0.007,0.005,0.013c0,0.002,0,0.005-0.002,0.007C7.785,0.587,7.783,0.589,7.78,0.59
			c0.003,0.001,0.005,0.002,0.006,0.003C7.788,0.595,7.789,0.597,7.79,0.599c0,0.002,0,0.005,0,0.008
			c0,0.005-0.001,0.011-0.005,0.016C7.782,0.625,7.778,0.627,7.773,0.627c-0.006,0-0.008-0.002-0.012-0.005S7.756,0.614,7.755,0.609
			l0.007-0.001c0.002,0.009,0.004,0.014,0.01,0.014c0.004,0,0.007-0.002,0.008-0.004c0.002-0.004,0.004-0.007,0.004-0.011
			S7.783,0.6,7.78,0.598z M7.018,0.593H7.02v0.06L7.04,0.632l0.005,0.005L7.023,0.658h1.584l0.002-0.004V0.593h0.003v0.06
			l0.021-0.021l0.006,0.005L8.613,0.663v0.063H8.611V0.665L8.589,0.687L8.584,0.683l0.021-0.021H7.021L7.02,0.663v0.063H7.018V0.665
			L6.996,0.687L6.991,0.683l0.026-0.027V0.593z M7.247,1.639C7.245,1.637,7.242,1.635,7.24,1.635c-0.003,0-0.006,0.001-0.008,0.002
			c0,0.001-0.002,0.003-0.004,0.005L7.223,1.641l0.006-0.034h0.026v0.007H7.234L7.23,1.632C7.234,1.63,7.238,1.629,7.241,1.629
			c0.004,0,0.009,0.002,0.012,0.005c0.003,0.004,0.005,0.01,0.005,0.016c0,0.005-0.002,0.012-0.006,0.017
			C7.25,1.671,7.245,1.674,7.24,1.674c-0.006,0-0.01-0.002-0.012-0.005C7.225,1.666,7.223,1.661,7.223,1.655l0.006-0.001
			c0,0.005,0.002,0.008,0.004,0.01C7.234,1.666,7.237,1.666,7.24,1.666c0.002,0,0.005-0.001,0.007-0.004
			C7.25,1.66,7.251,1.656,7.251,1.65C7.251,1.646,7.25,1.642,7.247,1.639z M7.18,1.615V1.607h0.037v0.005
			C7.209,1.62,7.204,1.629,7.201,1.64C7.197,1.651,7.193,1.662,7.193,1.673H7.188c0-0.006,0-0.012,0.002-0.021
			c0.002-0.008,0.004-0.015,0.008-0.021C7.2,1.625,7.203,1.62,7.206,1.615H7.18z M7.018,1.702V1.639H7.02v0.061L7.04,1.678
			l0.005,0.004L7.023,1.705h0.389l0.003-0.003V1.639h0.002v0.061l0.021-0.021l0.006,0.004L7.418,1.709v0.063H7.415V1.711
			L7.393,1.733L7.389,1.729L7.41,1.708H7.021L7.02,1.709v0.063H7.018V1.711L6.996,1.733L6.991,1.729L7.018,1.702z M6.67,1.8
			c0.002-0.005,0.006-0.009,0.01-0.011c0.004-0.003,0.01-0.005,0.014-0.005c0.005,0,0.009,0.001,0.011,0.003
			C6.707,1.788,6.71,1.791,6.712,1.794c0.001,0.002,0.003,0.005,0.005,0.01L6.71,1.807C6.709,1.803,6.708,1.8,6.706,1.798
			C6.705,1.796,6.703,1.795,6.702,1.794C6.699,1.793,6.697,1.792,6.693,1.792s-0.006,0.001-0.01,0.004
			C6.682,1.797,6.678,1.8,6.678,1.804C6.676,1.808,6.674,1.813,6.674,1.819c0,0.009,0.002,0.016,0.006,0.021
			c0.004,0.004,0.008,0.006,0.014,0.006c0.003,0,0.006,0,0.009-0.002c0.003,0,0.005-0.002,0.007-0.004V1.827H6.693v-0.01h0.023
			v0.025C6.713,1.846,6.71,1.849,6.706,1.851S6.699,1.854,6.695,1.854c-0.006,0-0.01-0.002-0.016-0.005
			C6.676,1.847,6.672,1.843,6.67,1.838c-0.003-0.005-0.004-0.011-0.004-0.02C6.666,1.813,6.667,1.806,6.67,1.8z M6.613,1.786H6.62
			l0.028,0.052V1.786h0.008v0.066H6.648L6.62,1.8v0.053H6.613V1.786z M6.594,1.786h0.008v0.066H6.594V1.786z M6.574,1.83
			C6.573,1.828,6.572,1.827,6.57,1.826S6.564,1.824,6.559,1.822C6.555,1.82,6.551,1.818,6.549,1.817
			C6.546,1.815,6.544,1.813,6.543,1.812C6.542,1.809,6.541,1.806,6.541,1.803c0-0.006,0.002-0.009,0.006-0.013
			c0.002-0.004,0.008-0.006,0.014-0.006c0.004,0,0.008,0.001,0.011,0.003c0.002,0.002,0.005,0.004,0.007,0.007
			C6.579,1.797,6.58,1.8,6.58,1.805H6.574c0-0.004-0.002-0.008-0.003-0.009C6.568,1.794,6.564,1.793,6.561,1.793
			s-0.008,0.001-0.01,0.003C6.549,1.797,6.549,1.799,6.549,1.802s0,0.005,0.002,0.006c0.002,0.002,0.004,0.004,0.01,0.005
			s0.01,0.003,0.012,0.004c0.004,0.002,0.007,0.004,0.007,0.008C6.581,1.827,6.582,1.83,6.582,1.833
			c0,0.004-0.001,0.008-0.003,0.011C6.578,1.847,6.576,1.849,6.573,1.851C6.568,1.853,6.564,1.854,6.561,1.854
			c-0.006,0-0.012-0.002-0.016-0.007C6.543,1.845,6.542,1.843,6.541,1.841C6.54,1.838,6.539,1.834,6.539,1.831h0.007
			c0.001,0.003,0.001,0.006,0.003,0.008c0,0.002,0.002,0.004,0.006,0.004c0.002,0.002,0.004,0.002,0.006,0.002
			c0.006,0,0.008-0.001,0.011-0.002c0.003-0.002,0.005-0.005,0.005-0.009C6.576,1.832,6.575,1.831,6.574,1.83z M6.488,1.794
			c0.004-0.006,0.011-0.01,0.02-0.01c0.004,0,0.008,0.002,0.012,0.005S6.527,1.796,6.529,1.8c0.003,0.006,0.004,0.012,0.004,0.019
			c0,0.011-0.003,0.019-0.008,0.024C6.52,1.85,6.514,1.854,6.506,1.854S6.491,1.85,6.486,1.843C6.482,1.837,6.48,1.83,6.48,1.82
			S6.482,1.8,6.488,1.794z M6.428,1.786h0.006l0.029,0.052V1.786h0.006v0.066H6.462L6.434,1.8v0.053H6.428V1.786z M6.35,1.786h0.02
			c0.004,0,0.008,0,0.011,0.001S6.387,1.79,6.389,1.793s0.004,0.006,0.006,0.01c0.002,0.005,0.002,0.01,0.002,0.016
			c0,0.008-0.002,0.015-0.004,0.02S6.389,1.847,6.385,1.849S6.376,1.853,6.371,1.853h-0.02V1.786H6.35z M6.314,1.786h0.01
			l0.021,0.066H6.337L6.331,1.832H6.309L6.303,1.853H6.294L6.314,1.786z M6.25,1.786h0.039v0.008H6.258v0.021h0.029v0.007H6.258
			v0.022h0.033v0.009h-0.04L6.25,1.786L6.25,1.786z M6.195,1.786h0.023c0.004,0,0.008,0,0.01,0.002
			c0.004,0.001,0.006,0.003,0.008,0.006C6.237,1.796,6.238,1.8,6.238,1.804S6.237,1.813,6.234,1.816
			C6.232,1.819,6.229,1.821,6.223,1.822c0.002,0.003,0.004,0.004,0.006,0.005C6.23,1.829,6.232,1.831,6.232,1.834l0.011,0.019H6.232
			L6.227,1.839C6.225,1.833,6.221,1.83,6.221,1.828C6.219,1.826,6.219,1.825,6.217,1.824C6.215,1.823,6.213,1.823,6.21,1.823H6.202
			v0.03H6.195V1.786z M6.141,1.786h0.008v0.026h0.027V1.786h0.008v0.066H6.176V1.821H6.146v0.032H6.141V1.786z M6.115,1.853H6.107
			V1.794H6.089V1.786h0.044v0.008H6.115V1.853z"/>
		<polygon fill="#ffffff" points="7.415,3.139 7.492,3.104 7.43,3.04 		"/>
		<polygon fill="#ffffff" points="9.921,1.167 9.9,1.208 9.954,1.192 		"/>
		<polygon fill="#ffffff" points="7.414,2.175 7.492,2.139 7.43,2.074 		"/>
		<path fill="#ffffff" d="M6.225,1.814C6.227,1.813,6.229,1.811,6.23,1.81c0-0.002,0-0.004,0-0.006c0-0.004,0-0.006-0.002-0.008
			C6.227,1.795,6.223,1.793,6.221,1.793H6.202v0.021h0.017C6.221,1.815,6.223,1.815,6.225,1.814z"/>
		<path fill="#ffffff" d="M6.323,1.807C6.322,1.801,6.32,1.796,6.318,1.793c0,0.004,0,0.008-0.002,0.013l-0.006,0.02h0.019
			L6.323,1.807z"/>
		<polygon fill="#ffffff" points="9.902,2.278 9.954,2.262 9.921,2.237 		"/>
		<polygon fill="#ffffff" points="5.914,3.756 5.998,3.75 5.961,3.667 		"/>
		<polygon fill="#ffffff" points="7.904,2.237 7.885,2.278 7.936,2.262 		"/>
		<polygon points="9.871,2.466 9.867,2.469 9.867,2.469 9.188,2.899 9.191,2.903 9.999,2.392 9.999,2.385 		"/>
		<polygon points="9.999,2.401 9.999,2.394 7.764,3.813 7.773,3.813 		"/>
		<polygon points="9.163,2.915 9.168,2.918 9.188,2.906 9.184,2.903 		"/>
		<polygon points="9.12,2.942 9.12,2.944 9.139,2.938 9.164,2.921 9.159,2.918 		"/>
		<polygon points="7.973,3.67 7.749,3.813 7.76,3.813 7.967,3.681 		"/>
		<polygon points="7.975,3.676 7.98,3.672 7.979,3.667 		"/>
		<path d="M9.116,2.95c-0.001,0-0.001-0.001-0.002-0.003c0,0,0,0,0-0.001L7.982,3.665L7.984,3.67l1.14-0.725L9.116,2.95L9.116,2.95z
			"/>
		<polygon points="6.122,2.941 6.116,2.941 6.115,2.944 		"/>
		<polygon points="8.089,2.016 7.416,2.016 7.02,2.016 7.148,2.917 7.155,2.922 7.025,2.022 8.158,2.022 8.152,2.016 		"/>
		<path d="M8.877,1.089H8.48l0.133,0.926L8.612,2.016H8.221h-0.06l0.006,0.006h0.445c0.002,0,0.004-0.001,0.005-0.002
			s0.002-0.003,0.001-0.005l-0.131-0.92H9.43V1.089H8.877L8.877,1.089z"/>
		<polygon points="9.455,1.095 9.467,1.089 9.434,1.089 9.434,1.095 		"/>
		<polygon points="7.1,2.94 6.137,2.941 6.121,2.946 7.096,2.946 7.096,2.946 		"/>
		<path d="M8.159,2.014h0.062h0.391L8.479,1.088l0,0l0,0l0.006-0.006H8.479c-0.002,0-0.004,0.001-0.004,0.002
			C8.473,1.085,8.473,1.087,8.473,1.089l0.131,0.919H8.156V2.01L8.159,2.014z"/>
		<polygon points="7.111,2.94 7.104,2.94 7.102,2.944 		"/>
		<polygon points="7.148,2.924 7.15,2.928 7.154,2.927 		"/>
		<path d="M7.15,2.94L7.15,2.94H7.126L7.107,2.946H7.15c0.002,0,0.004,0,0.005-0.002C7.157,2.942,7.158,2.94,7.157,2.938
			L7.156,2.932L7.15,2.933V2.94z"/>
		<polygon points="8.145,2.008 7.412,2.008 7.417,2.014 8.089,2.014 8.148,2.014 		"/>
		<polygon points="9.467,1.095 9.999,1.095 9.999,1.089 9.479,1.089 		"/>
		<path d="M7.148,2.938L7.018,2.015l0,0l0,0l0.006-0.006H7.018c-0.002,0-0.002,0.001-0.004,0.002S7.012,2.014,7.012,2.016
			l0.131,0.916H5.747v0.006H7.148z"/>
		<polygon points="9.95,0.218 9.956,0.223 9.948,0.168 9.999,0.168 9.999,0.163 9.941,0.163 		"/>
		<rect x="9.999" y="0.155" width="0" height="0.007"/>
		<polygon points="6.109,2.946 6.111,2.941 5.747,2.941 5.747,2.946 		"/>
		<polygon points="9.951,0.225 9.951,0.229 9.954,0.228 		"/>
		<path d="M9.952,0.233l0.046,0.324l0,0v0.001V0.525L9.957,0.231L9.952,0.233z"/>
		<path d="M9.939,0.162L9.939,0.162L9.939,0.162l0.006-0.008H9.939c-0.002,0-0.004,0.001-0.004,0.003
			C9.934,0.159,9.934,0.161,9.934,0.163l0.065,0.458v-0.04L9.939,0.162z"/>
		<polygon points="8.872,1.081 8.878,1.087 9.999,1.087 9.999,1.081 		"/>
		<polygon fill="#d1cd80" points="7.389,1.989 7.217,1.989 7.219,1.991 7.161,2.006 7.159,2 7.199,1.989 7.045,1.989 7.021,2.014 
			7.414,2.014 		"/>
		<polygon points="7.391,1.987 7.391,1.987 7.221,1.987 7.221,1.989 7.217,1.988 7.217,1.989 7.389,1.989 7.414,2.014 7.417,2.014 
			7.412,2.008 		"/>
		<polygon points="7.045,1.989 7.199,1.989 7.208,1.987 7.044,1.987 7.044,1.987 7.023,2.008 7.018,2.014 7.018,2.015 7.018,2.014 
			7.021,2.014 		"/>
		<polygon fill="#d1cd80" points="8.85,1.062 8.505,1.062 8.48,1.087 8.874,1.087 		"/>
		<polygon points="8.479,1.087 8.479,1.087 8.48,1.087 8.505,1.062 8.85,1.062 8.874,1.087 8.878,1.087 8.872,1.081 8.852,1.06 
			8.852,1.06 8.505,1.06 8.504,1.06 8.484,1.081 		"/>
		<polygon fill="#d1cd80" points="9.999,0.155 9.999,0.136 9.967,0.136 9.943,0.161 9.999,0.161 		"/>
		<polygon points="9.967,0.134 9.945,0.155 9.939,0.161 9.939,0.161 9.939,0.161 9.943,0.161 9.967,0.136 9.999,0.136 9.999,0.136 
			9.999,0.133 9.967,0.133 		"/>
		<polygon points="8.878,1.087 8.874,1.087 8.48,1.087 8.479,1.087 8.479,1.087 8.479,1.088 8.611,2.014 8.221,2.014 8.221,2.016 
			8.612,2.016 8.613,2.015 8.48,1.089 8.877,1.089 9.43,1.089 9.43,1.087 9.434,1.087 9.434,1.089 9.467,1.089 9.471,1.087 
			9.48,1.087 9.479,1.089 9.999,1.089 9.999,1.087 9.999,1.087 		"/>
		<polygon points="6.112,2.94 6.117,2.94 6.116,2.941 6.122,2.941 6.126,2.94 6.141,2.94 6.137,2.941 7.1,2.94 7.1,2.94 7.104,2.94 
			7.104,2.94 7.111,2.94 7.115,2.94 7.13,2.94 7.126,2.94 7.15,2.94 7.15,2.94 7.15,2.933 7.15,2.933 7.148,2.928 7.15,2.928 
			7.148,2.924 7.148,2.922 7.146,2.917 7.148,2.917 7.02,2.016 7.416,2.016 8.089,2.016 8.089,2.014 7.417,2.014 7.414,2.014 
			7.021,2.014 7.018,2.014 7.018,2.015 7.018,2.015 7.148,2.938 5.747,2.938 5.747,2.94 5.747,2.941 6.111,2.941 		"/>
		<path d="M9.943,0.161H9.939l0,0l0,0L10,0.58V0.574V0.569L9.998,0.567L9.996,0.556l0,0c0.001,0,0.001,0,0.001,0.001L9.952,0.233
			H9.951V0.228h0.001V0.224L9.949,0.223L9.948,0.217L9.95,0.218L9.941,0.163h0.058V0.161l0,0l0,0H9.943z"/>
		<polygon points="9.999,2.394 9.999,2.393 9.999,2.392 9.191,2.903 9.193,2.904 9.189,2.907 9.188,2.906 9.168,2.918 9.169,2.919 
			9.165,2.922 9.164,2.921 9.139,2.938 9.143,2.936 9.128,2.946 9.124,2.946 7.984,3.669 7.984,3.67 7.98,3.672 7.98,3.672 
			7.975,3.676 7.973,3.678 7.967,3.682 7.967,3.681 7.76,3.813 7.762,3.813 7.764,3.813 		"/>
		<polygon points="5.756,3.533 5.749,3.52 5.747,3.522 5.747,3.526 5.752,3.536 		"/>
		<rect x="6.731" y="3.527" transform="matrix(-0.5039 -0.8638 0.8638 -0.5039 7.0852 11.1276)" width="0.014" height="0.004"/>
		<rect x="5.823" y="3.53" transform="matrix(-0.5547 -0.8321 0.8321 -0.5547 6.1248 10.3429)" width="0.014" height="0.004"/>
		<path d="M5.962,3.661c-0.001,0-0.002,0-0.002,0L5.908,3.758L5.912,3.76l0,0l0.09-0.007l0.001-0.001V3.75L5.962,3.661
			C5.963,3.661,5.963,3.661,5.962,3.661z M5.914,3.756l0.047-0.089l0.037,0.081L5.914,3.756z"/>
		<rect x="6.811" y="3.532" transform="matrix(-0.5547 -0.8321 0.8321 -0.5547 7.6597 11.1663)" width="0.014" height="0.004"/>
		<path d="M6.949,3.661c-0.001-0.001-0.002,0-0.002,0L6.895,3.758L6.898,3.76v0.002l0.091-0.008c0.001,0,0.001,0,0.002-0.001
			s0-0.001,0-0.002L6.951,3.66C6.951,3.661,6.95,3.661,6.949,3.661z M6.9,3.757l0.048-0.09L6.986,3.75L6.9,3.757z"/>
		<path d="M5.926,3.227c0-0.002,0-0.002,0-0.002L5.887,3.196H5.885c-0.002,0-0.002,0.001-0.002,0.002L5.859,3.245
			c0,0.001,0,0.002,0,0.003s0.002,0.001,0.002,0.001l0,0l0.061-0.021C5.926,3.228,5.926,3.227,5.926,3.227z M5.867,3.243l0.02-0.041
			l0.032,0.022L5.867,3.243z"/>
		<rect x="6.602" y="3.172" width="0.004" height="0.017"/>
		<path d="M6.398,3.033c0-0.001-0.002-0.001-0.002-0.001c-0.002,0-0.002,0.001-0.002,0.002L6.378,3.143h0.005v0.002l0.084-0.039
			c0,0,0,0,0-0.001s0-0.001,0-0.002L6.398,3.033z M6.383,3.14l0.016-0.1l0.063,0.063L6.383,3.14z"/>
		<path d="M6.141,2.94H6.126L6.122,2.941L6.115,2.944l0.001-0.003V2.94H6.112v0.001L6.109,2.946l0,0c0,0.001,0,0.002,0,0.002
			c0,0.002,0,0.003,0.002,0.003l0,0L6.12,2.946l0.017-0.005L6.141,2.94z"/>
		<path d="M6.913,3.227c0,0,0-0.001-0.001-0.002L6.873,3.196c0,0-0.001,0-0.002,0S6.87,3.197,6.87,3.198L6.848,3.245
			c0,0.002,0,0.002,0,0.003S6.85,3.249,6.85,3.249l0,0l0.062-0.021C6.912,3.229,6.913,3.229,6.913,3.227z M6.854,3.243l0.02-0.041
			l0.033,0.024L6.854,3.243z"/>
		<path d="M7.146,2.917l0.002,0.006v0.002l0.005,0.003H7.15l0,0v0.005l0,0l0.006-0.002L7.16,2.93c0.001,0,0.001-0.001,0.001-0.002
			c0,0,0-0.002-0.001-0.002L7.155,2.922L7.146,2.917L7.146,2.917z"/>
		<path d="M7.13,2.94H7.115H7.111l-0.01,0.004L7.104,2.94l0,0H7.1l0,0L7.096,2.946l0,0c0,0.001,0,0.002,0,0.002
			c0,0.002,0.002,0.003,0.002,0.003l0,0l0.01-0.005L7.126,2.94H7.13z"/>
		<polygon points="5.755,3.426 5.748,3.416 5.747,3.417 5.747,3.422 5.751,3.429 		"/>
		<rect x="6.729" y="3.421" transform="matrix(0.5241 0.8517 -0.8517 0.5241 6.121 -4.1086)" width="0.015" height="0.004"/>
		<rect x="5.823" y="3.425" transform="matrix(0.5369 0.8437 -0.8437 0.5369 5.5911 -3.3311)" width="0.013" height="0.005"/>
		<rect x="6.811" y="3.425" transform="matrix(0.5369 0.8437 -0.8437 0.5369 6.0487 -4.1638)" width="0.013" height="0.004"/>
		<rect x="7.761" y="3.525" transform="matrix(-0.4472 -0.8944 0.8944 -0.4472 8.0876 12.0536)" width="0.015" height="0.005"/>
		<rect x="7.84" y="3.531" transform="matrix(-0.5241 -0.8517 0.8517 -0.5241 8.9517 12.0681)" width="0.015" height="0.004"/>
		<path d="M7.98,3.661c0,0,0,0-0.002,0c0-0.001-0.002,0-0.002,0L7.973,3.67L7.967,3.681v0.001l0.006-0.004l0.002-0.002l0.004-0.009
			L7.98,3.672l0,0L7.984,3.67V3.669L7.982,3.665L7.98,3.661z"/>
		<rect x="7.633" y="2.207" width="0.004" height="0.017"/>
		<path d="M7.43,2.068c0,0-0.002-0.001-0.002,0c-0.002,0-0.002,0.001-0.002,0.002L7.41,2.178l0.004,0.001L7.415,2.18l0.081-0.038
			l0.001-0.001c0,0,0-0.001,0-0.002L7.43,2.068z M7.414,2.175l0.014-0.101l0.063,0.064L7.414,2.175z"/>
		<rect x="8.749" y="1.492" transform="matrix(-0.5369 -0.8437 0.8437 -0.5369 12.1963 9.6829)" width="0.013" height="0.004"/>
		<path d="M8.623,1.848L8.623,1.848c0.001,0.001,0.001,0.001,0.002,0.001l0.063-0.02c0,0,0-0.001,0.002-0.001
			c0-0.001,0-0.002-0.002-0.002L8.65,1.797c0,0-0.002-0.001-0.002,0c0,0-0.002,0-0.002,0.001L8.623,1.845
			C8.622,1.846,8.623,1.847,8.623,1.848z M8.648,1.802l0.033,0.024L8.629,1.843L8.648,1.802z"/>
		<path d="M7.88,2.284L7.88,2.284l0.062-0.02c0.002,0,0.002-0.001,0.002-0.002c0,0,0-0.001,0-0.002l-0.038-0.03c0,0-0.001,0-0.002,0
			c0,0-0.001,0-0.001,0.001L7.878,2.28c0,0.001,0,0.003,0,0.003S7.879,2.284,7.88,2.284z M7.904,2.237l0.031,0.025L7.885,2.278
			L7.904,2.237z"/>
		<rect x="8.62" y="2.207" width="0.004" height="0.017"/>
		<path d="M8.4,2.179L8.4,2.179l0.082-0.037c0.002,0,0.002-0.001,0.002-0.001s0-0.001,0-0.002L8.416,2.068c0,0-0.001-0.001-0.002,0
			c-0.001,0-0.001,0.001-0.001,0.002L8.396,2.179H8.4L8.4,2.179z M8.416,2.074L8.479,2.14L8.402,2.175L8.416,2.074z"/>
		<rect x="8.829" y="1.495" transform="matrix(-0.5369 -0.8437 0.8437 -0.5369 12.3142 9.7564)" width="0.013" height="0.006"/>
		<path d="M8.93,2.263c0,0,0-0.001,0-0.002l-0.037-0.03c-0.002,0-0.002,0-0.002,0c-0.002,0-0.002,0-0.002,0.001L8.865,2.28
			c0,0.001,0,0.003,0,0.003s0.001,0.002,0.002,0.002l0,0l0.061-0.02C8.93,2.265,8.93,2.264,8.93,2.263z M8.871,2.278l0.02-0.041
			l0.033,0.025L8.871,2.278z"/>
		<path d="M8.917,1.727L8.917,1.727l0.091-0.006c0,0,0,0,0.002-0.001c0,0,0-0.001,0-0.002l-0.041-0.09
			c0-0.001-0.002-0.001-0.002-0.001s-0.002,0-0.003,0.001L8.913,1.724L8.917,1.727z M8.967,1.633l0.036,0.083L8.918,1.723
			L8.967,1.633z"/>
		<path d="M9.116,1.984C9.117,1.984,9.117,1.984,9.116,1.984l0.062-0.019c0,0,0.002-0.001,0.002-0.002s0-0.002-0.002-0.002
			L9.141,1.934H9.139c0,0-0.002,0-0.002,0.001L9.114,1.981c0,0,0,0.001,0,0.002C9.115,1.984,9.116,1.984,9.116,1.984z M9.141,1.939
			l0.033,0.023L9.121,1.979L9.141,1.939z"/>
		<rect x="7.76" y="2.456" transform="matrix(-0.5241 -0.8517 0.8517 -0.5241 9.7454 10.3612)" width="0.015" height="0.004"/>
		<path d="M7.663,2.76c0,0-0.001,0-0.002,0c0,0-0.001,0-0.001,0.001L7.637,2.809c0,0.001,0,0.002,0,0.002
			c0,0.001,0,0.002,0.002,0.002V2.812l0.061-0.02C7.699,2.791,7.7,2.791,7.7,2.79s0-0.001-0.001-0.002L7.663,2.76z M7.643,2.806
			l0.02-0.04L7.693,2.79L7.643,2.806z"/>
		<rect x="7.633" y="3.171" width="0.004" height="0.018"/>
		<rect x="7.439" y="2.76" width="0.004" height="0.013"/>
		<path d="M7.43,3.033c0-0.001-0.002-0.001-0.002-0.001c-0.002,0-0.002,0.001-0.002,0.002L7.41,3.143h0.004l0,0v0.001l0.082-0.038
			c0,0,0.001,0,0.001-0.001s0-0.001,0-0.002L7.43,3.033z M7.415,3.139l0.015-0.1l0.063,0.063L7.415,3.139z"/>
		<path d="M7.166,2.897c0-0.001-0.001-0.002-0.002-0.001L7.163,2.897L7.161,2.9l0.004,0.003V2.901l0.033,0.025L7.162,2.938
			l0.001,0.004l0.041-0.013c0.001,0,0.001-0.001,0.001-0.001c0-0.002,0-0.002,0-0.003L7.166,2.897z"/>
		<rect x="8.749" y="2.456" transform="matrix(-0.5547 -0.8321 0.8321 -0.5547 11.5669 11.1079)" width="0.014" height="0.005"/>
		<rect x="7.841" y="2.461" transform="matrix(0.5547 0.8321 -0.8321 0.5547 5.544 -5.4328)" width="0.014" height="0.004"/>
		<path d="M8.648,2.76c0,0,0,0-0.002,0c0,0,0,0,0,0.001L8.623,2.809c0,0.001,0,0.002,0,0.002c0,0.001,0.001,0.002,0.001,0.002
			s0-0.001,0.001-0.001l0.061-0.019c0.002,0,0.002-0.001,0.002-0.002V2.789L8.648,2.76z M8.629,2.807l0.02-0.041L8.682,2.79
			L8.629,2.807z"/>
		<path d="M7.941,3.225L7.904,3.196c0,0-0.001,0-0.002,0C7.9,3.196,7.9,3.197,7.9,3.198L7.878,3.245c0,0.001,0,0.002,0,0.003
			S7.879,3.249,7.88,3.249l0,0l0.062-0.021c0-0.001,0-0.002,0-0.002C7.943,3.225,7.943,3.225,7.941,3.225z M7.885,3.243l0.019-0.041
			l0.032,0.022L7.885,3.243z"/>
		<rect x="8.619" y="3.173" width="0.005" height="0.016"/>
		<rect x="8.426" y="2.759" width="0.004" height="0.013"/>
		<path d="M7.93,2.69v0.002l0.09-0.008c0.002,0,0.002,0,0.002-0.002c0,0,0-0.001,0-0.002L7.982,2.592
			C7.982,2.59,7.98,2.59,7.98,2.59c-0.002,0-0.002,0-0.002,0.001L7.926,2.688L7.93,2.69z M7.979,2.598L8.016,2.68L7.932,2.686
			L7.979,2.598z"/>
		<path d="M8.4,3.145l0.084-0.039c0,0,0,0,0-0.001s0-0.001,0-0.002L8.416,3.033C8.415,3.032,8.414,3.032,8.413,3.032
			S8.412,3.034,8.412,3.034L8.396,3.143H8.4V3.145z M8.416,3.04l0.063,0.063L8.402,3.139L8.416,3.04z"/>
		<path d="M8.128,2.95L8.128,2.95l0.063-0.021V2.928c0-0.002,0-0.002,0-0.003L8.153,2.897H8.152c-0.002,0-0.002,0-0.002,0.001
			L8.126,2.946c0,0.001,0,0.002,0,0.002C8.127,2.949,8.127,2.95,8.128,2.95z M8.152,2.903l0.033,0.023L8.133,2.944L8.152,2.903z"/>
		<rect x="8.828" y="2.461" transform="matrix(0.6247 0.7809 -0.7809 0.6247 5.2392 -5.9736)" width="0.013" height="0.005"/>
		<path d="M8.967,2.59c-0.002,0-0.002,0-0.003,0.001L8.913,2.689l0.004,0.002v0.001l0.091-0.008c0,0,0,0,0.002,0
			c0-0.001,0-0.002,0-0.002l-0.041-0.09C8.969,2.59,8.967,2.59,8.967,2.59z M8.918,2.688l0.049-0.09L9.003,2.68L8.918,2.688z"/>
		<path d="M9.141,2.897H9.139c0,0-0.002,0-0.002,0.001L9.113,2.946c0,0,0,0,0,0.001s0,0.001,0,0.001
			c0,0.002,0.001,0.003,0.002,0.003l0,0l0.008-0.005h0.004l0.016-0.01L9.139,2.938L9.12,2.944V2.942l0.021-0.039l0.02,0.017
			l0.005,0.003l0.001,0.001L9.17,2.92L9.168,2.918L9.163,2.915L9.141,2.897z"/>
		<rect x="7.761" y="3.419" transform="matrix(0.5547 0.8321 -0.8321 0.5547 6.3059 -4.9394)" width="0.014" height="0.005"/>
		<rect x="7.841" y="3.425" transform="matrix(0.5369 0.8437 -0.8437 0.5369 6.5254 -5.0332)" width="0.013" height="0.005"/>
		<rect x="8.619" y="1.137" width="0.004" height="0.017"/>
		<path d="M8.867,1.214L8.867,1.214l0.063-0.02V1.194c0-0.001,0-0.002,0-0.002L8.891,1.162c0,0,0,0-0.002,0c0,0,0,0,0,0.001
			L8.865,1.21c0,0.001,0,0.002,0,0.002S8.866,1.214,8.867,1.214z M8.891,1.167l0.033,0.024L8.871,1.208L8.891,1.167z"/>
		<rect x="8.747" y="1.386" transform="matrix(0.5882 0.8087 -0.8087 0.5882 4.7284 -6.5076)" width="0.013" height="0.005"/>
		<rect x="8.828" y="1.391" transform="matrix(0.5882 0.8087 -0.8087 0.5882 4.7655 -6.5708)" width="0.013" height="0.006"/>
		<rect x="9.78" y="1.491" transform="matrix(-0.4789 -0.8779 0.8779 -0.4789 13.1612 10.7997)" width="0.012" height="0.005"/>
		<path d="M9.655,1.847L9.655,1.847c0.001,0.001,0.001,0.001,0.002,0.001l0.062-0.019c0,0,0-0.001,0.002-0.001
			c0-0.001,0-0.002-0.002-0.002L9.68,1.796c0,0,0-0.001-0.002,0c0,0,0,0,0,0.001L9.654,1.844C9.654,1.845,9.654,1.846,9.655,1.847z
			 M9.68,1.801l0.033,0.025L9.661,1.842L9.68,1.801z"/>
		<rect x="9.65" y="2.207" width="0.005" height="0.017"/>
		<rect x="9.452" y="1.798" transform="matrix(0.5547 0.8321 -0.8321 0.5547 5.7102 -7.0686)" width="0.014" height="0.005"/>
		<path d="M9.432,2.18l0.082-0.039L9.516,2.14c0,0,0-0.001,0-0.002l-0.069-0.07c0,0-0.001-0.001-0.003,0c0,0,0,0.001,0,0.002
			L9.428,2.178L9.432,2.18L9.432,2.18z M9.446,2.074L9.51,2.139L9.432,2.175L9.446,2.074z"/>
		<path d="M9.184,1.938l0.033,0.024L9.18,1.974l0.002,0.004l0.039-0.013c0.002,0,0.002-0.001,0.002-0.002s0-0.001-0.002-0.002
			L9.184,1.933H9.182L9.18,1.934v0.004H9.184L9.184,1.938z"/>
		<rect x="9.857" y="1.495" transform="matrix(-0.5241 -0.8517 0.8517 -0.5241 13.7592 10.6842)" width="0.015" height="0.005"/>
		<path d="M9.92,2.231C9.919,2.231,9.919,2.231,9.92,2.231L9.895,2.28c0,0.001,0,0.003,0,0.003l0.002,0.002l0,0l0.063-0.02
			c0,0,0.001-0.001,0.001-0.002c0,0,0-0.001-0.001-0.002l-0.037-0.03C9.921,2.231,9.921,2.231,9.92,2.231z M9.902,2.278l0.02-0.041
			l0.033,0.025L9.902,2.278z"/>
		<path d="M9.996,1.627L9.943,1.724l0.005,0.002v0.001l0.051-0.004V1.719L9.95,1.723l0.048-0.09l0.001,0.004V1.626
			c0,0,0-0.001-0.001-0.001S9.996,1.626,9.996,1.627z"/>
		<rect x="9.779" y="2.456" transform="matrix(-0.5039 -0.8638 0.8638 -0.5039 12.5925 12.1503)" width="0.014" height="0.005"/>
		<path d="M9.184,2.897c0-0.001-0.002-0.001-0.002-0.001L9.18,2.897v0.004h0.004v0.002l0.006,0.003v0.002l0.004-0.004L9.191,2.903
			L9.188,2.899L9.184,2.897z"/>
		<polygon points="9.871,2.466 9.871,2.466 9.863,2.456 9.859,2.458 9.867,2.469 9.867,2.469 		"/>
		<path d="M9.96,0.23c0,0,0.001-0.001,0.001-0.002s0-0.001-0.001-0.002L9.956,0.223L9.95,0.218L9.948,0.217l0.001,0.006l0.002,0.001
			l0.004,0.003L9.951,0.229H9.95v0.005h0.001l0.005-0.002L9.96,0.23z"/>
		<rect x="9.648" y="1.137" width="0.005" height="0.017"/>
		<polygon points="9.48,1.087 9.471,1.087 9.467,1.089 9.455,1.095 9.432,1.105 9.434,1.095 9.434,1.089 9.434,1.087 9.43,1.087 
			9.43,1.089 9.43,1.095 9.428,1.108 9.432,1.109 9.432,1.11 9.467,1.095 9.479,1.089 		"/>
		<path d="M9.896,1.214L9.896,1.214l0.063-0.02c0.001,0,0.001-0.001,0.001-0.001c0-0.001,0-0.002-0.001-0.002L9.921,1.162
			c-0.001,0-0.001,0-0.002,0s-0.001,0-0.001,0.001L9.895,1.21c0,0.001,0,0.002,0,0.002L9.896,1.214z M9.921,1.167l0.033,0.024
			L9.9,1.208L9.921,1.167z"/>
		<path d="M9.998,0.557C9.998,0.557,9.998,0.557,9.998,0.557L9.998,0.557v0.01l0.001,0.002L9.998,0.557L9.998,0.557L9.998,0.557z"/>
		<rect x="9.777" y="1.385" transform="matrix(0.5692 0.8222 -0.8222 0.5692 5.3565 -7.4474)" width="0.015" height="0.006"/>
		<rect x="9.858" y="1.39" transform="matrix(0.5369 0.8437 -0.8437 0.5369 5.7434 -7.677)" width="0.013" height="0.006"/>
		<polygon points="8.479,0.938 8.475,0.941 8.479,0.941 		"/>
		<polygon points="8.484,0.941 8.506,0.919 8.502,0.915 8.48,0.936 8.48,0.941 		"/>
		<polygon points="8.473,0.944 8.451,0.964 8.456,0.969 8.479,0.948 8.479,0.944 		"/>
		<polygon points="8.48,0.946 8.482,0.944 8.48,0.944 		"/>
		<polygon points="8.605,0.944 8.584,0.964 8.589,0.969 8.611,0.947 8.611,0.944 		"/>
		<polygon points="8.611,0.938 8.607,0.941 8.611,0.941 		"/>
		<polygon points="8.613,0.945 8.615,0.944 8.613,0.944 		"/>
		<polygon points="8.617,0.941 8.639,0.919 8.635,0.915 8.613,0.936 8.613,0.941 		"/>
		<polygon points="8.479,0.941 8.48,0.941 8.48,0.936 8.48,0.876 8.479,0.876 8.479,0.938 8.479,0.941 		"/>
		<polygon points="8.479,0.944 8.479,0.944 8.479,0.948 8.479,1.008 8.48,1.008 8.48,0.946 8.48,0.944 		"/>
		<polygon points="8.612,0.941 8.613,0.941 8.613,0.936 8.613,0.876 8.611,0.876 8.611,0.938 8.611,0.941 		"/>
		<polygon points="8.612,0.944 8.611,0.944 8.611,0.947 8.611,1.008 8.613,1.008 8.613,0.945 8.613,0.944 		"/>
		<polygon points="8.479,0.944 8.479,0.941 8.479,0.941 8.475,0.941 8.43,0.941 8.43,0.944 8.473,0.944 8.479,0.944 		"/>
		<polygon points="8.612,0.944 8.612,0.941 8.611,0.941 8.607,0.941 8.484,0.941 8.48,0.941 8.479,0.941 8.479,0.944 8.48,0.944 
			8.482,0.944 8.605,0.944 8.611,0.944 		"/>
		<polygon points="8.613,0.941 8.612,0.941 8.612,0.944 8.613,0.944 8.615,0.944 8.662,0.944 8.662,0.941 8.617,0.941 		"/>
		<polygon points="7.443,1.683 7.438,1.678 7.418,1.699 7.418,1.709 		"/>
		<polygon points="7.411,1.707 7.389,1.729 7.395,1.733 7.415,1.711 7.415,1.707 		"/>
		<polygon points="7.415,1.702 7.413,1.705 7.415,1.705 		"/>
		<polygon points="7.02,1.709 7.021,1.707 7.02,1.707 		"/>
		<polygon points="7.018,1.711 7.018,1.702 6.991,1.729 6.996,1.733 		"/>
		<polygon points="7.023,1.705 7.045,1.683 7.04,1.678 7.02,1.699 7.02,1.705 		"/>
		<polygon points="7.416,1.705 7.416,1.707 7.415,1.707 7.415,1.711 7.415,1.772 7.418,1.772 7.418,1.709 7.418,1.699 7.418,1.639 
			7.415,1.639 7.415,1.702 7.415,1.705 		"/>
		<polygon points="7.018,1.772 7.02,1.772 7.02,1.709 7.02,1.707 7.018,1.707 7.018,1.705 7.02,1.705 7.02,1.699 7.02,1.639 
			7.018,1.639 7.018,1.702 7.018,1.711 		"/>
		<polygon points="7.018,1.705 7.018,1.707 7.02,1.707 7.021,1.707 7.411,1.707 7.415,1.707 7.416,1.707 7.416,1.705 7.415,1.705 
			7.413,1.705 7.023,1.705 7.02,1.705 		"/>
		<polygon points="7.215,1.984 7.053,1.818 7.051,1.818 6.75,1.818 6.75,1.82 7.051,1.82 7.213,1.985 7.214,1.985 		"/>
		<polygon points="7.199,1.989 7.159,2 7.161,2.006 7.219,1.991 7.217,1.989 7.217,1.988 7.214,1.987 7.214,1.985 7.213,1.985 
			7.208,1.987 		"/>
		<polygon points="7.214,1.987 7.217,1.988 7.221,1.989 7.221,1.987 7.236,1.932 7.229,1.93 7.215,1.984 7.214,1.985 		"/>
		<polygon points="8.152,1.089 8.153,1.09 8.153,1.089 		"/>
		<polygon points="8.133,1.06 8.128,1.065 8.148,1.087 8.159,1.087 		"/>
		<polygon points="8.156,1.093 8.178,1.115 8.182,1.11 8.162,1.089 8.156,1.089 		"/>
		<polygon points="8.152,2.016 8.158,2.022 8.178,2.042 8.182,2.037 8.167,2.022 8.162,2.016 		"/>
		<polygon points="8.156,2.014 8.159,2.014 8.156,2.01 		"/>
		<polygon points="8.153,2.014 8.153,2.008 8.133,1.987 8.128,1.992 8.145,2.008 8.148,2.014 		"/>
		<polygon points="8.153,1.088 8.156,1.088 8.156,1.089 8.162,1.089 8.221,1.089 8.221,1.087 8.159,1.087 8.148,1.087 8.089,1.087 
			8.089,1.089 8.152,1.089 8.153,1.089 		"/>
		<polygon points="8.162,2.016 8.221,2.016 8.221,2.014 8.159,2.014 8.156,2.014 8.156,2.015 8.153,2.015 8.153,2.014 8.148,2.014 
			8.089,2.014 8.089,2.016 8.152,2.016 		"/>
		<polygon points="8.153,2.014 8.153,2.015 8.156,2.015 8.156,2.014 8.156,2.01 8.156,2.008 8.156,1.093 8.156,1.089 8.156,1.088 
			8.153,1.088 8.153,1.089 8.153,1.09 8.153,2.008 		"/>
		<polygon points="6.996,0.687 7.018,0.665 7.018,0.655 6.991,0.682 		"/>
		<polygon points="7.023,0.658 7.045,0.637 7.04,0.632 7.02,0.653 7.02,0.658 		"/>
		<polygon points="7.02,0.663 7.021,0.661 7.02,0.661 		"/>
		<polygon points="8.639,0.637 8.635,0.632 8.613,0.653 8.613,0.663 		"/>
		<polygon points="8.605,0.661 8.584,0.682 8.589,0.687 8.611,0.665 8.611,0.661 		"/>
		<polygon points="8.611,0.655 8.607,0.658 8.611,0.658 		"/>
		<polygon points="7.018,0.726 7.02,0.726 7.02,0.663 7.02,0.661 7.018,0.661 7.018,0.658 7.02,0.658 7.02,0.653 7.02,0.593 
			7.018,0.593 7.018,0.655 7.018,0.665 		"/>
		<polygon points="8.612,0.658 8.612,0.661 8.611,0.661 8.611,0.665 8.611,0.726 8.613,0.726 8.613,0.663 8.613,0.653 8.613,0.593 
			8.611,0.593 8.611,0.655 8.611,0.658 		"/>
		<polygon points="7.018,0.658 7.018,0.661 7.02,0.661 7.021,0.661 8.605,0.661 8.611,0.661 8.612,0.661 8.612,0.658 8.611,0.658 
			8.607,0.658 7.023,0.658 7.02,0.658 		"/>
		<path d="M8.514,0.884C8.508,0.89,8.504,0.895,8.502,0.898S8.499,0.905,8.499,0.908h0.036V0.901H8.51
			c0-0.002,0.002-0.003,0.002-0.005C8.514,0.894,8.516,0.892,8.52,0.888C8.525,0.882,8.53,0.877,8.532,0.873
			s0.003-0.009,0.003-0.013S8.534,0.852,8.531,0.848C8.529,0.844,8.523,0.842,8.518,0.842c-0.004,0-0.008,0.002-0.012,0.004
			C8.503,0.851,8.501,0.855,8.5,0.862h0.008c0-0.003,0-0.007,0.002-0.009C8.514,0.85,8.516,0.849,8.518,0.849
			c0.004,0,0.006,0.001,0.008,0.004C8.528,0.854,8.529,0.857,8.529,0.86c0,0.004-0.001,0.008-0.004,0.011
			C8.523,0.873,8.52,0.878,8.514,0.884z"/>
		<path d="M8.559,0.903c-0.002,0-0.004-0.001-0.006-0.003S8.551,0.895,8.549,0.891L8.542,0.892c0,0.005,0.002,0.01,0.007,0.013
			C8.551,0.909,8.555,0.91,8.559,0.91c0.006,0,0.01-0.002,0.015-0.007c0.003-0.005,0.004-0.01,0.004-0.017
			c0-0.006-0.001-0.011-0.004-0.016C8.57,0.867,8.566,0.865,8.561,0.865c-0.004,0-0.006,0.003-0.01,0.006l0.002-0.019h0.023V0.843
			H8.549L8.543,0.878l0.008,0.001c0-0.002,0.002-0.004,0.002-0.005c0.004-0.002,0.006-0.002,0.006-0.002
			c0.004,0,0.006,0.001,0.008,0.004C8.57,0.879,8.571,0.882,8.571,0.887s0,0.009-0.003,0.012C8.566,0.902,8.563,0.903,8.559,0.903z"
			/>
		<path d="M7.189,1.653C7.188,1.66,7.188,1.667,7.188,1.673h0.006c0-0.011,0.004-0.021,0.008-0.033
			c0.003-0.011,0.008-0.02,0.014-0.027V1.607H7.18v0.007h0.026C7.203,1.62,7.2,1.625,7.197,1.632
			C7.193,1.638,7.191,1.646,7.189,1.653z"/>
		<path d="M7.24,1.667c-0.003,0-0.006,0-0.008-0.003C7.23,1.662,7.229,1.659,7.229,1.654L7.223,1.655
			c0,0.006,0.002,0.011,0.006,0.015C7.23,1.672,7.234,1.674,7.24,1.674c0.005,0,0.01-0.003,0.013-0.007
			C7.256,1.662,7.258,1.656,7.258,1.65c0-0.007-0.002-0.012-0.006-0.016C7.25,1.631,7.245,1.629,7.241,1.629
			c-0.003,0-0.007,0.001-0.011,0.003l0.004-0.019h0.021V1.607H7.229L7.223,1.641l0.006,0.001C7.23,1.64,7.232,1.638,7.232,1.637
			C7.234,1.636,7.237,1.635,7.24,1.635c0.002,0,0.005,0.002,0.007,0.004C7.25,1.642,7.251,1.646,7.251,1.65
			c0,0.005-0.001,0.01-0.004,0.013C7.245,1.666,7.242,1.667,7.24,1.667z"/>
		<polygon points="6.133,1.786 6.089,1.786 6.089,1.794 6.107,1.794 6.107,1.853 6.115,1.853 6.115,1.794 6.133,1.794 		"/>
		<polygon points="6.146,1.821 6.176,1.821 6.176,1.853 6.184,1.853 6.184,1.786 6.176,1.786 6.176,1.813 6.146,1.813 6.146,1.786 
			6.141,1.786 6.141,1.853 6.146,1.853 		"/>
		<path d="M6.202,1.823H6.21c0.003,0,0.005,0,0.007,0.002c0.002,0.001,0.002,0.002,0.004,0.004c0,0.002,0.004,0.005,0.006,0.011
			l0.006,0.014h0.011L6.232,1.834c0-0.003-0.002-0.005-0.004-0.008C6.227,1.825,6.225,1.824,6.223,1.822
			c0.006-0.001,0.01-0.002,0.012-0.005c0.003-0.003,0.004-0.008,0.004-0.012s-0.001-0.008-0.002-0.01
			C6.234,1.791,6.232,1.789,6.23,1.788c-0.002-0.002-0.006-0.002-0.01-0.002H6.195v0.066h0.006L6.202,1.823L6.202,1.823z
			 M6.202,1.793h0.019c0.002,0,0.006,0.002,0.008,0.003C6.23,1.798,6.23,1.8,6.23,1.804c0,0.002,0,0.004,0,0.006
			C6.229,1.812,6.227,1.813,6.225,1.814S6.221,1.815,6.219,1.815H6.202V1.793z"/>
		<polygon points="6.29,1.844 6.258,1.844 6.258,1.822 6.287,1.822 6.287,1.814 6.258,1.814 6.258,1.794 6.289,1.794 6.289,1.786 
			6.25,1.786 6.25,1.853 6.29,1.853 		"/>
		<path d="M6.309,1.832h0.022l0.006,0.021h0.009L6.324,1.786h-0.01L6.294,1.853h0.009L6.309,1.832z M6.316,1.806
			c0.002-0.005,0.002-0.009,0.002-0.013C6.32,1.796,6.322,1.801,6.323,1.807l0.006,0.019H6.311L6.316,1.806z"/>
		<path d="M6.385,1.849c0.004-0.002,0.006-0.006,0.008-0.011s0.004-0.011,0.004-0.02c0-0.007,0-0.012-0.002-0.016
			s-0.004-0.007-0.006-0.01S6.385,1.788,6.381,1.787C6.378,1.786,6.374,1.786,6.37,1.786H6.35v0.066H6.37
			C6.376,1.853,6.381,1.851,6.385,1.849z M6.357,1.844v-0.05h0.012c0.004,0,0.007,0.001,0.009,0.001
			c0.005,0.001,0.007,0.004,0.009,0.008s0.002,0.008,0.002,0.016c0,0.006,0,0.012-0.002,0.017C6.385,1.838,6.383,1.841,6.381,1.843
			c-0.003,0-0.007,0.001-0.011,0.001H6.357z"/>
		<polygon points="6.434,1.8 6.462,1.853 6.471,1.853 6.471,1.786 6.463,1.786 6.463,1.838 6.434,1.786 6.428,1.786 6.428,1.853 
			6.434,1.853 		"/>
		<path d="M6.506,1.854c0.008,0,0.014-0.004,0.02-0.011C6.53,1.837,6.533,1.83,6.533,1.819c0-0.007-0.001-0.013-0.004-0.019
			C6.527,1.796,6.523,1.792,6.52,1.789S6.512,1.784,6.506,1.784c-0.007,0-0.014,0.004-0.019,0.01S6.48,1.809,6.48,1.82
			s0.002,0.018,0.007,0.023C6.491,1.85,6.498,1.854,6.506,1.854z M6.493,1.799c0.003-0.004,0.008-0.007,0.013-0.007
			c0.004,0,0.008,0.002,0.01,0.004C6.518,1.797,6.52,1.8,6.521,1.804c0.002,0.003,0.002,0.009,0.002,0.015
			c0,0.009,0,0.017-0.004,0.021S6.512,1.846,6.506,1.846c-0.005,0-0.009-0.003-0.013-0.007C6.49,1.835,6.488,1.829,6.488,1.82
			C6.488,1.811,6.49,1.804,6.493,1.799z"/>
		<path d="M6.561,1.845c-0.002,0-0.004,0-0.006-0.002c-0.004,0-0.006-0.002-0.006-0.004C6.547,1.837,6.547,1.834,6.546,1.831H6.539
			c0,0.003,0.001,0.007,0.002,0.01c0.001,0.002,0.002,0.004,0.005,0.006c0.003,0.005,0.009,0.007,0.017,0.007
			c0.004,0,0.008-0.001,0.011-0.003s0.005-0.004,0.006-0.007c0.002-0.003,0.003-0.007,0.003-0.011c0-0.003-0.001-0.006-0.003-0.009
			c0-0.004-0.003-0.006-0.007-0.008C6.57,1.816,6.566,1.814,6.561,1.813S6.553,1.81,6.551,1.809
			C6.549,1.807,6.549,1.805,6.549,1.802s0-0.005,0.002-0.006c0.002-0.002,0.006-0.003,0.01-0.003s0.008,0.001,0.01,0.003
			c0.001,0.001,0.003,0.005,0.003,0.009H6.58c0-0.005-0.001-0.008-0.002-0.011S6.574,1.789,6.571,1.787S6.564,1.784,6.561,1.784
			c-0.006,0-0.012,0.002-0.014,0.006C6.543,1.794,6.541,1.797,6.541,1.803c0,0.003,0.001,0.005,0.002,0.008
			c0.001,0.002,0.003,0.004,0.006,0.006c0.002,0.001,0.006,0.003,0.01,0.005c0.006,0.003,0.01,0.004,0.012,0.005
			S6.573,1.828,6.574,1.83c0.001,0.001,0.002,0.002,0.002,0.004c0,0.004-0.002,0.007-0.004,0.009
			C6.568,1.844,6.566,1.845,6.561,1.845z"/>
		<rect x="6.594" y="1.786" width="0.008" height="0.066"/>
		<polygon points="6.62,1.8 6.648,1.853 6.656,1.853 6.656,1.786 6.648,1.786 6.648,1.838 6.621,1.786 6.613,1.786 6.613,1.853 
			6.62,1.853 		"/>
		<path d="M6.68,1.849c0.006,0.003,0.01,0.005,0.016,0.005c0.004,0,0.007-0.001,0.011-0.003s0.007-0.005,0.011-0.008V1.818H6.693
			v0.009H6.71v0.012C6.708,1.841,6.706,1.843,6.703,1.843C6.7,1.845,6.697,1.845,6.693,1.845S6.684,1.843,6.68,1.839
			C6.676,1.834,6.674,1.828,6.674,1.819c0-0.006,0.002-0.012,0.004-0.015c0-0.004,0.004-0.007,0.006-0.008
			c0.004-0.003,0.006-0.004,0.01-0.004s0.006,0.001,0.009,0.002c0.001,0.001,0.003,0.002,0.004,0.004
			C6.708,1.8,6.709,1.803,6.71,1.807l0.007-0.003c-0.002-0.005-0.004-0.008-0.005-0.01C6.71,1.791,6.707,1.788,6.704,1.787
			C6.702,1.785,6.698,1.784,6.693,1.784c-0.004,0-0.01,0.002-0.014,0.005C6.676,1.791,6.672,1.795,6.67,1.8
			C6.667,1.806,6.666,1.813,6.666,1.819c0,0.008,0.001,0.015,0.004,0.02C6.672,1.843,6.676,1.847,6.68,1.849z"/>
		<path d="M8.055,1.589C8.059,1.59,8.061,1.592,8.063,1.595c0.004,0.002,0.006,0.006,0.009,0.009h0.008
			c0-0.001-0.001-0.003-0.003-0.006C8.073,1.595,8.072,1.593,8.07,1.591h0.051V1.585H8.055V1.589z"/>
		<path d="M8.063,1.532H8.057v0.034h0.006V1.541C8.068,1.544,8.075,1.547,8.081,1.55s0.013,0.006,0.021,0.007
			C8.109,1.559,8.116,1.56,8.121,1.56V1.553C8.111,1.552,8.1,1.55,8.089,1.546C8.079,1.542,8.068,1.537,8.063,1.532z"/>
		<path d="M8.078,1.506c0,0.004,0.001,0.008,0.004,0.01l-0.02-0.002V1.492H8.057v0.026L8.09,1.524l0.002-0.006
			C8.089,1.517,8.088,1.515,8.086,1.514C8.085,1.512,8.085,1.51,8.085,1.508c0-0.003,0.001-0.005,0.004-0.008
			C8.092,1.498,8.096,1.497,8.1,1.497c0.006,0,0.008,0.001,0.012,0.003c0.003,0.002,0.005,0.005,0.005,0.008
			S8.115,1.513,8.113,1.515c-0.002,0.001-0.006,0.003-0.01,0.003v0.008C8.109,1.525,8.114,1.523,8.118,1.52
			C8.12,1.516,8.122,1.513,8.122,1.508S8.12,1.498,8.116,1.495C8.111,1.491,8.105,1.489,8.1,1.489S8.087,1.491,8.083,1.494
			C8.079,1.498,8.078,1.501,8.078,1.506z"/>
		<path d="M7.773,0.621c-0.006,0-0.01-0.005-0.012-0.014L7.755,0.609C7.756,0.614,7.758,0.619,7.76,0.622
			c0.004,0.003,0.008,0.005,0.012,0.005c0.006,0,0.01-0.002,0.013-0.005c0.004-0.005,0.005-0.011,0.005-0.016
			c0-0.003,0-0.006,0-0.008S7.788,0.595,7.786,0.593C7.785,0.592,7.783,0.591,7.78,0.59c0.003-0.001,0.005-0.003,0.006-0.006
			C7.788,0.583,7.788,0.58,7.788,0.577c0-0.006-0.001-0.011-0.005-0.013C7.78,0.561,7.777,0.559,7.771,0.559
			c-0.004,0-0.006,0.002-0.01,0.005C7.76,0.566,7.758,0.571,7.756,0.577h0.006c0.002-0.003,0.002-0.007,0.004-0.009
			c0-0.002,0.004-0.003,0.006-0.003s0.004,0.001,0.007,0.003C7.779,0.571,7.78,0.573,7.78,0.577c0,0.002-0.001,0.005-0.002,0.007
			S7.773,0.588,7.77,0.588V0.587L7.768,0.595C7.77,0.594,7.771,0.594,7.773,0.594S7.779,0.595,7.78,0.598
			C7.783,0.6,7.784,0.603,7.784,0.607S7.782,0.614,7.78,0.617C7.779,0.619,7.775,0.621,7.773,0.621z"/>
		<path d="M7.814,0.627c0.008,0,0.012-0.003,0.014-0.008c0.004-0.008,0.005-0.016,0.005-0.025c0-0.013-0.002-0.021-0.006-0.027
			C7.825,0.562,7.821,0.559,7.814,0.559c-0.004,0-0.01,0.004-0.012,0.009C7.799,0.574,7.797,0.583,7.797,0.594
			c0,0.012,0.002,0.021,0.006,0.026C7.807,0.625,7.811,0.627,7.814,0.627z M7.809,0.572c0.002-0.004,0.004-0.006,0.006-0.006
			c0.004,0,0.007,0.002,0.01,0.005c0.002,0.005,0.003,0.013,0.003,0.023c0,0.01-0.001,0.018-0.003,0.021
			c-0.003,0.005-0.006,0.007-0.01,0.007c-0.002,0-0.004-0.002-0.006-0.007C7.807,0.612,7.805,0.604,7.805,0.594
			C7.805,0.583,7.807,0.576,7.809,0.572z"/>
		<path d="M7.857,0.627c0.006,0,0.01-0.003,0.014-0.008c0.002-0.008,0.003-0.016,0.003-0.025c0-0.013-0.001-0.021-0.004-0.027
			C7.867,0.562,7.863,0.559,7.857,0.559s-0.01,0.004-0.014,0.009C7.842,0.574,7.839,0.583,7.839,0.594
			c0,0.012,0.003,0.021,0.007,0.026C7.848,0.625,7.852,0.627,7.857,0.627z M7.85,0.572c0.002-0.004,0.004-0.006,0.008-0.006
			c0.002,0,0.006,0.002,0.008,0.005c0.002,0.005,0.003,0.012,0.003,0.022c0,0.01-0.001,0.018-0.003,0.021
			C7.864,0.619,7.861,0.621,7.857,0.621S7.852,0.619,7.85,0.615C7.848,0.612,7.848,0.604,7.848,0.594
			C7.848,0.583,7.848,0.576,7.85,0.572z"/>
	</g>
</g>
<rect y="0" fill="none" width="9.999" height="3.813"/>
</svg>
