<?xml version="1.0" encoding="utf-8"?>
<!-- Generator: Adobe Illustrator 18.1.1, SVG Export Plug-In . SVG Version: 6.00 Build 0)  -->
<svg version="1.1" id="Layer_1" xmlns="http://www.w3.org/2000/svg" xmlns:xlink="http://www.w3.org/1999/xlink" x="0px" y="0px"
	 viewBox="0 0 320 65.019" enable-background="new 0 0 320 65.019" xml:space="preserve">
<rect y="0" fill="#FFFFFF" width="320.315" height="65.019"/>
<rect x="2.562" y="0.001" fill="#C5D9F1" width="156.66" height="0.536"/>
<rect x="162.54" y="0.001" fill="#C5D9F1" width="156.819" height="0.536"/>
<rect x="2.561" y="12.495" fill="#C5D9F1" width="156.66" height="4.056"/>
<rect x="162.54" y="12.495" fill="#C5D9F1" width="156.819" height="4.056"/>
<rect x="2.561" y="52.529" fill="#C5D9F1" width="156.66" height="4.056"/>
<rect x="162.54" y="52.529" fill="#C5D9F1" width="156.819" height="4.056"/>
<rect x="2.562" y="60.746" fill="#C5D9F1" width="156.66" height="4.056"/>
<rect x="162.54" y="60.746" fill="#C5D9F1" width="156.819" height="4.056"/>
<rect x="0.071" y="0" fill="none" width="319.394" height="65.019"/>
<text transform="matrix(1 0 0 1 2.9301 3.2233)"><tspan x="0" y="0" font-family="'Arial'" font-size="2.6865">OW-0</tspan><tspan x="7.014" y="0" font-family="'Arial'" font-size="2.6865" letter-spacing="4">1</tspan><tspan x="13.483" y="0" font-family="'Arial'" font-size="2.6865">Operable Wall - Solid</tspan></text>
<text transform="matrix(1 0 0 1 109.9119 3.2233)" font-family="'Arial'" font-size="2.6865">Operable Walls</text>
<text transform="matrix(1 0 0 1 143.254 3.2233)"><tspan x="0" y="0" font-family="'Arial'" font-size="2.6865">05-18</tspan><tspan x="6.871" y="0" font-family="'Arial'" font-size="2.6865" letter-spacing="11">0</tspan><tspan x="19.804" y="0" font-family="'Arial'" font-size="2.6865">OW-0</tspan><tspan x="26.818" y="0" font-family="'Arial'" font-size="2.6865" letter-spacing="4">1</tspan><tspan x="33.288" y="0" font-family="'Arial'" font-size="2.6865">Operable Wall - Solid</tspan></text>
<text transform="matrix(1 0 0 1 270.0407 3.2233)" font-family="'Arial'" font-size="2.6865">Operable Walls</text>
<text transform="matrix(1 0 0 1 303.3827 3.2233)" font-family="'Arial'" font-size="2.6865">05-180</text>
<text transform="matrix(1 0 0 1 2.9301 7.2265)"><tspan x="0" y="0" font-family="'Arial'" font-size="2.6865">OW-0</tspan><tspan x="7.014" y="0" font-family="'Arial'" font-size="2.6865" letter-spacing="4">2</tspan><tspan x="13.483" y="0" font-family="'Arial'" font-size="2.6865">Operable Wall - Glass</tspan></text>
<text transform="matrix(1 0 0 1 109.9146 7.2265)" font-family="'Arial'" font-size="2.6865">Operable Walls</text>
<text transform="matrix(1 0 0 1 143.2567 7.2265)"><tspan x="0" y="0" font-family="'Arial'" font-size="2.6865">05-18</tspan><tspan x="6.871" y="0" font-family="'Arial'" font-size="2.6865" letter-spacing="11">0</tspan><tspan x="19.804" y="0" font-family="'Arial'" font-size="2.6865">OW-0</tspan><tspan x="26.818" y="0" font-family="'Arial'" font-size="2.6865" letter-spacing="4">2</tspan><tspan x="33.288" y="0" font-family="'Arial'" font-size="2.6865">Operable Wall - Glass</tspan></text>
<text transform="matrix(1 0 0 1 270.0456 7.2265)" font-family="'Arial'" font-size="2.6865">Operable Walls</text>
<text transform="matrix(1 0 0 1 303.3885 7.2265)" font-family="'Arial'" font-size="2.6865">05-180</text>
<g>
	<text transform="matrix(1 0 0 1 146.9505 11.2286)" font-family="'Arial'" font-size="2.6865">.</text>
	<text transform="matrix(1 0 0 1 118.6109 11.2286)" font-family="'Arial'" font-size="2.6865">.</text>
</g>
<g>
	<text transform="matrix(1 0 0 1 307.0847 11.2302)" font-family="'Arial'" font-size="2.6865">.</text>
	<text transform="matrix(1 0 0 1 278.745 11.2302)" font-family="'Arial'" font-size="2.6865">.</text>
</g>
<rect x="0.071" y="0" fill="none" width="319.394" height="65.019"/>
<text transform="matrix(1 0 0 1 16.4157 15.2871)" font-family="'Arial'" font-weight="bolder" font-size="2.6865">Paint / Clear Finishes</text>
<text transform="matrix(1 0 0 1 118.7145 15.2871)" font-family="'Arial'" font-weight="bolder" font-size="2.6865">.</text>
<text transform="matrix(1 0 0 1 147.0542 15.2871)" font-family="'Arial'" font-weight="bolder" font-size="2.6865">.</text>
<text transform="matrix(1 0 0 1 176.5547 15.2871)" font-family="'Arial'" font-weight="bolder" font-size="2.6865">Paint / Clear Finishes</text>
<text transform="matrix(1 0 0 1 278.8541 15.2871)" font-family="'Arial'" font-weight="bolder" font-size="2.6865">.</text>
<text transform="matrix(1 0 0 1 307.1932 15.2871)" font-family="'Arial'" font-weight="bolder" font-size="2.6865">.</text>
<text transform="matrix(1 0 0 1 2.929 19.2382)"><tspan x="0" y="0" font-family="'Arial'" font-size="2.6865">PT-0</tspan><tspan x="5.822" y="0" font-family="'Arial'" font-size="2.6865" letter-spacing="6">1</tspan><tspan x="13.484" y="0" font-family="'Arial'" font-size="2.6865">Interior Acrylic Paint - Low Sheen</tspan></text>
<text transform="matrix(1 0 0 1 103.2215 19.2382)"><tspan x="0" y="0" font-family="'Arial'" font-size="2.6865">Painting and Wall Finishe</tspan><tspan x="30.313" y="0" font-family="'Arial'" font-size="2.6865" letter-spacing="8">s</tspan><tspan x="39.928" y="0" font-family="'Arial'" font-size="2.6865">05-60</tspan><tspan x="46.799" y="0" font-family="'Arial'" font-size="2.6865" letter-spacing="11">0</tspan><tspan x="59.837" y="0" font-family="'Arial'" font-size="2.6865">PT-0</tspan><tspan x="65.659" y="0" font-family="'Arial'" font-size="2.6865" letter-spacing="6">8</tspan><tspan x="73.321" y="0" font-family="'Arial'" font-size="2.6865">Interior Acrylic Paint - Low Sheen</tspan></text>
<text transform="matrix(1 0 0 1 263.3475 19.2382)" font-family="'Arial'" font-size="2.6865">Painting and Wall</text>
<text transform="matrix(1 0 0 1 284.2672 19.2382)"><tspan x="0" y="0" font-family="'Arial'" font-size="2.6865"> Finishe</tspan><tspan x="9.406" y="0" font-family="'Arial'" font-size="2.6865" letter-spacing="8">s</tspan><tspan x="19.019" y="0" font-family="'Arial'" font-size="2.6865">05-606</tspan></text>
<text transform="matrix(1 0 0 1 2.929 23.2414)"><tspan x="0" y="0" font-family="'Arial'" font-size="2.6865">PT-0</tspan><tspan x="5.822" y="0" font-family="'Arial'" font-size="2.6865" letter-spacing="6">2</tspan><tspan x="13.484" y="0" font-family="'Arial'" font-size="2.6865">Interior Acrylic Paint - Low Sheen</tspan></text>
<text transform="matrix(1 0 0 1 103.2215 23.2414)"><tspan x="0" y="0" font-family="'Arial'" font-size="2.6865">Painting and Wall Finishe</tspan><tspan x="30.313" y="0" font-family="'Arial'" font-size="2.6865" letter-spacing="8">s</tspan><tspan x="40.033" y="0" font-family="'Arial'" font-size="2.6865">05-60</tspan><tspan x="46.904" y="0" font-family="'Arial'" font-size="2.6865" letter-spacing="11">0</tspan><tspan x="59.837" y="0" font-family="'Arial'" font-size="2.6865">PT-0</tspan><tspan x="65.659" y="0" font-family="'Arial'" font-size="2.6865" letter-spacing="6">9</tspan><tspan x="73.321" y="0" font-family="'Arial'" font-size="2.6865">Interior Acrylic Paint - Low Sheen</tspan></text>
<text transform="matrix(1 0 0 1 263.3475 23.2414)" font-family="'Arial'" font-size="2.6865">Painting and Wall</text>
<text transform="matrix(1 0 0 1 284.2672 23.2414)"><tspan x="0" y="0" font-family="'Arial'" font-size="2.6865"> Finishe</tspan><tspan x="9.406" y="0" font-family="'Arial'" font-size="2.6865" letter-spacing="8">s</tspan><tspan x="19.019" y="0" font-family="'Arial'" font-size="2.6865">05-607</tspan></text>
<text transform="matrix(1 0 0 1 2.929 27.244)"><tspan x="0" y="0" font-family="'Arial'" font-size="2.6865">PT-0</tspan><tspan x="5.822" y="0" font-family="'Arial'" font-size="2.6865" letter-spacing="6">3</tspan><tspan x="13.484" y="0" font-family="'Arial'" font-size="2.6865">Interior Acrylic Paint - Low Sheen</tspan></text>
<text transform="matrix(1 0 0 1 103.2215 27.244)"><tspan x="0" y="0" font-family="'Arial'" font-size="2.6865">Painting and Wall Finishe</tspan><tspan x="30.313" y="0" font-family="'Arial'" font-size="2.6865" letter-spacing="8">s</tspan><tspan x="39.928" y="0" font-family="'Arial'" font-size="2.6865">05-60</tspan><tspan x="46.799" y="0" font-family="'Arial'" font-size="2.6865" letter-spacing="11">0</tspan><tspan x="59.837" y="0" font-family="'Arial'" font-size="2.6865">PT-1</tspan><tspan x="65.659" y="0" font-family="'Arial'" font-size="2.6865" letter-spacing="6">0</tspan><tspan x="73.321" y="0" font-family="'Arial'" font-size="2.6865">Interior Acrylic Paint - Low Sheen</tspan></text>
<text transform="matrix(1 0 0 1 263.3475 27.244)" font-family="'Arial'" font-size="2.6865">Painting and Wall</text>
<text transform="matrix(1 0 0 1 284.2672 27.244)"><tspan x="0" y="0" font-family="'Arial'" font-size="2.6865"> Finishe</tspan><tspan x="9.406" y="0" font-family="'Arial'" font-size="2.6865" letter-spacing="8">s</tspan><tspan x="19.019" y="0" font-family="'Arial'" font-size="2.6865">05-600</tspan></text>
<text transform="matrix(1 0 0 1 2.929 31.2467)"><tspan x="0" y="0" font-family="'Arial'" font-size="2.6865">PT-0</tspan><tspan x="5.822" y="0" font-family="'Arial'" font-size="2.6865" letter-spacing="6">4</tspan><tspan x="13.484" y="0" font-family="'Arial'" font-size="2.6865">Interior Acrylic Paint - Low Sheen</tspan></text>
<text transform="matrix(1 0 0 1 103.2215 31.2467)"><tspan x="0" y="0" font-family="'Arial'" font-size="2.6865">Painting and Wall Finishe</tspan><tspan x="30.313" y="0" font-family="'Arial'" font-size="2.6865" letter-spacing="8">s</tspan><tspan x="39.928" y="0" font-family="'Arial'" font-size="2.6865">05-60</tspan><tspan x="46.799" y="0" font-family="'Arial'" font-size="2.6865" letter-spacing="11">0</tspan><tspan x="59.837" y="0" font-family="'Arial'" font-size="2.6865">PT-1</tspan><tspan x="65.659" y="0" font-family="'Arial'" font-size="2.6865" letter-spacing="6">1</tspan><tspan x="73.321" y="0" font-family="'Arial'" font-size="2.6865">Interior Acrylic Enamel Paint - Gloss</tspan></text>
<text transform="matrix(1 0 0 1 263.3475 31.2467)" font-family="'Arial'" font-size="2.6865">Painting and W</text>
<text transform="matrix(1 0 0 1 281.5809 31.2467)"><tspan x="0" y="0" font-family="'Arial'" font-size="2.6865">all Finishe</tspan><tspan x="12.095" y="0" font-family="'Arial'" font-size="2.6865" letter-spacing="8">s</tspan><tspan x="21.709" y="0" font-family="'Arial'" font-size="2.6865">05-600</tspan></text>
<text transform="matrix(1 0 0 1 2.929 35.2494)"><tspan x="0" y="0" font-family="'Arial'" font-size="2.6865">PT-0</tspan><tspan x="5.822" y="0" font-family="'Arial'" font-size="2.6865" letter-spacing="6">5</tspan><tspan x="13.484" y="0" font-family="'Arial'" font-size="2.6865">Interior Acrylic Paint - Low Sheen</tspan></text>
<text transform="matrix(1 0 0 1 103.2215 35.2494)"><tspan x="0" y="0" font-family="'Arial'" font-size="2.6865">Painting and Wall Finishe</tspan><tspan x="30.313" y="0" font-family="'Arial'" font-size="2.6865" letter-spacing="8">s</tspan><tspan x="39.928" y="0" font-family="'Arial'" font-size="2.6865">05-60</tspan><tspan x="46.799" y="0" font-family="'Arial'" font-size="2.6865" letter-spacing="11">3</tspan><tspan x="59.837" y="0" font-family="'Arial'" font-size="2.6865">PT-1</tspan><tspan x="65.659" y="0" font-family="'Arial'" font-size="2.6865" letter-spacing="6">3</tspan><tspan x="73.321" y="0" font-family="'Arial'" font-size="2.6865">Concrete Floor Sealer</tspan></text>
<text transform="matrix(1 0 0 1 263.3475 35.2494)"><tspan x="0" y="0" font-family="'Arial'" font-size="2.6865">Painting and Wall Finishe</tspan><tspan x="30.313" y="0" font-family="'Arial'" font-size="2.6865" letter-spacing="8">s</tspan><tspan x="40.033" y="0" font-family="'Arial'" font-size="2.6865">05-6</tspan></text>
<text transform="matrix(1 0 0 1 308.7733 35.2494)" font-family="'Arial'" font-size="2.6865">00</text>
<text transform="matrix(1 0 0 1 2.929 39.2526)"><tspan x="0" y="0" font-family="'Arial'" font-size="2.6865">PT-0</tspan><tspan x="5.822" y="0" font-family="'Arial'" font-size="2.6865" letter-spacing="6">6</tspan><tspan x="13.484" y="0" font-family="'Arial'" font-size="2.6865">Interior Acrylic Paint - Low Sheen</tspan></text>
<text transform="matrix(1 0 0 1 103.2215 39.2526)"><tspan x="0" y="0" font-family="'Arial'" font-size="2.6865">Painting and Wall Finishe</tspan><tspan x="30.313" y="0" font-family="'Arial'" font-size="2.6865" letter-spacing="8">s</tspan><tspan x="39.928" y="0" font-family="'Arial'" font-size="2.6865">05-60</tspan><tspan x="46.799" y="0" font-family="'Arial'" font-size="2.6865" letter-spacing="11">4</tspan><tspan x="59.837" y="0" font-family="'Arial'" font-size="2.6865">PT-1</tspan><tspan x="65.659" y="0" font-family="'Arial'" font-size="2.6865" letter-spacing="6">4</tspan><tspan x="73.321" y="0" font-family="'Arial'" font-size="2.6865">Paint to External Metalwork</tspan></text>
<text transform="matrix(1 0 0 1 263.3475 39.2526)" font-family="'Arial'" font-size="2.6865">Painting and Wall Finish</text>
<text transform="matrix(1 0 0 1 292.1785 39.2526)"><tspan x="0" y="0" font-family="'Arial'" font-size="2.6865">e</tspan><tspan x="1.494" y="0" font-family="'Arial'" font-size="2.6865" letter-spacing="8">s</tspan><tspan x="11.109" y="0" font-family="'Arial'" font-size="2.6865">05-600</tspan></text>
<text transform="matrix(1 0 0 1 2.9264 43.2552)"><tspan x="0" y="0" font-family="'Arial'" font-size="2.6865">PT-0</tspan><tspan x="5.822" y="0" font-family="'Arial'" font-size="2.6865" letter-spacing="6">7</tspan><tspan x="13.484" y="0" font-family="'Arial'" font-size="2.6865">Interior Acrylic Paint - Low Sheen</tspan></text>
<text transform="matrix(1 0 0 1 103.2188 43.2552)"><tspan x="0" y="0" font-family="'Arial'" font-size="2.6865">Painting and Wall Finishe</tspan><tspan x="30.313" y="0" font-family="'Arial'" font-size="2.6865" letter-spacing="8">s</tspan><tspan x="39.928" y="0" font-family="'Arial'" font-size="2.6865">05-60</tspan><tspan x="46.799" y="0" font-family="'Arial'" font-size="2.6865" letter-spacing="11">0</tspan><tspan x="59.837" y="0" font-family="'Arial'" font-size="2.6865">PT-1</tspan><tspan x="65.659" y="0" font-family="'Arial'" font-size="2.6865" letter-spacing="6">5</tspan><tspan x="73.321" y="0" font-family="'Arial'" font-size="2.6865">Line Marking Paint </tspan></text>
<text transform="matrix(1 0 0 1 263.3444 43.2552)"><tspan x="0" y="0" font-family="'Arial'" font-size="2.6865">Painting and Wall Finishe</tspan><tspan x="30.313" y="0" font-family="'Arial'" font-size="2.6865" letter-spacing="8">s</tspan><tspan x="39.929" y="0" font-family="'Arial'" font-size="2.6865">05-600</tspan></text>
<text transform="matrix(1 0 0 1 118.6039 47.2584)" font-family="'Arial'" font-size="2.6865">.</text>
<text transform="matrix(1 0 0 1 146.9441 47.2584)" font-family="'Arial'" font-size="2.6865">.</text>
<text transform="matrix(1 0 0 1 163.0632 47.2584)"><tspan x="0" y="0" font-family="'Arial'" font-size="2.6865">PT-1</tspan><tspan x="5.822" y="0" font-family="'Arial'" font-size="2.6865" letter-spacing="6">6</tspan><tspan x="13.484" y="0" font-family="'Arial'" font-size="2.6865">Write-on Wall Paint</tspan></text>
<text transform="matrix(1 0 0 1 263.3583 47.2584)"><tspan x="0" y="0" font-family="'Arial'" font-size="2.6865">Painting and Wall Finishe</tspan><tspan x="30.313" y="0" font-family="'Arial'" font-size="2.6865" letter-spacing="8">s</tspan><tspan x="39.929" y="0" font-family="'Arial'" font-size="2.6865">05-600</tspan></text>
<g>
	<text transform="matrix(1 0 0 1 146.9441 51.2616)" font-family="'Arial'" font-size="2.6865">.</text>
	<text transform="matrix(1 0 0 1 118.6039 51.2616)" font-family="'Arial'" font-size="2.6865">.</text>
</g>
<g>
	<text transform="matrix(1 0 0 1 307.0847 51.2643)" font-family="'Arial'" font-size="2.6865">.</text>
	<text transform="matrix(1 0 0 1 278.745 51.2643)" font-family="'Arial'" font-size="2.6865">.</text>
</g>
<rect x="0.071" y="0" fill="none" width="319.394" height="65.019"/>
<text transform="matrix(1 0 0 1 16.4151 55.3206)" font-family="'Arial'" font-weight="bolder" font-size="2.6865">Panelling / Cubicles</text>
<text transform="matrix(1 0 0 1 118.6098 55.3206)" font-family="'Arial'" font-weight="bolder" font-size="2.6865">.</text>
<text transform="matrix(1 0 0 1 147.0542 55.3206)" font-family="'Arial'" font-weight="bolder" font-size="2.6865">.</text>
<text transform="matrix(1 0 0 1 176.5547 55.3206)" font-family="'Arial'" font-weight="bolder" font-size="2.6865">Panelling / Cubicles</text>
<text transform="matrix(1 0 0 1 278.7488 55.3206)" font-family="'Arial'" font-weight="bolder" font-size="2.6865">.</text>
<text transform="matrix(1 0 0 1 307.1932 55.3206)" font-family="'Arial'" font-weight="bolder" font-size="2.6865">.</text>
<g>
	<text transform="matrix(1 0 0 1 146.9441 59.2728)" font-family="'Arial'" font-size="2.6865">.</text>
	<text transform="matrix(1 0 0 1 118.6039 59.2728)" font-family="'Arial'" font-size="2.6865">.</text>
</g>
<g>
	<text transform="matrix(1 0 0 1 296.0206 59.7981)" font-family="'Calibri'" font-size="2.9499">.</text>
	<text transform="matrix(1 0 0 1 263.1523 59.7981)" font-family="'Calibri'" font-size="2.9499">.</text>
</g>
<text transform="matrix(1 0 0 1 16.4157 63.8021)" font-family="'Arial'" font-weight="bolder" font-size="2.6865">Paving</text>
<text transform="matrix(1 0 0 1 118.6071 63.5922)" font-family="'Arial'" font-weight="bolder" font-size="2.6865">.</text>
<text transform="matrix(1 0 0 1 147.0515 63.8021)" font-family="'Arial'" font-weight="bolder" font-size="2.6865">.</text>
<text transform="matrix(1 0 0 1 176.552 63.8021)" font-family="'Arial'" font-weight="bolder" font-size="2.6865">Paving</text>
<text transform="matrix(1 0 0 1 278.744 63.5922)" font-family="'Arial'" font-weight="bolder" font-size="2.6865">.</text>
<text transform="matrix(1 0 0 1 307.1883 63.8021)" font-family="'Arial'" font-weight="bolder" font-size="2.6865">.</text>
<rect x="0.071" y="0" fill="none" width="319.394" height="65.019"/>
<rect x="2.562" y="0.378" width="156.766" height="0.264"/>
<rect x="2.562" y="4.382" width="156.766" height="0.263"/>
<rect x="2.562" y="8.386" width="156.766" height="0.264"/>
<rect x="2.562" y="12.389" width="156.766" height="0.264"/>
<rect x="2.562" y="16.392" width="156.766" height="0.264"/>
<rect x="2.562" y="20.396" width="156.766" height="0.263"/>
<rect x="2.562" y="24.399" width="156.766" height="0.264"/>
<rect x="2.562" y="28.402" width="156.766" height="0.264"/>
<rect x="2.562" y="32.407" width="156.766" height="0.263"/>
<rect x="2.562" y="36.41" width="156.766" height="0.263"/>
<rect x="2.562" y="40.413" width="156.766" height="0.264"/>
<rect x="2.562" y="44.416" width="156.766" height="0.264"/>
<rect x="2.562" y="48.42" width="156.766" height="0.263"/>
<rect x="2.562" y="52.424" width="156.766" height="0.263"/>
<rect x="2.562" y="56.427" width="156.766" height="0.264"/>
<rect x="2.562" y="60.64" width="156.766" height="0.264"/>
<rect x="2.562" y="64.645" width="156.766" height="0.263"/>
<rect x="2.298" y="0" width="0.264" height="65.019"/>
<rect x="15.784" y="0" width="0.263" height="65.019"/>
<rect x="102.383" y="0" width="0.264" height="65.019"/>
<rect x="135.254" y="0" width="0.263" height="65.019"/>
<rect x="159.064" y="0" width="0.264" height="65.019"/>
<rect x="162.435" y="0" width="0.264" height="65.019"/>
<rect x="175.921" y="0" width="0.263" height="65.019"/>
<rect x="262.52" y="0" width="0.264" height="65.019"/>
<rect x="295.391" y="0" width="0.263" height="65.019"/>
<rect x="319.201" y="0" width="0.264" height="65.019"/>
<rect x="162.699" y="0.378" width="156.766" height="0.264"/>
<rect x="162.699" y="4.382" width="156.766" height="0.263"/>
<rect x="162.699" y="8.386" width="156.766" height="0.264"/>
<rect x="162.699" y="12.389" width="156.766" height="0.264"/>
<rect x="162.699" y="16.392" width="156.766" height="0.264"/>
<rect x="162.699" y="20.396" width="156.766" height="0.263"/>
<rect x="162.699" y="24.399" width="156.766" height="0.264"/>
<rect x="162.699" y="28.402" width="156.766" height="0.264"/>
<rect x="162.699" y="32.407" width="156.766" height="0.263"/>
<rect x="162.699" y="36.41" width="156.766" height="0.263"/>
<rect x="162.699" y="40.413" width="156.766" height="0.264"/>
<rect x="162.699" y="44.416" width="156.766" height="0.264"/>
<rect x="162.699" y="48.42" width="156.766" height="0.263"/>
<rect x="162.699" y="52.424" width="156.766" height="0.263"/>
<rect x="162.699" y="56.427" width="156.766" height="0.264"/>
<rect x="162.699" y="60.64" width="156.766" height="0.264"/>
<rect x="162.699" y="64.645" width="156.766" height="0.263"/>
</svg>
