<?xml version="1.0" encoding="utf-8"?>
<!-- Generator: Adobe Illustrator 18.1.1, SVG Export Plug-In . SVG Version: 6.00 Build 0)  -->
<svg version="1.1" baseProfile="tiny" id="Layer_1" xmlns="http://www.w3.org/2000/svg" xmlns:xlink="http://www.w3.org/1999/xlink"
	 x="0px" y="0px" viewBox="0 0 56.7 33.5" xml:space="preserve">
<g>
	<path fill="#010202" d="M35.2,8.9v17.3h-4.5L35.2,8.9z M18.1,26.2c0.6-1.1,0.9-2.3,0.9-3.6c0-2.3-1-4.4-2.5-5.8
		c1.5-1.5,2.5-3.5,2.5-5.8c0,0,0,0,0,0l4,15.3H18.1z M7.3,26.2V19h3.6c2,0,3.6,1.6,3.6,3.6c0,2-1.6,3.6-3.6,3.6H7.3z M10.9,7.3
		c2,0,3.6,1.6,3.6,3.6c0,2-1.6,3.6-3.6,3.6H7.3V7.3H10.9z M31.1,7.3l-4.2,16.4L22.6,7.3H31.1z M47.7,26.2h-8V13L47.7,26.2z
		 M49.4,20.5l-8-13.2h8V20.5z M2.8,2.8v27.8h51V2.8H2.8z"/>
</g>
</svg>
