<svg version="1.1" xmlns="http://www.w3.org/2000/svg" xmlns:xlink="http://www.w3.org/1999/xlink" x="0px" y="0px"
   viewBox="0 0 257.1 155.9" enable-background="new 0 0 257.1 155.9" xml:space="preserve">

<!-- Dimentions  -->
<g id="third-gap"> 
    
    <rect x="24.4" y="1" fill="none" stroke="#000000" stroke-width="0.25" width="231.9" height="154.6"/>
    <rect x="55.4" y="124.7" fill="#FFFFFF" stroke="#000000" stroke-width="0.25" width="30.8" height="30.9"/>
    <rect x="24.5" y="93.7" fill="#FFFFFF" stroke="#000000" stroke-width="0.25" width="30.8" height="30.9"/>
    <g>
      <rect x="24.6" y="32" fill="#FFFFFF" width="30.5" height="30.7"/>
      <path d="M55.1,32.2v30.4H24.8V32.2H55.1 M55.3,31.9H24.5v30.9h30.8V31.9L55.3,31.9z"/>
    </g>
    <rect x="21.6" y="31.9" width="2.8" height="30.9"/>
    <rect x="24.4" y="1" fill="none" stroke="#000000" stroke-width="0.25" width="231.9" height="154.6"/>
    <text transform="matrix(1 0 0 1 38.0581 50.1732)" font-family="'Blender-Medium'" font-size="7">X</text>
    <text transform="matrix(1 0 0 1 68.9771 142.4193)" font-family="'Blender-Medium'" font-size="7">X</text>
    <text transform="matrix(1 0 0 1 1 50.2015)" font-family="'Blender-Medium'" font-size="7">1/3</text>  
</g>


<!--
<g id="structure"> 

    <rect x="24.4" y="1" fill="none" stroke="#000000" stroke-width="0.25" width="231.9" height="154.6"/>


</g>
-->

<!-- Circles -->
<!--
<circle id="top-circle" fill="none" stroke="#000000" stroke-width="0.25" cx="82.2" cy="58.8" r="26.7"/>
<circle id="bot-circle" fill="none" stroke="#000000" stroke-width="0.25" cx="82.2" cy="97.7" r="26.7"/>
-->


<!-- Guide Lines -->
<!--
<g id="guides">
  <line fill="none" stroke="#000000" stroke-width="0.25" x1="24.4" y1="32" x2="256.3" y2="32"/>
  <line fill="none" stroke="#000000" stroke-width="0.25" x1="24.4" y1="46.6" x2="256.3" y2="46.6"/>
  <line fill="none" stroke="#000000" stroke-width="0.25" x1="24.4" y1="110" x2="256.3" y2="110"/>
  <line fill="none" stroke="#000000" stroke-width="0.25" x1="24.4" y1="124.5" x2="256.3" y2="124.5"/>
  <line fill="none" stroke="#000000" stroke-width="0.25" x1="70" y1="1" x2="70" y2="155.6"/>
  <line fill="none" stroke="#000000" stroke-width="0.25" x1="55.4" y1="1" x2="55.4" y2="155.6"/>
  <line fill="none" stroke="#000000" stroke-width="0.25" x1="225.3" y1="1" x2="225.3" y2="155.6"/>
  <line fill="none" stroke="#000000" stroke-width="0.25" x1="210.7" y1="1" x2="210.7" y2="155.6"/>
</g>  
-->


<!-- Grey BVN Logo -->
<!--
<g>
  <path fill="#D0D0D0" d="M163.3,52v57.8h-14.9L163.3,52z M106.2,109.8c1.8-3.6,2.9-7.7,2.9-12.1c0-7.6-3.2-14.6-8.4-19.5
  c5.2-4.9,8.4-11.8,8.4-19.5c0,0,0,0,0-0.1l13.2,51.1H106.2z M70.1,109.8V85.7h12.1c6.6,0,12.1,5.4,12.1,12.1
  c0,6.6-5.4,12.1-12,12.1H70.1z M82.2,46.7c6.6,0,12.1,5.4,12.1,12.1c0,6.6-5.4,12.1-12,12.1H70.1V46.7H82.2z M149.4,46.7
  l-14,54.5l-14.1-54.5H149.4z M204.8,109.8h-26.6v-44L204.8,109.8z M210.6,90.7l-26.6-44h26.6V90.7z M55.3,31.9v92.7h170.1V31.9
  H55.3z"/>
</g>
-->


<!-- Black BVN Logo -->

<g id="bvn-text">  
    <path d="M163.3,52v57.8h-14.9L163.3,52z M106.2,109.8c1.8-3.6,2.9-7.7,2.9-12.1c0-7.6-3.2-14.6-8.4-19.5
      c5.2-4.9,8.4-11.8,8.4-19.5c0,0,0,0,0-0.1l13.2,51.1H106.2z M70.1,109.8V85.7h12.1c6.6,0,12.1,5.4,12.1,12.1
      c0,6.6-5.4,12.1-12,12.1H70.1z M82.2,46.7c6.6,0,12.1,5.4,12.1,12.1c0,6.6-5.4,12.1-12,12.1H70.1V46.7H82.2z M149.4,46.7l-14,54.5
      l-14.1-54.5H149.4z M204.8,109.8h-26.6v-44L204.8,109.8z M210.6,90.7l-26.6-44h26.6V90.7z M55.3,31.9v92.7h170.1V31.9H55.3z"/>
</g>


</svg>
