<?xml version="1.0" encoding="utf-8"?>
<!-- Generator: Adobe Illustrator 18.1.1, SVG Export Plug-In . SVG Version: 6.00 Build 0)  -->
<svg version="1.1" baseProfile="tiny" id="Layer_1" xmlns="http://www.w3.org/2000/svg" xmlns:xlink="http://www.w3.org/1999/xlink"
	 x="0px" y="0px" viewBox="0 0 383.9 174.4" xml:space="preserve">
<g>
	<path fill="#010202" d="M69,45.8v17.3h-4.5L69,45.8z M51.9,63.1c0.6-1.1,0.9-2.3,0.9-3.6c0-2.3-1-4.4-2.5-5.8
		c1.6-1.5,2.5-3.5,2.5-5.8c0,0,0,0,0,0l4,15.3H51.9z M41,63.1v-7.2h3.6c2,0,3.6,1.6,3.6,3.6c0,2-1.6,3.6-3.6,3.6H41z M44.7,44.2
		c2,0,3.6,1.6,3.6,3.6c0,2-1.6,3.6-3.6,3.6H41v-7.2H44.7z M64.8,44.2l-4.2,16.4l-4.2-16.4H64.8z M81.5,63.1h-8V49.9L81.5,63.1z
		 M83.2,57.4l-8-13.2h8V57.4z M36.6,39.7v27.8h51V39.7H36.6z"/>
	<path fill="#010202" d="M288.4,29.3v-3.8H288v3.8c0,0,0,0.1,0,0.1c-0.1,0.2-0.4,0.4-0.5,0.5c0,0-0.1,0-0.1,0h-1c0,0-0.1,0-0.1,0
		c-0.1-0.1-0.4-0.3-0.5-0.5c0,0,0-0.1,0-0.1v-3.8h-0.5v3.8c0,0.1,0,0.3,0.1,0.4c0.1,0.1,0.4,0.5,0.5,0.6c0.1,0.1,0.3,0.1,0.4,0.1
		h1.1c0.1,0,0.3-0.1,0.4-0.1c0.1-0.1,0.5-0.4,0.5-0.6C288.4,29.6,288.4,29.5,288.4,29.3 M281.5,28.8l0.9-2.8h0.1l0.9,2.8H281.5z
		 M284,30.4h0.5l-1.6-4.8h-0.7l-1.6,4.8h0.5l0.4-1.1h2.2L284,30.4z M279.6,29.7h-0.6v0.6h0.6V29.7z M277.8,30.4v-4.8h-0.7l-1.3,2.8
		l-1.3-2.8h-0.7v4.8h0.4V26l1.4,3h0.3l1.4-3v4.3H277.8z M272.2,29.3c0,0,0,0.1,0,0.1c-0.1,0.2-0.4,0.4-0.5,0.5c0,0-0.1,0-0.1,0h-1.2
		c0,0-0.1,0-0.1,0c-0.1-0.1-0.4-0.3-0.5-0.5c0,0,0-0.1,0-0.1v-2.7c0,0,0-0.1,0-0.1c0.1-0.2,0.4-0.4,0.5-0.5c0,0,0.1,0,0.1,0h1.2
		c0,0,0.1,0,0.1,0c0.1,0.1,0.4,0.3,0.5,0.5c0,0,0,0.1,0,0.1V29.3z M272.6,29.3v-2.7c0-0.1,0-0.3-0.1-0.4c-0.1-0.1-0.4-0.5-0.5-0.6
		c-0.1-0.1-0.3-0.1-0.4-0.1h-1.3c-0.1,0-0.3,0.1-0.4,0.1c-0.1,0.1-0.5,0.4-0.6,0.6c-0.1,0.1-0.1,0.3-0.1,0.4v2.7
		c0,0.1,0,0.3,0.1,0.4c0.1,0.1,0.4,0.5,0.6,0.6c0.1,0.1,0.3,0.1,0.4,0.1h1.3c0.1,0,0.3-0.1,0.4-0.1c0.1-0.1,0.5-0.4,0.5-0.6
		C272.6,29.6,272.6,29.5,272.6,29.3 M268.3,29.4l-0.5-0.1c-0.1,0.2-0.4,0.5-0.5,0.6c0,0-0.1,0-0.1,0h-1c0,0-0.1,0-0.1,0
		c-0.1-0.1-0.4-0.3-0.5-0.5c0,0,0-0.1,0-0.1v-2.7c0,0,0-0.1,0-0.1c0.1-0.2,0.4-0.4,0.5-0.5c0,0,0.1,0,0.1,0h1c0,0,0.1,0,0.1,0
		c0.2,0.1,0.4,0.4,0.5,0.6l0.5-0.1c0-0.1-0.1-0.2-0.2-0.3c-0.1-0.2-0.3-0.4-0.5-0.5c-0.1-0.1-0.3-0.1-0.4-0.1h-1.1
		c-0.1,0-0.3,0.1-0.4,0.1c-0.1,0.1-0.5,0.4-0.5,0.6c-0.1,0.1-0.1,0.2-0.1,0.4v2.7c0,0.1,0,0.3,0.1,0.4c0.1,0.1,0.4,0.5,0.5,0.6
		c0.1,0.1,0.3,0.1,0.4,0.1h1.1c0.1,0,0.3-0.1,0.4-0.1c0.2-0.1,0.4-0.4,0.5-0.5C268.1,29.7,268.2,29.6,268.3,29.4 M263.9,29.7h-0.6
		v0.6h0.6V29.7z M262.1,30.4v-4.8h-0.4v4.1l-2.1-4.1h-0.6v4.8h0.4v-4.1l2.1,4.1H262.1z M258.1,25.6h-0.5l-1.3,4.3h-0.1l-1.3-4.3
		h-0.5l1.5,4.8h0.7L258.1,25.6z M253.1,29.4c0,0,0,0.1,0,0.1c-0.1,0.1-0.2,0.3-0.4,0.4c0,0-0.1,0-0.1,0h-1.7v-1.8h1.7
		c0,0,0.1,0,0.1,0c0.1,0.1,0.3,0.3,0.4,0.4c0,0,0,0.1,0,0.1V29.4z M253.1,27.2c0,0,0,0.1,0,0.1c-0.1,0.1-0.2,0.3-0.4,0.4
		c0,0-0.1,0-0.1,0h-1.7V26h1.7c0,0,0.1,0,0.1,0c0.1,0.1,0.3,0.3,0.4,0.4c0,0,0,0.1,0,0.1V27.2z M253.6,29.4v-0.7
		c0-0.2,0-0.3-0.1-0.4c0-0.1-0.2-0.2-0.3-0.3c0.1-0.1,0.3-0.3,0.3-0.3c0.1-0.1,0.1-0.3,0.1-0.4v-0.6c0-0.2,0-0.3-0.1-0.4
		c-0.1-0.1-0.3-0.3-0.4-0.4c-0.1-0.1-0.3-0.2-0.5-0.2h-2.2v4.8h2.2c0.2,0,0.4-0.1,0.5-0.2c0.1-0.1,0.3-0.3,0.4-0.4
		C253.6,29.7,253.6,29.5,253.6,29.4 M247.9,25.6h-0.5l-2.5,4.8h0.5L247.9,25.6z M241.8,29.4c0,0,0,0.1,0,0.1
		c-0.1,0.1-0.3,0.3-0.4,0.4c0,0-0.1,0-0.1,0h-1c0,0-0.1,0-0.1,0c-0.1-0.1-0.3-0.3-0.4-0.4c0,0,0-0.1,0-0.1v-2.9c0,0,0-0.1,0-0.1
		c0.1-0.1,0.3-0.3,0.4-0.4c0,0,0.1,0,0.1,0h1c0,0,0.1,0,0.1,0c0.1,0.1,0.3,0.3,0.4,0.4c0,0,0,0.1,0,0.1V29.4z M242.3,29.4v-2.9
		c0-0.2,0-0.3-0.1-0.4c-0.1-0.1-0.3-0.3-0.4-0.4c-0.1-0.1-0.3-0.2-0.5-0.2h-1c-0.2,0-0.3,0.1-0.5,0.2c-0.1,0.1-0.3,0.3-0.4,0.4
		c-0.1,0.1-0.1,0.3-0.1,0.4v2.9c0,0.2,0,0.3,0.1,0.4c0.1,0.1,0.3,0.3,0.4,0.4c0.1,0.1,0.3,0.2,0.5,0.2h1c0.2,0,0.4-0.1,0.5-0.2
		c0.1-0.1,0.3-0.3,0.4-0.4C242.3,29.7,242.3,29.6,242.3,29.4 M237.8,29.4c0,0,0,0.1,0,0.1c-0.1,0.1-0.3,0.3-0.4,0.4c0,0-0.1,0-0.1,0
		h-1c0,0-0.1,0-0.1,0c-0.1-0.1-0.3-0.3-0.4-0.4c0,0,0-0.1,0-0.1v-2.9c0,0,0-0.1,0-0.1c0.1-0.1,0.3-0.3,0.4-0.4c0,0,0.1,0,0.1,0h1
		c0,0,0.1,0,0.1,0c0.1,0.1,0.3,0.3,0.4,0.4c0,0,0,0.1,0,0.1V29.4z M238.3,29.4v-2.9c0-0.2,0-0.3-0.1-0.4c-0.1-0.1-0.3-0.3-0.4-0.4
		c-0.1-0.1-0.3-0.2-0.5-0.2h-1c-0.2,0-0.3,0.1-0.5,0.2c-0.1,0.1-0.3,0.3-0.4,0.4c-0.1,0.1-0.1,0.3-0.1,0.4v2.9c0,0.2,0,0.3,0.1,0.4
		c0.1,0.1,0.3,0.3,0.4,0.4c0.1,0.1,0.3,0.2,0.5,0.2h1c0.2,0,0.4-0.1,0.5-0.2c0.1-0.1,0.3-0.3,0.4-0.4
		C238.2,29.7,238.3,29.6,238.3,29.4 M234.2,27.1v-0.6c0-0.2,0-0.3-0.1-0.4c-0.1-0.1-0.3-0.3-0.4-0.4c-0.1-0.1-0.3-0.2-0.5-0.2h-0.9
		c-0.1,0-0.3,0.1-0.4,0.1c-0.2,0.1-0.4,0.4-0.5,0.5c-0.1,0.1-0.1,0.2-0.2,0.3l0.5,0.1c0.1-0.2,0.4-0.5,0.5-0.6c0,0,0.1,0,0.1,0h0.9
		c0,0,0.1,0,0.1,0c0.1,0.1,0.3,0.3,0.4,0.4c0,0,0,0.1,0,0.1V27c0,0.2-0.1,0.3-0.2,0.4l-1.7,0.9c-0.3,0.2-0.5,0.4-0.5,0.7v1.3h2.8
		v-0.4h-2.4v-0.8c0-0.2,0.1-0.3,0.3-0.4l1.7-0.9C234,27.7,234.2,27.4,234.2,27.1 M230.2,26v-0.4h-3V26h2.5l-2.1,4.4h0.5L230.2,26z
		 M224.3,26v-0.4h-3V26h2.5l-2.1,4.4h0.5L224.3,26z M219.9,27.5C219.9,27.5,219.8,27.5,219.9,27.5c-0.2,0.3-0.5,0.5-0.6,0.6
		c0,0-0.1,0-0.1,0h-0.8c0,0-0.1,0-0.1,0c-0.1-0.1-0.3-0.3-0.4-0.4c0,0,0-0.1,0-0.1v-1c0,0,0-0.1,0-0.1c0.1-0.1,0.2-0.3,0.4-0.4
		c0,0,0.1,0,0.1,0h1c0,0,0.1,0,0.1,0c0.1,0.1,0.3,0.3,0.4,0.4c0,0,0,0.1,0,0.1V27.5z M220.3,29.4v-2.9c0-0.2,0-0.3-0.1-0.4
		c-0.1-0.1-0.3-0.3-0.4-0.4c-0.1-0.1-0.3-0.2-0.5-0.2h-1c-0.2,0-0.4,0.1-0.5,0.2c-0.1,0.1-0.3,0.3-0.4,0.4c-0.1,0.1-0.1,0.3-0.1,0.4
		v1c0,0.2,0,0.3,0.1,0.4c0.1,0.1,0.3,0.3,0.4,0.4c0.1,0.1,0.3,0.1,0.5,0.1h0.8c0.1,0,0.3,0,0.4-0.1c0.1-0.1,0.2-0.2,0.3-0.3v1.3
		c0,0,0,0.1,0,0.1c-0.1,0.1-0.2,0.3-0.4,0.4c0,0-0.1,0-0.1,0h-0.9c0,0-0.1,0-0.1,0c-0.2-0.1-0.4-0.4-0.5-0.6l-0.5,0.1
		c0,0.1,0.1,0.2,0.2,0.3c0.1,0.2,0.3,0.4,0.5,0.5c0.1,0.1,0.3,0.1,0.4,0.1h0.9c0.2,0,0.4-0.1,0.5-0.2c0.1-0.1,0.3-0.3,0.4-0.4
		C220.3,29.7,220.3,29.6,220.3,29.4 M216.3,27.1v-0.6c0-0.2,0-0.3-0.1-0.4c-0.1-0.1-0.3-0.3-0.4-0.4c-0.1-0.1-0.3-0.2-0.5-0.2h-0.9
		c-0.1,0-0.3,0.1-0.4,0.1c-0.2,0.1-0.4,0.4-0.5,0.5c-0.1,0.1-0.1,0.2-0.2,0.3l0.5,0.1c0.1-0.2,0.4-0.5,0.5-0.6c0,0,0.1,0,0.1,0h0.9
		c0,0,0.1,0,0.1,0c0.1,0.1,0.3,0.3,0.4,0.4c0,0,0,0.1,0,0.1V27c0,0.2-0.1,0.3-0.2,0.4l-1.7,0.9c-0.3,0.2-0.5,0.4-0.5,0.7v1.3h2.8
		v-0.4h-2.4v-0.8c0-0.2,0.1-0.3,0.3-0.4l1.7-0.9C216.1,27.7,216.3,27.4,216.3,27.1 M211.8,29.4c0,0,0,0.1,0,0.1
		c-0.1,0.1-0.3,0.3-0.4,0.4c0,0-0.1,0-0.1,0h-1c0,0-0.1,0-0.1,0c-0.1-0.1-0.3-0.3-0.4-0.4c0,0,0-0.1,0-0.1v-0.7c0,0,0-0.1,0-0.1
		c0.1-0.1,0.2-0.3,0.4-0.4c0,0,0.1,0,0.1,0h1c0,0,0.1,0,0.1,0c0.1,0.1,0.3,0.2,0.4,0.4c0,0,0,0.1,0,0.1V29.4z M211.8,27.1
		c0,0,0,0.1,0,0.1c-0.1,0.1-0.3,0.3-0.4,0.4c0,0-0.1,0-0.1,0h-1c0,0-0.1,0-0.1,0c-0.1-0.1-0.3-0.3-0.4-0.4c0,0,0-0.1,0-0.1v-0.6
		c0,0,0-0.1,0-0.1c0.1-0.1,0.2-0.3,0.4-0.4c0,0,0.1,0,0.1,0h1c0,0,0.1,0,0.1,0c0.1,0.1,0.3,0.3,0.4,0.4c0,0,0,0.1,0,0.1V27.1z
		 M212.3,29.4v-0.7c0-0.2,0-0.3-0.1-0.4c0-0.1-0.2-0.2-0.3-0.3c0.1-0.1,0.3-0.3,0.3-0.3c0.1-0.1,0.1-0.3,0.1-0.4v-0.7
		c0-0.2,0-0.3-0.1-0.4c-0.1-0.1-0.3-0.3-0.4-0.4c-0.1-0.1-0.3-0.2-0.5-0.2h-1c-0.2,0-0.3,0.1-0.5,0.2c-0.1,0.1-0.3,0.3-0.4,0.4
		c-0.1,0.1-0.1,0.3-0.1,0.4v0.7c0,0.2,0,0.3,0.1,0.4c0,0.1,0.2,0.2,0.3,0.3c-0.1,0.1-0.3,0.3-0.3,0.3c-0.1,0.1-0.1,0.3-0.1,0.4v0.7
		c0,0.2,0,0.3,0.1,0.4c0.1,0.1,0.3,0.3,0.4,0.4c0.1,0.1,0.3,0.2,0.5,0.2h1c0.2,0,0.3-0.1,0.5-0.2c0.1-0.1,0.3-0.3,0.4-0.4
		C212.2,29.7,212.3,29.6,212.3,29.4 M206.4,27.1v-0.6c0-0.2,0-0.3-0.1-0.4c-0.1-0.1-0.3-0.3-0.4-0.4c-0.1-0.1-0.3-0.2-0.5-0.2h-0.9
		c-0.1,0-0.3,0.1-0.4,0.1c-0.2,0.1-0.4,0.4-0.5,0.5c-0.1,0.1-0.1,0.2-0.2,0.3l0.5,0.1c0.1-0.2,0.4-0.5,0.5-0.6c0,0,0.1,0,0.1,0h0.9
		c0,0,0.1,0,0.1,0c0.1,0.1,0.3,0.3,0.4,0.4c0,0,0,0.1,0,0.1V27c0,0.2-0.1,0.3-0.2,0.4l-1.7,0.9c-0.3,0.2-0.5,0.4-0.5,0.7v1.3h2.8
		v-0.4H204v-0.8c0-0.2,0.1-0.3,0.3-0.4l1.7-0.9C206.2,27.7,206.4,27.4,206.4,27.1 M200.5,30.4v-0.4h-1.1v-4.4h-1.6V26h1.1v3.9h-1.2
		v0.4H200.5z M196,29.4c0,0,0,0.1,0,0.1c-0.1,0.1-0.2,0.3-0.4,0.4c0,0-0.1,0-0.1,0h-1c0,0-0.1,0-0.1,0c-0.1-0.1-0.3-0.3-0.4-0.4
		c0,0,0-0.1,0-0.1v-1c0,0,0-0.1,0-0.1c0.1-0.2,0.4-0.4,0.6-0.5c0,0,0.1,0,0.1,0h0.8c0,0,0.1,0,0.1,0c0.1,0.1,0.3,0.3,0.4,0.4
		c0,0,0,0.1,0,0.1V29.4z M196.5,29.4v-1c0-0.2,0-0.3-0.1-0.4c-0.1-0.1-0.3-0.3-0.4-0.4c-0.1-0.1-0.3-0.1-0.5-0.1h-0.8
		c-0.1,0-0.3,0-0.4,0.1c-0.1,0.1-0.2,0.2-0.3,0.3v-1.3c0,0,0-0.1,0-0.1c0.1-0.1,0.2-0.3,0.4-0.4c0,0,0.1,0,0.1,0h0.9
		c0,0,0.1,0,0.1,0c0.2,0.1,0.4,0.4,0.5,0.6l0.5-0.1c0-0.1-0.1-0.2-0.2-0.3c-0.1-0.2-0.3-0.4-0.5-0.5c-0.1-0.1-0.3-0.1-0.4-0.1h-0.9
		c-0.2,0-0.3,0.1-0.5,0.2c-0.1,0.1-0.3,0.3-0.4,0.4c-0.1,0.1-0.1,0.3-0.1,0.4v2.9c0,0.2,0,0.3,0.1,0.4c0.1,0.1,0.3,0.3,0.4,0.4
		c0.1,0.1,0.3,0.2,0.5,0.2h1c0.2,0,0.3-0.1,0.5-0.2c0.1-0.1,0.3-0.3,0.4-0.4C196.5,29.7,196.5,29.6,196.5,29.4 M192.3,28.6v-0.4
		h-1.2V27h-0.4v1.2h-1.2v0.4h1.2v1.2h0.4v-1.2H192.3z M186.7,26v-0.4h-3.2V26h1.4v4.4h0.5V26H186.7z M181.3,25.6h-0.5l-2.5,4.8h0.5
		L181.3,25.6z M173.1,28.8L174,26h0.1l0.9,2.8H173.1z M175.5,30.4h0.5l-1.6-4.8h-0.7l-1.6,4.8h0.5l0.4-1.1h2.2L175.5,30.4z
		 M171.2,25.6h-0.5v4.8h0.5V25.6z M169.8,30.4v-0.4h-2.2v-4.4h-0.5v4.8H169.8z M163.4,28.8l0.9-2.8h0.1l0.9,2.8H163.4z M165.9,30.4
		h0.5l-1.6-4.8H164l-1.6,4.8h0.5l0.4-1.1h2.2L165.9,30.4z M161.1,27.2c0,0,0,0.1,0,0.1c-0.1,0.1-0.3,0.3-0.4,0.4c0,0-0.1,0-0.1,0
		h-1.7V26h1.7c0,0,0.1,0,0.1,0c0.1,0.1,0.3,0.3,0.4,0.4c0,0,0,0.1,0,0.1V27.2z M161.6,27.2v-0.7c0-0.2,0-0.3-0.1-0.4
		c-0.1-0.1-0.3-0.3-0.4-0.4c-0.1-0.1-0.3-0.2-0.5-0.2h-2.2v4.8h0.5v-2.1h1.2l1.2,2.1h0.5l-1.2-2.1c0.2,0,0.3-0.1,0.4-0.2
		c0.1-0.1,0.4-0.3,0.4-0.4C161.6,27.5,161.6,27.4,161.6,27.2 M157.5,26v-0.4h-3.2V26h1.4v4.4h0.5V26H157.5z M153.6,29.3v-0.5
		c0-0.3-0.2-0.7-0.5-0.7l-2.2-0.6c-0.1,0-0.2-0.2-0.2-0.4v-0.5c0,0,0-0.1,0-0.1c0.1-0.2,0.4-0.4,0.5-0.5c0,0,0.1,0,0.1,0h1.1
		c0,0,0.1,0,0.1,0c0.1,0.1,0.4,0.3,0.5,0.5c0,0,0,0,0.1,0.1l0.5-0.1c0-0.1-0.1-0.2-0.2-0.3c-0.1-0.2-0.3-0.4-0.5-0.5
		c-0.1-0.1-0.3-0.1-0.4-0.1h-1.2c-0.1,0-0.3,0.1-0.4,0.1c-0.1,0.1-0.5,0.4-0.6,0.6c-0.1,0.1-0.1,0.3-0.1,0.4v0.5
		c0,0.3,0.2,0.7,0.5,0.8l2.2,0.6c0.2,0,0.3,0.2,0.3,0.4v0.5c0,0,0,0.1,0,0.1c-0.1,0.2-0.4,0.4-0.5,0.5c0,0-0.1,0-0.1,0h-1.3
		c0,0-0.1,0-0.1,0c-0.1-0.1-0.4-0.3-0.5-0.5c0,0,0,0-0.1-0.1l-0.5,0.1c0,0.1,0.1,0.2,0.2,0.3c0.1,0.2,0.3,0.4,0.5,0.5
		c0.1,0.1,0.3,0.1,0.4,0.1h1.3c0.1,0,0.3-0.1,0.4-0.1c0.1-0.1,0.5-0.4,0.6-0.6C153.6,29.6,153.6,29.5,153.6,29.3 M149.1,29.3v-3.8
		h-0.5v3.8c0,0,0,0.1,0,0.1c-0.1,0.2-0.4,0.4-0.5,0.5c0,0-0.1,0-0.1,0h-1c0,0-0.1,0-0.1,0c-0.1-0.1-0.4-0.3-0.5-0.5c0,0,0-0.1,0-0.1
		v-3.8h-0.5v3.8c0,0.1,0,0.3,0.1,0.4c0.1,0.1,0.4,0.5,0.5,0.6c0.1,0.1,0.3,0.1,0.4,0.1h1.1c0.1,0,0.3-0.1,0.4-0.1
		c0.1-0.1,0.5-0.4,0.5-0.6C149.1,29.6,149.1,29.5,149.1,29.3 M142.2,28.8l0.9-2.8h0.1l0.9,2.8H142.2z M144.6,30.4h0.5l-1.6-4.8h-0.7
		l-1.6,4.8h0.5l0.4-1.1h2.2L144.6,30.4z M138.2,29.4c0,0,0,0.1,0,0.1c-0.1,0.1-0.3,0.3-0.4,0.4c0,0-0.1,0-0.1,0h-1c0,0-0.1,0-0.1,0
		c-0.1-0.1-0.3-0.3-0.4-0.4c0,0,0-0.1,0-0.1v-2.9c0,0,0-0.1,0-0.1c0.1-0.1,0.3-0.3,0.4-0.4c0,0,0.1,0,0.1,0h1c0,0,0.1,0,0.1,0
		c0.1,0.1,0.3,0.3,0.4,0.4c0,0,0,0.1,0,0.1V29.4z M138.7,29.4v-2.9c0-0.2,0-0.3-0.1-0.4c-0.1-0.1-0.3-0.3-0.4-0.4
		c-0.1-0.1-0.3-0.2-0.5-0.2h-1c-0.2,0-0.3,0.1-0.5,0.2c-0.1,0.1-0.3,0.3-0.4,0.4c-0.1,0.1-0.1,0.3-0.1,0.4v2.9c0,0.2,0,0.3,0.1,0.4
		c0.1,0.1,0.3,0.3,0.4,0.4c0.1,0.1,0.3,0.2,0.5,0.2h1c0.2,0,0.4-0.1,0.5-0.2c0.1-0.1,0.3-0.3,0.4-0.4
		C138.6,29.7,138.7,29.6,138.7,29.4 M134.2,29.4c0,0,0,0.1,0,0.1c-0.1,0.1-0.3,0.3-0.4,0.4c0,0-0.1,0-0.1,0h-1c0,0-0.1,0-0.1,0
		c-0.1-0.1-0.3-0.3-0.4-0.4c0,0,0-0.1,0-0.1v-2.9c0,0,0-0.1,0-0.1c0.1-0.1,0.3-0.3,0.4-0.4c0,0,0.1,0,0.1,0h1c0,0,0.1,0,0.1,0
		c0.1,0.1,0.3,0.3,0.4,0.4c0,0,0,0.1,0,0.1V29.4z M134.7,29.4v-2.9c0-0.2,0-0.3-0.1-0.4c-0.1-0.1-0.3-0.3-0.4-0.4
		c-0.1-0.1-0.3-0.2-0.5-0.2h-1c-0.2,0-0.3,0.1-0.5,0.2c-0.1,0.1-0.3,0.3-0.4,0.4c-0.1,0.1-0.1,0.3-0.1,0.4v2.9c0,0.2,0,0.3,0.1,0.4
		c0.1,0.1,0.3,0.3,0.4,0.4c0.1,0.1,0.3,0.2,0.5,0.2h1c0.2,0,0.4-0.1,0.5-0.2c0.1-0.1,0.3-0.3,0.4-0.4
		C134.6,29.7,134.7,29.6,134.7,29.4 M130.2,29.4c0,0,0,0.1,0,0.1c-0.1,0.1-0.3,0.3-0.4,0.4c0,0-0.1,0-0.1,0h-1c0,0-0.1,0-0.1,0
		c-0.1-0.1-0.3-0.3-0.4-0.4c0,0,0-0.1,0-0.1v-2.9c0,0,0-0.1,0-0.1c0.1-0.1,0.3-0.3,0.4-0.4c0,0,0.1,0,0.1,0h1c0,0,0.1,0,0.1,0
		c0.1,0.1,0.3,0.3,0.4,0.4c0,0,0,0.1,0,0.1V29.4z M130.6,29.4v-2.9c0-0.2,0-0.3-0.1-0.4c-0.1-0.1-0.3-0.3-0.4-0.4
		c-0.1-0.1-0.3-0.2-0.5-0.2h-1c-0.2,0-0.3,0.1-0.5,0.2c-0.1,0.1-0.3,0.3-0.4,0.4c-0.1,0.1-0.1,0.3-0.1,0.4v2.9c0,0.2,0,0.3,0.1,0.4
		c0.1,0.1,0.3,0.3,0.4,0.4c0.1,0.1,0.3,0.2,0.5,0.2h1c0.2,0,0.4-0.1,0.5-0.2c0.1-0.1,0.3-0.3,0.4-0.4
		C130.6,29.7,130.6,29.6,130.6,29.4 M126.6,27.1v-0.6c0-0.2,0-0.3-0.1-0.4c-0.1-0.1-0.3-0.3-0.4-0.4c-0.1-0.1-0.3-0.2-0.5-0.2h-0.9
		c-0.1,0-0.3,0.1-0.4,0.1c-0.2,0.1-0.4,0.4-0.5,0.5c-0.1,0.1-0.1,0.2-0.2,0.3l0.5,0.1c0.1-0.2,0.4-0.5,0.5-0.6c0,0,0.1,0,0.1,0h0.9
		c0,0,0.1,0,0.1,0c0.1,0.1,0.3,0.3,0.4,0.4c0,0,0,0.1,0,0.1V27c0,0.2-0.1,0.3-0.2,0.4l-1.7,0.9c-0.3,0.2-0.5,0.4-0.5,0.7v1.3h2.8
		v-0.4h-2.4v-0.8c0-0.2,0.1-0.3,0.3-0.4l1.7-0.9C126.4,27.7,126.6,27.4,126.6,27.1 M121.2,25.6h-0.5l-1.2,2.3l-1.2-2.3h-0.5l1.5,2.8
		v2h0.5v-2L121.2,25.6z M117,30.4v-0.4h-2.3v-1.7h2.2v-0.4h-2.2V26h2.3v-0.4h-2.8v4.8H117z M113,30.4v-4.8h-0.4v4.1l-2.1-4.1h-0.6
		v4.8h0.4v-4.1l2.1,4.1H113z M108.2,26.6v2.6c0,0,0,0.1,0,0.1c-0.1,0.2-0.4,0.4-0.5,0.5c0,0-0.1,0-0.1,0h-1.6V26h1.6
		c0,0,0.1,0,0.1,0c0.1,0.1,0.4,0.3,0.5,0.5C108.2,26.6,108.2,26.6,108.2,26.6 M108.6,29.3v-2.7c0-0.1,0-0.3-0.1-0.4
		c-0.1-0.1-0.4-0.5-0.5-0.6c-0.1-0.1-0.3-0.1-0.4-0.1h-2.1v4.8h2.1c0.1,0,0.3-0.1,0.4-0.1c0.1-0.1,0.5-0.4,0.5-0.6
		C108.6,29.6,108.6,29.4,108.6,29.3 M104.8,25.6h-0.5l-1.2,2.3l-1.2-2.3h-0.5l1.5,2.8v2h0.5v-2L104.8,25.6z M100.8,29.3v-0.5
		c0-0.3-0.2-0.7-0.5-0.7l-2.2-0.6c-0.1,0-0.2-0.2-0.2-0.4v-0.5c0,0,0-0.1,0-0.1c0.1-0.2,0.4-0.4,0.5-0.5c0,0,0.1,0,0.1,0h1.1
		c0,0,0.1,0,0.1,0c0.1,0.1,0.4,0.3,0.5,0.5c0,0,0,0,0.1,0.1l0.5-0.1c0-0.1-0.1-0.2-0.2-0.3c-0.1-0.2-0.3-0.4-0.5-0.5
		c-0.1-0.1-0.3-0.1-0.4-0.1h-1.2c-0.1,0-0.3,0.1-0.4,0.1c-0.1,0.1-0.5,0.4-0.6,0.6c-0.1,0.1-0.1,0.3-0.1,0.4v0.5
		c0,0.3,0.2,0.7,0.5,0.8l2.2,0.6c0.2,0,0.3,0.2,0.3,0.4v0.5c0,0,0,0.1,0,0.1c-0.1,0.2-0.4,0.4-0.5,0.5c0,0-0.1,0-0.1,0h-1.3
		c0,0-0.1,0-0.1,0c-0.1-0.1-0.4-0.3-0.5-0.5c0,0,0,0-0.1-0.1l-0.5,0.1c0,0.1,0.1,0.2,0.2,0.3c0.1,0.2,0.3,0.4,0.5,0.5
		c0.1,0.1,0.3,0.1,0.4,0.1h1.3c0.1,0,0.3-0.1,0.4-0.1c0.1-0.1,0.5-0.4,0.6-0.6C100.8,29.6,100.8,29.5,100.8,29.3 M94.9,25.6h-0.5
		l-2.5,4.8h0.5L94.9,25.6z M89.6,26v-0.4h-3.2V26h1.4v4.4h0.5V26H89.6z M85.4,30.4v-0.4h-2.3v-1.7h2.2v-0.4h-2.2V26h2.3v-0.4h-2.8
		v4.8H85.4z M81.5,30.4v-0.4h-2.3v-1.7h2.2v-0.4h-2.2V26h2.3v-0.4h-2.8v4.8H81.5z M77,27.2c0,0,0,0.1,0,0.1
		c-0.1,0.1-0.3,0.3-0.4,0.4c0,0-0.1,0-0.1,0h-1.7V26h1.7c0,0,0.1,0,0.1,0c0.1,0.1,0.3,0.3,0.4,0.4c0,0,0,0.1,0,0.1V27.2z M77.5,27.2
		v-0.7c0-0.2,0-0.3-0.1-0.4c-0.1-0.1-0.3-0.3-0.4-0.4c-0.1-0.1-0.3-0.2-0.5-0.2h-2.2v4.8h0.5v-2.1H76l1.2,2.1h0.5l-1.2-2.1
		c0.2,0,0.3-0.1,0.4-0.2c0.1-0.1,0.4-0.3,0.4-0.4C77.4,27.5,77.5,27.4,77.5,27.2 M73.4,26v-0.4h-3.2V26h1.4v4.4H72V26H73.4z
		 M69.5,29.3v-0.5c0-0.3-0.2-0.7-0.5-0.7l-2.2-0.6c-0.1,0-0.2-0.2-0.2-0.4v-0.5c0,0,0-0.1,0-0.1c0.1-0.2,0.4-0.4,0.5-0.5
		c0,0,0.1,0,0.1,0h1.1c0,0,0.1,0,0.1,0c0.1,0.1,0.4,0.3,0.5,0.5c0,0,0,0,0.1,0.1l0.5-0.1c0-0.1-0.1-0.2-0.2-0.3
		c-0.1-0.2-0.3-0.4-0.5-0.5c-0.1-0.1-0.3-0.1-0.4-0.1h-1.2c-0.1,0-0.3,0.1-0.4,0.1c-0.1,0.1-0.5,0.4-0.6,0.6
		c-0.1,0.1-0.1,0.3-0.1,0.4v0.5c0,0.3,0.2,0.7,0.5,0.8l2.2,0.6c0.2,0,0.3,0.2,0.3,0.4v0.5c0,0,0,0.1,0,0.1c-0.1,0.2-0.4,0.4-0.5,0.5
		c0,0-0.1,0-0.1,0h-1.3c0,0-0.1,0-0.1,0c-0.1-0.1-0.4-0.3-0.5-0.5c0,0,0,0-0.1-0.1L66,29.4c0,0.1,0.1,0.2,0.2,0.3
		c0.1,0.2,0.3,0.4,0.5,0.5c0.1,0.1,0.3,0.1,0.4,0.1h1.3c0.1,0,0.3-0.1,0.4-0.1c0.1-0.1,0.5-0.4,0.6-0.6
		C69.4,29.6,69.5,29.5,69.5,29.3 M63.4,26v-0.4h-3.2V26h1.4v4.4h0.5V26H63.4z M59.7,26v-0.4h-3.2V26h1.4v4.4h0.5V26H59.7z
		 M55.6,25.6h-0.5v4.8h0.5V25.6z M53.6,27.2c0,0,0,0.1,0,0.1c-0.1,0.1-0.3,0.3-0.4,0.4c0,0-0.1,0-0.1,0h-1.7V26h1.7c0,0,0.1,0,0.1,0
		c0.1,0.1,0.3,0.3,0.4,0.4c0,0,0,0.1,0,0.1V27.2z M54.1,27.2v-0.7c0-0.2,0-0.3-0.1-0.4c-0.1-0.1-0.3-0.3-0.4-0.4
		c-0.1-0.1-0.3-0.2-0.5-0.2h-2.2v4.8h0.5v-2.1h1.7c0.2,0,0.3-0.1,0.5-0.2c0.1-0.1,0.4-0.3,0.4-0.4C54,27.5,54.1,27.4,54.1,27.2
		 M48,29.4v-0.9c0-0.2,0-0.3-0.1-0.4c-0.1-0.1-0.3-0.3-0.4-0.4c-0.1-0.1-0.3-0.2-0.5-0.2h-1.3V26h2.1v-0.4h-2.5v2.4H47
		c0,0,0.1,0,0.1,0c0.1,0.1,0.3,0.2,0.4,0.4c0,0,0,0.1,0,0.1v0.9c0,0,0,0.1,0,0.1c-0.1,0.1-0.2,0.3-0.4,0.4c0,0-0.1,0-0.1,0h-0.9
		c0,0-0.1,0-0.1,0c-0.2-0.1-0.4-0.4-0.5-0.6L45,29.4c0,0.1,0.1,0.2,0.2,0.3c0.1,0.2,0.3,0.4,0.5,0.5c0.1,0.1,0.3,0.1,0.4,0.1H47
		c0.2,0,0.4-0.1,0.5-0.2c0.1-0.1,0.3-0.3,0.4-0.4C48,29.7,48,29.6,48,29.4 M44,29.4v-0.9c0-0.2,0-0.3-0.1-0.4
		c-0.1-0.1-0.3-0.3-0.4-0.4c-0.1-0.1-0.3-0.2-0.5-0.2h-1.3V26h2.1v-0.4h-2.5v2.4H43c0,0,0.1,0,0.1,0c0.1,0.1,0.3,0.2,0.4,0.4
		c0,0,0,0.1,0,0.1v0.9c0,0,0,0.1,0,0.1c-0.1,0.1-0.2,0.3-0.4,0.4c0,0-0.1,0-0.1,0h-0.9c0,0-0.1,0-0.1,0c-0.2-0.1-0.4-0.4-0.5-0.6
		l-0.5,0.1c0,0.1,0.1,0.2,0.2,0.3c0.1,0.2,0.3,0.4,0.5,0.5c0.1,0.1,0.3,0.1,0.4,0.1H43c0.2,0,0.4-0.1,0.5-0.2
		c0.1-0.1,0.3-0.3,0.4-0.4C43.9,29.7,44,29.6,44,29.4 M39.9,27.1v-0.6c0-0.2,0-0.3-0.1-0.4c-0.1-0.1-0.3-0.3-0.4-0.4
		c-0.1-0.1-0.3-0.2-0.5-0.2H38c-0.1,0-0.3,0.1-0.4,0.1c-0.2,0.1-0.4,0.4-0.5,0.5c-0.1,0.1-0.1,0.2-0.2,0.3l0.5,0.1
		c0.1-0.2,0.4-0.5,0.5-0.6c0,0,0.1,0,0.1,0h0.9c0,0,0.1,0,0.1,0c0.1,0.1,0.3,0.3,0.4,0.4c0,0,0,0.1,0,0.1V27c0,0.2-0.1,0.3-0.2,0.4
		l-1.7,0.9c-0.3,0.2-0.5,0.4-0.5,0.7v1.3h2.8v-0.4h-2.4v-0.8c0-0.2,0.1-0.3,0.3-0.4l1.7-0.9C39.7,27.7,39.9,27.4,39.9,27.1"/>
</g>
<line fill="none" stroke="#010202" stroke-width="0.5" stroke-linecap="round" stroke-linejoin="round" stroke-dasharray="0,1.501" x1="379.5" y1="2.8" x2="3.6" y2="3.1"/>
<line fill="none" stroke="#010202" stroke-width="0.5" stroke-linecap="round" stroke-linejoin="round" stroke-dasharray="0,1.504" x1="2.8" y1="4.6" x2="2.8" y2="170.8"/>
<path fill="none" stroke="#010202" stroke-width="0.5" stroke-linecap="round" stroke-linejoin="round" d="M2.8,171.5L2.8,171.5
	 M2.8,3.1L2.8,3.1 M381,2.8L381,2.8"/>
</svg>
