<?xml version="1.0" encoding="utf-8"?>
<!-- Generator: Adobe Illustrator 18.1.1, SVG Export Plug-In . SVG Version: 6.00 Build 0)  -->
<svg class="Layer_1" xmlns="http://www.w3.org/2000/svg" xmlns:xlink="http://www.w3.org/1999/xlink" x="0px" y="0px"
	 viewBox="0 0 141.1 21.6" enable-background="new 0 0 141.1 21.6" xml:space="preserve">
<line fill="none" stroke="#000000" stroke-width="6.500000e-002" stroke-linejoin="bevel" stroke-miterlimit="1.414" x1="6.4" y1="10.8" x2="6.4" y2="10.8"/>
<line fill="none" stroke="#000000" stroke-width="6.500000e-002" stroke-linejoin="bevel" stroke-miterlimit="1.414" x1="6.4" y1="10.8" x2="6.4" y2="10.8"/>
<line fill="none" stroke="#000000" stroke-width="0.129" stroke-linejoin="round" stroke-miterlimit="1.414" x1="21.2" y1="10.8" x2="121.2" y2="10.8"/>
<line fill="none" stroke="#000000" stroke-width="0.129" stroke-linejoin="round" stroke-miterlimit="1.414" x1="0.3" y1="10.8" x2="21.2" y2="10.8"/>
<path fill="none" stroke="#000000" stroke-width="0.129" stroke-linejoin="round" stroke-miterlimit="1.414" d="M21.2,10.8
	c0-1.4-0.3-2.7-0.8-4c-0.5-1.3-1.3-2.4-2.3-3.4c-1-1-2.1-1.7-3.4-2.3c-1.3-0.5-2.6-0.8-4-0.8S8,0.6,6.8,1.1C5.5,1.7,4.4,2.4,3.4,3.4
	S1.7,5.5,1.1,6.8c-0.5,1.3-0.8,2.6-0.8,4c0,1.4,0.3,2.7,0.8,4c0.5,1.3,1.3,2.4,2.3,3.4c1,1,2.1,1.7,3.4,2.3c1.3,0.5,2.6,0.8,4,0.8
	s2.7-0.3,4-0.8c1.3-0.5,2.4-1.3,3.4-2.3c1-1,1.7-2.1,2.3-3.4C20.9,13.5,21.2,12.1,21.2,10.8"/>
<path fill-rule="evenodd" clip-rule="evenodd" d="M8,6.8c0-1,0.1-1.6,0.3-2C8.5,4.4,8.7,4.3,9,4.3c0.3,0,0.5,0.2,0.8,0.5
	c0.2,0.3,0.3,1,0.3,2c0,1-0.1,1.6-0.3,2C9.6,9.1,9.3,9.3,9,9.3c-0.3,0-0.5-0.2-0.7-0.5C8.1,8.4,8,7.8,8,6.8 M7.4,6.8
	c0,1.2,0.2,2,0.5,2.4C8.2,9.6,8.6,9.9,9,9.9c0.5,0,0.9-0.3,1.2-0.8c0.3-0.5,0.4-1.3,0.4-2.3c0-1.1-0.2-2-0.5-2.5
	C9.9,3.9,9.5,3.7,9,3.7c-0.5,0-0.9,0.2-1.2,0.8C7.5,5,7.4,5.7,7.4,6.8"/>
<path fill-rule="evenodd" clip-rule="evenodd" d="M14.5,9h-2.4c0.1-0.1,0.1-0.3,0.2-0.4c0.1-0.1,0.3-0.4,0.7-0.8
	c0.6-0.6,0.9-1.1,1.2-1.4c0.2-0.4,0.3-0.7,0.3-1.1c0-0.4-0.1-0.8-0.4-1.2c-0.3-0.4-0.6-0.5-1.2-0.5c-0.5,0-0.8,0.1-1.1,0.4
	c-0.3,0.3-0.5,0.7-0.5,1.3L12,5.5c0-0.4,0.1-0.7,0.3-0.9c0.2-0.2,0.4-0.3,0.7-0.3c0.3,0,0.5,0.1,0.7,0.3c0.2,0.2,0.3,0.5,0.3,0.8
	c0,0.3-0.1,0.5-0.3,0.9c-0.2,0.3-0.5,0.8-1.1,1.3c-0.5,0.5-0.8,0.9-1,1.3c-0.2,0.3-0.3,0.7-0.3,1h3.3V9"/>
<rect y="0" fill="none" width="141.1" height="21.6"/>
<rect x="10.3" y="14.6" width="1.3" height="0.5"/>
<path fill-rule="evenodd" clip-rule="evenodd" d="M31,5.4V3h1.8c0.4,0,0.7,0.1,0.9,0.3C33.9,3.6,34,3.8,34,4.2
	c0,0.2-0.1,0.5-0.2,0.6c-0.1,0.2-0.3,0.3-0.4,0.4c-0.2,0.1-0.5,0.1-0.8,0.1H31 M30.3,9.3H31V6.2h0.9c0.3,0,0.5,0,0.6,0.1
	c0.2,0.1,0.3,0.2,0.5,0.4c0.1,0.2,0.3,0.6,0.6,1.2l0.8,1.5h0.9l-1-1.9c-0.2-0.3-0.4-0.6-0.6-0.9c-0.1-0.1-0.3-0.3-0.5-0.4
	c0.5-0.1,0.9-0.3,1.2-0.6c0.3-0.3,0.4-0.8,0.4-1.3c0-0.4-0.1-0.8-0.2-1c-0.2-0.3-0.4-0.5-0.6-0.6c-0.3-0.1-0.6-0.2-1.2-0.2h-2.5V9.3
	"/>
<polygon fill-rule="evenodd" clip-rule="evenodd" points="36,9.3 40.3,9.3 40.3,8.4 36.8,8.4 36.8,6.1 39.9,6.1 39.9,5.2 36.8,5.2 
	36.8,3.1 40.1,3.1 40.1,2.3 36,2.3 "/>
<path fill-rule="evenodd" clip-rule="evenodd" d="M45.4,6.8c-0.1,0.6-0.3,1-0.6,1.3c-0.3,0.3-0.6,0.5-1,0.5c-0.6,0-1-0.2-1.3-0.7
	c-0.4-0.5-0.5-1.2-0.5-2.1c0-0.6,0.1-1.2,0.2-1.6c0.2-0.4,0.4-0.7,0.7-0.9c0.3-0.2,0.6-0.3,1-0.3c0.8,0,1.3,0.5,1.5,1.5L46,4.2
	c-0.1-0.6-0.4-1.2-0.8-1.5c-0.4-0.4-0.9-0.5-1.4-0.5c-0.5,0-1,0.1-1.4,0.4c-0.4,0.3-0.8,0.7-1,1.2c-0.2,0.5-0.4,1.2-0.4,1.9
	c0,0.8,0.1,1.5,0.4,2c0.2,0.6,0.5,1,0.9,1.3c0.4,0.2,0.8,0.4,1.3,0.4c0.6,0,1.1-0.2,1.5-0.6c0.4-0.4,0.7-1,0.9-1.8L45.4,6.8"/>
<polygon fill-rule="evenodd" clip-rule="evenodd" points="47.1,9.3 51.4,9.3 51.4,8.4 47.9,8.4 47.9,6.1 51,6.1 51,5.2 47.9,5.2 
	47.9,3.1 51.2,3.1 51.2,2.3 47.1,2.3 "/>
<path fill-rule="evenodd" clip-rule="evenodd" d="M53.2,5.6V3.1h1.5c0.4,0,0.7,0.1,0.8,0.1c0.1,0.1,0.3,0.2,0.4,0.4
	C55.9,3.8,56,4,56,4.3c0,0.4-0.1,0.7-0.3,0.9c-0.2,0.2-0.6,0.3-1,0.3H53.2 M52.4,9.3h0.8V6.4h1.5c0.8,0,1.3-0.2,1.7-0.6
	c0.3-0.4,0.5-0.9,0.5-1.5c0-0.5-0.1-0.9-0.3-1.2c-0.2-0.3-0.5-0.6-0.8-0.7c-0.2-0.1-0.6-0.1-1.1-0.1h-2.1V9.3"/>
<polygon fill-rule="evenodd" clip-rule="evenodd" points="59.2,9.3 59.9,9.3 59.9,3.1 61.8,3.1 61.8,2.3 57.3,2.3 57.3,3.1 
	59.2,3.1 "/>
<rect x="62.7" y="2.3" fill-rule="evenodd" clip-rule="evenodd" width="0.8" height="7"/>
<path fill-rule="evenodd" clip-rule="evenodd" d="M65.4,5.9c0-1,0.2-1.7,0.6-2.2c0.4-0.5,0.8-0.7,1.4-0.7c0.4,0,0.7,0.1,1,0.3
	c0.3,0.2,0.5,0.5,0.7,0.9c0.2,0.5,0.3,1,0.3,1.6c0,0.9-0.2,1.6-0.6,2.1c-0.4,0.5-0.8,0.7-1.4,0.7c-0.5,0-1-0.2-1.4-0.7
	C65.5,7.4,65.4,6.7,65.4,5.9 M64.6,5.8c0,0.9,0.2,1.7,0.7,2.4c0.5,0.7,1.2,1.1,2,1.1c0.8,0,1.5-0.3,2-1.1c0.5-0.6,0.7-1.5,0.7-2.5
	c0-0.8-0.1-1.4-0.4-1.9s-0.6-0.9-1-1.2c-0.4-0.3-0.9-0.4-1.4-0.4c-0.8,0-1.4,0.3-1.9,1C64.8,3.7,64.6,4.7,64.6,5.8"/>
<polygon fill-rule="evenodd" clip-rule="evenodd" points="71,9.3 71.7,9.3 71.7,3.8 74.7,9.3 75.5,9.3 75.5,2.3 74.8,2.3 74.8,7.8 
	71.8,2.3 71,2.3 "/>
<path fill-rule="evenodd" clip-rule="evenodd" d="M79.7,5.6V3.1h1.5c0.4,0,0.7,0.1,0.8,0.1c0.1,0.1,0.3,0.2,0.4,0.4
	c0.1,0.2,0.2,0.4,0.2,0.7c0,0.4-0.1,0.7-0.3,0.9c-0.2,0.2-0.6,0.3-1,0.3H79.7 M79,9.3h0.8V6.4h1.5c0.8,0,1.3-0.2,1.7-0.6
	c0.3-0.4,0.5-0.9,0.5-1.5c0-0.5-0.1-0.9-0.3-1.2c-0.2-0.3-0.5-0.6-0.8-0.7c-0.2-0.1-0.6-0.1-1.1-0.1H79V9.3"/>
<polygon fill-rule="evenodd" clip-rule="evenodd" points="84.3,9.3 87.8,9.3 87.8,8.4 85,8.4 85,2.3 84.3,2.3 "/>
<path fill-rule="evenodd" clip-rule="evenodd" d="M89.7,6.4l0.6-2c0.1-0.4,0.2-0.9,0.3-1.3c0.1,0.4,0.2,0.9,0.4,1.5l0.6,1.9H89.7
	 M88.1,9.3h0.8l0.6-2.1h2.4l0.7,2.1h0.9l-2.3-7h-0.8L88.1,9.3"/>
<polygon fill-rule="evenodd" clip-rule="evenodd" points="94,9.3 94.7,9.3 94.7,3.8 97.7,9.3 98.5,9.3 98.5,2.3 97.8,2.3 97.8,7.8 
	94.8,2.3 94,2.3 "/>
<polygon fill-rule="evenodd" clip-rule="evenodd" points="102,9.3 105.5,9.3 105.5,8.4 102.7,8.4 102.7,2.3 102,2.3 "/>
<polygon fill-rule="evenodd" clip-rule="evenodd" points="106.5,9.3 110.7,9.3 110.7,8.4 107.2,8.4 107.2,6.1 110.4,6.1 110.4,5.2 
	107.2,5.2 107.2,3.1 110.6,3.1 110.6,2.3 106.5,2.3 "/>
<path fill-rule="evenodd" clip-rule="evenodd" d="M113.4,9.3h0.8l2.2-7h-0.8l-1.6,5.1c-0.1,0.2-0.1,0.4-0.2,0.6
	c0,0.2-0.1,0.4-0.1,0.6c-0.1-0.4-0.2-0.8-0.3-1.1L112,2.3h-0.8L113.4,9.3"/>
<polygon fill-rule="evenodd" clip-rule="evenodd" points="117.1,9.3 121.3,9.3 121.3,8.4 117.8,8.4 117.8,6.1 121,6.1 121,5.2 
	117.8,5.2 117.8,3.1 121.2,3.1 121.2,2.3 117.1,2.3 "/>
<polygon fill-rule="evenodd" clip-rule="evenodd" points="122.4,9.3 125.9,9.3 125.9,8.4 123.1,8.4 123.1,2.3 122.4,2.3 "/>
<path fill-rule="evenodd" clip-rule="evenodd" d="M131.4,9.3v-7h-0.5c-0.1,0.3-0.3,0.6-0.6,0.9c-0.3,0.3-0.6,0.6-1,0.8v0.8
	c0.2-0.1,0.5-0.2,0.8-0.4c0.3-0.2,0.5-0.4,0.6-0.6v5.5H131.4"/>
<path fill-rule="evenodd" clip-rule="evenodd" d="M32.3,18.9v-6.1h-0.4c-0.1,0.3-0.3,0.5-0.5,0.8c-0.3,0.3-0.6,0.5-0.9,0.7V15
	c0.2-0.1,0.4-0.2,0.7-0.4c0.2-0.2,0.4-0.3,0.6-0.5v4.8H32.3"/>
<rect x="34.3" y="14.4" fill-rule="evenodd" clip-rule="evenodd" width="0.7" height="0.9"/>
<rect x="34.3" y="18" fill-rule="evenodd" clip-rule="evenodd" width="0.7" height="0.8"/>
<path fill-rule="evenodd" clip-rule="evenodd" d="M39.1,18.1h-2.5c0.1-0.1,0.2-0.3,0.3-0.4c0.1-0.1,0.3-0.4,0.7-0.8
	c0.6-0.6,1-1.1,1.2-1.4c0.2-0.4,0.3-0.7,0.3-1.1c0-0.5-0.1-0.8-0.4-1.2c-0.3-0.4-0.6-0.5-1.2-0.5c-0.5,0-0.9,0.1-1.1,0.4
	c-0.3,0.3-0.5,0.8-0.5,1.3l0.6,0.1c0-0.4,0.1-0.7,0.3-0.9c0.2-0.2,0.4-0.3,0.7-0.3c0.3,0,0.5,0.1,0.7,0.3c0.2,0.2,0.3,0.4,0.3,0.8
	c0,0.3-0.1,0.6-0.3,0.9c-0.2,0.3-0.6,0.8-1.1,1.3c-0.5,0.5-0.8,0.9-1,1.3c-0.2,0.3-0.3,0.7-0.3,1h3.3V18.1"/>
<path fill-rule="evenodd" clip-rule="evenodd" d="M40.4,15.8c0-1,0.1-1.6,0.3-2c0.2-0.3,0.4-0.5,0.7-0.5c0.3,0,0.5,0.2,0.7,0.5
	c0.2,0.3,0.3,1,0.3,2c0,1-0.1,1.7-0.3,2c-0.2,0.4-0.4,0.5-0.7,0.5c-0.3,0-0.5-0.2-0.7-0.5C40.5,17.5,40.4,16.8,40.4,15.8 M39.7,15.9
	c0,1.1,0.1,1.9,0.5,2.4c0.3,0.5,0.7,0.7,1.2,0.7c0.5,0,1-0.3,1.2-0.8c0.3-0.5,0.4-1.3,0.4-2.3c0-1.2-0.2-2-0.5-2.5
	c-0.3-0.4-0.6-0.6-1.1-0.6c-0.5,0-1,0.3-1.2,0.8C39.9,14.1,39.7,14.8,39.7,15.9"/>
<rect y="0" fill="none" width="141.1" height="21.6"/>
</svg>
