<?xml version="1.0" encoding="utf-8"?>
<!-- Generator: Adobe Illustrator 18.1.1, SVG Export Plug-In . SVG Version: 6.00 Build 0)  -->
<svg id="Layer_1" xmlns="http://www.w3.org/2000/svg" xmlns:xlink="http://www.w3.org/1999/xlink" x="0px" y="0px"
	 viewBox="0 0 320 65.019" enable-background="new 0 0 320 65.019" xml:space="preserve">
<rect y="0" fill="#ffffff" width="320.315" height="65.019"/>
<rect x="2.563" y="15.934" fill="#c5d9f1" width="156.66" height="4.056"/>
<rect x="162.541" y="15.934" fill="#c5d9f1" width="156.818" height="4.056"/>
<rect x="2.563" y="47.961" fill="#c5d9f1" width="156.66" height="4.056"/>
<rect x="162.541" y="47.961" fill="#c5d9f1" width="156.818" height="4.056"/>
<text transform="matrix(1 0 0 1 2.9312 2.6665)"><tspan x="0" y="0" font-family="'Arial'" font-size="2.6865">J-24</tspan><tspan x="5.226" y="0" font-family="'Arial'" font-size="2.6865" letter-spacing="6">4</tspan><tspan x="13.482" y="0" font-family="'Arial'" font-size="2.6865">Pinboard</tspan></text>
<text transform="matrix(1 0 0 1 114.6571 2.6665)" font-family="'Arial'" font-size="2.6865">Joinery</text>
<text transform="matrix(1 0 0 1 143.1557 2.7197)" font-family="'Arial'" font-size="2.6865">06-202</text>
<text transform="matrix(1 0 0 1 163.0681 2.6665)"><tspan x="0" y="0" font-family="'Arial'" font-size="2.6865">J-42</tspan><tspan x="5.226" y="0" font-family="'Arial'" font-size="2.6865" letter-spacing="6">1</tspan><tspan x="13.482" y="0" font-family="'Arial'" font-size="2.6865">Fabric</tspan></text>
<text transform="matrix(1 0 0 1 274.7945 2.6665)" font-family="'Arial'" font-size="2.6865">Joinery</text>
<text transform="matrix(1 0 0 1 303.2925 2.7197)" font-family="'Arial'" font-size="2.6865">06-202</text>
<rect x="0.071" y="0" fill="none" width="319.394" height="65.019"/>
<text transform="matrix(1 0 0 1 2.9301 6.6628)"><tspan x="0" y="0" font-family="'Arial'" font-size="2.6865">J-24</tspan><tspan x="5.226" y="0" font-family="'Arial'" font-size="2.6865" letter-spacing="6">5</tspan><tspan x="13.482" y="0" font-family="'Arial'" font-size="2.6865">Corian</tspan></text>
<text transform="matrix(1 0 0 1 114.656 6.6628)" font-family="'Arial'" font-size="2.6865">Joinery</text>
<text transform="matrix(1 0 0 1 143.1541 6.7164)" font-family="'Arial'" font-size="2.6865">06-202</text>
<text transform="matrix(1 0 0 1 163.067 6.6628)"><tspan x="0" y="0" font-family="'Arial'" font-size="2.6865">J-42</tspan><tspan x="5.226" y="0" font-family="'Arial'" font-size="2.6865" letter-spacing="6">2</tspan><tspan x="13.482" y="0" font-family="'Arial'" font-size="2.6865">Corian top</tspan></text>
<text transform="matrix(1 0 0 1 274.7897 6.6628)" font-family="'Arial'" font-size="2.6865">Joinery</text>
<text transform="matrix(1 0 0 1 303.2915 6.7164)" font-family="'Arial'" font-size="2.6865">06-202</text>
<text transform="matrix(1 0 0 1 2.9301 10.6686)"><tspan x="0" y="0" font-family="'Arial'" font-size="2.6865">J-24</tspan><tspan x="5.226" y="0" font-family="'Arial'" font-size="2.6865" letter-spacing="6">6</tspan><tspan x="13.482" y="0" font-family="'Arial'" font-size="2.6865">Powdercoating</tspan></text>
<text transform="matrix(1 0 0 1 114.6539 10.6686)" font-family="'Arial'" font-size="2.6865">Joinery</text>
<text transform="matrix(1 0 0 1 143.1578 10.7223)" font-family="'Arial'" font-size="2.6865">06-202</text>
<text transform="matrix(1 0 0 1 163.0691 10.6686)"><tspan x="0" y="0" font-family="'Arial'" font-size="2.6865">J-42</tspan><tspan x="5.226" y="0" font-family="'Arial'" font-size="2.6865" letter-spacing="6">3</tspan><tspan x="13.482" y="0" font-family="'Arial'" font-size="2.6865">Laminate</tspan></text>
<text transform="matrix(1 0 0 1 274.7956 10.6686)" font-family="'Arial'" font-size="2.6865">Joinery</text>
<text transform="matrix(1 0 0 1 303.2936 10.7223)" font-family="'Arial'" font-size="2.6865">06-202</text>
<text transform="matrix(1 0 0 1 16.4188 18.7281)" font-family="'Arial'" font-weight="bolder" font-size="2.6865">Finishes</text>
<text transform="matrix(1 0 0 1 118.6109 18.7281)" font-family="'Arial'" font-weight="bolder" font-size="2.6865">.</text>
<text transform="matrix(1 0 0 1 146.9505 18.7281)" font-family="'Arial'" font-weight="bolder" font-size="2.6865">.</text>
<text transform="matrix(1 0 0 1 176.5562 18.7281)" font-family="'Arial'" font-weight="bolder" font-size="2.6865">Finishes</text>
<g>
	<text transform="matrix(1 0 0 1 307.0836 18.726)" font-family="'Arial'" font-weight="bolder" font-size="2.6865">.</text>
	<text transform="matrix(1 0 0 1 278.744 18.726)" font-family="'Arial'" font-weight="bolder" font-size="2.6865">.</text>
</g>
<rect x="0.071" y="0" fill="none" width="319.394" height="65.019"/>
<text transform="matrix(1 0 0 1 2.9296 22.6766)"><tspan x="0" y="0" font-family="'Arial'" font-size="2.6865">LIN-01</tspan><tspan x="8.063" y="0" font-family="'Arial'" font-size="2.6865" letter-spacing="4"> </tspan><tspan x="13.484" y="0" font-family="'Arial'" font-size="2.6865">Solid laminate lining</tspan></text>
<text transform="matrix(1 0 0 1 114.6502 22.6766)" font-family="'Arial'" font-size="2.6865">Joinery</text>
<text transform="matrix(1 0 0 1 143.1541 22.7303)" font-family="'Arial'" font-size="2.6865">06-202</text>
<text transform="matrix(1 0 0 1 163.067 22.6766)"><tspan x="0" y="0" font-family="'Arial'" font-size="2.6865">PT-1</tspan><tspan x="5.822" y="0" font-family="'Arial'" font-size="2.6865" letter-spacing="6">7</tspan><tspan x="13.484" y="0" font-family="'Arial'" font-size="2.6865">2 Pack polyurethane paint finish - colour white 3166</tspan></text>
<text transform="matrix(1 0 0 1 276.0503 22.6766)" font-family="'Arial'" font-size="2.6865">Paint</text>
<text transform="matrix(1 0 0 1 303.2909 22.7303)" font-family="'Arial'" font-size="2.6865">04-200</text>
<text transform="matrix(1 0 0 1 2.9296 26.6819)"><tspan x="0" y="0" font-family="'Arial'" font-size="2.6865">WD-0</tspan><tspan x="6.864" y="0" font-family="'Arial'" font-size="2.6865" letter-spacing="5">1</tspan><tspan x="13.484" y="0" font-family="'Arial'" font-size="2.6865">Solid timber</tspan></text>
<text transform="matrix(1 0 0 1 114.6533 26.6819)" font-family="'Arial'" font-size="2.6865">Joinery</text>
<text transform="matrix(1 0 0 1 143.1541 26.7361)" font-family="'Arial'" font-size="2.6865">06-202</text>
<text transform="matrix(1 0 0 1 163.067 26.6819)"><tspan x="0" y="0" font-family="'Arial'" font-size="2.6865">PT-1</tspan><tspan x="5.822" y="0" font-family="'Arial'" font-size="2.6865" letter-spacing="6">8</tspan><tspan x="13.484" y="0" font-family="'Arial'" font-size="2.6865">2 Pack polyurethane paint finish - colour grey 4117</tspan></text>
<text transform="matrix(1 0 0 1 276.0503 26.6819)" font-family="'Arial'" font-size="2.6865">Paint</text>
<text transform="matrix(1 0 0 1 303.2909 26.7361)" font-family="'Arial'" font-size="2.6865">04-200</text>
<text transform="matrix(1 0 0 1 2.9296 30.6873)"><tspan x="0" y="0" font-family="'Arial'" font-size="2.6865">LIN-0</tspan><tspan x="6.569" y="0" font-family="'Arial'" font-size="2.6865" letter-spacing="5">2</tspan><tspan x="13.482" y="0" font-family="'Arial'" font-size="2.6865">Stainless steel</tspan></text>
<text transform="matrix(1 0 0 1 112.8611 30.6873)" font-family="'Arial'" font-size="2.6865">Metalwork</text>
<text transform="matrix(1 0 0 1 143.1541 30.7415)" font-family="'Arial'" font-size="2.6865">05-300</text>
<text transform="matrix(1 0 0 1 163.067 30.6873)"><tspan x="0" y="0" font-family="'Arial'" font-size="2.6865">LIN-0</tspan><tspan x="6.569" y="0" font-family="'Arial'" font-size="2.6865" letter-spacing="5">8</tspan><tspan x="13.482" y="0" font-family="'Arial'" font-size="2.6865">Solid laminate lining</tspan></text>
<text transform="matrix(1 0 0 1 274.787 30.6873)" font-family="'Arial'" font-size="2.6865">Joinery</text>
<text transform="matrix(1 0 0 1 303.2909 30.7415)" font-family="'Arial'" font-size="2.6865">06-202</text>
<text transform="matrix(1 0 0 1 2.9296 34.6931)"><tspan x="0" y="0" font-family="'Arial'" font-size="2.6865">WD-0</tspan><tspan x="6.864" y="0" font-family="'Arial'" font-size="2.6865" letter-spacing="5">2</tspan><tspan x="13.484" y="0" font-family="'Arial'" font-size="2.6865">Solid Veneer Lumber</tspan></text>
<text transform="matrix(1 0 0 1 114.6502 34.6931)" font-family="'Arial'" font-size="2.6865">Joinery</text>
<text transform="matrix(1 0 0 1 143.1541 34.7468)" font-family="'Arial'" font-size="2.6865">06-202</text>
<text transform="matrix(1 0 0 1 163.067 34.6931)"><tspan x="0" y="0" font-family="'Arial'" font-size="2.6865">LIN-0</tspan><tspan x="6.569" y="0" font-family="'Arial'" font-size="2.6865" letter-spacing="5">9</tspan><tspan x="13.482" y="0" font-family="'Arial'" font-size="2.6865">Solid laminate lining</tspan></text>
<text transform="matrix(1 0 0 1 274.787 34.6931)" font-family="'Arial'" font-size="2.6865">Joinery</text>
<text transform="matrix(1 0 0 1 303.2909 34.7468)" font-family="'Arial'" font-size="2.6865">06-202</text>
<text transform="matrix(1 0 0 1 2.9296 38.699)"><tspan x="0" y="0" font-family="'Arial'" font-size="2.6865">GL-1</tspan><tspan x="5.973" y="0" font-family="'Arial'" font-size="2.6865" letter-spacing="6">2</tspan><tspan x="13.484" y="0" font-family="'Arial'" font-size="2.6865">Backcolour Glass - white</tspan></text>
<text transform="matrix(1 0 0 1 114.6533 38.699)" font-family="'Arial'" font-size="2.6865">Joinery</text>
<text transform="matrix(1 0 0 1 143.1541 38.7522)" font-family="'Arial'" font-size="2.6865">06-202</text>
<text transform="matrix(1 0 0 1 163.067 38.699)"><tspan x="0" y="0" font-family="'Arial'" font-size="2.6865">LIN-1</tspan><tspan x="6.569" y="0" font-family="'Arial'" font-size="2.6865" letter-spacing="5">0</tspan><tspan x="13.482" y="0" font-family="'Arial'" font-size="2.6865">Solid laminate lining</tspan></text>
<text transform="matrix(1 0 0 1 274.787 38.699)" font-family="'Arial'" font-size="2.6865">Joinery</text>
<text transform="matrix(1 0 0 1 303.2909 38.7522)" font-family="'Arial'" font-size="2.6865">06-202</text>
<text transform="matrix(1 0 0 1 2.9296 42.7044)"><tspan x="0" y="0" font-family="'Arial'" font-size="2.6865">GL-1</tspan><tspan x="5.973" y="0" font-family="'Arial'" font-size="2.6865" letter-spacing="6">3</tspan><tspan x="13.484" y="0" font-family="'Arial'" font-size="2.6865">Backcolour Glass - grey</tspan></text>
<text transform="matrix(1 0 0 1 114.6533 42.7044)" font-family="'Arial'" font-size="2.6865">Joinery</text>
<text transform="matrix(1 0 0 1 143.1541 42.758)" font-family="'Arial'" font-size="2.6865">06-202</text>
<g>
	<text transform="matrix(1 0 0 1 147.0526 46.7097)" font-family="'Arial'" font-size="2.6865">.</text>
	<text transform="matrix(1 0 0 1 118.7129 46.7097)" font-family="'Arial'" font-size="2.6865">.</text>
</g>
<g>
	<text transform="matrix(1 0 0 1 307.191 46.6973)" font-family="'Arial'" font-size="2.6865">.</text>
	<text transform="matrix(1 0 0 1 278.8503 46.6973)" font-family="'Arial'" font-size="2.6865">.</text>
</g>
<rect x="0.071" y="0" fill="none" width="319.394" height="65.019"/>
<text transform="matrix(1 0 0 1 16.4157 50.7526)" font-family="'Arial'" font-weight="bolder" font-size="2.6865">Louvres</text>
<text transform="matrix(1 0 0 1 118.6077 50.7526)" font-family="'Arial'" font-weight="bolder" font-size="2.6865">.</text>
<text transform="matrix(1 0 0 1 146.9479 50.7526)" font-family="'Arial'" font-weight="bolder" font-size="2.6865">.</text>
<text transform="matrix(1 0 0 1 176.5525 50.7526)" font-family="'Arial'" font-weight="bolder" font-size="2.6865">Louvres</text>
<g>
	<text transform="matrix(1 0 0 1 307.0847 50.7526)" font-family="'Arial'" font-weight="bolder" font-size="2.6865">.</text>
	<text transform="matrix(1 0 0 1 278.745 50.7526)" font-family="'Arial'" font-weight="bolder" font-size="2.6865">.</text>
</g>
<rect x="0.071" y="0" fill="none" width="319.394" height="65.019"/>
<text transform="matrix(1 0 0 1 2.9307 54.7037)"><tspan x="0" y="0" font-family="'Arial'" font-size="2.6865">LV0</tspan><tspan x="4.78" y="0" font-family="'Arial'" font-size="2.6865" letter-spacing="7">1</tspan><tspan x="13.485" y="0" font-family="'Arial'" font-size="2.6865">Fixed Aluminium Louvres</tspan></text>
<text transform="matrix(1 0 0 1 109.652 54.7575)" font-family="'Arial'" font-size="2.6865">Façade Glazing</text>
<text transform="matrix(1 0 0 1 163.0648 54.7037)"><tspan x="0" y="0" font-family="'Arial'" font-size="2.6865">LV0</tspan><tspan x="4.78" y="0" font-family="'Arial'" font-size="2.6865" letter-spacing="7">1</tspan><tspan x="13.485" y="0" font-family="'Arial'" font-size="2.6865">Fixed Aluminium Louvres</tspan></text>
<text transform="matrix(1 0 0 1 269.7867 54.7575)" font-family="'Arial'" font-size="2.6865">Façade Glazing</text>
<text transform="matrix(1 0 0 1 2.928 58.7096)"><tspan x="0" y="0" font-family="'Arial'" font-size="2.6865">LV0</tspan><tspan x="4.78" y="0" font-family="'Arial'" font-size="2.6865" letter-spacing="7">2</tspan><tspan x="13.485" y="0" font-family="'Arial'" font-size="2.6865">Operable Weather Louvres</tspan></text>
<text transform="matrix(1 0 0 1 109.6499 58.7633)" font-family="'Arial'" font-size="2.6865">Façade Glazing</text>
<text transform="matrix(1 0 0 1 163.0622 58.7096)"><tspan x="0" y="0" font-family="'Arial'" font-size="2.6865">LV0</tspan><tspan x="4.78" y="0" font-family="'Arial'" font-size="2.6865" letter-spacing="7">2</tspan><tspan x="13.485" y="0" font-family="'Arial'" font-size="2.6865">Operable Weather Louvres</tspan></text>
<text transform="matrix(1 0 0 1 269.784 58.7633)" font-family="'Arial'" font-size="2.6865">Façade Glazing</text>
<text transform="matrix(1 0 0 1 2.9258 62.715)"><tspan x="0" y="0" font-family="'Arial'" font-size="2.6865">LV0</tspan><tspan x="4.78" y="0" font-family="'Arial'" font-size="2.6865" letter-spacing="7">3</tspan><tspan x="13.485" y="0" font-family="'Arial'" font-size="2.6865">Aluminium Louver to ACTEW&apos;s Requirements </tspan></text>
<text transform="matrix(1 0 0 1 109.7487 62.715)" font-family="'Arial'" font-size="2.6865">Façade Glazing</text>
<text transform="matrix(1 0 0 1 163.0541 62.715)"><tspan x="0" y="0" font-family="'Arial'" font-size="2.6865">LV0</tspan><tspan x="4.78" y="0" font-family="'Arial'" font-size="2.6865" letter-spacing="7">3</tspan><tspan x="13.485" y="0" font-family="'Arial'" font-size="2.6865">Aluminium Louver to ACTEW&apos;s Requirements </tspan></text>
<text transform="matrix(1 0 0 1 269.8775 62.715)" font-family="'Arial'" font-size="2.6865">Façade Glazing</text>
<rect x="2.563" width="156.765" height="0.078"/>
<rect x="2.563" y="3.819" width="156.765" height="0.263"/>
<rect x="2.563" y="7.822" width="156.765" height="0.264"/>
<rect x="2.563" y="11.825" width="156.765" height="0.264"/>
<rect x="2.563" y="15.828" width="156.765" height="0.264"/>
<rect x="2.563" y="19.832" width="156.765" height="0.263"/>
<rect x="2.563" y="23.835" width="156.765" height="0.263"/>
<rect x="2.563" y="27.839" width="156.765" height="0.264"/>
<rect x="2.563" y="31.842" width="156.765" height="0.264"/>
<rect x="2.563" y="35.846" width="156.765" height="0.263"/>
<rect x="2.563" y="39.849" width="156.765" height="0.263"/>
<rect x="2.563" y="43.852" width="156.765" height="0.264"/>
<rect x="2.563" y="47.855" width="156.765" height="0.264"/>
<rect x="2.563" y="51.859" width="156.765" height="0.264"/>
<rect x="2.563" y="55.863" width="156.765" height="0.263"/>
<rect x="2.563" y="59.866" width="156.765" height="0.264"/>
<rect x="2.563" y="63.869" width="156.765" height="0.264"/>
<rect x="2.299" y="0" width="0.264" height="65.019"/>
<rect x="15.784" y="0" width="0.263" height="65.019"/>
<rect x="102.384" y="0" width="0.264" height="65.019"/>
<rect x="135.255" y="0" width="0.263" height="65.019"/>
<rect x="159.064" y="0" width="0.263" height="65.019"/>
<rect x="162.436" y="0" width="0.263" height="65.019"/>
<rect x="175.921" y="0" width="0.264" height="65.019"/>
<rect x="262.521" y="0" width="0.263" height="65.019"/>
<rect x="295.391" y="0" width="0.264" height="65.019"/>
<rect x="319.201" y="0" width="0.264" height="65.019"/>
<rect x="162.699" width="156.766" height="0.078"/>
<rect x="162.699" y="3.819" width="156.766" height="0.263"/>
<rect x="162.699" y="7.822" width="156.766" height="0.264"/>
<rect x="162.699" y="11.825" width="156.766" height="0.264"/>
<rect x="162.699" y="15.828" width="156.766" height="0.264"/>
<rect x="162.699" y="19.832" width="156.766" height="0.263"/>
<rect x="162.699" y="23.835" width="156.766" height="0.263"/>
<rect x="162.699" y="27.839" width="156.766" height="0.264"/>
<rect x="162.699" y="31.842" width="156.766" height="0.264"/>
<rect x="162.699" y="35.846" width="156.766" height="0.263"/>
<rect x="162.699" y="39.849" width="156.766" height="0.263"/>
<rect x="162.699" y="43.852" width="156.766" height="0.264"/>
<rect x="162.699" y="47.855" width="156.766" height="0.264"/>
<rect x="162.699" y="51.859" width="156.766" height="0.264"/>
<rect x="162.699" y="55.863" width="156.766" height="0.263"/>
<rect x="162.699" y="59.866" width="156.766" height="0.264"/>
<rect x="162.699" y="63.869" width="156.766" height="0.264"/>
</svg>
