<svg xmlns="http://www.w3.org/2000/svg" xmlns:xlink="http://www.w3.org/1999/xlink" viewBox="0 0 286.523 297.179">
  <path fill="#FFF" d="M2.835 2.835h133.937v63.142H2.835z"/>
  <path fill="none" stroke="#000" stroke-width=".225" d="M2.835 2.835h133.937v63.142H2.835z"/>
  <defs>
    <path id="a" d="M0 0h286.523v297.179H0z"/>
  </defs>
  <clipPath id="b">
    <use xlink:href="#a" overflow="visible"/>
  </clipPath>
  <path clip-path="url(#b)" d="M17.78 12.848v3.903h-1.003l1.003-3.903zm-3.857 3.903c.124-.246.194-.522.194-.815 0-.516-.218-.983-.566-1.314.348-.331.566-.799.566-1.316v-.004l.89 3.449h-1.084zm-2.434 0v-1.629h.814c.448.001.813.366.813.814 0 .448-.364.814-.812.815h-.815zm.814-4.259c.448.001.813.367.813.814 0 .449-.364.814-.812.815h-.815v-1.629h.814zm4.535 0l-.946 3.681-.95-3.681h1.896zm3.741 4.259h-1.798v-2.968l1.798 2.968zm.388-1.291l-1.798-2.968h1.798v2.968zm-10.479 2.291h11.48v-6.26h-11.48v6.26zM52.16 9.147v-.85h-.104v.847c0 .009-.004.016-.007.023-.024.041-.081.099-.11.113-.006.004-.015.006-.024.006h-.223c-.009 0-.018-.002-.023-.006-.029-.014-.09-.072-.114-.113-.003-.007-.007-.014-.007-.023v-.847h-.104v.85c0 .031.007.061.023.087.02.03.09.104.123.124.025.016.064.028.093.028h.241c.029 0 .067-.012.092-.028.033-.02.103-.094.123-.124.016-.026.021-.056.021-.087m-1.551-.121l.205-.626h.023l.207.626h-.435zm.549.351h.111l-.361-1.08h-.162l-.362 1.08h.11l.082-.25h.501l.081.25zm-.99-.14h-.14v.14h.14v-.14zm-.407.14v-1.08h-.147l-.296.632-.293-.632h-.149v1.08h.1V8.41l.306.679h.07l.308-.679v.968h.101zm-1.26-.232c0 .009-.002.016-.005.023-.024.041-.085.099-.114.113-.005.004-.014.006-.023.006h-.268c-.009 0-.018-.002-.024-.006-.029-.014-.088-.072-.111-.113-.004-.007-.008-.014-.008-.023v-.607c0-.009.004-.02.008-.027.023-.042.082-.099.111-.114.006-.003.015-.005.024-.005h.268c.009 0 .018.002.023.005.029.015.09.072.114.114.003.007.005.018.005.027v.607zm.104.001v-.613c0-.031-.007-.063-.023-.088-.02-.031-.09-.106-.122-.126-.026-.016-.065-.029-.094-.029h-.284c-.029 0-.067.013-.092.029-.033.02-.105.095-.124.126-.017.025-.022.057-.022.088v.612c0 .031.005.063.022.089.019.03.091.104.124.124.025.016.063.028.092.028h.284c.029 0 .068-.012.094-.028.032-.02.102-.094.122-.124.017-.026.023-.058.023-.088m-.979.028l-.104-.029c-.025.049-.083.116-.121.135-.005.004-.016.006-.025.006h-.225c-.009 0-.018-.002-.023-.006-.029-.014-.09-.072-.114-.113-.003-.008-.005-.015-.005-.024v-.61c0-.009.002-.018.005-.025.024-.041.085-.099.114-.114.005-.003.014-.005.023-.005h.225c.009 0 .02.002.025.005.038.02.099.087.121.138l.104-.031c-.011-.025-.029-.052-.041-.071-.025-.034-.074-.089-.112-.113-.025-.016-.063-.029-.092-.029h-.239c-.029 0-.067.013-.092.029-.032.02-.102.095-.122.126-.015.025-.024.057-.024.087v.617c0 .031.008.061.024.086.02.031.09.105.122.125.025.016.065.028.094.028h.237c.029 0 .067-.012.092-.028.038-.024.087-.079.112-.114.012-.017.03-.045.041-.07m-.985.063H46.5v.14h.14v-.14zm-.408.14v-1.08h-.101v.931l-.466-.931h-.138v1.08h.1v-.92l.47.921h.135zm-.894-1.08h-.11l-.301.969h-.025l-.302-.969h-.11l.344 1.08h.162l.342-1.08zm-1.12.855c0 .011-.002.022-.005.029-.017.031-.056.072-.085.089-.009.005-.02.007-.031.007h-.38v-.395h.382c.011 0 .022.002.029.006.029.016.068.057.085.088.003.007.005.018.005.029v.147zm0-.495c0 .011-.002.024-.005.031-.017.031-.056.072-.085.088-.007.004-.018.007-.029.007h-.382v-.385h.38c.011 0 .022.002.031.007.029.016.068.06.085.09.003.007.005.018.005.029v.133zm.104.499v-.153c0-.034-.007-.069-.025-.096-.011-.016-.045-.052-.07-.075.025-.023.059-.059.07-.076.018-.027.025-.061.025-.095v-.139c0-.034-.007-.068-.025-.095-.012-.02-.066-.076-.09-.094-.029-.021-.07-.036-.108-.036h-.486v1.08h.486c.038 0 .079-.012.108-.034.024-.018.078-.075.09-.095.018-.027.025-.058.025-.092m-1.282-.859h-.113l-.571 1.08h.115l.569-1.08zm-1.842.729l.205-.626h.023l.207.626h-.435zm.55.351h.111l-.362-1.08h-.162l-.361 1.08h.109l.083-.25h.501l.081.25zm-.966-1.08h-.104v1.08h.104v-1.08zm-.315 1.08v-.1h-.504v-.98h-.105v1.08h.609zm-1.444-.351l.205-.626h.024l.207.626h-.436zm.549.351h.112l-.362-1.08h-.162l-.362 1.08h.11l.083-.25h.5l.081.25zm-1.065-.702c0 .011 0 .024-.004.031-.016.031-.059.07-.088.086-.009.006-.02.008-.031.008h-.38v-.402h.38c.011 0 .022 0 .031.005.029.017.072.06.088.09.004.008.004.02.004.031v.151zm.104.004v-.158c0-.034-.009-.066-.027-.093-.012-.02-.068-.078-.092-.095-.029-.022-.068-.035-.106-.035h-.486v1.08h.104V8.9h.27l.267.477h.119l-.268-.477c.036 0 .072-.012.101-.034.024-.018.08-.074.092-.093.018-.026.026-.06.026-.094m-.911-.281v-.101h-.72v.101h.308v.979h.105v-.979h.307zm-.887.748v-.123c0-.076-.045-.148-.115-.168l-.492-.136c-.032-.009-.056-.045-.056-.082v-.113c0-.009.004-.016.008-.023.023-.042.082-.09.111-.105.006-.003.015-.005.024-.005h.254c.009 0 .018.002.023.005.031.016.086.07.11.114 0 0 .005.007.012.023l.105-.031c-.011-.025-.029-.052-.042-.07-.025-.034-.073-.09-.111-.113-.025-.016-.063-.029-.092-.029h-.268c-.029 0-.067.013-.092.029-.033.02-.105.095-.124.126-.017.025-.022.057-.022.088v.112c0 .075.041.149.112.169l.493.135c.034.009.058.049.058.085v.115c0 .009-.002.016-.006.023-.023.042-.084.094-.113.108-.006.004-.013.006-.022.006h-.286c-.009 0-.02-.002-.025-.006-.031-.016-.085-.07-.11-.113 0 0-.006-.005-.013-.022l-.102.029c.01.025.027.052.039.07.025.035.074.09.112.114.025.016.065.028.093.028h.299c.029 0 .067-.012.092-.028.033-.02.105-.094.124-.124.018-.026.022-.058.022-.088m-1.014.001v-.85h-.104v.847c0 .009-.004.016-.007.023-.024.041-.081.099-.11.113-.005.004-.014.006-.023.006h-.224c-.009 0-.018-.002-.023-.006-.029-.014-.09-.072-.113-.113-.004-.007-.008-.014-.008-.023v-.847h-.104v.85c0 .031.007.061.023.087.02.03.09.104.123.124.025.016.065.028.093.028h.242c.028 0 .066-.012.091-.028.033-.02.103-.094.123-.124.016-.026.021-.056.021-.087m-1.55-.121l.205-.626h.024l.207.626h-.436zm.548.351h.112l-.362-1.08h-.162l-.362 1.08h.11l.083-.25h.5l.081.25zm-1.444-.217c0 .011-.002.022-.006.029-.016.031-.057.073-.086.089-.009.005-.02.007-.031.007h-.221c-.011 0-.022-.002-.031-.007-.028-.016-.07-.058-.086-.089-.004-.007-.004-.018-.004-.029v-.644c0-.011 0-.023.004-.03.016-.031.058-.073.086-.089.009-.005.02-.007.031-.007h.221c.011 0 .022.002.031.007.029.016.07.058.086.089.004.007.006.019.006.03v.644zm.104.004v-.652c0-.035-.009-.067-.027-.094-.013-.02-.067-.077-.09-.095-.029-.022-.07-.035-.108-.035h-.225c-.038 0-.077.013-.106.035-.023.018-.078.075-.09.095-.018.027-.027.059-.027.094v.651c0 .034.009.065.027.092.012.02.067.077.09.095.029.022.068.035.106.035h.225c.038 0 .079-.013.108-.035.023-.018.077-.075.09-.095.017-.026.027-.058.027-.091m-1.013-.004c0 .011-.001.022-.005.029-.016.031-.058.073-.086.089-.009.005-.02.007-.031.007h-.221c-.011 0-.022-.002-.031-.007-.029-.016-.07-.058-.086-.089-.004-.007-.004-.018-.004-.029v-.644c0-.011 0-.023.004-.03.016-.031.057-.073.086-.089.009-.005.02-.007.031-.007h.221c.011 0 .022.002.031.007.028.016.07.058.086.089.004.007.005.019.005.03v.644zm.105.004v-.652c0-.035-.009-.067-.027-.094-.013-.02-.067-.077-.09-.095-.029-.022-.07-.035-.108-.035H32.1c-.038 0-.077.013-.106.035-.024.018-.078.075-.09.095-.018.027-.027.059-.027.094v.651c0 .034.009.065.027.092.012.02.066.077.09.095.029.022.068.035.106.035h.225c.038 0 .079-.013.108-.035.023-.018.077-.075.09-.095.019-.026.027-.058.027-.091m-1.011-.004c0 .011-.002.022-.005.029-.016.031-.058.073-.087.089-.009.005-.019.007-.03.007h-.222c-.01 0-.021-.002-.03-.007-.029-.016-.07-.058-.086-.089-.004-.007-.004-.018-.004-.029v-.644c0-.011 0-.023.004-.03.016-.031.057-.073.086-.089.009-.005.02-.007.03-.007h.222c.011 0 .021.002.03.007.029.016.071.058.087.089.003.007.005.019.005.03v.644zm.105.004v-.652c0-.035-.009-.067-.027-.094-.013-.02-.067-.077-.09-.095-.029-.022-.071-.035-.108-.035h-.225c-.038 0-.078.013-.106.035-.024.018-.078.075-.091.095-.018.027-.027.059-.027.094v.651c0 .034.009.065.027.092.013.02.067.077.091.095.028.022.068.035.106.035h.225c.037 0 .079-.013.108-.035.023-.018.077-.075.09-.095.017-.026.027-.058.027-.091m-.91-.526v-.126c0-.035-.009-.067-.027-.094-.013-.02-.067-.077-.09-.095-.029-.022-.071-.035-.108-.035h-.204c-.029 0-.068.013-.093.029-.038.024-.087.079-.112.113-.013.019-.029.046-.04.071l.103.031c.022-.051.083-.118.121-.138.005-.003.018-.005.027-.005h.196c.011 0 .021.002.03.007.029.016.071.058.087.089.003.007.005.019.005.03v.118c0 .036-.023.066-.054.083l-.378.202c-.07.038-.115.092-.115.168v.291h.637v-.1h-.532v-.182c0-.037.025-.067.057-.085l.376-.202c.064-.035.114-.094.114-.17m-1.213-.341h-.114l-.275.513-.272-.513h-.115l.334.62v.46h.105v-.46l.337-.62zm-.948 1.08v-.1h-.513v-.389h.487v-.1h-.487v-.39h.514v-.1h-.619v1.079h.618zm-.901 0v-1.08h-.101v.931l-.466-.931h-.139v1.08h.101v-.92l.47.921h.135zm-1.08-.835v.593c0 .009-.002.016-.006.023-.023.041-.082.099-.111.113-.006.004-.015.006-.024.006h-.362v-.879h.362c.009 0 .018.002.024.005.029.015.088.071.111.112.004.007.006.018.006.027m.104.596v-.6c0-.03-.005-.061-.021-.086-.02-.031-.09-.108-.123-.128-.025-.016-.063-.027-.092-.027h-.475v1.08h.475c.029 0 .067-.012.092-.028.033-.02.103-.094.123-.124.016-.026.021-.056.021-.087m-.858-.841h-.114l-.275.513-.272-.513h-.115l.335.62v.46h.104v-.46l.337-.62zm-.911.849v-.123c0-.076-.045-.148-.115-.168l-.492-.136c-.032-.009-.056-.045-.056-.082v-.113c0-.009.004-.016.008-.023.023-.042.082-.09.111-.105.006-.003.015-.005.024-.005h.254c.009 0 .018.002.023.005.031.016.086.07.11.114 0 0 .005.007.012.023l.105-.031c-.011-.024-.029-.052-.041-.069-.025-.034-.073-.09-.111-.113-.025-.016-.063-.029-.092-.029h-.268c-.029 0-.067.013-.092.029-.033.02-.105.095-.125.126-.016.024-.022.056-.022.087v.112c0 .075.041.149.112.169l.493.135c.034.009.058.049.058.085v.115c0 .009-.002.016-.006.023-.023.042-.084.094-.113.108-.006.004-.013.006-.022.006h-.286c-.009 0-.02-.002-.025-.006-.031-.016-.085-.07-.11-.113 0 0-.006-.005-.013-.022l-.103.029c.011.025.027.052.04.07.025.035.074.09.112.114.025.016.065.028.093.028h.299c.029 0 .067-.012.092-.028.033-.02.105-.094.124-.124.017-.026.022-.058.022-.088m-1.32-.849h-.113l-.571 1.08h.116l.568-1.08zm-1.205.101v-.101h-.721v.101h.308v.979h.105v-.979h.308zm-.923.979v-.1h-.515v-.389h.488v-.1h-.488v-.39h.515v-.1h-.619v1.079h.619zm-.896 0v-.1h-.515v-.389h.488v-.1h-.488v-.39h.515v-.1h-.62v1.079h.62zm-1.005-.702c0 .011 0 .024-.003.031-.016.031-.06.07-.088.086-.009.006-.021.008-.031.008h-.38v-.402h.38c.011 0 .022 0 .031.005.028.017.072.06.088.09.003.008.003.02.003.031v.151zm.105.004v-.158c0-.034-.009-.066-.027-.093-.013-.02-.069-.078-.092-.095-.029-.022-.068-.035-.106-.035h-.486v1.08h.104V8.9h.27l.267.477h.118l-.269-.477c.036 0 .072-.012.101-.034.023-.018.079-.074.092-.093.018-.026.028-.06.028-.094m-.912-.281v-.101h-.72v.101h.308v.979h.104v-.979h.308zm-.887.748v-.123c0-.076-.045-.148-.115-.168l-.492-.136c-.033-.009-.056-.045-.056-.082v-.113c0-.009.004-.016.007-.023.024-.042.083-.09.112-.105.005-.003.014-.005.023-.005h.254c.009 0 .018.002.024.005.03.016.086.07.11.114 0 0 .005.007.012.023l.105-.031c-.011-.025-.029-.052-.042-.07-.025-.034-.074-.09-.112-.113-.025-.016-.063-.029-.091-.029h-.269c-.028 0-.066.013-.092.029-.032.02-.104.095-.124.126-.016.025-.021.057-.021.088v.112c0 .075.041.149.111.169l.494.135c.034.009.057.049.057.085v.115c0 .009-.001.016-.005.023-.023.042-.085.094-.114.108-.005.004-.012.006-.021.006h-.286c-.009 0-.02-.002-.026-.006-.03-.016-.084-.07-.11-.113 0 0-.005-.005-.012-.022l-.103.029c.011.025.027.052.04.07.025.035.074.09.111.114.026.016.065.028.094.028h.299c.029 0 .067-.012.092-.028.032-.02.104-.094.124-.124.016-.026.022-.058.022-.088m-1.356-.748v-.101h-.72v.101h.308v.979h.104v-.979h.308zm-.845 0v-.101h-.72v.101h.308v.979h.104v-.979h.308zm-.932-.101h-.104v1.08h.104v-1.08zm-.437.378c0 .011 0 .024-.003.031-.016.031-.06.07-.088.086-.01.006-.02.008-.031.008h-.38v-.402h.38c.011 0 .021 0 .031.005.028.017.072.06.088.09.003.008.003.02.003.031v.151zm.105.004v-.158c0-.034-.009-.066-.027-.093-.013-.02-.069-.078-.092-.095-.029-.022-.068-.035-.106-.035h-.487v1.08h.105V8.9h.382c.038 0 .077-.012.106-.034.023-.018.079-.074.092-.093.018-.026.027-.06.027-.094m-1.367.485v-.21c0-.034-.009-.067-.027-.094-.012-.02-.066-.074-.09-.092-.028-.021-.07-.035-.108-.035h-.297v-.335h.467v-.101h-.571v.535h.4c.01 0 .023.002.032.007.029.016.068.056.085.087.003.007.005.02.005.03v.206c0 .01-.002.021-.005.028-.017.031-.056.072-.085.089-.009.005-.022.007-.032.007h-.202c-.009 0-.022-.002-.027-.006-.038-.019-.095-.086-.121-.135l-.104.029c.011.025.029.054.041.072.026.034.074.088.112.112.025.016.065.028.094.028h.208c.038 0 .08-.012.108-.034.024-.018.078-.075.09-.095.018-.027.027-.059.027-.093m-.906 0v-.21c0-.034-.009-.067-.027-.094-.012-.02-.066-.074-.09-.092-.029-.021-.071-.036-.109-.036h-.297v-.334h.466v-.101h-.57v.535h.399c.011 0 .024.002.033.007.029.016.068.056.084.087.004.007.006.02.006.03v.206c0 .01-.002.021-.006.028-.016.031-.055.072-.084.089-.009.005-.022.007-.033.007h-.201c-.009 0-.022-.002-.027-.006-.038-.019-.096-.086-.121-.135l-.104.029c.011.025.029.054.041.072.025.034.074.088.112.112.025.016.065.028.093.028h.209c.038 0 .079-.012.108-.034.024-.018.078-.075.09-.095.018-.027.028-.059.028-.093m-.915-.526v-.126c0-.035-.009-.067-.027-.094-.013-.02-.067-.077-.09-.095-.029-.022-.07-.035-.108-.035h-.203c-.029 0-.069.013-.094.029-.038.024-.086.079-.112.113-.012.019-.028.046-.039.071l.102.031c.022-.051.083-.118.121-.138.005-.003.018-.005.027-.005h.196c.011 0 .022.002.031.007.029.016.07.058.086.089.004.007.006.019.006.03v.118c0 .036-.024.066-.054.083l-.378.202c-.07.039-.115.092-.115.168v.291h.638v-.1h-.533v-.182c0-.037.025-.067.057-.085l.377-.202c.063-.035.112-.094.112-.17"/>
  <path clip-path="url(#b)" fill="#FFF" d="M149.753 2.835h133.938v63.142H149.753z"/>
  <path clip-path="url(#b)" fill="none" stroke="#000" stroke-width=".225" d="M149.753 2.835h133.938v63.142H149.753z"/>
  <path clip-path="url(#b)" d="M165.574 16.106h77.359v34.759h-77.358l-.001-34.759zm85.528-8.168h-93.695v51.095h93.695V7.938z"/>
  <path clip-path="url(#b)" fill="#FFF" d="M2.835 155.081h133.937v63.142H2.835z"/>
  <path clip-path="url(#b)" fill="none" stroke="#000" stroke-width=".225" d="M2.835 155.081h133.937v63.142H2.835z"/>
  <path clip-path="url(#b)" d="M35.407 196.445H15.229v13.389h20.178v-13.389zm4.742 18.131H10.487v-54.393H76.983v9.065h24.936V196.445h-61.77v18.131z"/>
  <path clip-path="url(#b)" fill="#FFF" d="M149.753 155.081h133.938v63.142H149.753z"/>
  <path clip-path="url(#b)" fill="none" stroke="#000" stroke-width=".225" d="M149.753 155.081h133.938v63.142H149.753z"/>
  <path clip-path="url(#b)" d="M217.854 196.445H157.407v-36.262h66.496v18.131h27.199v18.131H217.854zm-51.382 18.131c-5.008 0-9.065-4.059-9.065-9.064 0-5.008 4.058-9.066 9.065-9.066s9.064 4.059 9.064 9.066c0 5.005-4.057 9.064-9.064 9.064"/>
  <path clip-path="url(#b)" fill="#FFF" d="M2.835 78.958h133.937V142.1H2.835z"/>
  <path clip-path="url(#b)" fill="none" stroke="#000" stroke-width=".225" d="M2.835 78.958h133.937V142.1H2.835z"/>
  <path clip-path="url(#b)" d="M76.924 114.717c5.644 0 10.219 4.575 10.219 10.219s-4.575 10.219-10.219 10.219-10.219-4.575-10.219-10.219 4.575-10.219 10.219-10.219m-10.218-10.219V84.06h37.478l.001 20.438H66.706zm-18.74 10.219v20.438H10.488V84.06h56.217v30.657H47.966z"/>
  <path clip-path="url(#b)" fill="#FFF" d="M149.753 78.958h133.938V142.1H149.753z"/>
  <path clip-path="url(#b)" fill="none" stroke="#000" stroke-width=".225" d="M149.753 78.958h133.938V142.1H149.753z"/>
  <path clip-path="url(#b)" d="M164.698 88.971v3.903h-1.003l1.003-3.903zm-3.857 3.903c.124-.246.194-.522.194-.815 0-.516-.218-.983-.566-1.314.349-.331.566-.799.566-1.316v-.004l.89 3.449h-1.084zm-2.434 0v-1.629h.813c.448.001.813.366.813.814 0 .448-.364.814-.813.815h-.813zm.814-4.259c.448.001.813.367.813.814 0 .449-.364.814-.813.815h-.814v-1.629h.814zm4.535 0l-.946 3.681-.949-3.681h1.895zm3.741 4.259h-1.798v-2.968l1.798 2.968zm.388-1.291l-1.798-2.968h1.798v2.968zm-10.479 2.291h11.479v-6.26h-11.479v6.26zM206.966 85.271v-.85h-.104v.846c0 .009-.004.016-.007.024-.023.041-.081.099-.11.113-.005.004-.014.005-.022.005h-.224c-.01 0-.019-.001-.023-.005-.029-.014-.09-.072-.113-.113-.004-.008-.008-.015-.008-.024v-.847h-.104v.85c0 .03.007.061.022.086.021.031.09.105.123.124.025.016.065.029.093.029h.242c.028 0 .066-.013.091-.029.033-.019.104-.093.123-.124.016-.024.021-.056.021-.085m-1.551-.122l.204-.627h.024l.207.627h-.435zm.549.351h.111l-.361-1.08h-.162l-.362 1.08h.11l.083-.25h.5l.081.25zm-.99-.14h-.14v.14h.14v-.14zm-.408.14v-1.08h-.146l-.296.632-.293-.632h-.149v1.08h.1v-.968l.307.678h.07l.309-.678v.968h.098zm-1.259-.234c0 .009-.002.016-.005.024-.024.041-.085.099-.114.113-.005.004-.014.005-.022.005h-.269c-.009 0-.018-.001-.023-.005-.028-.014-.089-.072-.111-.113-.004-.008-.007-.015-.007-.024v-.607c0-.009.003-.019.007-.027.022-.041.083-.099.111-.113.006-.004.015-.005.023-.005h.269c.009 0 .018.001.022.005.029.014.09.072.114.113.003.008.005.018.005.027v.607zm.104.002v-.612c0-.031-.008-.063-.023-.089-.021-.03-.09-.106-.122-.125-.025-.017-.065-.029-.094-.029h-.284c-.029 0-.067.012-.092.029-.032.019-.104.095-.124.125-.017.026-.022.058-.022.089v.612c0 .031.006.063.022.088.02.031.092.105.124.124.024.016.063.029.092.029h.284c.028 0 .068-.013.094-.029.032-.019.102-.093.122-.124.015-.024.023-.057.023-.088m-.979.029l-.104-.029c-.024.048-.083.115-.12.135-.006.004-.017.005-.025.005h-.225c-.01 0-.019-.001-.023-.005-.029-.014-.09-.072-.114-.114-.003-.007-.005-.014-.005-.023v-.61c0-.009.002-.018.005-.025.024-.042.085-.099.114-.114.005-.003.014-.005.023-.005h.225c.009 0 .02.002.025.005.037.02.099.087.12.137l.104-.03c-.01-.026-.028-.053-.041-.071-.025-.034-.074-.09-.112-.113-.024-.016-.063-.029-.091-.029h-.24c-.028 0-.065.013-.092.029-.032.02-.102.095-.122.126-.016.025-.022.056-.022.086v.618c0 .03.007.061.022.086.021.031.09.105.122.124.026.016.065.029.094.029h.238c.028 0 .066-.013.091-.029.038-.023.087-.079.112-.113.012-.018.031-.045.041-.07m-.987.063h-.14v.14h.14v-.14zm-.406.14v-1.08h-.102v.931l-.466-.931h-.138v1.08h.1v-.922l.47.922h.136zm-.894-1.08h-.11l-.301.969h-.024l-.303-.969h-.109l.344 1.08h.162l.341-1.08zm-1.121.855c0 .011-.002.022-.005.029-.016.031-.056.072-.085.088-.009.006-.02.007-.03.007h-.38v-.394h.381c.012 0 .022.002.029.005.029.017.069.058.085.089.003.007.005.018.005.028v.148zm0-.495c0 .011-.002.023-.005.031-.016.03-.056.072-.085.088-.007.003-.018.007-.029.007h-.381v-.385h.38c.011 0 .021.001.03.007.029.016.069.059.085.09.003.007.005.018.005.029v.133zm.106.499v-.153c0-.035-.008-.069-.026-.096-.01-.016-.045-.052-.07-.075.025-.024.061-.06.07-.076.019-.027.026-.061.026-.095v-.139c0-.034-.008-.068-.026-.095-.012-.02-.066-.076-.09-.094-.028-.022-.07-.036-.108-.036h-.485v1.08h.485c.038 0 .08-.012.108-.034.023-.018.078-.076.09-.095.018-.027.026-.058.026-.092m-1.284-.859h-.113l-.571 1.08h.115l.569-1.08zm-1.841.729l.205-.627h.022l.207.627h-.434zm.549.351h.111l-.361-1.08h-.162l-.362 1.08h.11l.082-.25h.501l.081.25zm-.965-1.08h-.104v1.08h.104v-1.08zm-.316 1.08v-.101h-.504v-.979h-.104v1.08h.608zm-1.443-.351l.205-.627h.023l.207.627h-.435zm.549.351h.111l-.361-1.08h-.162l-.362 1.08h.11l.083-.25h.5l.081.25zm-1.066-.702c0 .011 0 .023-.004.031-.016.03-.059.07-.088.086-.009.006-.021.007-.031.007h-.38v-.401h.38c.011 0 .022 0 .031.005.029.016.072.06.088.09.004.007.004.02.004.031v.151zm.105.004v-.159c0-.034-.01-.066-.027-.093-.012-.02-.068-.078-.092-.096-.028-.021-.068-.034-.106-.034h-.485v1.08h.104v-.477h.271l.266.477h.119l-.269-.477c.036 0 .072-.013.101-.034.023-.018.08-.074.092-.094.016-.027.026-.059.026-.093m-.91-.281v-.101h-.722v.101h.309v.979h.104v-.979h.309zm-.889.747v-.122c0-.076-.045-.148-.114-.168l-.492-.137c-.032-.009-.055-.045-.055-.081v-.113c0-.009.003-.016.007-.024.022-.041.083-.09.11-.104.007-.004.016-.005.024-.005h.254c.009 0 .019.001.023.005.03.016.087.07.109.113 0 0 .005.008.014.024l.104-.031c-.011-.025-.029-.052-.041-.07-.026-.034-.074-.09-.112-.113-.024-.017-.063-.029-.092-.029h-.268c-.029 0-.067.012-.092.029-.032.019-.104.095-.124.125-.018.026-.022.058-.022.089v.111c0 .076.042.15.112.17l.493.135c.033.009.058.048.058.084v.116c0 .009-.002.016-.006.023-.023.041-.084.094-.113.108-.005.004-.013.005-.021.005h-.286c-.009 0-.021-.001-.025-.005-.031-.016-.085-.07-.11-.113 0 0-.005-.006-.013-.022l-.102.029c.01.025.026.052.039.07.025.034.073.09.111.113.025.016.065.029.095.029h.299c.027 0 .065-.013.091-.029.033-.019.104-.093.125-.124.015-.024.02-.057.02-.088m-1.013.003v-.85h-.104v.846c0 .009-.003.016-.008.024-.022.041-.08.099-.109.113-.005.004-.015.005-.023.005h-.223c-.009 0-.019-.001-.024-.005-.028-.014-.09-.072-.112-.113-.004-.008-.009-.015-.009-.024v-.847h-.104v.85c0 .03.007.061.022.086.021.031.091.105.123.124.025.016.065.029.095.029h.24c.029 0 .066-.013.093-.029.031-.019.102-.093.122-.124.016-.024.021-.056.021-.085m-1.551-.122l.205-.627h.023l.207.627h-.435zm.549.351h.112l-.362-1.08h-.162l-.361 1.08h.109l.083-.25h.5l.081.25zm-1.446-.218c0 .011-.002.022-.006.029-.016.031-.057.072-.086.088-.009.006-.02.008-.031.008h-.221c-.011 0-.021-.002-.031-.008-.027-.016-.069-.057-.086-.088-.004-.007-.004-.018-.004-.029v-.644c0-.011 0-.023.004-.031.017-.03.059-.072.086-.088.01-.005.021-.007.031-.007h.221c.012 0 .022.002.031.007.029.016.07.058.086.088.004.008.006.02.006.031v.644zm.105.004v-.652c0-.034-.009-.066-.027-.093-.012-.02-.066-.078-.09-.096-.029-.021-.07-.034-.108-.034h-.225c-.038 0-.077.013-.105.034-.023.018-.077.076-.091.096-.018.027-.026.059-.026.093v.652c0 .034.009.065.026.092.014.02.067.077.091.095.028.022.067.034.105.034h.225c.038 0 .079-.012.108-.034.023-.018.078-.075.09-.095.018-.027.027-.058.027-.092m-1.012-.004c0 .011-.001.022-.006.029-.016.031-.057.072-.086.088-.009.006-.02.008-.03.008h-.222c-.011 0-.021-.002-.03-.008-.029-.016-.07-.057-.086-.088-.005-.007-.005-.018-.005-.029v-.644c0-.011 0-.023.005-.031.016-.03.057-.072.086-.088.009-.005.02-.007.03-.007h.222c.011 0 .021.002.03.007.029.016.07.058.086.088.005.008.006.02.006.031v.644zm.104.004v-.652c0-.034-.009-.066-.027-.093-.013-.02-.066-.078-.09-.096-.028-.021-.069-.034-.107-.034h-.226c-.038 0-.077.013-.105.034-.024.018-.078.076-.09.096-.019.027-.027.059-.027.093v.652c0 .034.009.065.027.092.012.02.065.077.09.095.028.022.067.034.105.034h.226c.038 0 .079-.012.107-.034.023-.018.077-.075.09-.095.019-.027.027-.058.027-.092m-1.011-.004c0 .011-.002.022-.005.029-.017.031-.059.072-.086.088-.01.006-.021.008-.031.008h-.221c-.012 0-.022-.002-.031-.008-.029-.016-.07-.057-.086-.088-.004-.007-.004-.018-.004-.029v-.644c0-.011 0-.023.004-.031.016-.03.057-.072.086-.088.009-.005.02-.007.031-.007h.221c.011 0 .021.002.031.007.027.016.069.058.086.088.003.008.005.02.005.031v.644zm.104.004v-.652c0-.034-.009-.066-.026-.093-.014-.02-.067-.078-.09-.096-.029-.021-.07-.034-.108-.034h-.225c-.038 0-.078.013-.106.034-.024.018-.078.076-.09.096-.019.027-.027.059-.027.093v.652c0 .034.009.065.027.092.012.02.065.077.09.095.028.022.068.034.106.034h.225c.038 0 .079-.012.108-.034.022-.018.076-.075.09-.095.017-.027.026-.058.026-.092m-.903 0v-.166c0-.034-.01-.066-.027-.093-.011-.017-.045-.053-.07-.076.025-.023.06-.059.07-.076.018-.027.027-.059.027-.094v-.146c0-.035-.01-.067-.027-.094-.013-.02-.067-.078-.09-.096-.029-.021-.068-.034-.106-.034h-.211c-.028 0-.065.011-.092.027-.037.023-.086.081-.111.115-.013.018-.028.046-.04.071l.104.029c.021-.051.083-.116.12-.136.006-.003.017-.005.025-.005h.203c.012 0 .022 0 .031.005.028.016.068.06.084.091.004.007.006.019.006.03v.14c0 .011-.002.023-.006.03-.016.031-.056.071-.084.087-.008.004-.02.006-.031.006h-.214v.1h.216c.012 0 .021.004.029.008.028.016.068.055.084.086.004.007.006.018.006.029v.16c0 .011-.002.022-.006.029-.016.031-.056.072-.084.088-.009.006-.02.007-.031.007h-.203c-.009 0-.02-.001-.025-.005-.037-.02-.096-.086-.12-.135l-.105.029c.012.025.029.054.042.072.025.034.074.088.111.111.026.016.063.029.092.029h.211c.038 0 .077-.013.106-.034.022-.018.077-.076.09-.095.016-.026.026-.06.026-.094m-1.349.214v-.101h-.515v-.388h.488v-.101h-.488v-.389h.515v-.101h-.619v1.08h.619zm-.901 0v-1.08h-.102v.931l-.466-.931h-.138v1.08h.1v-.922l.47.922h.136zm-1.093-.702c0 .011 0 .023-.004.031-.016.03-.059.07-.088.086-.009.006-.02.007-.03.007h-.381v-.401h.381c.011 0 .021 0 .03.005.029.016.072.06.088.09.004.007.004.02.004.031v.151zm.105.004v-.159c0-.034-.009-.066-.027-.093-.013-.02-.067-.078-.092-.096-.029-.021-.068-.034-.105-.034h-.486v1.08h.104v-.477h.271l.267.477h.119l-.269-.477c.036 0 .071-.013.101-.034.024-.018.079-.074.092-.094.016-.027.025-.059.025-.093m-.98.469v-.85h-.104v.846c0 .009-.003.016-.007.024-.023.041-.081.099-.11.113-.005.004-.014.005-.022.005h-.224c-.009 0-.018-.001-.023-.005-.029-.014-.091-.072-.113-.113-.004-.008-.007-.015-.007-.024v-.847h-.105v.85c0 .03.007.061.024.086.019.031.09.105.122.124.024.016.064.029.094.029h.241c.028 0 .066-.013.092-.029.032-.019.102-.093.122-.124.014-.024.02-.056.02-.085m-1.089-.005c0 .009-.002.016-.006.024-.022.041-.084.099-.113.113-.005.004-.014.005-.022.005h-.27c-.009 0-.018-.001-.022-.005-.029-.014-.088-.072-.112-.113-.003-.008-.007-.015-.007-.024v-.607c0-.009.004-.019.007-.027.024-.041.083-.099.112-.113.005-.004.014-.005.022-.005h.27c.009 0 .018.001.022.005.029.014.091.072.113.113.004.008.006.018.006.027v.607zm.105.002v-.612c0-.031-.007-.063-.023-.089-.02-.03-.09-.106-.123-.125-.024-.017-.063-.029-.093-.029h-.285c-.027 0-.065.012-.091.029-.033.019-.104.095-.125.125-.016.026-.021.058-.021.089v.612c0 .031.005.063.021.088.021.031.092.105.125.124.025.016.063.029.091.029h.285c.029 0 .068-.013.093-.029.033-.019.104-.093.123-.124.016-.024.023-.057.023-.088m-1.121.007c0 .011-.002.022-.005.029-.018.031-.057.072-.085.088-.009.006-.021.007-.031.007h-.38v-.394h.382c.011 0 .022.002.029.005.028.017.067.058.085.089.003.007.005.018.005.028v.148zm0-.495c0 .011-.002.023-.005.031-.018.03-.057.072-.085.088-.007.003-.019.007-.029.007h-.382v-.385h.38c.011 0 .022.001.031.007.028.016.067.059.085.09.003.007.005.018.005.029v.133zm.103.499v-.153c0-.035-.007-.069-.024-.096-.011-.016-.045-.052-.07-.075.025-.024.06-.06.07-.076.018-.027.024-.061.024-.095v-.139c0-.034-.007-.068-.024-.095-.012-.02-.066-.076-.09-.094-.029-.022-.07-.036-.108-.036h-.486v1.08h.486c.038 0 .079-.012.108-.034.023-.018.078-.076.09-.095.017-.027.024-.058.024-.092m-.92.221v-.101h-.504v-.979h-.104v1.08h.608zm-.884 0v-.101h-.515v-.388h.487v-.101h-.487v-.389h.515v-.101h-.62v1.08h.62zm-.903 0v-1.08h-.146l-.296.632-.293-.632h-.149v1.08h.101v-.968l.306.678h.071l.307-.678v.968h.099zm-1.461-1.08h-.113l-.57 1.08h.115l.568-1.08zm-1.206.101v-.101h-.72v.101h.308v.979h.104v-.979h.308zm-.924.979v-.101h-.515v-.388H173v-.101h-.488v-.389h.515v-.101h-.619v1.08h.619zm-.895 0v-.101h-.516v-.388h.488v-.101h-.488v-.389h.516v-.101h-.62v1.08h.62zm-1.005-.702c0 .011 0 .023-.003.031-.017.03-.061.07-.089.086-.009.006-.02.007-.03.007h-.38v-.401h.38c.011 0 .021 0 .03.005.028.016.072.06.089.09.003.007.003.02.003.031v.151zm.104.004v-.159c0-.034-.009-.066-.026-.093-.014-.02-.069-.078-.093-.096-.028-.021-.067-.034-.105-.034h-.486v1.08h.104v-.477h.27l.267.477h.118l-.268-.477c.036 0 .072-.013.101-.034.023-.018.079-.074.093-.094.017-.027.025-.059.025-.093m-.911-.281v-.101h-.72v.101h.308v.979h.104v-.979h.308zm-.886.747v-.122c0-.076-.045-.148-.115-.168l-.492-.137c-.031-.009-.056-.045-.056-.081v-.113c0-.009.004-.016.007-.024.024-.041.083-.09.112-.104.005-.004.014-.005.022-.005h.255c.009 0 .018.001.023.005.03.016.086.07.11.113 0 0 .005.008.012.024l.105-.031c-.012-.025-.029-.052-.042-.07-.025-.034-.074-.09-.111-.113-.026-.017-.063-.029-.092-.029h-.27c-.027 0-.065.012-.091.029-.033.019-.104.095-.125.125-.016.026-.021.058-.021.089v.111c0 .076.041.15.11.17l.494.135c.034.009.057.048.057.084v.116c0 .009-.001.016-.005.023-.022.041-.085.094-.112.108-.006.004-.014.005-.022.005h-.286c-.009 0-.02-.001-.025-.005-.03-.016-.084-.07-.109-.113 0 0-.006-.006-.013-.022l-.104.029c.011.025.027.052.04.07.025.034.074.09.112.113.024.016.063.029.093.029h.299c.029 0 .067-.013.092-.029.032-.019.104-.093.124-.124.018-.024.024-.057.024-.088m-1.44.232v-1.08h-.104v.49h-.51v-.49h-.104v1.08h.104v-.489h.51v.489h.104zm-.917-.979v-.101h-.721v.101h.309v.979h.104v-.979h.308zm-.924.979v-.101h-.515v-.388h.488v-.101h-.488v-.389h.515v-.101h-.619v1.08h.619zm-.987-.225c0 .011-.002.022-.006.029-.017.031-.056.072-.085.088-.009.006-.02.007-.03.007h-.38v-.394h.382c.011 0 .021.002.028.005.029.017.068.058.085.089.004.007.006.018.006.028v.148zm0-.495c0 .011-.002.023-.006.031-.017.03-.056.072-.085.088-.007.003-.018.007-.028.007h-.382v-.385h.38c.011 0 .021.001.03.007.029.016.068.059.085.09.004.007.006.018.006.029v.133zm.104.499v-.153c0-.035-.007-.069-.025-.096-.011-.016-.045-.052-.069-.075.024-.024.059-.06.069-.076.019-.027.025-.061.025-.095v-.139c0-.034-.007-.068-.025-.095-.012-.02-.065-.076-.09-.094-.028-.022-.069-.036-.107-.036h-.486v1.08h.486c.038 0 .079-.012.107-.034.024-.018.078-.076.09-.095.018-.027.025-.058.025-.092m-1.544-.13l.205-.627h.024l.206.627h-.435zm.548.351h.112l-.362-1.08h-.162l-.361 1.08h.109l.083-.25h.5l.081.25zm-.909 0v-.101h-.525l.525-.885v-.094h-.654v.101h.528l-.528.889v.09h.654zm-.92-1.08h-.104v1.08h.104v-1.08zm-.314 1.08v-.101h-.504v-.979h-.104v1.08h.608zm-.887 0v-.101h-.514v-.388h.487v-.101h-.487v-.389h.514v-.101h-.618v1.08h.618zm-1.384-.218c0 .011-.001.022-.005.029-.016.031-.058.072-.086.088-.009.006-.02.008-.031.008h-.221c-.011 0-.022-.002-.031-.008-.028-.016-.069-.057-.086-.088-.004-.007-.004-.018-.004-.029v-.644c0-.011 0-.023.004-.031.017-.03.058-.072.086-.088.009-.005.021-.007.031-.007h.221c.012 0 .022.002.031.007.028.016.07.058.086.088.004.008.005.02.005.031v.644zm.106.004v-.652c0-.034-.009-.066-.027-.093-.013-.02-.066-.078-.09-.096-.029-.021-.07-.034-.108-.034h-.225c-.038 0-.077.013-.106.034-.023.018-.077.076-.09.096-.018.027-.026.059-.026.093v.652c0 .034.009.065.026.092.013.02.066.077.09.095.029.022.068.034.106.034h.225c.038 0 .079-.012.108-.034.023-.018.077-.075.09-.095.018-.027.027-.058.027-.092m-1.015-.002c0 .011-.001.022-.005.029-.016.031-.056.072-.084.088-.009.006-.02.007-.03.007h-.222c-.011 0-.02-.001-.028-.007-.029-.016-.07-.057-.088-.088-.003-.007-.005-.018-.005-.029v-.219c.002-.006.008-.015.01-.018.024-.044.097-.092.128-.108.005-.004.016-.006.024-.006h.181c.011 0 .021.002.03.007.028.017.068.058.084.089.004.007.005.018.005.028v.227zm.106.002v-.23c0-.035-.009-.069-.027-.096-.013-.02-.066-.073-.09-.091-.029-.022-.067-.033-.105-.033h-.188c-.029 0-.069.009-.094.025-.021.013-.041.036-.063.06v-.282c0-.011.002-.024.005-.031.018-.031.057-.075.086-.091.009-.005.02-.005.03-.005h.196c.009 0 .021.002.027.005.038.02.099.085.119.136l.105-.029c-.011-.025-.029-.053-.042-.071-.025-.034-.074-.092-.111-.115-.025-.016-.063-.027-.092-.027h-.205c-.038 0-.078.013-.105.034-.024.018-.078.076-.091.096-.018.027-.026.059-.026.094v.651c0 .034.009.067.026.094.013.019.066.077.091.095.027.021.067.034.105.034h.226c.038 0 .076-.013.105-.034.023-.018.077-.076.09-.095.019-.026.028-.06.028-.094m-.903 0v-.166c0-.034-.009-.066-.026-.093-.012-.017-.045-.053-.07-.076.025-.023.059-.059.07-.076.018-.027.026-.059.026-.094v-.146c0-.035-.009-.067-.026-.094-.014-.02-.067-.078-.091-.096-.028-.021-.067-.034-.105-.034h-.211c-.029 0-.066.011-.092.027-.037.023-.086.081-.111.115-.013.018-.029.046-.04.071l.104.029c.021-.051.083-.116.119-.136.007-.003.018-.005.026-.005h.203c.011 0 .021 0 .031.005.027.016.067.06.084.091.004.007.006.019.006.03v.14c0 .011-.002.023-.006.03-.017.031-.057.071-.084.087-.009.004-.021.006-.031.006h-.214v.1h.216c.011 0 .021.004.029.008.027.016.067.055.084.086.004.007.006.018.006.029v.16c0 .011-.002.022-.006.029-.017.031-.057.072-.084.088-.01.006-.021.007-.031.007h-.203c-.009 0-.02-.001-.026-.005-.036-.02-.095-.086-.119-.135l-.105.029c.011.025.029.054.042.072.025.034.074.088.111.111.025.016.063.029.092.029h.211c.038 0 .077-.013.105-.034.023-.018.077-.076.091-.095.017-.026.025-.06.025-.094"/>
  <path clip-path="url(#b)" fill="#FFF" d="M149.753 231.204h133.938v63.142H149.753z"/>
  <path clip-path="url(#b)" fill="none" stroke="#000" stroke-width=".225" d="M149.753 231.204h133.938v63.142H149.753z"/>
  <path clip-path="url(#b)" d="M192.849 268.035h-35.443v18.131h35.443v-18.131zm58.253-31.729H157.405v27.195h93.696v-27.195z"/>
  <path clip-path="url(#b)" fill="#FFF" d="M2.835 231.204h133.937v63.142H2.835z"/>
  <path clip-path="url(#b)" fill="none" stroke="#000" stroke-width=".225" d="M2.835 231.204h133.937v63.142H2.835z"/>
  <path clip-path="url(#b)" d="M17.78 241.216v3.903h-1.003l1.003-3.903zm-3.857 3.904c.124-.246.194-.522.194-.815 0-.516-.218-.983-.566-1.314.348-.33.566-.799.566-1.315v-.004l.89 3.449h-1.084zm-2.434 0v-1.63h.814c.448.001.813.367.813.814 0 .449-.364.814-.812.815h-.815zm.814-4.26c.448.001.813.367.813.814 0 .449-.364.813-.812.814h-.815v-1.629h.814zm4.535 0l-.946 3.682-.95-3.682h1.896zm3.741 4.26h-1.798v-2.969l1.798 2.969zm.388-1.291l-1.798-2.969h1.798v2.969zm-10.479 2.291h11.48v-6.261h-11.48v6.261zM54.953 237.516v-.851h-.104v.846c0 .01-.004.017-.008.024-.023.041-.081.099-.109.113-.006.004-.015.005-.024.005h-.223c-.009 0-.018-.001-.023-.005-.029-.015-.09-.072-.114-.113-.003-.008-.007-.015-.007-.024v-.846h-.105v.851c0 .029.008.061.024.086.02.03.09.104.122.124.026.016.065.028.094.028h.241c.029 0 .067-.013.092-.028.032-.021.103-.094.122-.124.016-.025.022-.057.022-.086m-1.552-.121l.205-.627h.023l.207.627h-.435zm.549.351h.111l-.362-1.08h-.162l-.361 1.08h.109l.083-.25h.501l.081.25zm-.991-.14h-.14v.14h.14v-.14zm-.406.14v-1.08h-.148l-.295.632-.293-.632h-.15v1.08h.101v-.968l.306.678h.07l.308-.678v.968h.101zm-1.26-.235c0 .01-.002.017-.006.024-.023.041-.084.099-.113.113-.005.004-.014.005-.023.005h-.269c-.009 0-.018-.001-.023-.005-.029-.015-.088-.072-.112-.113-.003-.008-.007-.015-.007-.024v-.606c0-.009.004-.021.007-.027.024-.041.083-.099.112-.112.005-.005.014-.007.023-.007h.269c.009 0 .018.002.023.007.029.014.09.071.113.112.004.007.006.019.006.027v.606zm.104.003v-.612c0-.031-.007-.063-.023-.089-.02-.03-.09-.106-.123-.125-.025-.018-.064-.029-.093-.029h-.285c-.028 0-.066.012-.091.029-.033.019-.105.095-.125.125-.016.025-.021.058-.021.089v.612c0 .03.005.063.021.088.02.03.092.104.125.124.025.016.063.028.091.028h.285c.029 0 .068-.013.093-.028.033-.021.103-.094.123-.124.017-.025.023-.058.023-.088m-.979.028l-.104-.028c-.026.048-.083.114-.121.135-.005.004-.016.005-.025.005h-.225c-.009 0-.018-.001-.024-.005-.028-.015-.09-.072-.113-.114-.004-.007-.005-.014-.005-.023v-.609c0-.009.001-.019.005-.025.023-.042.085-.1.113-.113.006-.005.015-.006.024-.006h.225c.009 0 .02.001.025.006.038.02.099.087.121.137l.104-.031c-.011-.025-.029-.052-.041-.07-.026-.033-.074-.09-.112-.112-.025-.017-.063-.029-.092-.029h-.239c-.029 0-.067.013-.092.029-.032.02-.103.095-.122.126-.017.024-.024.056-.024.086v.618c0 .029.007.061.024.086.019.03.09.104.122.124.025.016.065.028.094.028h.237c.029 0 .067-.013.092-.028.038-.023.086-.079.112-.113.012-.022.03-.048.041-.074m-.986.064h-.14v.14h.14v-.14zm-.407.14v-1.08h-.101v.932l-.466-.932h-.139v1.08h.101v-.922l.47.922h.135zm-.895-1.08h-.11l-.3.969h-.025l-.303-.969h-.11l.344 1.08h.162l.342-1.08zm-1.119.855c0 .011-.002.021-.006.028-.016.031-.055.072-.084.089-.009.006-.02.007-.031.007h-.38v-.395h.382c.011 0 .022.002.029.005.029.017.068.059.084.089.004.008.006.019.006.028v.149zm0-.495c0 .011-.002.022-.006.031-.016.029-.055.071-.084.088-.007.003-.018.007-.029.007h-.382v-.385h.38c.011 0 .022.001.031.007.029.016.068.059.084.09.004.007.006.018.006.029v.133zm.104.499v-.153c0-.035-.007-.069-.025-.096-.011-.017-.045-.052-.07-.075.025-.024.059-.06.07-.076.018-.026.025-.061.025-.095v-.139c0-.034-.007-.069-.025-.097-.013-.019-.067-.075-.09-.093-.029-.021-.07-.036-.108-.036h-.486v1.08h.486c.038 0 .079-.013.108-.034.023-.018.077-.076.09-.095.018-.027.025-.057.025-.091m-1.282-.859h-.114l-.57 1.08h.115l.569-1.08zm-1.843.729l.206-.627h.023l.207.627h-.436zm.55.351h.112l-.362-1.08h-.162l-.362 1.08h.11l.083-.25h.5l.081.25zm-.966-1.08h-.104v1.08h.104v-1.08zm-.315 1.08v-.101h-.504v-.979h-.104v1.08h.608zm-1.443-.351l.205-.627h.024l.207.627h-.436zm.549.351h.112l-.362-1.08h-.162l-.362 1.08h.11l.083-.25h.5l.081.25zm-1.066-.703c0 .012 0 .023-.003.031-.016.03-.06.07-.088.086-.009.005-.02.007-.031.007h-.38v-.4h.38c.011 0 .022 0 .031.005.028.016.072.059.088.09.003.007.003.02.003.031v.15zm.105.004v-.158c0-.034-.009-.067-.027-.095-.013-.019-.069-.077-.092-.095-.029-.021-.068-.034-.106-.034h-.486v1.08h.104v-.477h.27l.267.477h.119l-.269-.477c.036 0 .072-.014.101-.034.023-.019.079-.074.092-.094.019-.026.027-.058.027-.093m-.911-.28v-.102h-.72v.102h.308v.979h.104v-.979h.308zm-.887.747v-.122c0-.076-.045-.148-.115-.168l-.491-.138c-.032-.009-.056-.045-.056-.081v-.112c0-.01.004-.018.007-.024.024-.041.083-.09.112-.104.005-.005.014-.007.023-.007h.254c.009 0 .018.002.024.007.03.016.086.069.11.112 0 0 .005.007.012.024l.105-.031c-.011-.025-.029-.052-.042-.07-.025-.033-.074-.09-.111-.112-.026-.018-.063-.029-.092-.029h-.269c-.028 0-.066.012-.091.029-.033.019-.105.095-.125.125-.016.025-.021.058-.021.089v.111c0 .075.041.149.111.17l.494.135c.034.009.057.048.057.084v.116c0 .009-.001.016-.005.022-.023.041-.085.094-.113.108-.006.004-.013.005-.022.005h-.286c-.009 0-.02-.001-.026-.005-.03-.017-.084-.07-.109-.113 0 0-.006-.006-.013-.021l-.103.028c.011.025.027.052.04.07.025.034.074.09.112.113.025.016.064.028.093.028h.299c.029 0 .067-.013.092-.028.032-.021.104-.094.124-.124.016-.024.021-.057.021-.087m-1.014.002v-.851h-.104v.846c0 .01-.004.017-.007.024-.024.041-.081.099-.11.113-.006.004-.015.005-.024.005h-.223c-.009 0-.018-.001-.023-.005-.029-.015-.09-.072-.114-.113-.003-.008-.007-.015-.007-.024v-.846h-.104v.851c0 .029.007.061.023.086.02.03.09.104.122.124.026.016.065.028.094.028h.241c.029 0 .067-.013.092-.028.033-.021.103-.094.123-.124.016-.025.021-.057.021-.086m-1.55-.121l.205-.627h.023l.207.627h-.435zm.548.351h.111l-.362-1.08h-.162l-.361 1.08h.109l.083-.25h.501l.081.25zm-1.856-.218c0 .011-.002.021-.005.029-.017.03-.058.071-.087.088-.009.006-.02.008-.03.008h-.222c-.011 0-.021-.002-.03-.008-.029-.017-.071-.058-.087-.088-.003-.008-.003-.019-.003-.029v-.645c0-.011 0-.023.003-.03.016-.03.058-.072.087-.088.009-.007.019-.008.03-.008h.222c.01 0 .021.001.03.008.029.016.07.058.087.088.003.007.005.02.005.03v.645zm.104.004v-.652c0-.034-.009-.065-.027-.094-.012-.019-.066-.077-.09-.095-.028-.021-.07-.034-.108-.034h-.225c-.037 0-.077.013-.106.034-.023.018-.077.076-.09.095-.018.028-.027.06-.027.094v.652c0 .034.009.065.027.092.013.021.067.077.09.095.029.022.069.034.106.034h.225c.038 0 .08-.012.108-.034.024-.018.078-.074.09-.095.019-.027.027-.058.027-.092m-1.01-.004c0 .011-.002.021-.006.029-.016.03-.057.071-.086.088-.009.006-.02.008-.031.008h-.221c-.011 0-.022-.002-.031-.008-.028-.017-.07-.058-.086-.088-.003-.008-.003-.019-.003-.029v-.645c0-.011 0-.023.003-.03.016-.03.058-.072.086-.088.009-.007.02-.008.031-.008h.221c.011 0 .022.001.031.008.029.016.07.058.086.088.004.007.006.02.006.03v.645zm.104.004v-.652c0-.034-.009-.065-.027-.094-.012-.019-.066-.077-.09-.095-.029-.021-.07-.034-.108-.034h-.225c-.038 0-.077.013-.106.034-.023.018-.077.076-.09.095-.018.028-.027.06-.027.094v.652c0 .034.009.065.027.092.013.021.067.077.09.095.029.022.068.034.106.034h.225c.038 0 .079-.012.108-.034.024-.018.078-.074.09-.095.017-.027.027-.058.027-.092m-1.012-.004c0 .011-.002.021-.006.029-.016.03-.057.071-.086.088-.009.006-.02.008-.031.008h-.221c-.011 0-.022-.002-.031-.008-.029-.017-.07-.058-.086-.088-.004-.008-.004-.019-.004-.029v-.645c0-.011 0-.023.004-.03.016-.03.057-.072.086-.088.009-.007.02-.008.031-.008h.221c.011 0 .022.001.031.008.029.016.07.058.086.088.004.007.006.02.006.03v.645zm.104.004v-.652c0-.034-.009-.065-.027-.094-.013-.019-.067-.077-.09-.095-.029-.021-.07-.034-.108-.034h-.225c-.038 0-.077.013-.106.034-.023.018-.078.076-.09.095-.018.028-.027.06-.027.094v.652c0 .034.009.065.027.092.012.021.067.077.09.095.029.022.068.034.106.034h.225c.038 0 .079-.012.108-.034.023-.018.077-.074.09-.095.019-.027.027-.058.027-.092m-1.471-.14l.387-.616v.616h-.387zm.61 0h-.117v-.727h-.153l-.458.727v.1h.506v.254h.105v-.254h.117v-.1zm-1.391.354v-.101h-.515v-.39h.488v-.1h-.488v-.389h.515v-.102h-.619v1.08h.619zm-.901 0v-1.08h-.1v.932l-.467-.932h-.138v1.08h.1v-.922l.47.922h.135zm-1.542-.351l.205-.627h.023l.207.627h-.435zm.548.351h.111l-.361-1.08h-.162l-.362 1.08h.11l.082-.25h.501l.081.25zm-1.048-.225c0 .011-.002.021-.006.028-.016.031-.056.072-.085.089-.009.006-.019.007-.03.007h-.38v-.395h.382c.01 0 .021.002.028.005.029.017.069.059.085.089.004.008.006.019.006.028v.149zm0-.495c0 .011-.002.022-.006.031-.016.029-.056.071-.085.088-.007.003-.018.007-.028.007h-.382v-.385h.38c.011 0 .021.001.03.007.029.016.069.059.085.09.004.007.006.018.006.029v.133zm.104.499v-.153c0-.035-.007-.069-.025-.096-.011-.017-.045-.052-.07-.075.025-.024.059-.06.07-.076.018-.026.025-.061.025-.095v-.139c0-.034-.007-.069-.025-.097-.013-.019-.067-.075-.09-.093-.029-.021-.071-.036-.108-.036h-.487v1.08h.487c.037 0 .079-.013.108-.034.023-.018.077-.076.09-.095.017-.027.025-.057.025-.091m-.951-.011v-.122c0-.076-.045-.148-.116-.168l-.491-.138c-.033-.009-.056-.045-.056-.081v-.112c0-.01.004-.018.007-.024.024-.041.083-.09.112-.104.005-.005.014-.007.023-.007h.254c.009 0 .018.002.024.007.03.016.086.069.109.112 0 0 .006.007.013.024l.104-.031c-.01-.025-.028-.052-.041-.07-.025-.033-.074-.09-.112-.112-.025-.018-.063-.029-.091-.029h-.269c-.029 0-.066.012-.092.029-.032.019-.104.095-.124.125-.016.025-.022.058-.022.089v.111c0 .075.042.149.112.17l.494.135c.034.009.057.048.057.084v.116c0 .009-.002.016-.005.022-.024.041-.085.094-.114.108-.005.004-.012.005-.021.005h-.287c-.009 0-.019-.001-.025-.005-.03-.017-.084-.07-.11-.113 0 0-.005-.006-.012-.021l-.103.028c.011.025.027.052.04.07.025.034.074.09.111.113.026.016.065.028.094.028h.299c.029 0 .067-.013.092-.028.032-.021.104-.094.124-.124.017-.024.022-.057.022-.087m-1.029-.848h-.104v1.08h.104v-1.08zm-.491.377c0 .012 0 .023-.003.031-.016.03-.06.07-.089.086-.009.005-.019.007-.03.007h-.38v-.4h.38c.011 0 .021 0 .03.005.029.016.073.059.089.09.003.007.003.02.003.031v.15zm.105.004v-.158c0-.034-.009-.067-.027-.095-.013-.019-.069-.077-.092-.095-.029-.021-.069-.034-.106-.034h-.487v1.08h.105v-.477h.27l.267.477h.118l-.268-.477c.036 0 .072-.014.101-.034.023-.019.079-.074.092-.094.019-.026.027-.058.027-.093m-1.08.474c0 .011-.002.021-.006.028-.016.031-.055.072-.084.089-.009.006-.02.007-.031.007h-.38v-.395h.382c.011 0 .022.002.029.005.029.017.068.059.084.089.004.008.006.019.006.028v.149zm0-.495c0 .011-.002.022-.006.031-.016.029-.055.071-.084.088-.007.003-.018.007-.029.007h-.382v-.385h.38c.011 0 .022.001.031.007.029.016.068.059.084.09.004.007.006.018.006.029v.133zm.104.499v-.153c0-.035-.007-.069-.025-.096-.011-.017-.045-.052-.07-.075.025-.024.059-.06.07-.076.018-.026.025-.061.025-.095v-.139c0-.034-.007-.069-.025-.097-.013-.019-.067-.075-.09-.093-.029-.021-.07-.036-.108-.036h-.486v1.08h.486c.038 0 .079-.013.108-.034.023-.018.077-.076.09-.095.018-.027.025-.057.025-.091m-1.282-.859h-.114l-.57 1.08h.115l.569-1.08zm-1.206.101v-.102h-.72v.102h.308v.979h.104v-.979h.308zm-.925.979v-.101h-.515v-.39h.488v-.1h-.488v-.389h.515v-.102h-.618v1.08h.618zm-.896 0v-.101h-.515v-.39h.488v-.1h-.488v-.389h.515v-.102h-.619v1.08h.619zm-1.004-.703c0 .012 0 .023-.004.031-.016.03-.059.07-.088.086-.009.005-.02.007-.031.007h-.38v-.4h.38c.011 0 .022 0 .031.005.029.016.072.059.088.09.004.007.004.02.004.031v.15zm.104.004v-.158c0-.034-.009-.067-.027-.095-.013-.019-.068-.077-.092-.095-.029-.021-.068-.034-.106-.034h-.486v1.08h.104v-.477h.27l.267.477h.119l-.269-.477c.036 0 .072-.014.101-.034.024-.019.079-.074.092-.094.019-.026.027-.058.027-.093m-.911-.28v-.102h-.72v.102h.308v.979h.104v-.979h.308zm-.887.747v-.122c0-.076-.045-.148-.115-.168l-.492-.138c-.032-.009-.056-.045-.056-.081v-.112c0-.01.004-.018.008-.024.023-.041.082-.09.111-.104.006-.005.015-.007.024-.007h.254c.009 0 .018.002.023.007.031.016.086.069.11.112 0 0 .005.007.012.024l.105-.031c-.011-.025-.029-.052-.042-.07-.025-.033-.073-.09-.111-.112-.025-.018-.063-.029-.092-.029h-.268c-.029 0-.067.012-.092.029-.033.019-.105.095-.125.125-.016.025-.021.058-.021.089v.111c0 .075.041.149.112.17l.493.135c.034.009.058.048.058.084v.116c0 .009-.002.016-.006.022-.023.041-.084.094-.113.108-.006.004-.013.005-.022.005h-.286c-.009 0-.02-.001-.025-.005-.031-.017-.085-.07-.11-.113 0 0-.006-.006-.013-.021l-.103.028c.011.025.027.052.04.07.025.034.074.09.112.113.025.016.065.028.093.028h.299c.029 0 .067-.013.092-.028.033-.021.105-.094.124-.124.018-.024.022-.057.022-.087m-1.349.232l-.496-.54.495-.54h-.137l-.447.492h-.021v-.492h-.105v1.08h.105v-.489h.021l.449.489h.136zm-.987 0v-.101h-.514v-.39h.487v-.1h-.487v-.389h.514v-.102h-.619v1.08h.619zm-.896 0v-.101h-.515v-.39h.488v-.1h-.488v-.389h.515v-.102h-.619v1.08h.619zm-1.005-.703c0 .012 0 .023-.004.031-.016.03-.059.07-.088.086-.009.005-.02.007-.031.007h-.38v-.4h.38c.011 0 .022 0 .031.005.029.016.072.059.088.09.004.007.004.02.004.031v.15zm.104.004v-.158c0-.034-.009-.067-.027-.095-.012-.019-.068-.077-.092-.095-.028-.021-.068-.034-.106-.034h-.486v1.08h.104v-.477h.27l.267.477h.119l-.268-.477c.036 0 .072-.014.1-.034.024-.019.08-.074.092-.094.018-.026.027-.058.027-.093m-.938.495l-.104-.028c-.025.048-.083.114-.121.135-.005.004-.016.005-.025.005h-.225c-.009 0-.018-.001-.023-.005-.029-.015-.09-.072-.114-.114-.003-.007-.005-.014-.005-.023v-.609c0-.009.002-.019.005-.025.024-.042.085-.1.114-.113.005-.005.014-.006.023-.006h.225c.009 0 .02.001.025.006.038.02.099.087.121.137l.104-.031c-.01-.025-.028-.052-.041-.07-.025-.033-.074-.09-.112-.112-.025-.017-.063-.029-.091-.029h-.24c-.029 0-.066.013-.092.029-.032.02-.102.095-.122.126-.016.024-.023.056-.023.086v.618c0 .029.007.061.023.086.02.03.09.104.122.124.026.016.065.028.094.028h.238c.028 0 .066-.013.091-.028.038-.023.087-.079.112-.113.013-.022.031-.048.041-.074m-1.375-.536v-.127c0-.034-.009-.065-.027-.094-.012-.019-.066-.077-.09-.095-.029-.021-.07-.034-.108-.034h-.203c-.029 0-.069.013-.094.029-.037.022-.086.079-.111.112-.013.019-.029.045-.04.07l.103.031c.021-.05.082-.117.12-.137.006-.005.018-.006.027-.006h.196c.011 0 .022.001.031.008.029.016.07.058.086.088.004.007.006.02.006.03V237c0 .036-.024.067-.054.083l-.378.202c-.07.038-.115.092-.115.168v.292h.637v-.101h-.533v-.183c0-.036.025-.066.058-.085l.376-.202c.063-.032.113-.092.113-.168m-.925.74v-.101h-.243v-.979h-.349v.102h.245v.878h-.261v.101h.608z"/>
</svg>
