<?xml version="1.0" encoding="utf-8"?>
<!-- Generator: Adobe Illustrator 16.0.0, SVG Export Plug-In . SVG Version: 6.00 Build 0)  -->
<!DOCTYPE svg PUBLIC "-//W3C//DTD SVG 1.1//EN" "http://www.w3.org/Graphics/SVG/1.1/DTD/svg11.dtd">
<svg version="1.1" id="Layer_1" xmlns="http://www.w3.org/2000/svg" xmlns:xlink="http://www.w3.org/1999/xlink" x="0px" y="0px"
	 width="286.523px" height="297.179px" viewBox="0 0 286.523 297.179" enable-background="new 0 0 286.523 297.179"
	 xml:space="preserve">
<rect x="2.835" y="2.835" fill="#FFFFFF" width="133.937" height="63.142"/>
<rect x="2.835" y="2.835" fill="none" stroke="#000000" stroke-width="0.225" width="133.937" height="63.142"/>
<g>
	<defs>
		<rect id="SVGID_1_" width="286.523" height="297.179"/>
	</defs>
	<clipPath id="SVGID_2_">
		<use xlink:href="#SVGID_1_"  overflow="visible"/>
	</clipPath>
	<path clip-path="url(#SVGID_2_)" d="M17.78,12.848v3.903h-1.003L17.78,12.848z M13.923,16.751c0.124-0.246,0.194-0.522,0.194-0.815
		c0-0.516-0.218-0.983-0.566-1.314c0.348-0.331,0.566-0.799,0.566-1.316v-0.004l0.89,3.449H13.923z M11.489,16.751v-1.629h0.814
		c0.448,0.001,0.813,0.366,0.813,0.814c0,0.448-0.364,0.814-0.812,0.815H11.489z M12.303,12.492
		c0.448,0.001,0.813,0.367,0.813,0.814c0,0.449-0.364,0.814-0.812,0.815h-0.815v-1.629H12.303z M16.838,12.492l-0.946,3.681
		l-0.95-3.681H16.838z M20.579,16.751h-1.798v-2.968L20.579,16.751z M20.967,15.46l-1.798-2.968h1.798V15.46z M10.488,17.751h11.48
		v-6.26h-11.48V17.751z"/>
	<path clip-path="url(#SVGID_2_)" d="M52.16,9.147v-0.85h-0.104v0.847c0,0.009-0.004,0.016-0.007,0.023
		c-0.024,0.041-0.081,0.099-0.11,0.113c-0.006,0.004-0.015,0.006-0.024,0.006h-0.223c-0.009,0-0.018-0.002-0.023-0.006
		c-0.029-0.014-0.09-0.072-0.114-0.113c-0.003-0.007-0.007-0.014-0.007-0.023V8.297h-0.104v0.85c0,0.031,0.007,0.061,0.023,0.087
		c0.02,0.03,0.09,0.104,0.123,0.124c0.025,0.016,0.064,0.028,0.093,0.028h0.241c0.029,0,0.067-0.012,0.092-0.028
		c0.033-0.02,0.103-0.094,0.123-0.124C52.155,9.208,52.16,9.178,52.16,9.147 M50.609,9.026L50.814,8.4h0.023l0.207,0.626H50.609z
		 M51.158,9.377h0.111l-0.361-1.08h-0.162l-0.362,1.08h0.11l0.082-0.25h0.501L51.158,9.377z M50.168,9.237h-0.14v0.14h0.14V9.237z
		 M49.761,9.377v-1.08h-0.147l-0.296,0.632l-0.293-0.632h-0.149v1.08h0.1V8.41l0.306,0.679h0.07L49.66,8.41v0.968H49.761z
		 M48.501,9.145c0,0.009-0.002,0.016-0.005,0.023c-0.024,0.041-0.085,0.099-0.114,0.113c-0.005,0.004-0.014,0.006-0.023,0.006
		h-0.268c-0.009,0-0.018-0.002-0.024-0.006c-0.029-0.014-0.088-0.072-0.111-0.113c-0.004-0.007-0.008-0.014-0.008-0.023V8.538
		c0-0.009,0.004-0.02,0.008-0.027c0.023-0.042,0.082-0.099,0.111-0.114c0.006-0.003,0.015-0.005,0.024-0.005h0.268
		c0.009,0,0.018,0.002,0.023,0.005c0.029,0.015,0.09,0.072,0.114,0.114c0.003,0.007,0.005,0.018,0.005,0.027V9.145z M48.605,9.146
		V8.533c0-0.031-0.007-0.063-0.023-0.088c-0.02-0.031-0.09-0.106-0.122-0.126c-0.026-0.016-0.065-0.029-0.094-0.029h-0.284
		c-0.029,0-0.067,0.013-0.092,0.029c-0.033,0.02-0.105,0.095-0.124,0.126c-0.017,0.025-0.022,0.057-0.022,0.088v0.612
		c0,0.031,0.005,0.063,0.022,0.089c0.019,0.03,0.091,0.104,0.124,0.124c0.025,0.016,0.063,0.028,0.092,0.028h0.284
		c0.029,0,0.068-0.012,0.094-0.028c0.032-0.02,0.102-0.094,0.122-0.124C48.599,9.208,48.605,9.176,48.605,9.146 M47.626,9.174
		l-0.104-0.029c-0.025,0.049-0.083,0.116-0.121,0.135c-0.005,0.004-0.016,0.006-0.025,0.006h-0.225
		c-0.009,0-0.018-0.002-0.023-0.006c-0.029-0.014-0.09-0.072-0.114-0.113c-0.003-0.008-0.005-0.015-0.005-0.024v-0.61
		c0-0.009,0.002-0.018,0.005-0.025c0.024-0.041,0.085-0.099,0.114-0.114c0.005-0.003,0.014-0.005,0.023-0.005h0.225
		c0.009,0,0.02,0.002,0.025,0.005c0.038,0.02,0.099,0.087,0.121,0.138l0.104-0.031c-0.011-0.025-0.029-0.052-0.041-0.071
		c-0.025-0.034-0.074-0.089-0.112-0.113c-0.025-0.016-0.063-0.029-0.092-0.029h-0.239c-0.029,0-0.067,0.013-0.092,0.029
		c-0.032,0.02-0.102,0.095-0.122,0.126C46.913,8.468,46.904,8.5,46.904,8.53v0.617c0,0.031,0.008,0.061,0.024,0.086
		c0.02,0.031,0.09,0.105,0.122,0.125c0.025,0.016,0.065,0.028,0.094,0.028h0.237c0.029,0,0.067-0.012,0.092-0.028
		c0.038-0.024,0.087-0.079,0.112-0.114C47.597,9.227,47.615,9.199,47.626,9.174 M46.641,9.237H46.5v0.14h0.14V9.237z M46.233,9.377
		v-1.08h-0.101v0.931l-0.466-0.931h-0.138v1.08h0.1V8.457l0.47,0.921H46.233z M45.339,8.297h-0.11l-0.301,0.969h-0.025l-0.302-0.969
		h-0.11l0.344,1.08h0.162L45.339,8.297z M44.219,9.152c0,0.011-0.002,0.022-0.005,0.029c-0.017,0.031-0.056,0.072-0.085,0.089
		c-0.009,0.005-0.02,0.007-0.031,0.007h-0.38V8.882h0.382c0.011,0,0.022,0.002,0.029,0.006c0.029,0.016,0.068,0.057,0.085,0.088
		c0.003,0.007,0.005,0.018,0.005,0.029V9.152z M44.219,8.657c0,0.011-0.002,0.024-0.005,0.031c-0.017,0.031-0.056,0.072-0.085,0.088
		c-0.007,0.004-0.018,0.007-0.029,0.007h-0.382V8.398h0.38c0.011,0,0.022,0.002,0.031,0.007c0.029,0.016,0.068,0.06,0.085,0.09
		c0.003,0.007,0.005,0.018,0.005,0.029V8.657z M44.323,9.156V9.003c0-0.034-0.007-0.069-0.025-0.096
		c-0.011-0.016-0.045-0.052-0.07-0.075c0.025-0.023,0.059-0.059,0.07-0.076c0.018-0.027,0.025-0.061,0.025-0.095V8.522
		c0-0.034-0.007-0.068-0.025-0.095c-0.012-0.02-0.066-0.076-0.09-0.094c-0.029-0.021-0.07-0.036-0.108-0.036h-0.486v1.08h0.486
		c0.038,0,0.079-0.012,0.108-0.034c0.024-0.018,0.078-0.075,0.09-0.095C44.316,9.221,44.323,9.19,44.323,9.156 M43.041,8.297h-0.113
		l-0.571,1.08h0.115L43.041,8.297z M41.199,9.026L41.404,8.4h0.023l0.207,0.626H41.199z M41.749,9.377h0.111l-0.362-1.08h-0.162
		l-0.361,1.08h0.109l0.083-0.25h0.501L41.749,9.377z M40.783,8.297h-0.104v1.08h0.104V8.297z M40.468,9.377v-0.1h-0.504v-0.98
		h-0.105v1.08H40.468z M39.024,9.026L39.229,8.4h0.024l0.207,0.626H39.024z M39.573,9.377h0.112l-0.362-1.08h-0.162l-0.362,1.08
		h0.11l0.083-0.25h0.5L39.573,9.377z M38.508,8.675c0,0.011,0,0.024-0.004,0.031c-0.016,0.031-0.059,0.07-0.088,0.086
		C38.407,8.798,38.396,8.8,38.385,8.8h-0.38V8.398h0.38c0.011,0,0.022,0,0.031,0.005c0.029,0.017,0.072,0.06,0.088,0.09
		c0.004,0.008,0.004,0.02,0.004,0.031V8.675z M38.612,8.679V8.521c0-0.034-0.009-0.066-0.027-0.093
		c-0.012-0.02-0.068-0.078-0.092-0.095c-0.029-0.022-0.068-0.035-0.106-0.035h-0.486v1.08h0.104V8.9h0.27l0.267,0.477h0.119
		L38.393,8.9c0.036,0,0.072-0.012,0.101-0.034c0.024-0.018,0.08-0.074,0.092-0.093C38.604,8.747,38.612,8.713,38.612,8.679
		 M37.701,8.398V8.297h-0.72v0.101h0.308v0.979h0.105V8.398H37.701z M36.814,9.146V9.023c0-0.076-0.045-0.148-0.115-0.168
		l-0.492-0.136c-0.032-0.009-0.056-0.045-0.056-0.082V8.524c0-0.009,0.004-0.016,0.008-0.023c0.023-0.042,0.082-0.09,0.111-0.105
		c0.006-0.003,0.015-0.005,0.024-0.005h0.254c0.009,0,0.018,0.002,0.023,0.005c0.031,0.016,0.086,0.07,0.11,0.114
		c0,0,0.005,0.007,0.012,0.023l0.105-0.031c-0.011-0.025-0.029-0.052-0.042-0.07c-0.025-0.034-0.073-0.09-0.111-0.113
		c-0.025-0.016-0.063-0.029-0.092-0.029h-0.268c-0.029,0-0.067,0.013-0.092,0.029c-0.033,0.02-0.105,0.095-0.124,0.126
		c-0.017,0.025-0.022,0.057-0.022,0.088v0.112c0,0.075,0.041,0.149,0.112,0.169l0.493,0.135c0.034,0.009,0.058,0.049,0.058,0.085
		v0.115c0,0.009-0.002,0.016-0.006,0.023c-0.023,0.042-0.084,0.094-0.113,0.108c-0.006,0.004-0.013,0.006-0.022,0.006h-0.286
		c-0.009,0-0.02-0.002-0.025-0.006c-0.031-0.016-0.085-0.07-0.11-0.113c0,0-0.006-0.005-0.013-0.022l-0.102,0.029
		c0.01,0.025,0.027,0.052,0.039,0.07c0.025,0.035,0.074,0.09,0.112,0.114c0.025,0.016,0.065,0.028,0.093,0.028h0.299
		c0.029,0,0.067-0.012,0.092-0.028c0.033-0.02,0.105-0.094,0.124-0.124C36.81,9.208,36.814,9.176,36.814,9.146 M35.8,9.147v-0.85
		h-0.104v0.847c0,0.009-0.004,0.016-0.007,0.023c-0.024,0.041-0.081,0.099-0.11,0.113c-0.005,0.004-0.014,0.006-0.023,0.006h-0.224
		c-0.009,0-0.018-0.002-0.023-0.006c-0.029-0.014-0.09-0.072-0.113-0.113c-0.004-0.007-0.008-0.014-0.008-0.023V8.297h-0.104v0.85
		c0,0.031,0.007,0.061,0.023,0.087c0.02,0.03,0.09,0.104,0.123,0.124c0.025,0.016,0.065,0.028,0.093,0.028h0.242
		c0.028,0,0.066-0.012,0.091-0.028c0.033-0.02,0.103-0.094,0.123-0.124C35.795,9.208,35.8,9.178,35.8,9.147 M34.25,9.026L34.455,8.4
		h0.024l0.207,0.626H34.25z M34.798,9.377h0.112l-0.362-1.08h-0.162l-0.362,1.08h0.11l0.083-0.25h0.5L34.798,9.377z M33.354,9.16
		c0,0.011-0.002,0.022-0.006,0.029c-0.016,0.031-0.057,0.073-0.086,0.089c-0.009,0.005-0.02,0.007-0.031,0.007h-0.221
		c-0.011,0-0.022-0.002-0.031-0.007c-0.028-0.016-0.07-0.058-0.086-0.089c-0.004-0.007-0.004-0.018-0.004-0.029V8.516
		c0-0.011,0-0.023,0.004-0.03c0.016-0.031,0.058-0.073,0.086-0.089c0.009-0.005,0.02-0.007,0.031-0.007h0.221
		c0.011,0,0.022,0.002,0.031,0.007c0.029,0.016,0.07,0.058,0.086,0.089c0.004,0.007,0.006,0.019,0.006,0.03V9.16z M33.458,9.164
		V8.512c0-0.035-0.009-0.067-0.027-0.094c-0.013-0.02-0.067-0.077-0.09-0.095c-0.029-0.022-0.07-0.035-0.108-0.035h-0.225
		c-0.038,0-0.077,0.013-0.106,0.035c-0.023,0.018-0.078,0.075-0.09,0.095c-0.018,0.027-0.027,0.059-0.027,0.094v0.651
		c0,0.034,0.009,0.065,0.027,0.092c0.012,0.02,0.067,0.077,0.09,0.095c0.029,0.022,0.068,0.035,0.106,0.035h0.225
		c0.038,0,0.079-0.013,0.108-0.035c0.023-0.018,0.077-0.075,0.09-0.095C33.448,9.229,33.458,9.197,33.458,9.164 M32.445,9.16
		c0,0.011-0.001,0.022-0.005,0.029c-0.016,0.031-0.058,0.073-0.086,0.089c-0.009,0.005-0.02,0.007-0.031,0.007h-0.221
		c-0.011,0-0.022-0.002-0.031-0.007c-0.029-0.016-0.07-0.058-0.086-0.089c-0.004-0.007-0.004-0.018-0.004-0.029V8.516
		c0-0.011,0-0.023,0.004-0.03c0.016-0.031,0.057-0.073,0.086-0.089c0.009-0.005,0.02-0.007,0.031-0.007h0.221
		c0.011,0,0.022,0.002,0.031,0.007c0.028,0.016,0.07,0.058,0.086,0.089c0.004,0.007,0.005,0.019,0.005,0.03V9.16z M32.55,9.164
		V8.512c0-0.035-0.009-0.067-0.027-0.094c-0.013-0.02-0.067-0.077-0.09-0.095c-0.029-0.022-0.07-0.035-0.108-0.035h-0.225
		c-0.038,0-0.077,0.013-0.106,0.035c-0.024,0.018-0.078,0.075-0.09,0.095c-0.018,0.027-0.027,0.059-0.027,0.094v0.651
		c0,0.034,0.009,0.065,0.027,0.092c0.012,0.02,0.066,0.077,0.09,0.095c0.029,0.022,0.068,0.035,0.106,0.035h0.225
		c0.038,0,0.079-0.013,0.108-0.035c0.023-0.018,0.077-0.075,0.09-0.095C32.542,9.229,32.55,9.197,32.55,9.164 M31.539,9.16
		c0,0.011-0.002,0.022-0.005,0.029c-0.016,0.031-0.058,0.073-0.087,0.089c-0.009,0.005-0.019,0.007-0.03,0.007h-0.222
		c-0.01,0-0.021-0.002-0.03-0.007c-0.029-0.016-0.07-0.058-0.086-0.089c-0.004-0.007-0.004-0.018-0.004-0.029V8.516
		c0-0.011,0-0.023,0.004-0.03c0.016-0.031,0.057-0.073,0.086-0.089c0.009-0.005,0.02-0.007,0.03-0.007h0.222
		c0.011,0,0.021,0.002,0.03,0.007c0.029,0.016,0.071,0.058,0.087,0.089c0.003,0.007,0.005,0.019,0.005,0.03V9.16z M31.644,9.164
		V8.512c0-0.035-0.009-0.067-0.027-0.094c-0.013-0.02-0.067-0.077-0.09-0.095c-0.029-0.022-0.071-0.035-0.108-0.035h-0.225
		c-0.038,0-0.078,0.013-0.106,0.035c-0.024,0.018-0.078,0.075-0.091,0.095c-0.018,0.027-0.027,0.059-0.027,0.094v0.651
		c0,0.034,0.009,0.065,0.027,0.092c0.013,0.02,0.067,0.077,0.091,0.095c0.028,0.022,0.068,0.035,0.106,0.035h0.225
		c0.037,0,0.079-0.013,0.108-0.035c0.023-0.018,0.077-0.075,0.09-0.095C31.634,9.229,31.644,9.197,31.644,9.164 M30.734,8.638V8.512
		c0-0.035-0.009-0.067-0.027-0.094c-0.013-0.02-0.067-0.077-0.09-0.095c-0.029-0.022-0.071-0.035-0.108-0.035h-0.204
		c-0.029,0-0.068,0.013-0.093,0.029c-0.038,0.024-0.087,0.079-0.112,0.113c-0.013,0.019-0.029,0.046-0.04,0.071l0.103,0.031
		c0.022-0.051,0.083-0.118,0.121-0.138c0.005-0.003,0.018-0.005,0.027-0.005h0.196c0.011,0,0.021,0.002,0.03,0.007
		c0.029,0.016,0.071,0.058,0.087,0.089c0.003,0.007,0.005,0.019,0.005,0.03v0.118c0,0.036-0.023,0.066-0.054,0.083l-0.378,0.202
		c-0.07,0.038-0.115,0.092-0.115,0.168v0.291h0.637v-0.1h-0.532V9.095c0-0.037,0.025-0.067,0.057-0.085l0.376-0.202
		C30.684,8.773,30.734,8.714,30.734,8.638 M29.521,8.297h-0.114l-0.275,0.513L28.86,8.297h-0.115l0.334,0.62v0.46h0.105v-0.46
		L29.521,8.297z M28.573,9.377v-0.1H28.06V8.888h0.487V8.788H28.06V8.398h0.514v-0.1h-0.619v1.079H28.573z M27.672,9.377v-1.08
		h-0.101v0.931l-0.466-0.931h-0.139v1.08h0.101V8.457l0.47,0.921H27.672z M26.592,8.542v0.593c0,0.009-0.002,0.016-0.006,0.023
		c-0.023,0.041-0.082,0.099-0.111,0.113c-0.006,0.004-0.015,0.006-0.024,0.006h-0.362V8.398h0.362c0.009,0,0.018,0.002,0.024,0.005
		c0.029,0.015,0.088,0.071,0.111,0.112C26.59,8.522,26.592,8.533,26.592,8.542 M26.696,9.138v-0.6c0-0.03-0.005-0.061-0.021-0.086
		c-0.02-0.031-0.09-0.108-0.123-0.128c-0.025-0.016-0.063-0.027-0.092-0.027h-0.475v1.08h0.475c0.029,0,0.067-0.012,0.092-0.028
		c0.033-0.02,0.103-0.094,0.123-0.124C26.691,9.199,26.696,9.169,26.696,9.138 M25.838,8.297h-0.114l-0.275,0.513l-0.272-0.513
		h-0.115l0.335,0.62v0.46h0.104v-0.46L25.838,8.297z M24.927,9.146V9.023c0-0.076-0.045-0.148-0.115-0.168L24.32,8.719
		c-0.032-0.009-0.056-0.045-0.056-0.082V8.524c0-0.009,0.004-0.016,0.008-0.023c0.023-0.042,0.082-0.09,0.111-0.105
		c0.006-0.003,0.015-0.005,0.024-0.005h0.254c0.009,0,0.018,0.002,0.023,0.005c0.031,0.016,0.086,0.07,0.11,0.114
		c0,0,0.005,0.007,0.012,0.023l0.105-0.031C24.9,8.478,24.882,8.45,24.87,8.433c-0.025-0.034-0.073-0.09-0.111-0.113
		c-0.025-0.016-0.063-0.029-0.092-0.029h-0.268c-0.029,0-0.067,0.013-0.092,0.029c-0.033,0.02-0.105,0.095-0.125,0.126
		C24.166,8.47,24.16,8.502,24.16,8.533v0.112c0,0.075,0.041,0.149,0.112,0.169l0.493,0.135c0.034,0.009,0.058,0.049,0.058,0.085
		v0.115c0,0.009-0.002,0.016-0.006,0.023c-0.023,0.042-0.084,0.094-0.113,0.108c-0.006,0.004-0.013,0.006-0.022,0.006h-0.286
		c-0.009,0-0.02-0.002-0.025-0.006c-0.031-0.016-0.085-0.07-0.11-0.113c0,0-0.006-0.005-0.013-0.022l-0.103,0.029
		c0.011,0.025,0.027,0.052,0.04,0.07c0.025,0.035,0.074,0.09,0.112,0.114c0.025,0.016,0.065,0.028,0.093,0.028h0.299
		c0.029,0,0.067-0.012,0.092-0.028c0.033-0.02,0.105-0.094,0.124-0.124C24.922,9.208,24.927,9.176,24.927,9.146 M23.607,8.297
		h-0.113l-0.571,1.08h0.116L23.607,8.297z M22.402,8.398V8.297h-0.721v0.101h0.308v0.979h0.105V8.398H22.402z M21.479,9.377v-0.1
		h-0.515V8.888h0.488V8.788h-0.488V8.398h0.515v-0.1h-0.619v1.079H21.479z M20.583,9.377v-0.1h-0.515V8.888h0.488V8.788h-0.488
		V8.398h0.515v-0.1h-0.62v1.079H20.583z M19.578,8.675c0,0.011,0,0.024-0.003,0.031c-0.016,0.031-0.06,0.07-0.088,0.086
		C19.478,8.798,19.466,8.8,19.456,8.8h-0.38V8.398h0.38c0.011,0,0.022,0,0.031,0.005c0.028,0.017,0.072,0.06,0.088,0.09
		c0.003,0.008,0.003,0.02,0.003,0.031V8.675z M19.683,8.679V8.521c0-0.034-0.009-0.066-0.027-0.093
		c-0.013-0.02-0.069-0.078-0.092-0.095c-0.029-0.022-0.068-0.035-0.106-0.035h-0.486v1.08h0.104V8.9h0.27l0.267,0.477h0.118
		L19.462,8.9c0.036,0,0.072-0.012,0.101-0.034c0.023-0.018,0.079-0.074,0.092-0.093C19.673,8.747,19.683,8.713,19.683,8.679
		 M18.771,8.398V8.297h-0.72v0.101h0.308v0.979h0.104V8.398H18.771z M17.884,9.146V9.023c0-0.076-0.045-0.148-0.115-0.168
		l-0.492-0.136c-0.033-0.009-0.056-0.045-0.056-0.082V8.524c0-0.009,0.004-0.016,0.007-0.023c0.024-0.042,0.083-0.09,0.112-0.105
		c0.005-0.003,0.014-0.005,0.023-0.005h0.254c0.009,0,0.018,0.002,0.024,0.005c0.03,0.016,0.086,0.07,0.11,0.114
		c0,0,0.005,0.007,0.012,0.023l0.105-0.031c-0.011-0.025-0.029-0.052-0.042-0.07c-0.025-0.034-0.074-0.09-0.112-0.113
		c-0.025-0.016-0.063-0.029-0.091-0.029h-0.269c-0.028,0-0.066,0.013-0.092,0.029c-0.032,0.02-0.104,0.095-0.124,0.126
		c-0.016,0.025-0.021,0.057-0.021,0.088v0.112c0,0.075,0.041,0.149,0.111,0.169l0.494,0.135c0.034,0.009,0.057,0.049,0.057,0.085
		v0.115c0,0.009-0.001,0.016-0.005,0.023c-0.023,0.042-0.085,0.094-0.114,0.108c-0.005,0.004-0.012,0.006-0.021,0.006h-0.286
		c-0.009,0-0.02-0.002-0.026-0.006c-0.03-0.016-0.084-0.07-0.11-0.113c0,0-0.005-0.005-0.012-0.022l-0.103,0.029
		c0.011,0.025,0.027,0.052,0.04,0.07c0.025,0.035,0.074,0.09,0.111,0.114c0.026,0.016,0.065,0.028,0.094,0.028h0.299
		c0.029,0,0.067-0.012,0.092-0.028c0.032-0.02,0.104-0.094,0.124-0.124C17.878,9.208,17.884,9.176,17.884,9.146 M16.528,8.398V8.297
		h-0.72v0.101h0.308v0.979h0.104V8.398H16.528z M15.683,8.398V8.297h-0.72v0.101h0.308v0.979h0.104V8.398H15.683z M14.751,8.297
		h-0.104v1.08h0.104V8.297z M14.314,8.675c0,0.011,0,0.024-0.003,0.031c-0.016,0.031-0.06,0.07-0.088,0.086
		c-0.01,0.006-0.02,0.008-0.031,0.008h-0.38V8.398h0.38c0.011,0,0.021,0,0.031,0.005c0.028,0.017,0.072,0.06,0.088,0.09
		c0.003,0.008,0.003,0.02,0.003,0.031V8.675z M14.419,8.679V8.521c0-0.034-0.009-0.066-0.027-0.093
		c-0.013-0.02-0.069-0.078-0.092-0.095c-0.029-0.022-0.068-0.035-0.106-0.035h-0.487v1.08h0.105V8.9h0.382
		c0.038,0,0.077-0.012,0.106-0.034c0.023-0.018,0.079-0.074,0.092-0.093C14.41,8.747,14.419,8.713,14.419,8.679 M13.052,9.164v-0.21
		c0-0.034-0.009-0.067-0.027-0.094c-0.012-0.02-0.066-0.074-0.09-0.092c-0.028-0.021-0.07-0.035-0.108-0.035H12.53V8.398h0.467
		V8.297h-0.571v0.535h0.4c0.01,0,0.023,0.002,0.032,0.007c0.029,0.016,0.068,0.056,0.085,0.087c0.003,0.007,0.005,0.02,0.005,0.03
		v0.206c0,0.01-0.002,0.021-0.005,0.028c-0.017,0.031-0.056,0.072-0.085,0.089c-0.009,0.005-0.022,0.007-0.032,0.007h-0.202
		c-0.009,0-0.022-0.002-0.027-0.006c-0.038-0.019-0.095-0.086-0.121-0.135l-0.104,0.029c0.011,0.025,0.029,0.054,0.041,0.072
		c0.026,0.034,0.074,0.088,0.112,0.112c0.025,0.016,0.065,0.028,0.094,0.028h0.208c0.038,0,0.08-0.012,0.108-0.034
		c0.024-0.018,0.078-0.075,0.09-0.095C13.043,9.23,13.052,9.198,13.052,9.164 M12.146,9.164v-0.21c0-0.034-0.009-0.067-0.027-0.094
		c-0.012-0.02-0.066-0.074-0.09-0.092C12,8.747,11.958,8.732,11.92,8.732h-0.297V8.398h0.466V8.297h-0.57v0.535h0.399
		c0.011,0,0.024,0.002,0.033,0.007c0.029,0.016,0.068,0.056,0.084,0.087c0.004,0.007,0.006,0.02,0.006,0.03v0.206
		c0,0.01-0.002,0.021-0.006,0.028c-0.016,0.031-0.055,0.072-0.084,0.089c-0.009,0.005-0.022,0.007-0.033,0.007h-0.201
		c-0.009,0-0.022-0.002-0.027-0.006c-0.038-0.019-0.096-0.086-0.121-0.135l-0.104,0.029c0.011,0.025,0.029,0.054,0.041,0.072
		c0.025,0.034,0.074,0.088,0.112,0.112c0.025,0.016,0.065,0.028,0.093,0.028h0.209c0.038,0,0.079-0.012,0.108-0.034
		c0.024-0.018,0.078-0.075,0.09-0.095C12.136,9.23,12.146,9.198,12.146,9.164 M11.231,8.638V8.512c0-0.035-0.009-0.067-0.027-0.094
		c-0.013-0.02-0.067-0.077-0.09-0.095c-0.029-0.022-0.07-0.035-0.108-0.035h-0.203c-0.029,0-0.069,0.013-0.094,0.029
		c-0.038,0.024-0.086,0.079-0.112,0.113c-0.012,0.019-0.028,0.046-0.039,0.071l0.102,0.031c0.022-0.051,0.083-0.118,0.121-0.138
		c0.005-0.003,0.018-0.005,0.027-0.005h0.196c0.011,0,0.022,0.002,0.031,0.007c0.029,0.016,0.07,0.058,0.086,0.089
		c0.004,0.007,0.006,0.019,0.006,0.03v0.118c0,0.036-0.024,0.066-0.054,0.083l-0.378,0.202C10.625,8.957,10.58,9.01,10.58,9.086
		v0.291h0.638v-0.1h-0.533V9.095c0-0.037,0.025-0.067,0.057-0.085l0.377-0.202C11.182,8.773,11.231,8.714,11.231,8.638"/>
	<rect x="149.753" y="2.835" clip-path="url(#SVGID_2_)" fill="#FFFFFF" width="133.938" height="63.142"/>
	
		<rect x="149.753" y="2.835" clip-path="url(#SVGID_2_)" fill="none" stroke="#000000" stroke-width="0.225" width="133.938" height="63.142"/>
	<path clip-path="url(#SVGID_2_)" d="M165.574,16.106h77.359v34.759h-77.358L165.574,16.106z M251.102,7.938h-93.695v51.095h93.695
		V7.938z"/>
	<rect x="2.835" y="155.081" clip-path="url(#SVGID_2_)" fill="#FFFFFF" width="133.937" height="63.142"/>
	
		<rect x="2.835" y="155.081" clip-path="url(#SVGID_2_)" fill="none" stroke="#000000" stroke-width="0.225" width="133.937" height="63.142"/>
	<path clip-path="url(#SVGID_2_)" d="M35.407,196.445H15.229v13.389h20.178V196.445z M40.149,214.576H10.487v-54.393h0.001h29.661
		h36.834v9.065h24.936v13.598v13.599H76.983H40.149V214.576z"/>
	<rect x="149.753" y="155.081" clip-path="url(#SVGID_2_)" fill="#FFFFFF" width="133.938" height="63.142"/>
	
		<rect x="149.753" y="155.081" clip-path="url(#SVGID_2_)" fill="none" stroke="#000000" stroke-width="0.225" width="133.938" height="63.142"/>
	<path clip-path="url(#SVGID_2_)" d="M217.854,196.445h-51.382h-9.065v-36.262h66.496v18.131h27.199v18.131h-27.199H217.854z
		 M166.472,214.576c-5.008,0-9.065-4.059-9.065-9.064c0-5.008,4.058-9.066,9.065-9.066c5.007,0,9.064,4.059,9.064,9.066
		C175.536,210.517,171.479,214.576,166.472,214.576"/>
	<rect x="2.835" y="78.958" clip-path="url(#SVGID_2_)" fill="#FFFFFF" width="133.937" height="63.142"/>
	
		<rect x="2.835" y="78.958" clip-path="url(#SVGID_2_)" fill="none" stroke="#000000" stroke-width="0.225" width="133.937" height="63.142"/>
	<path clip-path="url(#SVGID_2_)" d="M76.924,114.717c5.644,0,10.219,4.575,10.219,10.219s-4.575,10.219-10.219,10.219
		s-10.219-4.575-10.219-10.219S71.28,114.717,76.924,114.717 M66.706,104.498V84.06h37.478l0.001,20.438H66.706z M47.966,114.717
		v20.438H10.488v-20.438V84.06h56.217v30.657H47.966z"/>
	<rect x="149.753" y="78.958" clip-path="url(#SVGID_2_)" fill="#FFFFFF" width="133.938" height="63.142"/>
	
		<rect x="149.753" y="78.958" clip-path="url(#SVGID_2_)" fill="none" stroke="#000000" stroke-width="0.225" width="133.938" height="63.142"/>
	<path clip-path="url(#SVGID_2_)" d="M164.698,88.971v3.903h-1.003L164.698,88.971z M160.841,92.874
		c0.124-0.246,0.194-0.522,0.194-0.815c0-0.516-0.218-0.983-0.566-1.314c0.349-0.331,0.566-0.799,0.566-1.316v-0.004l0.89,3.449
		H160.841z M158.407,92.874v-1.629h0.813c0.448,0.001,0.813,0.366,0.813,0.814c0,0.448-0.364,0.814-0.813,0.815H158.407z
		 M159.221,88.615c0.448,0.001,0.813,0.367,0.813,0.814c0,0.449-0.364,0.814-0.813,0.815h-0.814v-1.629H159.221z M163.756,88.615
		l-0.946,3.681l-0.949-3.681H163.756z M167.497,92.874h-1.798v-2.968L167.497,92.874z M167.885,91.583l-1.798-2.968h1.798V91.583z
		 M157.406,93.874h11.479v-6.26h-11.479V93.874z"/>
	<path clip-path="url(#SVGID_2_)" d="M206.966,85.271v-0.85h-0.104v0.846c0,0.009-0.004,0.016-0.007,0.024
		c-0.023,0.041-0.081,0.099-0.11,0.113c-0.005,0.004-0.014,0.005-0.022,0.005h-0.224c-0.01,0-0.019-0.001-0.023-0.005
		c-0.029-0.014-0.09-0.072-0.113-0.113c-0.004-0.008-0.008-0.015-0.008-0.024V84.42h-0.104v0.85c0,0.03,0.007,0.061,0.022,0.086
		c0.021,0.031,0.09,0.105,0.123,0.124c0.025,0.016,0.065,0.029,0.093,0.029h0.242c0.028,0,0.066-0.013,0.091-0.029
		c0.033-0.019,0.104-0.093,0.123-0.124C206.961,85.332,206.966,85.3,206.966,85.271 M205.415,85.149l0.204-0.627h0.024l0.207,0.627
		H205.415z M205.964,85.5h0.111l-0.361-1.08h-0.162l-0.362,1.08h0.11l0.083-0.25h0.5L205.964,85.5z M204.974,85.36h-0.14v0.14h0.14
		V85.36z M204.566,85.5v-1.08h-0.146l-0.296,0.632l-0.293-0.632h-0.149v1.08h0.1v-0.968l0.307,0.678h0.07l0.309-0.678V85.5H204.566z
		 M203.307,85.266c0,0.009-0.002,0.016-0.005,0.024c-0.024,0.041-0.085,0.099-0.114,0.113c-0.005,0.004-0.014,0.005-0.022,0.005
		h-0.269c-0.009,0-0.018-0.001-0.023-0.005c-0.028-0.014-0.089-0.072-0.111-0.113c-0.004-0.008-0.007-0.015-0.007-0.024v-0.607
		c0-0.009,0.003-0.019,0.007-0.027c0.022-0.041,0.083-0.099,0.111-0.113c0.006-0.004,0.015-0.005,0.023-0.005h0.269
		c0.009,0,0.018,0.001,0.022,0.005c0.029,0.014,0.09,0.072,0.114,0.113c0.003,0.008,0.005,0.018,0.005,0.027V85.266z
		 M203.411,85.268v-0.612c0-0.031-0.008-0.063-0.023-0.089c-0.021-0.03-0.09-0.106-0.122-0.125
		c-0.025-0.017-0.065-0.029-0.094-0.029h-0.284c-0.029,0-0.067,0.012-0.092,0.029c-0.032,0.019-0.104,0.095-0.124,0.125
		c-0.017,0.026-0.022,0.058-0.022,0.089v0.612c0,0.031,0.006,0.063,0.022,0.088c0.02,0.031,0.092,0.105,0.124,0.124
		c0.024,0.016,0.063,0.029,0.092,0.029h0.284c0.028,0,0.068-0.013,0.094-0.029c0.032-0.019,0.102-0.093,0.122-0.124
		C203.403,85.332,203.411,85.299,203.411,85.268 M202.432,85.297l-0.104-0.029c-0.024,0.048-0.083,0.115-0.12,0.135
		c-0.006,0.004-0.017,0.005-0.025,0.005h-0.225c-0.01,0-0.019-0.001-0.023-0.005c-0.029-0.014-0.09-0.072-0.114-0.114
		c-0.003-0.007-0.005-0.014-0.005-0.023v-0.61c0-0.009,0.002-0.018,0.005-0.025c0.024-0.042,0.085-0.099,0.114-0.114
		c0.005-0.003,0.014-0.005,0.023-0.005h0.225c0.009,0,0.02,0.002,0.025,0.005c0.037,0.02,0.099,0.087,0.12,0.137l0.104-0.03
		c-0.01-0.026-0.028-0.053-0.041-0.071c-0.025-0.034-0.074-0.09-0.112-0.113c-0.024-0.016-0.063-0.029-0.091-0.029h-0.24
		c-0.028,0-0.065,0.013-0.092,0.029c-0.032,0.02-0.102,0.095-0.122,0.126c-0.016,0.025-0.022,0.056-0.022,0.086v0.618
		c0,0.03,0.007,0.061,0.022,0.086c0.021,0.031,0.09,0.105,0.122,0.124c0.026,0.016,0.065,0.029,0.094,0.029h0.238
		c0.028,0,0.066-0.013,0.091-0.029c0.038-0.023,0.087-0.079,0.112-0.113C202.403,85.349,202.422,85.322,202.432,85.297
		 M201.445,85.36h-0.14v0.14h0.14V85.36z M201.039,85.5v-1.08h-0.102v0.931l-0.466-0.931h-0.138v1.08h0.1v-0.922l0.47,0.922H201.039
		z M200.145,84.42h-0.11l-0.301,0.969h-0.024l-0.303-0.969h-0.109l0.344,1.08h0.162L200.145,84.42z M199.024,85.275
		c0,0.011-0.002,0.022-0.005,0.029c-0.016,0.031-0.056,0.072-0.085,0.088c-0.009,0.006-0.02,0.007-0.03,0.007h-0.38v-0.394h0.381
		c0.012,0,0.022,0.002,0.029,0.005c0.029,0.017,0.069,0.058,0.085,0.089c0.003,0.007,0.005,0.018,0.005,0.028V85.275z
		 M199.024,84.78c0,0.011-0.002,0.023-0.005,0.031c-0.016,0.03-0.056,0.072-0.085,0.088c-0.007,0.003-0.018,0.007-0.029,0.007
		h-0.381v-0.385h0.38c0.011,0,0.021,0.001,0.03,0.007c0.029,0.016,0.069,0.059,0.085,0.09c0.003,0.007,0.005,0.018,0.005,0.029
		V84.78z M199.13,85.279v-0.153c0-0.035-0.008-0.069-0.026-0.096c-0.01-0.016-0.045-0.052-0.07-0.075
		c0.025-0.024,0.061-0.06,0.07-0.076c0.019-0.027,0.026-0.061,0.026-0.095v-0.139c0-0.034-0.008-0.068-0.026-0.095
		c-0.012-0.02-0.066-0.076-0.09-0.094c-0.028-0.022-0.07-0.036-0.108-0.036h-0.485v1.08h0.485c0.038,0,0.08-0.012,0.108-0.034
		c0.023-0.018,0.078-0.076,0.09-0.095C199.122,85.344,199.13,85.313,199.13,85.279 M197.846,84.42h-0.113l-0.571,1.08h0.115
		L197.846,84.42z M196.005,85.149l0.205-0.627h0.022l0.207,0.627H196.005z M196.554,85.5h0.111l-0.361-1.08h-0.162l-0.362,1.08h0.11
		l0.082-0.25h0.501L196.554,85.5z M195.589,84.42h-0.104v1.08h0.104V84.42z M195.273,85.5v-0.101h-0.504V84.42h-0.104v1.08H195.273z
		 M193.83,85.149l0.205-0.627h0.023l0.207,0.627H193.83z M194.379,85.5h0.111l-0.361-1.08h-0.162l-0.362,1.08h0.11l0.083-0.25h0.5
		L194.379,85.5z M193.313,84.798c0,0.011,0,0.023-0.004,0.031c-0.016,0.03-0.059,0.07-0.088,0.086
		c-0.009,0.006-0.021,0.007-0.031,0.007h-0.38v-0.401h0.38c0.011,0,0.022,0,0.031,0.005c0.029,0.016,0.072,0.06,0.088,0.09
		c0.004,0.007,0.004,0.02,0.004,0.031V84.798z M193.418,84.802v-0.159c0-0.034-0.01-0.066-0.027-0.093
		c-0.012-0.02-0.068-0.078-0.092-0.096c-0.028-0.021-0.068-0.034-0.106-0.034h-0.485v1.08h0.104v-0.477h0.271l0.266,0.477h0.119
		l-0.269-0.477c0.036,0,0.072-0.013,0.101-0.034c0.023-0.018,0.08-0.074,0.092-0.094C193.408,84.868,193.418,84.836,193.418,84.802
		 M192.508,84.521V84.42h-0.722v0.101h0.309V85.5h0.104v-0.979H192.508z M191.619,85.268v-0.122c0-0.076-0.045-0.148-0.114-0.168
		l-0.492-0.137c-0.032-0.009-0.055-0.045-0.055-0.081v-0.113c0-0.009,0.003-0.016,0.007-0.024c0.022-0.041,0.083-0.09,0.11-0.104
		c0.007-0.004,0.016-0.005,0.024-0.005h0.254c0.009,0,0.019,0.001,0.023,0.005c0.03,0.016,0.087,0.07,0.109,0.113
		c0,0,0.005,0.008,0.014,0.024l0.104-0.031c-0.011-0.025-0.029-0.052-0.041-0.07c-0.026-0.034-0.074-0.09-0.112-0.113
		c-0.024-0.017-0.063-0.029-0.092-0.029h-0.268c-0.029,0-0.067,0.012-0.092,0.029c-0.032,0.019-0.104,0.095-0.124,0.125
		c-0.018,0.026-0.022,0.058-0.022,0.089v0.111c0,0.076,0.042,0.15,0.112,0.17l0.493,0.135c0.033,0.009,0.058,0.048,0.058,0.084
		v0.116c0,0.009-0.002,0.016-0.006,0.023c-0.023,0.041-0.084,0.094-0.113,0.108c-0.005,0.004-0.013,0.005-0.021,0.005h-0.286
		c-0.009,0-0.021-0.001-0.025-0.005c-0.031-0.016-0.085-0.07-0.11-0.113c0,0-0.005-0.006-0.013-0.022l-0.102,0.029
		c0.01,0.025,0.026,0.052,0.039,0.07c0.025,0.034,0.073,0.09,0.111,0.113c0.025,0.016,0.065,0.029,0.095,0.029h0.299
		c0.027,0,0.065-0.013,0.091-0.029c0.033-0.019,0.104-0.093,0.125-0.124C191.614,85.332,191.619,85.299,191.619,85.268
		 M190.606,85.271v-0.85h-0.104v0.846c0,0.009-0.003,0.016-0.008,0.024c-0.022,0.041-0.08,0.099-0.109,0.113
		c-0.005,0.004-0.015,0.005-0.023,0.005h-0.223c-0.009,0-0.019-0.001-0.024-0.005c-0.028-0.014-0.09-0.072-0.112-0.113
		c-0.004-0.008-0.009-0.015-0.009-0.024V84.42h-0.104v0.85c0,0.03,0.007,0.061,0.022,0.086c0.021,0.031,0.091,0.105,0.123,0.124
		c0.025,0.016,0.065,0.029,0.095,0.029h0.24c0.029,0,0.066-0.013,0.093-0.029c0.031-0.019,0.102-0.093,0.122-0.124
		C190.601,85.332,190.606,85.3,190.606,85.271 M189.055,85.149l0.205-0.627h0.023l0.207,0.627H189.055z M189.604,85.5h0.112
		l-0.362-1.08h-0.162l-0.361,1.08h0.109l0.083-0.25h0.5L189.604,85.5z M188.158,85.282c0,0.011-0.002,0.022-0.006,0.029
		c-0.016,0.031-0.057,0.072-0.086,0.088c-0.009,0.006-0.02,0.008-0.031,0.008h-0.221c-0.011,0-0.021-0.002-0.031-0.008
		c-0.027-0.016-0.069-0.057-0.086-0.088c-0.004-0.007-0.004-0.018-0.004-0.029v-0.644c0-0.011,0-0.023,0.004-0.031
		c0.017-0.03,0.059-0.072,0.086-0.088c0.01-0.005,0.021-0.007,0.031-0.007h0.221c0.012,0,0.022,0.002,0.031,0.007
		c0.029,0.016,0.07,0.058,0.086,0.088c0.004,0.008,0.006,0.02,0.006,0.031V85.282z M188.263,85.286v-0.652
		c0-0.034-0.009-0.066-0.027-0.093c-0.012-0.02-0.066-0.078-0.09-0.096c-0.029-0.021-0.07-0.034-0.108-0.034h-0.225
		c-0.038,0-0.077,0.013-0.105,0.034c-0.023,0.018-0.077,0.076-0.091,0.096c-0.018,0.027-0.026,0.059-0.026,0.093v0.652
		c0,0.034,0.009,0.065,0.026,0.092c0.014,0.02,0.067,0.077,0.091,0.095c0.028,0.022,0.067,0.034,0.105,0.034h0.225
		c0.038,0,0.079-0.012,0.108-0.034c0.023-0.018,0.078-0.075,0.09-0.095C188.254,85.351,188.263,85.32,188.263,85.286
		 M187.251,85.282c0,0.011-0.001,0.022-0.006,0.029c-0.016,0.031-0.057,0.072-0.086,0.088c-0.009,0.006-0.02,0.008-0.03,0.008
		h-0.222c-0.011,0-0.021-0.002-0.03-0.008c-0.029-0.016-0.07-0.057-0.086-0.088c-0.005-0.007-0.005-0.018-0.005-0.029v-0.644
		c0-0.011,0-0.023,0.005-0.031c0.016-0.03,0.057-0.072,0.086-0.088c0.009-0.005,0.02-0.007,0.03-0.007h0.222
		c0.011,0,0.021,0.002,0.03,0.007c0.029,0.016,0.07,0.058,0.086,0.088c0.005,0.008,0.006,0.02,0.006,0.031V85.282z M187.355,85.286
		v-0.652c0-0.034-0.009-0.066-0.027-0.093c-0.013-0.02-0.066-0.078-0.09-0.096c-0.028-0.021-0.069-0.034-0.107-0.034h-0.226
		c-0.038,0-0.077,0.013-0.105,0.034c-0.024,0.018-0.078,0.076-0.09,0.096c-0.019,0.027-0.027,0.059-0.027,0.093v0.652
		c0,0.034,0.009,0.065,0.027,0.092c0.012,0.02,0.065,0.077,0.09,0.095c0.028,0.022,0.067,0.034,0.105,0.034h0.226
		c0.038,0,0.079-0.012,0.107-0.034c0.023-0.018,0.077-0.075,0.09-0.095C187.347,85.351,187.355,85.32,187.355,85.286
		 M186.344,85.282c0,0.011-0.002,0.022-0.005,0.029c-0.017,0.031-0.059,0.072-0.086,0.088c-0.01,0.006-0.021,0.008-0.031,0.008
		h-0.221c-0.012,0-0.022-0.002-0.031-0.008c-0.029-0.016-0.07-0.057-0.086-0.088c-0.004-0.007-0.004-0.018-0.004-0.029v-0.644
		c0-0.011,0-0.023,0.004-0.031c0.016-0.03,0.057-0.072,0.086-0.088c0.009-0.005,0.02-0.007,0.031-0.007h0.221
		c0.011,0,0.021,0.002,0.031,0.007c0.027,0.016,0.069,0.058,0.086,0.088c0.003,0.008,0.005,0.02,0.005,0.031V85.282z
		 M186.448,85.286v-0.652c0-0.034-0.009-0.066-0.026-0.093c-0.014-0.02-0.067-0.078-0.09-0.096c-0.029-0.021-0.07-0.034-0.108-0.034
		h-0.225c-0.038,0-0.078,0.013-0.106,0.034c-0.024,0.018-0.078,0.076-0.09,0.096c-0.019,0.027-0.027,0.059-0.027,0.093v0.652
		c0,0.034,0.009,0.065,0.027,0.092c0.012,0.02,0.065,0.077,0.09,0.095c0.028,0.022,0.068,0.034,0.106,0.034h0.225
		c0.038,0,0.079-0.012,0.108-0.034c0.022-0.018,0.076-0.075,0.09-0.095C186.439,85.351,186.448,85.32,186.448,85.286
		 M185.545,85.286V85.12c0-0.034-0.01-0.066-0.027-0.093c-0.011-0.017-0.045-0.053-0.07-0.076c0.025-0.023,0.06-0.059,0.07-0.076
		c0.018-0.027,0.027-0.059,0.027-0.094v-0.146c0-0.035-0.01-0.067-0.027-0.094c-0.013-0.02-0.067-0.078-0.09-0.096
		c-0.029-0.021-0.068-0.034-0.106-0.034h-0.211c-0.028,0-0.065,0.011-0.092,0.027c-0.037,0.023-0.086,0.081-0.111,0.115
		c-0.013,0.018-0.028,0.046-0.04,0.071l0.104,0.029c0.021-0.051,0.083-0.116,0.12-0.136c0.006-0.003,0.017-0.005,0.025-0.005h0.203
		c0.012,0,0.022,0,0.031,0.005c0.028,0.016,0.068,0.06,0.084,0.091c0.004,0.007,0.006,0.019,0.006,0.03v0.14
		c0,0.011-0.002,0.023-0.006,0.03c-0.016,0.031-0.056,0.071-0.084,0.087c-0.008,0.004-0.02,0.006-0.031,0.006h-0.214v0.1h0.216
		c0.012,0,0.021,0.004,0.029,0.008c0.028,0.016,0.068,0.055,0.084,0.086c0.004,0.007,0.006,0.018,0.006,0.029v0.16
		c0,0.011-0.002,0.022-0.006,0.029c-0.016,0.031-0.056,0.072-0.084,0.088c-0.009,0.006-0.02,0.007-0.031,0.007h-0.203
		c-0.009,0-0.02-0.001-0.025-0.005c-0.037-0.02-0.096-0.086-0.12-0.135l-0.105,0.029c0.012,0.025,0.029,0.054,0.042,0.072
		c0.025,0.034,0.074,0.088,0.111,0.111c0.026,0.016,0.063,0.029,0.092,0.029h0.211c0.038,0,0.077-0.013,0.106-0.034
		c0.022-0.018,0.077-0.076,0.09-0.095C185.535,85.354,185.545,85.32,185.545,85.286 M184.196,85.5v-0.101h-0.515v-0.388h0.488V84.91
		h-0.488v-0.389h0.515V84.42h-0.619v1.08H184.196z M183.295,85.5v-1.08h-0.102v0.931l-0.466-0.931h-0.138v1.08h0.1v-0.922
		l0.47,0.922H183.295z M182.202,84.798c0,0.011,0,0.023-0.004,0.031c-0.016,0.03-0.059,0.07-0.088,0.086
		c-0.009,0.006-0.02,0.007-0.03,0.007h-0.381v-0.401h0.381c0.011,0,0.021,0,0.03,0.005c0.029,0.016,0.072,0.06,0.088,0.09
		c0.004,0.007,0.004,0.02,0.004,0.031V84.798z M182.307,84.802v-0.159c0-0.034-0.009-0.066-0.027-0.093
		c-0.013-0.02-0.067-0.078-0.092-0.096c-0.029-0.021-0.068-0.034-0.105-0.034h-0.486v1.08h0.104v-0.477h0.271l0.267,0.477h0.119
		l-0.269-0.477c0.036,0,0.071-0.013,0.101-0.034c0.024-0.018,0.079-0.074,0.092-0.094C182.298,84.868,182.307,84.836,182.307,84.802
		 M181.327,85.271v-0.85h-0.104v0.846c0,0.009-0.003,0.016-0.007,0.024c-0.023,0.041-0.081,0.099-0.11,0.113
		c-0.005,0.004-0.014,0.005-0.022,0.005h-0.224c-0.009,0-0.018-0.001-0.023-0.005c-0.029-0.014-0.091-0.072-0.113-0.113
		c-0.004-0.008-0.007-0.015-0.007-0.024V84.42h-0.105v0.85c0,0.03,0.007,0.061,0.024,0.086c0.019,0.031,0.09,0.105,0.122,0.124
		c0.024,0.016,0.064,0.029,0.094,0.029h0.241c0.028,0,0.066-0.013,0.092-0.029c0.032-0.019,0.102-0.093,0.122-0.124
		C181.321,85.332,181.327,85.3,181.327,85.271 M180.238,85.266c0,0.009-0.002,0.016-0.006,0.024
		c-0.022,0.041-0.084,0.099-0.113,0.113c-0.005,0.004-0.014,0.005-0.022,0.005h-0.27c-0.009,0-0.018-0.001-0.022-0.005
		c-0.029-0.014-0.088-0.072-0.112-0.113c-0.003-0.008-0.007-0.015-0.007-0.024v-0.607c0-0.009,0.004-0.019,0.007-0.027
		c0.024-0.041,0.083-0.099,0.112-0.113c0.005-0.004,0.014-0.005,0.022-0.005h0.27c0.009,0,0.018,0.001,0.022,0.005
		c0.029,0.014,0.091,0.072,0.113,0.113c0.004,0.008,0.006,0.018,0.006,0.027V85.266z M180.343,85.268v-0.612
		c0-0.031-0.007-0.063-0.023-0.089c-0.02-0.03-0.09-0.106-0.123-0.125c-0.024-0.017-0.063-0.029-0.093-0.029h-0.285
		c-0.027,0-0.065,0.012-0.091,0.029c-0.033,0.019-0.104,0.095-0.125,0.125c-0.016,0.026-0.021,0.058-0.021,0.089v0.612
		c0,0.031,0.005,0.063,0.021,0.088c0.021,0.031,0.092,0.105,0.125,0.124c0.025,0.016,0.063,0.029,0.091,0.029h0.285
		c0.029,0,0.068-0.013,0.093-0.029c0.033-0.019,0.104-0.093,0.123-0.124C180.336,85.332,180.343,85.299,180.343,85.268
		 M179.222,85.275c0,0.011-0.002,0.022-0.005,0.029c-0.018,0.031-0.057,0.072-0.085,0.088c-0.009,0.006-0.021,0.007-0.031,0.007
		h-0.38v-0.394h0.382c0.011,0,0.022,0.002,0.029,0.005c0.028,0.017,0.067,0.058,0.085,0.089c0.003,0.007,0.005,0.018,0.005,0.028
		V85.275z M179.222,84.78c0,0.011-0.002,0.023-0.005,0.031c-0.018,0.03-0.057,0.072-0.085,0.088
		c-0.007,0.003-0.019,0.007-0.029,0.007h-0.382v-0.385h0.38c0.011,0,0.022,0.001,0.031,0.007c0.028,0.016,0.067,0.059,0.085,0.09
		c0.003,0.007,0.005,0.018,0.005,0.029V84.78z M179.325,85.279v-0.153c0-0.035-0.007-0.069-0.024-0.096
		c-0.011-0.016-0.045-0.052-0.07-0.075c0.025-0.024,0.06-0.06,0.07-0.076c0.018-0.027,0.024-0.061,0.024-0.095v-0.139
		c0-0.034-0.007-0.068-0.024-0.095c-0.012-0.02-0.066-0.076-0.09-0.094c-0.029-0.022-0.07-0.036-0.108-0.036h-0.486v1.08h0.486
		c0.038,0,0.079-0.012,0.108-0.034c0.023-0.018,0.078-0.076,0.09-0.095C179.318,85.344,179.325,85.313,179.325,85.279 M178.405,85.5
		v-0.101h-0.504V84.42h-0.104v1.08H178.405z M177.521,85.5v-0.101h-0.515v-0.388h0.487V84.91h-0.487v-0.389h0.515V84.42h-0.62v1.08
		H177.521z M176.618,85.5v-1.08h-0.146l-0.296,0.632l-0.293-0.632h-0.149v1.08h0.101v-0.968l0.306,0.678h0.071l0.307-0.678V85.5
		H176.618z M175.157,84.42h-0.113l-0.57,1.08h0.115L175.157,84.42z M173.951,84.521V84.42h-0.72v0.101h0.308V85.5h0.104v-0.979
		H173.951z M173.027,85.5v-0.101h-0.515v-0.388h0.488V84.91h-0.488v-0.389h0.515V84.42h-0.619v1.08H173.027z M172.132,85.5v-0.101
		h-0.516v-0.388h0.488V84.91h-0.488v-0.389h0.516V84.42h-0.62v1.08H172.132z M171.127,84.798c0,0.011,0,0.023-0.003,0.031
		c-0.017,0.03-0.061,0.07-0.089,0.086c-0.009,0.006-0.02,0.007-0.03,0.007h-0.38v-0.401h0.38c0.011,0,0.021,0,0.03,0.005
		c0.028,0.016,0.072,0.06,0.089,0.09c0.003,0.007,0.003,0.02,0.003,0.031V84.798z M171.231,84.802v-0.159
		c0-0.034-0.009-0.066-0.026-0.093c-0.014-0.02-0.069-0.078-0.093-0.096c-0.028-0.021-0.067-0.034-0.105-0.034h-0.486v1.08h0.104
		v-0.477h0.27l0.267,0.477h0.118l-0.268-0.477c0.036,0,0.072-0.013,0.101-0.034c0.023-0.018,0.079-0.074,0.093-0.094
		C171.223,84.868,171.231,84.836,171.231,84.802 M170.32,84.521V84.42h-0.72v0.101h0.308V85.5h0.104v-0.979H170.32z M169.434,85.268
		v-0.122c0-0.076-0.045-0.148-0.115-0.168l-0.492-0.137c-0.031-0.009-0.056-0.045-0.056-0.081v-0.113
		c0-0.009,0.004-0.016,0.007-0.024c0.024-0.041,0.083-0.09,0.112-0.104c0.005-0.004,0.014-0.005,0.022-0.005h0.255
		c0.009,0,0.018,0.001,0.023,0.005c0.03,0.016,0.086,0.07,0.11,0.113c0,0,0.005,0.008,0.012,0.024l0.105-0.031
		c-0.012-0.025-0.029-0.052-0.042-0.07c-0.025-0.034-0.074-0.09-0.111-0.113c-0.026-0.017-0.063-0.029-0.092-0.029h-0.27
		c-0.027,0-0.065,0.012-0.091,0.029c-0.033,0.019-0.104,0.095-0.125,0.125c-0.016,0.026-0.021,0.058-0.021,0.089v0.111
		c0,0.076,0.041,0.15,0.11,0.17l0.494,0.135c0.034,0.009,0.057,0.048,0.057,0.084v0.116c0,0.009-0.001,0.016-0.005,0.023
		c-0.022,0.041-0.085,0.094-0.112,0.108c-0.006,0.004-0.014,0.005-0.022,0.005h-0.286c-0.009,0-0.02-0.001-0.025-0.005
		c-0.03-0.016-0.084-0.07-0.109-0.113c0,0-0.006-0.006-0.013-0.022l-0.104,0.029c0.011,0.025,0.027,0.052,0.04,0.07
		c0.025,0.034,0.074,0.09,0.112,0.113c0.024,0.016,0.063,0.029,0.093,0.029h0.299c0.029,0,0.067-0.013,0.092-0.029
		c0.032-0.019,0.104-0.093,0.124-0.124C169.428,85.332,169.434,85.299,169.434,85.268 M167.994,85.5v-1.08h-0.104v0.49h-0.51v-0.49
		h-0.104v1.08h0.104v-0.489h0.51V85.5H167.994z M167.077,84.521V84.42h-0.721v0.101h0.309V85.5h0.104v-0.979H167.077z M166.153,85.5
		v-0.101h-0.515v-0.388h0.488V84.91h-0.488v-0.389h0.515V84.42h-0.619v1.08H166.153z M165.166,85.275
		c0,0.011-0.002,0.022-0.006,0.029c-0.017,0.031-0.056,0.072-0.085,0.088c-0.009,0.006-0.02,0.007-0.03,0.007h-0.38v-0.394h0.382
		c0.011,0,0.021,0.002,0.028,0.005c0.029,0.017,0.068,0.058,0.085,0.089c0.004,0.007,0.006,0.018,0.006,0.028V85.275z
		 M165.166,84.78c0,0.011-0.002,0.023-0.006,0.031c-0.017,0.03-0.056,0.072-0.085,0.088c-0.007,0.003-0.018,0.007-0.028,0.007
		h-0.382v-0.385h0.38c0.011,0,0.021,0.001,0.03,0.007c0.029,0.016,0.068,0.059,0.085,0.09c0.004,0.007,0.006,0.018,0.006,0.029
		V84.78z M165.27,85.279v-0.153c0-0.035-0.007-0.069-0.025-0.096c-0.011-0.016-0.045-0.052-0.069-0.075
		c0.024-0.024,0.059-0.06,0.069-0.076c0.019-0.027,0.025-0.061,0.025-0.095v-0.139c0-0.034-0.007-0.068-0.025-0.095
		c-0.012-0.02-0.065-0.076-0.09-0.094c-0.028-0.022-0.069-0.036-0.107-0.036h-0.486v1.08h0.486c0.038,0,0.079-0.012,0.107-0.034
		c0.024-0.018,0.078-0.076,0.09-0.095C165.263,85.344,165.27,85.313,165.27,85.279 M163.726,85.149l0.205-0.627h0.024l0.206,0.627
		H163.726z M164.274,85.5h0.112l-0.362-1.08h-0.162l-0.361,1.08h0.109l0.083-0.25h0.5L164.274,85.5z M163.365,85.5v-0.101h-0.525
		l0.525-0.885V84.42h-0.654v0.101h0.528l-0.528,0.889v0.09H163.365z M162.445,84.42h-0.104v1.08h0.104V84.42z M162.131,85.5v-0.101
		h-0.504V84.42h-0.104v1.08H162.131z M161.244,85.5v-0.101h-0.514v-0.388h0.487V84.91h-0.487v-0.389h0.514V84.42h-0.618v1.08
		H161.244z M159.86,85.282c0,0.011-0.001,0.022-0.005,0.029c-0.016,0.031-0.058,0.072-0.086,0.088
		c-0.009,0.006-0.02,0.008-0.031,0.008h-0.221c-0.011,0-0.022-0.002-0.031-0.008c-0.028-0.016-0.069-0.057-0.086-0.088
		c-0.004-0.007-0.004-0.018-0.004-0.029v-0.644c0-0.011,0-0.023,0.004-0.031c0.017-0.03,0.058-0.072,0.086-0.088
		c0.009-0.005,0.021-0.007,0.031-0.007h0.221c0.012,0,0.022,0.002,0.031,0.007c0.028,0.016,0.07,0.058,0.086,0.088
		c0.004,0.008,0.005,0.02,0.005,0.031V85.282z M159.966,85.286v-0.652c0-0.034-0.009-0.066-0.027-0.093
		c-0.013-0.02-0.066-0.078-0.09-0.096c-0.029-0.021-0.07-0.034-0.108-0.034h-0.225c-0.038,0-0.077,0.013-0.106,0.034
		c-0.023,0.018-0.077,0.076-0.09,0.096c-0.018,0.027-0.026,0.059-0.026,0.093v0.652c0,0.034,0.009,0.065,0.026,0.092
		c0.013,0.02,0.066,0.077,0.09,0.095c0.029,0.022,0.068,0.034,0.106,0.034h0.225c0.038,0,0.079-0.012,0.108-0.034
		c0.023-0.018,0.077-0.075,0.09-0.095C159.957,85.351,159.966,85.32,159.966,85.286 M158.951,85.284
		c0,0.011-0.001,0.022-0.005,0.029c-0.016,0.031-0.056,0.072-0.084,0.088c-0.009,0.006-0.02,0.007-0.03,0.007h-0.222
		c-0.011,0-0.02-0.001-0.028-0.007c-0.029-0.016-0.07-0.057-0.088-0.088c-0.003-0.007-0.005-0.018-0.005-0.029v-0.219
		c0.002-0.006,0.008-0.015,0.01-0.018c0.024-0.044,0.097-0.092,0.128-0.108c0.005-0.004,0.016-0.006,0.024-0.006h0.181
		c0.011,0,0.021,0.002,0.03,0.007c0.028,0.017,0.068,0.058,0.084,0.089c0.004,0.007,0.005,0.018,0.005,0.028V85.284z
		 M159.057,85.286v-0.23c0-0.035-0.009-0.069-0.027-0.096c-0.013-0.02-0.066-0.073-0.09-0.091c-0.029-0.022-0.067-0.033-0.105-0.033
		h-0.188c-0.029,0-0.069,0.009-0.094,0.025c-0.021,0.013-0.041,0.036-0.063,0.06v-0.282c0-0.011,0.002-0.024,0.005-0.031
		c0.018-0.031,0.057-0.075,0.086-0.091c0.009-0.005,0.02-0.005,0.03-0.005h0.196c0.009,0,0.021,0.002,0.027,0.005
		c0.038,0.02,0.099,0.085,0.119,0.136l0.105-0.029c-0.011-0.025-0.029-0.053-0.042-0.071c-0.025-0.034-0.074-0.092-0.111-0.115
		c-0.025-0.016-0.063-0.027-0.092-0.027h-0.205c-0.038,0-0.078,0.013-0.105,0.034c-0.024,0.018-0.078,0.076-0.091,0.096
		c-0.018,0.027-0.026,0.059-0.026,0.094v0.651c0,0.034,0.009,0.067,0.026,0.094c0.013,0.019,0.066,0.077,0.091,0.095
		c0.027,0.021,0.067,0.034,0.105,0.034h0.226c0.038,0,0.076-0.013,0.105-0.034c0.023-0.018,0.077-0.076,0.09-0.095
		C159.048,85.354,159.057,85.32,159.057,85.286 M158.154,85.286V85.12c0-0.034-0.009-0.066-0.026-0.093
		c-0.012-0.017-0.045-0.053-0.07-0.076c0.025-0.023,0.059-0.059,0.07-0.076c0.018-0.027,0.026-0.059,0.026-0.094v-0.146
		c0-0.035-0.009-0.067-0.026-0.094c-0.014-0.02-0.067-0.078-0.091-0.096c-0.028-0.021-0.067-0.034-0.105-0.034h-0.211
		c-0.029,0-0.066,0.011-0.092,0.027c-0.037,0.023-0.086,0.081-0.111,0.115c-0.013,0.018-0.029,0.046-0.04,0.071l0.104,0.029
		c0.021-0.051,0.083-0.116,0.119-0.136c0.007-0.003,0.018-0.005,0.026-0.005h0.203c0.011,0,0.021,0,0.031,0.005
		c0.027,0.016,0.067,0.06,0.084,0.091c0.004,0.007,0.006,0.019,0.006,0.03v0.14c0,0.011-0.002,0.023-0.006,0.03
		c-0.017,0.031-0.057,0.071-0.084,0.087c-0.009,0.004-0.021,0.006-0.031,0.006h-0.214v0.1h0.216c0.011,0,0.021,0.004,0.029,0.008
		c0.027,0.016,0.067,0.055,0.084,0.086c0.004,0.007,0.006,0.018,0.006,0.029v0.16c0,0.011-0.002,0.022-0.006,0.029
		c-0.017,0.031-0.057,0.072-0.084,0.088c-0.01,0.006-0.021,0.007-0.031,0.007h-0.203c-0.009,0-0.02-0.001-0.026-0.005
		c-0.036-0.02-0.095-0.086-0.119-0.135l-0.105,0.029c0.011,0.025,0.029,0.054,0.042,0.072c0.025,0.034,0.074,0.088,0.111,0.111
		c0.025,0.016,0.063,0.029,0.092,0.029h0.211c0.038,0,0.077-0.013,0.105-0.034c0.023-0.018,0.077-0.076,0.091-0.095
		C158.146,85.354,158.154,85.32,158.154,85.286"/>
	<rect x="149.753" y="231.204" clip-path="url(#SVGID_2_)" fill="#FFFFFF" width="133.938" height="63.142"/>
	
		<rect x="149.753" y="231.204" clip-path="url(#SVGID_2_)" fill="none" stroke="#000000" stroke-width="0.225" width="133.938" height="63.142"/>
	<path clip-path="url(#SVGID_2_)" d="M192.849,268.035h-35.443v18.131h35.443V268.035z M251.102,236.306H210.57h-12.633h-40.532
		v27.195h40.532h12.633h40.531V236.306z"/>
	<rect x="2.835" y="231.204" clip-path="url(#SVGID_2_)" fill="#FFFFFF" width="133.937" height="63.142"/>
	
		<rect x="2.835" y="231.204" clip-path="url(#SVGID_2_)" fill="none" stroke="#000000" stroke-width="0.225" width="133.937" height="63.142"/>
	<path clip-path="url(#SVGID_2_)" d="M17.78,241.216v3.903h-1.003L17.78,241.216z M13.923,245.12
		c0.124-0.246,0.194-0.522,0.194-0.815c0-0.516-0.218-0.983-0.566-1.314c0.348-0.33,0.566-0.799,0.566-1.315v-0.004l0.89,3.449
		H13.923z M11.489,245.12v-1.63h0.814c0.448,0.001,0.813,0.367,0.813,0.814c0,0.449-0.364,0.814-0.812,0.815H11.489z M12.303,240.86
		c0.448,0.001,0.813,0.367,0.813,0.814c0,0.449-0.364,0.813-0.812,0.814h-0.815v-1.629H12.303z M16.838,240.86l-0.946,3.682
		l-0.95-3.682H16.838z M20.579,245.12h-1.798v-2.969L20.579,245.12z M20.967,243.829l-1.798-2.969h1.798V243.829z M10.488,246.12
		h11.48v-6.261h-11.48V246.12z"/>
	<path clip-path="url(#SVGID_2_)" d="M54.953,237.516v-0.851h-0.104v0.846c0,0.01-0.004,0.017-0.008,0.024
		c-0.023,0.041-0.081,0.099-0.109,0.113c-0.006,0.004-0.015,0.005-0.024,0.005h-0.223c-0.009,0-0.018-0.001-0.023-0.005
		c-0.029-0.015-0.09-0.072-0.114-0.113c-0.003-0.008-0.007-0.015-0.007-0.024v-0.846h-0.105v0.851c0,0.029,0.008,0.061,0.024,0.086
		c0.02,0.03,0.09,0.104,0.122,0.124c0.026,0.016,0.065,0.028,0.094,0.028h0.241c0.029,0,0.067-0.013,0.092-0.028
		c0.032-0.021,0.103-0.094,0.122-0.124C54.947,237.577,54.953,237.545,54.953,237.516 M53.401,237.395l0.205-0.627h0.023
		l0.207,0.627H53.401z M53.95,237.746h0.111l-0.362-1.08h-0.162l-0.361,1.08h0.109l0.083-0.25h0.501L53.95,237.746z M52.959,237.606
		h-0.14v0.14h0.14V237.606z M52.553,237.746v-1.08h-0.148l-0.295,0.632l-0.293-0.632h-0.15v1.08h0.101v-0.968l0.306,0.678h0.07
		l0.308-0.678v0.968H52.553z M51.293,237.511c0,0.01-0.002,0.017-0.006,0.024c-0.023,0.041-0.084,0.099-0.113,0.113
		c-0.005,0.004-0.014,0.005-0.023,0.005h-0.269c-0.009,0-0.018-0.001-0.023-0.005c-0.029-0.015-0.088-0.072-0.112-0.113
		c-0.003-0.008-0.007-0.015-0.007-0.024v-0.606c0-0.009,0.004-0.021,0.007-0.027c0.024-0.041,0.083-0.099,0.112-0.112
		c0.005-0.005,0.014-0.007,0.023-0.007h0.269c0.009,0,0.018,0.002,0.023,0.007c0.029,0.014,0.09,0.071,0.113,0.112
		c0.004,0.007,0.006,0.019,0.006,0.027V237.511z M51.397,237.514v-0.612c0-0.031-0.007-0.063-0.023-0.089
		c-0.02-0.03-0.09-0.106-0.123-0.125c-0.025-0.018-0.064-0.029-0.093-0.029h-0.285c-0.028,0-0.066,0.012-0.091,0.029
		c-0.033,0.019-0.105,0.095-0.125,0.125c-0.016,0.025-0.021,0.058-0.021,0.089v0.612c0,0.03,0.005,0.063,0.021,0.088
		c0.02,0.03,0.092,0.104,0.125,0.124c0.025,0.016,0.063,0.028,0.091,0.028h0.285c0.029,0,0.068-0.013,0.093-0.028
		c0.033-0.021,0.103-0.094,0.123-0.124C51.391,237.577,51.397,237.544,51.397,237.514 M50.418,237.542l-0.104-0.028
		c-0.026,0.048-0.083,0.114-0.121,0.135c-0.005,0.004-0.016,0.005-0.025,0.005h-0.225c-0.009,0-0.018-0.001-0.024-0.005
		c-0.028-0.015-0.09-0.072-0.113-0.114c-0.004-0.007-0.005-0.014-0.005-0.023v-0.609c0-0.009,0.001-0.019,0.005-0.025
		c0.023-0.042,0.085-0.1,0.113-0.113c0.006-0.005,0.015-0.006,0.024-0.006h0.225c0.009,0,0.02,0.001,0.025,0.006
		c0.038,0.02,0.099,0.087,0.121,0.137l0.104-0.031c-0.011-0.025-0.029-0.052-0.041-0.07c-0.026-0.033-0.074-0.09-0.112-0.112
		c-0.025-0.017-0.063-0.029-0.092-0.029h-0.239c-0.029,0-0.067,0.013-0.092,0.029c-0.032,0.02-0.103,0.095-0.122,0.126
		c-0.017,0.024-0.024,0.056-0.024,0.086v0.618c0,0.029,0.007,0.061,0.024,0.086c0.019,0.03,0.09,0.104,0.122,0.124
		c0.025,0.016,0.065,0.028,0.094,0.028h0.237c0.029,0,0.067-0.013,0.092-0.028c0.038-0.023,0.086-0.079,0.112-0.113
		C50.389,237.594,50.407,237.568,50.418,237.542 M49.432,237.606h-0.14v0.14h0.14V237.606z M49.025,237.746v-1.08h-0.101v0.932
		l-0.466-0.932h-0.139v1.08h0.101v-0.922l0.47,0.922H49.025z M48.13,236.666h-0.11l-0.3,0.969h-0.025l-0.303-0.969h-0.11l0.344,1.08
		h0.162L48.13,236.666z M47.011,237.521c0,0.011-0.002,0.021-0.006,0.028c-0.016,0.031-0.055,0.072-0.084,0.089
		c-0.009,0.006-0.02,0.007-0.031,0.007h-0.38v-0.395h0.382c0.011,0,0.022,0.002,0.029,0.005c0.029,0.017,0.068,0.059,0.084,0.089
		c0.004,0.008,0.006,0.019,0.006,0.028V237.521z M47.011,237.026c0,0.011-0.002,0.022-0.006,0.031
		c-0.016,0.029-0.055,0.071-0.084,0.088c-0.007,0.003-0.018,0.007-0.029,0.007H46.51v-0.385h0.38c0.011,0,0.022,0.001,0.031,0.007
		c0.029,0.016,0.068,0.059,0.084,0.09c0.004,0.007,0.006,0.018,0.006,0.029V237.026z M47.115,237.525v-0.153
		c0-0.035-0.007-0.069-0.025-0.096c-0.011-0.017-0.045-0.052-0.07-0.075c0.025-0.024,0.059-0.06,0.07-0.076
		c0.018-0.026,0.025-0.061,0.025-0.095v-0.139c0-0.034-0.007-0.069-0.025-0.097c-0.013-0.019-0.067-0.075-0.09-0.093
		c-0.029-0.021-0.07-0.036-0.108-0.036h-0.486v1.08h0.486c0.038,0,0.079-0.013,0.108-0.034c0.023-0.018,0.077-0.076,0.09-0.095
		C47.108,237.589,47.115,237.559,47.115,237.525 M45.833,236.666h-0.114l-0.57,1.08h0.115L45.833,236.666z M43.99,237.395
		l0.206-0.627h0.023l0.207,0.627H43.99z M44.54,237.746h0.112l-0.362-1.08h-0.162l-0.362,1.08h0.11l0.083-0.25h0.5L44.54,237.746z
		 M43.574,236.666H43.47v1.08h0.104V236.666z M43.259,237.746v-0.101h-0.504v-0.979h-0.104v1.08H43.259z M41.816,237.395
		l0.205-0.627h0.024l0.207,0.627H41.816z M42.365,237.746h0.112l-0.362-1.08h-0.162l-0.362,1.08h0.11l0.083-0.25h0.5L42.365,237.746
		z M41.299,237.043c0,0.012,0,0.023-0.003,0.031c-0.016,0.03-0.06,0.07-0.088,0.086c-0.009,0.005-0.02,0.007-0.031,0.007h-0.38v-0.4
		h0.38c0.011,0,0.022,0,0.031,0.005c0.028,0.016,0.072,0.059,0.088,0.09c0.003,0.007,0.003,0.02,0.003,0.031V237.043z
		 M41.404,237.047v-0.158c0-0.034-0.009-0.067-0.027-0.095c-0.013-0.019-0.069-0.077-0.092-0.095
		c-0.029-0.021-0.068-0.034-0.106-0.034h-0.486v1.08h0.104v-0.477h0.27l0.267,0.477h0.119l-0.269-0.477
		c0.036,0,0.072-0.014,0.101-0.034c0.023-0.019,0.079-0.074,0.092-0.094C41.396,237.114,41.404,237.082,41.404,237.047
		 M40.493,236.767v-0.102h-0.72v0.102h0.308v0.979h0.104v-0.979H40.493z M39.606,237.514v-0.122c0-0.076-0.045-0.148-0.115-0.168
		L39,237.086c-0.032-0.009-0.056-0.045-0.056-0.081v-0.112c0-0.01,0.004-0.018,0.007-0.024c0.024-0.041,0.083-0.09,0.112-0.104
		c0.005-0.005,0.014-0.007,0.023-0.007h0.254c0.009,0,0.018,0.002,0.024,0.007c0.03,0.016,0.086,0.069,0.11,0.112
		c0,0,0.005,0.007,0.012,0.024l0.105-0.031c-0.011-0.025-0.029-0.052-0.042-0.07c-0.025-0.033-0.074-0.09-0.111-0.112
		c-0.026-0.018-0.063-0.029-0.092-0.029h-0.269c-0.028,0-0.066,0.012-0.091,0.029c-0.033,0.019-0.105,0.095-0.125,0.125
		c-0.016,0.025-0.021,0.058-0.021,0.089v0.111c0,0.075,0.041,0.149,0.111,0.17l0.494,0.135c0.034,0.009,0.057,0.048,0.057,0.084
		v0.116c0,0.009-0.001,0.016-0.005,0.022c-0.023,0.041-0.085,0.094-0.113,0.108c-0.006,0.004-0.013,0.005-0.022,0.005h-0.286
		c-0.009,0-0.02-0.001-0.026-0.005c-0.03-0.017-0.084-0.07-0.109-0.113c0,0-0.006-0.006-0.013-0.021l-0.103,0.028
		c0.011,0.025,0.027,0.052,0.04,0.07c0.025,0.034,0.074,0.09,0.112,0.113c0.025,0.016,0.064,0.028,0.093,0.028h0.299
		c0.029,0,0.067-0.013,0.092-0.028c0.032-0.021,0.104-0.094,0.124-0.124C39.601,237.577,39.606,237.544,39.606,237.514
		 M38.592,237.516v-0.851h-0.104v0.846c0,0.01-0.004,0.017-0.007,0.024c-0.024,0.041-0.081,0.099-0.11,0.113
		c-0.006,0.004-0.015,0.005-0.024,0.005h-0.223c-0.009,0-0.018-0.001-0.023-0.005c-0.029-0.015-0.09-0.072-0.114-0.113
		c-0.003-0.008-0.007-0.015-0.007-0.024v-0.846h-0.104v0.851c0,0.029,0.007,0.061,0.023,0.086c0.02,0.03,0.09,0.104,0.122,0.124
		c0.026,0.016,0.065,0.028,0.094,0.028h0.241c0.029,0,0.067-0.013,0.092-0.028c0.033-0.021,0.103-0.094,0.123-0.124
		C38.587,237.577,38.592,237.545,38.592,237.516 M37.042,237.395l0.205-0.627h0.023l0.207,0.627H37.042z M37.59,237.746h0.111
		l-0.362-1.08h-0.162l-0.361,1.08h0.109l0.083-0.25h0.501L37.59,237.746z M35.734,237.528c0,0.011-0.002,0.021-0.005,0.029
		c-0.017,0.03-0.058,0.071-0.087,0.088c-0.009,0.006-0.02,0.008-0.03,0.008h-0.222c-0.011,0-0.021-0.002-0.03-0.008
		c-0.029-0.017-0.071-0.058-0.087-0.088c-0.003-0.008-0.003-0.019-0.003-0.029v-0.645c0-0.011,0-0.023,0.003-0.03
		c0.016-0.03,0.058-0.072,0.087-0.088c0.009-0.007,0.019-0.008,0.03-0.008h0.222c0.01,0,0.021,0.001,0.03,0.008
		c0.029,0.016,0.07,0.058,0.087,0.088c0.003,0.007,0.005,0.02,0.005,0.03V237.528z M35.838,237.532v-0.652
		c0-0.034-0.009-0.065-0.027-0.094c-0.012-0.019-0.066-0.077-0.09-0.095c-0.028-0.021-0.07-0.034-0.108-0.034h-0.225
		c-0.037,0-0.077,0.013-0.106,0.034c-0.023,0.018-0.077,0.076-0.09,0.095c-0.018,0.028-0.027,0.06-0.027,0.094v0.652
		c0,0.034,0.009,0.065,0.027,0.092c0.013,0.021,0.067,0.077,0.09,0.095c0.029,0.022,0.069,0.034,0.106,0.034h0.225
		c0.038,0,0.08-0.012,0.108-0.034c0.024-0.018,0.078-0.074,0.09-0.095C35.83,237.597,35.838,237.566,35.838,237.532 M34.828,237.528
		c0,0.011-0.002,0.021-0.006,0.029c-0.016,0.03-0.057,0.071-0.086,0.088c-0.009,0.006-0.02,0.008-0.031,0.008h-0.221
		c-0.011,0-0.022-0.002-0.031-0.008c-0.028-0.017-0.07-0.058-0.086-0.088c-0.003-0.008-0.003-0.019-0.003-0.029v-0.645
		c0-0.011,0-0.023,0.003-0.03c0.016-0.03,0.058-0.072,0.086-0.088c0.009-0.007,0.02-0.008,0.031-0.008h0.221
		c0.011,0,0.022,0.001,0.031,0.008c0.029,0.016,0.07,0.058,0.086,0.088c0.004,0.007,0.006,0.02,0.006,0.03V237.528z M34.932,237.532
		v-0.652c0-0.034-0.009-0.065-0.027-0.094c-0.012-0.019-0.066-0.077-0.09-0.095c-0.029-0.021-0.07-0.034-0.108-0.034h-0.225
		c-0.038,0-0.077,0.013-0.106,0.034c-0.023,0.018-0.077,0.076-0.09,0.095c-0.018,0.028-0.027,0.06-0.027,0.094v0.652
		c0,0.034,0.009,0.065,0.027,0.092c0.013,0.021,0.067,0.077,0.09,0.095c0.029,0.022,0.068,0.034,0.106,0.034h0.225
		c0.038,0,0.079-0.012,0.108-0.034c0.024-0.018,0.078-0.074,0.09-0.095C34.922,237.597,34.932,237.566,34.932,237.532
		 M33.92,237.528c0,0.011-0.002,0.021-0.006,0.029c-0.016,0.03-0.057,0.071-0.086,0.088c-0.009,0.006-0.02,0.008-0.031,0.008h-0.221
		c-0.011,0-0.022-0.002-0.031-0.008c-0.029-0.017-0.07-0.058-0.086-0.088c-0.004-0.008-0.004-0.019-0.004-0.029v-0.645
		c0-0.011,0-0.023,0.004-0.03c0.016-0.03,0.057-0.072,0.086-0.088c0.009-0.007,0.02-0.008,0.031-0.008h0.221
		c0.011,0,0.022,0.001,0.031,0.008c0.029,0.016,0.07,0.058,0.086,0.088c0.004,0.007,0.006,0.02,0.006,0.03V237.528z M34.024,237.532
		v-0.652c0-0.034-0.009-0.065-0.027-0.094c-0.013-0.019-0.067-0.077-0.09-0.095c-0.029-0.021-0.07-0.034-0.108-0.034h-0.225
		c-0.038,0-0.077,0.013-0.106,0.034c-0.023,0.018-0.078,0.076-0.09,0.095c-0.018,0.028-0.027,0.06-0.027,0.094v0.652
		c0,0.034,0.009,0.065,0.027,0.092c0.012,0.021,0.067,0.077,0.09,0.095c0.029,0.022,0.068,0.034,0.106,0.034h0.225
		c0.038,0,0.079-0.012,0.108-0.034c0.023-0.018,0.077-0.074,0.09-0.095C34.016,237.597,34.024,237.566,34.024,237.532
		 M32.553,237.392l0.387-0.616v0.616H32.553z M33.163,237.392h-0.117v-0.727h-0.153l-0.458,0.727v0.1h0.506v0.254h0.105v-0.254
		h0.117V237.392z M31.772,237.746v-0.101h-0.515v-0.39h0.488v-0.1h-0.488v-0.389h0.515v-0.102h-0.619v1.08H31.772z M30.871,237.746
		v-1.08h-0.1v0.932l-0.467-0.932h-0.138v1.08h0.1v-0.922l0.47,0.922H30.871z M29.329,237.395l0.205-0.627h0.023l0.207,0.627H29.329z
		 M29.877,237.746h0.111l-0.361-1.08h-0.162l-0.362,1.08h0.11l0.082-0.25h0.501L29.877,237.746z M28.829,237.521
		c0,0.011-0.002,0.021-0.006,0.028c-0.016,0.031-0.056,0.072-0.085,0.089c-0.009,0.006-0.019,0.007-0.03,0.007h-0.38v-0.395h0.382
		c0.01,0,0.021,0.002,0.028,0.005c0.029,0.017,0.069,0.059,0.085,0.089c0.004,0.008,0.006,0.019,0.006,0.028V237.521z
		 M28.829,237.026c0,0.011-0.002,0.022-0.006,0.031c-0.016,0.029-0.056,0.071-0.085,0.088c-0.007,0.003-0.018,0.007-0.028,0.007
		h-0.382v-0.385h0.38c0.011,0,0.021,0.001,0.03,0.007c0.029,0.016,0.069,0.059,0.085,0.09c0.004,0.007,0.006,0.018,0.006,0.029
		V237.026z M28.933,237.525v-0.153c0-0.035-0.007-0.069-0.025-0.096c-0.011-0.017-0.045-0.052-0.07-0.075
		c0.025-0.024,0.059-0.06,0.07-0.076c0.018-0.026,0.025-0.061,0.025-0.095v-0.139c0-0.034-0.007-0.069-0.025-0.097
		c-0.013-0.019-0.067-0.075-0.09-0.093c-0.029-0.021-0.071-0.036-0.108-0.036h-0.487v1.08h0.487c0.037,0,0.079-0.013,0.108-0.034
		c0.023-0.018,0.077-0.076,0.09-0.095C28.925,237.589,28.933,237.559,28.933,237.525 M27.982,237.514v-0.122
		c0-0.076-0.045-0.148-0.116-0.168l-0.491-0.138c-0.033-0.009-0.056-0.045-0.056-0.081v-0.112c0-0.01,0.004-0.018,0.007-0.024
		c0.024-0.041,0.083-0.09,0.112-0.104c0.005-0.005,0.014-0.007,0.023-0.007h0.254c0.009,0,0.018,0.002,0.024,0.007
		c0.03,0.016,0.086,0.069,0.109,0.112c0,0,0.006,0.007,0.013,0.024l0.104-0.031c-0.01-0.025-0.028-0.052-0.041-0.07
		c-0.025-0.033-0.074-0.09-0.112-0.112c-0.025-0.018-0.063-0.029-0.091-0.029h-0.269c-0.029,0-0.066,0.012-0.092,0.029
		c-0.032,0.019-0.104,0.095-0.124,0.125c-0.016,0.025-0.022,0.058-0.022,0.089v0.111c0,0.075,0.042,0.149,0.112,0.17l0.494,0.135
		c0.034,0.009,0.057,0.048,0.057,0.084v0.116c0,0.009-0.002,0.016-0.005,0.022c-0.024,0.041-0.085,0.094-0.114,0.108
		c-0.005,0.004-0.012,0.005-0.021,0.005H27.45c-0.009,0-0.019-0.001-0.025-0.005c-0.03-0.017-0.084-0.07-0.11-0.113
		c0,0-0.005-0.006-0.012-0.021l-0.103,0.028c0.011,0.025,0.027,0.052,0.04,0.07c0.025,0.034,0.074,0.09,0.111,0.113
		c0.026,0.016,0.065,0.028,0.094,0.028h0.299c0.029,0,0.067-0.013,0.092-0.028c0.032-0.021,0.104-0.094,0.124-0.124
		C27.977,237.577,27.982,237.544,27.982,237.514 M26.953,236.666h-0.104v1.08h0.104V236.666z M26.462,237.043
		c0,0.012,0,0.023-0.003,0.031c-0.016,0.03-0.06,0.07-0.089,0.086c-0.009,0.005-0.019,0.007-0.03,0.007h-0.38v-0.4h0.38
		c0.011,0,0.021,0,0.03,0.005c0.029,0.016,0.073,0.059,0.089,0.09c0.003,0.007,0.003,0.02,0.003,0.031V237.043z M26.567,237.047
		v-0.158c0-0.034-0.009-0.067-0.027-0.095c-0.013-0.019-0.069-0.077-0.092-0.095c-0.029-0.021-0.069-0.034-0.106-0.034h-0.487v1.08
		h0.105v-0.477h0.27l0.267,0.477h0.118l-0.268-0.477c0.036,0,0.072-0.014,0.101-0.034c0.023-0.019,0.079-0.074,0.092-0.094
		C26.559,237.114,26.567,237.082,26.567,237.047 M25.487,237.521c0,0.011-0.002,0.021-0.006,0.028
		c-0.016,0.031-0.055,0.072-0.084,0.089c-0.009,0.006-0.02,0.007-0.031,0.007h-0.38v-0.395h0.382c0.011,0,0.022,0.002,0.029,0.005
		c0.029,0.017,0.068,0.059,0.084,0.089c0.004,0.008,0.006,0.019,0.006,0.028V237.521z M25.487,237.026
		c0,0.011-0.002,0.022-0.006,0.031c-0.016,0.029-0.055,0.071-0.084,0.088c-0.007,0.003-0.018,0.007-0.029,0.007h-0.382v-0.385h0.38
		c0.011,0,0.022,0.001,0.031,0.007c0.029,0.016,0.068,0.059,0.084,0.09c0.004,0.007,0.006,0.018,0.006,0.029V237.026z
		 M25.591,237.525v-0.153c0-0.035-0.007-0.069-0.025-0.096c-0.011-0.017-0.045-0.052-0.07-0.075c0.025-0.024,0.059-0.06,0.07-0.076
		c0.018-0.026,0.025-0.061,0.025-0.095v-0.139c0-0.034-0.007-0.069-0.025-0.097c-0.013-0.019-0.067-0.075-0.09-0.093
		c-0.029-0.021-0.07-0.036-0.108-0.036h-0.486v1.08h0.486c0.038,0,0.079-0.013,0.108-0.034c0.023-0.018,0.077-0.076,0.09-0.095
		C25.584,237.589,25.591,237.559,25.591,237.525 M24.309,236.666h-0.114l-0.57,1.08h0.115L24.309,236.666z M23.103,236.767v-0.102
		h-0.72v0.102h0.308v0.979h0.104v-0.979H23.103z M22.178,237.746v-0.101h-0.515v-0.39h0.488v-0.1h-0.488v-0.389h0.515v-0.102H21.56
		v1.08H22.178z M21.282,237.746v-0.101h-0.515v-0.39h0.488v-0.1h-0.488v-0.389h0.515v-0.102h-0.619v1.08H21.282z M20.278,237.043
		c0,0.012,0,0.023-0.004,0.031c-0.016,0.03-0.059,0.07-0.088,0.086c-0.009,0.005-0.02,0.007-0.031,0.007h-0.38v-0.4h0.38
		c0.011,0,0.022,0,0.031,0.005c0.029,0.016,0.072,0.059,0.088,0.09c0.004,0.007,0.004,0.02,0.004,0.031V237.043z M20.382,237.047
		v-0.158c0-0.034-0.009-0.067-0.027-0.095c-0.013-0.019-0.068-0.077-0.092-0.095c-0.029-0.021-0.068-0.034-0.106-0.034h-0.486v1.08
		h0.104v-0.477h0.27l0.267,0.477h0.119l-0.269-0.477c0.036,0,0.072-0.014,0.101-0.034c0.024-0.019,0.079-0.074,0.092-0.094
		C20.374,237.114,20.382,237.082,20.382,237.047 M19.471,236.767v-0.102h-0.72v0.102h0.308v0.979h0.104v-0.979H19.471z
		 M18.584,237.514v-0.122c0-0.076-0.045-0.148-0.115-0.168l-0.492-0.138c-0.032-0.009-0.056-0.045-0.056-0.081v-0.112
		c0-0.01,0.004-0.018,0.008-0.024c0.023-0.041,0.082-0.09,0.111-0.104c0.006-0.005,0.015-0.007,0.024-0.007h0.254
		c0.009,0,0.018,0.002,0.023,0.007c0.031,0.016,0.086,0.069,0.11,0.112c0,0,0.005,0.007,0.012,0.024l0.105-0.031
		c-0.011-0.025-0.029-0.052-0.042-0.07c-0.025-0.033-0.073-0.09-0.111-0.112c-0.025-0.018-0.063-0.029-0.092-0.029h-0.268
		c-0.029,0-0.067,0.012-0.092,0.029c-0.033,0.019-0.105,0.095-0.125,0.125c-0.016,0.025-0.021,0.058-0.021,0.089v0.111
		c0,0.075,0.041,0.149,0.112,0.17l0.493,0.135c0.034,0.009,0.058,0.048,0.058,0.084v0.116c0,0.009-0.002,0.016-0.006,0.022
		c-0.023,0.041-0.084,0.094-0.113,0.108c-0.006,0.004-0.013,0.005-0.022,0.005h-0.286c-0.009,0-0.02-0.001-0.025-0.005
		c-0.031-0.017-0.085-0.07-0.11-0.113c0,0-0.006-0.006-0.013-0.021l-0.103,0.028c0.011,0.025,0.027,0.052,0.04,0.07
		c0.025,0.034,0.074,0.09,0.112,0.113c0.025,0.016,0.065,0.028,0.093,0.028h0.299c0.029,0,0.067-0.013,0.092-0.028
		c0.033-0.021,0.105-0.094,0.124-0.124C18.58,237.577,18.584,237.544,18.584,237.514 M17.235,237.746l-0.496-0.54l0.495-0.54h-0.137
		l-0.447,0.492h-0.021v-0.492h-0.105v1.08h0.105v-0.489h0.021l0.449,0.489H17.235z M16.248,237.746v-0.101h-0.514v-0.39h0.487v-0.1
		h-0.487v-0.389h0.514v-0.102h-0.619v1.08H16.248z M15.352,237.746v-0.101h-0.515v-0.39h0.488v-0.1h-0.488v-0.389h0.515v-0.102
		h-0.619v1.08H15.352z M14.347,237.043c0,0.012,0,0.023-0.004,0.031c-0.016,0.03-0.059,0.07-0.088,0.086
		c-0.009,0.005-0.02,0.007-0.031,0.007h-0.38v-0.4h0.38c0.011,0,0.022,0,0.031,0.005c0.029,0.016,0.072,0.059,0.088,0.09
		c0.004,0.007,0.004,0.02,0.004,0.031V237.043z M14.451,237.047v-0.158c0-0.034-0.009-0.067-0.027-0.095
		c-0.012-0.019-0.068-0.077-0.092-0.095c-0.028-0.021-0.068-0.034-0.106-0.034H13.74v1.08h0.104v-0.477h0.27l0.267,0.477H14.5
		l-0.268-0.477c0.036,0,0.072-0.014,0.1-0.034c0.024-0.019,0.08-0.074,0.092-0.094C14.442,237.114,14.451,237.082,14.451,237.047
		 M13.513,237.542l-0.104-0.028c-0.025,0.048-0.083,0.114-0.121,0.135c-0.005,0.004-0.016,0.005-0.025,0.005h-0.225
		c-0.009,0-0.018-0.001-0.023-0.005c-0.029-0.015-0.09-0.072-0.114-0.114c-0.003-0.007-0.005-0.014-0.005-0.023v-0.609
		c0-0.009,0.002-0.019,0.005-0.025c0.024-0.042,0.085-0.1,0.114-0.113c0.005-0.005,0.014-0.006,0.023-0.006h0.225
		c0.009,0,0.02,0.001,0.025,0.006c0.038,0.02,0.099,0.087,0.121,0.137l0.104-0.031c-0.01-0.025-0.028-0.052-0.041-0.07
		c-0.025-0.033-0.074-0.09-0.112-0.112c-0.025-0.017-0.063-0.029-0.091-0.029h-0.24c-0.029,0-0.066,0.013-0.092,0.029
		c-0.032,0.02-0.102,0.095-0.122,0.126c-0.016,0.024-0.023,0.056-0.023,0.086v0.618c0,0.029,0.007,0.061,0.023,0.086
		c0.02,0.03,0.09,0.104,0.122,0.124c0.026,0.016,0.065,0.028,0.094,0.028h0.238c0.028,0,0.066-0.013,0.091-0.028
		c0.038-0.023,0.087-0.079,0.112-0.113C13.485,237.594,13.503,237.568,13.513,237.542 M12.138,237.006v-0.127
		c0-0.034-0.009-0.065-0.027-0.094c-0.012-0.019-0.066-0.077-0.09-0.095c-0.029-0.021-0.07-0.034-0.108-0.034H11.71
		c-0.029,0-0.069,0.013-0.094,0.029c-0.037,0.022-0.086,0.079-0.111,0.112c-0.013,0.019-0.029,0.045-0.04,0.07l0.103,0.031
		c0.021-0.05,0.082-0.117,0.12-0.137c0.006-0.005,0.018-0.006,0.027-0.006h0.196c0.011,0,0.022,0.001,0.031,0.008
		c0.029,0.016,0.07,0.058,0.086,0.088c0.004,0.007,0.006,0.02,0.006,0.03V237c0,0.036-0.024,0.067-0.054,0.083l-0.378,0.202
		c-0.07,0.038-0.115,0.092-0.115,0.168v0.292h0.637v-0.101h-0.533v-0.183c0-0.036,0.025-0.066,0.058-0.085l0.376-0.202
		C12.088,237.142,12.138,237.082,12.138,237.006 M11.213,237.746v-0.101H10.97v-0.979h-0.349v0.102h0.245v0.878h-0.261v0.101H11.213
		z"/>
</g>
</svg>
