<?xml version="1.0" encoding="utf-8"?>
<!-- Generator: Adobe Illustrator 18.1.1, SVG Export Plug-In . SVG Version: 6.00 Build 0)  -->
<svg version="1.1" id="Layer_1" xmlns="http://www.w3.org/2000/svg" xmlns:xlink="http://www.w3.org/1999/xlink" x="0px" y="0px"
	 viewBox="0 0 320 57.776" enable-background="new 0 0 320 57.776" xml:space="preserve">
<polyline fill="none" stroke="#000000" stroke-width="0.111" stroke-linejoin="bevel" stroke-miterlimit="1.414" points="
	49.008,10.435 35.427,25.818 49.008,41.2 "/>
<polyline fill="none" stroke="#000000" stroke-width="0.111" stroke-linejoin="bevel" stroke-miterlimit="1.414" points="
	21.846,10.435 35.427,25.818 21.846,41.2 "/>
<polyline fill="none" stroke="#000000" stroke-width="0.111" stroke-linejoin="bevel" stroke-miterlimit="1.414" points="
	78.156,10.481 66.099,25.771 78.156,41.2 "/>
<line fill="none" stroke="#000000" stroke-width="0.443" stroke-linejoin="round" stroke-miterlimit="1.414" x1="55.706" y1="41.2" x2="94.047" y2="41.2"/>
<line fill="none" stroke="#000000" stroke-width="0.443" stroke-linejoin="round" stroke-miterlimit="1.414" x1="14.917" y1="41.2" x2="57.785" y2="41.2"/>
<polyline fill="none" stroke="#000000" stroke-width="0.111" stroke-linejoin="bevel" stroke-miterlimit="1.414" points="
	154.839,10.296 164.124,25.771 154.839,41.2 "/>
<polyline fill="none" stroke="#000000" stroke-width="0.111" stroke-linejoin="bevel" stroke-miterlimit="1.414" points="
	170.314,10.296 164.124,25.771 170.314,41.2 "/>
<line fill="none" stroke="#000000" stroke-width="0.443" stroke-linejoin="round" stroke-miterlimit="1.414" x1="149.48" y1="41.2" x2="185.373" y2="41.2"/>
<polyline fill="none" stroke="#000000" stroke-width="0.111" stroke-linejoin="bevel" stroke-miterlimit="1.414" points="
	180.292,10.296 171.007,25.771 180.292,41.2 "/>
<polyline fill="none" stroke="#000000" stroke-width="0.111" stroke-linejoin="bevel" stroke-miterlimit="1.414" points="
	122.503,10.481 110.446,25.771 122.503,41.2 "/>
<line fill="none" stroke="#000000" stroke-width="0.443" stroke-linejoin="round" stroke-miterlimit="1.414" x1="105.226" y1="41.2" x2="138.393" y2="41.2"/>
<line fill="none" stroke="#000000" stroke-width="0.111" stroke-linejoin="bevel" stroke-miterlimit="1.414" x1="49.008" y1="10.435" x2="49.008" y2="41.2"/>
<line fill="none" stroke="#000000" stroke-width="0.111" stroke-linejoin="bevel" stroke-miterlimit="1.414" x1="49.008" y1="10.435" x2="21.846" y2="10.435"/>
<line fill="none" stroke="#000000" stroke-width="0.111" stroke-linejoin="bevel" stroke-miterlimit="1.414" x1="49.701" y1="9.788" x2="21.153" y2="9.788"/>
<line fill="none" stroke="#000000" stroke-width="0.111" stroke-linejoin="bevel" stroke-miterlimit="1.414" x1="21.153" y1="9.788" x2="21.153" y2="41.2"/>
<line fill="none" stroke="#000000" stroke-width="0.111" stroke-linejoin="bevel" stroke-miterlimit="1.414" x1="49.701" y1="9.788" x2="49.701" y2="41.2"/>
<line fill="none" stroke="#000000" stroke-width="0.111" stroke-linejoin="bevel" stroke-miterlimit="1.414" x1="66.1" y1="10.481" x2="66.1" y2="41.2"/>
<line fill="none" stroke="#000000" stroke-width="0.111" stroke-linejoin="bevel" stroke-miterlimit="1.414" x1="78.156" y1="10.481" x2="78.156" y2="41.2"/>
<line fill="none" stroke="#000000" stroke-width="0.111" stroke-linejoin="bevel" stroke-miterlimit="1.414" x1="66.1" y1="10.481" x2="66.1" y2="41.2"/>
<line fill="none" stroke="#000000" stroke-width="0.111" stroke-linejoin="bevel" stroke-miterlimit="1.414" x1="66.1" y1="10.481" x2="78.157" y2="10.481"/>
<line fill="none" stroke="#000000" stroke-width="0.111" stroke-linejoin="bevel" stroke-miterlimit="1.414" x1="65.453" y1="9.788" x2="78.803" y2="9.788"/>
<line fill="none" stroke="#000000" stroke-width="0.111" stroke-linejoin="bevel" stroke-miterlimit="1.414" x1="78.803" y1="9.788" x2="78.803" y2="41.2"/>
<line fill="none" stroke="#000000" stroke-width="0.111" stroke-linejoin="bevel" stroke-miterlimit="1.414" x1="65.453" y1="9.788" x2="65.453" y2="41.2"/>
<rect x="35.427" y="10.435" fill="none" stroke="#000000" stroke-width="0.111" stroke-linejoin="bevel" stroke-miterlimit="1.414" width="13.581" height="30.765"/>
<rect x="21.846" y="10.435" fill="none" stroke="#000000" stroke-width="0.111" stroke-linejoin="bevel" stroke-miterlimit="1.414" width="13.581" height="30.765"/>
<rect x="66.1" y="10.481" fill="none" stroke="#000000" stroke-width="0.111" stroke-linejoin="bevel" stroke-miterlimit="1.414" width="12.057" height="30.719"/>
<polyline fill="none" stroke="#000000" stroke-width="0.111" stroke-linejoin="bevel" stroke-miterlimit="1.414" points="
	66.1,10.481 66.1,10.481 66.1,41.2 66.1,10.481 "/>
<line fill="none" stroke="#000000" stroke-width="0.111" stroke-linejoin="bevel" stroke-miterlimit="1.414" x1="23.37" y1="49.792" x2="23.37" y2="49.792"/>
<line fill="none" stroke="#000000" stroke-width="0.111" stroke-linejoin="bevel" stroke-miterlimit="1.414" x1="23.37" y1="49.792" x2="23.37" y2="49.792"/>
<line fill="none" stroke="#000000" stroke-width="0.222" stroke-linejoin="round" stroke-miterlimit="1.414" x1="28.913" y1="49.792" x2="54.089" y2="49.792"/>
<line fill="none" stroke="#000000" stroke-width="0.222" stroke-linejoin="round" stroke-miterlimit="1.414" x1="21.061" y1="49.792" x2="28.913" y2="49.792"/>
<path fill="none" stroke="#000000" stroke-width="0.222" stroke-linejoin="round" stroke-miterlimit="1.414" d="M28.913,49.792
	c0-1.062-0.416-2.033-1.109-2.772c-0.739-0.739-1.755-1.155-2.817-1.155c-1.017,0-2.033,0.416-2.772,1.155s-1.155,1.71-1.155,2.772
	c0,1.016,0.416,2.033,1.155,2.772s1.755,1.154,2.772,1.154c1.062,0,2.078-0.415,2.817-1.154
	C28.497,51.825,28.913,50.808,28.913,49.792"/>
<line fill="none" stroke="#000000" stroke-width="0.111" stroke-linejoin="bevel" stroke-miterlimit="1.414" x1="67.717" y1="49.792" x2="67.717" y2="49.792"/>
<line fill="none" stroke="#000000" stroke-width="0.111" stroke-linejoin="bevel" stroke-miterlimit="1.414" x1="67.717" y1="49.792" x2="67.717" y2="49.792"/>
<line fill="none" stroke="#000000" stroke-width="0.222" stroke-linejoin="round" stroke-miterlimit="1.414" x1="73.306" y1="49.792" x2="98.436" y2="49.792"/>
<line fill="none" stroke="#000000" stroke-width="0.222" stroke-linejoin="round" stroke-miterlimit="1.414" x1="65.453" y1="49.792" x2="73.306" y2="49.792"/>
<path fill="none" stroke="#000000" stroke-width="0.222" stroke-linejoin="round" stroke-miterlimit="1.414" d="M73.306,49.792
	c0-1.062-0.416-2.033-1.155-2.772c-0.739-0.739-1.755-1.155-2.771-1.155c-1.063,0-2.033,0.416-2.772,1.155s-1.155,1.71-1.155,2.772
	c0,1.016,0.416,2.033,1.155,2.772s1.709,1.154,2.772,1.154c1.016,0,2.032-0.415,2.771-1.154
	C72.89,51.825,73.306,50.808,73.306,49.792"/>
<line fill="none" stroke="#000000" stroke-width="0.111" stroke-linejoin="bevel" stroke-miterlimit="1.414" x1="156.455" y1="49.792" x2="156.455" y2="49.792"/>
<line fill="none" stroke="#000000" stroke-width="0.111" stroke-linejoin="bevel" stroke-miterlimit="1.414" x1="156.455" y1="49.792" x2="156.455" y2="49.792"/>
<line fill="none" stroke="#000000" stroke-width="0.222" stroke-linejoin="round" stroke-miterlimit="1.414" x1="161.999" y1="49.792" x2="187.175" y2="49.792"/>
<line fill="none" stroke="#000000" stroke-width="0.222" stroke-linejoin="round" stroke-miterlimit="1.414" x1="154.146" y1="49.792" x2="161.999" y2="49.792"/>
<path fill="none" stroke="#000000" stroke-width="0.222" stroke-linejoin="round" stroke-miterlimit="1.414" d="M161.999,49.792
	c0-1.062-0.37-2.033-1.109-2.772c-0.739-0.739-1.755-1.155-2.817-1.155c-1.017,0-2.033,0.416-2.772,1.155
	c-0.739,0.739-1.155,1.71-1.155,2.772c0,1.016,0.416,2.033,1.155,2.772c0.739,0.739,1.755,1.154,2.772,1.154
	c1.062,0,2.078-0.415,2.817-1.154C161.629,51.825,161.999,50.808,161.999,49.792"/>
<path fill-rule="evenodd" clip-rule="evenodd" d="M66.793,27.434c0-0.046,0-0.046-0.046-0.046s-0.046,0-0.046,0.046
	c0,0,0,0.046,0.046,0.046S66.793,27.434,66.793,27.434"/>
<path fill="none" stroke="#000000" stroke-width="0.111" stroke-linejoin="bevel" stroke-miterlimit="1.414" d="M66.931,27.434
	c0,0.046-0.046,0.092-0.092,0.092c-0.047,0-0.093-0.046-0.093-0.092"/>
<path fill-rule="evenodd" clip-rule="evenodd" d="M66.977,27.434c0-0.046-0.046-0.046-0.046-0.046c-0.046,0-0.046,0-0.046,0.046
	c0,0,0,0.046,0.046,0.046L66.977,27.434"/>
<line fill="none" stroke="#000000" stroke-width="0.111" stroke-linejoin="bevel" stroke-miterlimit="1.414" x1="66.747" y1="27.157" x2="66.747" y2="27.434"/>
<path fill="none" stroke="#000000" stroke-width="0.111" stroke-linejoin="bevel" stroke-miterlimit="1.414" d="M66.931,27.157
	c0-0.046-0.046-0.092-0.092-0.092c-0.047,0-0.093,0.046-0.093,0.092"/>
<line fill="none" stroke="#000000" stroke-width="0.111" stroke-linejoin="bevel" stroke-miterlimit="1.414" x1="66.931" y1="27.434" x2="66.931" y2="27.157"/>
<path fill-rule="evenodd" clip-rule="evenodd" d="M66.931,27.988c0-0.046-0.046-0.046-0.046-0.046c-0.046,0-0.046,0-0.046,0.046
	c0,0.046,0,0.046,0.046,0.046C66.885,28.034,66.931,28.034,66.931,27.988"/>
<path fill="none" stroke="#000000" stroke-width="0.111" stroke-linejoin="bevel" stroke-miterlimit="1.414" d="M66.885,28.219
	c-0.092,0-0.139-0.046-0.139-0.092c0-0.093,0.047-0.139,0.139-0.139"/>
<path fill-rule="evenodd" clip-rule="evenodd" d="M66.931,28.219l-0.046-0.046c-0.046,0-0.046,0.046-0.046,0.046
	c0,0.046,0,0.092,0.046,0.092C66.885,28.311,66.931,28.265,66.931,28.219"/>
<line fill="none" stroke="#000000" stroke-width="0.111" stroke-linejoin="bevel" stroke-miterlimit="1.414" x1="67.994" y1="27.988" x2="66.885" y2="27.988"/>
<path fill="none" stroke="#000000" stroke-width="0.111" stroke-linejoin="bevel" stroke-miterlimit="1.414" d="M67.994,28.219
	c0.092,0,0.139-0.046,0.139-0.092c0-0.093-0.047-0.139-0.139-0.139"/>
<line fill="none" stroke="#000000" stroke-width="0.111" stroke-linejoin="bevel" stroke-miterlimit="1.414" x1="66.885" y1="28.219" x2="67.994" y2="28.219"/>
<rect x="66.377" y="26.649" fill="none" stroke="#000000" stroke-width="0.111" stroke-linejoin="bevel" stroke-miterlimit="1.414" width="2.125" height="2.125"/>
<line fill="none" stroke="#000000" stroke-width="0.111" stroke-linejoin="bevel" stroke-miterlimit="1.414" x1="164.124" y1="10.296" x2="164.124" y2="41.2"/>
<line fill="none" stroke="#000000" stroke-width="0.111" stroke-linejoin="bevel" stroke-miterlimit="1.414" x1="170.314" y1="10.296" x2="170.314" y2="41.2"/>
<line fill="none" stroke="#000000" stroke-width="0.111" stroke-linejoin="bevel" stroke-miterlimit="1.414" x1="154.839" y1="10.296" x2="154.839" y2="41.2"/>
<line fill="none" stroke="#000000" stroke-width="0.111" stroke-linejoin="bevel" stroke-miterlimit="1.414" x1="154.839" y1="10.296" x2="170.314" y2="10.296"/>
<line fill="none" stroke="#000000" stroke-width="0.111" stroke-linejoin="bevel" stroke-miterlimit="1.414" x1="180.938" y1="9.788" x2="154.145" y2="9.788"/>
<line fill="none" stroke="#000000" stroke-width="0.111" stroke-linejoin="bevel" stroke-miterlimit="1.414" x1="171.007" y1="10.296" x2="171.007" y2="41.2"/>
<line fill="none" stroke="#000000" stroke-width="0.111" stroke-linejoin="bevel" stroke-miterlimit="1.414" x1="154.146" y1="9.788" x2="154.146" y2="41.2"/>
<line fill="none" stroke="#000000" stroke-width="0.111" stroke-linejoin="bevel" stroke-miterlimit="1.414" x1="112.109" y1="49.792" x2="112.109" y2="49.792"/>
<line fill="none" stroke="#000000" stroke-width="0.111" stroke-linejoin="bevel" stroke-miterlimit="1.414" x1="112.109" y1="49.792" x2="112.109" y2="49.792"/>
<line fill="none" stroke="#000000" stroke-width="0.222" stroke-linejoin="round" stroke-miterlimit="1.414" x1="117.652" y1="49.792" x2="142.828" y2="49.792"/>
<line fill="none" stroke="#000000" stroke-width="0.222" stroke-linejoin="round" stroke-miterlimit="1.414" x1="109.799" y1="49.792" x2="117.652" y2="49.792"/>
<path fill="none" stroke="#000000" stroke-width="0.222" stroke-linejoin="round" stroke-miterlimit="1.414" d="M117.652,49.792
	c0-1.062-0.416-2.033-1.155-2.772c-0.739-0.739-1.709-1.155-2.771-1.155c-1.017,0-2.033,0.416-2.772,1.155
	c-0.739,0.739-1.155,1.71-1.155,2.772c0,1.016,0.416,2.033,1.155,2.772c0.739,0.739,1.755,1.154,2.772,1.154
	c1.062,0,2.032-0.415,2.771-1.154C117.236,51.825,117.652,50.808,117.652,49.792"/>
<line fill="none" stroke="#000000" stroke-width="0.111" stroke-linejoin="bevel" stroke-miterlimit="1.414" x1="180.292" y1="10.296" x2="180.292" y2="41.2"/>
<line fill="none" stroke="#000000" stroke-width="0.111" stroke-linejoin="bevel" stroke-miterlimit="1.414" x1="180.938" y1="9.788" x2="180.938" y2="41.2"/>
<path fill-rule="evenodd" clip-rule="evenodd" d="M36.166,27.434c0-0.046-0.046-0.046-0.092-0.046c0,0-0.047,0-0.047,0.046
	l0.047,0.046C36.12,27.48,36.166,27.434,36.166,27.434"/>
<path fill="none" stroke="#000000" stroke-width="0.111" stroke-linejoin="bevel" stroke-miterlimit="1.414" d="M36.258,27.434
	c0,0.046-0.046,0.092-0.092,0.092c-0.047,0-0.093-0.046-0.093-0.092"/>
<path fill-rule="evenodd" clip-rule="evenodd" d="M36.305,27.434c0-0.046,0-0.046-0.046-0.046s-0.046,0-0.046,0.046
	c0,0,0,0.046,0.046,0.046S36.305,27.434,36.305,27.434"/>
<line fill="none" stroke="#000000" stroke-width="0.111" stroke-linejoin="bevel" stroke-miterlimit="1.414" x1="36.074" y1="27.157" x2="36.074" y2="27.434"/>
<path fill="none" stroke="#000000" stroke-width="0.111" stroke-linejoin="bevel" stroke-miterlimit="1.414" d="M36.258,27.157
	c0-0.046-0.046-0.092-0.092-0.092c-0.047,0-0.093,0.046-0.093,0.092"/>
<line fill="none" stroke="#000000" stroke-width="0.111" stroke-linejoin="bevel" stroke-miterlimit="1.414" x1="36.258" y1="27.434" x2="36.258" y2="27.157"/>
<path fill-rule="evenodd" clip-rule="evenodd" d="M36.258,27.988c0-0.046,0-0.046-0.046-0.046s-0.046,0-0.046,0.046
	c0,0.046,0,0.046,0.046,0.046S36.258,28.034,36.258,27.988"/>
<path fill="none" stroke="#000000" stroke-width="0.111" stroke-linejoin="bevel" stroke-miterlimit="1.414" d="M36.212,28.219
	c-0.046,0-0.139-0.046-0.139-0.092c0-0.093,0.093-0.139,0.139-0.139"/>
<path fill-rule="evenodd" clip-rule="evenodd" d="M36.258,28.219c0,0,0-0.046-0.046-0.046s-0.046,0.046-0.046,0.046
	c0,0.046,0,0.092,0.046,0.092S36.258,28.265,36.258,28.219"/>
<line fill="none" stroke="#000000" stroke-width="0.111" stroke-linejoin="bevel" stroke-miterlimit="1.414" x1="37.321" y1="27.988" x2="36.212" y2="27.988"/>
<path fill="none" stroke="#000000" stroke-width="0.111" stroke-linejoin="bevel" stroke-miterlimit="1.414" d="M37.321,28.219
	c0.092,0,0.139-0.046,0.139-0.092c0-0.093-0.047-0.139-0.139-0.139"/>
<line fill="none" stroke="#000000" stroke-width="0.111" stroke-linejoin="bevel" stroke-miterlimit="1.414" x1="36.212" y1="28.219" x2="37.321" y2="28.219"/>
<rect x="35.704" y="26.649" fill="none" stroke="#000000" stroke-width="0.111" stroke-linejoin="bevel" stroke-miterlimit="1.414" width="2.125" height="2.125"/>
<line fill="none" stroke="#000000" stroke-width="0.111" stroke-linejoin="bevel" stroke-miterlimit="1.414" x1="171.007" y1="10.296" x2="180.292" y2="10.296"/>
<line fill="none" stroke="#000000" stroke-width="0.333" stroke-linejoin="round" stroke-miterlimit="1.414" x1="307.372" y1="47.02" x2="308.619" y2="48.221"/>
<line fill="none" stroke="#000000" stroke-width="0.111" stroke-linejoin="bevel" stroke-miterlimit="1.414" x1="306.355" y1="47.621" x2="309.635" y2="47.621"/>
<path fill="none" stroke="#000000" stroke-width="0.111" stroke-linejoin="bevel" stroke-miterlimit="1.414" d="M308.018,47.621"/>
<line fill="none" stroke="#000000" stroke-width="0.111" stroke-linejoin="bevel" stroke-miterlimit="1.414" stroke-dasharray="2.273,1.386" x1="305.893" y1="47.621" x2="302.89" y2="47.621"/>
<line fill="none" stroke="#000000" stroke-width="0.111" stroke-linejoin="bevel" stroke-miterlimit="1.414" x1="110.446" y1="10.481" x2="110.446" y2="41.2"/>
<line fill="none" stroke="#000000" stroke-width="0.111" stroke-linejoin="bevel" stroke-miterlimit="1.414" x1="122.503" y1="10.481" x2="122.503" y2="41.2"/>
<line fill="none" stroke="#000000" stroke-width="0.111" stroke-linejoin="bevel" stroke-miterlimit="1.414" x1="110.446" y1="10.481" x2="110.446" y2="41.2"/>
<line fill="none" stroke="#000000" stroke-width="0.111" stroke-linejoin="bevel" stroke-miterlimit="1.414" x1="110.446" y1="10.481" x2="122.503" y2="10.481"/>
<line fill="none" stroke="#000000" stroke-width="0.111" stroke-linejoin="bevel" stroke-miterlimit="1.414" x1="109.799" y1="1.935" x2="123.149" y2="1.935"/>
<line fill="none" stroke="#000000" stroke-width="0.111" stroke-linejoin="bevel" stroke-miterlimit="1.414" x1="123.149" y1="1.935" x2="123.149" y2="41.2"/>
<line fill="none" stroke="#000000" stroke-width="0.111" stroke-linejoin="bevel" stroke-miterlimit="1.414" x1="109.799" y1="1.935" x2="109.799" y2="41.2"/>
<rect x="110.446" y="10.481" fill="none" stroke="#000000" stroke-width="0.111" stroke-linejoin="bevel" stroke-miterlimit="1.414" width="12.057" height="30.719"/>
<polyline fill="none" stroke="#000000" stroke-width="0.111" stroke-linejoin="bevel" stroke-miterlimit="1.414" points="
	110.446,10.481 110.446,10.481 110.446,41.2 110.446,10.481 "/>
<rect x="110.446" y="2.628" fill="none" stroke="#000000" stroke-width="0.111" stroke-linejoin="bevel" stroke-miterlimit="1.414" width="12.057" height="7.853"/>
<path fill-rule="evenodd" clip-rule="evenodd" d="M111.185,27.434c0-0.046-0.046-0.046-0.092-0.046c0,0-0.047,0-0.047,0.046
	l0.047,0.046C111.139,27.48,111.185,27.434,111.185,27.434"/>
<path fill="none" stroke="#000000" stroke-width="0.111" stroke-linejoin="bevel" stroke-miterlimit="1.414" d="M111.278,27.434
	c0,0.046-0.046,0.092-0.092,0.092c-0.047,0-0.093-0.046-0.093-0.092"/>
<path fill-rule="evenodd" clip-rule="evenodd" d="M111.324,27.434c0-0.046,0-0.046-0.046-0.046c-0.046,0-0.046,0-0.046,0.046
	c0,0,0,0.046,0.046,0.046C111.324,27.48,111.324,27.434,111.324,27.434"/>
<line fill="none" stroke="#000000" stroke-width="0.111" stroke-linejoin="bevel" stroke-miterlimit="1.414" x1="111.093" y1="27.157" x2="111.093" y2="27.434"/>
<path fill="none" stroke="#000000" stroke-width="0.111" stroke-linejoin="bevel" stroke-miterlimit="1.414" d="M111.278,27.157
	c0-0.046-0.046-0.092-0.092-0.092c-0.047,0-0.093,0.046-0.093,0.092"/>
<line fill="none" stroke="#000000" stroke-width="0.111" stroke-linejoin="bevel" stroke-miterlimit="1.414" x1="111.278" y1="27.434" x2="111.278" y2="27.157"/>
<path fill-rule="evenodd" clip-rule="evenodd" d="M111.278,27.988c0-0.046,0-0.046-0.046-0.046c-0.046,0-0.046,0-0.046,0.046
	c0,0.046,0,0.046,0.046,0.046C111.278,28.034,111.278,28.034,111.278,27.988"/>
<path fill="none" stroke="#000000" stroke-width="0.111" stroke-linejoin="bevel" stroke-miterlimit="1.414" d="M111.231,28.219
	c-0.046,0-0.139-0.046-0.139-0.092c0-0.093,0.093-0.139,0.139-0.139"/>
<path fill-rule="evenodd" clip-rule="evenodd" d="M111.278,28.219c0,0,0-0.046-0.046-0.046c-0.046,0-0.046,0.046-0.046,0.046
	c0,0.046,0,0.092,0.046,0.092C111.278,28.311,111.278,28.265,111.278,28.219"/>
<line fill="none" stroke="#000000" stroke-width="0.111" stroke-linejoin="bevel" stroke-miterlimit="1.414" x1="112.34" y1="27.988" x2="111.231" y2="27.988"/>
<path fill="none" stroke="#000000" stroke-width="0.111" stroke-linejoin="bevel" stroke-miterlimit="1.414" d="M112.34,28.219
	c0.092,0,0.139-0.046,0.139-0.092c0-0.093-0.047-0.139-0.139-0.139"/>
<line fill="none" stroke="#000000" stroke-width="0.111" stroke-linejoin="bevel" stroke-miterlimit="1.414" x1="111.231" y1="28.219" x2="112.34" y2="28.219"/>
<rect x="110.723" y="26.649" fill="none" stroke="#000000" stroke-width="0.111" stroke-linejoin="bevel" stroke-miterlimit="1.414" width="2.125" height="2.125"/>
<path fill-rule="evenodd" clip-rule="evenodd" d="M32.609,48.914v-2.033h0.462c0.139,0,0.277,0.046,0.37,0.093
	c0.092,0.046,0.184,0.138,0.277,0.277c0.046,0.138,0.092,0.369,0.092,0.647c0,0.231-0.046,0.461-0.092,0.6
	c-0.046,0.139-0.139,0.231-0.231,0.323c-0.093,0.047-0.231,0.093-0.416,0.093H32.609 M32.332,49.191h0.785
	c0.185,0,0.37-0.046,0.508-0.092c0.139-0.093,0.278-0.231,0.324-0.462c0.092-0.185,0.138-0.462,0.138-0.739
	c0-0.231,0-0.462-0.046-0.601c-0.046-0.185-0.138-0.323-0.231-0.416c-0.092-0.138-0.185-0.185-0.323-0.231
	c-0.093-0.046-0.231-0.046-0.416-0.046h-0.739V49.191"/>
<path fill-rule="evenodd" clip-rule="evenodd" d="M34.641,47.898c0-0.416,0.046-0.693,0.139-0.831
	c0.092-0.139,0.185-0.231,0.277-0.231c0.138,0,0.277,0.092,0.323,0.231c0.093,0.138,0.139,0.415,0.139,0.831
	c0,0.462-0.046,0.739-0.139,0.878c-0.046,0.138-0.185,0.231-0.277,0.231c-0.138,0-0.231-0.093-0.323-0.231
	C34.687,48.637,34.641,48.36,34.641,47.898 M34.364,47.898c0,0.508,0.092,0.878,0.231,1.062c0.139,0.185,0.277,0.278,0.508,0.278
	c0.231,0,0.37-0.093,0.508-0.324c0.139-0.231,0.185-0.554,0.185-1.016c0-0.462-0.092-0.831-0.231-1.062
	c-0.092-0.185-0.277-0.278-0.462-0.278c-0.231,0-0.416,0.139-0.554,0.37C34.456,47.159,34.364,47.482,34.364,47.898"/>
<path fill-rule="evenodd" clip-rule="evenodd" d="M37.044,49.191v-2.633h-0.185c-0.046,0.138-0.092,0.231-0.231,0.369
	c-0.092,0.139-0.231,0.231-0.369,0.324v0.277c0.092,0,0.184-0.092,0.277-0.139c0.092-0.092,0.185-0.138,0.231-0.231v2.033H37.044"/>
<path fill-rule="evenodd" clip-rule="evenodd" d="M33.117,52.841v-2.31h-0.139c-0.046,0.093-0.138,0.185-0.231,0.324
	c-0.092,0.092-0.184,0.184-0.323,0.231v0.277c0.092-0.046,0.139-0.093,0.231-0.139c0.092-0.046,0.185-0.138,0.231-0.185v1.802
	H33.117"/>
<rect x="33.856" y="51.178" fill-rule="evenodd" clip-rule="evenodd" width="0.231" height="0.323"/>
<rect x="33.856" y="52.518" fill-rule="evenodd" clip-rule="evenodd" width="0.231" height="0.323"/>
<path fill-rule="evenodd" clip-rule="evenodd" d="M34.457,52.24c0,0.185,0.046,0.323,0.185,0.462
	c0.092,0.092,0.231,0.138,0.416,0.138c0.184,0,0.323-0.046,0.461-0.23c0.093-0.139,0.185-0.324,0.185-0.555
	c0-0.231-0.092-0.416-0.185-0.554c-0.138-0.139-0.277-0.185-0.415-0.185c-0.139,0-0.231,0.046-0.37,0.139l0.093-0.601h0.785v-0.277
	h-0.97l-0.139,1.155l0.185,0.046c0.046-0.092,0.092-0.139,0.139-0.185c0.092,0,0.138-0.046,0.231-0.046
	c0.092,0,0.184,0.046,0.277,0.139c0.092,0.092,0.092,0.231,0.092,0.369c0,0.185-0.046,0.324-0.092,0.416
	c-0.093,0.092-0.185,0.139-0.277,0.139c-0.093,0-0.185,0-0.231-0.093c-0.093-0.046-0.139-0.185-0.139-0.323L34.457,52.24"/>
<path fill-rule="evenodd" clip-rule="evenodd" d="M36.12,51.686c0-0.37,0.046-0.601,0.139-0.739
	c0.046-0.139,0.138-0.185,0.231-0.185c0.138,0,0.23,0.046,0.277,0.185c0.092,0.138,0.138,0.369,0.138,0.739
	c0,0.37-0.046,0.647-0.138,0.739c-0.047,0.139-0.139,0.185-0.231,0.185c-0.139,0-0.231-0.046-0.277-0.185
	C36.166,52.333,36.12,52.056,36.12,51.686 M35.889,51.686c0,0.416,0.046,0.739,0.185,0.924c0.092,0.185,0.277,0.231,0.416,0.231
	c0.23,0,0.369-0.093,0.461-0.277c0.139-0.185,0.185-0.508,0.185-0.878c0-0.416-0.092-0.739-0.185-0.924
	c-0.138-0.138-0.277-0.231-0.415-0.231c-0.231,0-0.37,0.093-0.462,0.277C35.935,51.039,35.889,51.316,35.889,51.686"/>
<path fill-rule="evenodd" clip-rule="evenodd" d="M76.955,48.914v-2.033h0.462c0.185,0,0.277,0.046,0.37,0.093
	c0.092,0.046,0.184,0.138,0.277,0.277c0.092,0.138,0.092,0.369,0.092,0.647c0,0.231,0,0.461-0.092,0.6
	c-0.046,0.139-0.139,0.231-0.231,0.323c-0.093,0.047-0.231,0.093-0.416,0.093H76.955 M76.678,49.191h0.785
	c0.231,0,0.416-0.046,0.555-0.092c0.138-0.093,0.231-0.231,0.323-0.462c0.092-0.185,0.139-0.462,0.139-0.739
	c0-0.231-0.047-0.462-0.093-0.601c-0.046-0.185-0.138-0.323-0.231-0.416c-0.092-0.138-0.185-0.185-0.323-0.231
	c-0.093-0.046-0.231-0.046-0.416-0.046h-0.739V49.191"/>
<path fill-rule="evenodd" clip-rule="evenodd" d="M79.034,47.898c0-0.416,0.046-0.693,0.093-0.831
	c0.092-0.139,0.184-0.231,0.323-0.231c0.138,0,0.231,0.092,0.323,0.231c0.046,0.138,0.093,0.415,0.093,0.831
	c0,0.462-0.047,0.739-0.093,0.878c-0.092,0.138-0.185,0.231-0.323,0.231c-0.139,0-0.231-0.093-0.323-0.231
	C79.08,48.637,79.034,48.36,79.034,47.898 M78.757,47.898c0,0.508,0.046,0.878,0.185,1.062c0.138,0.185,0.323,0.278,0.508,0.278
	c0.231,0,0.416-0.093,0.508-0.324c0.139-0.231,0.185-0.554,0.185-1.016c0-0.462-0.046-0.831-0.185-1.062
	c-0.139-0.185-0.323-0.278-0.508-0.278c-0.231,0-0.416,0.139-0.508,0.37C78.803,47.159,78.757,47.482,78.757,47.898"/>
<path fill-rule="evenodd" clip-rule="evenodd" d="M81.806,48.914h-1.062c0.046-0.092,0.092-0.139,0.138-0.185
	c0.046-0.046,0.139-0.185,0.277-0.323c0.277-0.277,0.416-0.462,0.508-0.601c0.093-0.184,0.139-0.323,0.139-0.508
	s-0.046-0.369-0.185-0.508c-0.092-0.138-0.277-0.231-0.462-0.231c-0.231,0-0.369,0.093-0.508,0.231
	c-0.138,0.093-0.185,0.277-0.231,0.554l0.277,0.047c0-0.185,0.047-0.324,0.139-0.416c0.046-0.092,0.185-0.139,0.277-0.139
	c0.139,0,0.231,0.047,0.323,0.139c0.047,0.092,0.093,0.185,0.093,0.323c0,0.139-0.046,0.231-0.093,0.37
	c-0.092,0.138-0.277,0.323-0.508,0.554c-0.184,0.231-0.369,0.416-0.415,0.554c-0.093,0.185-0.139,0.324-0.139,0.416h1.432V48.914"/>
<path fill-rule="evenodd" clip-rule="evenodd" d="M77.464,52.841v-2.31h-0.139c-0.046,0.093-0.092,0.185-0.184,0.324
	c-0.093,0.092-0.231,0.184-0.37,0.231v0.277c0.092-0.046,0.185-0.093,0.277-0.139c0.093-0.046,0.139-0.138,0.185-0.185v1.802H77.464
	"/>
<rect x="78.203" y="51.178" fill-rule="evenodd" clip-rule="evenodd" width="0.277" height="0.323"/>
<rect x="78.203" y="52.518" fill-rule="evenodd" clip-rule="evenodd" width="0.277" height="0.323"/>
<path fill-rule="evenodd" clip-rule="evenodd" d="M78.803,52.24c0,0.185,0.092,0.323,0.185,0.462
	c0.138,0.092,0.277,0.138,0.416,0.138c0.184,0,0.369-0.046,0.461-0.23c0.139-0.139,0.185-0.324,0.185-0.555
	c0-0.231-0.046-0.416-0.185-0.554c-0.092-0.139-0.231-0.185-0.415-0.185c-0.093,0-0.231,0.046-0.324,0.139l0.093-0.601h0.739v-0.277
	h-0.924l-0.185,1.155l0.231,0.046c0-0.092,0.046-0.139,0.139-0.185c0.046,0,0.092-0.046,0.185-0.046c0.092,0,0.23,0.046,0.277,0.139
	c0.092,0.092,0.138,0.231,0.138,0.369c0,0.185-0.046,0.324-0.138,0.416c-0.093,0.092-0.185,0.139-0.277,0.139
	c-0.093,0-0.185,0-0.231-0.093c-0.047-0.046-0.093-0.185-0.139-0.323L78.803,52.24"/>
<path fill-rule="evenodd" clip-rule="evenodd" d="M80.512,51.686c0-0.37,0-0.601,0.092-0.739c0.093-0.139,0.139-0.185,0.278-0.185
	c0.092,0,0.184,0.046,0.277,0.185c0.046,0.138,0.092,0.369,0.092,0.739c0,0.37-0.046,0.647-0.092,0.739
	c-0.093,0.139-0.185,0.185-0.277,0.185c-0.093,0-0.185-0.046-0.278-0.185C80.558,52.333,80.512,52.056,80.512,51.686 M80.281,51.686
	c0,0.416,0.046,0.739,0.139,0.924c0.138,0.185,0.277,0.231,0.462,0.231c0.184,0,0.369-0.093,0.461-0.277
	c0.093-0.185,0.139-0.508,0.139-0.878c0-0.416-0.046-0.739-0.185-0.924c-0.092-0.138-0.231-0.231-0.415-0.231
	c-0.185,0-0.37,0.093-0.462,0.277C80.327,51.039,80.281,51.316,80.281,51.686"/>
<path fill-rule="evenodd" clip-rule="evenodd" d="M166.202,52.841v-2.31h-0.139c-0.046,0.093-0.092,0.185-0.231,0.324
	c-0.092,0.092-0.184,0.184-0.323,0.231v0.277c0.092-0.046,0.185-0.093,0.231-0.139c0.092-0.046,0.185-0.138,0.231-0.185v1.802
	H166.202"/>
<rect x="166.942" y="51.178" fill-rule="evenodd" clip-rule="evenodd" width="0.277" height="0.323"/>
<rect x="166.942" y="52.518" fill-rule="evenodd" clip-rule="evenodd" width="0.277" height="0.323"/>
<path fill-rule="evenodd" clip-rule="evenodd" d="M167.542,52.24c0,0.185,0.046,0.323,0.185,0.462
	c0.092,0.092,0.231,0.138,0.415,0.138c0.185,0,0.324-0.046,0.462-0.23c0.093-0.139,0.185-0.324,0.185-0.555
	c0-0.231-0.092-0.416-0.185-0.554c-0.138-0.139-0.277-0.185-0.415-0.185c-0.139,0-0.231,0.046-0.37,0.139l0.093-0.601h0.785v-0.277
	h-0.924l-0.185,1.155l0.185,0.046c0.046-0.092,0.092-0.139,0.139-0.185c0.092,0,0.138-0.046,0.23-0.046
	c0.093,0,0.185,0.046,0.278,0.139c0.092,0.092,0.092,0.231,0.092,0.369c0,0.185,0,0.324-0.092,0.416
	c-0.093,0.092-0.185,0.139-0.278,0.139c-0.092,0-0.184,0-0.23-0.093c-0.093-0.046-0.139-0.185-0.139-0.323L167.542,52.24"/>
<path fill-rule="evenodd" clip-rule="evenodd" d="M169.205,51.686c0-0.37,0.046-0.601,0.139-0.739
	c0.046-0.139,0.138-0.185,0.231-0.185c0.138,0,0.23,0.046,0.277,0.185c0.092,0.138,0.138,0.369,0.138,0.739
	c0,0.37-0.046,0.647-0.138,0.739c-0.047,0.139-0.139,0.185-0.231,0.185c-0.139,0-0.231-0.046-0.277-0.185
	C169.251,52.333,169.205,52.056,169.205,51.686 M168.974,51.686c0,0.416,0.092,0.739,0.185,0.924
	c0.092,0.185,0.277,0.231,0.462,0.231c0.184,0,0.323-0.093,0.415-0.277c0.139-0.185,0.185-0.508,0.185-0.878
	c0-0.416-0.092-0.739-0.185-0.924c-0.092-0.138-0.277-0.231-0.415-0.231c-0.231,0-0.37,0.093-0.462,0.277
	C169.02,51.039,168.974,51.316,168.974,51.686"/>
<path fill-rule="evenodd" clip-rule="evenodd" d="M165.694,48.914v-2.033h0.462c0.139,0,0.277,0.046,0.37,0.093
	c0.092,0.046,0.184,0.138,0.277,0.277c0.046,0.138,0.092,0.369,0.092,0.647c0,0.231-0.046,0.461-0.092,0.6
	c-0.046,0.139-0.139,0.231-0.231,0.323c-0.093,0.047-0.231,0.093-0.416,0.093H165.694 M165.417,49.191h0.785
	c0.185,0,0.37-0.046,0.508-0.092c0.139-0.093,0.278-0.231,0.37-0.462c0.046-0.185,0.092-0.462,0.092-0.739
	c0-0.231,0-0.462-0.046-0.601c-0.046-0.185-0.138-0.323-0.231-0.416c-0.092-0.138-0.185-0.185-0.323-0.231
	c-0.093-0.046-0.231-0.046-0.416-0.046h-0.739V49.191"/>
<path fill-rule="evenodd" clip-rule="evenodd" d="M167.727,47.898c0-0.416,0.046-0.693,0.139-0.831
	c0.092-0.139,0.184-0.231,0.277-0.231c0.138,0,0.277,0.092,0.323,0.231c0.092,0.138,0.139,0.415,0.139,0.831
	c0,0.462-0.047,0.739-0.139,0.878c-0.046,0.138-0.185,0.231-0.277,0.231c-0.139,0-0.231-0.093-0.323-0.231
	C167.773,48.637,167.727,48.36,167.727,47.898 M167.496,47.898c0,0.508,0.046,0.878,0.185,1.062
	c0.138,0.185,0.277,0.278,0.508,0.278c0.231,0,0.369-0.093,0.508-0.324c0.139-0.231,0.185-0.554,0.185-1.016
	c0-0.462-0.093-0.831-0.231-1.062c-0.093-0.185-0.277-0.278-0.462-0.278c-0.231,0-0.416,0.139-0.554,0.37
	C167.542,47.159,167.496,47.482,167.496,47.898"/>
<path fill-rule="evenodd" clip-rule="evenodd" d="M169.436,48.453c0-0.139,0-0.277,0.092-0.37c0.092-0.092,0.185-0.138,0.323-0.138
	c0.093,0,0.231,0.046,0.324,0.138c0.046,0.093,0.092,0.231,0.092,0.37c0,0.185-0.046,0.277-0.092,0.415
	c-0.093,0.093-0.185,0.139-0.324,0.139c-0.138,0-0.231-0.046-0.323-0.185C169.436,48.73,169.436,48.638,169.436,48.453
	 M169.482,47.252c0-0.139,0.046-0.231,0.138-0.277c0.047-0.093,0.139-0.139,0.231-0.139c0.093,0,0.185,0.046,0.231,0.139
	c0.093,0.046,0.093,0.184,0.093,0.277c0,0.138,0,0.231-0.093,0.323c-0.046,0.046-0.138,0.092-0.231,0.092
	c-0.092,0-0.184-0.046-0.231-0.138C169.528,47.483,169.482,47.39,169.482,47.252 M169.528,47.806
	c-0.092,0.046-0.185,0.092-0.277,0.231c-0.093,0.092-0.093,0.231-0.093,0.416c0,0.231,0.047,0.415,0.185,0.6
	c0.139,0.139,0.324,0.185,0.508,0.185c0.185,0,0.37-0.046,0.508-0.185c0.139-0.185,0.185-0.369,0.185-0.6
	c0-0.139-0.046-0.324-0.092-0.416c-0.093-0.092-0.185-0.185-0.323-0.231c0.138-0.046,0.23-0.139,0.277-0.231
	c0.046-0.092,0.046-0.185,0.046-0.323c0-0.185-0.046-0.37-0.139-0.462c-0.138-0.139-0.277-0.231-0.462-0.231
	c-0.184,0-0.323,0.092-0.462,0.231c-0.092,0.092-0.138,0.277-0.138,0.462c0,0.138,0,0.231,0.046,0.323
	C169.343,47.667,169.436,47.76,169.528,47.806"/>
<rect x="24.71" y="48.453" width="0.693" height="0.277"/>
<rect x="69.057" y="48.453" width="0.739" height="0.277"/>
<rect x="157.795" y="48.453" width="0.74" height="0.277"/>
<path fill-rule="evenodd" clip-rule="evenodd" d="M121.856,52.841v-2.31h-0.185c0,0.093-0.092,0.185-0.185,0.324
	c-0.092,0.092-0.231,0.184-0.323,0.231v0.277c0.046-0.046,0.139-0.093,0.231-0.139c0.092-0.046,0.185-0.138,0.231-0.185v1.802
	H121.856"/>
<rect x="122.595" y="51.178" fill-rule="evenodd" clip-rule="evenodd" width="0.231" height="0.323"/>
<rect x="122.595" y="52.518" fill-rule="evenodd" clip-rule="evenodd" width="0.231" height="0.323"/>
<path fill-rule="evenodd" clip-rule="evenodd" d="M123.149,52.24c0.046,0.185,0.092,0.323,0.231,0.462
	c0.092,0.092,0.231,0.138,0.37,0.138c0.23,0,0.369-0.046,0.508-0.23c0.092-0.139,0.138-0.324,0.138-0.555
	c0-0.231-0.046-0.416-0.138-0.554c-0.139-0.139-0.278-0.185-0.416-0.185c-0.139,0-0.277,0.046-0.37,0.139l0.093-0.601h0.739v-0.277
	h-0.924l-0.185,1.155l0.231,0.046c0.046-0.092,0.093-0.139,0.139-0.185c0.046,0,0.138-0.046,0.185-0.046
	c0.138,0,0.23,0.046,0.323,0.139c0.046,0.092,0.092,0.231,0.092,0.369c0,0.185-0.046,0.324-0.138,0.416
	c-0.047,0.092-0.139,0.139-0.277,0.139c-0.093,0-0.139,0-0.231-0.093c-0.047-0.046-0.093-0.185-0.093-0.323L123.149,52.24"/>
<path fill-rule="evenodd" clip-rule="evenodd" d="M124.859,51.686c0-0.37,0.046-0.601,0.092-0.739
	c0.093-0.139,0.185-0.185,0.278-0.185c0.092,0,0.184,0.046,0.277,0.185c0.092,0.138,0.092,0.369,0.092,0.739
	c0,0.37,0,0.647-0.092,0.739c-0.047,0.139-0.139,0.185-0.277,0.185c-0.093,0-0.185-0.046-0.278-0.185
	C124.905,52.333,124.859,52.056,124.859,51.686 M124.628,51.686c0,0.416,0.046,0.739,0.185,0.924
	c0.092,0.185,0.231,0.231,0.416,0.231c0.23,0,0.369-0.093,0.461-0.277c0.093-0.185,0.139-0.508,0.139-0.878
	c0-0.416-0.046-0.739-0.185-0.924c-0.092-0.138-0.231-0.231-0.415-0.231c-0.185,0-0.324,0.093-0.462,0.277
	C124.674,51.039,124.628,51.316,124.628,51.686"/>
<rect x="113.449" y="48.453" width="0.693" height="0.277"/>
<path fill-rule="evenodd" clip-rule="evenodd" d="M121.348,48.914v-2.033h0.416c0.185,0,0.323,0.046,0.369,0.093
	c0.139,0.046,0.231,0.138,0.278,0.277c0.092,0.138,0.138,0.369,0.138,0.647c0,0.231-0.046,0.461-0.092,0.6
	c-0.093,0.139-0.139,0.231-0.231,0.323c-0.093,0.047-0.231,0.093-0.416,0.093H121.348 M121.071,49.191h0.739
	c0.231,0,0.416-0.046,0.554-0.092c0.139-0.093,0.231-0.231,0.324-0.462c0.092-0.185,0.138-0.462,0.138-0.739
	c0-0.231-0.046-0.462-0.092-0.601c-0.046-0.185-0.092-0.323-0.185-0.416c-0.092-0.138-0.231-0.185-0.323-0.231
	c-0.093-0.046-0.231-0.046-0.416-0.046h-0.739V49.191"/>
<path fill-rule="evenodd" clip-rule="evenodd" d="M123.38,47.898c0-0.416,0.046-0.693,0.139-0.831
	c0.046-0.139,0.184-0.231,0.277-0.231c0.138,0,0.231,0.092,0.323,0.231c0.093,0.138,0.139,0.415,0.139,0.831
	c0,0.462-0.046,0.739-0.139,0.878c-0.092,0.138-0.185,0.231-0.323,0.231c-0.093,0-0.231-0.093-0.277-0.231
	C123.426,48.637,123.38,48.36,123.38,47.898 M123.103,47.898c0,0.508,0.092,0.878,0.185,1.062c0.138,0.185,0.323,0.278,0.508,0.278
	c0.231,0,0.416-0.093,0.554-0.324c0.093-0.231,0.185-0.554,0.185-1.016c0-0.462-0.092-0.831-0.231-1.062
	c-0.139-0.185-0.277-0.278-0.508-0.278c-0.231,0-0.37,0.139-0.508,0.37C123.149,47.159,123.103,47.482,123.103,47.898"/>
<path fill-rule="evenodd" clip-rule="evenodd" d="M124.766,48.498c0.046,0.231,0.092,0.416,0.231,0.554
	c0.139,0.139,0.277,0.185,0.462,0.185s0.369-0.046,0.508-0.231c0.139-0.138,0.231-0.323,0.231-0.554
	c0-0.139-0.046-0.231-0.046-0.324c-0.046-0.092-0.093-0.184-0.139-0.231c-0.092-0.046-0.138-0.092-0.231-0.092
	c0.093-0.046,0.185-0.138,0.231-0.231c0.046-0.092,0.046-0.185,0.046-0.323c0-0.185-0.046-0.37-0.184-0.462
	c-0.093-0.139-0.231-0.231-0.416-0.231s-0.323,0.092-0.416,0.185c-0.138,0.138-0.185,0.277-0.231,0.508l0.277,0.046
	c0-0.139,0.047-0.277,0.093-0.323c0.092-0.093,0.185-0.139,0.277-0.139c0.092,0,0.185,0.046,0.231,0.139
	c0.092,0.046,0.138,0.138,0.138,0.277c0,0.138-0.046,0.231-0.138,0.323c-0.093,0.093-0.185,0.139-0.323,0.139l-0.047-0.046v0.323
	c0.047-0.046,0.093-0.046,0.185-0.046s0.185,0.046,0.277,0.138c0.093,0.093,0.139,0.185,0.139,0.37c0,0.138-0.046,0.277-0.139,0.369
	c-0.092,0.139-0.185,0.185-0.323,0.185c-0.231,0-0.37-0.185-0.416-0.554L124.766,48.498"/>
<path fill-rule="evenodd" clip-rule="evenodd" d="M306.355,57.645c-0.231,0-0.416,0-0.508-0.046
	c-0.093-0.046-0.139-0.139-0.139-0.185c0-0.092,0.046-0.138,0.139-0.231c0.092-0.046,0.277-0.046,0.508-0.046
	c0.277,0,0.462,0,0.554,0.046c0.093,0.093,0.139,0.139,0.139,0.231c0,0.046-0.046,0.139-0.139,0.185
	C306.817,57.645,306.632,57.645,306.355,57.645 M306.355,57.83c0.323,0,0.554-0.046,0.647-0.139
	c0.138-0.046,0.184-0.184,0.184-0.277c0-0.185-0.046-0.277-0.184-0.323c-0.139-0.093-0.37-0.139-0.647-0.139
	s-0.508,0.046-0.647,0.139c-0.092,0.092-0.185,0.185-0.185,0.323c0,0.139,0.093,0.231,0.231,0.324
	C305.893,57.784,306.078,57.83,306.355,57.83"/>
<path fill-rule="evenodd" clip-rule="evenodd" d="M306.355,56.628c-0.231,0-0.416-0.046-0.508-0.092
	c-0.093-0.046-0.139-0.093-0.139-0.185s0.046-0.139,0.139-0.185c0.092-0.046,0.277-0.092,0.508-0.092
	c0.277,0,0.462,0.046,0.554,0.092c0.093,0.046,0.139,0.093,0.139,0.185s-0.046,0.139-0.139,0.185
	C306.817,56.582,306.632,56.628,306.355,56.628 M306.355,56.813c0.323,0,0.554-0.046,0.647-0.139
	c0.138-0.092,0.184-0.184,0.184-0.323s-0.046-0.231-0.184-0.323c-0.139-0.093-0.37-0.093-0.647-0.093s-0.508,0.047-0.647,0.093
	c-0.092,0.092-0.185,0.184-0.185,0.323s0.093,0.277,0.231,0.323C305.893,56.767,306.078,56.813,306.355,56.813"/>
<rect x="204.094" fill="#ffffff" width="116.22" height="57.776"/>
<polyline fill="none" stroke="#000000" stroke-width="0.111" stroke-linejoin="bevel" stroke-miterlimit="1.414" points="
	265.235,0.001 267.75,3.011 235.83,41.629 "/>
<polyline fill="none" stroke="#000000" stroke-width="0.111" stroke-linejoin="bevel" stroke-miterlimit="1.414" points="269.09,0 
	267.75,3.011 284.749,41.629 "/>
<rect x="204.094" fill="none" width="105.591" height="57.776"/>
<line fill="none" stroke="#000000" stroke-width="0.443" stroke-linejoin="round" stroke-miterlimit="1.414" x1="219.431" y1="41.629" x2="309.001" y2="41.629"/>
<line fill="none" stroke="#000000" stroke-width="0.333" stroke-linejoin="round" stroke-miterlimit="1.414" x1="286.505" y1="0" x2="286.505" y2="41.628"/>
<line fill="none" stroke="#000000" stroke-width="0.333" stroke-linejoin="round" stroke-miterlimit="1.414" x1="234.121" y1="0" x2="234.121" y2="41.628"/>
<line fill="none" stroke="#000000" stroke-width="0.222" stroke-linejoin="round" stroke-miterlimit="1.414" x1="235.83" y1="0" x2="235.83" y2="41.629"/>
<line fill="none" stroke="#000000" stroke-width="0.333" stroke-linejoin="round" stroke-miterlimit="1.414" x1="284.749" y1="0" x2="284.749" y2="41.629"/>
<line fill="none" stroke="#000000" stroke-width="0.111" stroke-linejoin="bevel" stroke-miterlimit="1.414" x1="267.75" y1="0" x2="267.75" y2="41.629"/>
<rect x="204.094" fill="none" width="105.591" height="57.776"/>
<line fill="none" stroke="#000000" stroke-width="0.111" stroke-linejoin="bevel" stroke-miterlimit="1.414" x1="227.607" y1="50.174" x2="227.607" y2="50.174"/>
<line fill="none" stroke="#000000" stroke-width="0.111" stroke-linejoin="bevel" stroke-miterlimit="1.414" x1="227.607" y1="50.174" x2="227.607" y2="50.174"/>
<line fill="none" stroke="#000000" stroke-width="0.222" stroke-linejoin="round" stroke-miterlimit="1.414" x1="233.151" y1="50.174" x2="258.327" y2="50.174"/>
<line fill="none" stroke="#000000" stroke-width="0.222" stroke-linejoin="round" stroke-miterlimit="1.414" x1="225.298" y1="50.174" x2="233.151" y2="50.174"/>
<path fill="none" stroke="#000000" stroke-width="0.222" stroke-linejoin="round" stroke-miterlimit="1.414" d="M233.151,50.174
	c0-1.016-0.416-2.033-1.155-2.772c-0.739-0.739-1.709-1.155-2.771-1.155c-1.017,0-2.033,0.416-2.772,1.155
	c-0.739,0.739-1.155,1.756-1.155,2.772c0,1.062,0.416,2.033,1.155,2.772c0.739,0.739,1.755,1.155,2.772,1.155
	c1.062,0,2.032-0.416,2.771-1.155C232.735,52.207,233.151,51.236,233.151,50.174"/>
<path fill-rule="evenodd" clip-rule="evenodd" d="M266.179,7.168c0-0.046-0.046-0.092-0.046-0.092c-0.046,0-0.093,0.046-0.093,0.092
	c0,0,0.047,0.046,0.093,0.046L266.179,7.168"/>
<path fill="none" stroke="#000000" stroke-width="0.111" stroke-linejoin="bevel" stroke-miterlimit="1.414" d="M265.671,7.168
	c0,0.092,0.092,0.185,0.231,0.185c0.139,0,0.231-0.093,0.231-0.185"/>
<path fill-rule="evenodd" clip-rule="evenodd" d="M265.764,7.168c0-0.046-0.046-0.092-0.092-0.092c0,0-0.047,0.046-0.047,0.092
	l0.047,0.046C265.718,7.214,265.764,7.168,265.764,7.168"/>
<line fill="none" stroke="#000000" stroke-width="0.111" stroke-linejoin="bevel" stroke-miterlimit="1.414" x1="266.133" y1="6.521" x2="266.133" y2="7.168"/>
<path fill="none" stroke="#000000" stroke-width="0.111" stroke-linejoin="bevel" stroke-miterlimit="1.414" d="M265.671,6.521
	c0-0.139,0.092-0.231,0.231-0.231c0.139,0,0.231,0.092,0.231,0.231"/>
<line fill="none" stroke="#000000" stroke-width="0.111" stroke-linejoin="bevel" stroke-miterlimit="1.414" x1="265.671" y1="7.168" x2="265.671" y2="6.521"/>
<path fill-rule="evenodd" clip-rule="evenodd" d="M265.856,8.554c0,0,0-0.046-0.046-0.046c-0.046,0-0.046,0.046-0.046,0.046
	c0,0.046,0,0.092,0.046,0.092C265.856,8.646,265.856,8.6,265.856,8.554"/>
<path fill="none" stroke="#000000" stroke-width="0.111" stroke-linejoin="bevel" stroke-miterlimit="1.414" d="M265.81,9.2
	c0.185,0,0.323-0.139,0.323-0.323c0-0.185-0.138-0.324-0.323-0.324"/>
<path fill-rule="evenodd" clip-rule="evenodd" d="M265.856,9.2c0-0.046,0-0.046-0.046-0.046c-0.046,0-0.046,0-0.046,0.046
	c0,0.046,0,0.046,0.046,0.046C265.856,9.246,265.856,9.246,265.856,9.2"/>
<line fill="none" stroke="#000000" stroke-width="0.111" stroke-linejoin="bevel" stroke-miterlimit="1.414" x1="262.992" y1="8.554" x2="265.81" y2="8.554"/>
<path fill="none" stroke="#000000" stroke-width="0.111" stroke-linejoin="bevel" stroke-miterlimit="1.414" d="M262.992,9.2
	c-0.185,0-0.323-0.139-0.323-0.323c0-0.185,0.138-0.324,0.323-0.324"/>
<line fill="none" stroke="#000000" stroke-width="0.111" stroke-linejoin="bevel" stroke-miterlimit="1.414" x1="265.81" y1="9.2" x2="262.992" y2="9.2"/>
<rect x="261.745" y="5.182" fill="none" stroke="#000000" stroke-width="0.111" stroke-linejoin="bevel" stroke-miterlimit="1.414" width="5.312" height="5.312"/>
<line fill="none" stroke="#000000" stroke-width="0.111" stroke-linejoin="bevel" stroke-miterlimit="1.414" stroke-dasharray="2.273,1.386" x1="261.791" y1="8.877" x2="254.631" y2="8.877"/>
<line fill="none" stroke="#000000" stroke-width="0.111" stroke-linejoin="bevel" stroke-miterlimit="1.414" x1="94.522" y1="50.174" x2="94.522" y2="50.174"/>
<line fill="none" stroke="#000000" stroke-width="0.111" stroke-linejoin="bevel" stroke-miterlimit="1.414" x1="94.522" y1="50.174" x2="94.522" y2="50.174"/>
<line fill="none" stroke="#000000" stroke-width="0.111" stroke-linejoin="bevel" stroke-miterlimit="1.414" x1="138.868" y1="50.174" x2="138.868" y2="50.174"/>
<line fill="none" stroke="#000000" stroke-width="0.111" stroke-linejoin="bevel" stroke-miterlimit="1.414" x1="138.868" y1="50.174" x2="138.868" y2="50.174"/>
<line fill="none" stroke="#000000" stroke-width="0.333" stroke-linejoin="round" stroke-miterlimit="1.414" x1="258.65" y1="42.229" x2="257.403" y2="40.982"/>
<line fill="none" stroke="#000000" stroke-width="0.333" stroke-linejoin="round" stroke-miterlimit="1.414" x1="257.403" y1="8.276" x2="258.649" y2="9.477"/>
<line fill="none" stroke="#000000" stroke-width="0.111" stroke-linejoin="bevel" stroke-miterlimit="1.414" x1="256.386" y1="41.629" x2="259.666" y2="41.629"/>
<line fill="none" stroke="#000000" stroke-width="0.111" stroke-linejoin="bevel" stroke-miterlimit="1.414" x1="256.386" y1="8.877" x2="259.666" y2="8.877"/>
<line fill="none" stroke="#000000" stroke-width="0.111" stroke-linejoin="bevel" stroke-miterlimit="1.414" x1="258.049" y1="8.877" x2="258.049" y2="41.629"/>
<line fill="none" stroke="#000000" stroke-width="0.333" stroke-linejoin="round" stroke-miterlimit="1.414" x1="284.149" y1="26.846" x2="285.396" y2="25.645"/>
<line fill="none" stroke="#000000" stroke-width="0.333" stroke-linejoin="round" stroke-miterlimit="1.414" x1="281.793" y1="25.645" x2="280.546" y2="26.846"/>
<line fill="none" stroke="#000000" stroke-width="0.333" stroke-linejoin="round" stroke-miterlimit="1.414" x1="281.793" y1="25.645" x2="280.546" y2="26.846"/>
<line fill="none" stroke="#000000" stroke-width="0.333" stroke-linejoin="round" stroke-miterlimit="1.414" x1="270.753" y1="26.846" x2="271.954" y2="25.645"/>
<line fill="none" stroke="#000000" stroke-width="0.333" stroke-linejoin="round" stroke-miterlimit="1.414" x1="270.753" y1="26.846" x2="271.954" y2="25.645"/>
<line fill="none" stroke="#000000" stroke-width="0.333" stroke-linejoin="round" stroke-miterlimit="1.414" x1="268.351" y1="25.645" x2="267.149" y2="26.846"/>
<line fill="none" stroke="#000000" stroke-width="0.111" stroke-linejoin="bevel" stroke-miterlimit="1.414" x1="284.749" y1="24.583" x2="284.749" y2="27.863"/>
<line fill="none" stroke="#000000" stroke-width="0.111" stroke-linejoin="bevel" stroke-miterlimit="1.414" x1="285.997" y1="26.246" x2="284.75" y2="26.246"/>
<line fill="none" stroke="#000000" stroke-width="0.111" stroke-linejoin="bevel" stroke-miterlimit="1.414" x1="281.193" y1="26.246" x2="284.749" y2="26.246"/>
<line fill="none" stroke="#000000" stroke-width="0.111" stroke-linejoin="bevel" stroke-miterlimit="1.414" x1="279.945" y1="26.246" x2="281.192" y2="26.246"/>
<line fill="none" stroke="#000000" stroke-width="0.111" stroke-linejoin="bevel" stroke-miterlimit="1.414" x1="281.193" y1="24.583" x2="281.193" y2="27.863"/>
<line fill="none" stroke="#000000" stroke-width="0.111" stroke-linejoin="bevel" stroke-miterlimit="1.414" x1="271.353" y1="26.246" x2="281.192" y2="26.246"/>
<line fill="none" stroke="#000000" stroke-width="0.111" stroke-linejoin="bevel" stroke-miterlimit="1.414" x1="271.353" y1="24.583" x2="271.353" y2="27.863"/>
<line fill="none" stroke="#000000" stroke-width="0.111" stroke-linejoin="bevel" stroke-miterlimit="1.414" x1="267.75" y1="24.583" x2="267.75" y2="27.863"/>
<line fill="none" stroke="#000000" stroke-width="0.111" stroke-linejoin="bevel" stroke-miterlimit="1.414" x1="272.6" y1="26.246" x2="271.353" y2="26.246"/>
<line fill="none" stroke="#000000" stroke-width="0.111" stroke-linejoin="bevel" stroke-miterlimit="1.414" x1="267.75" y1="26.246" x2="271.353" y2="26.246"/>
<line fill="none" stroke="#000000" stroke-width="0.111" stroke-linejoin="bevel" stroke-miterlimit="1.414" x1="266.549" y1="26.246" x2="267.75" y2="26.246"/>
<line fill="none" stroke="#000000" stroke-width="0.333" stroke-linejoin="round" stroke-miterlimit="1.414" x1="291.032" y1="42.229" x2="289.785" y2="40.982"/>
<line fill="none" stroke="#000000" stroke-width="0.333" stroke-linejoin="round" stroke-miterlimit="1.414" x1="289.785" y1="21.349" x2="291.032" y2="22.596"/>
<line fill="none" stroke="#000000" stroke-width="0.111" stroke-linejoin="bevel" stroke-miterlimit="1.414" x1="288.768" y1="41.629" x2="292.048" y2="41.629"/>
<line fill="none" stroke="#000000" stroke-width="0.111" stroke-linejoin="bevel" stroke-miterlimit="1.414" x1="288.768" y1="21.95" x2="292.048" y2="21.95"/>
<line fill="none" stroke="#000000" stroke-width="0.111" stroke-linejoin="bevel" stroke-miterlimit="1.414" x1="290.431" y1="21.95" x2="290.431" y2="41.629"/>
<line fill="none" stroke="#000000" stroke-width="0.111" stroke-linejoin="bevel" stroke-miterlimit="1.414" stroke-dasharray="2.273,1.386" x1="288.306" y1="21.95" x2="283.04" y2="21.95"/>
<path fill-rule="evenodd" clip-rule="evenodd" d="M237.354,53.223v-2.31h-0.139c-0.046,0.093-0.138,0.231-0.231,0.324
	c-0.092,0.092-0.184,0.184-0.323,0.277v0.277c0.046-0.046,0.139-0.092,0.231-0.185c0.092-0.046,0.185-0.092,0.231-0.185v1.802
	H237.354"/>
<rect x="238.093" y="51.561" fill-rule="evenodd" clip-rule="evenodd" width="0.231" height="0.323"/>
<rect x="238.093" y="52.9" fill-rule="evenodd" clip-rule="evenodd" width="0.231" height="0.323"/>
<path fill-rule="evenodd" clip-rule="evenodd" d="M239.895,52.946h-0.924c0-0.046,0.046-0.092,0.093-0.139
	c0.046-0.046,0.138-0.138,0.277-0.277c0.184-0.231,0.323-0.416,0.415-0.554c0.093-0.139,0.139-0.277,0.139-0.416
	c0-0.185-0.046-0.323-0.185-0.462c-0.092-0.092-0.231-0.185-0.416-0.185c-0.184,0-0.323,0.047-0.415,0.185
	c-0.139,0.093-0.185,0.277-0.185,0.508h0.231c0-0.138,0.046-0.231,0.092-0.323c0.093-0.092,0.185-0.139,0.277-0.139
	c0.093,0,0.185,0.047,0.231,0.139c0.093,0.046,0.139,0.139,0.139,0.277c0,0.093-0.046,0.185-0.139,0.324
	c-0.046,0.092-0.184,0.277-0.415,0.508c-0.185,0.184-0.324,0.323-0.37,0.462c-0.092,0.138-0.092,0.277-0.092,0.369h1.247V52.946"/>
<path fill-rule="evenodd" clip-rule="evenodd" d="M240.357,52.115c0-0.37,0.046-0.647,0.092-0.785
	c0.093-0.093,0.185-0.185,0.278-0.185c0.138,0,0.231,0.092,0.277,0.185c0.092,0.138,0.092,0.369,0.092,0.785
	c0,0.37,0,0.601-0.092,0.739c-0.046,0.093-0.139,0.185-0.277,0.185c-0.093,0-0.185-0.092-0.278-0.185
	C240.403,52.716,240.357,52.485,240.357,52.115 M240.126,52.115c0,0.416,0.046,0.693,0.185,0.878
	c0.092,0.184,0.231,0.277,0.416,0.277c0.231,0,0.369-0.093,0.461-0.323c0.093-0.185,0.185-0.462,0.185-0.832
	c0-0.462-0.092-0.739-0.231-0.97c-0.092-0.139-0.231-0.231-0.415-0.231c-0.185,0-0.324,0.092-0.462,0.323
	C240.172,51.422,240.126,51.699,240.126,52.115"/>
<rect x="228.947" y="48.835" width="0.693" height="0.277"/>
<rect x="204.094" fill="none" width="105.591" height="57.776"/>
<polygon fill-rule="evenodd" clip-rule="evenodd" points="236.523,49.62 237.863,49.62 237.863,49.297 236.846,49.297 
	236.846,46.987 236.523,46.987 "/>
<rect x="238.278" y="46.988" width="0.277" height="2.633"/>
<polygon fill-rule="evenodd" clip-rule="evenodd" points="239.063,49.62 239.34,49.62 239.34,47.541 240.449,49.62 240.726,49.62 
	240.726,46.987 240.449,46.987 240.449,49.066 239.34,46.987 239.063,46.987 "/>
<polygon fill-rule="evenodd" clip-rule="evenodd" points="241.235,49.62 242.852,49.62 242.852,49.297 241.512,49.297 
	241.512,48.419 242.713,48.419 242.713,48.096 241.512,48.096 241.512,47.31 242.806,47.31 242.806,46.987 241.235,46.987 "/>
<path fill-rule="evenodd" clip-rule="evenodd" d="M244.283,48.327c0-0.37,0.047-0.647,0.185-0.831
	c0.139-0.185,0.324-0.231,0.554-0.231c0.139,0,0.231,0,0.37,0.092c0.092,0.092,0.185,0.185,0.231,0.323
	c0.092,0.185,0.139,0.37,0.139,0.601c0,0.369-0.093,0.647-0.231,0.785c-0.139,0.185-0.324,0.277-0.509,0.277
	c-0.23,0-0.415-0.092-0.554-0.231C244.33,48.928,244.283,48.65,244.283,48.327 M243.96,48.327c0,0.37,0.092,0.647,0.277,0.924
	c0.185,0.277,0.462,0.416,0.785,0.416c0.278,0,0.555-0.139,0.74-0.416c0.184-0.231,0.277-0.554,0.277-0.97
	c0-0.277-0.046-0.508-0.139-0.693c-0.092-0.231-0.231-0.37-0.369-0.462c-0.139-0.139-0.324-0.185-0.509-0.185
	c-0.323,0-0.554,0.139-0.739,0.37C244.099,47.542,243.96,47.865,243.96,48.327"/>
<polygon fill-rule="evenodd" clip-rule="evenodd" points="246.408,49.62 246.685,49.62 246.685,48.419 247.701,48.419 
	247.701,48.096 246.685,48.096 246.685,47.31 247.84,47.31 247.84,46.987 246.408,46.987 "/>
<polygon fill-rule="evenodd" clip-rule="evenodd" points="249.041,49.62 249.364,49.62 249.364,48.373 250.473,48.373 
	250.473,49.62 250.75,49.62 250.75,46.987 250.473,46.987 250.473,48.049 249.364,48.049 249.364,46.987 249.041,46.987 "/>
<polygon fill-rule="evenodd" clip-rule="evenodd" points="251.213,49.62 252.829,49.62 252.829,49.297 251.536,49.297 
	251.536,48.419 252.691,48.419 252.691,48.096 251.536,48.096 251.536,47.31 252.783,47.31 252.783,46.987 251.213,46.987 "/>
<rect x="253.291" y="46.987" fill-rule="evenodd" clip-rule="evenodd" width="0.277" height="2.633"/>
<path fill-rule="evenodd" clip-rule="evenodd" d="M255.047,48.604h0.647v0.462c-0.046,0.092-0.139,0.139-0.277,0.185
	c-0.093,0.046-0.231,0.092-0.324,0.092c-0.231,0-0.462-0.092-0.6-0.277c-0.139-0.139-0.185-0.416-0.185-0.785
	c0-0.231,0-0.416,0.092-0.555c0.046-0.184,0.139-0.277,0.277-0.369c0.093-0.093,0.231-0.093,0.37-0.093c0.139,0,0.231,0,0.323,0.047
	c0.047,0.046,0.139,0.092,0.185,0.184c0.046,0.047,0.093,0.185,0.139,0.324l0.231-0.093c0-0.184-0.093-0.323-0.139-0.462
	c-0.092-0.092-0.185-0.184-0.323-0.231c-0.093-0.046-0.231-0.092-0.37-0.092c-0.231,0-0.416,0.046-0.554,0.139
	c-0.185,0.138-0.324,0.277-0.416,0.508c-0.092,0.185-0.138,0.415-0.138,0.739c0,0.277,0.046,0.508,0.138,0.693
	c0.092,0.231,0.231,0.369,0.416,0.462c0.138,0.138,0.323,0.184,0.554,0.184c0.139,0,0.324-0.046,0.462-0.138
	c0.139-0.046,0.277-0.139,0.416-0.277v-0.97h-0.924V48.604"/>
<polygon fill-rule="evenodd" clip-rule="evenodd" points="256.386,49.62 256.663,49.62 256.663,48.373 257.772,48.373 
	257.772,49.62 258.095,49.62 258.095,46.987 257.772,46.987 257.772,48.049 256.663,48.049 256.663,46.987 256.386,46.987 "/>
<polygon fill-rule="evenodd" clip-rule="evenodd" points="259.112,49.62 259.389,49.62 259.389,47.31 260.082,47.31 260.082,46.987 
	258.419,46.987 258.419,47.31 259.112,47.31 "/>
<path fill-rule="evenodd" clip-rule="evenodd" d="M260.313,48.789c0,0.092,0,0.231,0.046,0.323c0.046,0.139,0.093,0.231,0.185,0.324
	c0.139,0.138,0.37,0.231,0.647,0.231c0.138,0,0.277-0.047,0.415-0.093c0.139-0.092,0.231-0.184,0.278-0.277
	c0.092-0.138,0.138-0.277,0.138-0.416c0-0.184-0.046-0.277-0.138-0.415c-0.047-0.093-0.139-0.185-0.278-0.231
	c-0.092-0.047-0.231-0.093-0.462-0.185c-0.184-0.046-0.323-0.093-0.415-0.185c-0.046-0.046-0.093-0.138-0.093-0.231
	c0-0.092,0.047-0.185,0.139-0.277c0.092-0.092,0.231-0.092,0.369-0.092c0.139,0,0.278,0.046,0.37,0.092
	c0.092,0.092,0.139,0.231,0.139,0.416l0.277-0.046c0-0.139-0.046-0.278-0.093-0.416c-0.092-0.139-0.184-0.231-0.277-0.277
	c-0.138-0.047-0.277-0.093-0.416-0.093c-0.23,0-0.415,0.093-0.554,0.185c-0.138,0.139-0.231,0.323-0.231,0.554
	c0,0.093,0.046,0.231,0.093,0.324c0.046,0.092,0.092,0.138,0.184,0.231c0.093,0.046,0.231,0.092,0.462,0.138
	c0.231,0.093,0.37,0.139,0.416,0.185c0.092,0.046,0.139,0.092,0.185,0.139c0,0.046,0.046,0.138,0.046,0.184
	c0,0.139-0.046,0.231-0.139,0.324c-0.092,0.092-0.231,0.138-0.415,0.138c-0.093,0-0.231-0.046-0.324-0.092
	c-0.092-0.046-0.138-0.092-0.184-0.185c-0.093-0.092-0.093-0.185-0.139-0.323L260.313,48.789"/>
<path fill-rule="evenodd" clip-rule="evenodd" d="M264.747,48.696c-0.046,0.231-0.092,0.37-0.231,0.508
	c-0.092,0.093-0.231,0.139-0.416,0.139s-0.369-0.093-0.462-0.277c-0.138-0.139-0.231-0.416-0.231-0.786
	c0-0.231,0.047-0.415,0.093-0.6c0.092-0.139,0.185-0.277,0.277-0.324c0.092-0.092,0.231-0.092,0.369-0.092
	c0.278,0,0.462,0.139,0.555,0.508l0.277-0.046c-0.046-0.277-0.139-0.462-0.277-0.601c-0.185-0.138-0.324-0.184-0.555-0.184
	c-0.184,0-0.369,0.046-0.508,0.138c-0.138,0.139-0.277,0.277-0.369,0.462c-0.093,0.185-0.139,0.462-0.139,0.739
	c0,0.277,0.046,0.555,0.139,0.739c0.092,0.231,0.185,0.37,0.369,0.508c0.139,0.093,0.277,0.139,0.508,0.139
	c0.185,0,0.416-0.092,0.555-0.231c0.138-0.138,0.277-0.369,0.323-0.647L264.747,48.696"/>
<path fill-rule="evenodd" clip-rule="evenodd" d="M265.579,48.327c0-0.37,0.093-0.647,0.231-0.831
	c0.139-0.185,0.323-0.231,0.508-0.231c0.139,0,0.277,0,0.37,0.092c0.138,0.092,0.231,0.185,0.277,0.323
	c0.092,0.185,0.092,0.37,0.092,0.601c0,0.369-0.046,0.647-0.184,0.785c-0.139,0.185-0.324,0.277-0.555,0.277
	c-0.185,0-0.369-0.092-0.508-0.231C265.672,48.928,265.579,48.65,265.579,48.327 M265.302,48.327c0,0.37,0.092,0.647,0.277,0.924
	c0.185,0.277,0.462,0.416,0.739,0.416c0.324,0,0.601-0.139,0.786-0.416c0.184-0.231,0.277-0.554,0.277-0.97
	c0-0.277-0.046-0.508-0.139-0.693c-0.092-0.231-0.231-0.37-0.369-0.462c-0.185-0.139-0.324-0.185-0.555-0.185
	c-0.277,0-0.508,0.139-0.693,0.37C265.394,47.542,265.302,47.865,265.302,48.327"/>
<polygon fill-rule="evenodd" clip-rule="evenodd" points="267.704,49.62 267.981,49.62 267.981,47.541 269.09,49.62 269.413,49.62 
	269.413,46.987 269.136,46.987 269.136,49.066 267.981,46.987 267.704,46.987 "/>
<polygon fill-rule="evenodd" clip-rule="evenodd" points="270.429,49.62 270.706,49.62 270.706,47.31 271.445,47.31 271.445,46.987 
	269.736,46.987 269.736,47.31 270.429,47.31 "/>
<path fill-rule="evenodd" clip-rule="evenodd" d="M272,48.142v-0.878h0.693c0.139,0,0.277,0.046,0.323,0.139
	c0.093,0.046,0.139,0.184,0.139,0.323c0,0.092-0.046,0.139-0.092,0.231c0,0.046-0.093,0.092-0.139,0.139
	c-0.092,0.046-0.185,0.046-0.323,0.046H272 M271.723,49.62H272v-1.155h0.324h0.231c0.046,0.046,0.092,0.093,0.138,0.185
	c0.092,0.046,0.185,0.185,0.277,0.416l0.277,0.554h0.37l-0.37-0.739c-0.092-0.092-0.138-0.231-0.231-0.323
	c-0.046-0.047-0.092-0.093-0.184-0.139c0.184-0.046,0.323-0.092,0.462-0.231c0.092-0.139,0.138-0.277,0.138-0.462
	s-0.046-0.323-0.092-0.416c-0.046-0.138-0.139-0.185-0.231-0.231c-0.093-0.046-0.231-0.092-0.462-0.092h-0.924V49.62"/>
<path fill-rule="evenodd" clip-rule="evenodd" d="M274.078,48.327c0-0.37,0.093-0.647,0.231-0.831
	c0.139-0.185,0.323-0.231,0.508-0.231c0.139,0,0.277,0,0.37,0.092c0.138,0.092,0.231,0.185,0.277,0.323
	c0.046,0.185,0.092,0.37,0.092,0.601c0,0.369-0.046,0.647-0.184,0.785c-0.139,0.185-0.324,0.277-0.555,0.277
	c-0.185,0-0.369-0.092-0.508-0.231C274.171,48.928,274.078,48.65,274.078,48.327 M273.801,48.327c0,0.37,0.092,0.647,0.277,0.924
	c0.185,0.277,0.416,0.416,0.739,0.416c0.324,0,0.601-0.139,0.786-0.416c0.184-0.231,0.277-0.554,0.277-0.97
	c0-0.277-0.046-0.508-0.139-0.693c-0.092-0.231-0.231-0.37-0.369-0.462c-0.185-0.139-0.37-0.185-0.555-0.185
	c-0.277,0-0.508,0.139-0.739,0.37C273.893,47.542,273.801,47.865,273.801,48.327"/>
<polygon fill-rule="evenodd" clip-rule="evenodd" points="276.203,49.62 277.544,49.62 277.544,49.297 276.48,49.297 276.48,46.987 
	276.203,46.987 "/>
<path fill-rule="evenodd" clip-rule="evenodd" d="M278.975,49.297V47.31h0.462c0.185,0,0.277,0,0.37,0.047
	c0.138,0.046,0.231,0.138,0.277,0.277c0.092,0.184,0.092,0.369,0.092,0.646c0,0.231,0,0.462-0.092,0.647
	c-0.046,0.139-0.093,0.231-0.231,0.277c-0.093,0.046-0.231,0.093-0.416,0.093H278.975 M278.698,49.62h0.785
	c0.231,0,0.416-0.046,0.555-0.139c0.138-0.092,0.231-0.231,0.323-0.462c0.092-0.184,0.139-0.415,0.139-0.739
	c0-0.231-0.047-0.415-0.093-0.6c-0.046-0.139-0.138-0.323-0.231-0.416c-0.092-0.092-0.185-0.185-0.323-0.231
	c-0.093-0.046-0.231-0.046-0.416-0.046h-0.739V49.62"/>
<rect x="280.962" y="46.987" fill-rule="evenodd" clip-rule="evenodd" width="0.277" height="2.633"/>
<path fill-rule="evenodd" clip-rule="evenodd" d="M282.117,48.511l0.231-0.739c0.046-0.185,0.092-0.323,0.092-0.508
	c0.046,0.139,0.092,0.323,0.185,0.554l0.185,0.693H282.117 M281.47,49.62h0.323l0.231-0.785h0.878l0.277,0.785h0.324l-0.878-2.633
	h-0.324L281.47,49.62"/>
<path fill-rule="evenodd" clip-rule="evenodd" d="M284.749,48.604h0.6v0.462c-0.046,0.092-0.138,0.139-0.277,0.185
	c-0.092,0.046-0.231,0.092-0.323,0.092c-0.231,0-0.462-0.092-0.601-0.277c-0.138-0.139-0.184-0.416-0.184-0.785
	c0-0.231,0-0.416,0.092-0.555c0.046-0.184,0.139-0.277,0.277-0.369c0.093-0.093,0.231-0.093,0.37-0.093c0.138,0,0.231,0,0.323,0.047
	c0.093,0.046,0.139,0.092,0.185,0.184c0.046,0.047,0.092,0.185,0.138,0.324l0.231-0.093c0-0.184-0.092-0.323-0.138-0.462
	c-0.093-0.092-0.185-0.184-0.323-0.231c-0.093-0.046-0.231-0.092-0.37-0.092c-0.231,0-0.416,0.046-0.554,0.139
	c-0.185,0.138-0.324,0.277-0.416,0.508c-0.092,0.185-0.139,0.415-0.139,0.739c0,0.277,0.047,0.508,0.139,0.693
	c0.092,0.231,0.231,0.369,0.416,0.462c0.138,0.138,0.323,0.184,0.554,0.184c0.139,0,0.323-0.046,0.462-0.138
	c0.138-0.046,0.277-0.139,0.416-0.277v-0.97h-0.878V48.604"/>
<path fill-rule="evenodd" clip-rule="evenodd" d="M286.32,48.142v-0.878h0.693c0.139,0,0.277,0.046,0.323,0.139
	c0.093,0.046,0.139,0.184,0.139,0.323c0,0.092,0,0.139-0.046,0.231c-0.046,0.046-0.093,0.092-0.185,0.139
	c-0.046,0.046-0.185,0.046-0.277,0.046H286.32 M286.043,49.62h0.277v-1.155h0.323h0.231c0.047,0.046,0.139,0.093,0.185,0.185
	c0.046,0.046,0.139,0.185,0.231,0.416l0.277,0.554h0.37l-0.37-0.739c-0.046-0.092-0.138-0.231-0.231-0.323
	c-0.046-0.047-0.092-0.093-0.184-0.139c0.231-0.046,0.369-0.092,0.462-0.231c0.092-0.139,0.138-0.277,0.138-0.462
	s0-0.323-0.092-0.416c-0.046-0.138-0.139-0.185-0.231-0.231c-0.093-0.046-0.231-0.092-0.416-0.092h-0.97V49.62"/>
<path fill-rule="evenodd" clip-rule="evenodd" d="M288.584,48.511l0.23-0.739c0.093-0.185,0.093-0.323,0.139-0.508
	c0.046,0.139,0.092,0.323,0.139,0.554l0.231,0.693H288.584 M287.983,49.62h0.277l0.231-0.785h0.924l0.231,0.785h0.323l-0.877-2.633
	h-0.278L287.983,49.62"/>
<path fill-rule="evenodd" clip-rule="evenodd" d="M290.2,49.62h0.277v-2.217l0.647,2.217h0.231l0.647-2.217v2.217h0.231v-2.633
	h-0.37l-0.508,1.848c-0.046,0.184-0.093,0.277-0.093,0.415l-0.138-0.415l-0.508-1.848H290.2V49.62"/>
<path fill-rule="evenodd" clip-rule="evenodd" d="M254.492,9.154c0,0.139-0.046,0.231-0.092,0.277
	c-0.047,0.046-0.139,0.093-0.185,0.093c-0.139,0-0.231-0.047-0.277-0.139c-0.047-0.092-0.093-0.231-0.093-0.416
	c0-0.138,0-0.231,0.046-0.323c0.047-0.046,0.093-0.139,0.139-0.139c0.046-0.046,0.092-0.092,0.185-0.092
	c0.138,0,0.231,0.092,0.277,0.277l0.139-0.046c-0.047-0.093-0.093-0.185-0.139-0.277c-0.092-0.046-0.185-0.093-0.277-0.093
	c-0.093,0-0.185,0.047-0.277,0.093c-0.047,0.046-0.139,0.138-0.185,0.231c-0.046,0.092-0.046,0.231-0.046,0.369
	c0,0.139,0,0.277,0.046,0.37c0.046,0.092,0.092,0.185,0.185,0.231c0.092,0.046,0.138,0.092,0.277,0.092
	c0.092,0,0.185-0.046,0.277-0.138c0.092-0.047,0.139-0.185,0.185-0.324L254.492,9.154"/>
<rect x="204.094" fill="none" width="105.591" height="57.776"/>
<polygon points="254.169,8.969 254.169,10.262 254.815,10.262 254.815,10.124 254.307,10.124 254.307,8.969 "/>
<path fill-rule="evenodd" clip-rule="evenodd" d="M257.218,26.569h-1.663v0.139c0.092,0,0.139,0.046,0.231,0.138
	c0.092,0.046,0.139,0.139,0.185,0.231h0.185c0-0.046-0.047-0.092-0.093-0.185c-0.046-0.046-0.092-0.092-0.138-0.138h1.293V26.569"/>
<path fill-rule="evenodd" clip-rule="evenodd" d="M256.386,26.015c-0.231,0-0.416-0.046-0.508-0.092
	c-0.093-0.046-0.139-0.092-0.139-0.185c0-0.092,0.046-0.138,0.139-0.185c0.092-0.046,0.277-0.092,0.508-0.092
	c0.277,0,0.462,0.046,0.554,0.092c0.093,0.047,0.139,0.093,0.139,0.185c0,0.046-0.046,0.139-0.139,0.185
	C256.848,25.969,256.663,26.015,256.386,26.015 M256.386,26.154c0.323,0,0.554-0.046,0.647-0.092
	c0.138-0.093,0.184-0.185,0.184-0.324c0-0.138-0.046-0.277-0.184-0.323c-0.139-0.092-0.37-0.139-0.647-0.139
	s-0.508,0.047-0.647,0.139c-0.092,0.092-0.185,0.185-0.185,0.323c0,0.139,0.093,0.231,0.231,0.324
	C255.924,26.108,256.109,26.154,256.386,26.154"/>
<path fill-rule="evenodd" clip-rule="evenodd" d="M256.386,24.952c-0.231,0-0.416-0.046-0.508-0.092
	c-0.093-0.046-0.139-0.093-0.139-0.185c0-0.046,0.046-0.139,0.139-0.185c0.092-0.046,0.277-0.092,0.508-0.092
	c0.277,0,0.462,0.046,0.554,0.092c0.093,0.046,0.139,0.139,0.139,0.185c0,0.092-0.046,0.139-0.139,0.185
	C256.848,24.906,256.663,24.952,256.386,24.952 M256.386,25.137c0.323,0,0.554-0.046,0.647-0.139
	c0.138-0.092,0.184-0.184,0.184-0.323s-0.046-0.231-0.184-0.323c-0.139-0.047-0.37-0.093-0.647-0.093s-0.508,0.046-0.647,0.139
	c-0.092,0.046-0.185,0.138-0.185,0.277s0.093,0.277,0.231,0.323C255.924,25.091,256.109,25.137,256.386,25.137"/>
<path fill-rule="evenodd" clip-rule="evenodd" d="M256.386,23.89c-0.231,0-0.416,0-0.508-0.046
	c-0.093-0.046-0.139-0.139-0.139-0.185c0-0.092,0.046-0.138,0.139-0.185c0.092-0.092,0.277-0.092,0.508-0.092
	c0.277,0,0.462,0,0.554,0.046c0.093,0.093,0.139,0.139,0.139,0.231c0,0.046-0.046,0.139-0.139,0.185
	C256.848,23.89,256.663,23.89,256.386,23.89 M256.386,24.075c0.323,0,0.554-0.046,0.647-0.139c0.138-0.046,0.184-0.184,0.184-0.277
	c0-0.138-0.046-0.277-0.184-0.323c-0.139-0.092-0.37-0.139-0.647-0.139s-0.508,0.047-0.647,0.139
	c-0.092,0.092-0.185,0.185-0.185,0.323c0,0.139,0.093,0.231,0.231,0.324C255.924,24.029,256.109,24.075,256.386,24.075"/>
<polygon fill-rule="evenodd" clip-rule="evenodd" points="281.793,25.414 282.809,25.414 282.809,25.229 281.978,25.229 
	281.978,24.675 282.717,24.675 282.717,24.49 281.978,24.49 281.978,23.982 282.763,23.982 282.763,23.797 281.793,23.797 "/>
<path fill-rule="evenodd" clip-rule="evenodd" d="M283.641,24.953v0.185c0.046,0,0.093,0.046,0.139,0.092
	c-0.046,0-0.093,0.046-0.185,0.046s-0.231-0.046-0.323-0.185c-0.093-0.092-0.139-0.277-0.139-0.508c0-0.184,0.046-0.369,0.139-0.462
	c0.092-0.138,0.231-0.184,0.323-0.184s0.185,0.046,0.231,0.092c0.092,0.046,0.139,0.139,0.185,0.231s0.046,0.185,0.046,0.323
	c0,0.231-0.046,0.416-0.139,0.555C283.871,25.045,283.779,24.999,283.641,24.953 M284.057,25.23
	c0.046-0.046,0.092-0.139,0.139-0.277c0.046-0.093,0.046-0.231,0.046-0.37c0-0.138,0-0.323-0.093-0.415
	c-0.046-0.139-0.092-0.231-0.231-0.324c-0.092-0.046-0.184-0.092-0.323-0.092c-0.092,0-0.185,0.046-0.323,0.092
	c-0.093,0.093-0.139,0.185-0.231,0.324c-0.046,0.092-0.046,0.277-0.046,0.461c0,0.231,0.046,0.416,0.138,0.555
	c0.139,0.185,0.277,0.277,0.462,0.277c0.139,0,0.231-0.046,0.37-0.092c0.092,0.092,0.184,0.138,0.277,0.184l0.046-0.138
	C284.195,25.369,284.148,25.322,284.057,25.23"/>
<path fill-rule="evenodd" clip-rule="evenodd" d="M275.141,24.999c0,0.139,0.046,0.231,0.139,0.323
	c0.092,0.093,0.184,0.139,0.277,0.139c0.138,0,0.231-0.046,0.323-0.139c0.092-0.092,0.139-0.231,0.139-0.369
	c0-0.093,0-0.139-0.047-0.185c0-0.092-0.046-0.139-0.046-0.139c-0.046-0.046-0.092-0.092-0.138-0.092
	c0.046-0.046,0.092-0.092,0.138-0.139c0-0.046,0.046-0.138,0.046-0.184c0-0.139-0.046-0.231-0.138-0.324
	c-0.046-0.092-0.139-0.092-0.277-0.092c-0.093,0-0.185,0-0.231,0.092c-0.093,0.093-0.139,0.185-0.139,0.324l0.139,0.046
	c0-0.139,0.046-0.185,0.092-0.231s0.093-0.092,0.139-0.092c0.092,0,0.138,0.046,0.184,0.092c0.047,0.046,0.047,0.092,0.047,0.185
	c0,0.092,0,0.138-0.093,0.184c-0.046,0.047-0.092,0.093-0.184,0.093l-0.047,0.138h0.139c0.046,0,0.138,0.047,0.185,0.093
	c0.046,0.046,0.046,0.138,0.046,0.231c0,0.092,0,0.185-0.046,0.231c-0.093,0.092-0.139,0.092-0.231,0.092
	c-0.139,0-0.231-0.092-0.231-0.323L275.141,24.999"/>
<path fill-rule="evenodd" clip-rule="evenodd" d="M276.342,24.629c0-0.277,0.046-0.462,0.092-0.554
	c0.046-0.093,0.092-0.139,0.185-0.139c0.092,0,0.138,0.046,0.185,0.139c0.046,0.092,0.092,0.277,0.092,0.554
	c0,0.231-0.046,0.416-0.092,0.508c-0.047,0.093-0.093,0.139-0.185,0.139c-0.046,0-0.139-0.046-0.185-0.139
	C276.388,25.045,276.342,24.86,276.342,24.629 M276.203,24.629c0,0.277,0.046,0.508,0.092,0.647
	c0.093,0.092,0.185,0.185,0.324,0.185c0.138,0,0.277-0.093,0.323-0.231c0.093-0.139,0.139-0.324,0.139-0.601
	c0-0.323-0.046-0.554-0.139-0.693c-0.092-0.092-0.185-0.138-0.323-0.138c-0.139,0-0.231,0.046-0.324,0.184
	C276.25,24.121,276.203,24.352,276.203,24.629"/>
<path fill-rule="evenodd" clip-rule="evenodd" d="M277.405,24.629c0-0.277,0-0.462,0.092-0.554c0.046-0.093,0.093-0.139,0.185-0.139
	c0.046,0,0.138,0.046,0.185,0.139c0.046,0.092,0.092,0.277,0.092,0.554c0,0.231-0.046,0.416-0.092,0.508
	c-0.047,0.093-0.139,0.139-0.185,0.139c-0.092,0-0.139-0.046-0.185-0.139C277.451,25.045,277.405,24.86,277.405,24.629
	 M277.22,24.629c0,0.277,0.046,0.508,0.139,0.647c0.092,0.092,0.184,0.185,0.323,0.185c0.138,0,0.231-0.093,0.323-0.231
	c0.046-0.139,0.093-0.324,0.093-0.601c0-0.323-0.047-0.554-0.139-0.693c-0.046-0.092-0.139-0.138-0.277-0.138
	c-0.139,0-0.277,0.046-0.323,0.184C277.266,24.121,277.22,24.352,277.22,24.629"/>
<polygon points="268.443,23.798 268.443,25.414 269.412,25.414 269.412,25.23 268.581,25.23 268.581,24.676 269.366,24.676 
	269.366,24.491 268.581,24.491 268.581,23.983 269.412,23.983 269.412,23.798 "/>
<path fill-rule="evenodd" clip-rule="evenodd" d="M270.29,24.953l-0.046,0.185c0.092,0,0.139,0.046,0.185,0.092
	c-0.046,0-0.093,0.046-0.185,0.046c-0.139,0-0.231-0.046-0.323-0.185c-0.093-0.092-0.139-0.277-0.139-0.508
	c0-0.184,0.046-0.369,0.139-0.462c0.092-0.138,0.184-0.184,0.323-0.184c0.092,0,0.185,0.046,0.231,0.092
	c0.092,0.046,0.139,0.139,0.185,0.231s0.046,0.185,0.046,0.323c0,0.231-0.046,0.416-0.139,0.555
	C270.475,25.045,270.383,24.999,270.29,24.953 M270.706,25.23c0.046-0.046,0.092-0.139,0.139-0.277
	c0.046-0.093,0.046-0.231,0.046-0.37c0-0.138,0-0.323-0.093-0.415c-0.046-0.139-0.138-0.231-0.231-0.324
	c-0.092-0.046-0.184-0.092-0.323-0.092c-0.092,0-0.231,0.046-0.323,0.092c-0.093,0.093-0.139,0.185-0.231,0.324
	c-0.046,0.092-0.093,0.277-0.093,0.461c0,0.231,0.093,0.416,0.185,0.555c0.139,0.185,0.277,0.277,0.462,0.277
	c0.139,0,0.231-0.046,0.323-0.092c0.093,0.092,0.185,0.138,0.324,0.184l0.046-0.138C270.845,25.369,270.798,25.322,270.706,25.23"/>
<path fill-rule="evenodd" clip-rule="evenodd" d="M289.046,33.037c-0.092,0-0.185,0-0.231-0.046
	c-0.092-0.093-0.092-0.139-0.092-0.185c0-0.093,0-0.139,0.092-0.185c0.046-0.092,0.139-0.092,0.277-0.092
	c0.092,0,0.185,0,0.277,0.092c0.046,0.046,0.093,0.092,0.093,0.139c0,0.092-0.047,0.138-0.093,0.184
	C289.277,33.037,289.184,33.037,289.046,33.037 M288.353,32.39c-0.046,0-0.139,0-0.185,0.046c-0.046,0-0.092,0.046-0.092,0.046
	c-0.093,0.093-0.139,0.185-0.139,0.278c0,0.138,0.093,0.277,0.231,0.323c0.139,0.092,0.324,0.138,0.647,0.138
	c0.277,0,0.508-0.046,0.6-0.092c0.139-0.092,0.185-0.231,0.185-0.369c0-0.047,0-0.139-0.046-0.185
	c-0.046-0.093-0.092-0.139-0.185-0.139c-0.092-0.046-0.185-0.092-0.323-0.092c-0.139,0-0.277,0.046-0.37,0.138
	c-0.092,0.093-0.138,0.185-0.138,0.278c0,0.046,0,0.138,0.046,0.184c0.046,0.047,0.092,0.093,0.185,0.139
	c-0.231,0-0.37-0.046-0.462-0.092c-0.139-0.047-0.185-0.139-0.185-0.231c0-0.047,0-0.093,0.092-0.139
	c0-0.046,0.093-0.046,0.139-0.092V32.39"/>
<path fill-rule="evenodd" clip-rule="evenodd" d="M288.768,32.02c-0.231,0-0.416-0.046-0.508-0.092
	c-0.093-0.046-0.139-0.093-0.139-0.185c0-0.046,0.046-0.138,0.139-0.185c0.092-0.046,0.277-0.092,0.508-0.092
	c0.277,0,0.462,0.046,0.554,0.092c0.093,0.047,0.139,0.093,0.139,0.185s-0.046,0.139-0.139,0.185
	C289.23,31.974,289.045,32.02,288.768,32.02 M288.768,32.205c0.323,0,0.554-0.046,0.647-0.139c0.138-0.092,0.184-0.184,0.184-0.323
	c0-0.138-0.046-0.231-0.184-0.323c-0.139-0.046-0.37-0.093-0.647-0.093c-0.277,0-0.508,0.047-0.647,0.139
	c-0.092,0.046-0.185,0.139-0.185,0.277c0,0.139,0.093,0.277,0.231,0.323C288.306,32.159,288.491,32.205,288.768,32.205"/>
<path fill-rule="evenodd" clip-rule="evenodd" d="M288.768,30.957c-0.231,0-0.416,0-0.508-0.046
	c-0.093-0.046-0.139-0.139-0.139-0.185c0-0.092,0.046-0.138,0.139-0.231c0.092-0.046,0.277-0.046,0.508-0.046
	c0.277,0,0.462,0,0.554,0.046c0.093,0.093,0.139,0.139,0.139,0.231c0,0.046-0.046,0.139-0.139,0.185
	C289.23,30.957,289.045,30.957,288.768,30.957 M288.768,31.142c0.323,0,0.554-0.046,0.647-0.139
	c0.138-0.046,0.184-0.184,0.184-0.277c0-0.138-0.046-0.277-0.184-0.323c-0.139-0.092-0.37-0.139-0.647-0.139
	c-0.277,0-0.508,0.047-0.647,0.139c-0.092,0.092-0.185,0.185-0.185,0.323c0,0.139,0.093,0.231,0.231,0.324
	C288.306,31.096,288.491,31.142,288.768,31.142"/>
<line fill="none" stroke="#000000" stroke-width="0.111" stroke-linejoin="bevel" stroke-miterlimit="1.414" x1="277.913" y1="5.967" x2="282.11" y2="0"/>
<polyline fill="none" stroke="#000000" stroke-width="0.333" stroke-linejoin="round" stroke-miterlimit="1.414" points="
	279.114,5.32 277.913,5.967 278.098,4.581 "/>
<line fill="none" stroke="#000000" stroke-width="0.111" stroke-linejoin="bevel" stroke-miterlimit="1.414" stroke-dasharray="2.273,1.386" x1="271.353" y1="20.425" x2="281.192" y2="20.425"/>
<line fill="none" stroke="#000000" stroke-width="0.111" stroke-linejoin="bevel" stroke-miterlimit="1.414" stroke-dasharray="2.273,1.386" x1="271.353" y1="18.809" x2="281.192" y2="18.809"/>
<line fill="none" stroke="#000000" stroke-width="0.111" stroke-linejoin="bevel" stroke-miterlimit="1.414" stroke-dasharray="2.273,1.386" x1="271.353" y1="17.146" x2="281.192" y2="17.146"/>
<line fill="none" stroke="#000000" stroke-width="0.111" stroke-linejoin="bevel" stroke-miterlimit="1.414" stroke-dasharray="2.273,1.386" x1="271.353" y1="15.529" x2="281.192" y2="15.529"/>
<line fill="none" stroke="#000000" stroke-width="0.111" stroke-linejoin="bevel" stroke-miterlimit="1.414" stroke-dasharray="2.273,1.386" x1="271.353" y1="13.912" x2="281.192" y2="13.912"/>
<line fill="none" stroke="#000000" stroke-width="0.111" stroke-linejoin="bevel" stroke-miterlimit="1.414" stroke-dasharray="2.273,1.386" x1="271.353" y1="12.249" x2="281.192" y2="12.249"/>
<line fill="none" stroke="#000000" stroke-width="0.111" stroke-linejoin="bevel" stroke-miterlimit="1.414" stroke-dasharray="2.273,1.386" x1="271.353" y1="10.632" x2="281.192" y2="10.632"/>
<line fill="none" stroke="#000000" stroke-width="0.111" stroke-linejoin="bevel" stroke-miterlimit="1.414" stroke-dasharray="2.273,1.386" x1="271.353" y1="8.969" x2="281.192" y2="8.969"/>
<line fill="none" stroke="#000000" stroke-width="0.111" stroke-linejoin="bevel" stroke-miterlimit="1.414" stroke-dasharray="2.273,1.386" x1="271.353" y1="7.352" x2="281.192" y2="7.352"/>
<line fill="none" stroke="#000000" stroke-width="0.111" stroke-linejoin="bevel" stroke-miterlimit="1.414" stroke-dasharray="2.273,1.386" x1="271.353" y1="5.69" x2="281.192" y2="5.69"/>
<line fill="none" stroke="#000000" stroke-width="0.111" stroke-linejoin="bevel" stroke-miterlimit="1.414" stroke-dasharray="2.273,1.386" x1="271.353" y1="4.073" x2="281.192" y2="4.073"/>
<line fill="none" stroke="#000000" stroke-width="0.111" stroke-linejoin="bevel" stroke-miterlimit="1.414" stroke-dasharray="2.273,1.386" x1="271.353" y1="2.456" x2="281.192" y2="2.456"/>
<line fill="none" stroke="#000000" stroke-width="0.111" stroke-linejoin="bevel" stroke-miterlimit="1.414" stroke-dasharray="2.273,1.386" x1="271.353" y1="0.793" x2="281.192" y2="0.793"/>
<path fill-rule="evenodd" clip-rule="evenodd" d="M291.309,3.657h0.139l0.231-0.97c0-0.046,0.046-0.092,0.046-0.139l0.046,0.139
	l0.185,0.97h0.138l0.277-1.247h-0.138l-0.139,0.785c-0.046,0.139-0.046,0.231-0.046,0.277c-0.046-0.138-0.046-0.277-0.092-0.416
	l-0.139-0.646h-0.185l-0.184,0.831l-0.047,0.231c0-0.092-0.046-0.138-0.046-0.231l-0.138-0.831h-0.139L291.309,3.657"/>
<polygon fill-rule="evenodd" clip-rule="evenodd" points="292.51,3.657 292.649,3.657 292.649,3.056 293.157,3.056 293.157,3.657 
	293.295,3.657 293.295,2.41 293.157,2.41 293.157,2.918 292.649,2.918 292.649,2.41 292.51,2.41 "/>
<polygon fill-rule="evenodd" clip-rule="evenodd" points="293.526,3.657 294.311,3.657 294.311,3.518 293.665,3.518 293.665,3.103 
	294.265,3.103 294.265,2.918 293.665,2.918 293.665,2.548 294.311,2.548 294.311,2.41 293.526,2.41 "/>
<path fill-rule="evenodd" clip-rule="evenodd" d="M294.635,2.964V2.548h0.323c0.092,0,0.139,0,0.185,0.047
	c0.046,0.046,0.046,0.092,0.046,0.138c0,0.046,0,0.093-0.046,0.139c0,0.046-0.046,0.046-0.046,0.046
	c-0.047,0.046-0.093,0.046-0.139,0.046H294.635 M294.496,3.657h0.139V3.103h0.184h0.093c0,0.046,0.046,0.046,0.092,0.092
	c0,0.046,0.046,0.092,0.093,0.185l0.138,0.277h0.185l-0.185-0.323c-0.046-0.093-0.046-0.139-0.092-0.185
	c-0.046,0-0.046-0.046-0.093-0.046c0.093-0.047,0.139-0.047,0.185-0.139c0.046-0.046,0.093-0.138,0.093-0.231
	c0-0.046,0-0.138-0.047-0.185c-0.046-0.046-0.046-0.092-0.092-0.092c-0.046-0.046-0.139-0.046-0.231-0.046h-0.462V3.657"/>
<polygon fill-rule="evenodd" clip-rule="evenodd" points="295.559,3.657 296.298,3.657 296.298,3.518 295.698,3.518 295.698,3.103 
	296.252,3.103 296.252,2.918 295.698,2.918 295.698,2.548 296.298,2.548 296.298,2.41 295.559,2.41 "/>
<path fill-rule="evenodd" clip-rule="evenodd" d="M297.083,3.149l0.139-0.37c0-0.092,0.046-0.184,0.046-0.231
	c0,0.047,0.046,0.139,0.046,0.231l0.139,0.37H297.083 M296.806,3.657h0.139l0.092-0.37h0.462l0.092,0.37h0.185l-0.462-1.247h-0.138
	L296.806,3.657"/>
<path fill-rule="evenodd" clip-rule="evenodd" d="M298.008,3.01V2.548h0.277c0.046,0,0.092,0,0.138,0.047c0,0,0.046,0,0.046,0.046
	c0.047,0.046,0.047,0.092,0.047,0.138c0,0.093-0.047,0.139-0.047,0.185c-0.046,0-0.138,0.046-0.184,0.046H298.008 M297.869,3.657
	h0.139V3.149h0.277c0.138,0,0.231-0.046,0.277-0.093c0.046-0.092,0.092-0.184,0.092-0.277c0-0.092,0-0.184-0.046-0.231
	c-0.046-0.046-0.092-0.092-0.139-0.138h-0.23h-0.37V3.657"/>
<path fill-rule="evenodd" clip-rule="evenodd" d="M298.978,3.01V2.548h0.231c0.092,0,0.138,0,0.184,0.047c0,0,0.046,0,0.046,0.046
	c0,0.046,0.047,0.092,0.047,0.138c0,0.093-0.047,0.139-0.093,0.185c0,0-0.092,0.046-0.184,0.046H298.978 M298.839,3.657h0.139V3.149
	h0.231c0.138,0,0.277-0.046,0.323-0.093c0.046-0.092,0.092-0.184,0.092-0.277c0-0.092-0.046-0.184-0.046-0.231
	c-0.046-0.046-0.092-0.092-0.185-0.138h-0.184h-0.37V3.657"/>
<polygon fill-rule="evenodd" clip-rule="evenodd" points="299.763,3.657 300.409,3.657 300.409,3.518 299.901,3.518 299.901,2.41 
	299.763,2.41 "/>
<rect x="300.594" y="2.41" fill-rule="evenodd" clip-rule="evenodd" width="0.139" height="1.247"/>
<path fill-rule="evenodd" clip-rule="evenodd" d="M301.703,3.241c0,0.092-0.046,0.185-0.092,0.231
	c-0.047,0.046-0.139,0.046-0.185,0.046c-0.093,0-0.185,0-0.231-0.092c-0.093-0.093-0.093-0.231-0.093-0.416
	c0-0.092,0-0.185,0.047-0.277c0-0.046,0.046-0.139,0.092-0.139c0.046-0.046,0.139-0.092,0.185-0.092
	c0.138,0,0.231,0.092,0.277,0.277l0.139-0.046l-0.139-0.277c-0.092-0.047-0.185-0.093-0.277-0.093c-0.093,0-0.185,0.046-0.231,0.093
	c-0.093,0.046-0.139,0.138-0.185,0.231c-0.046,0.092-0.046,0.184-0.046,0.323c0,0.139,0,0.277,0.046,0.37
	c0.046,0.092,0.092,0.184,0.185,0.231c0.046,0.046,0.138,0.092,0.231,0.092c0.092,0,0.185-0.046,0.277-0.139
	c0.046-0.046,0.139-0.138,0.139-0.323H301.703"/>
<path fill-rule="evenodd" clip-rule="evenodd" d="M302.211,3.149l0.093-0.37c0.046-0.092,0.046-0.184,0.092-0.231
	c0,0.047,0,0.139,0.046,0.231l0.139,0.37H302.211 M301.934,3.657h0.139l0.092-0.37h0.416l0.138,0.37h0.139l-0.416-1.247h-0.138
	L301.934,3.657"/>
<path fill-rule="evenodd" clip-rule="evenodd" d="M303.135,3.518V3.103h0.231h0.138c0.046,0,0.046,0.046,0.092,0.092v0.092v0.139
	c-0.046,0.046-0.046,0.046-0.092,0.092h-0.138H303.135 M303.135,2.918v-0.37h0.184h0.139c0.046,0.047,0.092,0.047,0.092,0.093
	c0,0,0.046,0.046,0.046,0.092c0,0.046-0.046,0.093-0.046,0.139c0,0-0.046,0.046-0.092,0.046h-0.139H303.135 M302.996,3.657h0.37
	c0.092,0,0.184,0,0.23-0.046c0.047,0,0.093-0.046,0.139-0.093c0-0.092,0.046-0.138,0.046-0.231c0-0.046-0.046-0.138-0.092-0.184
	c0-0.047-0.046-0.093-0.139-0.093c0.046-0.046,0.093-0.092,0.139-0.138V2.733V2.548c-0.046-0.046-0.093-0.092-0.139-0.092
	c-0.046-0.046-0.092-0.046-0.184-0.046h-0.37V3.657"/>
<polygon fill-rule="evenodd" clip-rule="evenodd" points="303.92,3.657 304.567,3.657 304.567,3.518 304.059,3.518 304.059,2.41 
	303.92,2.41 "/>
<polygon fill-rule="evenodd" clip-rule="evenodd" points="304.752,3.657 305.536,3.657 305.536,3.518 304.891,3.518 304.891,3.103 
	305.445,3.103 305.445,2.918 304.891,2.918 304.891,2.548 305.49,2.548 305.49,2.41 304.752,2.41 "/>
<path fill-rule="evenodd" clip-rule="evenodd" d="M291.124,1.763h0.139V0.701l0.323,1.062h0.092l0.324-1.016v1.016h0.138V0.516
	h-0.184l-0.278,0.877c0,0.093-0.046,0.139-0.046,0.185l-0.046-0.185l-0.231-0.877h-0.231V1.763"/>
<polygon fill-rule="evenodd" clip-rule="evenodd" points="292.371,1.763 293.11,1.763 293.11,1.624 292.463,1.624 292.463,1.209 
	293.064,1.209 293.064,1.07 292.463,1.07 292.463,0.654 293.11,0.654 293.11,0.516 292.371,0.516 "/>
<path fill-rule="evenodd" clip-rule="evenodd" d="M294.034,1.347c0,0.092-0.046,0.185-0.092,0.231
	c-0.047,0.046-0.139,0.092-0.185,0.092c-0.139,0-0.185-0.046-0.277-0.138c-0.047-0.093-0.093-0.231-0.093-0.416
	c0-0.092,0.046-0.185,0.046-0.277c0.047-0.046,0.093-0.093,0.139-0.139c0.046-0.046,0.092-0.046,0.185-0.046
	c0.138,0,0.231,0.092,0.277,0.231h0.139c-0.047-0.139-0.093-0.231-0.185-0.277c-0.046-0.092-0.139-0.092-0.231-0.092
	c-0.093,0-0.185,0-0.231,0.046c-0.093,0.046-0.139,0.138-0.185,0.231c-0.046,0.092-0.092,0.184-0.092,0.323
	c0,0.185,0.046,0.277,0.092,0.37c0.046,0.138,0.092,0.184,0.139,0.231c0.092,0.046,0.184,0.092,0.277,0.092
	c0.092,0,0.185-0.046,0.277-0.139c0.046-0.046,0.092-0.138,0.139-0.277L294.034,1.347"/>
<polygon fill-rule="evenodd" clip-rule="evenodd" points="294.358,1.763 294.497,1.763 294.497,1.163 295.005,1.163 295.005,1.763 
	295.143,1.763 295.143,0.516 295.005,0.516 295.005,1.024 294.497,1.024 294.497,0.516 294.358,0.516 "/>
<path fill-rule="evenodd" clip-rule="evenodd" d="M295.559,1.255l0.139-0.37c0-0.092,0.046-0.138,0.046-0.231
	c0,0.047,0.046,0.139,0.046,0.278l0.139,0.323H295.559 M295.282,1.763h0.139l0.092-0.37h0.462l0.092,0.37h0.185l-0.416-1.247h-0.184
	L295.282,1.763"/>
<polygon fill-rule="evenodd" clip-rule="evenodd" points="296.344,1.763 296.483,1.763 296.483,0.793 296.991,1.763 297.175,1.763 
	297.175,0.516 297.037,0.516 297.037,1.486 296.483,0.516 296.344,0.516 "/>
<rect x="297.407" y="0.516" fill-rule="evenodd" clip-rule="evenodd" width="0.139" height="1.247"/>
<path fill-rule="evenodd" clip-rule="evenodd" d="M298.515,1.347c0,0.092-0.046,0.185-0.092,0.231
	c-0.047,0.046-0.139,0.092-0.185,0.092c-0.139,0-0.185-0.046-0.277-0.138c-0.047-0.093-0.093-0.231-0.093-0.416
	c0-0.092,0.046-0.185,0.046-0.277c0.047-0.046,0.093-0.093,0.139-0.139s0.092-0.046,0.185-0.046c0.138,0,0.231,0.092,0.277,0.231
	h0.139c-0.047-0.139-0.093-0.231-0.185-0.277c-0.046-0.092-0.139-0.092-0.231-0.092c-0.093,0-0.185,0-0.277,0.046
	c-0.047,0.046-0.093,0.138-0.139,0.231c-0.046,0.092-0.092,0.184-0.092,0.323c0,0.185,0.046,0.277,0.092,0.37
	c0.046,0.138,0.092,0.184,0.139,0.231c0.092,0.046,0.184,0.092,0.277,0.092c0.092,0,0.185-0.046,0.277-0.139
	c0.046-0.046,0.092-0.138,0.139-0.277L298.515,1.347"/>
<path fill-rule="evenodd" clip-rule="evenodd" d="M299.023,1.255l0.093-0.37c0.046-0.092,0.046-0.138,0.046-0.231
	c0.046,0.047,0.046,0.139,0.092,0.278l0.093,0.323H299.023 M298.7,1.763h0.139l0.138-0.37h0.416l0.138,0.37h0.139l-0.416-1.247
	h-0.138L298.7,1.763"/>
<polygon fill-rule="evenodd" clip-rule="evenodd" points="299.763,1.763 300.409,1.763 300.409,1.624 299.901,1.624 299.901,0.516 
	299.763,0.516 "/>
<path fill-rule="evenodd" clip-rule="evenodd" d="M301.472,1.301h0.323v0.231c-0.046,0-0.092,0.046-0.138,0.092h-0.185
	c-0.092,0-0.185,0-0.277-0.092c-0.046-0.092-0.093-0.231-0.093-0.37c0-0.138,0-0.231,0.047-0.277
	c0.046-0.092,0.092-0.138,0.138-0.185c0.046-0.046,0.093-0.046,0.185-0.046h0.139c0.046,0.046,0.092,0.046,0.092,0.093
	c0.046,0.046,0.046,0.092,0.046,0.184l0.139-0.046c0-0.092-0.046-0.185-0.093-0.231c0-0.046-0.092-0.092-0.138-0.092
	c-0.046-0.046-0.093-0.046-0.185-0.046s-0.185,0-0.277,0.046c-0.046,0.046-0.139,0.138-0.185,0.231
	c-0.046,0.092-0.046,0.231-0.046,0.369c0,0.139,0,0.231,0.046,0.324c0.046,0.092,0.139,0.185,0.185,0.231
	c0.092,0.046,0.185,0.092,0.277,0.092s0.139-0.046,0.231-0.046c0.046-0.046,0.139-0.092,0.185-0.185V1.116h-0.416V1.301"/>
<path fill-rule="evenodd" clip-rule="evenodd" d="M302.257,1.07V0.654h0.323c0.046,0,0.139,0,0.139,0.047
	c0.046,0.046,0.092,0.092,0.092,0.184c0,0-0.046,0.047-0.046,0.093c-0.046,0.046-0.046,0.046-0.093,0.092h-0.138H302.257
	 M302.118,1.763h0.139V1.209h0.138c0.046,0,0.093,0,0.093,0.046c0.046,0,0.046,0,0.092,0.046s0.092,0.092,0.139,0.231l0.138,0.231
	h0.139l-0.185-0.323c0-0.047-0.046-0.139-0.092-0.185c0,0-0.047-0.046-0.093-0.046c0.093,0,0.185-0.046,0.231-0.139
	c0.046-0.046,0.092-0.092,0.092-0.231c0-0.046-0.046-0.092-0.046-0.185c-0.046-0.046-0.092-0.092-0.138-0.092
	c-0.046-0.046-0.093-0.046-0.185-0.046h-0.462V1.763"/>
<rect x="303.181" y="0.516" fill-rule="evenodd" clip-rule="evenodd" width="0.139" height="1.247"/>
<polygon fill-rule="evenodd" clip-rule="evenodd" points="303.55,1.763 304.197,1.763 304.197,1.624 303.689,1.624 303.689,0.516 
	303.55,0.516 "/>
<polygon fill-rule="evenodd" clip-rule="evenodd" points="304.336,1.763 304.983,1.763 304.983,1.624 304.475,1.624 304.475,0.516 
	304.336,0.516 "/>
<polygon fill-rule="evenodd" clip-rule="evenodd" points="305.167,1.763 305.906,1.763 305.906,1.624 305.306,1.624 305.306,1.209 
	305.86,1.209 305.86,1.07 305.306,1.07 305.306,0.654 305.906,0.654 305.906,0.516 305.167,0.516 "/>
<path fill-rule="evenodd" clip-rule="evenodd" d="M291.448-0.131h0.139l0.415-1.247h-0.138l-0.277,0.924
	c-0.047,0.046-0.047,0.092-0.047,0.092c0,0.046,0,0.092-0.046,0.139c0-0.093,0-0.139-0.046-0.231l-0.277-0.924h-0.139L291.448-0.131
	"/>
<rect x="292.14" y="-1.378" fill-rule="evenodd" clip-rule="evenodd" width="0.139" height="1.247"/>
<path fill-rule="evenodd" clip-rule="evenodd" d="M292.464-0.5c0,0.046,0,0.092,0.046,0.185c0,0.046,0.046,0.092,0.093,0.092
	c0.046,0.093,0.138,0.139,0.277,0.139c0.092,0,0.138,0,0.231-0.046c0.046-0.047,0.092-0.093,0.138-0.139
	c0-0.046,0.046-0.139,0.046-0.185c0-0.092-0.046-0.138-0.046-0.185c-0.046-0.046-0.092-0.092-0.138-0.138
	c-0.046,0-0.139-0.046-0.231-0.093c-0.093,0-0.185-0.046-0.185-0.046c-0.046-0.046-0.046-0.092-0.046-0.138
	c0-0.047,0-0.093,0.046-0.139c0.046-0.046,0.092-0.046,0.185-0.046c0.046,0,0.138,0,0.185,0.046
	c0.046,0.046,0.046,0.092,0.046,0.185h0.138c0-0.093,0-0.139-0.046-0.185c-0.046-0.092-0.092-0.138-0.138-0.138
	c-0.047-0.047-0.139-0.047-0.185-0.047c-0.139,0-0.231,0.047-0.277,0.093c-0.047,0.046-0.093,0.138-0.093,0.231
	c0,0.092,0,0.138,0.046,0.184c0,0.047,0.047,0.047,0.093,0.093c0.046,0.046,0.092,0.046,0.185,0.092
	c0.138,0.046,0.184,0.046,0.231,0.093c0,0,0.046,0,0.046,0.046c0.046,0.046,0.046,0.046,0.046,0.092s-0.046,0.139-0.092,0.139
	c-0.047,0.046-0.093,0.092-0.185,0.092c-0.046,0-0.093-0.046-0.139-0.046c-0.046-0.046-0.092-0.046-0.092-0.092
	c-0.046-0.047-0.046-0.093-0.046-0.185L292.464-0.5"/>
<rect x="293.48" y="-1.378" fill-rule="evenodd" clip-rule="evenodd" width="0.139" height="1.247"/>
<path fill-rule="evenodd" clip-rule="evenodd" d="M293.989-0.731c0-0.185,0-0.277,0.092-0.37c0.046-0.092,0.139-0.138,0.231-0.138
	c0.092,0,0.139,0,0.185,0.046c0.046,0.046,0.092,0.092,0.138,0.185c0.047,0.046,0.047,0.138,0.047,0.277
	c0,0.139-0.047,0.277-0.093,0.37c-0.092,0.092-0.185,0.138-0.277,0.138c-0.092,0-0.185-0.046-0.231-0.138
	C293.989-0.454,293.989-0.546,293.989-0.731 M293.85-0.731c0,0.185,0.046,0.323,0.092,0.462c0.093,0.139,0.231,0.185,0.37,0.185
	c0.185,0,0.277-0.046,0.37-0.185c0.092-0.139,0.138-0.277,0.138-0.462c0-0.139-0.046-0.277-0.046-0.37
	c-0.046-0.092-0.139-0.138-0.185-0.231c-0.092-0.046-0.185-0.046-0.277-0.046c-0.139,0-0.231,0.046-0.323,0.185
	C293.896-1.101,293.85-0.916,293.85-0.731"/>
<polygon fill-rule="evenodd" clip-rule="evenodd" points="295.005,-0.131 295.096,-0.131 295.096,-1.101 295.651,-0.131 
	295.789,-0.131 295.789,-1.378 295.651,-1.378 295.651,-0.362 295.143,-1.378 295.005,-1.378 "/>
<path fill-rule="evenodd" clip-rule="evenodd" d="M296.576-0.778V-1.24h0.277c0.046,0,0.092,0.047,0.138,0.047
	c0,0,0.046,0.046,0.046,0.092c0.047,0,0.047,0.046,0.047,0.092c0,0.093-0.047,0.139-0.047,0.185
	c-0.046,0.046-0.138,0.046-0.184,0.046H296.576 M296.437-0.131h0.139v-0.508h0.231c0.184,0,0.277,0,0.323-0.093
	c0.046-0.046,0.092-0.138,0.092-0.277c0-0.092-0.046-0.138-0.046-0.231c-0.046-0.046-0.092-0.092-0.139-0.092
	c-0.046-0.046-0.138-0.046-0.23-0.046h-0.37V-0.131"/>
<path fill-rule="evenodd" clip-rule="evenodd" d="M297.591-0.639l0.093-0.37c0.046-0.046,0.046-0.138,0.046-0.231
	c0.046,0.093,0.046,0.139,0.092,0.277l0.093,0.324H297.591 M297.268-0.131h0.139l0.138-0.37h0.416l0.138,0.37h0.139l-0.416-1.247
	h-0.138L297.268-0.131"/>
<polygon fill-rule="evenodd" clip-rule="evenodd" points="298.331,-0.131 298.469,-0.131 298.469,-1.101 299.023,-0.131 
	299.162,-0.131 299.162,-1.378 299.023,-1.378 299.023,-0.362 298.469,-1.378 298.331,-1.378 "/>
<polygon fill-rule="evenodd" clip-rule="evenodd" points="299.393,-0.131 300.178,-0.131 300.178,-0.27 299.532,-0.27 
	299.532,-0.685 300.086,-0.685 300.086,-0.824 299.532,-0.824 299.532,-1.24 300.132,-1.24 300.132,-1.378 299.393,-1.378 "/>
<polygon fill-rule="evenodd" clip-rule="evenodd" points="300.317,-0.131 300.964,-0.131 300.964,-0.27 300.456,-0.27 
	300.456,-1.378 300.317,-1.378 "/>
<path fill-rule="evenodd" clip-rule="evenodd" d="M301.657-0.731c0-0.185,0.046-0.277,0.092-0.37
	c0.046-0.092,0.139-0.138,0.277-0.138c0.046,0,0.093,0,0.139,0.046c0.092,0.046,0.092,0.092,0.138,0.185
	c0.046,0.046,0.046,0.138,0.046,0.277c0,0.139-0.046,0.277-0.092,0.37c-0.092,0.092-0.138,0.138-0.277,0.138
	c-0.092,0-0.139-0.046-0.231-0.138C301.703-0.454,301.657-0.546,301.657-0.731 M301.518-0.731c0,0.185,0.046,0.323,0.139,0.462
	c0.092,0.139,0.184,0.185,0.369,0.185c0.139,0,0.231-0.046,0.323-0.185c0.093-0.139,0.139-0.277,0.139-0.462
	c0-0.139,0-0.277-0.046-0.37c-0.046-0.092-0.093-0.138-0.185-0.231c-0.092-0.046-0.185-0.046-0.231-0.046
	c-0.185,0-0.277,0.046-0.369,0.185C301.564-1.101,301.518-0.916,301.518-0.731"/>
<path fill-rule="evenodd" clip-rule="evenodd" d="M302.812-0.824V-1.24h0.323c0.046,0,0.139,0.047,0.185,0.047
	c0,0.046,0.046,0.092,0.046,0.184c0,0.046-0.046,0.093-0.046,0.093c0,0.046-0.046,0.046-0.093,0.092h-0.138H302.812 M302.673-0.131
	h0.139v-0.554h0.138c0.046,0,0.093,0.046,0.139,0.046l0.046,0.046c0.046,0.046,0.092,0.139,0.139,0.231l0.138,0.231h0.185
	l-0.185-0.323c-0.046-0.047-0.092-0.093-0.138-0.139c0-0.046-0.047-0.046-0.093-0.092c0.139,0,0.185-0.047,0.231-0.093
	c0.046-0.092,0.093-0.138,0.093-0.231c0-0.092-0.047-0.138-0.047-0.184c-0.046-0.093-0.092-0.093-0.138-0.139
	c-0.046,0-0.093-0.046-0.185-0.046h-0.462V-0.131"/>
<polyline fill="none" stroke="#000000" stroke-width="0.111" stroke-linejoin="bevel" stroke-miterlimit="1.414" points="271.353,0 
	271.353,21.95 281.192,21.95 281.192,0 "/>
<line fill="none" x1="310.5" y1="0" x2="353.5" y2="0"/>
<line fill="none" x1="286.505" y1="0" x2="310.5" y2="0"/>
<line fill="none" x1="284.749" y1="0" x2="286.505" y2="0"/>
<line fill="none" x1="282.11" y1="0" x2="284.749" y2="0"/>
<line fill="none" x1="281.192" y1="0" x2="282.11" y2="0"/>
<line fill="none" x1="271.353" y1="0" x2="281.192" y2="0"/>
<line fill="none" x1="269.09" y1="0" x2="271.353" y2="0"/>
<line fill="none" x1="267.75" y1="0" x2="269.09" y2="0"/>
<line fill="none" x1="265.234" y1="0" x2="267.75" y2="0"/>
<line fill="none" x1="235.83" y1="0" x2="265.234" y2="0"/>
<line fill="none" x1="234.121" y1="0" x2="235.83" y2="0"/>
<line fill="none" x1="233.151" y1="0" x2="234.121" y2="0"/>
<line fill="none" x1="197.333" y1="0" x2="233.151" y2="0"/>
</svg>
