<?xml version="1.0" encoding="utf-8"?>
<!-- Generator: Adobe Illustrator 18.1.1, SVG Export Plug-In . SVG Version: 6.00 Build 0)  -->
<svg version="1.1" id="Layer_1" xmlns="http://www.w3.org/2000/svg" xmlns:xlink="http://www.w3.org/1999/xlink" x="0px" y="0px"
	 viewBox="0 0 320 52.982" enable-background="new 0 0 320 52.982" xml:space="preserve">
<rect y="0" fill="#FFFFFF" width="320.315" height="52.982"/>
<rect x="2.562" y="7.926" fill="#C5D9F1" width="156.66" height="4.056"/>
<rect x="162.54" y="7.926" fill="#C5D9F1" width="156.819" height="4.056"/>
<rect x="2.562" y="36.161" fill="#C5D9F1" width="156.66" height="4.056"/>
<rect x="162.54" y="36.161" fill="#C5D9F1" width="156.819" height="4.056"/>
<text transform="matrix(1 0 0 1 2.9323 2.6572)"><tspan x="0" y="0" fill="#1D1D1B" font-family="'Arial'" font-size="2.6865">FL-1</tspan><tspan x="5.524" y="0" fill="#1D1D1B" font-family="'Arial'" font-size="2.6865" letter-spacing="6">0</tspan><tspan x="13.484" y="0" fill="#1D1D1B" font-family="'Arial'" font-size="2.6865">Vinyl Sheet Flooring - Armstrong Accolade Safe Plus: Spice Whit</tspan><tspan x="90.68" y="0" fill="#1D1D1B" font-family="'Arial'" font-size="2.6865" letter-spacing="10">e</tspan><tspan x="102.189" y="0" fill="#1D1D1B" font-family="'Arial'" font-size="2.6865">Resilient Floor Finishe</tspan><tspan x="128.766" y="0" fill="#1D1D1B" font-family="'Arial'" font-size="2.6865" letter-spacing="10">s</tspan><tspan x="140.221" y="0" fill="#1D1D1B" font-family="'Arial'" font-size="2.6865">05-50</tspan><tspan x="147.092" y="0" fill="#1D1D1B" font-family="'Arial'" font-size="2.6865" letter-spacing="11">0</tspan><tspan x="160.13" y="0" fill="#1D1D1B" font-family="'Arial'" font-size="2.6865">FL-2</tspan><tspan x="165.653" y="0" fill="#1D1D1B" font-family="'Arial'" font-size="2.6865" letter-spacing="6">0</tspan><tspan x="173.614" y="0" fill="#1D1D1B" font-family="'Arial'" font-size="2.6865">Vinyl Sheet Flooring - </tspan></text>
<text transform="matrix(1 0 0 1 202.9829 2.6572)" fill="#1D1D1B" font-family="'Arial'" font-size="2.6865">Tarkett IQ Optima: 824 colour.</text>
<text transform="matrix(1 0 0 1 265.2616 2.6572)"><tspan x="0" y="0" fill="#1D1D1B" font-family="'Arial'" font-size="2.6865">Resilient Floor Finishe</tspan><tspan x="26.576" y="0" fill="#1D1D1B" font-family="'Arial'" font-size="2.6865" letter-spacing="10">s</tspan><tspan x="38.136" y="0" fill="#1D1D1B" font-family="'Arial'" font-size="2.6865">05-500</tspan></text>
<rect x="0.071" y="0" fill="none" width="319.394" height="52.982"/>
<text transform="matrix(1 0 0 1 146.9478 6.662)" fill="#1D1D1B" font-family="'Arial'" font-size="2.6865">.</text>
<text transform="matrix(1 0 0 1 118.6077 6.662)" fill="#1D1D1B" font-family="'Arial'" font-size="2.6865">.</text>
<text transform="matrix(1 0 0 1 307.0847 6.662)" fill="#1D1D1B" font-family="'Arial'" font-size="2.6865">.</text>
<text transform="matrix(1 0 0 1 278.745 6.662)" fill="#1D1D1B" font-family="'Arial'" font-size="2.6865">.</text>
<text transform="matrix(1 0 0 1 16.4157 10.7178)" fill="#1D1D1B" font-family="'Arial'" font-weight="bolder" font-size="2.6865">Glass Types</text>
<text transform="matrix(1 0 0 1 118.6071 10.7178)" fill="#1D1D1B" font-family="'Arial'" font-weight="bolder" font-size="2.6865">.</text>
<text transform="matrix(1 0 0 1 146.9468 10.7178)" fill="#1D1D1B" font-family="'Arial'" font-weight="bolder" font-size="2.6865">.</text>
<text transform="matrix(1 0 0 1 176.552 10.7178)" fill="#1D1D1B" font-family="'Arial'" font-weight="bolder" font-size="2.6865">Glass Types</text>
<text transform="matrix(1 0 0 1 2.9296 14.669)"><tspan x="0" y="0" fill="#1D1D1B" font-family="'Arial'" font-size="2.6865">VG-0</tspan><tspan x="6.27" y="0" fill="#1D1D1B" font-family="'Arial'" font-size="2.6865" letter-spacing="5">1</tspan><tspan x="13.484" y="0" fill="#1D1D1B" font-family="'Arial'" font-size="2.6865">Vision Glass</tspan></text>
<text transform="matrix(1 0 0 1 109.651 14.669)" fill="#1D1D1B" font-family="'Arial'" font-size="2.6865">Façade Glazing</text>
<text transform="matrix(1 0 0 1 163.0616 14.669)"><tspan x="0" y="0" fill="#1D1D1B" font-family="'Arial'" font-size="2.6865">VG-0</tspan><tspan x="6.27" y="0" fill="#1D1D1B" font-family="'Arial'" font-size="2.6865" letter-spacing="5">6</tspan><tspan x="13.484" y="0" fill="#1D1D1B" font-family="'Arial'" font-size="2.6865">Vision Glass</tspan></text>
<text transform="matrix(1 0 0 1 269.782 14.669)" fill="#1D1D1B" font-family="'Arial'" font-size="2.6865">Façade Glazing</text>
<text transform="matrix(1 0 0 1 2.9296 18.6711)"><tspan x="0" y="0" fill="#1D1D1B" font-family="'Arial'" font-size="2.6865">VG-0</tspan><tspan x="6.27" y="0" fill="#1D1D1B" font-family="'Arial'" font-size="2.6865" letter-spacing="5">2</tspan><tspan x="13.484" y="0" fill="#1D1D1B" font-family="'Arial'" font-size="2.6865">Safety Vision Glass</tspan></text>
<text transform="matrix(1 0 0 1 109.651 18.6711)" fill="#1D1D1B" font-family="'Arial'" font-size="2.6865">Façade Glazing</text>
<text transform="matrix(1 0 0 1 163.0616 18.6711)"><tspan x="0" y="0" fill="#1D1D1B" font-family="'Arial'" font-size="2.6865">VG-0</tspan><tspan x="6.27" y="0" fill="#1D1D1B" font-family="'Arial'" font-size="2.6865" letter-spacing="5">7</tspan><tspan x="13.484" y="0" fill="#1D1D1B" font-family="'Arial'" font-size="2.6865">Safety Vision Glass</tspan></text>
<text transform="matrix(1 0 0 1 269.782 18.6711)" fill="#1D1D1B" font-family="'Arial'" font-size="2.6865">Façade Glazing</text>
<text transform="matrix(1 0 0 1 2.9296 22.8864)"><tspan x="0" y="0" fill="#1D1D1B" font-family="'Arial'" font-size="2.6865">VG-0</tspan><tspan x="6.27" y="0" fill="#1D1D1B" font-family="'Arial'" font-size="2.6865" letter-spacing="5">3</tspan><tspan x="13.484" y="0" fill="#1D1D1B" font-family="'Arial'" font-size="2.6865">Spandrel Glass</tspan></text>
<text transform="matrix(1 0 0 1 109.6483 22.8864)" fill="#1D1D1B" font-family="'Arial'" font-size="2.6865">Façade Glazing</text>
<text transform="matrix(1 0 0 1 163.0584 22.8864)"><tspan x="0" y="0" fill="#1D1D1B" font-family="'Arial'" font-size="2.6865">VG-0</tspan><tspan x="6.27" y="0" fill="#1D1D1B" font-family="'Arial'" font-size="2.6865" letter-spacing="5">8</tspan><tspan x="13.484" y="0" fill="#1D1D1B" font-family="'Arial'" font-size="2.6865">Spandrel Glass</tspan></text>
<text transform="matrix(1 0 0 1 269.777 22.8864)" fill="#1D1D1B" font-family="'Arial'" font-size="2.6865">Façade Glazing</text>
<text transform="matrix(1 0 0 1 2.9269 26.8896)"><tspan x="0" y="0" fill="#1D1D1B" font-family="'Arial'" font-size="2.6865">VG-0</tspan><tspan x="6.27" y="0" fill="#1D1D1B" font-family="'Arial'" font-size="2.6865" letter-spacing="5">4</tspan><tspan x="13.484" y="0" fill="#1D1D1B" font-family="'Arial'" font-size="2.6865">Safety Vision Glass</tspan></text>
<text transform="matrix(1 0 0 1 109.6483 26.8896)" fill="#1D1D1B" font-family="'Arial'" font-size="2.6865">Façade Glazing</text>
<text transform="matrix(1 0 0 1 163.0584 26.8896)"><tspan x="0" y="0" fill="#1D1D1B" font-family="'Arial'" font-size="2.6865">VG-0</tspan><tspan x="6.27" y="0" fill="#1D1D1B" font-family="'Arial'" font-size="2.6865" letter-spacing="5">9</tspan><tspan x="13.484" y="0" fill="#1D1D1B" font-family="'Arial'" font-size="2.6865">Safety Vision Glass</tspan></text>
<text transform="matrix(1 0 0 1 269.7798 26.8896)" fill="#1D1D1B" font-family="'Arial'" font-size="2.6865">Façade Glazing</text>
<text transform="matrix(1 0 0 1 2.9269 30.8917)"><tspan x="0" y="0" fill="#1D1D1B" font-family="'Arial'" font-size="2.6865">VG-0</tspan><tspan x="6.27" y="0" fill="#1D1D1B" font-family="'Arial'" font-size="2.6865" letter-spacing="5">5</tspan><tspan x="13.484" y="0" fill="#1D1D1B" font-family="'Arial'" font-size="2.6865">Laminated Safety Glass</tspan></text>
<text transform="matrix(1 0 0 1 109.753 30.8917)" fill="#1D1D1B" font-family="'Arial'" font-size="2.6865">Façade Glazing</text>
<text transform="matrix(1 0 0 1 163.0584 30.8917)"><tspan x="0" y="0" fill="#1D1D1B" font-family="'Arial'" font-size="2.6865">VG-1</tspan><tspan x="6.27" y="0" fill="#1D1D1B" font-family="'Arial'" font-size="2.6865" letter-spacing="5">0</tspan><tspan x="13.484" y="0" fill="#1D1D1B" font-family="'Arial'" font-size="2.6865">Laminated Safety Glass</tspan></text>
<text transform="matrix(1 0 0 1 269.8845 30.8917)" fill="#1D1D1B" font-family="'Arial'" font-size="2.6865">Façade Glazing</text>
<text transform="matrix(1 0 0 1 146.9447 34.8954)" fill="#1D1D1B" font-family="'Arial'" font-size="2.6865">.</text>
<text transform="matrix(1 0 0 1 118.605 34.8954)" fill="#1D1D1B" font-family="'Arial'" font-size="2.6865">.</text>
<text transform="matrix(1 0 0 1 16.4151 38.9523)" fill="#1D1D1B" font-family="'Arial'" font-weight="bolder" font-size="2.6865">Internal Linings</text>
<text transform="matrix(1 0 0 1 118.6092 38.9523)" fill="#1D1D1B" font-family="'Arial'" font-weight="bolder" font-size="2.6865">.</text>
<text transform="matrix(1 0 0 1 147.0536 38.9523)" fill="#1D1D1B" font-family="'Arial'" font-weight="bolder" font-size="2.6865">.</text>
<text transform="matrix(1 0 0 1 176.5541 38.9523)" fill="#1D1D1B" font-family="'Arial'" font-weight="bolder" font-size="2.6865">Internal Linings</text>
<text transform="matrix(1 0 0 1 278.7488 38.9523)" fill="#1D1D1B" font-family="'Arial'" font-weight="bolder" font-size="2.6865">.</text>
<text transform="matrix(1 0 0 1 307.1932 38.9523)" fill="#1D1D1B" font-family="'Arial'" font-weight="bolder" font-size="2.6865">.</text>
<text transform="matrix(1 0 0 1 2.9258 42.9045)"><tspan x="0" y="0" fill="#1D1D1B" font-family="'Arial'" font-size="2.6865">IL-0</tspan><tspan x="4.629" y="0" fill="#1D1D1B" font-family="'Arial'" font-size="2.6865" letter-spacing="7">1</tspan><tspan x="13.484" y="0" fill="#1D1D1B" font-family="'Arial'" font-size="2.6865">Plasterboard</tspan></text>
<text transform="matrix(1 0 0 1 113.3841 42.9045)" fill="#1D1D1B" font-family="'Arial'" font-size="2.6865">Partitions</text>
<text transform="matrix(1 0 0 1 143.2497 42.9045)"><tspan x="0" y="0" fill="#1D1D1B" font-family="'Arial'" font-size="2.6865">05-10</tspan><tspan x="6.871" y="0" fill="#1D1D1B" font-family="'Arial'" font-size="2.6865" letter-spacing="11">0</tspan><tspan x="19.804" y="0" fill="#1D1D1B" font-family="'Arial'" font-size="2.6865">IL-0</tspan><tspan x="24.434" y="0" fill="#1D1D1B" font-family="'Arial'" font-size="2.6865" letter-spacing="7">9</tspan><tspan x="33.289" y="0" fill="#1D1D1B" font-family="'Arial'" font-size="2.6865">Sheet Wall Vinyl </tspan></text>
<text transform="matrix(1 0 0 1 263.3475 42.9045)"><tspan x="0" y="0" fill="#1D1D1B" font-family="'Arial'" font-size="2.6865">Painting and Wall Finishe</tspan><tspan x="30.313" y="0" fill="#1D1D1B" font-family="'Arial'" font-size="2.6865" letter-spacing="8">s</tspan><tspan x="40.033" y="0" fill="#1D1D1B" font-family="'Arial'" font-size="2.6865">05-500</tspan></text>
<text transform="matrix(1 0 0 1 2.9231 46.9072)"><tspan x="0" y="0" fill="#1D1D1B" font-family="'Arial'" font-size="2.6865">IL-0</tspan><tspan x="4.629" y="0" fill="#1D1D1B" font-family="'Arial'" font-size="2.6865" letter-spacing="7">2</tspan><tspan x="13.484" y="0" fill="#1D1D1B" font-family="'Arial'" font-size="2.6865">Fire resistant plasterboard</tspan></text>
<text transform="matrix(1 0 0 1 113.3814 46.9072)" fill="#1D1D1B" font-family="'Arial'" font-size="2.6865">Partitions</text>
<text transform="matrix(1 0 0 1 143.2469 46.9072)"><tspan x="0" y="0" fill="#1D1D1B" font-family="'Arial'" font-size="2.6865">05-10</tspan><tspan x="6.871" y="0" fill="#1D1D1B" font-family="'Arial'" font-size="2.6865" letter-spacing="11">0</tspan><tspan x="19.804" y="0" fill="#1D1D1B" font-family="'Arial'" font-size="2.6865">IL-1</tspan><tspan x="24.434" y="0" fill="#1D1D1B" font-family="'Arial'" font-size="2.6865" letter-spacing="7">0</tspan><tspan x="33.289" y="0" fill="#1D1D1B" font-family="'Arial'" font-size="2.6865">Sheet Wall Vinyl </tspan></text>
<text transform="matrix(1 0 0 1 263.3444 46.9072)"><tspan x="0" y="0" fill="#1D1D1B" font-family="'Arial'" font-size="2.6865">Painting and Wall Finishe</tspan><tspan x="30.313" y="0" fill="#1D1D1B" font-family="'Arial'" font-size="2.6865" letter-spacing="8">s</tspan><tspan x="40.033" y="0" fill="#1D1D1B" font-family="'Arial'" font-size="2.6865">05-500</tspan></text>
<text transform="matrix(1 0 0 1 2.9231 50.9103)"><tspan x="0" y="0" fill="#1D1D1B" font-family="'Arial'" font-size="2.6865">IL-0</tspan><tspan x="4.629" y="0" fill="#1D1D1B" font-family="'Arial'" font-size="2.6865" letter-spacing="7">3</tspan><tspan x="13.484" y="0" fill="#1D1D1B" font-family="'Arial'" font-size="2.6865">Impact resistant plasterboard</tspan></text>
<text transform="matrix(1 0 0 1 113.3814 50.9103)" fill="#1D1D1B" font-family="'Arial'" font-size="2.6865">Partitions</text>
<text transform="matrix(1 0 0 1 143.2469 50.9103)"><tspan x="0" y="0" fill="#1D1D1B" font-family="'Arial'" font-size="2.6865">05-10</tspan><tspan x="6.871" y="0" fill="#1D1D1B" font-family="'Arial'" font-size="2.6865" letter-spacing="11">0</tspan><tspan x="19.804" y="0" fill="#1D1D1B" font-family="'Arial'" font-size="2.6865">IL-1</tspan><tspan x="24.434" y="0" fill="#1D1D1B" font-family="'Arial'" font-size="2.6865" letter-spacing="7">1</tspan><tspan x="33.289" y="0" fill="#1D1D1B" font-family="'Arial'" font-size="2.6865">Sheet Wall Vinyl </tspan></text>
<text transform="matrix(1 0 0 1 263.3444 50.9103)"><tspan x="0" y="0" fill="#1D1D1B" font-family="'Arial'" font-size="2.6865">Painting and Wall Finishe</tspan><tspan x="30.313" y="0" fill="#1D1D1B" font-family="'Arial'" font-size="2.6865" letter-spacing="8">s</tspan><tspan x="40.033" y="0" fill="#1D1D1B" font-family="'Arial'" font-size="2.6865">05-500</tspan></text>
<rect x="0.071" y="0" fill="none" width="319.394" height="52.982"/>
<rect x="2.562" fill="#1D1D1B" width="156.766" height="0.077"/>
<rect x="2.562" y="3.817" fill="#1D1D1B" width="156.766" height="0.263"/>
<rect x="2.562" y="7.82" fill="#1D1D1B" width="156.766" height="0.264"/>
<rect x="2.562" y="11.824" fill="#1D1D1B" width="156.766" height="0.264"/>
<rect x="2.562" y="15.827" fill="#1D1D1B" width="156.766" height="0.264"/>
<rect x="2.562" y="20.042" fill="#1D1D1B" width="156.766" height="0.263"/>
<rect x="2.562" y="24.045" fill="#1D1D1B" width="156.766" height="0.264"/>
<rect x="2.562" y="28.048" fill="#1D1D1B" width="156.766" height="0.264"/>
<rect x="2.562" y="32.051" fill="#1D1D1B" width="156.766" height="0.264"/>
<rect x="2.562" y="36.055" fill="#1D1D1B" width="156.766" height="0.263"/>
<rect x="2.562" y="40.058" fill="#1D1D1B" width="156.766" height="0.264"/>
<rect x="2.562" y="44.062" fill="#1D1D1B" width="156.766" height="0.264"/>
<rect x="2.562" y="48.065" fill="#1D1D1B" width="156.766" height="0.264"/>
<rect x="2.562" y="52.069" fill="#1D1D1B" width="156.766" height="0.263"/>
<rect x="2.298" y="0" fill="#1D1D1B" width="0.264" height="52.982"/>
<rect x="15.784" y="0" fill="#1D1D1B" width="0.263" height="52.982"/>
<rect x="102.383" y="0" fill="#1D1D1B" width="0.264" height="52.982"/>
<rect x="135.254" y="0" fill="#1D1D1B" width="0.263" height="52.982"/>
<rect x="159.064" y="0" fill="#1D1D1B" width="0.264" height="52.982"/>
<rect x="162.435" y="0" fill="#1D1D1B" width="0.264" height="52.982"/>
<rect x="175.921" y="0" fill="#1D1D1B" width="0.263" height="52.982"/>
<rect x="262.52" y="0" fill="#1D1D1B" width="0.264" height="52.982"/>
<rect x="295.391" y="0" fill="#1D1D1B" width="0.263" height="52.982"/>
<rect x="319.201" y="0" fill="#1D1D1B" width="0.264" height="52.982"/>
<rect x="162.699" fill="#1D1D1B" width="156.766" height="0.077"/>
<rect x="162.699" y="3.817" fill="#1D1D1B" width="156.766" height="0.263"/>
<rect x="162.699" y="7.82" fill="#1D1D1B" width="156.766" height="0.264"/>
<rect x="162.699" y="11.824" fill="#1D1D1B" width="156.766" height="0.264"/>
<rect x="162.699" y="15.827" fill="#1D1D1B" width="156.766" height="0.264"/>
<rect x="162.699" y="20.042" fill="#1D1D1B" width="156.766" height="0.263"/>
<rect x="162.699" y="24.045" fill="#1D1D1B" width="156.766" height="0.264"/>
<rect x="162.699" y="28.048" fill="#1D1D1B" width="156.766" height="0.264"/>
<rect x="162.699" y="32.051" fill="#1D1D1B" width="156.766" height="0.264"/>
<rect x="162.699" y="36.055" fill="#1D1D1B" width="156.766" height="0.263"/>
<rect x="162.699" y="40.058" fill="#1D1D1B" width="156.766" height="0.264"/>
<rect x="162.699" y="44.062" fill="#1D1D1B" width="156.766" height="0.264"/>
<rect x="162.699" y="48.065" fill="#1D1D1B" width="156.766" height="0.264"/>
<rect x="162.699" y="52.069" fill="#1D1D1B" width="156.766" height="0.263"/>
</svg>
