<?xml version="1.0" standalone="no"?>
<!DOCTYPE svg PUBLIC "-//W3C//DTD SVG 20010904//EN"
 "http://www.w3.org/TR/2001/REC-SVG-20010904/DTD/svg10.dtd">
<svg version="1.0" xmlns="http://www.w3.org/2000/svg"
 width="850.000000pt" height="850.000000pt" viewBox="0 0 850.000000 850.000000"
 preserveAspectRatio="xMidYMid meet">
<metadata>
Created by potrace 1.11, written by Peter Selinger 2001-2013
</metadata>
<g transform="translate(0.000000,850.000000) scale(0.100000,-0.100000)"
fill="#000000" stroke="none">
<path d="M1390 8493 c-202 -33 -355 -79 -503 -154 -450 -225 -760 -628 -863
-1124 -18 -87 -19 -190 -19 -2970 0 -2765 1 -2883 19 -2965 138 -638 597
-1104 1236 -1257 71 -17 226 -18 2950 -21 3198 -3 2952 -8 3183 65 491 154
886 549 1040 1040 73 231 68 -15 65 3183 -3 2724 -4 2879 -21 2950 -92 385
-305 716 -602 939 -197 148 -372 229 -630 293 l-90 22 -2870 2 c-1578 1 -2881
0 -2895 -3z m5480 -2122 l0 -490 -367 -3 c-403 -4 -428 -8 -510 -67 -87 -63
-102 -152 -103 -608 l0 -293 453 -2 453 -3 -53 -480 c-29 -264 -52 -483 -53
-487 0 -5 -180 -8 -400 -8 l-400 0 0 -1475 0 -1475 -660 0 -660 0 0 1475 0
1475 -255 0 -255 0 0 490 0 490 255 0 255 0 0 323 c0 462 14 639 66 834 125
471 454 724 1014 782 47 4 340 9 653 10 l567 1 0 -489z"/>
</g>
</svg>
