<?xml version="1.0" encoding="utf-8"?>
<!-- Generator: Adobe Illustrator 18.1.1, SVG Export Plug-In . SVG Version: 6.00 Build 0)  -->
<svg id="graphical-elements-proportions" version="1.1" baseProfile="tiny" xmlns="http://www.w3.org/2000/svg" xmlns:xlink="http://www.w3.org/1999/xlink"
	 x="0px" y="0px" viewBox="0 0 191 139" xml:space="preserve">
<g>
	<path fill="#010202" d="M84.1,40.9V26.8v-7.9H2.8v87.4h9v22.1h81.2V40.9H84.1z M111.1,26.8c0-4.4-6.1-7.9-13.5-7.9
		c-7.5,0-13.5,3.6-13.5,7.9c0,4.4,6.1,7.9,13.5,7.9C105.1,34.7,111.1,31.2,111.1,26.8"/>
	<path fill="#010202" d="M137.9,85.8h26.5v-53h-26.5v-30h-31.8v63.6h0v45.9h31.8V99.4c0.2,7.2,6,12.9,13.2,12.9
		c7.3,0,13.2-5.9,13.2-13.2c0-7.3-5.9-13.2-13.2-13.2c-7.2,0-13.1,5.7-13.2,12.9V85.8z"/>
</g>
<polygon fill="#010202" points="167,88.8 167,68 188.2,68 188.2,26.6 167,26.6 135.2,26.6 135.2,88.8 145.8,88.8 145.8,102.1 
	167,102.1 167,136.1 188.2,136.1 188.2,94.7 167,94.7 "/>
</svg>
