<?xml version="1.0" standalone="no"?>
<!DOCTYPE svg PUBLIC "-//W3C//DTD SVG 20010904//EN"
 "http://www.w3.org/TR/2001/REC-SVG-20010904/DTD/svg10.dtd">
<svg version="1.0" xmlns="http://www.w3.org/2000/svg"
 width="500.000000pt" height="500.000000pt" viewBox="0 0 500.000000 500.000000"
 preserveAspectRatio="xMidYMid meet">
<metadata>
Created by potrace 1.11, written by Peter Selinger 2001-2013
</metadata>
<g transform="translate(0.000000,500.000000) scale(0.100000,-0.100000)"
fill="#000000" stroke="none">
<path d="M440 4981 c-192 -6 -196 -6 -248 -35 -67 -38 -126 -102 -160 -174
l-27 -57 0 -2230 0 -2230 33 -67 c34 -70 97 -135 164 -169 36 -18 98 -19 2306
-19 l2269 0 61 40 c61 39 106 90 143 162 19 36 19 93 19 2280 l0 2243 -25 53
c-32 69 -105 140 -184 180 l-64 32 -2046 -2 c-1125 -1 -2134 -4 -2241 -7z
m857 -731 c263 -130 323 -463 122 -675 -164 -174 -429 -176 -600 -6 -170 170
-169 424 3 595 100 99 180 128 328 121 69 -4 96 -10 147 -35z m2209 -1091
c131 -14 234 -42 333 -89 67 -33 101 -57 166 -123 68 -68 90 -99 129 -178 27
-56 60 -146 77 -215 30 -116 31 -127 39 -439 5 -176 9 -560 9 -852 l1 -533
-363 0 -364 0 -6 708 c-7 766 -9 785 -63 897 -34 69 -107 137 -171 159 -116
40 -272 29 -384 -27 -78 -39 -126 -99 -171 -212 -31 -79 -31 -82 -39 -325 -4
-135 -8 -460 -8 -722 l-1 -478 -365 0 -365 0 0 1190 0 1190 350 0 350 0 0
-154 c0 -85 4 -157 9 -160 5 -3 27 18 48 47 84 110 177 186 298 242 159 74
301 96 491 74z m-2018 -1241 l2 -1188 -370 0 -370 0 0 1190 0 1190 368 -2 367
-3 3 -1187z"/>
</g>
</svg>
