<svg xmlns="http://www.w3.org/2000/svg" width="92.024" height="31.836" viewBox="0 0 92.024 31.836" class="signature">
  <path d="M38.581 13.455c1.251-.998 2.194-1.964 3.082-2.994 1.222-1.422 2.542-2.732 4.112-3.792.923-.624 1.345-.269 1.625.563.428 1.25.637 2.547.664 4.034 1.737-.981 2.963-2.386 4.446-3.44.656-.468 1.32-1.371 2.135-.952.829.42.799 1.482.783 2.396-.014.92-.103 1.864.269 2.859 1.07-.489 1.563-1.56 2.367-2.286.874-.788 1.681-1.644 2.541-2.442.426-.393.998-.495 1.522-.32.533.178.337.751.394 1.162.134.966.215 1.939.33 3.005 1.743-1.146 2.856-2.843 4.532-3.882.357-.22.597-.661 1.154-.357.526.282.793.656.836 1.272.081 1.262.218 2.525.357 4.051 1.391-1.168 2.623-2.254 3.908-3.269 1.555-1.229 3.269-2.154 5.204-2.7.977-.279 1.503.006 1.856.866.417 1.02.481 2.012.276 3.136-.229 1.24-.852 2.623.391 3.776.368.348.037.71-.186 1.052-.379.567-.906.578-1.43.363-.417-.172-1.006-.288-.901-.981.124-.82.242-1.644.377-2.464.021-.143.143-.27.155-.409.11-1.075.334-2.343-.473-3.082-.907-.826-1.953.104-2.838.509-2.24 1.019-3.726 2.993-5.503 4.591-.328.293-.688.589-.934.952-.347.519-.793.094-1.172.153-.515.083-.234-.5-.275-.783-.207-1.598-.22-3.219-.696-4.97-1.829 1.323-3.254 2.915-4.586 4.602-.296.374-.419.767-1.129.584-.797-.199-.503-.662-.53-1.098-.062-.981-.137-1.964-.201-2.948-.021-.304-.06-.661-.34-.777-.316-.137-.511.221-.701.415-1.525 1.592-3.158 3.093-4.299 5.021-.112.188-.029.954-.723.505-.353-.226-.842-.198-.77-.882.146-1.377-.434-2.717-.307-4.112.032-.357-.107-.947-.353-1.076-.419-.221-.788.259-1.11.53-1.343 1.156-2.646 2.354-4.004 3.488-.851.71-1.477.479-1.659-.578-.194-1.108-.394-2.222-.469-3.341-.075-1.156-.68-.86-1.205-.468-1.385 1.035-2.42 2.437-3.609 3.677-.85.888-1.691 1.791-2.439 2.762-.428.552-.888.288-1.323.231-.581-.067-.385-.618-.39-.952-.027-1.874.479-3.725.193-5.753-1.03.705-1.667 1.697-2.345 2.579-.939 1.214-2.074 2.232-3.056 3.395-.533.624-1.119.74-1.934.509-.934-.259-.509-.926-.59-1.429-.226-1.471.371-2.904.274-4.645-1.358 1.624-2.55 3.082-3.784 4.508-.925 1.063-1.961 1.896-3.531 1.633-.715-.116-.963-.404-1-1.151-.064-1.361.635-2.448 1.127-3.604.497-1.178 1.043-2.332 1.646-3.456.366-.678.161-.888-.511-.914-1.076-.049-2.157-.164-3.228-.121-2.125.089-4.204-.52-6.304-.425-2.509.114-5.059-.166-7.533.603-.617.194-.856.38-.931 1.041-.549 4.801-.777 9.629-1.148 14.44-.021.242-.103.578.021.729 1.754 2.144-.564 3.881-.554 5.847.002.431-.221.635-.662.535-.417-.094-.761-.258-.629-.793.011-.049.013-.1.029-.148 1.065-3.136.506-6.425.888-9.634.393-3.278.446-6.587.64-9.887.086-1.503.153-3.004.228-4.502.027-.508.28-.888.691-1.178.239.452 1.049-.205 1.119.589.043.431.403.353.684.353 5.359-.032 10.669.86 16.021.931.693.011 1.385-.032 2.073-.057.394-.017 1.03-.589 1.111-.073.089.547.557 1.162-.078 1.881-1.135 1.282-1.952 2.815-2.728 4.354-.226.44-.417.871-.492 1.377-.08.546-.643 1.186.008 1.592.565.347 1.13-.215 1.585-.546 1.937-1.401 3.238-3.429 4.876-5.126.492-.509.839-.894 1.604-.601.989.385.273 1.03.23 1.488-.134 1.503-.408 2.982-.688 4.838 1.926-1.345 3.344-2.668 4.497-4.228.734-.998 1.684-1.797 2.424-2.778.199-.264.35-.557.828-.363.484.204.721.446.672.981-.147 1.614-.276 3.225-.408 4.839-.024.31-.051.624-.096 1.17M87.016 15.693c-.535-.037-.373-.688-.721-.909.535-.546.326-1.839 1.479-1.691.503.062 1.495-.016 1.409.937-.103 1.216-1.227 1.333-2.167 1.663"/>
</svg>
