<?xml version="1.0" encoding="utf-8"?>
<!-- Generator: Adobe Illustrator 18.1.1, SVG Export Plug-In . SVG Version: 6.00 Build 0)  -->
<svg version="1.1" id="Layer_1" xmlns="http://www.w3.org/2000/svg" xmlns:xlink="http://www.w3.org/1999/xlink" x="0px" y="0px"
	 viewBox="0 0 320 65.02" enable-background="new 0 0 320 65.02" xml:space="preserve">
<rect y="0" fill="#ffffff" width="320.315" height="65.019"/>
<rect x="2.562" y="27.945" fill="#c5d9f1" width="156.66" height="4.056"/>
<rect x="162.541" y="27.945" fill="#c5d9f1" width="156.818" height="4.055"/>
<rect x="2.562" y="43.958" fill="#c5d9f1" width="156.66" height="4.056"/>
<rect x="162.541" y="43.958" fill="#c5d9f1" width="156.818" height="4.056"/>
<text transform="matrix(1 0 0 1 2.9305 2.6607)"><tspan x="0" y="0" font-family="'Arial'" font-size="2.6865">AM-0</tspan><tspan x="6.418" y="0" font-family="'Arial'" font-size="2.6865" letter-spacing="5">7</tspan><tspan x="13.484" y="0" font-family="'Arial'" font-size="2.6865">Accessible WC Grab rails</tspan></text>
<text transform="matrix(1 0 0 1 112.4942 2.6607)" font-family="'Arial'" font-size="2.6865"> Metalwork</text>
<text transform="matrix(1 0 0 1 143.1501 2.6607)"><tspan x="0" y="0" font-family="'Arial'" font-size="2.6865">05-80</tspan><tspan x="6.871" y="0" font-family="'Arial'" font-size="2.6865" letter-spacing="11">0</tspan><tspan x="19.909" y="0" font-family="'Arial'" font-size="2.6865">AM-2</tspan><tspan x="26.327" y="0" font-family="'Arial'" font-size="2.6865" letter-spacing="5">3</tspan><tspan x="33.394" y="0" font-family="'Arial'" font-size="2.6865">Coathook</tspan></text>
<text transform="matrix(1 0 0 1 272.623 2.6607)" font-family="'Arial'" font-size="2.6865"> Metalwork</text>
<text transform="matrix(1 0 0 1 303.2891 2.715)" font-family="'Arial'" font-size="2.6865">05-800</text>
<rect x="0.072" y="0.001" fill="none" width="319.393" height="65.019"/>
<text transform="matrix(1 0 0 1 2.9305 6.6634)"><tspan x="0" y="0" font-family="'Arial'" font-size="2.6865">AM-0</tspan><tspan x="6.418" y="0" font-family="'Arial'" font-size="2.6865" letter-spacing="5">9</tspan><tspan x="13.484" y="0" font-family="'Arial'" font-size="2.6865">Curtain Track</tspan></text>
<text transform="matrix(1 0 0 1 107.7554 6.6634)"><tspan x="0" y="0" font-family="'Arial'" font-size="2.6865">Window Covering</tspan><tspan x="21.052" y="0" font-family="'Arial'" font-size="2.6865" letter-spacing="13">s</tspan><tspan x="35.398" y="0" font-family="'Arial'" font-size="2.6865">06-20</tspan><tspan x="42.269" y="0" font-family="'Arial'" font-size="2.6865" letter-spacing="11">0</tspan><tspan x="55.307" y="0" font-family="'Arial'" font-size="2.6865">AM-2</tspan><tspan x="61.726" y="0" font-family="'Arial'" font-size="2.6865" letter-spacing="5">4</tspan><tspan x="68.792" y="0" font-family="'Arial'" font-size="2.6865">Hook: Equipment </tspan></text>
<text transform="matrix(1 0 0 1 272.623 6.6634)" font-family="'Arial'" font-size="2.6865"> Metalwork</text>
<text transform="matrix(1 0 0 1 303.2927 6.717)" font-family="'Arial'" font-size="2.6865">05-800</text>
<text transform="matrix(1 0 0 1 2.9305 10.6687)"><tspan x="0" y="0" font-family="'Arial'" font-size="2.6865">AM-1</tspan><tspan x="6.418" y="0" font-family="'Arial'" font-size="2.6865" letter-spacing="5">1</tspan><tspan x="13.484" y="0" font-family="'Arial'" font-size="2.6865">Metal shelving</tspan></text>
<text transform="matrix(1 0 0 1 112.4942 10.6687)" font-family="'Arial'" font-size="2.6865"> Metalwork</text>
<text transform="matrix(1 0 0 1 143.1501 10.6687)"><tspan x="0" y="0" font-family="'Arial'" font-size="2.6865">05-80</tspan><tspan x="6.871" y="0" font-family="'Arial'" font-size="2.6865" letter-spacing="11">0</tspan><tspan x="19.909" y="0" font-family="'Arial'" font-size="2.6865">AM-2</tspan><tspan x="26.327" y="0" font-family="'Arial'" font-size="2.6865" letter-spacing="5">5</tspan><tspan x="33.394" y="0" font-family="'Arial'" font-size="2.6865">Hook: Catheter Bag </tspan></text>
<text transform="matrix(1 0 0 1 272.623 10.6687)" font-family="'Arial'" font-size="2.6865"> Metalwork</text>
<text transform="matrix(1 0 0 1 303.2891 10.7224)" font-family="'Arial'" font-size="2.6865">05-800</text>
<text transform="matrix(1 0 0 1 2.9277 14.6746)"><tspan x="0" y="0" font-family="'Arial'" font-size="2.6865">AM-1</tspan><tspan x="6.418" y="0" font-family="'Arial'" font-size="2.6865" letter-spacing="5">2</tspan><tspan x="13.484" y="0" font-family="'Arial'" font-size="2.6865">Folding shower seat</tspan></text>
<text transform="matrix(1 0 0 1 112.4915 14.6746)" font-family="'Arial'" font-size="2.6865"> Metalwork</text>
<text transform="matrix(1 0 0 1 143.1474 14.6746)"><tspan x="0" y="0" font-family="'Arial'" font-size="2.6865">05-80</tspan><tspan x="6.871" y="0" font-family="'Arial'" font-size="2.6865" letter-spacing="11">0</tspan><tspan x="19.909" y="0" font-family="'Arial'" font-size="2.6865">AM-2</tspan><tspan x="26.327" y="0" font-family="'Arial'" font-size="2.6865" letter-spacing="5">6</tspan><tspan x="33.394" y="0" font-family="'Arial'" font-size="2.6865">Hook: IV Flask </tspan></text>
<text transform="matrix(1 0 0 1 272.623 14.6746)" font-family="'Arial'" font-size="2.6865"> Metalwork</text>
<text transform="matrix(1 0 0 1 303.2891 14.7278)" font-family="'Arial'" font-size="2.6865">05-800</text>
<text transform="matrix(1 0 0 1 2.9277 18.68)"><tspan x="0" y="0" font-family="'Arial'" font-size="2.6865">AM-1</tspan><tspan x="6.418" y="0" font-family="'Arial'" font-size="2.6865" letter-spacing="5">3</tspan><tspan x="13.484" y="0" font-family="'Arial'" font-size="2.6865">Horizontal Wall Mounted Baby Change Table</tspan></text>
<text transform="matrix(1 0 0 1 112.4861 18.68)" font-family="'Arial'" font-size="2.6865"> Metalwork</text>
<text transform="matrix(1 0 0 1 143.1415 18.68)"><tspan x="0" y="0" font-family="'Arial'" font-size="2.6865">05-80</tspan><tspan x="6.871" y="0" font-family="'Arial'" font-size="2.6865" letter-spacing="11">0</tspan><tspan x="19.909" y="0" font-family="'Arial'" font-size="2.6865">AM-2</tspan><tspan x="26.327" y="0" font-family="'Arial'" font-size="2.6865" letter-spacing="5">7</tspan><tspan x="33.394" y="0" font-family="'Arial'" font-size="2.6865">Utility Wall shelf</tspan></text>
<text transform="matrix(1 0 0 1 272.6149 18.68)" font-family="'Arial'" font-size="2.6865"> Metalwork</text>
<text transform="matrix(1 0 0 1 303.2869 18.7336)" font-family="'Arial'" font-size="2.6865">05-800</text>
<text transform="matrix(1 0 0 1 2.9256 22.6858)"><tspan x="0" y="0" font-family="'Arial'" font-size="2.6865">AM-1</tspan><tspan x="6.418" y="0" font-family="'Arial'" font-size="2.6865" letter-spacing="5">4</tspan><tspan x="13.484" y="0" font-family="'Arial'" font-size="2.6865">Vertical Wall Mounted Baby Change Table.</tspan></text>
<text transform="matrix(1 0 0 1 112.4862 22.6858)" font-family="'Arial'" font-size="2.6865"> Metalwork</text>
<text transform="matrix(1 0 0 1 143.1415 22.6858)"><tspan x="0" y="0" font-family="'Arial'" font-size="2.6865">05-80</tspan><tspan x="6.871" y="0" font-family="'Arial'" font-size="2.6865" letter-spacing="11">0</tspan><tspan x="19.909" y="0" font-family="'Arial'" font-size="2.6865">AM-2</tspan><tspan x="26.327" y="0" font-family="'Arial'" font-size="2.6865" letter-spacing="5">8</tspan><tspan x="33.394" y="0" font-family="'Arial'" font-size="2.6865">Rack - Pan &amp; Bottle</tspan></text>
<text transform="matrix(1 0 0 1 272.6171 22.6858)" font-family="'Arial'" font-size="2.6865"> Metalwork</text>
<text transform="matrix(1 0 0 1 303.2869 22.7395)" font-family="'Arial'" font-size="2.6865">05-800</text>
<g>
	<text transform="matrix(1 0 0 1 147.0486 26.6906)" font-family="'Arial'" font-size="2.6865">.</text>
	<text transform="matrix(1 0 0 1 118.7078 26.6906)" font-family="'Arial'" font-size="2.6865">.</text>
</g>
<g>
	<text transform="matrix(1 0 0 1 307.1902 26.6799)" font-family="'Arial'" font-size="2.6865">.</text>
	<text transform="matrix(1 0 0 1 278.8505 26.6799)" font-family="'Arial'" font-size="2.6865">.</text>
</g>
<rect x="0.072" y="0.001" fill="none" width="319.393" height="65.019"/>
<text transform="matrix(1 0 0 1 16.4154 30.7368)" font-family="'Arial'" font-weight="bolder" font-size="2.6865">Balustrades/ Handrails</text>
<text transform="matrix(1 0 0 1 118.6074 30.7368)" font-family="'Arial'" font-weight="bolder" font-size="2.6865">.</text>
<text transform="matrix(1 0 0 1 146.9471 30.7368)" font-family="'Arial'" font-weight="bolder" font-size="2.6865">.</text>
<text transform="matrix(1 0 0 1 176.5527 30.7368)" font-family="'Arial'" font-weight="bolder" font-size="2.6865">Balustrades/ Handrails</text>
<text transform="matrix(1 0 0 1 278.7442 30.7368)" font-family="'Arial'" font-weight="bolder" font-size="2.6865">.</text>
<text transform="matrix(1 0 0 1 307.0839 30.7368)" font-family="'Arial'" font-weight="bolder" font-size="2.6865">.</text>
<text transform="matrix(1 0 0 1 2.932 34.6884)"><tspan x="0" y="0" font-family="'Arial'" font-size="2.6865">HR-0</tspan><tspan x="6.269" y="0" font-family="'Arial'" font-size="2.6865" letter-spacing="5">1</tspan><tspan x="13.482" y="0" font-family="'Arial'" font-size="2.6865">Timber Handrail</tspan></text>
<text transform="matrix(1 0 0 1 112.6005 34.6884)" font-family="'Arial'" font-size="2.6865"> Metalwork</text>
<text transform="matrix(1 0 0 1 143.2558 34.6884)"><tspan x="0" y="0" font-family="'Arial'" font-size="2.6865">05-80</tspan><tspan x="6.871" y="0" font-family="'Arial'" font-size="2.6865" letter-spacing="11">0</tspan><tspan x="19.805" y="0" font-family="'Arial'" font-size="2.6865">TRM-0</tspan><tspan x="28.012" y="0" font-family="'Arial'" font-size="2.6865" letter-spacing="3">2</tspan><tspan x="33.289" y="0" font-family="'Arial'" font-size="2.6865">Integrated stainless steel nosing</tspan></text>
<text transform="matrix(1 0 0 1 272.7266 34.6884)" font-family="'Arial'" font-size="2.6865"> Metalwork</text>
<text transform="matrix(1 0 0 1 303.3819 34.6884)" font-family="'Arial'" font-size="2.6865">05-800</text>
<text transform="matrix(1 0 0 1 2.932 38.6916)"><tspan x="0" y="0" font-family="'Arial'" font-size="2.6865">HR-0</tspan><tspan x="6.269" y="0" font-family="'Arial'" font-size="2.6865" letter-spacing="5">2</tspan><tspan x="13.482" y="0" font-family="'Arial'" font-size="2.6865">Integrated crashrail and handrail</tspan></text>
<text transform="matrix(1 0 0 1 112.4904 38.6916)" font-family="'Arial'" font-size="2.6865"> Metalwork</text>
<text transform="matrix(1 0 0 1 143.1463 38.6916)"><tspan x="0" y="0" font-family="'Arial'" font-size="2.6865">05-80</tspan><tspan x="6.871" y="0" font-family="'Arial'" font-size="2.6865" letter-spacing="11">0</tspan><tspan x="19.909" y="0" font-family="'Arial'" font-size="2.6865">TRM-0</tspan><tspan x="28.116" y="0" font-family="'Arial'" font-size="2.6865" letter-spacing="3">3</tspan><tspan x="33.394" y="0" font-family="'Arial'" font-size="2.6865">Tactile ground surface indicators</tspan></text>
<text transform="matrix(1 0 0 1 272.616 38.6916)" font-family="'Arial'" font-size="2.6865"> Metalwork</text>
<text transform="matrix(1 0 0 1 303.2714 38.6916)" font-family="'Arial'" font-size="2.6865">05-800</text>
<text transform="matrix(1 0 0 1 118.6074 42.6943)" font-family="'Arial'" font-size="2.6865">.</text>
<text transform="matrix(1 0 0 1 278.7442 42.6943)" font-family="'Arial'" font-size="2.6865">.</text>
<text transform="matrix(1 0 0 1 16.4154 46.7506)" font-family="'Arial'" font-weight="bolder" font-size="2.6865">Blockwork</text>
<text transform="matrix(1 0 0 1 118.6074 46.7506)" font-family="'Arial'" font-weight="bolder" font-size="2.6865">.</text>
<text transform="matrix(1 0 0 1 146.9471 46.7506)" font-family="'Arial'" font-weight="bolder" font-size="2.6865">.</text>
<text transform="matrix(1 0 0 1 176.5527 46.7506)" font-family="'Arial'" font-weight="bolder" font-size="2.6865">Blockwork</text>
<g>
	<text transform="matrix(1 0 0 1 307.085 46.7501)" font-family="'Arial'" font-weight="bolder" font-size="2.6865">.</text>
	<text transform="matrix(1 0 0 1 278.7448 46.7501)" font-family="'Arial'" font-weight="bolder" font-size="2.6865">.</text>
</g>
<rect x="0.072" y="0.001" fill="none" width="319.393" height="65.019"/>
<text transform="matrix(1 0 0 1 2.9304 50.7007)"><tspan x="0" y="0" font-family="'Arial'" font-size="2.6865">BLK-0</tspan><tspan x="7.466" y="0" font-family="'Arial'" font-size="2.6865" letter-spacing="4">1</tspan><tspan x="13.485" y="0" font-family="'Arial'" font-size="2.6865">Face Block work - 190mm</tspan></text>
<text transform="matrix(1 0 0 1 112.5984 50.7007)" font-family="'Arial'" font-size="2.6865">Block work</text>
<text transform="matrix(1 0 0 1 143.2537 50.7007)"><tspan x="0" y="0" font-family="'Arial'" font-size="2.6865">03-65</tspan><tspan x="6.871" y="0" font-family="'Arial'" font-size="2.6865" letter-spacing="11">0</tspan><tspan x="19.805" y="0" font-family="'Arial'" font-size="2.6865">BLK-0</tspan><tspan x="27.271" y="0" font-family="'Arial'" font-size="2.6865" letter-spacing="4">1</tspan><tspan x="33.289" y="0" font-family="'Arial'" font-size="2.6865">Face Block work - 190mm</tspan></text>
<text transform="matrix(1 0 0 1 272.7276 50.7007)" font-family="'Arial'" font-size="2.6865">Block work</text>
<text transform="matrix(1 0 0 1 303.3835 50.7007)" font-family="'Arial'" font-size="2.6865">03-650</text>
<text transform="matrix(1 0 0 1 2.9272 54.7039)"><tspan x="0" y="0" font-family="'Arial'" font-size="2.6865">BLK-0</tspan><tspan x="7.466" y="0" font-family="'Arial'" font-size="2.6865" letter-spacing="4">2</tspan><tspan x="13.485" y="0" font-family="'Arial'" font-size="2.6865">Face Block work - 290mm</tspan></text>
<text transform="matrix(1 0 0 1 112.491 54.7039)" font-family="'Arial'" font-size="2.6865">Block work</text>
<text transform="matrix(1 0 0 1 143.1463 54.7039)"><tspan x="0" y="0" font-family="'Arial'" font-size="2.6865">03-65</tspan><tspan x="6.871" y="0" font-family="'Arial'" font-size="2.6865" letter-spacing="11">0</tspan><tspan x="19.909" y="0" font-family="'Arial'" font-size="2.6865">BLK-0</tspan><tspan x="27.376" y="0" font-family="'Arial'" font-size="2.6865" letter-spacing="4">2</tspan><tspan x="33.394" y="0" font-family="'Arial'" font-size="2.6865">Face Block work - 290mm</tspan></text>
<text transform="matrix(1 0 0 1 272.6192 54.7039)" font-family="'Arial'" font-size="2.6865">Block work</text>
<text transform="matrix(1 0 0 1 303.2761 54.7039)" font-family="'Arial'" font-size="2.6865">03-650</text>
<text transform="matrix(1 0 0 1 2.925 58.707)"><tspan x="0" y="0" font-family="'Arial'" font-size="2.6865">BLK-0</tspan><tspan x="7.466" y="0" font-family="'Arial'" font-size="2.6865" letter-spacing="4">3</tspan><tspan x="13.485" y="0" font-family="'Arial'" font-size="2.6865">Block Work</tspan></text>
<text transform="matrix(1 0 0 1 112.491 58.707)" font-family="'Arial'" font-size="2.6865">Block work</text>
<text transform="matrix(1 0 0 1 143.1463 58.707)"><tspan x="0" y="0" font-family="'Arial'" font-size="2.6865">03-65</tspan><tspan x="6.871" y="0" font-family="'Arial'" font-size="2.6865" letter-spacing="11">0</tspan><tspan x="19.909" y="0" font-family="'Arial'" font-size="2.6865">BLK-0</tspan><tspan x="27.376" y="0" font-family="'Arial'" font-size="2.6865" letter-spacing="4">3</tspan><tspan x="33.394" y="0" font-family="'Arial'" font-size="2.6865">Block Work</tspan></text>
<text transform="matrix(1 0 0 1 272.6219 58.707)" font-family="'Arial'" font-size="2.6865">Block work</text>
<text transform="matrix(1 0 0 1 303.2783 58.707)" font-family="'Arial'" font-size="2.6865">03-650</text>
<text transform="matrix(1 0 0 1 2.925 62.7097)"><tspan x="0" y="0" font-family="'Arial'" font-size="2.6865">BLK-0</tspan><tspan x="7.466" y="0" font-family="'Arial'" font-size="2.6865" letter-spacing="4">4</tspan><tspan x="13.485" y="0" font-family="'Arial'" font-size="2.6865">Common Block work - 140mm</tspan></text>
<text transform="matrix(1 0 0 1 112.4883 62.7097)" font-family="'Arial'" font-size="2.6865">Block work</text>
<text transform="matrix(1 0 0 1 143.1436 62.7097)"><tspan x="0" y="0" font-family="'Arial'" font-size="2.6865">03-65</tspan><tspan x="6.871" y="0" font-family="'Arial'" font-size="2.6865" letter-spacing="11">0</tspan><tspan x="19.909" y="0" font-family="'Arial'" font-size="2.6865">BLK-0</tspan><tspan x="27.376" y="0" font-family="'Arial'" font-size="2.6865" letter-spacing="4">4</tspan><tspan x="33.394" y="0" font-family="'Arial'" font-size="2.6865">Common Block work - 140mm</tspan></text>
<text transform="matrix(1 0 0 1 272.6171 62.7097)" font-family="'Arial'" font-size="2.6865">Block work</text>
<text transform="matrix(1 0 0 1 303.2724 62.7097)" font-family="'Arial'" font-size="2.6865">03-650</text>
<rect x="0.072" y="0.001" fill="none" width="319.393" height="65.019"/>
<rect x="2.562" y="0.001" width="156.766" height="0.077"/>
<rect x="2.562" y="3.819" width="156.766" height="0.264"/>
<rect x="2.562" y="7.822" width="156.766" height="0.264"/>
<rect x="2.562" y="11.825" width="156.766" height="0.264"/>
<rect x="2.562" y="15.829" width="156.766" height="0.263"/>
<rect x="2.562" y="19.832" width="156.766" height="0.264"/>
<rect x="2.562" y="23.835" width="156.766" height="0.264"/>
<rect x="2.562" y="27.839" width="156.766" height="0.264"/>
<rect x="2.562" y="31.843" width="156.766" height="0.263"/>
<rect x="2.562" y="35.846" width="156.766" height="0.264"/>
<rect x="2.562" y="39.849" width="156.766" height="0.264"/>
<rect x="2.562" y="43.852" width="156.766" height="0.264"/>
<rect x="2.562" y="47.857" width="156.766" height="0.263"/>
<rect x="2.562" y="51.86" width="156.766" height="0.264"/>
<rect x="2.562" y="55.863" width="156.766" height="0.264"/>
<rect x="2.562" y="59.866" width="156.766" height="0.264"/>
<rect x="2.562" y="63.87" width="156.766" height="0.263"/>
<rect x="2.299" y="0.001" width="0.263" height="65.019"/>
<rect x="15.784" y="0.001" width="0.264" height="65.019"/>
<rect x="102.384" y="0.001" width="0.264" height="65.019"/>
<rect x="135.254" y="0.001" width="0.264" height="65.019"/>
<rect x="159.065" y="0.001" width="0.263" height="65.019"/>
<rect x="162.436" y="0.001" width="0.263" height="65.019"/>
<rect x="175.921" y="0.001" width="0.264" height="65.019"/>
<rect x="262.521" y="0.001" width="0.263" height="65.019"/>
<rect x="295.391" y="0.001" width="0.264" height="65.019"/>
<rect x="319.202" y="0.001" width="0.263" height="65.019"/>
<rect x="162.699" y="0.001" width="156.766" height="0.077"/>
<rect x="162.699" y="3.819" width="156.766" height="0.264"/>
<rect x="162.699" y="7.822" width="156.766" height="0.264"/>
<rect x="162.699" y="11.825" width="156.766" height="0.264"/>
<rect x="162.699" y="15.829" width="156.766" height="0.263"/>
<rect x="162.699" y="19.832" width="156.766" height="0.264"/>
<rect x="162.699" y="23.835" width="156.766" height="0.264"/>
<rect x="162.699" y="27.839" width="156.766" height="0.264"/>
<rect x="162.699" y="31.843" width="156.766" height="0.263"/>
<rect x="162.699" y="35.846" width="156.766" height="0.264"/>
<rect x="162.699" y="39.849" width="156.766" height="0.264"/>
<rect x="162.699" y="43.852" width="156.766" height="0.264"/>
<rect x="162.699" y="47.857" width="156.766" height="0.263"/>
<rect x="162.699" y="51.86" width="156.766" height="0.264"/>
<rect x="162.699" y="55.863" width="156.766" height="0.264"/>
<rect x="162.699" y="59.866" width="156.766" height="0.264"/>
<rect x="162.699" y="63.87" width="156.766" height="0.263"/>
</svg>
