<?xml version="1.0" encoding="utf-8"?>
<!-- Generator: Adobe Illustrator 18.1.1, SVG Export Plug-In . SVG Version: 6.00 Build 0)  -->
<svg class="Layer_1" xmlns="http://www.w3.org/2000/svg" xmlns:xlink="http://www.w3.org/1999/xlink" x="0px" y="0px"
	 viewBox="0 0 320 65.019" enable-background="new 0 0 320 65.019" xml:space="preserve">
<rect y="0" fill="#ffffff" width="320.315" height="65.019"/>
<rect x="2.562" y="3.928" fill="#c5d9f1" width="156.66" height="4.056"/>
<rect x="162.54" y="3.928" fill="#c5d9f1" width="156.819" height="4.056"/>
<rect x="2.562" y="51.969" fill="#c5d9f1" width="156.66" height="4.056"/>
<rect x="162.54" y="51.969" fill="#c5d9f1" width="156.819" height="4.056"/>
<g>
	<text transform="matrix(1 0 0 1 146.9471 2.664)" font-family="'Arial'" font-size="2.6865">.</text>
	<text transform="matrix(1 0 0 1 118.6074 2.664)" font-family="'Arial'" font-size="2.6865">.</text>
</g>
<g>
	<text transform="matrix(1 0 0 1 307.084 2.664)" font-family="'Arial'" font-size="2.6865">.</text>
	<text transform="matrix(1 0 0 1 278.7442 2.664)" font-family="'Arial'" font-size="2.6865">.</text>
</g>
<rect x="0.072" y="0" fill="none" width="319.393" height="65.019"/>
<text transform="matrix(1 0 0 1 16.4154 6.7204)" font-family="'Arial'" font-weight="bolder" font-size="2.6865">Floor finishes</text>
<text transform="matrix(1 0 0 1 118.7148 6.7204)" font-family="'Arial'" font-weight="bolder" font-size="2.6865">.</text>
<text transform="matrix(1 0 0 1 147.0545 6.7204)" font-family="'Arial'" font-weight="bolder" font-size="2.6865">.</text>
<text transform="matrix(1 0 0 1 176.5554 6.7204)" font-family="'Arial'" font-weight="bolder" font-size="2.6865">Floor finishes</text>
<text transform="matrix(1 0 0 1 278.8543 6.7204)" font-family="'Arial'" font-weight="bolder" font-size="2.6865">.</text>
<text transform="matrix(1 0 0 1 307.195 6.7204)" font-family="'Arial'" font-weight="bolder" font-size="2.6865">.</text>
<text transform="matrix(1 0 0 1 2.9294 10.672)"><tspan x="0" y="0" font-family="'Arial'" font-size="2.6865">FL-0</tspan><tspan x="5.524" y="0" font-family="'Arial'" font-size="2.6865" letter-spacing="6">1</tspan><tspan x="13.484" y="0" font-family="'Arial'" font-size="2.6865">Vinyl Sheet Flooring - Forbo Surestep Natural Oak 1892</tspan></text>
<text transform="matrix(1 0 0 1 105.116 10.672)"><tspan x="0" y="0" font-family="'Arial'" font-size="2.6865">Resilient Floor Finishe</tspan><tspan x="26.576" y="0" font-family="'Arial'" font-size="2.6865" letter-spacing="10">s</tspan><tspan x="38.031" y="0" font-family="'Arial'" font-size="2.6865">05-50</tspan><tspan x="44.902" y="0" font-family="'Arial'" font-size="2.6865" letter-spacing="11">0</tspan><tspan x="57.94" y="0" font-family="'Arial'" font-size="2.6865">FL-1</tspan><tspan x="63.464" y="0" font-family="'Arial'" font-size="2.6865" letter-spacing="6">1</tspan><tspan x="71.425" y="0" font-family="'Arial'" font-size="2.6865">Vinyl Sheet Flooring - Armstrong </tspan></text>
<text transform="matrix(1 0 0 1 216.1192 10.672)"><tspan x="0" y="0" font-family="'Arial'" font-size="2.6865">Accolade Safe Plus: Sand Gre</tspan><tspan x="36.288" y="0" font-family="'Arial'" font-size="2.6865" letter-spacing="11">y</tspan><tspan x="49.138" y="0" font-family="'Arial'" font-size="2.6865">Resilient Floor Finishe</tspan><tspan x="75.714" y="0" font-family="'Arial'" font-size="2.6865" letter-spacing="10">s</tspan><tspan x="87.17" y="0" font-family="'Arial'" font-size="2.6865">05-500</tspan></text>
<text transform="matrix(1 0 0 1 2.932 14.6747)"><tspan x="0" y="0" font-family="'Arial'" font-size="2.6865">FL-0</tspan><tspan x="5.524" y="0" font-family="'Arial'" font-size="2.6865" letter-spacing="6">2</tspan><tspan x="13.484" y="0" font-family="'Arial'" font-size="2.6865">Vinyl Sheet Flooring - Armstrong Accolade Plus: Spice White</tspan></text>
<text transform="matrix(1 0 0 1 105.1181 14.6747)"><tspan x="0" y="0" font-family="'Arial'" font-size="2.6865">Resilient Floor Finishe</tspan><tspan x="26.576" y="0" font-family="'Arial'" font-size="2.6865" letter-spacing="10">s</tspan><tspan x="38.031" y="0" font-family="'Arial'" font-size="2.6865">05-50</tspan><tspan x="44.902" y="0" font-family="'Arial'" font-size="2.6865" letter-spacing="11">0</tspan><tspan x="57.94" y="0" font-family="'Arial'" font-size="2.6865">FL-1</tspan><tspan x="63.464" y="0" font-family="'Arial'" font-size="2.6865" letter-spacing="6">2</tspan><tspan x="71.425" y="0" font-family="'Arial'" font-size="2.6865">Vinyl Sheet Flooring - Altro</tspan></text>
<text transform="matrix(1 0 0 1 208.5085 14.6747)" font-family="'Arial'" font-size="2.6865"> VM20 Cloud VM2014</text>
<text transform="matrix(1 0 0 1 265.2577 14.6747)"><tspan x="0" y="0" font-family="'Arial'" font-size="2.6865">Resilient Floor Finishe</tspan><tspan x="26.576" y="0" font-family="'Arial'" font-size="2.6865" letter-spacing="10">s</tspan><tspan x="38.031" y="0" font-family="'Arial'" font-size="2.6865">05-500</tspan></text>
<text transform="matrix(1 0 0 1 2.932 18.6773)"><tspan x="0" y="0" font-family="'Arial'" font-size="2.6865">FL-0</tspan><tspan x="5.524" y="0" font-family="'Arial'" font-size="2.6865" letter-spacing="6">3</tspan><tspan x="13.484" y="0" font-family="'Arial'" font-size="2.6865">Vinyl Sheet Flooring - Armstrong Accolade Plus: Leaf Green</tspan></text>
<text transform="matrix(1 0 0 1 105.1181 18.6773)"><tspan x="0" y="0" font-family="'Arial'" font-size="2.6865">Resilient Floor Finishe</tspan><tspan x="26.576" y="0" font-family="'Arial'" font-size="2.6865" letter-spacing="10">s</tspan><tspan x="38.031" y="0" font-family="'Arial'" font-size="2.6865">05-50</tspan><tspan x="44.902" y="0" font-family="'Arial'" font-size="2.6865" letter-spacing="11">0</tspan><tspan x="57.94" y="0" font-family="'Arial'" font-size="2.6865">FL-1</tspan><tspan x="63.464" y="0" font-family="'Arial'" font-size="2.6865" letter-spacing="6">3</tspan><tspan x="71.425" y="0" font-family="'Arial'" font-size="2.6865">Vinyl Sheet Flooring  - Forbo</tspan></text>
<text transform="matrix(1 0 0 1 210.749 18.6773)" font-family="'Arial'" font-size="2.6865"> Smaragd Marble</text>
<text transform="matrix(1 0 0 1 265.2608 18.6773)"><tspan x="0" y="0" font-family="'Arial'" font-size="2.6865">Resilient Floor Finishe</tspan><tspan x="26.576" y="0" font-family="'Arial'" font-size="2.6865" letter-spacing="10">s</tspan><tspan x="38.031" y="0" font-family="'Arial'" font-size="2.6865">05-500</tspan></text>
<text transform="matrix(1 0 0 1 2.9348 22.6805)"><tspan x="0" y="0" font-family="'Arial'" font-size="2.6865">FL-0</tspan><tspan x="5.524" y="0" font-family="'Arial'" font-size="2.6865" letter-spacing="6">4</tspan><tspan x="13.484" y="0" font-family="'Arial'" font-size="2.6865">Vinyl Sheet Flooring - Armstrong Accolade Plus: Spring Green</tspan></text>
<text transform="matrix(1 0 0 1 105.1181 22.6805)"><tspan x="0" y="0" font-family="'Arial'" font-size="2.6865">Resilient Floor Finishe</tspan><tspan x="26.576" y="0" font-family="'Arial'" font-size="2.6865" letter-spacing="10">s</tspan><tspan x="38.031" y="0" font-family="'Arial'" font-size="2.6865">05-50</tspan><tspan x="44.902" y="0" font-family="'Arial'" font-size="2.6865" letter-spacing="11">0</tspan><tspan x="57.94" y="0" font-family="'Arial'" font-size="2.6865">FL-1</tspan><tspan x="63.464" y="0" font-family="'Arial'" font-size="2.6865" letter-spacing="6">4</tspan><tspan x="71.425" y="0" font-family="'Arial'" font-size="2.6865">Carpet Tile - Desso Verso 5</tspan></text>
<text transform="matrix(1 0 0 1 209.701 22.6805)" font-family="'Arial'" font-size="2.6865">011642</text>
<text transform="matrix(1 0 0 1 265.2608 22.6805)"><tspan x="0" y="0" font-family="'Arial'" font-size="2.6865">Resilient Floor Finishe</tspan><tspan x="26.576" y="0" font-family="'Arial'" font-size="2.6865" letter-spacing="10">s</tspan><tspan x="38.031" y="0" font-family="'Arial'" font-size="2.6865">05-550</tspan></text>
<text transform="matrix(1 0 0 1 2.9348 26.6837)"><tspan x="0" y="0" font-family="'Arial'" font-size="2.6865">FL-0</tspan><tspan x="5.524" y="0" font-family="'Arial'" font-size="2.6865" letter-spacing="6">5</tspan><tspan x="13.484" y="0" font-family="'Arial'" font-size="2.6865">Vinyl Sheet Flooring - Armstrong Accolade Plus: Lime Green</tspan></text>
<text transform="matrix(1 0 0 1 105.1214 26.6837)"><tspan x="0" y="0" font-family="'Arial'" font-size="2.6865">Resilient Floor Finishe</tspan><tspan x="26.577" y="0" font-family="'Arial'" font-size="2.6865" letter-spacing="10">s</tspan><tspan x="38.032" y="0" font-family="'Arial'" font-size="2.6865">05-50</tspan><tspan x="44.903" y="0" font-family="'Arial'" font-size="2.6865" letter-spacing="11">0</tspan><tspan x="57.941" y="0" font-family="'Arial'" font-size="2.6865">FL-1</tspan><tspan x="63.464" y="0" font-family="'Arial'" font-size="2.6865" letter-spacing="6">5</tspan><tspan x="71.424" y="0" font-family="'Arial'" font-size="2.6865">Carpet Tile - Desso Verso 501</tspan></text>
<text transform="matrix(1 0 0 1 212.6911 26.6837)" font-family="'Arial'" font-size="2.6865">1643</text>
<text transform="matrix(1 0 0 1 265.2635 26.6837)"><tspan x="0" y="0" font-family="'Arial'" font-size="2.6865">Resilient Floor Finishe</tspan><tspan x="26.576" y="0" font-family="'Arial'" font-size="2.6865" letter-spacing="10">s</tspan><tspan x="38.031" y="0" font-family="'Arial'" font-size="2.6865">05-550</tspan></text>
<text transform="matrix(1 0 0 1 2.9374 30.6859)"><tspan x="0" y="0" font-family="'Arial'" font-size="2.6865">FL-0</tspan><tspan x="5.524" y="0" font-family="'Arial'" font-size="2.6865" letter-spacing="6">6</tspan><tspan x="13.484" y="0" font-family="'Arial'" font-size="2.6865">Vinyl Sheet Flooring - Armstrong Accolade Plus: Mint Green</tspan></text>
<text transform="matrix(1 0 0 1 105.124 30.6859)"><tspan x="0" y="0" font-family="'Arial'" font-size="2.6865">Resilient Floor Finishe</tspan><tspan x="26.576" y="0" font-family="'Arial'" font-size="2.6865" letter-spacing="10">s</tspan><tspan x="38.031" y="0" font-family="'Arial'" font-size="2.6865">05-50</tspan><tspan x="44.902" y="0" font-family="'Arial'" font-size="2.6865" letter-spacing="11">0</tspan><tspan x="57.94" y="0" font-family="'Arial'" font-size="2.6865">FL-1</tspan><tspan x="63.464" y="0" font-family="'Arial'" font-size="2.6865" letter-spacing="6">6</tspan><tspan x="71.425" y="0" font-family="'Arial'" font-size="2.6865">Vinyl Sheet Flooring - Tarket</tspan></text>
<text transform="matrix(1 0 0 1 210.6014 30.6859)" font-family="'Arial'" font-size="2.6865">t IQ Optima: 846 colour.</text>
<text transform="matrix(1 0 0 1 265.2663 30.6859)"><tspan x="0" y="0" font-family="'Arial'" font-size="2.6865">Resilient Floor Finishe</tspan><tspan x="26.576" y="0" font-family="'Arial'" font-size="2.6865" letter-spacing="10">s</tspan><tspan x="38.031" y="0" font-family="'Arial'" font-size="2.6865">05-500</tspan></text>
<text transform="matrix(1 0 0 1 2.9374 34.689)"><tspan x="0" y="0" font-family="'Arial'" font-size="2.6865">FL-0</tspan><tspan x="5.524" y="0" font-family="'Arial'" font-size="2.6865" letter-spacing="6">7</tspan><tspan x="13.484" y="0" font-family="'Arial'" font-size="2.6865">Vinyl Sheet Flooring - Forbo Smaragd Marble</tspan></text>
<text transform="matrix(1 0 0 1 105.124 34.689)"><tspan x="0" y="0" font-family="'Arial'" font-size="2.6865">Resilient Floor Finishe</tspan><tspan x="26.576" y="0" font-family="'Arial'" font-size="2.6865" letter-spacing="10">s</tspan><tspan x="38.136" y="0" font-family="'Arial'" font-size="2.6865">05-50</tspan><tspan x="45.007" y="0" font-family="'Arial'" font-size="2.6865" letter-spacing="11">0</tspan><tspan x="57.94" y="0" font-family="'Arial'" font-size="2.6865">FL-1</tspan><tspan x="63.464" y="0" font-family="'Arial'" font-size="2.6865" letter-spacing="6">7</tspan><tspan x="71.425" y="0" font-family="'Arial'" font-size="2.6865">Vinyl Sheet Flooring - Tarkett IQ Optima: 85</tspan></text>
<text transform="matrix(1 0 0 1 228.8182 34.689)" font-family="'Arial'" font-size="2.6865">7 colour.</text>
<text transform="matrix(1 0 0 1 265.2663 34.689)"><tspan x="0" y="0" font-family="'Arial'" font-size="2.6865">Resilient Floor Finishe</tspan><tspan x="26.576" y="0" font-family="'Arial'" font-size="2.6865" letter-spacing="10">s</tspan><tspan x="38.031" y="0" font-family="'Arial'" font-size="2.6865">05-500</tspan></text>
<text transform="matrix(1 0 0 1 2.9374 38.6922)"><tspan x="0" y="0" font-family="'Arial'" font-size="2.6865">FL-0</tspan><tspan x="5.524" y="0" font-family="'Arial'" font-size="2.6865" letter-spacing="6">8</tspan><tspan x="13.484" y="0" font-family="'Arial'" font-size="2.6865">Vinyl Sheet Flooring - Armstrong Accolade Plus: Sand Grey</tspan></text>
<text transform="matrix(1 0 0 1 105.124 38.6922)"><tspan x="0" y="0" font-family="'Arial'" font-size="2.6865">Resilient Floor Finishe</tspan><tspan x="26.576" y="0" font-family="'Arial'" font-size="2.6865" letter-spacing="10">s</tspan><tspan x="38.031" y="0" font-family="'Arial'" font-size="2.6865">05-50</tspan><tspan x="44.902" y="0" font-family="'Arial'" font-size="2.6865" letter-spacing="11">0</tspan><tspan x="57.94" y="0" font-family="'Arial'" font-size="2.6865">FL-1</tspan><tspan x="63.464" y="0" font-family="'Arial'" font-size="2.6865" letter-spacing="6">8</tspan><tspan x="71.425" y="0" font-family="'Arial'" font-size="2.6865">Vinyl Sheet Flooring - Tarkett</tspan></text>
<text transform="matrix(1 0 0 1 211.3477 38.6922)" font-family="'Arial'" font-size="2.6865"> IQ Optima: 867 colour.</text>
<text transform="matrix(1 0 0 1 265.2663 38.6922)"><tspan x="0" y="0" font-family="'Arial'" font-size="2.6865">Resilient Floor Finishe</tspan><tspan x="26.576" y="0" font-family="'Arial'" font-size="2.6865" letter-spacing="10">s</tspan><tspan x="38.031" y="0" font-family="'Arial'" font-size="2.6865">05-500</tspan></text>
<text transform="matrix(1 0 0 1 2.9374 42.6949)"><tspan x="0" y="0" font-family="'Arial'" font-size="2.6865">FL-0</tspan><tspan x="5.524" y="0" font-family="'Arial'" font-size="2.6865" letter-spacing="6">9</tspan><tspan x="13.484" y="0" font-family="'Arial'" font-size="2.6865">Vinyl Sheet Flooring - Armstrong Accolade Plus: Black Opal</tspan></text>
<text transform="matrix(1 0 0 1 105.124 42.6949)"><tspan x="0" y="0" font-family="'Arial'" font-size="2.6865">Resilient Floor Finishe</tspan><tspan x="26.576" y="0" font-family="'Arial'" font-size="2.6865" letter-spacing="10">s</tspan><tspan x="38.031" y="0" font-family="'Arial'" font-size="2.6865">05-50</tspan><tspan x="44.902" y="0" font-family="'Arial'" font-size="2.6865" letter-spacing="11">0</tspan><tspan x="57.94" y="0" font-family="'Arial'" font-size="2.6865">FL-1</tspan><tspan x="63.464" y="0" font-family="'Arial'" font-size="2.6865" letter-spacing="6">9</tspan><tspan x="71.425" y="0" font-family="'Arial'" font-size="2.6865">Vinyl Sheet Flooring - Tarket</tspan></text>
<text transform="matrix(1 0 0 1 210.6035 42.6949)" font-family="'Arial'" font-size="2.6865">t IQ Optima: 859 colour.</text>
<text transform="matrix(1 0 0 1 265.2684 42.6949)"><tspan x="0" y="0" font-family="'Arial'" font-size="2.6865">Resilient Floor Finishe</tspan><tspan x="26.576" y="0" font-family="'Arial'" font-size="2.6865" letter-spacing="10">s</tspan><tspan x="38.031" y="0" font-family="'Arial'" font-size="2.6865">05-500</tspan></text>
<text transform="matrix(1 0 0 1 2.9406 46.6975)"><tspan x="0" y="0" font-family="'Arial'" font-size="2.6865">FL-1</tspan><tspan x="5.524" y="0" font-family="'Arial'" font-size="2.6865" letter-spacing="6">0</tspan><tspan x="13.484" y="0" font-family="'Arial'" font-size="2.6865">Vinyl Sheet Flooring - Armstrong Accolade Safe Plus: Spice Whit</tspan><tspan x="90.68" y="0" font-family="'Arial'" font-size="2.6865" letter-spacing="10">e</tspan><tspan x="102.189" y="0" font-family="'Arial'" font-size="2.6865">Resilient Floor Finishe</tspan><tspan x="128.765" y="0" font-family="'Arial'" font-size="2.6865" letter-spacing="10">s</tspan><tspan x="140.221" y="0" font-family="'Arial'" font-size="2.6865">05-50</tspan><tspan x="147.091" y="0" font-family="'Arial'" font-size="2.6865" letter-spacing="11">0</tspan><tspan x="160.129" y="0" font-family="'Arial'" font-size="2.6865">FL-2</tspan><tspan x="165.654" y="0" font-family="'Arial'" font-size="2.6865" letter-spacing="6">0</tspan><tspan x="173.614" y="0" font-family="'Arial'" font-size="2.6865">Vinyl Sheet Flooring - </tspan></text>
<text transform="matrix(1 0 0 1 202.9902 46.6975)" font-family="'Arial'" font-size="2.6865">Tarkett IQ Optima: 824 colour.</text>
<text transform="matrix(1 0 0 1 265.2684 46.6975)"><tspan x="0" y="0" font-family="'Arial'" font-size="2.6865">Resilient Floor Finishe</tspan><tspan x="26.576" y="0" font-family="'Arial'" font-size="2.6865" letter-spacing="10">s</tspan><tspan x="38.136" y="0" font-family="'Arial'" font-size="2.6865">05-500</tspan></text>
<g>
	<text transform="matrix(1 0 0 1 146.9579 50.7007)" font-family="'Arial'" font-size="2.6865">.</text>
	<text transform="matrix(1 0 0 1 118.6181 50.7007)" font-family="'Arial'" font-size="2.6865">.</text>
</g>
<g>
	<text transform="matrix(1 0 0 1 307.085 50.705)" font-family="'Arial'" font-size="2.6865">.</text>
	<text transform="matrix(1 0 0 1 278.7458 50.705)" font-family="'Arial'" font-size="2.6865">.</text>
</g>
<rect x="0.072" y="0" fill="none" width="319.393" height="65.019"/>
<text transform="matrix(1 0 0 1 16.4154 54.7614)" font-family="'Arial'" font-weight="bolder" font-size="2.6865">Glass Types</text>
<text transform="matrix(1 0 0 1 118.6074 54.7614)" font-family="'Arial'" font-weight="bolder" font-size="2.6865">.</text>
<text transform="matrix(1 0 0 1 146.9471 54.7614)" font-family="'Arial'" font-weight="bolder" font-size="2.6865">.</text>
<text transform="matrix(1 0 0 1 176.5527 54.7614)" font-family="'Arial'" font-weight="bolder" font-size="2.6865">Glass Types</text>
<g>
	<text transform="matrix(1 0 0 1 307.085 54.7614)" font-family="'Arial'" font-weight="bolder" font-size="2.6865">.</text>
	<text transform="matrix(1 0 0 1 278.7458 54.7614)" font-family="'Arial'" font-weight="bolder" font-size="2.6865">.</text>
</g>
<rect x="0.072" y="0" fill="none" width="319.393" height="65.019"/>
<text transform="matrix(1 0 0 1 2.9304 58.7119)"><tspan x="0" y="0" font-family="'Arial'" font-size="2.6865">VG-0</tspan><tspan x="6.27" y="0" font-family="'Arial'" font-size="2.6865" letter-spacing="5">1</tspan><tspan x="13.484" y="0" font-family="'Arial'" font-size="2.6865">Vision Glass</tspan></text>
<text transform="matrix(1 0 0 1 109.6512 58.7119)" font-family="'Arial'" font-size="2.6865">Façade Glazing</text>
<text transform="matrix(1 0 0 1 163.0613 58.7119)"><tspan x="0" y="0" font-family="'Arial'" font-size="2.6865">VG-0</tspan><tspan x="6.271" y="0" font-family="'Arial'" font-size="2.6865" letter-spacing="5">6</tspan><tspan x="13.483" y="0" font-family="'Arial'" font-size="2.6865">Vision Glass</tspan></text>
<text transform="matrix(1 0 0 1 269.7832 58.7119)" font-family="'Arial'" font-size="2.6865">Façade Glazing</text>
<text transform="matrix(1 0 0 1 2.9304 62.7151)"><tspan x="0" y="0" font-family="'Arial'" font-size="2.6865">VG-0</tspan><tspan x="6.27" y="0" font-family="'Arial'" font-size="2.6865" letter-spacing="5">2</tspan><tspan x="13.484" y="0" font-family="'Arial'" font-size="2.6865">Safety Vision Glass</tspan></text>
<text transform="matrix(1 0 0 1 109.6512 62.7151)" font-family="'Arial'" font-size="2.6865">Façade Glazing</text>
<text transform="matrix(1 0 0 1 163.0613 62.7151)"><tspan x="0" y="0" font-family="'Arial'" font-size="2.6865">VG-0</tspan><tspan x="6.271" y="0" font-family="'Arial'" font-size="2.6865" letter-spacing="5">7</tspan><tspan x="13.483" y="0" font-family="'Arial'" font-size="2.6865">Safety Vision Glass</tspan></text>
<text transform="matrix(1 0 0 1 269.7832 62.7151)" font-family="'Arial'" font-size="2.6865">Façade Glazing</text>
<rect x="0.072" y="0" fill="none" width="319.393" height="65.019"/>
<rect x="2.562" width="156.766" height="0.083"/>
<rect x="2.562" y="3.822" width="156.766" height="0.264"/>
<rect x="2.562" y="7.826" width="156.766" height="0.264"/>
<rect x="2.562" y="11.83" width="156.766" height="0.263"/>
<rect x="2.562" y="15.833" width="156.766" height="0.263"/>
<rect x="2.562" y="19.836" width="156.766" height="0.264"/>
<rect x="2.562" y="23.839" width="156.766" height="0.264"/>
<rect x="2.562" y="27.844" width="156.766" height="0.263"/>
<rect x="2.562" y="31.847" width="156.766" height="0.264"/>
<rect x="2.562" y="35.85" width="156.766" height="0.264"/>
<rect x="2.562" y="39.853" width="156.766" height="0.264"/>
<rect x="2.562" y="43.857" width="156.766" height="0.263"/>
<rect x="2.562" y="47.86" width="156.766" height="0.263"/>
<rect x="2.562" y="51.863" width="156.766" height="0.264"/>
<rect x="2.562" y="55.867" width="156.766" height="0.264"/>
<rect x="2.562" y="59.871" width="156.766" height="0.263"/>
<rect x="2.562" y="64.085" width="156.766" height="0.264"/>
<rect x="2.298" y="0" width="0.264" height="65.019"/>
<rect x="15.784" y="0" width="0.264" height="65.019"/>
<rect x="102.384" y="0" width="0.263" height="65.019"/>
<rect x="135.254" y="0" width="0.264" height="65.019"/>
<rect x="159.065" y="0" width="0.263" height="65.019"/>
<rect x="162.435" y="0" width="0.264" height="65.019"/>
<rect x="175.921" y="0" width="0.264" height="65.019"/>
<rect x="262.521" y="0" width="0.263" height="65.019"/>
<rect x="295.391" y="0" width="0.264" height="65.019"/>
<rect x="319.202" y="0" width="0.263" height="65.019"/>
<rect x="162.699" width="156.766" height="0.083"/>
<rect x="162.699" y="3.822" width="156.766" height="0.264"/>
<rect x="162.699" y="7.826" width="156.766" height="0.264"/>
<rect x="162.699" y="11.83" width="156.766" height="0.263"/>
<rect x="162.699" y="15.833" width="156.766" height="0.263"/>
<rect x="162.699" y="19.836" width="156.766" height="0.264"/>
<rect x="162.699" y="23.839" width="156.766" height="0.264"/>
<rect x="162.699" y="27.844" width="156.766" height="0.263"/>
<rect x="162.699" y="31.847" width="156.766" height="0.264"/>
<rect x="162.699" y="35.85" width="156.766" height="0.264"/>
<rect x="162.699" y="39.853" width="156.766" height="0.264"/>
<rect x="162.699" y="43.857" width="156.766" height="0.263"/>
<rect x="162.699" y="47.86" width="156.766" height="0.263"/>
<rect x="162.699" y="51.863" width="156.766" height="0.264"/>
<rect x="162.699" y="55.867" width="156.766" height="0.264"/>
<rect x="162.699" y="59.871" width="156.766" height="0.263"/>
<rect x="162.699" y="64.085" width="156.766" height="0.264"/>
</svg>
