<?xml version="1.0" encoding="utf-8"?>
<!-- Generator: Adobe Illustrator 18.1.1, SVG Export Plug-In . SVG Version: 6.00 Build 0)  -->
<svg id="Layer_1" xmlns="http://www.w3.org/2000/svg" xmlns:xlink="http://www.w3.org/1999/xlink" x="0px" y="0px"
	 viewBox="0 0 320 65.019" enable-background="new 0 0 320 65.019" xml:space="preserve">
<rect y="0" fill="#ffffff" width="320.315" height="65.019"/>
<rect x="2.562" y="3.929" fill="#c5d9f1" width="156.66" height="4.056"/>
<rect x="162.541" y="3.929" fill="#c5d9f1" width="156.818" height="4.056"/>
<rect x="2.562" y="11.936" fill="#c5d9f1" width="156.66" height="4.056"/>
<rect x="162.541" y="11.936" fill="#c5d9f1" width="156.818" height="4.056"/>
<rect x="2.562" y="43.963" fill="#c5d9f1" width="156.66" height="4.056"/>
<rect x="162.541" y="43.963" fill="#c5d9f1" width="156.818" height="4.056"/>
<rect x="2.562" y="51.97" fill="#c5d9f1" width="156.66" height="4.056"/>
<rect x="162.541" y="51.97" fill="#c5d9f1" width="156.818" height="4.056"/>
<text transform="matrix(1 0 0 1 16.4154 6.7204)" fill="#1d1d1b" font-family="'Arial'" font-weight="bolder" font-size="2.6865">Canopies</text>
<text transform="matrix(1 0 0 1 118.6075 6.7205)" fill="#1d1d1b" font-family="'Arial'" font-weight="bolder" font-size="2.6865">.</text>
<text transform="matrix(1 0 0 1 146.9471 6.7204)" fill="#1d1d1b" font-family="'Arial'" font-weight="bolder" font-size="2.6865">.</text>
<text transform="matrix(1 0 0 1 176.5528 6.7205)" fill="#1d1d1b" font-family="'Arial'" font-weight="bolder" font-size="2.6865">Canopies</text>
<text transform="matrix(1 0 0 1 118.6085 10.6711)" fill="#1d1d1b" font-family="'Arial'" font-size="2.6865">.</text>
<text transform="matrix(1 0 0 1 278.7458 10.6711)" fill="#1d1d1b" font-family="'Arial'" font-size="2.6865">.</text>
<text transform="matrix(1 0 0 1 16.416 14.7279)" fill="#1d1d1b" font-family="'Arial'" font-weight="bolder" font-size="2.6865">Ceilings</text>
<text transform="matrix(1 0 0 1 118.7127 14.7279)" fill="#1d1d1b" font-family="'Arial'" font-weight="bolder" font-size="2.6865">.</text>
<text transform="matrix(1 0 0 1 147.0534 14.7279)" fill="#1d1d1b" font-family="'Arial'" font-weight="bolder" font-size="2.6865">.</text>
<text transform="matrix(1 0 0 1 176.5543 14.7279)" fill="#1d1d1b" font-family="'Arial'" font-weight="bolder" font-size="2.6865">Ceilings</text>
<text transform="matrix(1 0 0 1 2.9304 18.678)"><tspan x="0" y="0" fill="#1d1d1b" font-family="'Arial'" font-size="2.6865">CLG-0</tspan><tspan x="7.913" y="0" fill="#1d1d1b" font-family="'Arial'" font-size="2.6865" letter-spacing="4">1</tspan><tspan x="13.482" y="0" fill="#1d1d1b" font-family="'Arial'" font-size="2.6865">Suspended plasterboard ceiling</tspan></text>
<text transform="matrix(1 0 0 1 107.1149 18.678)"><tspan x="0" y="0" fill="#1d1d1b" font-family="'Arial'" font-size="2.6865">Suspended Ceiling</tspan><tspan x="22.554" y="0" fill="#1d1d1b" font-family="'Arial'" font-size="2.6865" letter-spacing="12">s</tspan><tspan x="36.028" y="0" fill="#1d1d1b" font-family="'Arial'" font-size="2.6865">05-05</tspan><tspan x="42.899" y="0" fill="#1d1d1b" font-family="'Arial'" font-size="2.6865" letter-spacing="11">0</tspan><tspan x="55.938" y="0" fill="#1d1d1b" font-family="'Arial'" font-size="2.6865">CLG-0</tspan><tspan x="63.851" y="0" fill="#1d1d1b" font-family="'Arial'" font-size="2.6865" letter-spacing="4">7</tspan><tspan x="69.421" y="0" fill="#1d1d1b" font-family="'Arial'" font-size="2.6865">External soffit lining</tspan></text>
<text transform="matrix(1 0 0 1 267.3458 18.678)"><tspan x="0" y="0" fill="#1d1d1b" font-family="'Arial'" font-size="2.6865">Suspended Ceiling</tspan><tspan x="22.553" y="0" fill="#1d1d1b" font-family="'Arial'" font-size="2.6865" letter-spacing="12">s</tspan><tspan x="35.923" y="0" fill="#1d1d1b" font-family="'Arial'" font-size="2.6865">05-050</tspan></text>
<text transform="matrix(1 0 0 1 2.9304 22.6811)"><tspan x="0" y="0" fill="#1d1d1b" font-family="'Arial'" font-size="2.6865">CLG-0</tspan><tspan x="7.913" y="0" fill="#1d1d1b" font-family="'Arial'" font-size="2.6865" letter-spacing="4">2</tspan><tspan x="13.482" y="0" fill="#1d1d1b" font-family="'Arial'" font-size="2.6865">Suspended moisture resistant plasterboard ceiling</tspan></text>
<text transform="matrix(1 0 0 1 107.2196 22.6811)"><tspan x="0" y="0" fill="#1d1d1b" font-family="'Arial'" font-size="2.6865">Suspended Ceiling</tspan><tspan x="22.554" y="0" fill="#1d1d1b" font-family="'Arial'" font-size="2.6865" letter-spacing="12">s</tspan><tspan x="36.028" y="0" fill="#1d1d1b" font-family="'Arial'" font-size="2.6865">05-05</tspan><tspan x="42.899" y="0" fill="#1d1d1b" font-family="'Arial'" font-size="2.6865" letter-spacing="11">0</tspan><tspan x="55.833" y="0" fill="#1d1d1b" font-family="'Arial'" font-size="2.6865">CLG-0</tspan><tspan x="63.746" y="0" fill="#1d1d1b" font-family="'Arial'" font-size="2.6865" letter-spacing="4">8</tspan><tspan x="69.315" y="0" fill="#1d1d1b" font-family="'Arial'" font-size="2.6865">Suspended acoustic tile ceiling - 40CAC</tspan></text>
<text transform="matrix(1 0 0 1 267.3409 22.6811)" fill="#1d1d1b" font-family="'Arial'" font-size="2.6865">Sus</text>
<text transform="matrix(1 0 0 1 271.9959 22.6811)"><tspan x="0" y="0" fill="#1d1d1b" font-family="'Arial'" font-size="2.6865">pended Ceiling</tspan><tspan x="17.924" y="0" fill="#1d1d1b" font-family="'Arial'" font-size="2.6865" letter-spacing="12">s</tspan><tspan x="31.398" y="0" fill="#1d1d1b" font-family="'Arial'" font-size="2.6865">05-050</tspan></text>
<text transform="matrix(1 0 0 1 2.9304 26.6838)"><tspan x="0" y="0" fill="#1d1d1b" font-family="'Arial'" font-size="2.6865">CLG-0</tspan><tspan x="7.913" y="0" fill="#1d1d1b" font-family="'Arial'" font-size="2.6865" letter-spacing="4">3</tspan><tspan x="13.482" y="0" fill="#1d1d1b" font-family="'Arial'" font-size="2.6865">Suspended Plasterboard Ceiling - Curved Profile</tspan></text>
<text transform="matrix(1 0 0 1 107.1122 26.6838)"><tspan x="0" y="0" fill="#1d1d1b" font-family="'Arial'" font-size="2.6865">Suspended Ceiling</tspan><tspan x="22.554" y="0" fill="#1d1d1b" font-family="'Arial'" font-size="2.6865" letter-spacing="12">s</tspan><tspan x="36.028" y="0" fill="#1d1d1b" font-family="'Arial'" font-size="2.6865">05-05</tspan><tspan x="42.899" y="0" fill="#1d1d1b" font-family="'Arial'" font-size="2.6865" letter-spacing="11">0</tspan><tspan x="55.938" y="0" fill="#1d1d1b" font-family="'Arial'" font-size="2.6865">CLG-0</tspan><tspan x="63.851" y="0" fill="#1d1d1b" font-family="'Arial'" font-size="2.6865" letter-spacing="4">9</tspan><tspan x="69.421" y="0" fill="#1d1d1b" font-family="'Arial'" font-size="2.6865">Suspended moisture resistant plasterboard ce</tspan></text>
<text transform="matrix(1 0 0 1 231.3555 26.6838)" fill="#1d1d1b" font-family="'Arial'" font-size="2.6865">iling</text>
<text transform="matrix(1 0 0 1 267.3623 26.6838)"><tspan x="0" y="0" fill="#1d1d1b" font-family="'Arial'" font-size="2.6865">Suspended Ceiling</tspan><tspan x="22.553" y="0" fill="#1d1d1b" font-family="'Arial'" font-size="2.6865" letter-spacing="12">s</tspan><tspan x="35.923" y="0" fill="#1d1d1b" font-family="'Arial'" font-size="2.6865">05-050</tspan></text>
<text transform="matrix(1 0 0 1 2.9304 30.6865)"><tspan x="0" y="0" fill="#1d1d1b" font-family="'Arial'" font-size="2.6865">CLG-0</tspan><tspan x="7.913" y="0" fill="#1d1d1b" font-family="'Arial'" font-size="2.6865" letter-spacing="4">4</tspan><tspan x="13.482" y="0" fill="#1d1d1b" font-family="'Arial'" font-size="2.6865">Suspended acoustic tile ceiling - 40CAC</tspan></text>
<text transform="matrix(1 0 0 1 107.2201 30.6865)"><tspan x="0" y="0" fill="#1d1d1b" font-family="'Arial'" font-size="2.6865">Suspended Ceiling</tspan><tspan x="22.553" y="0" fill="#1d1d1b" font-family="'Arial'" font-size="2.6865" letter-spacing="12">s</tspan><tspan x="36.028" y="0" fill="#1d1d1b" font-family="'Arial'" font-size="2.6865">05-05</tspan><tspan x="42.899" y="0" fill="#1d1d1b" font-family="'Arial'" font-size="2.6865" letter-spacing="11">0</tspan><tspan x="55.833" y="0" fill="#1d1d1b" font-family="'Arial'" font-size="2.6865">CLG-1</tspan><tspan x="63.746" y="0" fill="#1d1d1b" font-family="'Arial'" font-size="2.6865" letter-spacing="4">0</tspan><tspan x="69.315" y="0" fill="#1d1d1b" font-family="'Arial'" font-size="2.6865">Suspended acoustic tile ceiling - Hygenic - 40CAC</tspan></text>
<text transform="matrix(1 0 0 1 267.2335 30.6865)" fill="#1d1d1b" font-family="'Arial'" font-size="2.6865">Sus</text>
<text transform="matrix(1 0 0 1 271.8885 30.6865)"><tspan x="0" y="0" fill="#1d1d1b" font-family="'Arial'" font-size="2.6865">pended Ceiling</tspan><tspan x="17.924" y="0" fill="#1d1d1b" font-family="'Arial'" font-size="2.6865" letter-spacing="12">s</tspan><tspan x="31.506" y="0" fill="#1d1d1b" font-family="'Arial'" font-size="2.6865">05-050</tspan></text>
<text transform="matrix(1 0 0 1 2.9304 34.6896)"><tspan x="0" y="0" fill="#1d1d1b" font-family="'Arial'" font-size="2.6865">CLG-0</tspan><tspan x="7.913" y="0" fill="#1d1d1b" font-family="'Arial'" font-size="2.6865" letter-spacing="4">5</tspan><tspan x="13.482" y="0" fill="#1d1d1b" font-family="'Arial'" font-size="2.6865">Suspended acoustic tile ceiling - Hygenic - 40CAC</tspan></text>
<text transform="matrix(1 0 0 1 107.1149 34.6896)"><tspan x="0" y="0" fill="#1d1d1b" font-family="'Arial'" font-size="2.6865">Suspended Ceiling</tspan><tspan x="22.554" y="0" fill="#1d1d1b" font-family="'Arial'" font-size="2.6865" letter-spacing="12">s</tspan><tspan x="36.028" y="0" fill="#1d1d1b" font-family="'Arial'" font-size="2.6865">05-05</tspan><tspan x="42.899" y="0" fill="#1d1d1b" font-family="'Arial'" font-size="2.6865" letter-spacing="11">0</tspan><tspan x="55.938" y="0" fill="#1d1d1b" font-family="'Arial'" font-size="2.6865">CLG-1</tspan><tspan x="63.851" y="0" fill="#1d1d1b" font-family="'Arial'" font-size="2.6865" letter-spacing="4">1</tspan><tspan x="69.421" y="0" fill="#1d1d1b" font-family="'Arial'" font-size="2.6865">Suspended plasterboard ceiling</tspan></text>
<text transform="matrix(1 0 0 1 267.2361 34.6896)" fill="#1d1d1b" font-family="'Arial'" font-size="2.6865">Suspended Ce</text>
<text transform="matrix(1 0 0 1 285.0368 34.6896)"><tspan x="0" y="0" fill="#1d1d1b" font-family="'Arial'" font-size="2.6865">iling</tspan><tspan x="4.778" y="0" fill="#1d1d1b" font-family="'Arial'" font-size="2.6865" letter-spacing="12">s</tspan><tspan x="18.253" y="0" fill="#1d1d1b" font-family="'Arial'" font-size="2.6865">05-050</tspan></text>
<text transform="matrix(1 0 0 1 2.9326 38.6928)"><tspan x="0" y="0" fill="#1d1d1b" font-family="'Arial'" font-size="2.6865">CLG-0</tspan><tspan x="7.913" y="0" fill="#1d1d1b" font-family="'Arial'" font-size="2.6865" letter-spacing="4">6</tspan><tspan x="13.482" y="0" fill="#1d1d1b" font-family="'Arial'" font-size="2.6865">External soffit lining</tspan></text>
<text transform="matrix(1 0 0 1 107.2282 38.6928)"><tspan x="0" y="0" fill="#1d1d1b" font-family="'Arial'" font-size="2.6865">Suspended Ceiling</tspan><tspan x="22.554" y="0" fill="#1d1d1b" font-family="'Arial'" font-size="2.6865" letter-spacing="12">s</tspan><tspan x="36.028" y="0" fill="#1d1d1b" font-family="'Arial'" font-size="2.6865">05-05</tspan><tspan x="42.899" y="0" fill="#1d1d1b" font-family="'Arial'" font-size="2.6865" letter-spacing="11">0</tspan><tspan x="55.833" y="0" fill="#1d1d1b" font-family="'Arial'" font-size="2.6865">CLG-1</tspan><tspan x="63.746" y="0" fill="#1d1d1b" font-family="'Arial'" font-size="2.6865" letter-spacing="4">2</tspan><tspan x="69.315" y="0" fill="#1d1d1b" font-family="'Arial'" font-size="2.6865">Suspended Plasterboard Ceiling - Curved Profile</tspan></text>
<text transform="matrix(1 0 0 1 267.241 38.6928)"><tspan x="0" y="0" fill="#1d1d1b" font-family="'Arial'" font-size="2.6865">Suspended Ceiling</tspan><tspan x="22.553" y="0" fill="#1d1d1b" font-family="'Arial'" font-size="2.6865" letter-spacing="12">s</tspan><tspan x="36.133" y="0" fill="#1d1d1b" font-family="'Arial'" font-size="2.6865">05-0</tspan></text>
<text transform="matrix(1 0 0 1 308.7773 38.6928)" fill="#1d1d1b" font-family="'Arial'" font-size="2.6865">50</text>
<g>
	<text transform="matrix(1 0 0 1 146.9509 42.6955)" fill="#1d1d1b" font-family="'Arial'" font-size="2.6865">.</text>
	<text transform="matrix(1 0 0 1 118.6107 42.6955)" fill="#1d1d1b" font-family="'Arial'" font-size="2.6865">.</text>
</g>
<text transform="matrix(1 0 0 1 16.4149 46.7551)" fill="#1d1d1b" font-family="'Arial'" font-weight="bolder" font-size="2.6865">Concrete Finishes</text>
<text transform="matrix(1 0 0 1 118.6074 46.7551)" fill="#1d1d1b" font-family="'Arial'" font-weight="bolder" font-size="2.6865">.</text>
<text transform="matrix(1 0 0 1 146.9471 46.7551)" fill="#1d1d1b" font-family="'Arial'" font-weight="bolder" font-size="2.6865">.</text>
<text transform="matrix(1 0 0 1 176.5527 46.7551)" fill="#1d1d1b" font-family="'Arial'" font-weight="bolder" font-size="2.6865">Concrete Finishes</text>
<text transform="matrix(1 0 0 1 278.7442 46.7551)" fill="#1d1d1b" font-family="'Arial'" font-weight="bolder" font-size="2.6865">.</text>
<text transform="matrix(1 0 0 1 307.0839 46.7551)" fill="#1d1d1b" font-family="'Arial'" font-weight="bolder" font-size="2.6865">.</text>
<g>
	<text transform="matrix(1 0 0 1 146.9444 50.7062)" fill="#1d1d1b" font-family="'Arial'" font-size="2.6865">.</text>
	<text transform="matrix(1 0 0 1 118.6042 50.7062)" fill="#1d1d1b" font-family="'Arial'" font-size="2.6865">.</text>
</g>
<text transform="matrix(1 0 0 1 16.4149 54.7619)" fill="#1d1d1b" font-family="'Arial'" font-weight="bolder" font-size="2.6865">External wall finishes</text>
<text transform="matrix(1 0 0 1 118.6101 54.7619)" fill="#1d1d1b" font-family="'Arial'" font-weight="bolder" font-size="2.6865">.</text>
<text transform="matrix(1 0 0 1 146.9493 54.762)" fill="#1d1d1b" font-family="'Arial'" font-weight="bolder" font-size="2.6865">.</text>
<text transform="matrix(1 0 0 1 176.5554 54.7619)" fill="#1d1d1b" font-family="'Arial'" font-weight="bolder" font-size="2.6865">External wall finishes</text>
<text transform="matrix(1 0 0 1 278.7491 54.762)" fill="#1d1d1b" font-family="'Arial'" font-weight="bolder" font-size="2.6865">.</text>
<text transform="matrix(1 0 0 1 307.0888 54.7619)" fill="#1d1d1b" font-family="'Arial'" font-weight="bolder" font-size="2.6865">.</text>
<text transform="matrix(1 0 0 1 2.9315 58.7136)"><tspan x="0" y="0" fill="#1d1d1b" font-family="'Arial'" font-size="2.6865">CLAD-0</tspan><tspan x="9.555" y="0" fill="#1d1d1b" font-family="'Arial'" font-size="2.6865" letter-spacing="2">1</tspan><tspan x="13.483" y="0" fill="#1d1d1b" font-family="'Arial'" font-size="2.6865">Metal sheet cladding</tspan></text>
<text transform="matrix(1 0 0 1 110.7546 58.7136)" fill="#1d1d1b" font-family="'Arial'" font-size="2.6865">Metal Roofing</text>
<text transform="matrix(1 0 0 1 143.1485 58.7137)"><tspan x="0" y="0" fill="#1d1d1b" font-family="'Arial'" font-size="2.6865">04-20</tspan><tspan x="6.871" y="0" fill="#1d1d1b" font-family="'Arial'" font-size="2.6865" letter-spacing="11">3</tspan><tspan x="19.909" y="0" fill="#1d1d1b" font-family="'Arial'" font-size="2.6865">CLAD-0</tspan><tspan x="29.465" y="0" fill="#1d1d1b" font-family="'Arial'" font-size="2.6865" letter-spacing="2">9</tspan><tspan x="33.393" y="0" fill="#1d1d1b" font-family="'Arial'" font-size="2.6865">Insulated Wall System Cladding</tspan></text>
<text transform="matrix(1 0 0 1 270.8807 58.7136)" fill="#1d1d1b" font-family="'Arial'" font-size="2.6865">Metal Roofing</text>
<text transform="matrix(1 0 0 1 303.274 58.7136)" fill="#1d1d1b" font-family="'Arial'" font-size="2.6865">04-203</text>
<text transform="matrix(1 0 0 1 2.9315 62.7168)"><tspan x="0" y="0" fill="#1d1d1b" font-family="'Arial'" font-size="2.6865">CLAD-0</tspan><tspan x="9.555" y="0" fill="#1d1d1b" font-family="'Arial'" font-size="2.6865" letter-spacing="2">2</tspan><tspan x="13.483" y="0" fill="#1d1d1b" font-family="'Arial'" font-size="2.6865">Insulated Wall System Cladding - 80mm</tspan></text>
<text transform="matrix(1 0 0 1 108.9087 62.7168)" fill="#1d1d1b" font-family="'Arial'" font-size="2.6865">Façade Cladding</text>
<text transform="matrix(1 0 0 1 146.9364 62.7168)" fill="#1d1d1b" font-family="'Arial'" font-size="2.6865">.</text>
<text transform="matrix(1 0 0 1 163.0554 62.7168)"><tspan x="0" y="0" fill="#1d1d1b" font-family="'Arial'" font-size="2.6865">CLAD-1</tspan><tspan x="9.556" y="0" fill="#1d1d1b" font-family="'Arial'" font-size="2.6865" letter-spacing="2">0</tspan><tspan x="13.483" y="0" fill="#1d1d1b" font-family="'Arial'" font-size="2.6865">Aluminium Composite Cladding</tspan></text>
<text transform="matrix(1 0 0 1 269.03 62.7168)" fill="#1d1d1b" font-family="'Arial'" font-size="2.6865">Façade Cladding</text>
<rect x="2.562" y="0.001" fill="#1d1d1b" width="156.766" height="0.083"/>
<rect x="2.562" y="3.823" fill="#1d1d1b" width="156.766" height="0.264"/>
<rect x="2.562" y="7.827" fill="#1d1d1b" width="156.766" height="0.263"/>
<rect x="2.562" y="11.83" fill="#1d1d1b" width="156.766" height="0.264"/>
<rect x="2.562" y="15.833" fill="#1d1d1b" width="156.766" height="0.264"/>
<rect x="2.562" y="19.836" fill="#1d1d1b" width="156.766" height="0.264"/>
<rect x="2.562" y="23.841" fill="#1d1d1b" width="156.766" height="0.263"/>
<rect x="2.562" y="27.844" fill="#1d1d1b" width="156.766" height="0.264"/>
<rect x="2.562" y="31.847" fill="#1d1d1b" width="156.766" height="0.264"/>
<rect x="2.562" y="35.85" fill="#1d1d1b" width="156.766" height="0.264"/>
<rect x="2.562" y="39.854" fill="#1d1d1b" width="156.766" height="0.263"/>
<rect x="2.562" y="43.857" fill="#1d1d1b" width="156.766" height="0.264"/>
<rect x="2.562" y="47.861" fill="#1d1d1b" width="156.766" height="0.264"/>
<rect x="2.562" y="51.864" fill="#1d1d1b" width="156.766" height="0.264"/>
<rect x="2.562" y="55.868" fill="#1d1d1b" width="156.766" height="0.263"/>
<rect x="2.562" y="59.871" fill="#1d1d1b" width="156.766" height="0.263"/>
<rect x="2.562" y="63.874" fill="#1d1d1b" width="156.766" height="0.264"/>
<rect x="2.299" y="0" fill="#1d1d1b" width="0.263" height="65.019"/>
<rect x="15.784" y="0" fill="#1d1d1b" width="0.264" height="65.019"/>
<rect x="102.384" y="0" fill="#1d1d1b" width="0.263" height="65.019"/>
<rect x="135.254" y="0" fill="#1d1d1b" width="0.264" height="65.019"/>
<rect x="159.065" y="0" fill="#1d1d1b" width="0.263" height="65.019"/>
<rect x="162.435" y="0" fill="#1d1d1b" width="0.264" height="65.019"/>
<rect x="175.921" y="0" fill="#1d1d1b" width="0.264" height="65.019"/>
<rect x="262.521" y="0" fill="#1d1d1b" width="0.263" height="65.019"/>
<rect x="295.391" y="0" fill="#1d1d1b" width="0.264" height="65.019"/>
<rect x="319.202" y="0" fill="#1d1d1b" width="0.263" height="65.019"/>
<rect x="162.699" y="0.001" fill="#1d1d1b" width="156.766" height="0.083"/>
<rect x="162.699" y="3.823" fill="#1d1d1b" width="156.766" height="0.264"/>
<rect x="162.699" y="7.827" fill="#1d1d1b" width="156.766" height="0.263"/>
<rect x="162.699" y="11.83" fill="#1d1d1b" width="156.766" height="0.264"/>
<rect x="162.699" y="15.833" fill="#1d1d1b" width="156.766" height="0.264"/>
<rect x="162.699" y="19.836" fill="#1d1d1b" width="156.766" height="0.264"/>
<rect x="162.699" y="23.841" fill="#1d1d1b" width="156.766" height="0.263"/>
<rect x="162.699" y="27.844" fill="#1d1d1b" width="156.766" height="0.264"/>
<rect x="162.699" y="31.847" fill="#1d1d1b" width="156.766" height="0.264"/>
<rect x="162.699" y="35.85" fill="#1d1d1b" width="156.766" height="0.264"/>
<rect x="162.699" y="39.854" fill="#1d1d1b" width="156.766" height="0.263"/>
<rect x="162.699" y="43.857" fill="#1d1d1b" width="156.766" height="0.264"/>
<rect x="162.699" y="47.861" fill="#1d1d1b" width="156.766" height="0.264"/>
<rect x="162.699" y="51.864" fill="#1d1d1b" width="156.766" height="0.264"/>
<rect x="162.699" y="55.868" fill="#1d1d1b" width="156.766" height="0.263"/>
<rect x="162.699" y="59.871" fill="#1d1d1b" width="156.766" height="0.263"/>
<rect x="162.699" y="63.874" fill="#1d1d1b" width="156.766" height="0.264"/>
</svg>
