<?xml version="1.0" encoding="utf-8"?>
<!-- Generator: Adobe Illustrator 18.1.1, SVG Export Plug-In . SVG Version: 6.00 Build 0)  -->
<svg version="1.1" id="Layer_1" xmlns="http://www.w3.org/2000/svg" xmlns:xlink="http://www.w3.org/1999/xlink" x="0px" y="0px"
	 viewBox="0 0 320 65.019" enable-background="new 0 0 320 65.019" xml:space="preserve">
<rect y="0" fill="#FFFFFF" width="320.315" height="65.019"/>
<rect x="2.561" y="0" fill="#C5D9F1" width="156.661" height="3.976"/>
<rect x="162.54" y="0" fill="#C5D9F1" width="156.819" height="3.976"/>
<rect x="2.561" y="15.934" fill="#C5D9F1" width="156.66" height="4.056"/>
<rect x="162.54" y="15.934" fill="#C5D9F1" width="156.819" height="4.056"/>
<rect x="2.561" y="55.968" fill="#C5D9F1" width="156.66" height="4.056"/>
<rect x="162.54" y="55.968" fill="#C5D9F1" width="156.819" height="4.056"/>
<rect x="2.561" y="64.186" fill="#C5D9F1" width="156.661" height="0.833"/>
<rect x="162.54" y="64.186" fill="#C5D9F1" width="156.819" height="0.833"/>
<text transform="matrix(1 0 0 1 2.9301 6.663)"><tspan x="0" y="0" font-family="'Arial'" font-size="2.6865">OW-0</tspan><tspan x="7.014" y="0" font-family="'Arial'" font-size="2.6865" letter-spacing="4">1</tspan><tspan x="13.484" y="0" font-family="'Arial'" font-size="2.6865">Operable Wall - Solid</tspan></text>
<text transform="matrix(1 0 0 1 109.9119 6.663)" font-family="'Arial'" font-size="2.6865">Operable Walls</text>
<text transform="matrix(1 0 0 1 143.2539 6.663)"><tspan x="0" y="0" font-family="'Arial'" font-size="2.6865">05-18</tspan><tspan x="6.871" y="0" font-family="'Arial'" font-size="2.6865" letter-spacing="11">0</tspan><tspan x="19.804" y="0" font-family="'Arial'" font-size="2.6865">OW-0</tspan><tspan x="26.818" y="0" font-family="'Arial'" font-size="2.6865" letter-spacing="4">1</tspan><tspan x="33.288" y="0" font-family="'Arial'" font-size="2.6865">Operable Wall - Solid</tspan></text>
<text transform="matrix(1 0 0 1 270.0407 6.663)" font-family="'Arial'" font-size="2.6865">Operable Walls</text>
<text transform="matrix(1 0 0 1 303.3827 6.663)" font-family="'Arial'" font-size="2.6865">05-180</text>
<text transform="matrix(1 0 0 1 2.9301 10.6652)"><tspan x="0" y="0" font-family="'Arial'" font-size="2.6865">OW-0</tspan><tspan x="7.014" y="0" font-family="'Arial'" font-size="2.6865" letter-spacing="4">2</tspan><tspan x="13.484" y="0" font-family="'Arial'" font-size="2.6865">Operable Wall - Glass</tspan></text>
<text transform="matrix(1 0 0 1 109.9146 10.6652)" font-family="'Arial'" font-size="2.6865">Operable Walls</text>
<text transform="matrix(1 0 0 1 143.2567 10.6652)"><tspan x="0" y="0" font-family="'Arial'" font-size="2.6865">05-18</tspan><tspan x="6.871" y="0" font-family="'Arial'" font-size="2.6865" letter-spacing="11">0</tspan><tspan x="19.804" y="0" font-family="'Arial'" font-size="2.6865">OW-0</tspan><tspan x="26.818" y="0" font-family="'Arial'" font-size="2.6865" letter-spacing="4">2</tspan><tspan x="33.288" y="0" font-family="'Arial'" font-size="2.6865">Operable Wall - Glass</tspan></text>
<text transform="matrix(1 0 0 1 270.0456 10.6652)" font-family="'Arial'" font-size="2.6865">Operable Walls</text>
<text transform="matrix(1 0 0 1 303.3885 10.6652)" font-family="'Arial'" font-size="2.6865">05-180</text>
<g>
	<text transform="matrix(1 0 0 1 146.9505 14.6684)" font-family="'Arial'" font-size="2.6865">.</text>
	<text transform="matrix(1 0 0 1 118.6109 14.6684)" font-family="'Arial'" font-size="2.6865">.</text>
</g>
<text transform="matrix(1 0 0 1 16.4157 18.7258)" font-family="'Arial'" font-weight="bolder" font-size="2.6865">Paint / Clear Finishes</text>
<text transform="matrix(1 0 0 1 118.7145 18.7258)" font-family="'Arial'" font-weight="bolder" font-size="2.6865">.</text>
<text transform="matrix(1 0 0 1 147.0542 18.7258)" font-family="'Arial'" font-weight="bolder" font-size="2.6865">.</text>
<text transform="matrix(1 0 0 1 176.5547 18.7258)" font-family="'Arial'" font-weight="bolder" font-size="2.6865">Paint / Clear Finishes</text>
<text transform="matrix(1 0 0 1 278.854 18.7258)" font-family="'Arial'" font-weight="bolder" font-size="2.6865">.</text>
<text transform="matrix(1 0 0 1 307.1932 18.7258)" font-family="'Arial'" font-weight="bolder" font-size="2.6865">.</text>
<text transform="matrix(1 0 0 1 2.9291 22.6775)"><tspan x="0" y="0" font-family="'Arial'" font-size="2.6865">PT-0</tspan><tspan x="5.822" y="0" font-family="'Arial'" font-size="2.6865" letter-spacing="6">1</tspan><tspan x="13.484" y="0" font-family="'Arial'" font-size="2.6865">Interior Acrylic Paint - Low Sheen</tspan></text>
<text transform="matrix(1 0 0 1 103.2215 22.6775)"><tspan x="0" y="0" font-family="'Arial'" font-size="2.6865">Painting and Wall Finishe</tspan><tspan x="30.314" y="0" font-family="'Arial'" font-size="2.6865" letter-spacing="8">s</tspan><tspan x="39.929" y="0" font-family="'Arial'" font-size="2.6865">05-60</tspan><tspan x="46.8" y="0" font-family="'Arial'" font-size="2.6865" letter-spacing="11">0</tspan><tspan x="59.838" y="0" font-family="'Arial'" font-size="2.6865">PT-0</tspan><tspan x="65.66" y="0" font-family="'Arial'" font-size="2.6865" letter-spacing="6">8</tspan><tspan x="73.322" y="0" font-family="'Arial'" font-size="2.6865">Interior Acrylic Paint - Low Sheen</tspan></text>
<text transform="matrix(1 0 0 1 263.3475 22.6775)" font-family="'Arial'" font-size="2.6865">Painting and Wall</text>
<text transform="matrix(1 0 0 1 284.2672 22.6775)"><tspan x="0" y="0" font-family="'Arial'" font-size="2.6865"> Finishe</tspan><tspan x="9.405" y="0" font-family="'Arial'" font-size="2.6865" letter-spacing="8">s</tspan><tspan x="19.018" y="0" font-family="'Arial'" font-size="2.6865">05-606</tspan></text>
<text transform="matrix(1 0 0 1 2.929 26.6806)"><tspan x="0" y="0" font-family="'Arial'" font-size="2.6865">PT-0</tspan><tspan x="5.822" y="0" font-family="'Arial'" font-size="2.6865" letter-spacing="6">2</tspan><tspan x="13.484" y="0" font-family="'Arial'" font-size="2.6865">Interior Acrylic Paint - Low Sheen</tspan></text>
<text transform="matrix(1 0 0 1 103.2215 26.6806)"><tspan x="0" y="0" font-family="'Arial'" font-size="2.6865">Painting and Wall Finishe</tspan><tspan x="30.314" y="0" font-family="'Arial'" font-size="2.6865" letter-spacing="8">s</tspan><tspan x="40.034" y="0" font-family="'Arial'" font-size="2.6865">05-60</tspan><tspan x="46.905" y="0" font-family="'Arial'" font-size="2.6865" letter-spacing="11">0</tspan><tspan x="59.838" y="0" font-family="'Arial'" font-size="2.6865">PT-0</tspan><tspan x="65.66" y="0" font-family="'Arial'" font-size="2.6865" letter-spacing="6">9</tspan><tspan x="73.322" y="0" font-family="'Arial'" font-size="2.6865">Interior Acrylic Paint - Low Sheen</tspan></text>
<text transform="matrix(1 0 0 1 263.3475 26.6806)" font-family="'Arial'" font-size="2.6865">Painting and Wall</text>
<text transform="matrix(1 0 0 1 284.2672 26.6806)"><tspan x="0" y="0" font-family="'Arial'" font-size="2.6865"> Finishe</tspan><tspan x="9.405" y="0" font-family="'Arial'" font-size="2.6865" letter-spacing="8">s</tspan><tspan x="19.018" y="0" font-family="'Arial'" font-size="2.6865">05-607</tspan></text>
<text transform="matrix(1 0 0 1 2.9291 30.6833)"><tspan x="0" y="0" font-family="'Arial'" font-size="2.6865">PT-0</tspan><tspan x="5.822" y="0" font-family="'Arial'" font-size="2.6865" letter-spacing="6">3</tspan><tspan x="13.484" y="0" font-family="'Arial'" font-size="2.6865">Interior Acrylic Paint - Low Sheen</tspan></text>
<text transform="matrix(1 0 0 1 103.2215 30.6833)"><tspan x="0" y="0" font-family="'Arial'" font-size="2.6865">Painting and Wall Finishe</tspan><tspan x="30.314" y="0" font-family="'Arial'" font-size="2.6865" letter-spacing="8">s</tspan><tspan x="39.929" y="0" font-family="'Arial'" font-size="2.6865">05-60</tspan><tspan x="46.8" y="0" font-family="'Arial'" font-size="2.6865" letter-spacing="11">0</tspan><tspan x="59.838" y="0" font-family="'Arial'" font-size="2.6865">PT-1</tspan><tspan x="65.66" y="0" font-family="'Arial'" font-size="2.6865" letter-spacing="6">0</tspan><tspan x="73.322" y="0" font-family="'Arial'" font-size="2.6865">Interior Acrylic Paint - Low Sheen</tspan></text>
<text transform="matrix(1 0 0 1 263.3475 30.6833)" font-family="'Arial'" font-size="2.6865">Painting and Wall</text>
<text transform="matrix(1 0 0 1 284.2672 30.6833)"><tspan x="0" y="0" font-family="'Arial'" font-size="2.6865"> Finishe</tspan><tspan x="9.405" y="0" font-family="'Arial'" font-size="2.6865" letter-spacing="8">s</tspan><tspan x="19.018" y="0" font-family="'Arial'" font-size="2.6865">05-600</tspan></text>
<text transform="matrix(1 0 0 1 2.929 34.686)"><tspan x="0" y="0" font-family="'Arial'" font-size="2.6865">PT-0</tspan><tspan x="5.822" y="0" font-family="'Arial'" font-size="2.6865" letter-spacing="6">4</tspan><tspan x="13.484" y="0" font-family="'Arial'" font-size="2.6865">Interior Acrylic Paint - Low Sheen</tspan></text>
<text transform="matrix(1 0 0 1 103.2215 34.686)"><tspan x="0" y="0" font-family="'Arial'" font-size="2.6865">Painting and Wall Finishe</tspan><tspan x="30.314" y="0" font-family="'Arial'" font-size="2.6865" letter-spacing="8">s</tspan><tspan x="39.929" y="0" font-family="'Arial'" font-size="2.6865">05-60</tspan><tspan x="46.8" y="0" font-family="'Arial'" font-size="2.6865" letter-spacing="11">0</tspan><tspan x="59.838" y="0" font-family="'Arial'" font-size="2.6865">PT-1</tspan><tspan x="65.66" y="0" font-family="'Arial'" font-size="2.6865" letter-spacing="6">1</tspan><tspan x="73.322" y="0" font-family="'Arial'" font-size="2.6865">Interior Acrylic Enamel Paint - Gloss</tspan></text>
<text transform="matrix(1 0 0 1 263.3475 34.686)" font-family="'Arial'" font-size="2.6865">Painting and W</text>
<text transform="matrix(1 0 0 1 281.5809 34.686)"><tspan x="0" y="0" font-family="'Arial'" font-size="2.6865">all Finishe</tspan><tspan x="12.093" y="0" font-family="'Arial'" font-size="2.6865" letter-spacing="8">s</tspan><tspan x="21.707" y="0" font-family="'Arial'" font-size="2.6865">05-600</tspan></text>
<text transform="matrix(1 0 0 1 2.9291 38.6892)"><tspan x="0" y="0" font-family="'Arial'" font-size="2.6865">PT-0</tspan><tspan x="5.822" y="0" font-family="'Arial'" font-size="2.6865" letter-spacing="6">5</tspan><tspan x="13.484" y="0" font-family="'Arial'" font-size="2.6865">Interior Acrylic Paint - Low Sheen</tspan></text>
<text transform="matrix(1 0 0 1 103.2215 38.6891)"><tspan x="0" y="0" font-family="'Arial'" font-size="2.6865">Painting and Wall Finishe</tspan><tspan x="30.314" y="0" font-family="'Arial'" font-size="2.6865" letter-spacing="8">s</tspan><tspan x="39.929" y="0" font-family="'Arial'" font-size="2.6865">05-60</tspan><tspan x="46.8" y="0" font-family="'Arial'" font-size="2.6865" letter-spacing="11">3</tspan><tspan x="59.838" y="0" font-family="'Arial'" font-size="2.6865">PT-1</tspan><tspan x="65.66" y="0" font-family="'Arial'" font-size="2.6865" letter-spacing="6">3</tspan><tspan x="73.322" y="0" font-family="'Arial'" font-size="2.6865">Concrete Floor Sealer</tspan></text>
<text transform="matrix(1 0 0 1 263.3475 38.6892)"><tspan x="0" y="0" font-family="'Arial'" font-size="2.6865">Painting and Wall Finishe</tspan><tspan x="30.311" y="0" font-family="'Arial'" font-size="2.6865" letter-spacing="8">s</tspan><tspan x="40.03" y="0" font-family="'Arial'" font-size="2.6865">05-6</tspan></text>
<text transform="matrix(1 0 0 1 308.7733 38.6892)" font-family="'Arial'" font-size="2.6865">00</text>
<text transform="matrix(1 0 0 1 2.929 42.6918)"><tspan x="0" y="0" font-family="'Arial'" font-size="2.6865">PT-0</tspan><tspan x="5.822" y="0" font-family="'Arial'" font-size="2.6865" letter-spacing="6">6</tspan><tspan x="13.484" y="0" font-family="'Arial'" font-size="2.6865">Interior Acrylic Paint - Low Sheen</tspan></text>
<text transform="matrix(1 0 0 1 103.2215 42.6918)"><tspan x="0" y="0" font-family="'Arial'" font-size="2.6865">Painting and Wall Finishe</tspan><tspan x="30.314" y="0" font-family="'Arial'" font-size="2.6865" letter-spacing="8">s</tspan><tspan x="39.929" y="0" font-family="'Arial'" font-size="2.6865">05-60</tspan><tspan x="46.8" y="0" font-family="'Arial'" font-size="2.6865" letter-spacing="11">4</tspan><tspan x="59.838" y="0" font-family="'Arial'" font-size="2.6865">PT-1</tspan><tspan x="65.66" y="0" font-family="'Arial'" font-size="2.6865" letter-spacing="6">4</tspan><tspan x="73.322" y="0" font-family="'Arial'" font-size="2.6865">Paint to External Metalwork</tspan></text>
<text transform="matrix(1 0 0 1 263.3475 42.6918)" font-family="'Arial'" font-size="2.6865">Painting and Wall Finish</text>
<text transform="matrix(1 0 0 1 292.1785 42.6918)"><tspan x="0" y="0" font-family="'Arial'" font-size="2.6865">e</tspan><tspan x="1.494" y="0" font-family="'Arial'" font-size="2.6865" letter-spacing="8">s</tspan><tspan x="11.108" y="0" font-family="'Arial'" font-size="2.6865">05-600</tspan></text>
<text transform="matrix(1 0 0 1 2.9264 46.6945)"><tspan x="0" y="0" font-family="'Arial'" font-size="2.6865">PT-0</tspan><tspan x="5.822" y="0" font-family="'Arial'" font-size="2.6865" letter-spacing="6">7</tspan><tspan x="13.484" y="0" font-family="'Arial'" font-size="2.6865">Interior Acrylic Paint - Low Sheen</tspan></text>
<text transform="matrix(1 0 0 1 103.2188 46.6945)"><tspan x="0" y="0" font-family="'Arial'" font-size="2.6865">Painting and Wall Finishe</tspan><tspan x="30.314" y="0" font-family="'Arial'" font-size="2.6865" letter-spacing="8">s</tspan><tspan x="39.929" y="0" font-family="'Arial'" font-size="2.6865">05-60</tspan><tspan x="46.8" y="0" font-family="'Arial'" font-size="2.6865" letter-spacing="11">0</tspan><tspan x="59.838" y="0" font-family="'Arial'" font-size="2.6865">PT-1</tspan><tspan x="65.66" y="0" font-family="'Arial'" font-size="2.6865" letter-spacing="6">5</tspan><tspan x="73.322" y="0" font-family="'Arial'" font-size="2.6865">Line Marking Paint </tspan></text>
<text transform="matrix(1 0 0 1 263.3444 46.6945)"><tspan x="0" y="0" font-family="'Arial'" font-size="2.6865">Painting and Wall Finishe</tspan><tspan x="30.311" y="0" font-family="'Arial'" font-size="2.6865" letter-spacing="8">s</tspan><tspan x="39.925" y="0" font-family="'Arial'" font-size="2.6865">05-600</tspan></text>
<text transform="matrix(1 0 0 1 118.6039 50.6982)" font-family="'Arial'" font-size="2.6865">.</text>
<text transform="matrix(1 0 0 1 146.9441 50.6982)" font-family="'Arial'" font-size="2.6865">.</text>
<text transform="matrix(1 0 0 1 163.0632 50.6982)"><tspan x="0" y="0" font-family="'Arial'" font-size="2.6865">PT-1</tspan><tspan x="5.822" y="0" font-family="'Arial'" font-size="2.6865" letter-spacing="6">6</tspan><tspan x="13.484" y="0" font-family="'Arial'" font-size="2.6865">Write-on Wall Paint</tspan></text>
<text transform="matrix(1 0 0 1 263.3583 50.6982)"><tspan x="0" y="0" font-family="'Arial'" font-size="2.6865">Painting and Wall Finishe</tspan><tspan x="30.311" y="0" font-family="'Arial'" font-size="2.6865" letter-spacing="8">s</tspan><tspan x="39.925" y="0" font-family="'Arial'" font-size="2.6865">05-600</tspan></text>
<g>
	<text transform="matrix(1 0 0 1 146.9441 54.7003)" font-family="'Arial'" font-size="2.6865">.</text>
	<text transform="matrix(1 0 0 1 118.6039 54.7003)" font-family="'Arial'" font-size="2.6865">.</text>
</g>
<text transform="matrix(1 0 0 1 16.4151 58.7599)" font-family="'Arial'" font-weight="bolder" font-size="2.6865">Panelling / Cubicles</text>
<text transform="matrix(1 0 0 1 118.6098 58.7599)" font-family="'Arial'" font-weight="bolder" font-size="2.6865">.</text>
<text transform="matrix(1 0 0 1 147.0542 58.7599)" font-family="'Arial'" font-weight="bolder" font-size="2.6865">.</text>
<text transform="matrix(1 0 0 1 176.5547 58.7599)" font-family="'Arial'" font-weight="bolder" font-size="2.6865">Panelling / Cubicles</text>
<text transform="matrix(1 0 0 1 278.7488 58.7599)" font-family="'Arial'" font-weight="bolder" font-size="2.6865">.</text>
<text transform="matrix(1 0 0 1 307.1932 58.7599)" font-family="'Arial'" font-weight="bolder" font-size="2.6865">.</text>
<g>
	<text transform="matrix(1 0 0 1 146.9441 62.7115)" font-family="'Arial'" font-size="2.6865">.</text>
	<text transform="matrix(1 0 0 1 118.6039 62.7115)" font-family="'Arial'" font-size="2.6865">.</text>
</g>
<rect x="2.561" width="156.766" height="0.078"/>
<rect x="2.561" y="3.818" width="156.766" height="0.264"/>
<rect x="2.561" y="7.821" width="156.766" height="0.264"/>
<rect x="2.561" y="11.825" width="156.766" height="0.263"/>
<rect x="2.561" y="15.828" width="156.766" height="0.264"/>
<rect x="2.561" y="19.831" width="156.766" height="0.264"/>
<rect x="2.561" y="23.835" width="156.766" height="0.264"/>
<rect x="2.561" y="27.839" width="156.766" height="0.263"/>
<rect x="2.561" y="31.842" width="156.766" height="0.264"/>
<rect x="2.561" y="35.845" width="156.766" height="0.264"/>
<rect x="2.561" y="39.848" width="156.766" height="0.264"/>
<rect x="2.561" y="43.853" width="156.766" height="0.263"/>
<rect x="2.561" y="47.856" width="156.766" height="0.264"/>
<rect x="2.561" y="51.859" width="156.766" height="0.264"/>
<rect x="2.561" y="55.862" width="156.766" height="0.264"/>
<rect x="2.561" y="59.866" width="156.766" height="0.263"/>
<rect x="2.561" y="64.08" width="156.766" height="0.264"/>
<rect x="2.298" y="0" width="0.263" height="65.019"/>
<rect x="15.783" y="0" width="0.264" height="65.019"/>
<rect x="102.383" y="0" width="0.264" height="65.019"/>
<rect x="135.254" y="0" width="0.263" height="65.019"/>
<rect x="159.064" y="0" width="0.264" height="65.019"/>
<rect x="162.435" y="0" width="0.264" height="65.019"/>
<rect x="175.921" y="0" width="0.263" height="65.019"/>
<rect x="262.52" y="0" width="0.264" height="65.019"/>
<rect x="295.391" y="0" width="0.263" height="65.019"/>
<rect x="319.201" y="0" width="0.264" height="65.019"/>
<rect x="162.699" width="156.766" height="0.078"/>
<rect x="162.699" y="3.818" width="156.766" height="0.264"/>
<rect x="162.699" y="7.821" width="156.766" height="0.264"/>
<rect x="162.699" y="11.825" width="156.766" height="0.263"/>
<rect x="162.699" y="15.828" width="156.766" height="0.264"/>
<rect x="162.699" y="19.831" width="156.766" height="0.264"/>
<rect x="162.699" y="23.835" width="156.766" height="0.264"/>
<rect x="162.699" y="27.839" width="156.766" height="0.263"/>
<rect x="162.699" y="31.842" width="156.766" height="0.264"/>
<rect x="162.699" y="35.845" width="156.766" height="0.264"/>
<rect x="162.699" y="39.848" width="156.766" height="0.264"/>
<rect x="162.699" y="43.853" width="156.766" height="0.263"/>
<rect x="162.699" y="47.856" width="156.766" height="0.264"/>
<rect x="162.699" y="51.859" width="156.766" height="0.264"/>
<rect x="162.699" y="55.862" width="156.766" height="0.264"/>
<rect x="162.699" y="59.866" width="156.766" height="0.263"/>
<rect x="162.699" y="64.08" width="156.766" height="0.264"/>
</svg>
