<?xml version="1.0" encoding="utf-8"?>
<!-- Generator: Adobe Illustrator 18.1.1, SVG Export Plug-In . SVG Version: 6.00 Build 0)  -->
<svg version="1.1" id="Layer_1" xmlns="http://www.w3.org/2000/svg" xmlns:xlink="http://www.w3.org/1999/xlink" x="0px" y="0px"
	 viewBox="0 0 320 65.02" enable-background="new 0 0 320 65.02" xml:space="preserve">
<rect y="0" fill="#ffffff" width="320.315" height="65.019"/>
<rect x="2.562" y="20.684" fill="#c5d9f1" width="156.66" height="4.056"/>
<rect x="162.54" y="20.684" fill="#c5d9f1" width="156.819" height="4.055"/>
<rect x="2.562" y="48.708" fill="#c5d9f1" width="156.66" height="4.056"/>
<rect x="162.54" y="48.707" fill="#c5d9f1" width="156.819" height="4.056"/>
<text transform="matrix(1 0 0 1 2.9304 3.4055)" fill="#1d1d1b" font-family="'Arial'" font-size="2.6865">TRM-06</text>
<text transform="matrix(1 0 0 1 16.416 3.4592)" fill="#1d1d1b" font-family="'Arial'" font-size="2.6865">Double Corner Guards</text>
<text transform="matrix(1 0 0 1 109.9658 3.4592)" fill="#1d1d1b" font-family="'Arial'" font-size="2.6865">Wall Protection</text>
<text transform="matrix(1 0 0 1 143.15 3.4592)" fill="#1d1d1b" font-family="'Arial'" font-size="2.6865">06-150</text>
<text transform="matrix(1 0 0 1 163.0672 3.4055)" fill="#1d1d1b" font-family="'Arial'" font-size="2.6865">TRM-15</text>
<text transform="matrix(1 0 0 1 176.5544 3.4592)" fill="#1d1d1b" font-family="'Arial'" font-size="2.6865">MDF skirtings</text>
<text transform="matrix(1 0 0 1 265.2588 3.4592)"><tspan x="0" y="0" fill="#1d1d1b" font-family="'Arial'" font-size="2.6865">Resilient Floor Finishe</tspan><tspan x="26.576" y="0" fill="#1d1d1b" font-family="'Arial'" font-size="2.6865" letter-spacing="10">s</tspan><tspan x="38.031" y="0" fill="#1d1d1b" font-family="'Arial'" font-size="2.6865">05-550</tspan></text>
<rect x="0.072" y="0.168" fill="none" width="319.393" height="64.852"/>
<text transform="matrix(1 0 0 1 2.9304 7.4088)" fill="#1d1d1b" font-family="'Arial'" font-size="2.6865">TRM-07</text>
<text transform="matrix(1 0 0 1 16.416 7.4624)" fill="#1d1d1b" font-family="'Arial'" font-size="2.6865">Aluminium Door Threshold Plate</text>
<text transform="matrix(1 0 0 1 105.1192 7.4624)"><tspan x="0" y="0" fill="#1d1d1b" font-family="'Arial'" font-size="2.6865">Resilient Floor Finishe</tspan><tspan x="26.576" y="0" fill="#1d1d1b" font-family="'Arial'" font-size="2.6865" letter-spacing="10">s</tspan><tspan x="38.031" y="0" fill="#1d1d1b" font-family="'Arial'" font-size="2.6865">05-550</tspan></text>
<text transform="matrix(1 0 0 1 163.0694 7.4088)" fill="#1d1d1b" font-family="'Arial'" font-size="2.6865">TRM-16</text>
<text transform="matrix(1 0 0 1 176.5555 7.4624)" fill="#1d1d1b" font-family="'Arial'" font-size="2.6865">Single Corner Guard</text>
<text transform="matrix(1 0 0 1 270.1054 7.4624)" fill="#1d1d1b" font-family="'Arial'" font-size="2.6865">Wall Protection</text>
<text transform="matrix(1 0 0 1 303.289 7.4624)" fill="#1d1d1b" font-family="'Arial'" font-size="2.6865">06-150</text>
<text transform="matrix(1 0 0 1 2.9326 11.4146)" fill="#1d1d1b" font-family="'Arial'" font-size="2.6865">TRM-08</text>
<text transform="matrix(1 0 0 1 16.4197 11.4683)" fill="#1d1d1b" font-family="'Arial'" font-size="2.6865">Double Crash Rail</text>
<text transform="matrix(1 0 0 1 109.9686 11.4683)" fill="#1d1d1b" font-family="'Arial'" font-size="2.6865">Wall Protection</text>
<text transform="matrix(1 0 0 1 143.1522 11.4683)" fill="#1d1d1b" font-family="'Arial'" font-size="2.6865">06-150</text>
<text transform="matrix(1 0 0 1 163.07 11.4146)" fill="#1d1d1b" font-family="'Arial'" font-size="2.6865">TRM-17</text>
<text transform="matrix(1 0 0 1 176.5555 11.4683)" fill="#1d1d1b" font-family="'Arial'" font-size="2.6865">Single Corner Guard (Full Height)</text>
<text transform="matrix(1 0 0 1 270.1032 11.4683)" fill="#1d1d1b" font-family="'Arial'" font-size="2.6865">Wall Protection</text>
<text transform="matrix(1 0 0 1 303.2869 11.4683)" fill="#1d1d1b" font-family="'Arial'" font-size="2.6865">06-150</text>
<text transform="matrix(1 0 0 1 2.9326 15.42)" fill="#1d1d1b" font-family="'Arial'" font-size="2.6865">TRM-09</text>
<text transform="matrix(1 0 0 1 16.4197 15.4736)" fill="#1d1d1b" font-family="'Arial'" font-size="2.6865">Single Corner Guard (Full Height)</text>
<text transform="matrix(1 0 0 1 109.9658 15.4736)" fill="#1d1d1b" font-family="'Arial'" font-size="2.6865">Wall Protection</text>
<text transform="matrix(1 0 0 1 143.15 15.4736)" fill="#1d1d1b" font-family="'Arial'" font-size="2.6865">06-150</text>
<text transform="matrix(1 0 0 1 163.0672 15.42)" fill="#1d1d1b" font-family="'Arial'" font-size="2.6865">TRM-18</text>
<text transform="matrix(1 0 0 1 176.5544 15.4736)" fill="#1d1d1b" font-family="'Arial'" font-size="2.6865">Single Crash Rail</text>
<text transform="matrix(1 0 0 1 270.1032 15.4736)" fill="#1d1d1b" font-family="'Arial'" font-size="2.6865">Wall Protection</text>
<text transform="matrix(1 0 0 1 303.2869 15.4736)" fill="#1d1d1b" font-family="'Arial'" font-size="2.6865">06-150</text>
<text transform="matrix(1 0 0 1 16.416 23.5332)" fill="#1d1d1b" font-family="'Arial'" font-weight="bolder" font-size="2.6865">Water Proofing Systems</text>
<text transform="matrix(1 0 0 1 118.6085 23.5332)" fill="#1d1d1b" font-family="'Arial'" font-weight="bolder" font-size="2.6865">.</text>
<text transform="matrix(1 0 0 1 146.9482 23.5332)" fill="#1d1d1b" font-family="'Arial'" font-weight="bolder" font-size="2.6865">.</text>
<text transform="matrix(1 0 0 1 176.5544 23.5332)" fill="#1d1d1b" font-family="'Arial'" font-weight="bolder" font-size="2.6865">Water Proofing Systems</text>
<text transform="matrix(1 0 0 1 278.7458 23.5332)" fill="#1d1d1b" font-family="'Arial'" font-weight="bolder" font-size="2.6865">.</text>
<text transform="matrix(1 0 0 1 307.085 23.5332)" fill="#1d1d1b" font-family="'Arial'" font-weight="bolder" font-size="2.6865">.</text>
<text transform="matrix(1 0 0 1 2.9304 27.4317)" fill="#1d1d1b" font-family="'Arial'" font-size="2.6865">WPRS-01</text>
<text transform="matrix(1 0 0 1 16.416 27.4854)" fill="#1d1d1b" font-family="'Arial'" font-size="2.6865">Tanking Membrane</text>
<text transform="matrix(1 0 0 1 110.5458 27.4854)" fill="#1d1d1b" font-family="'Arial'" font-size="2.6865">Waterproofing</text>
<text transform="matrix(1 0 0 1 143.15 27.4854)" fill="#1d1d1b" font-family="'Arial'" font-size="2.6865">04-050</text>
<text transform="matrix(1 0 0 1 163.0672 27.4317)" fill="#1d1d1b" font-family="'Arial'" font-size="2.6865">WPRS-06</text>
<text transform="matrix(1 0 0 1 176.5544 27.4854)" fill="#1d1d1b" font-family="'Arial'" font-size="2.6865">Tanking Membrane</text>
<text transform="matrix(1 0 0 1 270.6826 27.4854)" fill="#1d1d1b" font-family="'Arial'" font-size="2.6865">Waterproofing</text>
<text transform="matrix(1 0 0 1 303.2869 27.4854)" fill="#1d1d1b" font-family="'Arial'" font-size="2.6865">04-050</text>
<text transform="matrix(1 0 0 1 2.9304 31.437)" fill="#1d1d1b" font-family="'Arial'" font-size="2.6865">WPRS-02</text>
<text transform="matrix(1 0 0 1 16.416 31.4912)" fill="#1d1d1b" font-family="'Arial'" font-size="2.6865">Exposed Roof Membrane</text>
<text transform="matrix(1 0 0 1 110.5458 31.4912)" fill="#1d1d1b" font-family="'Arial'" font-size="2.6865">Waterproofing</text>
<text transform="matrix(1 0 0 1 143.15 31.4912)" fill="#1d1d1b" font-family="'Arial'" font-size="2.6865">04-050</text>
<text transform="matrix(1 0 0 1 163.0672 31.437)" fill="#1d1d1b" font-family="'Arial'" font-size="2.6865">WPRS-07</text>
<text transform="matrix(1 0 0 1 176.5544 31.4912)" fill="#1d1d1b" font-family="'Arial'" font-size="2.6865">Internal Wet Area Wall Membrane - one part acrylic membrane</text>
<text transform="matrix(1 0 0 1 270.6804 31.4912)" fill="#1d1d1b" font-family="'Arial'" font-size="2.6865">Waterproofing</text>
<text transform="matrix(1 0 0 1 303.2832 31.4912)" fill="#1d1d1b" font-family="'Arial'" font-size="2.6865">04-050</text>
<text transform="matrix(1 0 0 1 2.9304 35.4428)" fill="#1d1d1b" font-family="'Arial'" font-size="2.6865">WPRS-03</text>
<text transform="matrix(1 0 0 1 16.416 35.4966)" fill="#1d1d1b" font-family="'Arial'" font-size="2.6865">Plant Room Internal Membrane </text>
<text transform="matrix(1 0 0 1 110.5458 35.4966)" fill="#1d1d1b" font-family="'Arial'" font-size="2.6865">Waterproofing</text>
<text transform="matrix(1 0 0 1 143.15 35.4966)" fill="#1d1d1b" font-family="'Arial'" font-size="2.6865">04-050</text>
<text transform="matrix(1 0 0 1 163.0672 35.4428)" fill="#1d1d1b" font-family="'Arial'" font-size="2.6865">WPRS-08</text>
<text transform="matrix(1 0 0 1 176.5544 35.4966)" fill="#1d1d1b" font-family="'Arial'" font-size="2.6865">Exposed Roof Membrane</text>
<text transform="matrix(1 0 0 1 270.6826 35.4966)" fill="#1d1d1b" font-family="'Arial'" font-size="2.6865">Waterproofing</text>
<text transform="matrix(1 0 0 1 303.2869 35.4966)" fill="#1d1d1b" font-family="'Arial'" font-size="2.6865">04-050</text>
<text transform="matrix(1 0 0 1 2.9304 39.4482)" fill="#1d1d1b" font-family="'Arial'" font-size="2.6865">WPRS-04</text>
<text transform="matrix(1 0 0 1 16.416 39.5024)" fill="#1d1d1b" font-family="'Arial'" font-size="2.6865">Internal Wet Area Floor Membrane - one part urethane membrane</text>
<text transform="matrix(1 0 0 1 110.543 39.5024)" fill="#1d1d1b" font-family="'Arial'" font-size="2.6865">Waterproofing</text>
<text transform="matrix(1 0 0 1 143.1464 39.5024)" fill="#1d1d1b" font-family="'Arial'" font-size="2.6865">04-050</text>
<text transform="matrix(1 0 0 1 163.0672 39.4482)" fill="#1d1d1b" font-family="'Arial'" font-size="2.6865">WPRS-09</text>
<text transform="matrix(1 0 0 1 176.5544 39.5024)" fill="#1d1d1b" font-family="'Arial'" font-size="2.6865">Internal Wet Area Floor Membrane - one part urethane membrane</text>
<text transform="matrix(1 0 0 1 270.6804 39.5024)" fill="#1d1d1b" font-family="'Arial'" font-size="2.6865">Waterproofing</text>
<text transform="matrix(1 0 0 1 303.2832 39.5024)" fill="#1d1d1b" font-family="'Arial'" font-size="2.6865">04-050</text>
<text transform="matrix(1 0 0 1 2.9304 43.4541)" fill="#1d1d1b" font-family="'Arial'" font-size="2.6865">WPRS-05</text>
<text transform="matrix(1 0 0 1 16.416 43.5078)" fill="#1d1d1b" font-family="'Arial'" font-size="2.6865">Internal Wet Area Wall Membrane - one part acrylic membrane</text>
<text transform="matrix(1 0 0 1 110.543 43.5078)" fill="#1d1d1b" font-family="'Arial'" font-size="2.6865">Waterproofing</text>
<text transform="matrix(1 0 0 1 143.1464 43.5078)" fill="#1d1d1b" font-family="'Arial'" font-size="2.6865">04-050</text>
<text transform="matrix(1 0 0 1 163.0672 43.4541)" fill="#1d1d1b" font-family="'Arial'" font-size="2.6865">WPRS-10</text>
<text transform="matrix(1 0 0 1 176.5544 43.5078)" fill="#1d1d1b" font-family="'Arial'" font-size="2.6865">Plant Room Internal Membrane </text>
<text transform="matrix(1 0 0 1 270.6826 43.5078)" fill="#1d1d1b" font-family="'Arial'" font-size="2.6865">Waterproofing</text>
<text transform="matrix(1 0 0 1 303.2869 43.5078)" fill="#1d1d1b" font-family="'Arial'" font-size="2.6865">04-050</text>
<g>
	<text transform="matrix(1 0 0 1 146.9482 47.5104)" fill="#1d1d1b" font-family="'Arial'" font-size="2.6865">.</text>
	<text transform="matrix(1 0 0 1 118.6085 47.5104)" fill="#1d1d1b" font-family="'Arial'" font-size="2.6865">.</text>
</g>
<g>
	<text transform="matrix(1 0 0 1 307.085 47.496)" fill="#1d1d1b" font-family="'Arial'" font-size="2.6865">.</text>
	<text transform="matrix(1 0 0 1 278.7448 47.496)" fill="#1d1d1b" font-family="'Arial'" font-size="2.6865">.</text>
</g>
<rect x="0.072" y="0.168" fill="none" width="319.393" height="64.852"/>
<text transform="matrix(1 0 0 1 16.4149 51.5518)" fill="#1d1d1b" font-family="'Arial'" font-weight="bolder" font-size="2.6865">Window/ Glazing Systems</text>
<text transform="matrix(1 0 0 1 118.6123 51.5518)" fill="#1d1d1b" font-family="'Arial'" font-weight="bolder" font-size="2.6865">.</text>
<text transform="matrix(1 0 0 1 146.952 51.5518)" fill="#1d1d1b" font-family="'Arial'" font-weight="bolder" font-size="2.6865">.</text>
<text transform="matrix(1 0 0 1 176.5576 51.5518)" fill="#1d1d1b" font-family="'Arial'" font-weight="bolder" font-size="2.6865">Window/ Glazing Systems</text>
<text transform="matrix(1 0 0 1 278.7549 51.5518)" fill="#1d1d1b" font-family="'Arial'" font-weight="bolder" font-size="2.6865">.</text>
<text transform="matrix(1 0 0 1 307.0946 51.5518)" fill="#1d1d1b" font-family="'Arial'" font-weight="bolder" font-size="2.6865">.</text>
<text transform="matrix(1 0 0 1 2.9315 55.4503)" fill="#1d1d1b" font-family="'Arial'" font-size="2.6865">WT-01</text>
<text transform="matrix(1 0 0 1 16.4181 55.504)" fill="#1d1d1b" font-family="'Arial'" font-size="2.6865">Window Type</text>
<text transform="matrix(1 0 0 1 109.6528 55.504)" fill="#1d1d1b" font-family="'Arial'" font-size="2.6865">Façade Glazing</text>
<text transform="matrix(1 0 0 1 163.0684 55.4503)" fill="#1d1d1b" font-family="'Arial'" font-size="2.6865">WT-01</text>
<text transform="matrix(1 0 0 1 176.5554 55.504)" fill="#1d1d1b" font-family="'Arial'" font-size="2.6865">Window Type</text>
<text transform="matrix(1 0 0 1 269.7897 55.504)" fill="#1d1d1b" font-family="'Arial'" font-size="2.6865">Façade Glazing</text>
<text transform="matrix(1 0 0 1 2.9315 59.4556)" fill="#1d1d1b" font-family="'Arial'" font-size="2.6865">WT-02</text>
<text transform="matrix(1 0 0 1 16.4181 59.5093)" fill="#1d1d1b" font-family="'Arial'" font-size="2.6865">Window Type</text>
<text transform="matrix(1 0 0 1 109.6528 59.5093)" fill="#1d1d1b" font-family="'Arial'" font-size="2.6865">Façade Glazing</text>
<text transform="matrix(1 0 0 1 163.0684 59.4556)" fill="#1d1d1b" font-family="'Arial'" font-size="2.6865">WT-02</text>
<text transform="matrix(1 0 0 1 176.5554 59.5093)" fill="#1d1d1b" font-family="'Arial'" font-size="2.6865">Window Type</text>
<text transform="matrix(1 0 0 1 269.7897 59.5093)" fill="#1d1d1b" font-family="'Arial'" font-size="2.6865">Façade Glazing</text>
<text transform="matrix(1 0 0 1 2.9315 63.461)" fill="#1d1d1b" font-family="'Arial'" font-size="2.6865">BG01</text>
<text transform="matrix(1 0 0 1 16.4181 63.5152)" fill="#1d1d1b" font-family="'Arial'" font-size="2.6865">Balcony Glazing</text>
<text transform="matrix(1 0 0 1 109.6528 63.5152)" fill="#1d1d1b" font-family="'Arial'" font-size="2.6865">Façade Glazing</text>
<text transform="matrix(1 0 0 1 163.0684 63.461)" fill="#1d1d1b" font-family="'Arial'" font-size="2.6865">BG01</text>
<text transform="matrix(1 0 0 1 176.5554 63.5152)" fill="#1d1d1b" font-family="'Arial'" font-size="2.6865">Balcony Glazing</text>
<text transform="matrix(1 0 0 1 269.7897 63.5152)" fill="#1d1d1b" font-family="'Arial'" font-size="2.6865">Façade Glazing</text>
<rect x="0.072" y="0.168" fill="none" width="319.393" height="64.852"/>
<rect x="2.562" y="0.56" fill="#1d1d1b" width="156.766" height="0.264"/>
<rect x="2.562" y="4.565" fill="#1d1d1b" width="156.766" height="0.263"/>
<rect x="2.562" y="8.568" fill="#1d1d1b" width="156.766" height="0.264"/>
<rect x="2.562" y="12.571" fill="#1d1d1b" width="156.766" height="0.264"/>
<rect x="2.562" y="16.574" fill="#1d1d1b" width="156.766" height="0.264"/>
<rect x="2.562" y="20.578" fill="#1d1d1b" width="156.766" height="0.263"/>
<rect x="2.562" y="24.581" fill="#1d1d1b" width="156.766" height="0.264"/>
<rect x="2.562" y="28.585" fill="#1d1d1b" width="156.766" height="0.264"/>
<rect x="2.562" y="32.588" fill="#1d1d1b" width="156.766" height="0.264"/>
<rect x="2.562" y="36.592" fill="#1d1d1b" width="156.766" height="0.263"/>
<rect x="2.562" y="40.595" fill="#1d1d1b" width="156.766" height="0.264"/>
<rect x="2.562" y="44.598" fill="#1d1d1b" width="156.766" height="0.264"/>
<rect x="2.562" y="48.602" fill="#1d1d1b" width="156.766" height="0.264"/>
<rect x="2.562" y="52.606" fill="#1d1d1b" width="156.766" height="0.263"/>
<rect x="2.562" y="56.609" fill="#1d1d1b" width="156.766" height="0.264"/>
<rect x="2.562" y="60.612" fill="#1d1d1b" width="156.766" height="0.264"/>
<rect x="2.562" y="64.615" fill="#1d1d1b" width="156.766" height="0.264"/>
<rect x="2.298" y="0.561" fill="#1d1d1b" width="0.264" height="64.459"/>
<rect x="15.784" y="0.825" fill="#1d1d1b" width="0.264" height="64.195"/>
<rect x="102.384" y="0.825" fill="#1d1d1b" width="0.263" height="64.195"/>
<rect x="135.254" y="0.825" fill="#1d1d1b" width="0.264" height="64.195"/>
<rect x="159.064" y="0.825" fill="#1d1d1b" width="0.264" height="64.195"/>
<rect x="162.435" y="0.561" fill="#1d1d1b" width="0.264" height="64.459"/>
<rect x="175.921" y="0.825" fill="#1d1d1b" width="0.264" height="64.195"/>
<rect x="262.521" y="0.825" fill="#1d1d1b" width="0.263" height="64.195"/>
<rect x="295.391" y="0.825" fill="#1d1d1b" width="0.264" height="64.195"/>
<rect x="319.202" y="0.825" fill="#1d1d1b" width="0.263" height="64.195"/>
<rect x="162.699" y="0.56" fill="#1d1d1b" width="156.766" height="0.264"/>
<rect x="162.699" y="4.565" fill="#1d1d1b" width="156.766" height="0.263"/>
<rect x="162.699" y="8.568" fill="#1d1d1b" width="156.766" height="0.264"/>
<rect x="162.699" y="12.571" fill="#1d1d1b" width="156.766" height="0.264"/>
<rect x="162.699" y="16.574" fill="#1d1d1b" width="156.766" height="0.264"/>
<rect x="162.699" y="20.578" fill="#1d1d1b" width="156.766" height="0.263"/>
<rect x="162.699" y="24.581" fill="#1d1d1b" width="156.766" height="0.264"/>
<rect x="162.699" y="28.585" fill="#1d1d1b" width="156.766" height="0.264"/>
<rect x="162.699" y="32.588" fill="#1d1d1b" width="156.766" height="0.264"/>
<rect x="162.699" y="36.592" fill="#1d1d1b" width="156.766" height="0.263"/>
<rect x="162.699" y="40.595" fill="#1d1d1b" width="156.766" height="0.264"/>
<rect x="162.699" y="44.598" fill="#1d1d1b" width="156.766" height="0.264"/>
<rect x="162.699" y="48.602" fill="#1d1d1b" width="156.766" height="0.264"/>
<rect x="162.699" y="52.606" fill="#1d1d1b" width="156.766" height="0.263"/>
<rect x="162.699" y="56.609" fill="#1d1d1b" width="156.766" height="0.264"/>
<rect x="162.699" y="60.612" fill="#1d1d1b" width="156.766" height="0.264"/>
<rect x="162.699" y="64.615" fill="#1d1d1b" width="156.766" height="0.264"/>
</svg>
