<?xml version="1.0" encoding="utf-8"?>
<!-- Generator: Adobe Illustrator 18.1.1, SVG Export Plug-In . SVG Version: 6.00 Build 0)  -->
<svg id="Layer_1" xmlns="http://www.w3.org/2000/svg" xmlns:xlink="http://www.w3.org/1999/xlink" x="0px" y="0px"
	 viewBox="0 0 320 102.18" enable-background="new 0 0 320 102.18" xml:space="preserve">
<g>
	<path fill="#ffffff" d="M272.619,83.64v-0.12h1.18V32.64h-0.28v4.891c0,0.132-0.108,0.24-0.24,0.24h-2.04v3.109h-0.12V37.77h-2.09
		c-0.132,0-0.24-0.108-0.24-0.24v-1.304l-0.136,0.058l-0.083-0.062l0.05-0.45l0.102-0.036l0.067,0.067v-2.878l-0.136,0.058
		l-0.083-0.062l0.05-0.45l0.102-0.036l0.067,0.067v-2.878l-0.136,0.058l-0.083-0.062l0.05-0.45l0.102-0.036l0.067,0.067V27.58
		c0-0.132,0.108-0.24,0.24-0.24h1.328l0.018-0.037l0.106-0.003l0.023,0.04h0.615v-0.92h0.12v0.92h2.04c0.132,0,0.24,0.108,0.24,0.24
		v4.939h0.28V25.06h-5.29v7.459h0.089v0.12h-0.089v4.89h-0.18v0.18h-36.61v3.77v25.1v35.599h39.399v-1.418h0.12v1.418h2.56V83.64
		H272.619z M256.679,59.78c0.15-0.1,0.3-0.2,0.4-0.35c0.15-0.1,0.2-0.25,0.25-0.35h0.2v2.85h-0.3v-2.25
		c-0.05,0.1-0.15,0.15-0.25,0.25c-0.1,0.1-0.2,0.15-0.3,0.2V59.78z M254.879,59.78c0.15-0.1,0.3-0.2,0.4-0.35
		c0.1-0.1,0.2-0.25,0.25-0.35h0.2v2.85h-0.3v-2.25c-0.05,0.1-0.15,0.15-0.25,0.25c-0.1,0.1-0.2,0.15-0.3,0.2V59.78z M253.529,60.68
		h0.9v0.35h-0.9V60.68z M252.929,60.93c-0.05-0.1-0.1-0.15-0.2-0.15c-0.05-0.05-0.2-0.1-0.45-0.2c-0.25-0.05-0.4-0.1-0.5-0.2
		c-0.05-0.05-0.15-0.15-0.2-0.25c-0.05-0.1-0.05-0.2-0.05-0.35c0-0.2,0.05-0.4,0.2-0.55c0.15-0.15,0.35-0.2,0.6-0.2
		c0.15,0,0.3,0.05,0.45,0.1c0.15,0.05,0.25,0.15,0.3,0.3c0.1,0.1,0.1,0.25,0.1,0.45h-0.25c-0.05-0.15-0.1-0.3-0.2-0.4
		c-0.1-0.1-0.2-0.15-0.4-0.15c-0.15,0-0.3,0.05-0.4,0.15c-0.1,0.05-0.15,0.15-0.15,0.3c0,0.1,0.05,0.2,0.15,0.25
		c0.05,0.05,0.2,0.15,0.45,0.2c0.2,0.05,0.35,0.1,0.45,0.15c0.15,0.1,0.25,0.2,0.35,0.3c0.05,0.1,0.1,0.25,0.1,0.4
		c0,0.2-0.05,0.35-0.1,0.45c-0.1,0.15-0.2,0.25-0.35,0.3c-0.1,0.1-0.25,0.1-0.45,0.1c-0.3,0-0.5-0.05-0.7-0.25
		c-0.1-0.05-0.15-0.15-0.2-0.3c-0.05-0.1-0.05-0.25-0.05-0.4h0.3c0,0.15,0.05,0.25,0.1,0.35c0.05,0.1,0.1,0.15,0.2,0.2
		c0.1,0.05,0.25,0.1,0.35,0.1c0.2,0,0.35-0.05,0.45-0.15c0.1-0.1,0.15-0.2,0.15-0.35C252.979,61.03,252.929,60.98,252.929,60.93z
		 M249.179,59.08h0.3l1.25,2.2v-2.2h0.25v2.85h-0.3l-1.2-2.25v2.25h-0.3V59.08z M249.833,73.713c0.138,0,0.276,0.02,0.412,0.059
		c0.688,0.264,1.047,1.005,0.841,1.725c-0.208,0.54-0.723,0.899-1.285,0.899c-0.132,0-0.264-0.02-0.391-0.059
		c-0.728-0.26-1.101-0.984-0.89-1.724C248.732,74.065,249.247,73.713,249.833,73.713z M248.329,59.08h0.3v2.849h-0.3V59.08z
		 M236.679,83.64h-3.96v-0.12h3.96V83.64z M239.199,83.64h-1.02v-0.12h1.02V83.64z M244.659,83.64h-3.96v-0.12h3.96V83.64z
		 M247.179,83.64h-1.02v-0.12h1.02V83.64z M247.979,80.08v1.6h-0.35v-3.55h1.25c0.3,0,0.5,0.05,0.6,0.1
		c0.15,0.05,0.25,0.15,0.35,0.35c0.05,0.15,0.1,0.3,0.1,0.5c0,0.3-0.05,0.5-0.2,0.65c-0.15,0.2-0.35,0.3-0.6,0.35
		c0.1,0.05,0.2,0.1,0.25,0.15c0.1,0.15,0.2,0.3,0.3,0.5l0.5,0.95h-0.5l-0.4-0.75c-0.15-0.3-0.25-0.5-0.3-0.6
		c-0.1-0.1-0.15-0.15-0.25-0.2c-0.05,0-0.15-0.05-0.3-0.05H247.979z M252.639,83.64h-3.96v-0.12h3.96V83.64z M253.229,81.68h-0.4
		l-0.6-2.7l-0.1-0.4c0,0.15-0.05,0.25-0.05,0.4l-0.65,2.7h-0.4l-0.75-3.55h0.4l0.45,2.3c0.05,0.25,0.1,0.5,0.1,0.75l0.15-0.65
		l0.55-2.4h0.45l0.4,1.8c0.1,0.45,0.2,0.85,0.25,1.25c0.05-0.25,0.1-0.5,0.15-0.8l0.45-2.25h0.4L253.229,81.68z M255.159,83.64
		h-1.02v-0.12h1.02V83.64z M255.629,81.73c-0.4,0-0.75-0.2-1-0.55c-0.25-0.35-0.35-0.75-0.35-1.25c0-0.6,0.1-1.05,0.4-1.4
		c0.25-0.3,0.6-0.45,0.95-0.45c0.3,0,0.5,0.05,0.7,0.2c0.25,0.15,0.4,0.35,0.55,0.65c0.1,0.25,0.15,0.6,0.15,0.95
		c0,0.55-0.1,0.95-0.35,1.3C256.429,81.53,256.079,81.73,255.629,81.73z M260.619,83.64h-3.96v-0.12h3.96V83.64z M263.139,83.64
		h-1.02v-0.12h1.02V83.64z M268.599,83.64h-3.96v-0.12h3.96V83.64z M270.099,83.64v-0.12h1.02v0.12H270.099z M271.239,99.26h-0.12
		v-1.02h0.12V99.26z M271.239,96.74h-0.12v-3.96h0.12V96.74z M271.239,91.28h-0.12v-1.02h0.12V91.28z M271.239,88.76h-0.12V84.8
		h0.12V88.76z M271.239,83.3h-0.12v-1.02h0.12V83.3z M271.239,80.78h-0.12v-3.96h0.12V80.78z M271.239,75.32h-0.12V74.3h0.12V75.32z
		 M271.239,72.8h-0.12v-3.96h0.12V72.8z M271.239,67.34h-0.12v-1.02h0.12V67.34z M271.239,64.82h-0.12v-3.96h0.12V64.82z
		 M271.239,59.36h-0.12v-1.02h0.12V59.36z M271.239,56.84h-0.12v-3.96h0.12V56.84z M271.239,51.38h-0.12v-1.02h0.12V51.38z
		 M271.239,48.86h-0.12V44.9h0.12V48.86z M271.239,43.4h-0.12v-1.02h0.12V43.4z"/>
	<path fill="#ffffff" d="M187.339,102.112v-2.793l-0.037,0.016l-0.082-0.068l0.1-0.45l0.019-0.005v-2.793l-0.036,0.016l-0.083-0.068
		l0.1-0.45l0.019-0.005v-2.793l-0.037,0.016l-0.082-0.068l0.1-0.45l0.019-0.005v-2.793l-0.037,0.016l-0.082-0.068l0.1-0.45
		l0.019-0.005V88.18c0-0.132,0.108-0.24,0.24-0.24h41.04v-0.412l-0.082,0.012l-0.062-0.086l0.144-0.287V85.57h-1.615l0.268,0.268
		l-0.013,0.095l-0.35,0.2l-0.089-0.058l0.05-0.5l0.011-0.004h-3.476l0.267,0.268l-0.013,0.095l-0.35,0.2l-0.089-0.058l0.05-0.5
		l0.011-0.004h-3.476l0.267,0.268l-0.013,0.095l-0.35,0.2l-0.089-0.058l0.05-0.5l0.011-0.004h-3.476l0.267,0.268l-0.013,0.095
		l-0.35,0.2l-0.089-0.058l0.05-0.5l0.011-0.004h-3.476l0.268,0.268l-0.013,0.095l-0.35,0.2l-0.089-0.058l0.05-0.5l0.011-0.004
		h-3.476l0.268,0.268l-0.013,0.095l-0.35,0.2l-0.089-0.058l0.05-0.5l0.011-0.004h-3.476l0.267,0.268l-0.013,0.095l-0.35,0.2
		l-0.089-0.058l0.05-0.5l0.011-0.004h-3.476l0.267,0.268l-0.013,0.095l-0.35,0.2l-0.089-0.058l0.05-0.5l0.011-0.004h-3.476
		l0.267,0.268l-0.013,0.095l-0.35,0.2l-0.089-0.058l0.05-0.5l0.011-0.004h-3.476l0.268,0.268l-0.013,0.095l-0.35,0.2l-0.089-0.058
		l0.05-0.5l0.011-0.004h-3.431l0.226,0.271l-0.016,0.091l-0.35,0.2l-0.088-0.064l0.1-0.498h-3.341c-0.132,0-0.24-0.108-0.24-0.24
		v-1.69h-2.37v18.538h2.337l0.014-0.061L187.339,102.112z M225.075,87.053l0.109,0.003l0.15,0.35l-0.047,0.083l-0.35,0.05
		l-0.062-0.086L225.075,87.053z M221.475,87.053l0.109,0.003l0.15,0.35l-0.047,0.083l-0.35,0.05l-0.062-0.086L221.475,87.053z
		 M217.875,87.053l0.109,0.003l0.15,0.35l-0.047,0.083l-0.35,0.05l-0.062-0.086L217.875,87.053z M214.275,87.053l0.109,0.003
		l0.15,0.35l-0.047,0.083l-0.35,0.05l-0.062-0.086L214.275,87.053z M210.675,87.053l0.109,0.003l0.15,0.35l-0.047,0.083l-0.35,0.05
		l-0.062-0.086L210.675,87.053z M207.075,87.053l0.109,0.003l0.15,0.35l-0.047,0.083l-0.35,0.05l-0.062-0.086L207.075,87.053z
		 M203.475,87.053l0.109,0.003l0.15,0.35l-0.047,0.083l-0.35,0.05l-0.062-0.086L203.475,87.053z M199.875,87.053l0.109,0.003
		l0.15,0.35l-0.047,0.083l-0.35,0.05l-0.062-0.086L199.875,87.053z M196.275,87.053l0.109,0.003l0.15,0.35l-0.047,0.083l-0.35,0.05
		l-0.062-0.086L196.275,87.053z M192.675,87.053l0.109,0.003l0.15,0.35l-0.047,0.083l-0.35,0.05l-0.062-0.086L192.675,87.053z
		 M189.075,87.053l0.106-0.003l0.2,0.35l-0.045,0.089l-0.4,0.05l-0.061-0.086L189.075,87.053z M187.32,85.568l0.104-0.027l0.25,0.3
		l-0.016,0.091l-0.35,0.2l-0.088-0.064L187.32,85.568z M185.475,83.753l0.106-0.003l0.2,0.35l-0.045,0.089l-0.4,0.05l-0.061-0.086
		L185.475,83.753z M185.475,87.053l0.106-0.003l0.2,0.35l-0.045,0.089l-0.4,0.05l-0.061-0.086L185.475,87.053z M185.475,90.353
		l0.106-0.003l0.2,0.35l-0.045,0.089l-0.4,0.05l-0.061-0.086L185.475,90.353z M185.475,93.653l0.106-0.003l0.2,0.35l-0.045,0.089
		l-0.4,0.05l-0.061-0.086L185.475,93.653z M185.729,100.74h-0.4l-0.054-0.087l0.2-0.4h0.107l0.2,0.4L185.729,100.74z M185.729,97.44
		h-0.4l-0.054-0.087l0.2-0.4h0.107l0.2,0.4L185.729,97.44z"/>
	<rect x="19.289" y="96.39" fill="#ffffff" width="165.2" height="5.788"/>
	<polygon fill="#ffffff" points="188.714,83.64 187.819,83.64 187.819,84.891 	"/>
	<path fill="#ffffff" d="M249.229,79.63c0.1-0.05,0.15-0.1,0.25-0.2c0.05-0.1,0.05-0.2,0.05-0.35s-0.05-0.3-0.15-0.4
		c-0.1-0.1-0.25-0.15-0.45-0.15h-0.95v1.15h0.85C248.979,79.68,249.129,79.68,249.229,79.63z"/>
	<path fill="#ffffff" d="M228.919,66.82v0.701l0.015,0.035l-0.015,0.027v3.282l0.016,0.043l-0.016,0.023v3.234l0.016,0.043
		l-0.016,0.023v3.234l0.016,0.043l-0.016,0.023v3.234l0.016,0.043l-0.016,0.027v3.235l0.015,0.035l-0.015,0.027v1.196
		c0,0.109-0.081,0.186-0.18,0.215v1.51l0.045,0.001l0.15,0.35l-0.047,0.083l-0.148,0.021v0.454c0.1,0.029,0.18,0.106,0.18,0.215
		v2.492l0.015,0.035l-0.015,0.027v3.238l0.015,0.035l-0.015,0.027v3.283l0.016,0.043l-0.016,0.023v3.234l0.016,0.043l-0.016,0.023
		v1.496h1.544l0.006-0.055l0.102-0.036l0.091,0.091h0.577V66.82H228.919z M230.469,69.073l0.102-0.036l0.3,0.3l-0.019,0.098
		l-0.35,0.15l-0.083-0.062L230.469,69.073z M230.469,72.373l0.102-0.036l0.3,0.3l-0.019,0.098l-0.35,0.15l-0.083-0.062
		L230.469,72.373z M230.469,75.673l0.102-0.036l0.3,0.3l-0.019,0.098l-0.35,0.15l-0.083-0.062L230.469,75.673z M230.469,78.973
		l0.102-0.036l0.3,0.3l-0.019,0.098l-0.35,0.15l-0.083-0.062L230.469,78.973z M230.469,82.273l0.102-0.036l0.3,0.3l-0.019,0.098
		l-0.35,0.15l-0.083-0.062L230.469,82.273z M230.853,99.185l-0.35,0.15l-0.083-0.062l0.05-0.45l0.102-0.036l0.3,0.3L230.853,99.185z
		 M230.853,95.885l-0.35,0.15l-0.083-0.062l0.05-0.45l0.102-0.036l0.3,0.3L230.853,95.885z M230.853,92.585l-0.35,0.15l-0.083-0.062
		l0.05-0.45l0.102-0.036l0.3,0.3L230.853,92.585z M230.853,89.285l-0.35,0.15l-0.083-0.062l0.05-0.45l0.102-0.036l0.3,0.3
		L230.853,89.285z M230.859,85.932l-0.35,0.2l-0.089-0.058l0.05-0.5l0.102-0.037l0.3,0.3L230.859,85.932z M230.199,83.64v-0.12h1.02
		v0.12H230.199z"/>
	<path fill="#ffffff" d="M187.339,29.869l-0.037,0.016l-0.082-0.068l0.1-0.45l0.019-0.005V27.88c0-0.132,0.108-0.24,0.24-0.24h1.428
		l0.068-0.137h0.107l0.068,0.137h3.356l0.068-0.137l0.11,0.006l0.049,0.131h3.373l0.068-0.137l0.11,0.006l0.049,0.131h3.372
		l0.068-0.137l0.11,0.006l0.049,0.131h3.373l0.068-0.137l0.11,0.006l0.049,0.131h3.373l0.068-0.137l0.11,0.006l0.049,0.131h3.373
		l0.068-0.137l0.11,0.006l0.049,0.131h3.373l0.068-0.137l0.11,0.006l0.049,0.131h3.372l0.068-0.137l0.11,0.006l0.049,0.131h3.373
		l0.068-0.137l0.11,0.006l0.049,0.131h3.373l0.068-0.137l0.11,0.006l0.049,0.131h3.373l0.068-0.137l0.11,0.006l0.15,0.4
		l-0.016,0.023v3.234l0.016,0.043l-0.016,0.027v3.235l0.015,0.035l-0.015,0.027v3.238l0.015,0.035l-0.015,0.027v3.238l0.015,0.035
		l-0.015,0.027v0.107h2.32V25.27h-46.27v7.25h2.37V29.869z M230.853,39.685l-0.35,0.15l-0.083-0.062l0.05-0.45l0.102-0.036l0.3,0.3
		L230.853,39.685z M230.859,36.332l-0.35,0.2l-0.089-0.058l0.05-0.5l0.102-0.037l0.3,0.3L230.859,36.332z M230.469,26.073
		l0.102-0.036l0.3,0.3l-0.019,0.098l-0.35,0.15l-0.083-0.062L230.469,26.073z M230.469,29.373l0.102-0.036l0.3,0.3l-0.019,0.098
		l-0.35,0.15l-0.083-0.062L230.469,29.373z M230.199,32.519h1.02v0.12h-0.645l0.298,0.298l-0.019,0.098l-0.35,0.15l-0.083-0.062
		l0.05-0.45l0.095-0.033h-0.366V32.519z M228.619,26.42h0.12v1.02h-0.12V26.42z M226.869,26.073l0.102-0.036l0.3,0.3l-0.019,0.098
		l-0.35,0.15l-0.083-0.062L226.869,26.073z M223.27,26.073l0.102-0.036l0.3,0.3l-0.019,0.098l-0.35,0.15l-0.083-0.062L223.27,26.073
		z M219.669,26.073l0.102-0.036l0.3,0.3l-0.019,0.098l-0.35,0.15l-0.083-0.062L219.669,26.073z M216.069,26.073l0.102-0.036l0.3,0.3
		l-0.019,0.098l-0.35,0.15l-0.083-0.062L216.069,26.073z M212.469,26.073l0.102-0.036l0.3,0.3l-0.019,0.098l-0.35,0.15l-0.083-0.062
		L212.469,26.073z M208.869,26.073l0.102-0.036l0.3,0.3l-0.019,0.098l-0.35,0.15l-0.083-0.062L208.869,26.073z M205.27,26.073
		l0.102-0.036l0.3,0.3l-0.019,0.098l-0.35,0.15l-0.083-0.062L205.27,26.073z M201.669,26.073l0.102-0.036l0.3,0.3l-0.019,0.098
		l-0.35,0.15l-0.083-0.062L201.669,26.073z M198.069,26.073l0.102-0.036l0.3,0.3l-0.019,0.098l-0.35,0.15l-0.083-0.062
		L198.069,26.073z M194.469,26.073l0.102-0.036l0.3,0.3l-0.019,0.098l-0.35,0.15l-0.083-0.062L194.469,26.073z M190.92,26.067
		l0.104-0.025l0.25,0.3l-0.022,0.094l-0.35,0.15l-0.082-0.068L190.92,26.067z M187.32,26.067l0.104-0.025l0.25,0.3l-0.022,0.094
		l-0.35,0.15l-0.082-0.068L187.32,26.067z M185.736,31.289l-0.4,0.05l-0.062-0.084l0.2-0.45l0.108-0.002l0.2,0.4L185.736,31.289z
		 M185.729,27.99h-0.4l-0.054-0.087l0.2-0.4h0.107l0.2,0.4L185.729,27.99z"/>
	<path fill="#ffffff" d="M256.179,78.63c-0.2-0.1-0.35-0.15-0.5-0.15c-0.3,0-0.55,0.1-0.75,0.35c-0.2,0.25-0.25,0.6-0.25,1.1
		c0,0.45,0.05,0.8,0.25,1.05c0.2,0.25,0.45,0.35,0.7,0.35c0.3,0,0.55-0.1,0.75-0.35c0.15-0.25,0.25-0.6,0.25-1.1
		c0-0.3-0.05-0.55-0.15-0.8C256.429,78.88,256.329,78.73,256.179,78.63z"/>
	<path fill="#ffffff" d="M15.729,61.68c0.1,0,0.2-0.1,0.3-0.25c0.1-0.15,0.15-0.45,0.15-0.9c0-0.5-0.05-0.8-0.15-0.95
		c-0.1-0.15-0.2-0.25-0.35-0.25c-0.1,0-0.2,0.1-0.3,0.25c-0.1,0.15-0.15,0.45-0.15,0.95c0,0.45,0.05,0.75,0.15,0.9
		C15.479,61.58,15.579,61.68,15.729,61.68z"/>
	<polygon fill="#ffffff" points="187.819,102.178 195.451,102.178 187.819,88.725 	"/>
	<polygon fill="#ffffff" points="68.179,85.33 68.179,83.64 67.277,83.64 	"/>
	<polygon fill="#ffffff" points="228.438,88.42 187.819,88.42 187.819,88.481 195.589,102.178 220.669,102.178 228.438,88.481 	"/>
	<polygon fill="#ffffff" points="220.807,102.178 228.438,102.178 228.438,88.725 	"/>
	<path fill="#ffffff" d="M249.449,76.223c0.113,0.035,0.232,0.053,0.353,0.053c0.512,0,0.983-0.329,1.171-0.817
		c0.187-0.655-0.141-1.333-0.765-1.573c-0.12-0.034-0.248-0.052-0.374-0.052c-0.537,0-1.007,0.321-1.198,0.818
		C248.443,75.323,248.785,75.986,249.449,76.223z"/>
	<path fill="#ffffff" d="M224.739,32.64v-0.12h0.547l3.147-4.399h-40.608l3.147,4.399h0.347v0.12h-0.261l17.071,23.862L225.2,32.64
		H224.739z M196.779,32.64h-3.96v-0.12h3.96V32.64z M199.299,32.64h-1.02v-0.12h1.02V32.64z M204.759,32.64h-3.96v-0.12h3.96V32.64z
		 M207.279,32.64h-1.02v-0.12h1.02V32.64z M212.739,32.64h-3.96v-0.12h3.96V32.64z M215.259,32.64h-1.02v-0.12h1.02V32.64z
		 M220.719,32.64h-3.96v-0.12h3.96V32.64z M223.239,32.64h-1.02v-0.12h1.02V32.64z"/>
	<path fill="#ffffff" d="M19.289,70.769h165.2V66.58V50.59h-165.2V70.769z M74.129,59.43c0.15-0.25,0.3-0.35,0.55-0.35
		s0.4,0.1,0.55,0.3c0.15,0.2,0.2,0.6,0.2,1.15c0,0.45-0.05,0.8-0.15,1.05c-0.15,0.25-0.35,0.35-0.6,0.35c-0.2,0-0.4-0.1-0.55-0.3
		c-0.1-0.2-0.2-0.6-0.2-1.1S73.979,59.68,74.129,59.43z M72.329,59.78c0.15-0.1,0.3-0.2,0.45-0.35c0.1-0.1,0.2-0.25,0.25-0.35h0.15
		v2.85h-0.25v-2.25c-0.1,0.1-0.15,0.15-0.3,0.25c-0.1,0.1-0.2,0.15-0.3,0.2V59.78z M71.029,60.68h0.85v0.35h-0.85V60.68z
		 M70.379,60.93c0-0.1-0.05-0.15-0.15-0.15c-0.05-0.05-0.25-0.1-0.5-0.2c-0.2-0.05-0.35-0.1-0.45-0.2c-0.1-0.05-0.15-0.15-0.2-0.25
		s-0.1-0.2-0.1-0.35c0-0.2,0.1-0.4,0.25-0.55c0.15-0.15,0.35-0.2,0.6-0.2c0.15,0,0.3,0.05,0.45,0.1c0.1,0.05,0.2,0.15,0.3,0.3
		c0.05,0.1,0.1,0.25,0.1,0.45h-0.3c0-0.15-0.05-0.3-0.15-0.4c-0.1-0.1-0.25-0.15-0.4-0.15c-0.2,0-0.3,0.05-0.4,0.15
		c-0.1,0.05-0.15,0.15-0.15,0.3c0,0.1,0.05,0.2,0.1,0.25c0.05,0.05,0.25,0.15,0.45,0.2c0.25,0.05,0.4,0.1,0.5,0.15
		c0.15,0.1,0.25,0.2,0.3,0.3c0.1,0.1,0.1,0.25,0.1,0.4c0,0.2,0,0.35-0.1,0.45c-0.05,0.15-0.15,0.25-0.3,0.3
		c-0.15,0.1-0.3,0.1-0.45,0.1c-0.3,0-0.55-0.05-0.7-0.25c-0.1-0.05-0.15-0.15-0.2-0.3c-0.05-0.1-0.05-0.25-0.1-0.4h0.3
		c0.05,0.15,0.05,0.25,0.1,0.35c0.05,0.1,0.15,0.15,0.25,0.2c0.1,0.05,0.2,0.1,0.35,0.1c0.2,0,0.3-0.05,0.4-0.15
		c0.1-0.1,0.2-0.2,0.2-0.35C70.479,61.03,70.429,60.98,70.379,60.93z M66.629,59.08h0.35l1.2,2.2v-2.2h0.3v2.85h-0.3l-1.25-2.25
		v2.25h-0.3V59.08z M66.129,59.08v2.849h-0.3V59.08H66.129z"/>
	<path fill="#ffffff" d="M75.029,83.48c-0.1-0.05-0.2-0.1-0.35-0.1c-0.095,0-0.191,0.049-0.286,0.14h0.651
		C75.039,83.507,75.034,83.491,75.029,83.48z"/>
	<polygon fill="#ffffff" points="225.347,32.64 208.203,56.604 227.457,83.519 228.438,83.519 228.438,66.579 228.438,41.48 
		228.438,32.64 	"/>
	<polygon fill="#ffffff" points="190.911,32.64 190.299,32.64 190.299,32.519 190.825,32.519 187.819,28.318 187.819,32.519 
		188.799,32.519 188.799,32.64 187.819,32.64 187.819,41.48 187.819,66.579 187.819,83.519 188.799,83.519 188.799,83.522 
		208.055,56.605 	"/>
	<path fill="#ffffff" d="M227.395,83.64h-2.657v-0.12h2.571l-19.181-26.812l-20.304,28.381h40.608L227.395,83.64z M191.319,83.64
		h-1.02v-0.12h1.02V83.64z M196.779,83.64h-3.96v-0.12h3.96V83.64z M199.299,83.64h-1.02v-0.12h1.02V83.64z M204.759,83.64h-3.96
		v-0.12h3.96V83.64z M207.279,83.64h-1.02v-0.12h1.02V83.64z M212.739,83.64h-3.96v-0.12h3.96V83.64z M215.259,83.64h-1.02v-0.12
		h1.02V83.64z M220.719,83.64h-3.96v-0.12h3.96V83.64z M223.239,83.64h-1.02v-0.12h1.02V83.64z"/>
	<path fill="#ffffff" d="M0,102.178h6.359V25.03c0-0.066,0.054-0.12,0.12-0.12h5.34v-3.95h0.12v3.95h172.6
		c0.043-0.068,0.105-0.12,0.19-0.12h43.89v-3.83h0.12v3.83h2.74c0.132,0,0.24,0.108,0.24,0.24v12.32h36.43v-4.71h-3.51v-0.12h3.51
		v-7.64h0.18V24.7h2.79v-3.74h0.12v3.74h2.74v0.18h0.18v7.64h2.419v0.12h-2.419v50.88h2.419v0.12h-2.419v18.538h46.156V0.92H0
		V102.178z M271.239,19.46h-0.12v-1.02h0.12V19.46z M316.972,87.671c-1.127,1.077-2.58,1.668-4.093,1.668
		c-1.563,0-3.017-0.592-4.092-1.667c-1.094-1.093-1.699-2.523-1.715-4.033h-2.533v-0.12h2.533c0.016-1.541,0.621-2.989,1.715-4.082
		c1.074-1.075,2.527-1.667,4.092-1.667c1.513,0,2.966,0.592,4.091,1.667c1.077,1.128,1.669,2.599,1.669,4.144
		C318.639,85.092,318.047,86.545,316.972,87.671z M304.538,32.519h1.537c0.016-1.523,0.6-2.971,1.661-4.081
		c1.127-1.077,2.598-1.668,4.143-1.668c1.513,0,2.966,0.592,4.091,1.667c1.077,1.128,1.669,2.599,1.669,4.144
		c0,1.512-0.592,2.965-1.667,4.091c-1.127,1.077-2.58,1.668-4.093,1.668c-1.545,0-3.016-0.592-4.141-1.667
		c-1.063-1.112-1.648-2.543-1.663-4.034h-1.537V32.519z M302.019,32.519h1.02v0.12h-1.02V32.519z M302.019,83.519h1.021v0.12h-1.021
		V83.519z M296.559,32.519h3.96v0.12h-3.96V32.519z M296.559,83.519h3.96v0.12h-3.96V83.519z M294.039,32.519h1.02v0.12h-1.02
		V32.519z M294.039,83.519h1.02v0.12h-1.02V83.519z M288.579,32.519h3.96v0.12h-3.96V32.519z M288.579,83.519h3.96v0.12h-3.96
		V83.519z M286.059,32.519h1.02v0.12h-1.02V32.519z M286.059,83.519h1.02v0.12h-1.02V83.519z M280.599,32.519h3.96v0.12h-3.96
		V32.519z M280.599,83.519h3.96v0.12h-3.96V83.519z M278.079,32.519h1.02v0.12h-1.02V32.519z M278.079,83.519h1.02v0.12h-1.02
		V83.519z M267.037,3.137c1.107-1.107,2.578-1.717,4.142-1.717c1.532,0,2.985,0.61,4.093,1.717c1.075,1.076,1.667,2.529,1.667,4.093
		c0,1.512-0.592,2.965-1.667,4.091c-1.13,1.078-2.596,1.699-4.034,1.716v3.903h-0.12v-3.903c-1.49-0.016-2.937-0.622-4.081-1.714
		c-1.077-1.128-1.669-2.581-1.669-4.093C265.369,5.666,265.961,4.213,267.037,3.137z M228.619,19.46v-1.02h0.12v1.02H228.619z
		 M262.119,32.519h1.02v0.12h-1.02V32.519z M256.659,32.519h3.96v0.12h-3.96V32.519z M254.139,32.519h1.02v0.12h-1.02V32.519z
		 M248.679,32.519h3.96v0.12h-3.96V32.519z M246.159,32.519h1.02v0.12h-1.02V32.519z M240.699,32.519h3.96v0.12h-3.96V32.519z
		 M238.179,32.519h1.02v0.12h-1.02V32.519z M236.679,32.64h-3.96v-0.12h3.96V32.64z M224.537,3.137
		c1.107-1.107,2.578-1.717,4.142-1.717c1.532,0,2.985,0.61,4.093,1.717c1.075,1.076,1.667,2.529,1.667,4.093
		c0,1.512-0.592,2.965-1.667,4.091c-1.13,1.078-2.596,1.699-4.034,1.716v3.903h-0.12v-3.903c-1.49-0.016-2.937-0.622-4.081-1.714
		c-1.077-1.128-1.669-2.581-1.669-4.093C222.869,5.666,223.461,4.213,224.537,3.137z M11.939,19.46h-0.12v-1.02h0.12V19.46z
		 M7.788,3.136C8.894,2.03,10.347,1.42,11.879,1.42c1.582,0,3.036,0.61,4.093,1.718c1.106,1.056,1.717,2.51,1.717,4.092
		c0,1.531-0.61,2.984-1.718,4.092c-1.077,1.077-2.544,1.698-4.032,1.715v3.903h-0.12v-3.903c-1.438-0.017-2.904-0.638-4.031-1.714
		C6.679,10.214,6.069,8.761,6.069,7.23C6.069,5.648,6.679,4.194,7.788,3.136z M1.299,32.519h3.96v0.12h-3.96V32.519z M1.299,83.519
		h3.96v0.12h-3.96V83.519z"/>
	<path fill="#ffffff" d="M187.339,39.819l-0.037,0.016l-0.082-0.068l0.1-0.45l0.019-0.005v-2.797l-0.03,0.017l-0.088-0.064l0.1-0.5
		l0.019-0.005v-2.794l-0.037,0.016l-0.082-0.068l0.1-0.45l0.019-0.005V32.64h-2.37v8.6h2.37V39.819z M185.736,41.189l-0.4,0.05
		l-0.061-0.086l0.2-0.4l0.106-0.003l0.2,0.35L185.736,41.189z M185.736,37.89l-0.4,0.05l-0.061-0.086l0.2-0.4l0.106-0.003l0.2,0.35
		L185.736,37.89z M185.736,34.589l-0.4,0.05l-0.061-0.086l0.2-0.4l0.106-0.003l0.2,0.35L185.736,34.589z"/>
	<rect x="184.969" y="41.72" fill="#ffffff" width="2.37" height="24.619"/>
	<path fill="#ffffff" d="M11.939,72.8h-0.12v-1.91h-5.22v25.38h5.22v-3.49h0.12v3.49h172.55V70.89H11.939V72.8z M11.819,74.3h0.12
		v1.02h-0.12V74.3z M7.779,83.64h-1.02v-0.12h1.02V83.64z M11.939,91.28h-0.12v-1.02h0.12V91.28z M182.319,83.519h1.02v0.12h-1.02
		V83.519z M176.859,83.519h3.96v0.12h-3.96V83.519z M174.339,83.519h1.02v0.12h-1.02V83.519z M168.879,83.519h3.96v0.12h-3.96
		V83.519z M166.359,83.519h1.02v0.12h-1.02V83.519z M160.899,83.519h3.96v0.12h-3.96V83.519z M158.379,83.519h1.02v0.12h-1.02
		V83.519z M152.919,83.519h3.96v0.12h-3.96V83.519z M150.399,83.519h1.02v0.12h-1.02V83.519z M144.939,83.519h3.96v0.12h-3.96
		V83.519z M142.419,83.519h1.02v0.12h-1.02V83.519z M136.959,83.519h3.96v0.12h-3.96V83.519z M134.439,83.519h1.02v0.12h-1.02
		V83.519z M128.979,83.519h3.96v0.12h-3.96V83.519z M126.459,83.519h1.02v0.12h-1.02V83.519z M120.999,83.519h3.96v0.12h-3.96
		V83.519z M118.479,83.519h1.02v0.12h-1.02V83.519z M113.019,83.519h3.96v0.12h-3.96V83.519z M110.499,83.519h1.02v0.12h-1.02
		V83.519z M105.039,83.519h3.96v0.12h-3.96V83.519z M102.519,83.519h1.02v0.12h-1.02V83.519z M97.059,83.519h3.96v0.12h-3.96V83.519
		z M94.539,83.519h1.02v0.12h-1.02V83.519z M89.079,83.519h3.96v0.12h-3.96V83.519z M86.559,83.519h1.02v0.12h-1.02V83.519z
		 M81.099,83.519h3.96v0.12h-3.96V83.519z M78.579,83.519h1.02v0.12h-1.02V83.519z M72.329,83.78c0.15-0.1,0.3-0.2,0.45-0.3
		c0.1-0.15,0.2-0.3,0.25-0.4h0.15v0.44h0.857c0.032-0.089,0.074-0.171,0.143-0.24c0.15-0.15,0.3-0.2,0.55-0.2
		c0.2,0,0.4,0.1,0.5,0.25c0.056,0.056,0.085,0.123,0.116,0.19h1.735v0.12h-1.686c0.02,0.078,0.036,0.158,0.036,0.24
		c0,0.15-0.05,0.35-0.15,0.5c-0.1,0.15-0.25,0.4-0.55,0.65c-0.15,0.2-0.25,0.3-0.3,0.35c-0.05,0.1-0.1,0.15-0.15,0.2h1.15v0.35
		h-1.55c0-0.15,0.05-0.3,0.15-0.45c0.1-0.2,0.25-0.4,0.45-0.6c0.3-0.25,0.45-0.45,0.55-0.6c0.05-0.15,0.1-0.3,0.1-0.4
		c0-0.084-0.017-0.165-0.039-0.24h-0.787c-0.044,0.074-0.074,0.158-0.074,0.29l-0.25-0.05c0-0.089,0.016-0.164,0.031-0.24h-0.831
		v2.29h-0.25v-2.2c-0.1,0.05-0.15,0.15-0.3,0.2c-0.1,0.1-0.2,0.15-0.3,0.2V83.78z M71.879,85.08h-0.85v-0.35h0.85V85.08z
		 M65.139,83.519h0.69V83.08h0.3v0.439h0.5v-0.44h0.35l0.234,0.44h0.966v-0.44h0.3v0.44h0.564c0.044-0.102,0.106-0.186,0.186-0.24
		c0.15-0.15,0.35-0.25,0.6-0.25c0.15,0,0.3,0.05,0.45,0.1c0.1,0.1,0.2,0.2,0.3,0.3c0.01,0.03,0.018,0.06,0.027,0.09h1.013v0.12
		h-0.976c0.021,0.08,0.036,0.16,0.036,0.24l-0.3,0.05c0-0.2-0.05-0.35-0.15-0.45c-0.1-0.05-0.25-0.1-0.4-0.1
		c-0.2,0-0.3,0.05-0.4,0.1c-0.1,0.1-0.15,0.2-0.15,0.3s0.05,0.2,0.1,0.3c0.05,0.05,0.25,0.1,0.45,0.15c0.25,0.1,0.4,0.15,0.5,0.2
		c0.15,0.05,0.25,0.15,0.3,0.25c0.1,0.15,0.1,0.3,0.1,0.45c0,0.15,0,0.3-0.1,0.45c-0.05,0.1-0.15,0.2-0.3,0.3
		c-0.15,0.05-0.3,0.1-0.45,0.1c-0.3,0-0.55-0.1-0.7-0.25c-0.1-0.1-0.15-0.2-0.2-0.3c-0.05-0.15-0.05-0.25-0.1-0.4l0.3-0.05
		c0.05,0.15,0.05,0.3,0.1,0.35c0.05,0.1,0.15,0.15,0.25,0.2c0.1,0.1,0.2,0.1,0.35,0.1c0.2,0,0.3-0.05,0.4-0.15
		c0.1-0.05,0.2-0.2,0.2-0.35c0-0.05-0.05-0.15-0.1-0.2c0-0.05-0.05-0.1-0.15-0.15c-0.05-0.05-0.25-0.1-0.5-0.15
		c-0.2-0.1-0.35-0.15-0.45-0.2c-0.1-0.1-0.15-0.15-0.2-0.25c-0.05-0.1-0.1-0.25-0.1-0.35c0-0.072,0.024-0.128,0.039-0.19h-0.539
		v2.29h-0.3l-1.25-2.25v2.25h-0.3v-2.29h-0.5v2.29h-0.3v-2.29h-0.69V83.519z M62.619,83.519h1.02v0.12h-1.02V83.519z M57.159,83.519
		h3.96v0.12h-3.96V83.519z M54.639,83.519h1.02v0.12h-1.02V83.519z M49.179,83.519h3.96v0.12h-3.96V83.519z M46.659,83.519h1.02
		v0.12h-1.02V83.519z M41.199,83.519h3.96v0.12h-3.96V83.519z M38.679,83.519h1.02v0.12h-1.02V83.519z M33.219,83.519h3.96v0.12
		h-3.96V83.519z M30.699,83.519h1.02v0.12h-1.02V83.519z M25.239,83.519h3.96v0.12h-3.96V83.519z M22.719,83.519h1.02v0.12h-1.02
		V83.519z M17.259,83.519h3.96v0.12h-3.96V83.519z M15.319,80.38v3.14h0.439v0.12h-0.439v3.09c0,0.132-0.108,0.24-0.24,0.24h-3.14
		v1.79h-0.12v-1.79h-3.14c-0.132,0-0.24-0.108-0.24-0.24v-6.35c0-0.132,0.108-0.24,0.24-0.24h3.14v-3.32h0.12v3.32h3.14
		C15.211,80.14,15.319,80.247,15.319,80.38z"/>
	<path fill="#ffffff" d="M11.939,96.39v0.35h-0.12v-0.35h-5.22v5.788h5.22v-1.418h0.12v1.418h7.23V96.39H11.939z M11.939,99.26
		h-0.12v-1.02h0.12V99.26z"/>
	<path fill="#ffffff" d="M74.679,61.68c0.15,0,0.25-0.1,0.35-0.25c0.1-0.15,0.15-0.45,0.15-0.9c0-0.5-0.05-0.8-0.15-0.95
		c-0.1-0.15-0.2-0.25-0.35-0.25s-0.25,0.1-0.3,0.25c-0.1,0.15-0.15,0.45-0.15,0.95c0,0.45,0.05,0.75,0.15,0.9
		C74.429,61.58,74.579,61.68,74.679,61.68z"/>
	<path fill="#ffffff" d="M11.819,68.84h0.12v1.93h7.23V50.59h-7.23v0.79h-0.12v-0.79h-5.22v20.18h5.22V68.84z M15.129,59.43
		c0.15-0.25,0.35-0.35,0.6-0.35c0.2,0,0.4,0.1,0.5,0.3c0.15,0.2,0.25,0.6,0.25,1.15c0,0.45-0.1,0.8-0.2,1.05
		c-0.15,0.25-0.3,0.35-0.55,0.35s-0.45-0.1-0.55-0.3c-0.15-0.2-0.25-0.6-0.25-1.1S15.029,59.68,15.129,59.43z M13.379,59.78
		c0.15-0.1,0.3-0.2,0.4-0.35c0.1-0.1,0.2-0.25,0.25-0.35h0.2v2.85h-0.3v-2.25c-0.05,0.1-0.15,0.15-0.25,0.25
		c-0.1,0.1-0.25,0.15-0.3,0.2V59.78z M12.029,60.68h0.9v0.35h-0.9V60.68z M11.819,52.88h0.12v3.96h-0.12V52.88z M11.819,58.34h0.12
		v1.02h-0.12V58.34z M11.819,60.86h0.12v3.96h-0.12V60.86z M11.819,66.32h0.12v1.02h-0.12V66.32z M7.13,61.929H6.829V59.08H7.13
		V61.929z M9.479,61.93h-0.3l-1.2-2.25v2.25h-0.3v-2.85h0.3l1.2,2.2v-2.2h0.3V61.93z M11.329,61.83c-0.1,0.1-0.3,0.1-0.45,0.1
		c-0.3,0-0.55-0.05-0.7-0.25c-0.1-0.05-0.15-0.15-0.2-0.3c-0.05-0.1-0.05-0.25-0.05-0.4h0.3c0,0.15,0.05,0.25,0.1,0.35
		c0.05,0.1,0.1,0.15,0.2,0.2c0.1,0.05,0.25,0.1,0.35,0.1c0.2,0,0.35-0.05,0.45-0.15c0.1-0.1,0.15-0.2,0.15-0.35
		c0-0.1-0.05-0.15-0.05-0.2c-0.05-0.1-0.1-0.15-0.2-0.15c-0.05-0.05-0.2-0.1-0.45-0.2c-0.25-0.05-0.4-0.1-0.5-0.2
		c-0.05-0.05-0.15-0.15-0.2-0.25c-0.05-0.1-0.05-0.2-0.05-0.35c0-0.2,0.05-0.4,0.2-0.55c0.15-0.15,0.35-0.2,0.6-0.2
		c0.15,0,0.3,0.05,0.45,0.1c0.15,0.05,0.25,0.15,0.3,0.3c0.05,0.1,0.1,0.25,0.1,0.45h-0.3c0-0.15-0.05-0.3-0.15-0.4
		c-0.1-0.1-0.2-0.15-0.4-0.15c-0.15,0-0.3,0.05-0.4,0.15c-0.1,0.05-0.15,0.15-0.15,0.3c0,0.1,0.05,0.2,0.1,0.25
		c0.1,0.05,0.25,0.15,0.5,0.2c0.2,0.05,0.35,0.1,0.45,0.15c0.15,0.1,0.25,0.2,0.35,0.3c0.05,0.1,0.1,0.25,0.1,0.4
		c0,0.2-0.05,0.35-0.15,0.45C11.579,61.68,11.479,61.78,11.329,61.83z"/>
	<path fill="#ffffff" d="M269.269,27.82v9.47h1.063l0.043-0.087h0.107l0.044,0.087h0.593v-0.37h0.12v0.37h1.8v-4.65h-0.42v-0.12
		h0.42V27.82H269.269z M270.375,30.603l0.106-0.003l0.2,0.35l-0.045,0.089l-0.4,0.05l-0.061-0.086L270.375,30.603z M270.636,34.339
		l-0.4,0.05l-0.061-0.086l0.2-0.4l0.106-0.003l0.2,0.35L270.636,34.339z M271.239,35.42h-0.12V34.4h0.12V35.42z M271.239,32.9h-0.12
		v-0.26h-1.02v-0.12h1.02v-3.58h0.12V32.9z M272.603,36.135l-0.35,0.15l-0.083-0.062l0.05-0.45l0.102-0.036l0.3,0.3L272.603,36.135z
		 M272.622,32.737l-0.019,0.098l-0.35,0.15l-0.083-0.062l0.05-0.45l0.102-0.036L272.622,32.737z M272.603,29.535l-0.35,0.15
		l-0.083-0.062l0.05-0.45l0.102-0.036l0.3,0.3L272.603,29.535z"/>
	<path fill="#ffffff" d="M6.599,50.47h5.22v-0.11h0.12v0.11h172.55v-8.99V25.15H6.599V50.47z M66.129,41.28h-0.3v-2.8h0.3V41.28z
		 M68.479,41.28h-0.3l-1.25-2.2v2.2h-0.3v-2.8h0.35l1.2,2.2v-2.2h0.3V41.28z M75.429,40.98v0.3h-1.55c0-0.1,0.05-0.25,0.15-0.45
		c0.1-0.15,0.25-0.35,0.45-0.6c0.3-0.25,0.45-0.45,0.55-0.6c0.05-0.15,0.1-0.25,0.1-0.4c0-0.15-0.05-0.25-0.1-0.35
		c-0.1-0.1-0.2-0.15-0.35-0.15c-0.1,0-0.2,0.05-0.3,0.15c-0.1,0.1-0.15,0.25-0.15,0.45l-0.25-0.05c0-0.3,0.05-0.5,0.2-0.6
		c0.15-0.15,0.3-0.25,0.55-0.25c0.2,0,0.4,0.1,0.5,0.25c0.15,0.15,0.2,0.35,0.2,0.55c0,0.2-0.05,0.35-0.15,0.55
		c-0.1,0.15-0.25,0.35-0.55,0.65c-0.15,0.15-0.25,0.3-0.3,0.35c-0.05,0.05-0.1,0.1-0.15,0.2H75.429z M182.319,32.519h1.02v0.12
		h-1.02V32.519z M176.859,32.519h3.96v0.12h-3.96V32.519z M174.339,32.519h1.02v0.12h-1.02V32.519z M168.879,32.519h3.96v0.12h-3.96
		V32.519z M166.359,32.519h1.02v0.12h-1.02V32.519z M160.899,32.519h3.96v0.12h-3.96V32.519z M158.379,32.519h1.02v0.12h-1.02
		V32.519z M152.919,32.519h3.96v0.12h-3.96V32.519z M150.399,32.519h1.02v0.12h-1.02V32.519z M144.939,32.519h3.96v0.12h-3.96
		V32.519z M142.419,32.519h1.02v0.12h-1.02V32.519z M136.959,32.519h3.96v0.12h-3.96V32.519z M134.439,32.519h1.02v0.12h-1.02
		V32.519z M128.979,32.519h3.96v0.12h-3.96V32.519z M126.459,32.519h1.02v0.12h-1.02V32.519z M120.999,32.519h3.96v0.12h-3.96
		V32.519z M118.479,32.519h1.02v0.12h-1.02V32.519z M113.019,32.519h3.96v0.12h-3.96V32.519z M110.499,32.519h1.02v0.12h-1.02
		V32.519z M105.039,32.519h3.96v0.12h-3.96V32.519z M102.519,32.519h1.02v0.12h-1.02V32.519z M97.059,32.519h3.96v0.12h-3.96V32.519
		z M94.539,32.519h1.02v0.12h-1.02V32.519z M89.079,32.519h3.96v0.12h-3.96V32.519z M86.559,32.519h1.02v0.12h-1.02V32.519z
		 M81.099,32.519h3.96v0.12h-3.96V32.519z M78.579,32.519h1.02v0.12h-1.02V32.519z M73.119,32.519h3.96v0.12h-3.96V32.519z
		 M72.329,39.18c0.15-0.1,0.3-0.2,0.45-0.35c0.1-0.1,0.2-0.25,0.25-0.4h0.15v2.85h-0.25v-2.2c-0.1,0.1-0.15,0.15-0.3,0.25
		c-0.1,0.05-0.2,0.15-0.3,0.15V39.18z M71.879,40.43h-0.85v-0.35h0.85V40.43z M70.599,32.519h1.02v0.12h-1.02V32.519z M69.829,38.43
		c0.15,0,0.3,0,0.45,0.1c0.1,0.05,0.2,0.15,0.3,0.3c0.05,0.1,0.1,0.25,0.1,0.45h-0.3c0-0.2-0.05-0.3-0.15-0.4
		c-0.1-0.1-0.25-0.15-0.4-0.15c-0.2,0-0.3,0.05-0.4,0.15c-0.1,0.05-0.15,0.15-0.15,0.3c0,0.1,0.05,0.2,0.1,0.25
		c0.05,0.05,0.25,0.15,0.45,0.2c0.25,0.05,0.4,0.1,0.5,0.15c0.15,0.1,0.25,0.2,0.3,0.3c0.1,0.1,0.1,0.25,0.1,0.4
		c0,0.2,0,0.35-0.1,0.45c-0.05,0.15-0.15,0.25-0.3,0.3c-0.15,0.1-0.3,0.1-0.45,0.1c-0.3,0-0.55-0.05-0.7-0.25
		c-0.1-0.1-0.15-0.2-0.2-0.3c-0.05-0.1-0.05-0.25-0.1-0.4h0.3c0.05,0.15,0.05,0.25,0.1,0.35c0.05,0.1,0.15,0.15,0.25,0.2
		c0.1,0.05,0.2,0.1,0.35,0.1c0.2,0,0.3-0.05,0.4-0.15c0.1-0.1,0.2-0.2,0.2-0.35c0-0.1-0.05-0.15-0.1-0.2c0-0.1-0.05-0.15-0.15-0.15
		c-0.05-0.05-0.25-0.1-0.5-0.2c-0.2-0.05-0.35-0.15-0.45-0.2c-0.1-0.05-0.15-0.15-0.2-0.25s-0.1-0.2-0.1-0.35
		c0-0.2,0.1-0.4,0.25-0.55C69.379,38.48,69.579,38.43,69.829,38.43z M65.139,32.519h3.96v0.12h-3.96V32.519z M62.619,32.519h1.02
		v0.12h-1.02V32.519z M57.159,32.519h3.96v0.12h-3.96V32.519z M54.639,32.519h1.02v0.12h-1.02V32.519z M49.179,32.519h3.96v0.12
		h-3.96V32.519z M46.659,32.519h1.02v0.12h-1.02V32.519z M41.199,32.519h3.96v0.12h-3.96V32.519z M38.679,32.519h1.02v0.12h-1.02
		V32.519z M33.219,32.519h3.96v0.12h-3.96V32.519z M30.699,32.519h1.02v0.12h-1.02V32.519z M25.239,32.519h3.96v0.12h-3.96V32.519z
		 M22.719,32.519h1.02v0.12h-1.02V32.519z M17.259,32.519h3.96v0.12h-3.96V32.519z M14.739,32.519h1.02v0.12h-1.02V32.519z
		 M11.819,26.42h0.12v1.02h-0.12V26.42z M9.279,32.519h2.54v-3.58h0.12v3.58h1.3v0.12h-1.3v0.26h-0.12v-0.26h-2.54V32.519z
		 M11.939,34.4v1.02h-0.12V34.4H11.939z M8.439,37.53c0-0.132,0.108-0.24,0.24-0.24h3.14v-0.37h0.12v0.37h0.99
		c0.132,0,0.24,0.108,0.24,0.24v9.9c0,0.132-0.108,0.24-0.24,0.24h-0.99v1.189h-0.12V47.67h-3.14c-0.132,0-0.24-0.108-0.24-0.24
		V37.53z M6.759,32.519h1.02v0.12h-1.02V32.519z"/>
	<polygon fill="#ffffff" points="228.438,84.891 228.438,83.64 227.543,83.64 	"/>
	<path fill="#ffffff" d="M228.919,44.371l0.015,0.035l-0.015,0.027v3.283l0.016,0.043l-0.016,0.023v3.234l0.016,0.043l-0.016,0.023
		v3.234l0.016,0.043l-0.016,0.023v3.234l0.016,0.043l-0.016,0.027v3.235l0.015,0.035l-0.015,0.027v3.238l0.015,0.035l-0.015,0.027
		v2.056h2.32V41.72h-2.32V44.371z M230.469,42.623l0.102-0.036l0.3,0.3l-0.019,0.098l-0.35,0.15l-0.083-0.062L230.469,42.623z
		 M230.469,45.923l0.102-0.036l0.3,0.3l-0.019,0.098l-0.35,0.15l-0.083-0.062L230.469,45.923z M230.469,49.223l0.102-0.036l0.3,0.3
		l-0.019,0.098l-0.35,0.15l-0.083-0.062L230.469,49.223z M230.469,52.523l0.102-0.036l0.3,0.3l-0.019,0.098l-0.35,0.15l-0.083-0.062
		L230.469,52.523z M230.469,55.823l0.102-0.036l0.3,0.3l-0.019,0.098l-0.35,0.15l-0.083-0.062L230.469,55.823z M230.469,59.124
		l0.102-0.037l0.3,0.3l-0.019,0.098l-0.313,0.134l-0.002,0.017l-0.03-0.003l-0.005,0.002l-0.001-0.003l-0.082-0.008L230.469,59.124z
		 M230.469,62.473l0.098-0.039l0.3,0.25l-0.009,0.098l-0.35,0.2l-0.089-0.059L230.469,62.473z M230.469,65.773l0.102-0.036l0.3,0.3
		l-0.019,0.098l-0.35,0.15l-0.083-0.062L230.469,65.773z"/>
	<polygon fill="#ffffff" points="228.438,28.318 225.433,32.519 228.438,32.519 	"/>
	<path fill="#ffffff" d="M187.339,82.769l-0.036,0.016l-0.083-0.068l0.1-0.45l0.019-0.005v-2.793l-0.037,0.016l-0.082-0.068
		l0.1-0.45l0.019-0.005v-2.793l-0.037,0.016l-0.082-0.068l0.1-0.45l0.019-0.005v-2.793l-0.037,0.016l-0.082-0.068l0.1-0.45
		l0.019-0.005v-2.793l-0.037,0.016l-0.082-0.068l0.1-0.45l0.019-0.005V66.82h-2.37v16.7h2.37V82.769z M185.475,67.203l0.106-0.003
		l0.2,0.35l-0.045,0.089l-0.4,0.05l-0.061-0.086L185.475,67.203z M185.736,80.89l-0.4,0.05l-0.062-0.084l0.2-0.45l0.108-0.002
		l0.2,0.4L185.736,80.89z M185.729,77.59h-0.4l-0.054-0.087l0.2-0.4h0.107l0.2,0.4L185.729,77.59z M185.729,74.29h-0.4l-0.054-0.087
		l0.2-0.4h0.107l0.2,0.4L185.729,74.29z M185.729,70.99h-0.4l-0.054-0.087l0.2-0.4h0.107l0.2,0.4L185.729,70.99z"/>
	<path fill="#ffffff" d="M11.819,80.78v-0.16H8.964l0.071,0.188L8.979,80.89h-0.06V83.8l0.116,0.309L8.979,84.19h-0.06v2.3h2.899
		V84.8h0.12v1.69h2.9v-2.85h-0.1v-0.12h0.1V80.62h-2.274l0.071,0.188l-0.056,0.081h-0.4l-0.051-0.092l0.111-0.178h-0.3v0.16H11.819z
		 M11.819,82.28h0.12v1.02h-0.12V82.28z M10.569,82.273l0.102-0.036l0.3,0.3l-0.019,0.098l-0.35,0.15l-0.083-0.062L10.569,82.273z
		 M10.952,85.935l-0.35,0.15l-0.083-0.062l0.05-0.45l0.102-0.036l0.3,0.3L10.952,85.935z M12.579,84.19h-0.4l-0.051-0.092l0.25-0.4
		l0.107,0.011l0.15,0.4L12.579,84.19z M14.169,82.273l0.102-0.036l0.3,0.3l-0.019,0.098l-0.35,0.15l-0.083-0.062L14.169,82.273z
		 M14.169,85.573l0.102-0.036l0.3,0.3l-0.019,0.098l-0.35,0.15l-0.083-0.062L14.169,85.573z M13.239,83.519v0.12h-3.96v-0.12H13.239
		z"/>
	<path fill="#ffffff" d="M11.939,44.9v2.29h0.75V37.77h-0.75v3.109h-0.12V37.77H8.919v9.419h2.899V44.9H11.939z M11.819,42.38h0.12
		v1.02h-0.12V42.38z M9.687,46.739l-0.35,0.05l-0.004-0.033L9.33,46.762l-0.102-0.063l0.25-0.4l0.106,0.008l0.15,0.35L9.687,46.739z
		 M9.687,43.439l-0.35,0.05l-0.004-0.033L9.33,43.461l-0.102-0.063l0.25-0.4l0.106,0.008l0.15,0.35L9.687,43.439z M9.687,40.14
		l-0.35,0.05l-0.004-0.033l-0.002,0.003L9.227,40.1l0.25-0.45l0.108,0.008l0.15,0.4L9.687,40.14z M11.659,45.182l-0.35,0.2
		l-0.089-0.059l0.05-0.45l0.098-0.039l0.3,0.25L11.659,45.182z M11.659,41.882l-0.35,0.2l-0.089-0.058l0.05-0.5l0.102-0.037l0.3,0.3
		L11.659,41.882z M11.652,38.585l-0.35,0.15l-0.083-0.062l0.05-0.45l0.102-0.036l0.3,0.3L11.652,38.585z"/>
	<polygon points="231.479,41.48 231.479,41.72 231.239,41.72 231.239,66.339 231.479,66.339 231.479,66.579 231.719,66.579 
		231.719,41.48 	"/>
	<polygon points="228.887,64.339 228.739,64.36 228.739,64.82 228.739,66.32 228.739,66.339 228.919,66.339 228.919,64.283 	"/>
	<polygon points="228.619,64.82 228.619,64.377 228.537,64.389 228.475,64.303 228.619,64.016 228.619,61.078 228.537,61.089 
		228.475,61.003 228.619,60.716 228.619,59.36 228.619,58.34 228.619,57.778 228.537,57.789 228.474,57.705 228.619,57.38 
		228.619,56.84 228.619,54.44 228.529,54.44 228.475,54.353 228.619,54.066 228.619,52.88 228.619,51.38 228.619,51.14 
		228.529,51.14 228.475,51.053 228.619,50.766 228.619,50.36 228.619,48.86 228.619,47.84 228.529,47.84 228.475,47.753 
		228.619,47.466 228.619,44.9 228.619,44.528 228.537,44.539 228.475,44.453 228.619,44.166 228.619,43.4 228.619,42.38 
		228.619,41.48 228.438,41.48 228.438,66.579 228.619,66.579 228.619,66.32 	"/>
	<polygon points="228.739,57.76 228.739,58.34 228.739,59.36 228.739,60.605 228.784,60.606 228.919,60.921 228.919,57.686 
		228.887,57.739 	"/>
	<polygon points="228.739,61.061 228.739,63.905 228.784,63.906 228.919,64.221 228.919,60.983 228.887,61.039 	"/>
	<polygon points="228.739,54.44 228.739,56.84 228.739,57.257 228.785,57.259 228.919,57.616 228.919,54.382 228.879,54.44 	"/>
	<polygon points="228.739,51.14 228.739,51.38 228.739,52.88 228.739,53.956 228.785,53.959 228.919,54.316 228.919,51.082 
		228.879,51.14 	"/>
	<polygon points="228.739,44.51 228.739,44.9 228.739,47.356 228.785,47.359 228.919,47.716 228.919,44.433 228.887,44.489 	"/>
	<polygon points="228.739,47.84 228.739,48.86 228.739,50.36 228.739,50.656 228.785,50.659 228.919,51.016 228.919,47.782 
		228.879,47.84 	"/>
	<polygon points="228.739,43.4 228.739,44.055 228.784,44.056 228.919,44.371 228.919,41.72 228.739,41.72 228.739,42.38 	"/>
	<rect x="184.969" y="41.54" width="2.37" height="0.18"/>
	<rect x="184.969" y="41.24" width="2.37" height="0.18"/>
	<rect x="184.969" y="66.339" width="2.37" height="0.181"/>
	<rect x="184.969" y="66.64" width="2.37" height="0.18"/>
	<polygon points="185.475,100.253 185.275,100.653 185.329,100.74 185.729,100.74 185.783,100.653 185.583,100.253 	"/>
	<polygon points="187.32,102.117 187.307,102.178 187.339,102.178 187.339,102.112 	"/>
	<polygon points="185.475,96.953 185.275,97.353 185.329,97.44 185.729,97.44 185.783,97.353 185.583,96.953 	"/>
	<polygon points="187.22,99.266 187.302,99.335 187.339,99.319 187.339,98.812 187.32,98.817 	"/>
	<polygon points="185.736,94.089 185.781,94 185.581,93.65 185.475,93.653 185.275,94.053 185.336,94.139 	"/>
	<polygon points="187.22,95.967 187.303,96.035 187.339,96.019 187.339,95.512 187.32,95.516 	"/>
	<polygon points="185.736,90.789 185.781,90.7 185.581,90.35 185.475,90.353 185.275,90.753 185.336,90.839 	"/>
	<polygon points="187.22,92.666 187.302,92.735 187.339,92.719 187.339,92.212 187.32,92.217 	"/>
	<polygon points="185.736,87.489 185.781,87.4 185.581,87.05 185.475,87.053 185.275,87.453 185.336,87.539 	"/>
	<polygon points="187.22,89.367 187.302,89.435 187.339,89.419 187.339,88.912 187.32,88.916 	"/>
	<polygon points="185.736,84.189 185.781,84.1 185.581,83.75 185.475,83.753 185.275,84.153 185.336,84.239 	"/>
	<polygon points="187.659,85.932 187.675,85.841 187.425,85.541 187.32,85.568 187.22,86.068 187.309,86.132 	"/>
	<polygon points="185.474,80.405 185.274,80.855 185.336,80.939 185.736,80.89 185.783,80.803 185.583,80.403 	"/>
	<polygon points="187.32,82.266 187.22,82.717 187.303,82.785 187.339,82.769 187.339,82.262 	"/>
	<polygon points="185.475,77.103 185.275,77.503 185.329,77.59 185.729,77.59 185.783,77.503 185.583,77.103 	"/>
	<polygon points="187.32,78.967 187.22,79.416 187.302,79.485 187.339,79.469 187.339,78.962 	"/>
	<polygon points="185.475,73.803 185.275,74.203 185.329,74.29 185.729,74.29 185.783,74.203 185.583,73.803 	"/>
	<polygon points="187.32,75.666 187.22,76.117 187.302,76.185 187.339,76.169 187.339,75.662 	"/>
	<polygon points="185.475,70.503 185.275,70.903 185.329,70.99 185.729,70.99 185.783,70.903 185.583,70.503 	"/>
	<polygon points="187.32,72.367 187.22,72.816 187.302,72.885 187.339,72.869 187.339,72.362 	"/>
	<polygon points="185.736,67.64 185.781,67.55 185.581,67.2 185.475,67.203 185.275,67.603 185.336,67.689 	"/>
	<polygon points="187.32,69.067 187.22,69.516 187.302,69.585 187.339,69.569 187.339,69.062 	"/>
	<polygon points="185.475,40.753 185.275,41.153 185.336,41.239 185.736,41.189 185.781,41.1 185.581,40.75 	"/>
	<polygon points="185.475,37.453 185.275,37.853 185.336,37.939 185.736,37.89 185.781,37.8 185.581,37.45 	"/>
	<polygon points="187.32,39.317 187.22,39.766 187.302,39.835 187.339,39.819 187.339,39.312 	"/>
	<polygon points="185.475,34.153 185.275,34.553 185.336,34.639 185.736,34.589 185.781,34.5 185.581,34.15 	"/>
	<polygon points="187.32,35.968 187.22,36.468 187.309,36.532 187.339,36.515 187.339,35.963 	"/>
	<polygon points="185.474,30.806 185.274,31.255 185.336,31.339 185.736,31.289 185.783,31.203 185.583,30.803 	"/>
	<polygon points="187.32,32.666 187.22,33.117 187.302,33.185 187.339,33.169 187.339,32.662 	"/>
	<polygon points="185.475,27.503 185.275,27.903 185.329,27.99 185.729,27.99 185.783,27.903 185.583,27.503 	"/>
	<polygon points="187.32,29.367 187.22,29.816 187.302,29.885 187.339,29.869 187.339,29.362 	"/>
	<polygon points="187.652,26.435 187.675,26.341 187.425,26.041 187.32,26.067 187.22,26.516 187.302,26.585 	"/>
	<polygon points="189.336,87.489 189.381,87.4 189.181,87.05 189.075,87.053 188.875,87.453 188.936,87.539 	"/>
	<polygon points="190.82,86.068 190.909,86.132 191.259,85.932 191.275,85.841 191.049,85.57 190.92,85.57 	"/>
	<polygon points="189.183,27.503 189.075,27.503 189.007,27.64 189.251,27.64 	"/>
	<polygon points="191.252,26.435 191.275,26.341 191.025,26.041 190.92,26.067 190.82,26.516 190.902,26.585 	"/>
	<polygon points="192.887,87.489 192.934,87.406 192.784,87.056 192.675,87.053 192.475,87.453 192.537,87.539 	"/>
	<polygon points="194.469,85.574 194.419,86.074 194.509,86.132 194.859,85.932 194.872,85.837 194.604,85.57 194.48,85.57 	"/>
	<polygon points="192.785,27.509 192.675,27.503 192.607,27.64 192.834,27.64 	"/>
	<polygon points="194.853,26.435 194.872,26.337 194.571,26.037 194.469,26.073 194.419,26.523 194.502,26.585 	"/>
	<polygon points="196.487,87.489 196.534,87.406 196.384,87.056 196.275,87.053 196.075,87.453 196.137,87.539 	"/>
	<polygon points="198.069,85.574 198.02,86.074 198.109,86.132 198.458,85.932 198.471,85.837 198.204,85.57 198.08,85.57 	"/>
	<polygon points="196.385,27.509 196.275,27.503 196.207,27.64 196.434,27.64 	"/>
	<polygon points="198.452,26.435 198.471,26.337 198.171,26.037 198.069,26.073 198.02,26.523 198.103,26.585 	"/>
	<polygon points="200.087,87.489 200.134,87.406 199.984,87.056 199.875,87.053 199.675,87.453 199.737,87.539 	"/>
	<polygon points="201.669,85.574 201.619,86.074 201.708,86.132 202.059,85.932 202.071,85.837 201.804,85.57 201.68,85.57 	"/>
	<polygon points="199.985,27.509 199.875,27.503 199.807,27.64 200.034,27.64 	"/>
	<polygon points="202.052,26.435 202.071,26.337 201.771,26.037 201.669,26.073 201.619,26.523 201.702,26.585 	"/>
	<polygon points="203.687,87.489 203.734,87.406 203.584,87.056 203.475,87.053 203.275,87.453 203.337,87.539 	"/>
	<polygon points="205.27,85.574 205.219,86.074 205.309,86.132 205.659,85.932 205.671,85.837 205.404,85.57 205.28,85.57 	"/>
	<polygon points="203.585,27.509 203.475,27.503 203.407,27.64 203.634,27.64 	"/>
	<polygon points="205.652,26.435 205.671,26.337 205.372,26.037 205.27,26.073 205.219,26.523 205.302,26.585 	"/>
	<polygon points="207.287,87.489 207.334,87.406 207.184,87.056 207.075,87.053 206.875,87.453 206.937,87.539 	"/>
	<polygon points="208.869,85.574 208.819,86.074 208.909,86.132 209.259,85.932 209.271,85.837 209.004,85.57 208.88,85.57 	"/>
	<polygon points="207.185,27.509 207.075,27.503 207.007,27.64 207.234,27.64 	"/>
	<polygon points="209.252,26.435 209.271,26.337 208.971,26.037 208.869,26.073 208.819,26.523 208.902,26.585 	"/>
	<polygon points="210.887,87.489 210.934,87.406 210.784,87.056 210.675,87.053 210.475,87.453 210.537,87.539 	"/>
	<polygon points="212.469,85.574 212.419,86.074 212.509,86.132 212.859,85.932 212.872,85.837 212.604,85.57 212.48,85.57 	"/>
	<polygon points="210.785,27.509 210.675,27.503 210.607,27.64 210.834,27.64 	"/>
	<polygon points="212.853,26.435 212.872,26.337 212.571,26.037 212.469,26.073 212.419,26.523 212.502,26.585 	"/>
	<polygon points="214.487,87.489 214.534,87.406 214.384,87.056 214.275,87.053 214.075,87.453 214.137,87.539 	"/>
	<polygon points="216.069,85.574 216.02,86.074 216.109,86.132 216.458,85.932 216.471,85.837 216.204,85.57 216.08,85.57 	"/>
	<polygon points="214.385,27.509 214.275,27.503 214.207,27.64 214.434,27.64 	"/>
	<polygon points="216.452,26.435 216.471,26.337 216.171,26.037 216.069,26.073 216.02,26.523 216.103,26.585 	"/>
	<polygon points="218.087,87.489 218.134,87.406 217.984,87.056 217.875,87.053 217.675,87.453 217.737,87.539 	"/>
	<polygon points="219.669,85.574 219.619,86.074 219.708,86.132 220.059,85.932 220.071,85.837 219.804,85.57 219.68,85.57 	"/>
	<polygon points="217.985,27.509 217.875,27.503 217.807,27.64 218.034,27.64 	"/>
	<polygon points="220.052,26.435 220.071,26.337 219.771,26.037 219.669,26.073 219.619,26.523 219.702,26.585 	"/>
	<polygon points="221.687,87.489 221.734,87.406 221.584,87.056 221.475,87.053 221.275,87.453 221.337,87.539 	"/>
	<polygon points="223.27,85.574 223.219,86.074 223.309,86.132 223.659,85.932 223.671,85.837 223.404,85.57 223.28,85.57 	"/>
	<polygon points="221.585,27.509 221.475,27.503 221.407,27.64 221.634,27.64 	"/>
	<polygon points="223.652,26.435 223.671,26.337 223.372,26.037 223.27,26.073 223.219,26.523 223.302,26.585 	"/>
	<polygon points="225.287,87.489 225.334,87.406 225.184,87.056 225.075,87.053 224.875,87.453 224.937,87.539 	"/>
	<polygon points="226.869,85.574 226.819,86.074 226.909,86.132 227.259,85.932 227.271,85.837 227.004,85.57 226.88,85.57 	"/>
	<polygon points="225.185,27.509 225.075,27.503 225.007,27.64 225.234,27.64 	"/>
	<polygon points="227.252,26.435 227.271,26.337 226.971,26.037 226.869,26.073 226.819,26.523 226.902,26.585 	"/>
	<polygon points="228.935,100.659 228.919,100.616 228.919,100.682 	"/>
	<polygon points="230.469,102.123 230.463,102.178 230.662,102.178 230.571,102.087 	"/>
	<polygon points="228.935,97.359 228.919,97.316 228.919,97.382 	"/>
	<polygon points="230.469,98.823 230.419,99.273 230.502,99.335 230.853,99.185 230.872,99.087 230.571,98.787 	"/>
	<polygon points="228.934,94.006 228.919,93.971 228.919,94.033 	"/>
	<polygon points="230.469,95.523 230.419,95.973 230.503,96.035 230.853,95.885 230.872,95.787 230.571,95.487 	"/>
	<polygon points="228.934,90.706 228.919,90.671 228.919,90.733 	"/>
	<polygon points="230.469,92.223 230.419,92.673 230.502,92.735 230.853,92.585 230.872,92.487 230.571,92.187 	"/>
	<polygon points="228.475,87.453 228.537,87.539 228.619,87.528 228.619,87.166 	"/>
	<polygon points="228.887,87.489 228.934,87.406 228.784,87.056 228.739,87.055 228.739,87.51 	"/>
	<polygon points="230.469,88.923 230.419,89.373 230.502,89.435 230.853,89.285 230.872,89.187 230.571,88.887 	"/>
	<polygon points="228.934,84.106 228.919,84.071 228.919,84.133 	"/>
	<polygon points="230.469,85.574 230.419,86.074 230.509,86.132 230.859,85.932 230.872,85.837 230.571,85.537 	"/>
	<polygon points="228.935,80.809 228.919,80.766 228.919,80.836 	"/>
	<polygon points="230.853,82.635 230.872,82.537 230.571,82.237 230.469,82.273 230.419,82.723 230.503,82.785 	"/>
	<polygon points="228.935,77.509 228.919,77.466 228.919,77.532 	"/>
	<polygon points="230.853,79.335 230.872,79.237 230.571,78.937 230.469,78.973 230.419,79.423 230.502,79.485 	"/>
	<polygon points="228.935,74.209 228.919,74.166 228.919,74.232 	"/>
	<polygon points="230.853,76.035 230.872,75.937 230.571,75.637 230.469,75.673 230.419,76.123 230.502,76.185 	"/>
	<polygon points="228.935,70.909 228.919,70.866 228.919,70.932 	"/>
	<polygon points="230.853,72.735 230.872,72.637 230.571,72.337 230.469,72.373 230.419,72.823 230.502,72.885 	"/>
	<polygon points="228.934,67.557 228.919,67.521 228.919,67.583 	"/>
	<polygon points="230.853,69.435 230.872,69.337 230.571,69.037 230.469,69.073 230.419,69.523 230.502,69.585 	"/>
	<polygon points="228.475,64.303 228.537,64.389 228.619,64.377 228.619,64.016 	"/>
	<polygon points="228.784,63.906 228.739,63.905 228.739,64.36 228.887,64.339 228.919,64.283 228.934,64.256 228.919,64.221 	"/>
	<polygon points="230.853,66.135 230.872,66.037 230.571,65.737 230.469,65.773 230.419,66.223 230.503,66.285 	"/>
	<polygon points="228.784,60.606 228.739,60.605 228.739,60.86 228.739,61.061 228.887,61.039 228.919,60.983 228.934,60.956 
		228.919,60.921 	"/>
	<polygon points="228.619,60.716 228.475,61.003 228.537,61.089 228.619,61.078 228.619,60.86 	"/>
	<polygon points="230.859,62.782 230.868,62.684 230.567,62.434 230.469,62.473 230.419,62.923 230.509,62.982 	"/>
	<polygon points="228.474,57.705 228.537,57.789 228.619,57.778 228.619,57.38 	"/>
	<polygon points="228.739,57.257 228.739,57.76 228.887,57.739 228.919,57.686 228.935,57.659 228.919,57.616 228.785,57.259 	"/>
	<polygon points="230.503,59.635 230.508,59.633 230.539,59.636 230.541,59.619 230.853,59.485 230.872,59.387 230.571,59.087 
		230.469,59.124 230.419,59.624 230.501,59.632 	"/>
	<polygon points="228.619,54.066 228.475,54.353 228.529,54.44 228.619,54.44 	"/>
	<polygon points="228.739,53.956 228.739,54.44 228.879,54.44 228.919,54.382 228.935,54.359 228.919,54.316 228.785,53.959 	"/>
	<polygon points="230.853,56.185 230.872,56.087 230.571,55.787 230.469,55.823 230.419,56.273 230.502,56.335 	"/>
	<polygon points="228.475,51.053 228.529,51.14 228.619,51.14 228.619,50.766 	"/>
	<polygon points="228.785,50.659 228.739,50.656 228.739,51.14 228.879,51.14 228.919,51.082 228.935,51.058 228.919,51.016 	"/>
	<polygon points="230.853,52.885 230.872,52.787 230.571,52.487 230.469,52.523 230.419,52.973 230.503,53.035 	"/>
	<polygon points="228.785,47.359 228.739,47.356 228.739,47.84 228.879,47.84 228.919,47.782 228.935,47.759 228.919,47.716 	"/>
	<polygon points="228.475,47.753 228.529,47.84 228.619,47.84 228.619,47.466 	"/>
	<polygon points="230.853,49.585 230.872,49.487 230.571,49.187 230.469,49.223 230.419,49.673 230.502,49.735 	"/>
	<polygon points="228.784,44.056 228.739,44.055 228.739,44.51 228.887,44.489 228.919,44.433 228.934,44.406 228.919,44.371 	"/>
	<polygon points="228.475,44.453 228.537,44.539 228.619,44.528 228.619,44.166 	"/>
	<polygon points="230.853,46.285 230.872,46.187 230.571,45.887 230.469,45.923 230.419,46.373 230.502,46.435 	"/>
	<polygon points="228.934,41.106 228.919,41.071 228.919,41.133 	"/>
	<polygon points="230.853,42.985 230.872,42.887 230.571,42.587 230.469,42.623 230.419,43.073 230.502,43.135 	"/>
	<polygon points="228.934,37.807 228.919,37.771 228.919,37.833 	"/>
	<polygon points="230.469,39.323 230.419,39.773 230.502,39.835 230.853,39.685 230.872,39.587 230.571,39.287 	"/>
	<polygon points="228.934,34.506 228.919,34.471 228.919,34.533 	"/>
	<polygon points="230.469,35.974 230.419,36.474 230.509,36.532 230.859,36.332 230.872,36.237 230.571,35.937 	"/>
	<polygon points="228.935,31.209 228.919,31.166 228.919,31.236 	"/>
	<polygon points="230.469,32.673 230.419,33.123 230.502,33.185 230.853,33.035 230.872,32.937 230.574,32.64 230.564,32.64 	"/>
	<path d="M228.919,27.88v0.052l0.016-0.023l-0.15-0.4l-0.11-0.006l-0.068,0.137h0.072C228.811,27.64,228.919,27.747,228.919,27.88z"
		/>
	<polygon points="230.853,29.735 230.872,29.637 230.571,29.337 230.469,29.373 230.419,29.823 230.502,29.885 	"/>
	<polygon points="230.853,26.435 230.872,26.337 230.571,26.037 230.469,26.073 230.419,26.523 230.502,26.585 	"/>
	<polygon points="187.339,41.48 187.339,41.42 184.969,41.42 184.969,41.48 184.969,41.54 187.339,41.54 	"/>
	<polygon points="187.339,66.579 187.339,66.52 184.969,66.52 184.969,66.58 184.969,66.64 187.339,66.64 	"/>
	<rect x="19.169" y="96.39" width="0.12" height="5.788"/>
	<rect x="6.599" y="96.269" width="5.22" height="0.12"/>
	<polygon points="11.939,96.39 19.169,96.39 19.289,96.39 184.489,96.39 184.489,96.269 11.939,96.269 	"/>
	<polygon points="19.289,70.83 19.169,70.83 19.169,70.769 11.939,70.769 11.939,70.89 184.489,70.89 184.489,70.769 19.289,70.769 
			"/>
	<rect x="6.599" y="70.769" width="5.22" height="0.12"/>
	<polygon points="19.169,70.83 19.289,70.83 19.289,70.769 19.289,50.59 19.169,50.59 19.169,70.769 	"/>
	<rect x="6.599" y="50.47" width="5.22" height="0.12"/>
	<polygon points="11.939,50.59 19.169,50.59 19.289,50.59 184.489,50.59 184.489,50.47 11.939,50.47 	"/>
	<path d="M248.979,80.33c0.05,0.1,0.15,0.3,0.3,0.6l0.4,0.75h0.5l-0.5-0.95c-0.1-0.2-0.2-0.35-0.3-0.5
		c-0.05-0.05-0.15-0.1-0.25-0.15c0.25-0.05,0.45-0.15,0.6-0.35c0.15-0.15,0.2-0.35,0.2-0.65c0-0.2-0.05-0.35-0.1-0.5
		c-0.1-0.2-0.2-0.3-0.35-0.35c-0.1-0.05-0.3-0.1-0.6-0.1h-1.25v3.55h0.35v-1.6h0.45c0.15,0,0.25,0.05,0.3,0.05
		C248.829,80.18,248.879,80.23,248.979,80.33z M247.979,79.68v-1.15h0.95c0.2,0,0.35,0.05,0.45,0.15c0.1,0.1,0.15,0.25,0.15,0.4
		s0,0.25-0.05,0.35c-0.1,0.1-0.15,0.15-0.25,0.2s-0.25,0.05-0.4,0.05H247.979z"/>
	<path d="M253.179,80.38c-0.05,0.3-0.1,0.55-0.15,0.8c-0.05-0.4-0.15-0.8-0.25-1.25l-0.4-1.8h-0.45l-0.55,2.4l-0.15,0.65
		c0-0.25-0.05-0.5-0.1-0.75l-0.45-2.3h-0.4l0.75,3.55h0.4l0.65-2.7c0-0.15,0.05-0.25,0.05-0.4l0.1,0.4l0.6,2.7h0.4l0.8-3.55h-0.4
		L253.179,80.38z"/>
	<path d="M257.029,79.88c0-0.35-0.05-0.7-0.15-0.95c-0.15-0.3-0.3-0.5-0.55-0.65c-0.2-0.15-0.4-0.2-0.7-0.2
		c-0.35,0-0.7,0.15-0.95,0.45c-0.3,0.35-0.4,0.8-0.4,1.4c0,0.5,0.1,0.9,0.35,1.25c0.25,0.35,0.6,0.55,1,0.55
		c0.45,0,0.8-0.2,1.05-0.55C256.929,80.83,257.029,80.43,257.029,79.88z M256.379,80.98c-0.2,0.25-0.45,0.35-0.75,0.35
		c-0.25,0-0.5-0.1-0.7-0.35c-0.2-0.25-0.25-0.6-0.25-1.05c0-0.5,0.05-0.85,0.25-1.1c0.2-0.25,0.45-0.35,0.75-0.35
		c0.15,0,0.3,0.05,0.5,0.15c0.15,0.1,0.25,0.25,0.3,0.45c0.1,0.25,0.15,0.5,0.15,0.8C256.629,80.38,256.529,80.73,256.379,80.98z"/>
	<polygon points="9.035,84.109 8.919,83.8 8.919,84.19 8.979,84.19 	"/>
	<polygon points="10.569,85.573 10.52,86.023 10.603,86.085 10.952,85.935 10.971,85.837 10.671,85.537 	"/>
	<polygon points="9.035,80.808 8.964,80.62 8.919,80.62 8.919,80.89 8.979,80.89 	"/>
	<polygon points="10.953,82.635 10.971,82.537 10.671,82.237 10.569,82.273 10.52,82.723 10.603,82.785 	"/>
	<polygon points="12.378,83.698 12.128,84.098 12.179,84.19 12.579,84.19 12.635,84.109 12.485,83.709 	"/>
	<polygon points="14.552,85.935 14.571,85.837 14.271,85.537 14.169,85.573 14.119,86.023 14.202,86.085 	"/>
	<polygon points="12.179,80.89 12.579,80.89 12.635,80.808 12.564,80.62 12.239,80.62 12.128,80.798 	"/>
	<polygon points="14.552,82.635 14.571,82.537 14.271,82.237 14.169,82.273 14.119,82.723 14.203,82.785 	"/>
	<polygon points="9.478,46.298 9.228,46.698 9.33,46.762 9.333,46.756 9.337,46.789 9.687,46.739 9.734,46.656 9.584,46.306 	"/>
	<polygon points="9.478,42.998 9.228,43.398 9.33,43.461 9.333,43.456 9.337,43.489 9.687,43.439 9.734,43.356 9.584,43.006 	"/>
	<polygon points="11.27,44.873 11.219,45.323 11.309,45.382 11.659,45.182 11.667,45.084 11.368,44.834 	"/>
	<polygon points="9.477,39.65 9.227,40.1 9.331,40.159 9.333,40.156 9.337,40.189 9.687,40.14 9.735,40.059 9.585,39.659 	"/>
	<polygon points="11.27,41.524 11.219,42.024 11.309,42.082 11.659,41.882 11.671,41.787 11.372,41.487 	"/>
	<polygon points="11.27,38.223 11.219,38.673 11.302,38.735 11.652,38.585 11.671,38.487 11.372,38.187 	"/>
	<polygon points="187.819,88.725 195.451,102.178 195.589,102.178 187.819,88.481 	"/>
	<polygon points="228.438,88.481 220.669,102.178 220.807,102.178 228.438,88.725 	"/>
	<path d="M273.039,32.64v4.65h-1.8v0.48h2.04c0.132,0,0.24-0.108,0.24-0.24V32.64H273.039z"/>
	<path d="M271.119,37.29h-0.593l0.113,0.225h-0.419l0.112-0.225h-1.063v-9.47h3.77v4.699h0.48V27.58c0-0.132-0.108-0.24-0.24-0.24
		h-2.04v0.1h-0.12v-0.1h-0.615l0.177,0.31l-0.045,0.089l-0.4,0.05l-0.061-0.086l0.181-0.363h-1.328c-0.132,0-0.24,0.108-0.24,0.24
		v1.625l0.233,0.233l-0.019,0.098l-0.214,0.092v2.878l0.233,0.233l-0.019,0.098l-0.214,0.092v2.878l0.233,0.233l-0.019,0.098
		l-0.214,0.092v1.304c0,0.132,0.108,0.24,0.24,0.24h2.09V37.29z"/>
	<path d="M8.679,47.67h3.14v-0.48H8.919V37.77h2.899v-0.48h-3.14c-0.132,0-0.24,0.108-0.24,0.24v9.9
		C8.439,47.562,8.547,47.67,8.679,47.67z"/>
	<path d="M11.939,37.77h0.75v9.419h-0.75v0.48h0.99c0.132,0,0.24-0.108,0.24-0.24v-9.9c0-0.132-0.108-0.24-0.24-0.24h-0.99V37.77z"
		/>
	<path d="M11.939,80.14v0.48h0.3h0.325h2.274v2.899h0.48v-3.14c0-0.132-0.108-0.24-0.24-0.24H11.939z"/>
	<path d="M11.819,86.49H8.919v-2.3V83.8V80.89v-0.27h0.045h2.854v-0.48h-3.14c-0.132,0-0.24,0.108-0.24,0.24v6.35
		c0,0.132,0.108,0.24,0.24,0.24h3.14V86.49z"/>
	<path d="M14.839,83.64v2.85h-2.9v0.48h3.14c0.132,0,0.24-0.108,0.24-0.24v-3.09H14.839z"/>
	<polygon points="187.819,41.48 187.819,32.64 187.639,32.64 187.639,41.48 187.519,41.48 187.519,32.64 187.339,32.64 
		187.339,32.662 187.339,33.169 187.339,35.963 187.339,36.515 187.339,39.312 187.339,39.819 187.339,41.24 187.339,41.42 
		187.339,41.48 187.339,41.54 187.339,41.72 187.339,66.339 187.339,66.52 187.339,66.579 187.339,66.64 187.339,66.82 
		187.339,69.062 187.339,69.569 187.339,72.362 187.339,72.869 187.339,75.662 187.339,76.169 187.339,78.962 187.339,79.469 
		187.339,82.262 187.339,82.769 187.339,83.519 187.519,83.519 187.519,66.579 187.639,66.579 187.639,66.58 187.639,83.519 
		187.819,83.519 187.819,66.579 	"/>
	<polygon points="228.619,32.519 228.619,28.94 228.619,28.067 228.438,28.318 228.438,32.519 	"/>
	<polygon points="228.562,27.94 187.696,27.94 187.825,28.12 228.433,28.12 	"/>
	<path d="M187.579,85.39v-0.06h-0.06v-1.69h-0.18v1.69c0,0.132,0.108,0.24,0.24,0.24h3.341h0.129h3.431h0.124h3.476h0.124h3.476
		h0.124h3.476h0.124h3.476h0.124h3.476h0.124h3.476h0.124h3.476h0.124h3.476h0.124h3.476h0.124h1.615v-0.18H187.579z"/>
	<polygon points="187.825,85.089 187.696,85.269 228.561,85.269 228.432,85.089 	"/>
	<polygon points="228.619,36.92 228.619,35.42 228.619,34.4 228.619,32.9 228.619,32.64 228.438,32.64 228.438,41.48 228.619,41.48 
		228.619,40.88 	"/>
	<polygon points="187.819,84.891 187.819,83.64 187.639,83.64 187.639,85.143 	"/>
	<polygon points="187.639,28.067 187.639,32.519 187.819,32.519 187.819,28.318 	"/>
	<path d="M228.739,67.34v1.5v3.96v1.5v1.02v1.5v3.96v1.5v1.02v1.5v0.53v0.215c0.1-0.029,0.18-0.106,0.18-0.215v-1.196v-0.062v-3.235
		v-0.07v-3.234v-0.066v-3.234v-0.066v-3.234v-0.066v-3.282v-0.062V66.82h-0.18V67.34z"/>
	<polygon points="228.438,66.579 228.438,83.519 228.619,83.519 228.619,83.3 228.619,82.28 228.619,80.78 228.619,76.82 
		228.619,75.32 228.619,74.3 228.619,72.8 228.619,68.84 228.619,67.34 228.619,66.579 	"/>
	<path d="M187.519,27.88h0.06l0,0v-0.06h41.1v0.06l0,0h0.06v1.06v3.96v1.5v1.02v1.5v3.96v0.36h0.18v-0.107v-0.062v-3.238v-0.062
		v-3.238v-0.062v-3.235v-0.07v-3.234V27.88c0-0.132-0.108-0.24-0.24-0.24h-0.072h-3.373h-0.227h-3.373h-0.227h-3.373h-0.227h-3.372
		h-0.227h-3.373h-0.227h-3.373h-0.227h-3.373h-0.227h-3.373h-0.227h-3.372h-0.227h-3.373h-0.227h-3.356h-0.244h-1.428
		c-0.132,0-0.24,0.108-0.24,0.24v1.482v0.507v2.65h0.18V27.88z"/>
	<polygon points="228.619,83.64 228.438,83.64 228.438,84.891 228.619,85.143 228.619,84.8 	"/>
	<path d="M184.839,83.64v-0.12h0.13v-16.7v-0.18v-0.06v-0.06v-0.181V41.72v-0.18v-0.06v-0.06v-0.18v-8.6h-0.13v-0.12h0.13v-7.25
		h46.27v15.97h0.24v0.24h0.24v-3.77h-0.24v-0.36h0.24V25.03c0-0.132-0.108-0.24-0.24-0.24h-2.74v0.13h-0.12v-0.13h-43.89
		c-0.086,0-0.148,0.052-0.19,0.12h0.19v0.24h-0.24v16.33v8.99v0.12v15.99v4.189v0.12v25.38v0.12v5.788h0.246h0.234V83.64H184.839z"
		/>
	<polygon points="231.479,66.579 231.479,66.82 231.239,66.82 231.239,102.178 231.49,102.178 231.719,102.178 231.719,66.579 	"/>
	<path d="M228.919,100.616v-3.234v-0.066v-3.283v-0.062v-3.238v-0.062V88.18c0-0.109-0.081-0.186-0.18-0.215v0.795h-0.12v-0.82
		h-41.04c-0.132,0-0.24,0.108-0.24,0.24v0.732v0.507v2.793v0.507v2.793v0.508v2.793v0.507v2.793v0.066h0.231h0.249V88.725v-0.244
		V88.42h40.619v0.061v0.244v13.453h0.18v-1.418h0.12v1.418h0.18v-1.496V100.616z M228.619,92.78h0.12v3.96h-0.12V92.78z
		 M228.739,99.26h-0.12v-1.02h0.12V99.26z M228.739,90.26v1.02h-0.12v-1.02H228.739z"/>
	<rect x="184.75" y="44.622" transform="matrix(-0.5818 -0.8133 0.8133 -0.5818 279.2567 232.8258)" width="29.466" height="0"/>
	<polygon points="187.639,28.067 187.639,28.067 187.819,28.318 190.825,32.519 190.825,32.519 	"/>
	<rect x="201.236" y="70.113" transform="matrix(0.5818 0.8133 -0.8133 0.5818 148.0654 -147.7533)" width="32.967" height="0"/>
	<polygon points="228.432,85.089 228.561,85.269 228.562,85.269 227.396,83.64 227.395,83.64 	"/>
	<polygon points="231.239,66.339 228.919,66.339 228.739,66.339 228.739,66.82 228.919,66.82 231.239,66.82 231.479,66.82 
		231.479,66.579 231.479,66.339 	"/>
	<polygon points="228.739,41.24 228.739,41.72 228.919,41.72 231.239,41.72 231.479,41.72 231.479,41.48 231.479,41.24 
		231.239,41.24 228.919,41.24 	"/>
	<polygon points="231.479,37.349 231.479,37.71 231.719,37.71 268.329,37.71 268.329,37.53 268.149,37.53 268.149,37.349 
		231.719,37.349 	"/>
	<path d="M249.411,76.337c0.127,0.039,0.258,0.059,0.391,0.059c0.562,0,1.077-0.359,1.285-0.899c0.206-0.72-0.153-1.46-0.841-1.725
		c-0.136-0.039-0.274-0.059-0.412-0.059c-0.587,0-1.101,0.352-1.312,0.9C248.31,75.352,248.683,76.077,249.411,76.337z
		 M248.635,74.651c0.191-0.497,0.661-0.818,1.198-0.818c0.126,0,0.254,0.018,0.374,0.052c0.624,0.24,0.952,0.918,0.765,1.573
		c-0.188,0.489-0.659,0.817-1.171,0.817c-0.121,0-0.24-0.018-0.353-0.053C248.785,75.986,248.443,75.323,248.635,74.651z"/>
	<polygon points="187.53,85.295 187.639,85.143 187.639,83.64 187.519,83.64 187.519,85.329 187.579,85.329 	"/>
	<polygon points="187.639,66.58 187.639,66.579 187.519,66.579 187.519,83.519 187.639,83.519 	"/>
	<polygon points="228.562,85.269 228.561,85.269 187.696,85.269 187.628,85.364 187.579,85.329 187.579,85.39 228.619,85.39 
		228.619,85.348 	"/>
	<rect x="228.619" y="64.82" width="0.12" height="1.5"/>
	<polygon points="228.619,56.84 228.619,57.38 228.619,57.778 228.619,58.34 228.739,58.34 228.739,57.76 228.739,57.257 
		228.739,56.84 	"/>
	<rect x="228.619" y="48.86" width="0.12" height="1.5"/>
	<polygon points="228.619,59.36 228.619,60.716 228.619,60.86 228.739,60.86 228.739,60.605 228.739,59.36 	"/>
	<rect x="228.619" y="51.38" width="0.12" height="1.5"/>
	<polygon points="228.619,43.4 228.619,44.166 228.619,44.528 228.619,44.9 228.739,44.9 228.739,44.51 228.739,44.055 
		228.739,43.4 	"/>
	<rect x="228.619" y="75.32" width="0.12" height="1.5"/>
	<polygon points="228.619,83.3 228.619,83.519 228.699,83.519 228.699,83.64 228.619,83.64 228.619,84.8 228.739,84.8 228.739,83.3 
			"/>
	<rect x="228.619" y="35.42" width="0.12" height="1.5"/>
	<rect x="228.619" y="32.9" width="0.12" height="1.5"/>
	<rect x="228.619" y="72.8" width="0.12" height="1.5"/>
	<rect x="228.619" y="80.78" width="0.12" height="1.5"/>
	<rect x="228.619" y="67.34" width="0.12" height="1.5"/>
	<polygon points="228.739,40.88 228.619,40.88 228.619,41.48 228.619,42.38 228.739,42.38 228.739,41.72 228.739,41.24 	"/>
	<polygon points="228.619,28.067 228.619,28.94 228.739,28.94 228.739,27.88 228.679,27.88 228.728,27.914 	"/>
	<polygon points="187.696,27.94 228.562,27.94 228.63,27.845 228.679,27.88 228.679,27.82 187.579,27.82 187.579,27.88 
		187.628,27.845 	"/>
	<rect x="187.519" y="32.64" width="0.12" height="8.84"/>
	<polygon points="187.639,28.067 187.639,28.067 187.53,27.914 187.579,27.88 187.519,27.88 187.519,32.519 187.639,32.519 	"/>
	<polygon points="225.2,32.64 208.129,56.501 208.203,56.604 225.347,32.64 	"/>
	<polygon points="187.628,85.364 187.696,85.269 187.825,85.089 208.129,56.708 208.129,56.708 208.055,56.604 208.055,56.605 
		188.799,83.522 188.799,83.64 188.714,83.64 187.819,84.891 187.639,85.143 187.53,85.295 187.579,85.329 	"/>
	<polygon points="228.562,27.94 228.433,28.12 225.286,32.519 225.433,32.519 228.438,28.318 228.619,28.067 228.728,27.914 
		228.679,27.88 228.679,27.88 228.63,27.845 	"/>
	<polygon points="227.543,83.64 227.396,83.64 228.562,85.269 228.619,85.348 228.619,85.33 228.619,85.143 228.438,84.891 	"/>
	<polygon points="227.457,83.519 208.203,56.604 208.129,56.501 191.058,32.64 190.911,32.64 208.055,56.604 208.129,56.708 
		227.31,83.519 	"/>
	<polygon points="190.825,32.519 190.972,32.519 187.825,28.12 187.696,27.94 187.628,27.845 187.579,27.88 187.579,27.88 
		187.53,27.914 187.639,28.067 	"/>
	<polygon points="268.509,25.06 268.329,25.06 268.329,24.88 268.149,24.88 268.149,32.519 268.509,32.519 	"/>
	<polygon points="268.329,37.53 268.509,37.53 268.509,32.64 268.149,32.64 268.149,37.349 268.149,37.53 	"/>
	<polygon points="273.799,25.06 273.799,32.519 274.159,32.519 274.159,24.88 273.979,24.88 273.979,25.06 	"/>
	<rect x="273.799" y="83.64" width="0.36" height="18.538"/>
	<rect x="273.799" y="32.64" width="0.36" height="50.88"/>
	<polygon points="268.509,25.06 273.799,25.06 273.979,25.06 273.979,24.88 273.979,24.7 271.239,24.7 271.239,24.92 271.119,24.92 
		271.119,24.7 268.329,24.7 268.329,24.88 268.329,25.06 	"/>
	<polygon points="269.021,36.037 268.789,35.804 268.721,35.737 268.619,35.773 268.569,36.223 268.653,36.285 268.789,36.227 
		269.002,36.135 	"/>
	<polygon points="269.021,32.737 268.789,32.505 268.721,32.437 268.619,32.473 268.569,32.923 268.652,32.985 268.789,32.926 
		269.002,32.835 	"/>
	<polygon points="269.021,29.437 268.789,29.204 268.721,29.137 268.619,29.173 268.569,29.623 268.652,29.685 268.789,29.627 
		269.002,29.535 	"/>
	<polygon points="270.375,37.203 270.332,37.29 270.219,37.515 270.639,37.515 270.526,37.29 270.482,37.203 	"/>
	<polygon points="270.375,33.903 270.175,34.303 270.236,34.389 270.636,34.339 270.681,34.25 270.481,33.9 	"/>
	<polygon points="272.219,35.773 272.169,36.223 272.253,36.285 272.603,36.135 272.622,36.037 272.321,35.737 	"/>
	<polygon points="270.636,31.039 270.681,30.95 270.481,30.6 270.375,30.603 270.175,31.003 270.236,31.089 	"/>
	<polygon points="272.219,32.473 272.169,32.923 272.252,32.985 272.603,32.835 272.622,32.737 272.321,32.437 	"/>
	<polygon points="270.175,27.703 270.236,27.789 270.636,27.739 270.681,27.65 270.504,27.34 270.481,27.3 270.375,27.303 
		270.357,27.34 	"/>
	<polygon points="272.321,29.137 272.219,29.173 272.169,29.623 272.252,29.685 272.603,29.535 272.622,29.437 	"/>
	<path d="M6.599,96.269V70.89v-0.12V50.59v-0.12V25.15h177.89h0.24v-0.24h-0.19h-172.6v0.01h-0.12v-0.01h-5.34
		c-0.066,0-0.12,0.054-0.12,0.12v77.148h0.24V96.39V96.269z"/>
	<path fill="#ffffff" d="M7.872,11.237c1.12,1.069,2.581,1.683,4.007,1.683c1.478,0,2.938-0.613,4.007-1.683
		c1.085-1.085,1.683-2.508,1.683-4.007c0-1.548-0.597-2.972-1.682-4.007c-1.037-1.086-2.459-1.683-4.008-1.683
		c-1.5,0-2.923,0.597-4.007,1.682C6.786,4.258,6.189,5.682,6.189,7.23C6.189,8.729,6.787,10.152,7.872,11.237z M10.829,4.93h2.55
		v0.55h-2.05v1.4h1.75v0.55h-1.75v2.1h-0.5V4.93z"/>
	<path d="M11.819,13.037V12.98h0.12v0.057c1.488-0.016,2.955-0.637,4.032-1.715c1.107-1.108,1.718-2.561,1.718-4.092
		c0-1.582-0.61-3.036-1.717-4.092C14.915,2.03,13.461,1.42,11.879,1.42c-1.532,0-2.985,0.61-4.091,1.716
		C6.679,4.194,6.069,5.648,6.069,7.23c0,1.531,0.61,2.984,1.719,4.093C8.915,12.399,10.381,13.02,11.819,13.037z M11.879,1.54
		c1.549,0,2.972,0.597,4.008,1.683c1.084,1.035,1.682,2.458,1.682,4.007c0,1.499-0.598,2.922-1.683,4.007
		c-1.069,1.069-2.53,1.683-4.007,1.683c-1.427,0-2.888-0.614-4.007-1.683C6.787,10.152,6.189,8.729,6.189,7.23
		c0-1.548,0.597-2.972,1.683-4.008C8.956,2.137,10.379,1.54,11.879,1.54z"/>
	<path fill="#ffffff" d="M224.623,11.238c1.135,1.084,2.576,1.682,4.056,1.682c1.426,0,2.888-0.614,4.009-1.684
		c1.051-1.102,1.631-2.525,1.631-4.006c0-1.531-0.58-2.955-1.632-4.008c-1.084-1.085-2.508-1.682-4.008-1.682
		c-1.532,0-2.973,0.597-4.057,1.682c-1.053,1.053-1.633,2.476-1.633,4.008C222.989,8.711,223.569,10.135,224.623,11.238z
		 M227.329,5.93c0.15-0.4,0.35-0.65,0.65-0.85c0.25-0.15,0.6-0.25,0.95-0.25c0.3,0,0.55,0.05,0.75,0.15c0.2,0.1,0.35,0.25,0.5,0.45
		s0.25,0.45,0.3,0.75l-0.45,0.15c-0.05-0.25-0.15-0.45-0.2-0.55c-0.1-0.15-0.25-0.25-0.4-0.3c-0.15-0.1-0.3-0.1-0.5-0.1
		c-0.25,0-0.5,0.05-0.7,0.2c-0.2,0.1-0.35,0.3-0.5,0.6c-0.1,0.3-0.15,0.6-0.15,1c0,0.65,0.1,1.1,0.4,1.4c0.25,0.3,0.55,0.45,1,0.45
		c0.2,0,0.4-0.05,0.6-0.15c0.2-0.05,0.35-0.2,0.5-0.3V7.73h-1.15V7.18h1.6v1.7c-0.25,0.25-0.5,0.4-0.75,0.55
		c-0.25,0.1-0.5,0.15-0.8,0.15c-0.35,0-0.7-0.1-1-0.25c-0.25-0.2-0.5-0.45-0.65-0.8c-0.2-0.35-0.25-0.8-0.25-1.3
		S227.129,6.28,227.329,5.93z"/>
	<path d="M228.619,13.037V12.98h0.12v0.057c1.438-0.017,2.904-0.638,4.034-1.716c1.075-1.126,1.667-2.579,1.667-4.091
		c0-1.563-0.592-3.017-1.667-4.093c-1.107-1.107-2.561-1.717-4.093-1.717c-1.564,0-3.035,0.61-4.142,1.717
		c-1.076,1.076-1.668,2.529-1.668,4.093c0,1.512,0.592,2.965,1.669,4.093C225.682,12.415,227.129,13.021,228.619,13.037z
		 M228.679,1.54c1.5,0,2.923,0.597,4.008,1.682c1.053,1.053,1.632,2.477,1.632,4.008c0,1.481-0.58,2.905-1.631,4.006
		c-1.121,1.07-2.583,1.684-4.009,1.684c-1.48,0-2.921-0.598-4.056-1.682c-1.054-1.104-1.634-2.527-1.634-4.008
		c0-1.532,0.58-2.955,1.633-4.008C225.706,2.137,227.146,1.54,228.679,1.54z"/>
	<path fill="#ffffff" d="M267.123,11.238c1.135,1.084,2.576,1.682,4.056,1.682c1.426,0,2.888-0.614,4.009-1.684
		c1.051-1.102,1.631-2.525,1.631-4.006c0-1.531-0.58-2.955-1.632-4.008c-1.084-1.085-2.508-1.682-4.008-1.682
		c-1.532,0-2.973,0.597-4.057,1.682c-1.053,1.053-1.633,2.476-1.633,4.008C265.489,8.711,266.069,10.135,267.123,11.238z
		 M269.879,4.93h0.5v1.9h1.95v-1.9h0.5v4.6h-0.5v-2.2h-1.95v2.2h-0.5V4.93z"/>
	<path d="M271.119,13.037V12.98h0.12v0.057c1.438-0.017,2.904-0.638,4.034-1.716c1.075-1.126,1.667-2.579,1.667-4.091
		c0-1.563-0.592-3.017-1.667-4.093c-1.107-1.107-2.561-1.717-4.093-1.717c-1.564,0-3.035,0.61-4.142,1.717
		c-1.076,1.076-1.668,2.529-1.668,4.093c0,1.512,0.592,2.965,1.669,4.093C268.182,12.415,269.629,13.021,271.119,13.037z
		 M271.179,1.54c1.5,0,2.923,0.597,4.008,1.682c1.053,1.053,1.632,2.477,1.632,4.008c0,1.481-0.58,2.905-1.631,4.006
		c-1.121,1.07-2.583,1.684-4.009,1.684c-1.48,0-2.921-0.598-4.056-1.682c-1.054-1.104-1.634-2.527-1.634-4.008
		c0-1.532,0.58-2.955,1.633-4.008C268.206,2.137,269.646,1.54,271.179,1.54z"/>
	<path fill="#ffffff" d="M316.886,79.521c-1.102-1.051-2.524-1.631-4.007-1.631c-1.532,0-2.955,0.58-4.008,1.632
		c-1.085,1.084-1.683,2.525-1.683,4.058c0,1.5,0.598,2.923,1.683,4.007c1.053,1.053,2.477,1.632,4.008,1.632
		c1.481,0,2.905-0.58,4.009-1.633c1.051-1.102,1.632-2.525,1.632-4.006C318.52,82.067,317.938,80.625,316.886,79.521z
		 M312.029,85.88h-0.45v-3.6c-0.1,0.1-0.25,0.25-0.45,0.35c-0.2,0.15-0.35,0.25-0.5,0.3v-0.55c0.25-0.15,0.5-0.3,0.7-0.5
		c0.2-0.25,0.3-0.45,0.4-0.65h0.3V85.88z M315.629,85.33v0.55h-2.45c-0.05-0.25,0.05-0.5,0.2-0.75c0.1-0.3,0.35-0.6,0.75-0.95
		c0.4-0.45,0.7-0.8,0.85-1c0.1-0.25,0.2-0.45,0.2-0.7c0-0.2-0.1-0.4-0.2-0.55c-0.15-0.15-0.3-0.2-0.5-0.2c-0.25,0-0.4,0.05-0.55,0.2
		c-0.15,0.2-0.2,0.4-0.2,0.7l-0.5-0.05c0.05-0.45,0.2-0.8,0.4-1c0.2-0.2,0.5-0.35,0.85-0.35c0.4,0,0.65,0.15,0.85,0.4
		c0.2,0.25,0.3,0.55,0.3,0.9c0,0.3-0.05,0.55-0.2,0.85c-0.15,0.25-0.45,0.6-0.9,1.05c-0.25,0.3-0.45,0.5-0.55,0.6
		c-0.05,0.1-0.15,0.2-0.2,0.3H315.629z"/>
	<path d="M312.879,77.77c-1.564,0-3.018,0.592-4.092,1.667c-1.094,1.093-1.699,2.541-1.715,4.082h0.057v0.12h-0.057
		c0.016,1.51,0.621,2.94,1.715,4.033c1.075,1.075,2.528,1.667,4.092,1.667c1.513,0,2.966-0.592,4.093-1.668
		c1.075-1.126,1.667-2.58,1.667-4.091c0-1.544-0.592-3.015-1.669-4.144C315.845,78.362,314.392,77.77,312.879,77.77z M312.879,89.22
		c-1.531,0-2.955-0.58-4.008-1.632c-1.085-1.084-1.683-2.508-1.683-4.007c0-1.532,0.598-2.973,1.683-4.058
		c1.053-1.053,2.476-1.632,4.008-1.632c1.482,0,2.905,0.58,4.007,1.631c1.053,1.104,1.634,2.545,1.634,4.059
		c0,1.481-0.581,2.904-1.632,4.006C315.784,88.64,314.36,89.22,312.879,89.22z"/>
	<path fill="#ffffff" d="M307.822,36.588c1.102,1.051,2.543,1.631,4.057,1.631c1.481,0,2.905-0.58,4.009-1.633
		c1.051-1.102,1.632-2.525,1.632-4.006c0-1.513-0.581-2.955-1.634-4.059c-1.102-1.051-2.524-1.631-4.007-1.631
		c-1.515,0-2.955,0.58-4.059,1.633c-1.051,1.101-1.632,2.542-1.632,4.057C306.188,34.062,306.77,35.485,307.822,36.588z
		 M313.929,32.88c-0.1-0.2-0.3-0.25-0.5-0.25c-0.1,0-0.2,0-0.35,0.05l0.1-0.5h0.05c0.25,0,0.4-0.05,0.55-0.2
		c0.15-0.15,0.2-0.35,0.2-0.55c0-0.25-0.05-0.4-0.15-0.55c-0.15-0.1-0.3-0.15-0.45-0.15c-0.2,0-0.35,0.05-0.45,0.2
		c-0.1,0.1-0.2,0.35-0.25,0.6l-0.45-0.1c0.05-0.4,0.2-0.7,0.4-0.9s0.45-0.3,0.75-0.3s0.55,0.1,0.75,0.35
		c0.25,0.2,0.35,0.5,0.35,0.85c0,0.2-0.05,0.4-0.15,0.55c-0.1,0.15-0.2,0.3-0.35,0.4c0.15,0.05,0.25,0.1,0.35,0.2
		c0.1,0.1,0.2,0.2,0.25,0.4c0.05,0.15,0.1,0.3,0.1,0.5c0,0.45-0.15,0.8-0.4,1.05s-0.55,0.4-0.9,0.4c-0.3,0-0.6-0.1-0.8-0.35
		c-0.25-0.25-0.35-0.55-0.4-0.95l0.45-0.05c0.1,0.6,0.35,0.9,0.75,0.9c0.2,0,0.4-0.1,0.55-0.3c0.15-0.15,0.25-0.4,0.25-0.65
		C314.179,33.23,314.079,33.03,313.929,32.88z M309.629,31.38c0.25-0.15,0.45-0.3,0.65-0.5c0.2-0.25,0.35-0.45,0.4-0.65h0.35v4.6
		h-0.5v-3.55c-0.1,0.1-0.25,0.25-0.4,0.35c-0.2,0.15-0.35,0.25-0.5,0.3V31.38z"/>
	<path d="M306.129,32.64h-0.054c0.016,1.491,0.6,2.921,1.663,4.034c1.125,1.075,2.596,1.667,4.141,1.667
		c1.513,0,2.966-0.592,4.093-1.668c1.075-1.126,1.667-2.58,1.667-4.091c0-1.544-0.592-3.015-1.669-4.144
		c-1.125-1.075-2.578-1.667-4.091-1.667c-1.545,0-3.016,0.592-4.143,1.668c-1.061,1.111-1.646,2.558-1.661,4.081h0.054V32.64z
		 M311.879,26.89c1.482,0,2.905,0.58,4.007,1.631c1.053,1.104,1.634,2.545,1.634,4.059c0,1.481-0.581,2.904-1.632,4.006
		c-1.104,1.053-2.527,1.633-4.009,1.633c-1.514,0-2.955-0.58-4.057-1.631c-1.053-1.103-1.634-2.526-1.634-4.008
		c0-1.514,0.581-2.956,1.632-4.057C308.924,27.47,310.364,26.89,311.879,26.89z"/>
	<rect x="38.679" y="32.519" width="1.02" height="0.12"/>
	<rect x="41.199" y="32.519" width="3.96" height="0.12"/>
	<rect x="9.279" y="32.519" width="2.54" height="0.12"/>
	<rect x="17.259" y="32.519" width="3.96" height="0.12"/>
	<rect x="30.699" y="32.519" width="1.02" height="0.12"/>
	<rect x="14.739" y="32.519" width="1.02" height="0.12"/>
	<rect x="25.239" y="32.519" width="3.96" height="0.12"/>
	<rect x="22.719" y="32.519" width="1.02" height="0.12"/>
	<rect x="11.939" y="32.519" width="1.3" height="0.12"/>
	<rect x="33.219" y="32.519" width="3.96" height="0.12"/>
	<rect x="6.759" y="32.519" width="1.02" height="0.12"/>
	<rect x="134.439" y="32.519" width="1.02" height="0.12"/>
	<rect x="176.859" y="32.519" width="3.96" height="0.12"/>
	<rect x="136.959" y="32.519" width="3.96" height="0.12"/>
	<rect x="174.339" y="32.519" width="1.02" height="0.12"/>
	<rect x="182.319" y="32.519" width="1.02" height="0.12"/>
	<rect x="118.479" y="32.519" width="1.02" height="0.12"/>
	<rect x="126.459" y="32.519" width="1.02" height="0.12"/>
	<rect x="128.979" y="32.519" width="3.96" height="0.12"/>
	<rect x="120.999" y="32.519" width="3.96" height="0.12"/>
	<rect x="160.899" y="32.519" width="3.96" height="0.12"/>
	<rect x="158.379" y="32.519" width="1.02" height="0.12"/>
	<rect x="166.359" y="32.519" width="1.02" height="0.12"/>
	<rect x="46.659" y="32.519" width="1.02" height="0.12"/>
	<rect x="150.399" y="32.519" width="1.02" height="0.12"/>
	<rect x="152.919" y="32.519" width="3.96" height="0.12"/>
	<rect x="144.939" y="32.519" width="3.96" height="0.12"/>
	<rect x="142.419" y="32.519" width="1.02" height="0.12"/>
	<rect x="168.879" y="32.519" width="3.96" height="0.12"/>
	<rect x="65.139" y="32.519" width="3.96" height="0.12"/>
	<rect x="70.599" y="32.519" width="1.02" height="0.12"/>
	<rect x="113.019" y="32.519" width="3.96" height="0.12"/>
	<rect x="62.619" y="32.519" width="1.02" height="0.12"/>
	<rect x="73.119" y="32.519" width="3.96" height="0.12"/>
	<rect x="49.179" y="32.519" width="3.96" height="0.12"/>
	<rect x="54.639" y="32.519" width="1.02" height="0.12"/>
	<rect x="57.159" y="32.519" width="3.96" height="0.12"/>
	<rect x="78.579" y="32.519" width="1.02" height="0.12"/>
	<rect x="102.519" y="32.519" width="1.02" height="0.12"/>
	<rect x="105.039" y="32.519" width="3.96" height="0.12"/>
	<rect x="97.059" y="32.519" width="3.96" height="0.12"/>
	<rect x="110.499" y="32.519" width="1.02" height="0.12"/>
	<rect x="81.099" y="32.519" width="3.96" height="0.12"/>
	<rect x="94.539" y="32.519" width="1.02" height="0.12"/>
	<rect x="86.559" y="32.519" width="1.02" height="0.12"/>
	<rect x="89.079" y="32.519" width="3.96" height="0.12"/>
	<rect x="1.299" y="32.519" width="3.96" height="0.12"/>
	<rect x="270.099" y="32.519" width="1.02" height="0.12"/>
	<rect x="200.799" y="32.519" width="3.96" height="0.12"/>
	<rect x="206.259" y="32.519" width="1.02" height="0.12"/>
	<rect x="208.779" y="32.519" width="3.96" height="0.12"/>
	<rect x="214.239" y="32.519" width="1.02" height="0.12"/>
	<rect x="192.819" y="32.519" width="3.96" height="0.12"/>
	<polygon points="224.739,32.64 225.2,32.64 225.347,32.64 228.438,32.64 228.619,32.64 228.619,32.519 228.438,32.519 
		225.433,32.519 225.286,32.519 224.739,32.519 	"/>
	<rect x="198.279" y="32.519" width="1.02" height="0.12"/>
	<rect x="248.679" y="32.519" width="3.96" height="0.12"/>
	<rect x="216.759" y="32.519" width="3.96" height="0.12"/>
	<rect x="262.119" y="32.519" width="1.02" height="0.12"/>
	<rect x="286.059" y="32.519" width="1.02" height="0.12"/>
	<rect x="256.659" y="32.519" width="3.96" height="0.12"/>
	<rect x="288.579" y="32.519" width="3.96" height="0.12"/>
	<rect x="280.599" y="32.519" width="3.96" height="0.12"/>
	<rect x="246.159" y="32.519" width="1.02" height="0.12"/>
	<rect x="294.039" y="32.519" width="1.02" height="0.12"/>
	<rect x="222.219" y="32.519" width="1.02" height="0.12"/>
	<rect x="296.559" y="32.519" width="3.96" height="0.12"/>
	<rect x="302.019" y="32.519" width="1.02" height="0.12"/>
	<rect x="254.139" y="32.519" width="1.02" height="0.12"/>
	<rect x="278.079" y="32.519" width="1.02" height="0.12"/>
	<polygon points="273.519,32.519 273.039,32.519 272.619,32.519 272.619,32.64 273.039,32.64 273.519,32.64 273.799,32.64 
		274.159,32.64 276.579,32.64 276.579,32.519 274.159,32.519 273.799,32.519 	"/>
	<polygon points="268.599,32.64 268.599,32.519 268.509,32.519 268.149,32.519 264.639,32.519 264.639,32.64 268.149,32.64 
		268.509,32.64 	"/>
	<rect x="238.179" y="32.519" width="1.02" height="0.12"/>
	<rect x="232.719" y="32.519" width="3.96" height="0.12"/>
	<rect x="240.699" y="32.519" width="3.96" height="0.12"/>
	<polygon points="230.574,32.64 231.219,32.64 231.219,32.519 230.199,32.519 230.199,32.64 230.564,32.64 	"/>
	<polygon points="187.519,32.64 187.639,32.64 187.819,32.64 188.799,32.64 188.799,32.519 187.819,32.519 187.639,32.519 
		187.519,32.519 187.339,32.519 184.969,32.519 184.839,32.519 184.839,32.64 184.969,32.64 187.339,32.64 	"/>
	<polygon points="191.058,32.64 191.319,32.64 191.319,32.519 190.972,32.519 190.825,32.519 190.825,32.519 190.299,32.519 
		190.299,32.64 190.911,32.64 190.911,32.64 	"/>
	<polygon points="306.129,32.64 306.129,32.519 306.075,32.519 304.538,32.519 304.538,32.64 306.075,32.64 	"/>
	<rect x="62.619" y="83.519" width="1.02" height="0.12"/>
	<rect x="54.639" y="83.519" width="1.02" height="0.12"/>
	<rect x="66.129" y="83.519" width="0.5" height="0.12"/>
	<rect x="65.139" y="83.519" width="0.69" height="0.12"/>
	<rect x="57.159" y="83.519" width="3.96" height="0.12"/>
	<polygon points="68.179,83.64 68.179,83.519 67.213,83.519 67.277,83.64 	"/>
	<rect x="270.099" y="83.519" width="1.02" height="0.12"/>
	<rect x="302.019" y="83.519" width="1.021" height="0.12"/>
	<rect x="296.559" y="83.519" width="3.96" height="0.12"/>
	<rect x="264.639" y="83.519" width="3.96" height="0.12"/>
	<rect x="262.119" y="83.519" width="1.02" height="0.12"/>
	<rect x="254.139" y="83.519" width="1.02" height="0.12"/>
	<rect x="256.659" y="83.519" width="3.96" height="0.12"/>
	<rect x="278.079" y="83.519" width="1.02" height="0.12"/>
	<rect x="248.679" y="83.519" width="3.96" height="0.12"/>
	<rect x="294.039" y="83.519" width="1.02" height="0.12"/>
	<rect x="1.299" y="83.519" width="3.96" height="0.12"/>
	<rect x="280.599" y="83.519" width="3.96" height="0.12"/>
	<rect x="49.179" y="83.519" width="3.96" height="0.12"/>
	<rect x="288.579" y="83.519" width="3.96" height="0.12"/>
	<rect x="286.059" y="83.519" width="1.02" height="0.12"/>
	<rect x="38.679" y="83.519" width="1.02" height="0.12"/>
	<rect x="33.219" y="83.519" width="3.96" height="0.12"/>
	<rect x="25.239" y="83.519" width="3.96" height="0.12"/>
	<rect x="30.699" y="83.519" width="1.02" height="0.12"/>
	<rect x="46.659" y="83.519" width="1.02" height="0.12"/>
	<rect x="41.199" y="83.519" width="3.96" height="0.12"/>
	<rect x="238.179" y="83.519" width="1.02" height="0.12"/>
	<rect x="246.159" y="83.519" width="1.02" height="0.12"/>
	<rect x="232.719" y="83.519" width="3.96" height="0.12"/>
	<rect x="240.699" y="83.519" width="3.96" height="0.12"/>
	<rect x="22.719" y="83.519" width="1.02" height="0.12"/>
	<rect x="17.259" y="83.519" width="3.96" height="0.12"/>
	<rect x="230.199" y="83.519" width="1.02" height="0.12"/>
	<rect x="102.519" y="83.519" width="1.02" height="0.12"/>
	<rect x="78.579" y="83.519" width="1.02" height="0.12"/>
	<rect x="120.999" y="83.519" width="3.96" height="0.12"/>
	<rect x="113.019" y="83.519" width="3.96" height="0.12"/>
	<rect x="128.979" y="83.519" width="3.96" height="0.12"/>
	<rect x="118.479" y="83.519" width="1.02" height="0.12"/>
	<rect x="142.419" y="83.519" width="1.02" height="0.12"/>
	<rect x="136.959" y="83.519" width="3.96" height="0.12"/>
	<rect x="134.439" y="83.519" width="1.02" height="0.12"/>
	<rect x="144.939" y="83.519" width="3.96" height="0.12"/>
	<rect x="89.079" y="83.519" width="3.96" height="0.12"/>
	<rect x="86.559" y="83.519" width="1.02" height="0.12"/>
	<rect x="81.099" y="83.519" width="3.96" height="0.12"/>
	<rect x="94.539" y="83.519" width="1.02" height="0.12"/>
	<rect x="110.499" y="83.519" width="1.02" height="0.12"/>
	<rect x="105.039" y="83.519" width="3.96" height="0.12"/>
	<rect x="97.059" y="83.519" width="3.96" height="0.12"/>
	<rect x="126.459" y="83.519" width="1.02" height="0.12"/>
	<rect x="182.319" y="83.519" width="1.02" height="0.12"/>
	<rect x="174.339" y="83.519" width="1.02" height="0.12"/>
	<rect x="176.859" y="83.519" width="3.96" height="0.12"/>
	<rect x="192.819" y="83.519" width="3.96" height="0.12"/>
	<polygon points="272.619,83.519 272.619,83.64 273.799,83.64 274.159,83.64 276.579,83.64 276.579,83.519 274.159,83.519 
		273.799,83.519 	"/>
	<rect x="190.299" y="83.519" width="1.02" height="0.12"/>
	<rect x="6.759" y="83.519" width="1.02" height="0.12"/>
	<rect x="200.799" y="83.519" width="3.96" height="0.12"/>
	<rect x="150.399" y="83.519" width="1.02" height="0.12"/>
	<rect x="158.379" y="83.519" width="1.02" height="0.12"/>
	<rect x="168.879" y="83.519" width="3.96" height="0.12"/>
	<rect x="152.919" y="83.519" width="3.96" height="0.12"/>
	<rect x="166.359" y="83.519" width="1.02" height="0.12"/>
	<rect x="198.279" y="83.519" width="1.02" height="0.12"/>
	<rect x="160.899" y="83.519" width="3.96" height="0.12"/>
	<path d="M77.079,83.64v-0.12h-1.735c0.018,0.04,0.038,0.078,0.049,0.12H77.079z"/>
	<path d="M74.01,83.64c0.008-0.04,0.013-0.083,0.026-0.12h-0.857v0.12H74.01z"/>
	<rect x="208.779" y="83.519" width="3.96" height="0.12"/>
	<rect x="216.759" y="83.519" width="3.96" height="0.12"/>
	<rect x="214.239" y="83.519" width="1.02" height="0.12"/>
	<path d="M69.018,83.64c0.01-0.039,0.01-0.085,0.025-0.12h-0.564v0.12H69.018z"/>
	<path d="M71.619,83.64v-0.12h-1.013c0.013,0.04,0.026,0.08,0.037,0.12H71.619z"/>
	<path d="M74.393,83.519c-0.005,0.004-0.009,0.006-0.014,0.01c-0.034,0.034-0.054,0.072-0.076,0.11h0.787
		c-0.013-0.045-0.029-0.084-0.046-0.12H74.393z"/>
	<rect x="206.259" y="83.519" width="1.02" height="0.12"/>
	<rect x="222.219" y="83.519" width="1.02" height="0.12"/>
	<polygon points="227.457,83.519 227.31,83.519 227.31,83.519 224.739,83.519 224.739,83.64 227.395,83.64 227.396,83.64 
		227.543,83.64 228.438,83.64 228.619,83.64 228.699,83.64 228.699,83.519 228.619,83.519 228.438,83.519 	"/>
	<rect x="9.279" y="83.519" width="3.96" height="0.12"/>
	<polygon points="14.839,83.519 14.739,83.519 14.739,83.64 14.839,83.64 15.319,83.64 15.759,83.64 15.759,83.519 15.319,83.519 	
		"/>
	<polygon points="187.639,83.64 187.819,83.64 188.714,83.64 188.799,83.64 188.799,83.522 188.799,83.519 187.819,83.519 
		187.639,83.519 187.519,83.519 187.339,83.519 184.969,83.519 184.839,83.519 184.839,83.64 184.969,83.64 187.339,83.64 
		187.519,83.64 	"/>
	<polygon points="307.129,83.519 307.072,83.519 304.539,83.519 304.539,83.64 307.072,83.64 307.129,83.64 	"/>
	<rect x="228.619" y="18.44" width="0.12" height="1.02"/>
	<rect x="228.619" y="26.42" width="0.12" height="1.02"/>
	<rect x="228.619" y="98.24" width="0.12" height="1.02"/>
	<rect x="228.619" y="92.78" width="0.12" height="3.96"/>
	<polygon points="228.739,24.92 228.739,24.789 228.739,20.96 228.619,20.96 228.619,24.789 228.619,24.92 	"/>
	<rect x="228.619" y="90.26" width="0.12" height="1.02"/>
	<polygon points="228.619,100.76 228.619,102.178 228.655,102.178 228.739,102.178 228.739,100.76 	"/>
	<polygon points="228.619,50.36 228.619,50.766 228.619,51.14 228.619,51.38 228.739,51.38 228.739,51.14 228.739,50.656 
		228.739,50.36 	"/>
	<polygon points="228.619,52.88 228.619,54.066 228.619,54.44 228.619,56.84 228.739,56.84 228.739,54.44 228.739,53.956 
		228.739,52.88 	"/>
	<polygon points="228.739,61.061 228.739,60.86 228.619,60.86 228.619,61.078 228.619,64.016 228.619,64.377 228.619,64.82 
		228.739,64.82 228.739,64.36 228.739,63.905 	"/>
	<rect x="228.619" y="42.38" width="0.12" height="1.02"/>
	<polygon points="228.619,44.9 228.619,47.466 228.619,47.84 228.619,48.86 228.739,48.86 228.739,47.84 228.739,47.356 
		228.739,44.9 	"/>
	<polygon points="228.619,66.32 228.619,66.579 228.619,67.34 228.739,67.34 228.739,66.82 228.739,66.339 228.739,66.32 	"/>
	<rect x="228.619" y="58.34" width="0.12" height="1.02"/>
	<rect x="228.619" y="82.28" width="0.12" height="1.02"/>
	<rect x="228.619" y="74.3" width="0.12" height="1.02"/>
	<polygon points="228.619,28.94 228.619,32.519 228.619,32.64 228.619,32.9 228.739,32.9 228.739,28.94 	"/>
	<rect x="228.619" y="36.92" width="0.12" height="3.96"/>
	<rect x="228.619" y="68.84" width="0.12" height="3.96"/>
	<rect x="228.619" y="76.82" width="0.12" height="3.96"/>
	<polygon points="228.739,84.8 228.619,84.8 228.619,85.143 228.619,85.33 228.619,85.348 228.619,85.39 228.619,85.57 
		228.619,87.166 228.619,87.528 228.619,87.939 228.619,88.76 228.739,88.76 228.739,87.964 228.739,87.51 228.739,87.055 
		228.739,85.545 228.739,85.33 	"/>
	<rect x="228.619" y="34.4" width="0.12" height="1.02"/>
	<polygon points="228.619,12.98 228.619,13.037 228.619,16.94 228.739,16.94 228.739,13.037 228.739,12.98 	"/>
	<rect x="11.819" y="52.88" width="0.12" height="3.96"/>
	<rect x="11.819" y="58.34" width="0.12" height="1.02"/>
	<rect x="11.819" y="60.86" width="0.12" height="3.96"/>
	<polygon points="11.819,32.9 11.939,32.9 11.939,32.64 11.939,32.519 11.939,28.94 11.819,28.94 11.819,32.519 11.819,32.64 	"/>
	<rect x="11.819" y="18.44" width="0.12" height="1.02"/>
	<rect x="11.819" y="34.4" width="0.12" height="1.02"/>
	<polygon points="11.819,68.84 11.819,70.769 11.819,70.89 11.819,72.8 11.939,72.8 11.939,70.89 11.939,70.769 11.939,68.84 	"/>
	<rect x="11.819" y="66.32" width="0.12" height="1.02"/>
	<rect x="11.819" y="100.76" width="0.12" height="1.418"/>
	<rect x="11.819" y="98.24" width="0.12" height="1.02"/>
	<rect x="11.819" y="26.42" width="0.12" height="1.02"/>
	<rect x="11.819" y="90.26" width="0.12" height="1.02"/>
	<polygon points="11.939,92.78 11.819,92.78 11.819,96.269 11.819,96.39 11.819,96.74 11.939,96.74 11.939,96.39 11.939,96.269 	"/>
	<polygon points="11.819,51.38 11.939,51.38 11.939,50.59 11.939,50.47 11.939,50.36 11.819,50.36 11.819,50.47 11.819,50.59 	"/>
	<rect x="11.819" y="74.3" width="0.12" height="1.02"/>
	<rect x="11.819" y="82.28" width="0.12" height="1.02"/>
	<rect x="11.819" y="42.38" width="0.12" height="1.02"/>
	<polygon points="11.939,47.19 11.939,44.9 11.819,44.9 11.819,47.19 11.819,47.67 11.819,48.86 11.939,48.86 11.939,47.67 	"/>
	<polygon points="11.819,37.77 11.819,40.88 11.939,40.88 11.939,37.77 11.939,37.29 11.939,36.92 11.819,36.92 11.819,37.29 	"/>
	<polygon points="11.819,80.62 11.819,80.78 11.939,80.78 11.939,80.62 11.939,80.14 11.939,76.82 11.819,76.82 11.819,80.14 	"/>
	<polygon points="11.939,86.49 11.939,84.8 11.819,84.8 11.819,86.49 11.819,86.97 11.819,88.76 11.939,88.76 11.939,86.97 	"/>
	<polygon points="11.939,24.92 11.939,24.91 11.939,20.96 11.819,20.96 11.819,24.91 11.819,24.92 	"/>
	<polygon points="11.819,12.98 11.819,13.037 11.819,16.94 11.939,16.94 11.939,13.037 11.939,12.98 	"/>
	<polygon points="271.119,32.519 271.119,32.64 271.119,32.9 271.239,32.9 271.239,28.94 271.119,28.94 	"/>
	<rect x="271.119" y="34.4" width="0.12" height="1.02"/>
	<rect x="271.119" y="92.78" width="0.12" height="3.96"/>
	<rect x="271.119" y="68.84" width="0.12" height="3.96"/>
	<rect x="271.119" y="18.44" width="0.12" height="1.02"/>
	<rect x="271.119" y="76.82" width="0.12" height="3.96"/>
	<rect x="271.119" y="74.3" width="0.12" height="1.02"/>
	<rect x="271.119" y="42.38" width="0.12" height="1.02"/>
	<rect x="271.119" y="60.86" width="0.12" height="3.96"/>
	<rect x="271.119" y="82.28" width="0.12" height="1.02"/>
	<rect x="271.119" y="58.34" width="0.12" height="1.02"/>
	<rect x="271.119" y="50.36" width="0.12" height="1.02"/>
	<rect x="271.119" y="52.88" width="0.12" height="3.96"/>
	<rect x="271.119" y="44.9" width="0.12" height="3.96"/>
	<rect x="271.119" y="90.26" width="0.12" height="1.02"/>
	<rect x="271.119" y="100.76" width="0.12" height="1.418"/>
	<rect x="271.119" y="98.24" width="0.12" height="1.02"/>
	<rect x="271.119" y="66.32" width="0.12" height="1.02"/>
	<rect x="271.119" y="84.8" width="0.12" height="3.96"/>
	<polygon points="271.239,27.44 271.239,27.34 271.239,26.42 271.119,26.42 271.119,27.34 271.119,27.44 	"/>
	<polygon points="271.239,37.29 271.239,36.92 271.119,36.92 271.119,37.29 271.119,37.77 271.119,40.88 271.239,40.88 
		271.239,37.77 	"/>
	<polygon points="271.239,24.92 271.239,24.7 271.239,20.96 271.119,20.96 271.119,24.7 271.119,24.92 	"/>
	<polygon points="271.119,12.98 271.119,13.037 271.119,16.94 271.239,16.94 271.239,13.037 271.239,12.98 	"/>
	<polygon points="11.329,7.43 13.079,7.43 13.079,6.88 11.329,6.88 11.329,5.48 13.379,5.48 13.379,4.93 10.829,4.93 10.829,9.53 
		11.329,9.53 	"/>
	<path d="M227.979,9.33c0.3,0.15,0.65,0.25,1,0.25c0.3,0,0.55-0.05,0.8-0.15c0.25-0.15,0.5-0.3,0.75-0.55v-1.7h-1.6v0.55h1.15v0.85
		c-0.15,0.1-0.3,0.25-0.5,0.3c-0.2,0.1-0.4,0.15-0.6,0.15c-0.45,0-0.75-0.15-1-0.45c-0.3-0.3-0.4-0.75-0.4-1.4
		c0-0.4,0.05-0.7,0.15-1c0.15-0.3,0.3-0.5,0.5-0.6c0.2-0.15,0.45-0.2,0.7-0.2c0.2,0,0.35,0,0.5,0.1c0.15,0.05,0.3,0.15,0.4,0.3
		c0.05,0.1,0.15,0.3,0.2,0.55l0.45-0.15c-0.05-0.3-0.15-0.55-0.3-0.75s-0.3-0.35-0.5-0.45c-0.2-0.1-0.45-0.15-0.75-0.15
		c-0.35,0-0.7,0.1-0.95,0.25c-0.3,0.2-0.5,0.45-0.65,0.85c-0.2,0.35-0.25,0.8-0.25,1.3s0.05,0.95,0.25,1.3
		C227.479,8.88,227.729,9.13,227.979,9.33z"/>
	<polygon points="270.379,7.33 272.329,7.33 272.329,9.53 272.829,9.53 272.829,4.93 272.329,4.93 272.329,6.83 270.379,6.83 
		270.379,4.93 269.879,4.93 269.879,9.53 270.379,9.53 	"/>
	<path d="M311.329,81.88c-0.2,0.2-0.45,0.35-0.7,0.5v0.55c0.15-0.05,0.3-0.15,0.5-0.3c0.2-0.1,0.35-0.25,0.45-0.35v3.6h0.45v-4.65
		h-0.3C311.629,81.43,311.529,81.63,311.329,81.88z"/>
	<path d="M314.529,84.43c0.45-0.45,0.75-0.8,0.9-1.05c0.15-0.3,0.2-0.55,0.2-0.85c0-0.35-0.1-0.65-0.3-0.9
		c-0.2-0.25-0.45-0.4-0.85-0.4c-0.35,0-0.65,0.15-0.85,0.35c-0.2,0.2-0.35,0.55-0.4,1l0.5,0.05c0-0.3,0.05-0.5,0.2-0.7
		c0.15-0.15,0.3-0.2,0.55-0.2c0.2,0,0.35,0.05,0.5,0.2c0.1,0.15,0.2,0.35,0.2,0.55c0,0.25-0.1,0.45-0.2,0.7
		c-0.15,0.2-0.45,0.55-0.85,1c-0.4,0.35-0.65,0.65-0.75,0.95c-0.15,0.25-0.25,0.5-0.2,0.75h2.45v-0.55h-1.85
		c0.05-0.1,0.15-0.2,0.2-0.3C314.079,84.93,314.279,84.73,314.529,84.43z"/>
	<path d="M310.529,31.28v3.55h0.5v-4.6h-0.35c-0.05,0.2-0.2,0.4-0.4,0.65c-0.2,0.2-0.4,0.35-0.65,0.5v0.55
		c0.15-0.05,0.3-0.15,0.5-0.3C310.279,31.53,310.429,31.38,310.529,31.28z"/>
	<path d="M313.379,34.48c-0.4,0-0.65-0.3-0.75-0.9l-0.45,0.05c0.05,0.4,0.15,0.7,0.4,0.95c0.2,0.25,0.5,0.35,0.8,0.35
		c0.35,0,0.65-0.15,0.9-0.4s0.4-0.6,0.4-1.05c0-0.2-0.05-0.35-0.1-0.5c-0.05-0.2-0.15-0.3-0.25-0.4c-0.1-0.1-0.2-0.15-0.35-0.2
		c0.15-0.1,0.25-0.25,0.35-0.4c0.1-0.15,0.15-0.35,0.15-0.55c0-0.35-0.1-0.65-0.35-0.85c-0.2-0.25-0.45-0.35-0.75-0.35
		s-0.55,0.1-0.75,0.3s-0.35,0.5-0.4,0.9l0.45,0.1c0.05-0.25,0.15-0.5,0.25-0.6c0.1-0.15,0.25-0.2,0.45-0.2
		c0.15,0,0.3,0.05,0.45,0.15c0.1,0.15,0.15,0.3,0.15,0.55c0,0.2-0.05,0.4-0.2,0.55c-0.15,0.15-0.3,0.2-0.55,0.2h-0.05l-0.1,0.5
		c0.15-0.05,0.25-0.05,0.35-0.05c0.2,0,0.4,0.05,0.5,0.25c0.15,0.15,0.25,0.35,0.25,0.65c0,0.25-0.1,0.5-0.25,0.65
		C313.779,34.38,313.579,34.48,313.379,34.48z"/>
	<rect x="65.829" y="59.08" width="0.3" height="2.849"/>
	<polygon points="66.929,59.68 68.179,61.93 68.479,61.93 68.479,59.08 68.179,59.08 68.179,61.28 66.979,59.08 66.629,59.08 
		66.629,61.93 66.929,61.93 	"/>
	<path d="M69.879,61.63c-0.15,0-0.25-0.05-0.35-0.1c-0.1-0.05-0.2-0.1-0.25-0.2c-0.05-0.1-0.05-0.2-0.1-0.35h-0.3
		c0.05,0.15,0.05,0.3,0.1,0.4c0.05,0.15,0.1,0.25,0.2,0.3c0.15,0.2,0.4,0.25,0.7,0.25c0.15,0,0.3,0,0.45-0.1
		c0.15-0.05,0.25-0.15,0.3-0.3c0.1-0.1,0.1-0.25,0.1-0.45c0-0.15,0-0.3-0.1-0.4c-0.05-0.1-0.15-0.2-0.3-0.3
		c-0.1-0.05-0.25-0.1-0.5-0.15c-0.2-0.05-0.4-0.15-0.45-0.2c-0.05-0.05-0.1-0.15-0.1-0.25c0-0.15,0.05-0.25,0.15-0.3
		c0.1-0.1,0.2-0.15,0.4-0.15c0.15,0,0.3,0.05,0.4,0.15c0.1,0.1,0.15,0.25,0.15,0.4h0.3c0-0.2-0.05-0.35-0.1-0.45
		c-0.1-0.15-0.2-0.25-0.3-0.3c-0.15-0.05-0.3-0.1-0.45-0.1c-0.25,0-0.45,0.05-0.6,0.2c-0.15,0.15-0.25,0.35-0.25,0.55
		c0,0.15,0.05,0.25,0.1,0.35s0.1,0.2,0.2,0.25c0.1,0.1,0.25,0.15,0.45,0.2c0.25,0.1,0.45,0.15,0.5,0.2c0.1,0,0.15,0.05,0.15,0.15
		c0.05,0.05,0.1,0.1,0.1,0.2c0,0.15-0.1,0.25-0.2,0.35C70.179,61.58,70.079,61.63,69.879,61.63z"/>
	<rect x="71.029" y="60.68" width="0.85" height="0.35"/>
	<path d="M72.929,59.68v2.25h0.25v-2.85h-0.15c-0.05,0.1-0.15,0.25-0.25,0.35c-0.15,0.15-0.3,0.25-0.45,0.35v0.35
		c0.1-0.05,0.2-0.1,0.3-0.2C72.779,59.83,72.829,59.78,72.929,59.68z"/>
	<path d="M74.679,61.93c0.25,0,0.45-0.1,0.6-0.35c0.1-0.25,0.15-0.6,0.15-1.05c0-0.55-0.05-0.95-0.2-1.15
		c-0.15-0.2-0.3-0.3-0.55-0.3s-0.4,0.1-0.55,0.35c-0.15,0.25-0.2,0.6-0.2,1.1s0.1,0.9,0.2,1.1
		C74.279,61.83,74.479,61.93,74.679,61.93z M74.379,59.58c0.05-0.15,0.15-0.25,0.3-0.25s0.25,0.1,0.35,0.25
		c0.1,0.15,0.15,0.45,0.15,0.95c0,0.45-0.05,0.75-0.15,0.9c-0.1,0.15-0.2,0.25-0.35,0.25c-0.1,0-0.25-0.1-0.3-0.25
		c-0.1-0.15-0.15-0.45-0.15-0.9C74.229,60.03,74.279,59.73,74.379,59.58z"/>
	<rect x="248.329" y="59.08" width="0.3" height="2.849"/>
	<polygon points="249.479,59.68 250.679,61.93 250.979,61.93 250.979,59.08 250.729,59.08 250.729,61.28 249.479,59.08 
		249.179,59.08 249.179,61.93 249.479,61.93 	"/>
	<path d="M252.379,61.63c-0.1,0-0.25-0.05-0.35-0.1c-0.1-0.05-0.15-0.1-0.2-0.2c-0.05-0.1-0.1-0.2-0.1-0.35h-0.3
		c0,0.15,0,0.3,0.05,0.4c0.05,0.15,0.1,0.25,0.2,0.3c0.2,0.2,0.4,0.25,0.7,0.25c0.2,0,0.35,0,0.45-0.1c0.15-0.05,0.25-0.15,0.35-0.3
		c0.05-0.1,0.1-0.25,0.1-0.45c0-0.15-0.05-0.3-0.1-0.4c-0.1-0.1-0.2-0.2-0.35-0.3c-0.1-0.05-0.25-0.1-0.45-0.15
		c-0.25-0.05-0.4-0.15-0.45-0.2c-0.1-0.05-0.15-0.15-0.15-0.25c0-0.15,0.05-0.25,0.15-0.3c0.1-0.1,0.25-0.15,0.4-0.15
		c0.2,0,0.3,0.05,0.4,0.15c0.1,0.1,0.15,0.25,0.2,0.4h0.25c0-0.2,0-0.35-0.1-0.45c-0.05-0.15-0.15-0.25-0.3-0.3
		c-0.15-0.05-0.3-0.1-0.45-0.1c-0.25,0-0.45,0.05-0.6,0.2c-0.15,0.15-0.2,0.35-0.2,0.55c0,0.15,0,0.25,0.05,0.35
		c0.05,0.1,0.15,0.2,0.2,0.25c0.1,0.1,0.25,0.15,0.5,0.2c0.25,0.1,0.4,0.15,0.45,0.2c0.1,0,0.15,0.05,0.2,0.15
		c0,0.05,0.05,0.1,0.05,0.2c0,0.15-0.05,0.25-0.15,0.35C252.729,61.58,252.579,61.63,252.379,61.63z"/>
	<rect x="253.529" y="60.68" width="0.9" height="0.35"/>
	<path d="M255.429,59.68v2.25h0.3v-2.85h-0.2c-0.05,0.1-0.15,0.25-0.25,0.35c-0.1,0.15-0.25,0.25-0.4,0.35v0.35
		c0.1-0.05,0.2-0.1,0.3-0.2C255.279,59.83,255.379,59.78,255.429,59.68z"/>
	<path d="M257.229,59.68v2.25h0.3v-2.85h-0.2c-0.05,0.1-0.1,0.25-0.25,0.35c-0.1,0.15-0.25,0.25-0.4,0.35v0.35
		c0.1-0.05,0.2-0.1,0.3-0.2C257.079,59.83,257.179,59.78,257.229,59.68z"/>
	<rect x="65.829" y="38.48" width="0.3" height="2.8"/>
	<polygon points="68.179,40.68 66.979,38.48 66.629,38.48 66.629,41.28 66.929,41.28 66.929,39.08 68.179,41.28 68.479,41.28 
		68.479,38.48 68.179,38.48 	"/>
	<path d="M69.079,39.53c0.05,0.1,0.1,0.2,0.2,0.25c0.1,0.05,0.25,0.15,0.45,0.2c0.25,0.1,0.45,0.15,0.5,0.2
		c0.1,0,0.15,0.05,0.15,0.15c0.05,0.05,0.1,0.1,0.1,0.2c0,0.15-0.1,0.25-0.2,0.35c-0.1,0.1-0.2,0.15-0.4,0.15
		c-0.15,0-0.25-0.05-0.35-0.1c-0.1-0.05-0.2-0.1-0.25-0.2c-0.05-0.1-0.05-0.2-0.1-0.35h-0.3c0.05,0.15,0.05,0.3,0.1,0.4
		c0.05,0.1,0.1,0.2,0.2,0.3c0.15,0.2,0.4,0.25,0.7,0.25c0.15,0,0.3,0,0.45-0.1c0.15-0.05,0.25-0.15,0.3-0.3
		c0.1-0.1,0.1-0.25,0.1-0.45c0-0.15,0-0.3-0.1-0.4c-0.05-0.1-0.15-0.2-0.3-0.3c-0.1-0.05-0.25-0.1-0.5-0.15
		c-0.2-0.05-0.4-0.15-0.45-0.2c-0.05-0.05-0.1-0.15-0.1-0.25c0-0.15,0.05-0.25,0.15-0.3c0.1-0.1,0.2-0.15,0.4-0.15
		c0.15,0,0.3,0.05,0.4,0.15c0.1,0.1,0.15,0.2,0.15,0.4h0.3c0-0.2-0.05-0.35-0.1-0.45c-0.1-0.15-0.2-0.25-0.3-0.3
		c-0.15-0.1-0.3-0.1-0.45-0.1c-0.25,0-0.45,0.05-0.6,0.2c-0.15,0.15-0.25,0.35-0.25,0.55C68.979,39.33,69.029,39.43,69.079,39.53z"
		/>
	<rect x="71.029" y="40.08" width="0.85" height="0.35"/>
	<path d="M72.929,39.08v2.2h0.25v-2.85h-0.15c-0.05,0.15-0.15,0.3-0.25,0.4c-0.15,0.15-0.3,0.25-0.45,0.35v0.3
		c0.1,0,0.2-0.1,0.3-0.15C72.779,39.23,72.829,39.18,72.929,39.08z"/>
	<path d="M74.729,40.43c0.3-0.3,0.45-0.5,0.55-0.65c0.1-0.2,0.15-0.35,0.15-0.55c0-0.2-0.05-0.4-0.2-0.55
		c-0.1-0.15-0.3-0.25-0.5-0.25c-0.25,0-0.4,0.1-0.55,0.25c-0.15,0.1-0.2,0.3-0.2,0.6l0.25,0.05c0-0.2,0.05-0.35,0.15-0.45
		c0.1-0.1,0.2-0.15,0.3-0.15c0.15,0,0.25,0.05,0.35,0.15c0.05,0.1,0.1,0.2,0.1,0.35c0,0.15-0.05,0.25-0.1,0.4
		c-0.1,0.15-0.25,0.35-0.55,0.6c-0.2,0.25-0.35,0.45-0.45,0.6c-0.1,0.2-0.15,0.35-0.15,0.45h1.55v-0.3h-1.15
		c0.05-0.1,0.1-0.15,0.15-0.2C74.479,40.73,74.579,40.58,74.729,40.43z"/>
	<polygon points="65.829,85.93 66.129,85.93 66.129,83.64 66.129,83.519 66.129,83.08 65.829,83.08 65.829,83.519 65.829,83.64 	"/>
	<polygon points="66.629,85.93 66.929,85.93 66.929,83.68 68.179,85.93 68.479,85.93 68.479,83.64 68.479,83.519 68.479,83.08 
		68.179,83.08 68.179,83.519 68.179,83.64 68.179,85.33 67.277,83.64 67.213,83.519 66.979,83.08 66.629,83.08 66.629,83.519 
		66.629,83.64 	"/>
	<path d="M68.979,83.83c0,0.1,0.05,0.25,0.1,0.35c0.05,0.1,0.1,0.15,0.2,0.25c0.1,0.05,0.25,0.1,0.45,0.2
		c0.25,0.05,0.45,0.1,0.5,0.15c0.1,0.05,0.15,0.1,0.15,0.15c0.05,0.05,0.1,0.15,0.1,0.2c0,0.15-0.1,0.3-0.2,0.35
		c-0.1,0.1-0.2,0.15-0.4,0.15c-0.15,0-0.25,0-0.35-0.1c-0.1-0.05-0.2-0.1-0.25-0.2c-0.05-0.05-0.05-0.2-0.1-0.35l-0.3,0.05
		c0.05,0.15,0.05,0.25,0.1,0.4c0.05,0.1,0.1,0.2,0.2,0.3c0.15,0.15,0.4,0.25,0.7,0.25c0.15,0,0.3-0.05,0.45-0.1
		c0.15-0.1,0.25-0.2,0.3-0.3c0.1-0.15,0.1-0.3,0.1-0.45c0-0.15,0-0.3-0.1-0.45c-0.05-0.1-0.15-0.2-0.3-0.25
		c-0.1-0.05-0.25-0.1-0.5-0.2c-0.2-0.05-0.4-0.1-0.45-0.15c-0.05-0.1-0.1-0.2-0.1-0.3s0.05-0.2,0.15-0.3c0.1-0.05,0.2-0.1,0.4-0.1
		c0.15,0,0.3,0.05,0.4,0.1c0.1,0.1,0.15,0.25,0.15,0.45l0.3-0.05c0-0.08-0.015-0.16-0.036-0.24c-0.01-0.04-0.024-0.08-0.037-0.12
		c-0.01-0.03-0.017-0.06-0.027-0.09c-0.1-0.1-0.2-0.2-0.3-0.3c-0.15-0.05-0.3-0.1-0.45-0.1c-0.25,0-0.45,0.1-0.6,0.25
		c-0.08,0.053-0.142,0.138-0.186,0.24c-0.015,0.035-0.015,0.081-0.025,0.12C69.003,83.702,68.979,83.758,68.979,83.83z"/>
	<rect x="71.029" y="84.73" width="0.85" height="0.35"/>
	<path d="M72.929,83.73v2.2h0.25v-2.29v-0.12v-0.44h-0.15c-0.05,0.1-0.15,0.25-0.25,0.4c-0.15,0.1-0.3,0.2-0.45,0.3v0.35
		c0.1-0.05,0.2-0.1,0.3-0.2C72.779,83.88,72.829,83.78,72.929,83.73z"/>
	<path d="M73.979,83.88l0.25,0.05c0-0.132,0.03-0.216,0.074-0.29c0.022-0.038,0.042-0.076,0.076-0.11
		c0.005-0.005,0.009-0.006,0.014-0.01c0.095-0.091,0.191-0.14,0.286-0.14c0.15,0,0.25,0.05,0.35,0.1
		c0.005,0.011,0.01,0.028,0.015,0.04c0.016,0.037,0.032,0.076,0.046,0.12c0.023,0.075,0.039,0.156,0.039,0.24
		c0,0.1-0.05,0.25-0.1,0.4c-0.1,0.15-0.25,0.35-0.55,0.6c-0.2,0.2-0.35,0.4-0.45,0.6c-0.1,0.15-0.15,0.3-0.15,0.45h1.55v-0.35h-1.15
		c0.05-0.05,0.1-0.1,0.15-0.2c0.05-0.05,0.15-0.15,0.3-0.35c0.3-0.25,0.45-0.5,0.55-0.65c0.1-0.15,0.15-0.35,0.15-0.5
		c0-0.082-0.016-0.162-0.036-0.24c-0.011-0.042-0.03-0.08-0.049-0.12c-0.031-0.067-0.06-0.134-0.116-0.19
		c-0.1-0.15-0.3-0.25-0.5-0.25c-0.25,0-0.4,0.05-0.55,0.2c-0.068,0.068-0.111,0.15-0.143,0.24c-0.013,0.037-0.018,0.08-0.026,0.12
		C73.995,83.716,73.979,83.791,73.979,83.88z"/>
	<rect x="6.829" y="59.08" width="0.301" height="2.849"/>
	<polygon points="9.179,61.28 7.979,59.08 7.679,59.08 7.679,61.93 7.979,61.93 7.979,59.68 9.179,61.93 9.479,61.93 9.479,59.08 
		9.179,59.08 	"/>
	<path d="M11.679,60.68c-0.1-0.1-0.2-0.2-0.35-0.3c-0.1-0.05-0.25-0.1-0.45-0.15c-0.25-0.05-0.4-0.15-0.5-0.2
		c-0.05-0.05-0.1-0.15-0.1-0.25c0-0.15,0.05-0.25,0.15-0.3c0.1-0.1,0.25-0.15,0.4-0.15c0.2,0,0.3,0.05,0.4,0.15
		c0.1,0.1,0.15,0.25,0.15,0.4h0.3c0-0.2-0.05-0.35-0.1-0.45c-0.05-0.15-0.15-0.25-0.3-0.3c-0.15-0.05-0.3-0.1-0.45-0.1
		c-0.25,0-0.45,0.05-0.6,0.2c-0.15,0.15-0.2,0.35-0.2,0.55c0,0.15,0,0.25,0.05,0.35c0.05,0.1,0.15,0.2,0.2,0.25
		c0.1,0.1,0.25,0.15,0.5,0.2c0.25,0.1,0.4,0.15,0.45,0.2c0.1,0,0.15,0.05,0.2,0.15c0,0.05,0.05,0.1,0.05,0.2
		c0,0.15-0.05,0.25-0.15,0.35c-0.1,0.1-0.25,0.15-0.45,0.15c-0.1,0-0.25-0.05-0.35-0.1c-0.1-0.05-0.15-0.1-0.2-0.2
		c-0.05-0.1-0.1-0.2-0.1-0.35h-0.3c0,0.15,0,0.3,0.05,0.4c0.05,0.15,0.1,0.25,0.2,0.3c0.15,0.2,0.4,0.25,0.7,0.25
		c0.15,0,0.35,0,0.45-0.1c0.15-0.05,0.25-0.15,0.3-0.3c0.1-0.1,0.15-0.25,0.15-0.45C11.779,60.93,11.729,60.78,11.679,60.68z"/>
	<rect x="12.029" y="60.68" width="0.9" height="0.35"/>
	<path d="M13.929,59.68v2.25h0.3v-2.85h-0.2c-0.05,0.1-0.15,0.25-0.25,0.35c-0.1,0.15-0.25,0.25-0.4,0.35v0.35
		c0.05-0.05,0.2-0.1,0.3-0.2C13.779,59.83,13.879,59.78,13.929,59.68z"/>
	<path d="M15.729,61.93c0.25,0,0.4-0.1,0.55-0.35c0.1-0.25,0.2-0.6,0.2-1.05c0-0.55-0.1-0.95-0.25-1.15c-0.1-0.2-0.3-0.3-0.5-0.3
		c-0.25,0-0.45,0.1-0.6,0.35c-0.1,0.25-0.2,0.6-0.2,1.1s0.1,0.9,0.25,1.1C15.279,61.83,15.479,61.93,15.729,61.93z M15.379,59.58
		c0.1-0.15,0.2-0.25,0.3-0.25c0.15,0,0.25,0.1,0.35,0.25c0.1,0.15,0.15,0.45,0.15,0.95c0,0.45-0.05,0.75-0.15,0.9
		c-0.1,0.15-0.2,0.25-0.3,0.25c-0.15,0-0.25-0.1-0.35-0.25c-0.1-0.15-0.15-0.45-0.15-0.9C15.229,60.03,15.279,59.73,15.379,59.58z"
		/>
</g>
</svg>
