<?xml version="1.0" encoding="utf-8"?>
<!-- Generator: Adobe Illustrator 18.1.1, SVG Export Plug-In . SVG Version: 6.00 Build 0)  -->
<svg version="1.1" id="Layer_1" xmlns="http://www.w3.org/2000/svg" xmlns:xlink="http://www.w3.org/1999/xlink" x="0px" y="0px"
	 viewBox="0 0 320 142.61" enable-background="new 0 0 320 142.61" xml:space="preserve">
<g>
	<path fill="#FFFFFF" d="M282.109,11.818c0.15,0,0.25-0.05,0.4-0.2c0.1-0.15,0.15-0.35,0.15-0.6s-0.05-0.45-0.15-0.6
		c-0.1-0.15-0.25-0.2-0.4-0.2c-0.15,0-0.3,0.05-0.4,0.2c-0.15,0.15-0.2,0.35-0.2,0.55c0,0.3,0.05,0.5,0.2,0.65
		C281.809,11.768,281.959,11.818,282.109,11.818z"/>
	<polygon fill="#FFFFFF" points="23.53,6.758 22.93,6.144 23.188,5.892 24.034,6.758 24.049,6.758 24.049,0 4.639,0 4.639,6.758 	
		"/>
	<path fill="#FFFFFF" d="M76.709,49.918h0.18v78.99h12.105l-0.613-0.613l0.255-0.255l0.868,0.868h0.045V50.141l-0.158-0.162h-2.681
		v-0.12h2.564l-0.893-0.914l0.258-0.252l1.139,1.166h2.732v0.12h-2.614l0.893,0.914l-0.258,0.252l-0.861-0.881v78.645h20.39
		l-0.625-0.611l0.252-0.258l0.889,0.869h0.024V27.436l-0.162-0.158h-2.678v-0.12h2.555l-0.881-0.861l0.252-0.258l1.145,1.119h2.729
		v0.12h-2.607l0.932,0.911l-0.252,0.258l-0.914-0.893v101.355h73.24l-0.625-0.611l0.252-0.258l0.889,0.869h0.025v-7.972
		l-0.111-0.108h-2.729v-0.12h2.607l-0.932-0.911l0.252-0.258l0.914,0.893v-1.865V50.113l-0.135-0.135h-2.705v-0.12h2.585
		l-0.912-0.913l0.255-0.255l1.167,1.167h2.705v0.12h-2.585l0.912,0.913l-0.255,0.255l-0.912-0.912v68.335v1.982l0.162,0.158h2.678
		v0.12h-2.555l0.881,0.861l-0.252,0.258l-0.914-0.893v7.854h22.26v-87.48h-61.925l-0.135,0.135v2.705h-0.12v-2.585l-0.913,0.912
		l-0.255-0.255l1.167-1.167v-2.705h0.12v2.585l0.913-0.912l0.255,0.255l-0.912,0.912h61.805v-26.03H4.639v34.46h72.07V49.918z
		 M182.659,85.868c-0.1-0.1-0.3-0.15-0.5-0.15s-0.35,0.05-0.5,0.1c-0.1,0.1-0.15,0.25-0.15,0.4c0,0.1,0,0.15,0.05,0.25
		c0.05,0.05,0.15,0.1,0.25,0.15l-0.05,0.3l-1.5-0.25v-1.15h0.35v0.95l0.75,0.1c-0.1-0.15-0.15-0.3-0.15-0.45
		c0-0.2,0.05-0.35,0.25-0.5c0.15-0.15,0.4-0.25,0.65-0.25c0.3,0,0.55,0.1,0.75,0.25c0.2,0.15,0.3,0.35,0.3,0.6
		c0,0.2-0.05,0.35-0.2,0.5c-0.15,0.15-0.35,0.25-0.6,0.25l-0.05-0.3c0.2-0.05,0.35-0.1,0.45-0.15c0.05-0.1,0.1-0.2,0.1-0.3
		C182.859,86.068,182.809,85.968,182.659,85.868z M180.509,81.968c0.25-0.2,0.65-0.25,1.15-0.25s0.9,0.05,1.15,0.2
		c0.25,0.1,0.35,0.3,0.35,0.55s-0.1,0.45-0.35,0.6c-0.2,0.1-0.6,0.2-1.15,0.2c-0.45,0-0.85-0.05-1.1-0.2
		c-0.25-0.15-0.35-0.35-0.35-0.6C180.209,82.268,180.309,82.068,180.509,81.968z M180.509,83.818c0.25-0.2,0.65-0.25,1.15-0.25
		s0.9,0.05,1.15,0.2c0.25,0.1,0.35,0.3,0.35,0.55s-0.1,0.45-0.35,0.6c-0.2,0.1-0.6,0.2-1.15,0.2c-0.45,0-0.85-0.05-1.1-0.2
		s-0.35-0.35-0.35-0.6C180.209,84.118,180.309,83.918,180.509,83.818z M180.459,87.468c0.15-0.15,0.35-0.2,0.55-0.2
		c0.2,0,0.35,0.05,0.55,0.15c0.15,0.1,0.35,0.3,0.65,0.55c0.2,0.2,0.3,0.3,0.35,0.35c0.1,0.05,0.15,0.1,0.2,0.1v-1.15h0.35v1.6
		c-0.15,0-0.3-0.05-0.45-0.15c-0.2-0.1-0.4-0.25-0.6-0.5c-0.3-0.25-0.5-0.45-0.65-0.5c-0.15-0.1-0.3-0.15-0.4-0.15
		c-0.15,0-0.3,0.05-0.4,0.15c-0.05,0.1-0.1,0.2-0.1,0.3c0,0.15,0.05,0.25,0.15,0.35c0.1,0.1,0.25,0.1,0.4,0.1v0.3
		c-0.3,0-0.5-0.1-0.65-0.2c-0.15-0.15-0.2-0.35-0.2-0.55C180.209,87.768,180.259,87.568,180.459,87.468z M180.509,122.568
		c0.25-0.15,0.65-0.25,1.15-0.25s0.9,0.05,1.15,0.2c0.25,0.15,0.35,0.3,0.35,0.6c0,0.2-0.1,0.4-0.35,0.55
		c-0.2,0.15-0.6,0.2-1.15,0.2c-0.45,0-0.85-0.05-1.1-0.2c-0.25-0.1-0.35-0.3-0.35-0.55S180.309,122.668,180.509,122.568z
		 M180.509,124.418c0.25-0.15,0.65-0.25,1.15-0.25s0.9,0.05,1.15,0.2c0.25,0.15,0.35,0.35,0.35,0.6c0,0.2-0.1,0.4-0.35,0.55
		c-0.2,0.15-0.6,0.2-1.15,0.2c-0.45,0-0.85-0.05-1.1-0.2c-0.25-0.1-0.35-0.3-0.35-0.55S180.309,124.518,180.509,124.418z
		 M180.409,126.318c0.15-0.1,0.35-0.2,0.55-0.2c0.15,0,0.25,0.05,0.35,0.1c0.1,0.05,0.2,0.15,0.25,0.25c0-0.1,0.05-0.2,0.1-0.25
		s0.15-0.1,0.25-0.15c0.1-0.05,0.2-0.05,0.35-0.05c0.25,0,0.5,0.1,0.65,0.25c0.15,0.15,0.25,0.35,0.25,0.55c0,0.2-0.05,0.4-0.2,0.5
		c-0.15,0.15-0.35,0.25-0.6,0.25l-0.05-0.3c0.35-0.05,0.55-0.2,0.55-0.45c0-0.15-0.05-0.25-0.15-0.35c-0.1-0.1-0.25-0.15-0.45-0.15
		c-0.15,0-0.3,0.05-0.4,0.15s-0.15,0.2-0.15,0.35c0,0.05,0,0.1,0.05,0.2l-0.35-0.05v-0.05c0-0.15,0-0.25-0.1-0.35
		c-0.1-0.1-0.2-0.15-0.35-0.15c-0.15,0-0.25,0.05-0.35,0.15c-0.05,0.05-0.1,0.15-0.1,0.25c0,0.1,0.05,0.2,0.1,0.3
		c0.1,0.05,0.25,0.1,0.4,0.15l-0.05,0.3c-0.25-0.05-0.45-0.15-0.55-0.25c-0.15-0.15-0.2-0.3-0.2-0.5
		C180.209,126.618,180.259,126.468,180.409,126.318z M180.309,37.368c0.1-0.25,0.3-0.35,0.55-0.35s0.45,0.1,0.55,0.3
		c0.15,0.25,0.25,0.65,0.25,1.2c0,0.45-0.05,0.85-0.2,1.1c-0.15,0.25-0.3,0.35-0.6,0.35c-0.2,0-0.4-0.1-0.55-0.3
		c-0.15-0.25-0.2-0.65-0.2-1.15S180.159,37.618,180.309,37.368z M179.359,38.468c-0.1-0.1-0.2-0.15-0.35-0.15
		c-0.1,0-0.15,0-0.25,0.05c-0.05,0.05-0.15,0.15-0.2,0.25l-0.25-0.05l0.25-1.5h1.15v0.35h-0.95l-0.1,0.75
		c0.1-0.1,0.25-0.15,0.45-0.15s0.35,0.05,0.5,0.25c0.15,0.15,0.2,0.4,0.2,0.7c0,0.25-0.05,0.5-0.2,0.7s-0.35,0.3-0.6,0.3
		c-0.2,0-0.35-0.05-0.5-0.2c-0.15-0.15-0.25-0.35-0.25-0.6l0.3-0.05c0,0.2,0.1,0.35,0.15,0.45c0.1,0.05,0.2,0.1,0.3,0.1
		c0.15,0,0.25-0.05,0.35-0.15c0.1-0.15,0.15-0.35,0.15-0.55S179.459,38.618,179.359,38.468z M177.509,38.668
		c-0.1-0.1-0.2-0.15-0.35-0.15c-0.05,0-0.1,0-0.2,0.05l0.05-0.35l0.05,0.05c0.15,0,0.25-0.05,0.35-0.15c0.1-0.1,0.15-0.2,0.15-0.35
		c0-0.15-0.05-0.25-0.15-0.35c-0.05-0.05-0.15-0.1-0.25-0.1s-0.2,0.05-0.3,0.1c-0.05,0.1-0.1,0.25-0.15,0.4l-0.3-0.05
		c0.05-0.25,0.15-0.45,0.25-0.55c0.15-0.15,0.3-0.2,0.5-0.2s0.35,0.05,0.5,0.2c0.1,0.15,0.2,0.35,0.2,0.55
		c0,0.15-0.05,0.25-0.1,0.35c-0.05,0.1-0.15,0.2-0.25,0.25c0.1,0,0.2,0.05,0.25,0.1c0.05,0.1,0.1,0.15,0.15,0.25
		c0.05,0.1,0.05,0.25,0.05,0.35c0,0.25-0.1,0.5-0.25,0.65c-0.15,0.2-0.35,0.25-0.55,0.25s-0.35-0.05-0.5-0.2
		c-0.15-0.15-0.25-0.35-0.25-0.6l0.3-0.05c0.05,0.4,0.2,0.55,0.45,0.55c0.15,0,0.25-0.05,0.35-0.15c0.1-0.1,0.15-0.25,0.15-0.45
		C177.659,38.918,177.609,38.768,177.509,38.668z M175.659,37.468c-0.1-0.1-0.2-0.15-0.3-0.15c-0.15,0-0.25,0.05-0.35,0.15
		c-0.1,0.1-0.15,0.25-0.15,0.4h-0.3c0.05-0.3,0.1-0.5,0.25-0.65c0.15-0.15,0.3-0.2,0.55-0.2s0.4,0.1,0.55,0.25
		c0.1,0.15,0.2,0.35,0.2,0.55c0,0.2-0.05,0.35-0.15,0.55c-0.1,0.15-0.3,0.4-0.55,0.65c-0.2,0.2-0.3,0.3-0.35,0.35
		c-0.05,0.1-0.1,0.15-0.15,0.2h1.2v0.35h-1.6c0-0.15,0.05-0.3,0.15-0.45c0.05-0.2,0.25-0.4,0.45-0.6c0.3-0.3,0.45-0.5,0.55-0.65
		c0.1-0.15,0.15-0.3,0.15-0.4C175.809,37.668,175.759,37.518,175.659,37.468z M165.959,17.468c0.1-0.25,0.25-0.45,0.5-0.5
		c0.2-0.05,0.4,0,0.6,0.15c0.2,0.2,0.4,0.55,0.5,1.1c0.15,0.45,0.15,0.85,0.1,1.1c-0.05,0.3-0.2,0.45-0.45,0.5
		c-0.25,0.1-0.45,0-0.65-0.15c-0.2-0.2-0.35-0.55-0.5-1.05C165.959,18.118,165.909,17.768,165.959,17.468z M164.209,17.968
		c0.05-0.3,0.2-0.45,0.45-0.5c0.2-0.1,0.4-0.05,0.6,0.15c0.2,0.2,0.4,0.55,0.5,1.05c0.15,0.5,0.2,0.85,0.1,1.15
		c-0.05,0.25-0.2,0.45-0.45,0.5c-0.2,0.05-0.45,0-0.6-0.2c-0.2-0.15-0.4-0.5-0.55-1.05
		C164.159,18.618,164.109,18.218,164.209,17.968z M162.409,18.218c0.1-0.15,0.25-0.25,0.45-0.3c0.15-0.05,0.35,0,0.5,0.1
		c0.15,0.1,0.3,0.25,0.35,0.45c0,0.15,0.05,0.25,0,0.35c-0.05,0.15-0.1,0.25-0.15,0.3c0.05,0,0.15,0.05,0.25,0.1
		c0.05,0,0.15,0.1,0.2,0.15c0.05,0.1,0.1,0.2,0.15,0.35c0.05,0.25,0.05,0.5-0.05,0.7c-0.15,0.2-0.3,0.3-0.5,0.35
		s-0.4,0.05-0.55-0.05c-0.2-0.1-0.3-0.3-0.4-0.5l0.25-0.15c0.2,0.35,0.4,0.5,0.6,0.45c0.15-0.05,0.25-0.15,0.3-0.25
		c0.05-0.15,0.1-0.3,0.05-0.45c-0.05-0.2-0.15-0.3-0.25-0.4c-0.1-0.05-0.25-0.1-0.35-0.05c-0.05,0-0.1,0.05-0.2,0.1l-0.05-0.3
		l0.05-0.05c0.15,0,0.25-0.1,0.3-0.2c0.05-0.1,0.1-0.25,0.05-0.35c-0.05-0.15-0.1-0.25-0.2-0.3c-0.1-0.05-0.2-0.1-0.3-0.05
		c-0.1,0-0.2,0.1-0.25,0.2c-0.05,0.1-0.05,0.25-0.05,0.4h-0.25C162.309,18.568,162.359,18.368,162.409,18.218z M159.059,18.968
		c0.2-0.1,0.35-0.1,0.5-0.05c0.1,0,0.2,0.05,0.3,0.15c0.1,0.15,0.15,0.25,0.2,0.4c0.05,0.25,0.05,0.4,0,0.6
		c-0.1,0.15-0.25,0.25-0.45,0.35c0.1,0.05,0.2,0.05,0.25,0.1c0.1,0.1,0.25,0.2,0.35,0.3l0.6,0.65l-0.4,0.1l-0.45-0.5
		c-0.2-0.2-0.3-0.3-0.4-0.35c-0.1-0.1-0.15-0.15-0.2-0.15c-0.1,0-0.15,0-0.25,0.05l-0.35,0.1l0.3,1.2l-0.3,0.1l-0.75-2.8
		L159.059,18.968z M138.631,21.091c1.571-1.622,3.805-2.553,6.127-2.553c2.305,0,4.481,0.907,6.127,2.553
		c1.037,1.037,1.778,2.284,2.187,3.641l1.618-1.4l0.235,0.272l-1.469,1.27l14.836-3.914l0.03,0.116l-14.844,3.916l1.915,0.399
		l-0.073,0.353l-2.105-0.438c0.141,0.622,0.221,1.261,0.221,1.912c0,2.337-0.907,4.531-2.553,6.178
		c-1.614,1.614-3.791,2.502-6.127,2.502c-2.353,0-4.587-0.913-6.129-2.504c-1.644-1.645-2.551-3.838-2.551-6.176
		C136.079,24.913,136.985,22.737,138.631,21.091z M136.079,49.918c0-0.1,0.081-0.18,0.18-0.18h39.65c0.1,0,0.18,0.081,0.18,0.18
		v70.85c0,0.1-0.081,0.18-0.18,0.18h-39.65c-0.1,0-0.18-0.081-0.18-0.18V49.918z M134.379,27.158h0.48v0.12h-0.48V27.158z
		 M132.399,27.158h0.48v0.12h-0.48V27.158z M130.419,27.158h0.48v0.12h-0.48V27.158z M128.439,27.158h0.48v0.12h-0.48V27.158z
		 M126.459,27.158h0.48v0.12h-0.48V27.158z M124.479,27.158h0.48v0.12h-0.48V27.158z M122.499,27.158h0.48v0.12h-0.48V27.158z
		 M120.519,27.158h0.48v0.12h-0.48V27.158z M118.539,27.158h0.48v0.12h-0.48V27.158z M116.559,27.158h0.48v0.12h-0.48V27.158z
		 M114.579,27.158h0.48v0.12h-0.48V27.158z M106.609,74.868c0.25-0.15,0.6-0.25,1.15-0.25c0.5,0,0.85,0.05,1.1,0.2
		c0.25,0.15,0.4,0.35,0.4,0.6c0,0.2-0.1,0.4-0.35,0.55c-0.2,0.15-0.6,0.2-1.15,0.2c-0.5,0-0.85-0.05-1.1-0.2
		c-0.25-0.1-0.35-0.3-0.35-0.55S106.409,75.018,106.609,74.868z M106.609,76.718c0.25-0.15,0.6-0.25,1.15-0.25
		c0.5,0,0.85,0.05,1.1,0.2c0.25,0.15,0.4,0.35,0.4,0.6c0,0.2-0.1,0.4-0.35,0.55c-0.2,0.15-0.6,0.2-1.15,0.2
		c-0.5,0-0.85-0.05-1.1-0.2c-0.25-0.1-0.35-0.3-0.35-0.55S106.409,76.868,106.609,76.718z M106.459,78.568
		c0.05-0.05,0.15-0.1,0.25-0.15c0.1,0,0.2-0.05,0.3-0.05l0.05,0.3c-0.15,0-0.3,0.05-0.35,0.1c-0.1,0.1-0.15,0.2-0.15,0.3
		c0,0.15,0.15,0.3,0.35,0.4c0.15,0.1,0.45,0.15,0.8,0.15c-0.15-0.1-0.25-0.15-0.3-0.25c-0.05-0.1-0.1-0.25-0.1-0.35
		c0-0.2,0.1-0.35,0.25-0.5c0.2-0.15,0.4-0.2,0.7-0.2c0.2,0,0.35,0.05,0.55,0.1c0.15,0.1,0.25,0.15,0.35,0.3
		c0.05,0.1,0.1,0.2,0.1,0.35c0,0.25-0.1,0.45-0.35,0.6c-0.2,0.15-0.55,0.25-1.05,0.25c-0.6,0-1-0.1-1.2-0.25
		c-0.25-0.15-0.35-0.4-0.35-0.65C106.309,78.868,106.359,78.718,106.459,78.568z M106.509,80.468c0.15-0.1,0.3-0.2,0.55-0.2
		c0.1,0,0.25,0.05,0.35,0.1c0.1,0.05,0.15,0.15,0.2,0.25c0.05-0.1,0.1-0.2,0.15-0.25c0.05-0.05,0.15-0.1,0.25-0.15
		c0.1-0.05,0.2-0.05,0.35-0.05c0.25,0,0.45,0.1,0.65,0.25c0.15,0.15,0.25,0.35,0.25,0.55s-0.1,0.4-0.25,0.5
		c-0.15,0.15-0.35,0.25-0.6,0.25v-0.3c0.35-0.05,0.55-0.2,0.55-0.45c0-0.1-0.05-0.25-0.15-0.35c-0.15-0.1-0.3-0.15-0.45-0.15
		c-0.2,0-0.3,0.05-0.4,0.15c-0.1,0.1-0.15,0.2-0.15,0.35v0.2l-0.3-0.05v-0.05c0-0.15-0.05-0.25-0.1-0.35
		c-0.1-0.1-0.25-0.15-0.4-0.15c-0.1,0-0.2,0.05-0.3,0.15c-0.1,0.05-0.15,0.15-0.15,0.25s0.05,0.2,0.15,0.3
		c0.1,0.05,0.2,0.1,0.4,0.15l-0.05,0.3c-0.25-0.05-0.45-0.15-0.6-0.25c-0.1-0.15-0.15-0.3-0.15-0.5S106.359,80.618,106.509,80.468z
		 M85.509,86.218c0.25-0.2,0.65-0.25,1.2-0.25c0.5,0,0.85,0.05,1.1,0.2c0.25,0.1,0.4,0.3,0.4,0.55s-0.15,0.45-0.35,0.6
		c-0.2,0.1-0.6,0.2-1.15,0.2c-0.5,0-0.85-0.05-1.1-0.2c-0.25-0.15-0.4-0.35-0.4-0.6C85.209,86.518,85.309,86.318,85.509,86.218z
		 M85.509,88.068c0.25-0.2,0.65-0.25,1.2-0.25c0.5,0,0.85,0.05,1.1,0.2c0.25,0.1,0.4,0.3,0.4,0.55s-0.15,0.45-0.35,0.6
		c-0.2,0.1-0.6,0.2-1.15,0.2c-0.5,0-0.85-0.05-1.1-0.2s-0.4-0.35-0.4-0.6C85.209,88.368,85.309,88.168,85.509,88.068z
		 M85.459,89.918c0.1-0.1,0.3-0.15,0.5-0.15c0.15,0,0.3,0,0.4,0.05c0.1,0.05,0.15,0.15,0.2,0.3c0.05-0.15,0.15-0.3,0.3-0.35
		c0.1-0.1,0.25-0.1,0.45-0.1c0.25,0,0.45,0.05,0.65,0.2c0.15,0.15,0.25,0.35,0.25,0.55c0,0.25-0.1,0.4-0.25,0.55
		c-0.2,0.15-0.4,0.25-0.65,0.25c-0.2,0-0.35-0.05-0.5-0.1c-0.1-0.1-0.2-0.2-0.25-0.35c-0.05,0.1-0.1,0.2-0.2,0.25
		c-0.1,0.05-0.25,0.1-0.4,0.1c-0.2,0-0.4-0.05-0.55-0.2c-0.1-0.1-0.2-0.3-0.2-0.5S85.309,90.068,85.459,89.918z M85.459,91.718
		c0.2-0.15,0.35-0.2,0.55-0.2c0.2,0,0.4,0.05,0.55,0.15c0.15,0.1,0.4,0.3,0.7,0.55c0.15,0.2,0.3,0.3,0.35,0.35
		c0.05,0.05,0.1,0.1,0.2,0.1v-1.15h0.35v1.6c-0.15,0-0.3-0.05-0.5-0.15c-0.15-0.1-0.35-0.25-0.6-0.5s-0.5-0.45-0.6-0.5
		c-0.15-0.1-0.3-0.15-0.45-0.15c-0.15,0-0.25,0.05-0.35,0.15s-0.15,0.2-0.15,0.3c0,0.15,0.05,0.25,0.15,0.35
		c0.1,0.1,0.25,0.1,0.45,0.1l-0.05,0.3c-0.25,0-0.5-0.1-0.6-0.2c-0.15-0.15-0.25-0.35-0.25-0.55
		C85.209,92.018,85.309,91.818,85.459,91.718z"/>
	<rect fill="#FFFFFF" width="4.279" height="6.758"/>
	<path fill="#FFFFFF" d="M85.959,90.818c0.15,0,0.25-0.05,0.35-0.1c0.1-0.1,0.1-0.2,0.1-0.3c0-0.1,0-0.2-0.1-0.25
		c-0.1-0.1-0.2-0.1-0.35-0.1c-0.1,0-0.2,0-0.3,0.1c-0.1,0.05-0.15,0.15-0.15,0.25c0,0.1,0.05,0.2,0.15,0.3
		C85.709,90.768,85.859,90.818,85.959,90.818z"/>
	<path fill="#FFFFFF" d="M85.759,88.918c0.15,0.1,0.5,0.15,0.95,0.15c0.45,0,0.8-0.05,0.95-0.15c0.15-0.1,0.25-0.2,0.25-0.35
		c0-0.1-0.1-0.25-0.25-0.3c-0.15-0.1-0.5-0.15-0.95-0.15c-0.45,0-0.8,0.05-0.95,0.15c-0.15,0.05-0.25,0.2-0.25,0.35
		C85.509,88.718,85.609,88.818,85.759,88.918z"/>
	<polygon fill="#FFFFFF" points="110.044,6.758 109.432,6.146 109.687,5.891 110.554,6.758 110.599,6.758 110.599,0 24.169,0 
		24.169,6.758 	"/>
	<path fill="#FFFFFF" d="M85.759,87.068c0.15,0.1,0.5,0.15,0.95,0.15c0.45,0,0.8-0.05,0.95-0.15c0.15-0.1,0.25-0.2,0.25-0.35
		c0-0.1-0.1-0.25-0.25-0.3c-0.15-0.1-0.5-0.15-0.95-0.15c-0.45,0-0.8,0.05-0.95,0.15c-0.15,0.05-0.25,0.2-0.25,0.35
		C85.509,86.868,85.609,86.968,85.759,87.068z"/>
	<path fill="#FFFFFF" d="M87.309,90.918c0.15,0,0.3-0.05,0.4-0.15c0.15-0.1,0.2-0.2,0.2-0.35c0-0.1-0.05-0.25-0.15-0.35
		c-0.15-0.05-0.25-0.1-0.45-0.1c-0.15,0-0.3,0.05-0.4,0.1c-0.15,0.1-0.2,0.25-0.2,0.35c0,0.15,0.05,0.25,0.15,0.35
		C87.009,90.868,87.109,90.918,87.309,90.918z"/>
	<polygon fill="#FFFFFF" points="40.584,89.682 4.868,128.909 76.3,128.909 	"/>
	<path fill="#FFFFFF" d="M274.409,9.868c0.1-0.05,0.1-0.2,0.1-0.3c0-0.2-0.05-0.35-0.15-0.45c-0.1-0.1-0.25-0.15-0.45-0.15h-0.95
		v1.2h0.85c0.15,0,0.3-0.05,0.4-0.1C274.309,10.068,274.359,9.968,274.409,9.868z"/>
	<polygon fill="#FFFFFF" points="286.759,9.268 285.859,10.868 286.759,10.868 	"/>
	<path fill="#FFFFFF" d="M215.379,6.758V0h-4.01v0.348h-0.12V0h-4.01v6.758H215.379z M211.369,1.848v3.96h-0.12v-3.96H211.369z"/>
	<path fill="#FFFFFF" d="M211.141,41.308l0.108-0.111v-0.949v-1.02v-0.76h0.12v0.76v1.02v0.826l0.911-0.932l0.258,0.252
		l-1.168,1.195v0.158v2.521v1.44h-0.12v-1.44v-2.521v-0.035l-0.861,0.881l-0.258-0.252l0.893-0.914h-3.784v87.48h8.14V15.278h-8.14
		v26.03H211.141z M211.369,128.028h-0.12v-1.02h0.12V128.028z M211.369,125.508h-0.12v-3.96h0.12V125.508z M211.369,120.048h-0.12
		v-1.02h0.12V120.048z M211.369,117.528h-0.12v-3.96h0.12V117.528z M211.369,112.068h-0.12v-1.02h0.12V112.068z M211.369,109.548
		h-0.12v-3.96h0.12V109.548z M211.369,104.088h-0.12v-1.02h0.12V104.088z M211.369,101.568h-0.12v-3.96h0.12V101.568z
		 M211.369,96.108h-0.12v-1.02h0.12V96.108z M211.369,93.588h-0.12v-3.96h0.12V93.588z M211.369,88.128h-0.12v-1.02h0.12V88.128z
		 M211.369,85.608h-0.12v-3.96h0.12V85.608z M211.369,80.148h-0.12v-1.02h0.12V80.148z M211.369,77.628h-0.12v-3.96h0.12V77.628z
		 M211.369,72.168h-0.12v-1.02h0.12V72.168z M211.369,69.648h-0.12v-3.96h0.12V69.648z M211.369,64.188h-0.12v-1.02h0.12V64.188z
		 M211.369,61.668h-0.12v-3.96h0.12V61.668z M211.369,56.208h-0.12v-1.02h0.12V56.208z M211.369,53.688h-0.12v-3.96h0.12V53.688z
		 M211.369,48.228h-0.12v-1.02h0.12V48.228z M211.249,15.288h0.12v1.02h-0.12V15.288z M211.249,17.808h0.12v3.96h-0.12V17.808z
		 M211.249,23.268h0.12v1.02h-0.12V23.268z M211.249,25.788h0.12v3.96h-0.12V25.788z M211.249,31.248h0.12v1.02h-0.12V31.248z
		 M211.249,33.768h0.12v3.96h-0.12V33.768z"/>
	<path fill="#FFFFFF" d="M284.759,9.218c-0.15-0.2-0.25-0.3-0.45-0.3c-0.15,0-0.3,0.1-0.4,0.3c-0.1,0.2-0.15,0.6-0.15,1.15
		c0,0.6,0.05,1,0.15,1.2c0.1,0.15,0.25,0.25,0.45,0.25c0.15,0,0.3-0.1,0.4-0.3c0.1-0.2,0.15-0.55,0.15-1.15
		C284.909,9.818,284.859,9.418,284.759,9.218z"/>
	<rect x="124.269" fill="#FFFFFF" width="82.61" height="6.758"/>
	<polygon fill="#FFFFFF" points="123.63,6.758 123.03,6.144 123.288,5.892 124.134,6.758 124.149,6.758 124.149,0 110.719,0 
		110.719,6.758 	"/>
	<rect y="15.278" fill="#FFFFFF" width="4.279" height="113.63"/>
	<path fill="#FFFFFF" d="M294.609,4.918c0.3,0,0.55-0.1,0.7-0.35c0.2-0.25,0.3-0.6,0.3-1.1c0-0.3-0.05-0.55-0.15-0.8
		c-0.05-0.2-0.2-0.35-0.35-0.45c-0.15-0.1-0.3-0.15-0.5-0.15c-0.25,0-0.5,0.1-0.7,0.35c-0.2,0.25-0.3,0.6-0.3,1.1
		c0,0.45,0.1,0.8,0.3,1.05C294.109,4.818,294.359,4.918,294.609,4.918z"/>
	<path fill="#FFFFFF" d="M106.809,75.768c0.2,0.05,0.5,0.1,0.95,0.1c0.5,0,0.8-0.05,0.95-0.15c0.15-0.05,0.25-0.2,0.25-0.3
		c0-0.15-0.1-0.25-0.25-0.35c-0.15-0.1-0.45-0.15-0.95-0.15c-0.45,0-0.8,0.05-0.95,0.15c-0.15,0.1-0.25,0.2-0.25,0.35
		S106.659,75.668,106.809,75.768z"/>
	<polygon fill="#FFFFFF" points="40.584,89.504 76.464,50.099 4.704,50.099 	"/>
	<path fill="#FFFFFF" d="M180.909,39.668c0.1,0,0.2-0.05,0.3-0.25c0.1-0.15,0.15-0.45,0.15-0.9c0-0.5-0.05-0.8-0.15-0.95
		c-0.1-0.2-0.2-0.25-0.35-0.25c-0.1,0-0.25,0.05-0.3,0.25c-0.1,0.15-0.15,0.45-0.15,0.95c0,0.45,0.05,0.75,0.15,0.95
		C180.609,39.618,180.759,39.668,180.909,39.668z"/>
	<polygon fill="#FFFFFF" points="76.463,128.909 76.529,128.909 76.529,50.206 40.665,89.594 	"/>
	<path fill="#FFFFFF" d="M166.759,19.418c0.1,0.1,0.25,0.15,0.35,0.15c0.15-0.05,0.25-0.15,0.3-0.35c0.05-0.15,0-0.5-0.15-0.95
		c-0.1-0.45-0.2-0.75-0.35-0.85c-0.15-0.15-0.25-0.2-0.4-0.15c-0.15,0-0.2,0.15-0.25,0.3c-0.05,0.2,0,0.5,0.1,0.95
		C166.459,18.968,166.609,19.268,166.759,19.418z"/>
	<path fill="#FFFFFF" d="M164.959,19.868c0.1,0.15,0.25,0.2,0.4,0.15c0.1-0.05,0.2-0.15,0.25-0.3c0.05-0.2,0-0.5-0.1-0.95
		c-0.15-0.45-0.25-0.75-0.4-0.9c-0.1-0.15-0.25-0.15-0.4-0.15c-0.1,0.05-0.2,0.15-0.25,0.35c-0.05,0.15,0,0.5,0.1,0.95
		C164.709,19.468,164.809,19.768,164.959,19.868z"/>
	<path fill="#FFFFFF" d="M180.759,125.268c0.15,0.1,0.45,0.15,0.9,0.15c0.5,0,0.8-0.05,0.95-0.15c0.2-0.05,0.25-0.2,0.25-0.35
		c0-0.1-0.05-0.2-0.25-0.3c-0.15-0.1-0.45-0.15-0.95-0.15c-0.45,0-0.75,0.05-0.95,0.15c-0.15,0.1-0.2,0.2-0.2,0.35
		C180.509,125.068,180.559,125.218,180.759,125.268z"/>
	<polygon fill="#FFFFFF" points="4.706,128.909 40.503,89.594 4.639,50.205 4.639,128.909 	"/>
	<path fill="#FFFFFF" d="M180.759,123.418c0.15,0.1,0.45,0.15,0.9,0.15c0.5,0,0.8-0.05,0.95-0.15c0.2-0.05,0.25-0.2,0.25-0.35
		c0-0.1-0.05-0.2-0.25-0.3c-0.15-0.1-0.45-0.15-0.95-0.15c-0.45,0-0.75,0.05-0.95,0.15c-0.15,0.1-0.2,0.2-0.2,0.35
		C180.509,123.218,180.559,123.368,180.759,123.418z"/>
	<path fill="#FFFFFF" d="M180.759,82.818c0.15,0.1,0.45,0.15,0.9,0.15c0.5,0,0.8-0.05,0.95-0.15c0.2-0.1,0.25-0.2,0.25-0.35
		c0-0.1-0.05-0.25-0.25-0.3c-0.15-0.1-0.45-0.15-0.95-0.15c-0.45,0-0.75,0.05-0.95,0.15c-0.15,0.05-0.2,0.2-0.2,0.35
		C180.509,82.618,180.559,82.718,180.759,82.818z"/>
	<path fill="#FFFFFF" d="M180.759,84.668c0.15,0.1,0.45,0.15,0.9,0.15c0.5,0,0.8-0.05,0.95-0.15c0.2-0.1,0.25-0.2,0.25-0.35
		c0-0.1-0.05-0.25-0.25-0.3c-0.15-0.1-0.45-0.15-0.95-0.15c-0.45,0-0.75,0.05-0.95,0.15c-0.15,0.05-0.2,0.2-0.2,0.35
		C180.509,84.468,180.559,84.568,180.759,84.668z"/>
	<polygon fill="#FFFFFF" points="175.729,50.362 156.152,85.343 175.729,120.325 	"/>
	<polygon fill="#FFFFFF" points="175.729,50.117 175.729,50.098 136.439,50.098 136.439,50.118 156.084,85.221 	"/>
	<path fill="#FFFFFF" d="M108.259,79.568c0.2,0,0.4-0.05,0.5-0.15c0.15-0.1,0.2-0.2,0.2-0.35c0-0.1-0.05-0.2-0.2-0.3
		c-0.1-0.1-0.25-0.15-0.5-0.15c-0.2,0-0.35,0.05-0.45,0.15c-0.1,0.1-0.2,0.2-0.2,0.3c0,0.15,0.1,0.25,0.2,0.35
		C107.909,79.518,108.059,79.568,108.259,79.568z"/>
	<path fill="#FFFFFF" d="M159.609,20.068c0.1-0.05,0.15-0.15,0.15-0.2v-0.3c-0.05-0.15-0.1-0.25-0.2-0.3c-0.1-0.05-0.25-0.05-0.4,0
		l-0.75,0.2l0.25,0.9l0.65-0.15C159.459,20.168,159.559,20.118,159.609,20.068z"/>
	<polygon fill="#FFFFFF" points="136.439,120.569 136.439,120.588 175.729,120.588 175.729,120.57 156.084,85.466 	"/>
	<polygon fill="#FFFFFF" points="156.015,85.343 136.439,50.363 136.439,120.324 	"/>
	<path fill="#FFFFFF" d="M106.809,77.618c0.2,0.05,0.5,0.1,0.95,0.1c0.5,0,0.8-0.05,0.95-0.1c0.15-0.1,0.25-0.25,0.25-0.35
		c0-0.15-0.1-0.25-0.25-0.35c-0.15-0.1-0.45-0.15-0.95-0.15c-0.45,0-0.8,0.05-0.95,0.15c-0.15,0.1-0.25,0.2-0.25,0.35
		C106.559,77.418,106.659,77.518,106.809,77.618z"/>
	<path fill="#FFFFFF" d="M150.672,33.096c1.551-1.573,2.406-3.657,2.406-5.878c0-0.714-0.1-1.412-0.276-2.088
		c-0.003-0.008-0.015-0.008-0.018-0.017c-0.004-0.016,0.001-0.032,0.001-0.048c-0.37-1.37-1.085-2.632-2.114-3.675l-5.828,5.828
		L150.672,33.096z"/>
	<path fill="#FFFFFF" d="M136.839,27.158v0.12h-0.397c0.015,2.198,0.867,4.259,2.403,5.818l5.769-5.818h-0.336v-0.12h0.335
		l-5.768-5.768c-1.537,1.56-2.388,3.602-2.404,5.768H136.839z M142.299,27.158h0.48v0.12h-0.48V27.158z M140.319,27.158h0.48v0.12
		h-0.48V27.158z M138.339,27.158h0.48v0.12h-0.48V27.158z"/>
	<path fill="#FFFFFF" d="M138.93,33.181c1.475,1.498,3.594,2.357,5.829,2.357c2.22,0,4.287-0.838,5.829-2.357l-5.829-5.877
		L138.93,33.181z"/>
	<path fill="#FFFFFF" d="M150.587,21.305c-1.573-1.551-3.639-2.407-5.828-2.407c-2.205,0-4.325,0.878-5.829,2.406l5.829,5.829
		L150.587,21.305z"/>
	<path fill="#FFFFFF" d="M298.059,2.168c-0.1,0-0.25-0.05-0.45-0.05h-0.75v1.3h0.75c0.25,0,0.45-0.05,0.55-0.2
		c0.1-0.1,0.15-0.25,0.15-0.45c0-0.15,0-0.25-0.05-0.35C298.159,2.318,298.109,2.218,298.059,2.168z"/>
	<path fill="#FFFFFF" d="M302.109,124.368c-0.15-0.15-0.3-0.2-0.5-0.2c-0.3,0-0.5,0.15-0.7,0.4c-0.2,0.2-0.3,0.6-0.3,1.1
		c0,0.45,0.1,0.8,0.3,1c0.2,0.25,0.45,0.4,0.7,0.4c0.3,0,0.5-0.15,0.7-0.4s0.3-0.6,0.3-1.05c0-0.3-0.05-0.6-0.15-0.85
		C302.409,124.618,302.259,124.468,302.109,124.368z"/>
	<polygon fill="#FFFFFF" points="264.906,123.928 267.509,129.134 270.112,123.928 	"/>
	<path fill="#FFFFFF" d="M316.109,3.168c0.1-0.05,0.2-0.1,0.25-0.15c0.05-0.1,0.05-0.2,0.05-0.35c0-0.1,0-0.2-0.05-0.3
		c-0.05-0.1-0.1-0.15-0.2-0.2c-0.1,0-0.25-0.05-0.45-0.05h-0.6v1.1h0.65C315.909,3.218,316.059,3.218,316.109,3.168z"/>
	<path fill="#FFFFFF" d="M313.059,124.218c-0.05,0.25-0.1,0.45-0.15,0.7l-0.35,1h1l-0.3-0.95
		C313.159,124.668,313.109,124.418,313.059,124.218z"/>
	<path fill="#FFFFFF" d="M313.059,2.068c-0.05,0.25-0.1,0.45-0.15,0.7l-0.35,1.05h1l-0.3-1
		C313.159,2.518,313.109,2.268,313.059,2.068z"/>
	<path fill="#FFFFFF" d="M316.259,125.818c-0.1-0.05-0.25-0.05-0.45-0.05h-0.7v1.2h0.75c0.15,0,0.3,0,0.35-0.05
		c0.1-0.05,0.2-0.1,0.25-0.2c0.05-0.1,0.1-0.2,0.1-0.35c0-0.15-0.05-0.25-0.1-0.35C316.409,125.918,316.359,125.868,316.259,125.818
		z"/>
	<path fill="#FFFFFF" d="M316.109,125.318c0.1-0.05,0.2-0.1,0.25-0.2c0.05-0.05,0.05-0.2,0.05-0.3c0-0.15,0-0.25-0.05-0.35
		c-0.05-0.05-0.1-0.1-0.2-0.15c-0.1-0.05-0.25-0.05-0.45-0.05h-0.6v1.05h0.65H316.109z"/>
	<path fill="#FFFFFF" d="M302.109,2.218c-0.15-0.1-0.3-0.15-0.5-0.15c-0.3,0-0.5,0.1-0.7,0.35c-0.2,0.25-0.3,0.6-0.3,1.1
		c0,0.45,0.1,0.8,0.3,1.05c0.2,0.25,0.45,0.35,0.7,0.35c0.3,0,0.5-0.1,0.7-0.35s0.3-0.6,0.3-1.1c0-0.3-0.05-0.55-0.15-0.8
		C302.409,2.468,302.259,2.318,302.109,2.218z"/>
	<path fill="#FFFFFF" d="M284.309,131.068c-0.15,0-0.3,0.1-0.4,0.3c-0.1,0.2-0.15,0.6-0.15,1.15s0.05,0.95,0.15,1.15
		c0.1,0.2,0.25,0.3,0.45,0.3c0.15,0,0.3-0.1,0.4-0.3c0.1-0.2,0.15-0.6,0.15-1.15c0-0.6-0.05-0.95-0.15-1.15
		C284.609,131.168,284.509,131.068,284.309,131.068z"/>
	<path fill="#FFFFFF" d="M286.559,131.068c-0.15,0-0.3,0.1-0.4,0.3c-0.1,0.2-0.15,0.6-0.15,1.15s0.05,0.95,0.15,1.15
		s0.25,0.3,0.45,0.3c0.15,0,0.3-0.1,0.4-0.3c0.1-0.2,0.15-0.6,0.15-1.15c0-0.6-0.05-0.95-0.15-1.15
		C286.909,131.168,286.759,131.068,286.559,131.068z"/>
	<path fill="#FFFFFF" d="M274.409,132.018c0.1-0.1,0.1-0.2,0.1-0.35c0-0.15-0.05-0.3-0.15-0.4c-0.1-0.1-0.25-0.15-0.45-0.15h-0.95
		v1.15h0.85c0.15,0,0.3,0,0.4-0.05C274.309,132.168,274.359,132.118,274.409,132.018z"/>
	<path fill="#FFFFFF" d="M282.109,132.368c-0.15,0-0.3,0.05-0.4,0.2c-0.15,0.15-0.2,0.3-0.2,0.55s0.05,0.45,0.2,0.6
		c0.1,0.15,0.25,0.25,0.4,0.25c0.15,0,0.25-0.1,0.4-0.2c0.1-0.15,0.15-0.35,0.15-0.65c0-0.25-0.05-0.4-0.15-0.55
		C282.409,132.418,282.259,132.368,282.109,132.368z"/>
	<path fill="#FFFFFF" d="M295.109,124.368c-0.15-0.15-0.3-0.2-0.5-0.2c-0.25,0-0.5,0.15-0.7,0.4c-0.2,0.2-0.3,0.6-0.3,1.1
		c0,0.45,0.1,0.8,0.3,1c0.2,0.25,0.45,0.4,0.7,0.4c0.3,0,0.55-0.15,0.7-0.4c0.2-0.25,0.3-0.6,0.3-1.05c0-0.3-0.05-0.6-0.15-0.85
		C295.409,124.618,295.259,124.468,295.109,124.368z"/>
	<polygon fill="#FFFFFF" points="290.159,133.018 290.159,131.418 289.259,133.018 	"/>
	<polygon fill="#FFFFFF" points="292.409,133.018 292.409,131.418 291.509,133.018 	"/>
	<path fill="#FFFFFF" d="M298.059,124.318c-0.1-0.05-0.25-0.05-0.45-0.05h-0.75v1.25h0.75c0.25,0,0.45-0.05,0.55-0.15
		c0.1-0.1,0.15-0.25,0.15-0.5c0-0.1,0-0.25-0.05-0.35C298.159,124.418,298.109,124.368,298.059,124.318z"/>
	<polygon fill="#FFFFFF" points="264.906,1.778 267.509,6.984 270.112,1.778 	"/>
	<path fill="#FFFFFF" d="M215.739,0v6.758h32.52v0.72h-36.89v0.85h-0.12v-0.85h-86.411l0.6,0.614l-0.258,0.252l-0.847-0.866h-13.06
		l0.613,0.613l-0.255,0.255l-0.868-0.868H24.738l0.6,0.614L25.08,8.344l-0.847-0.866H0v7.081h248.259v0.72h-32.52v113.63h32.52v0.72
		h-36.89v3.86h-0.12v-3.86h-26.038l0.574,0.561l-0.252,0.258l-0.838-0.819h-0.076v1.79h-0.12v-1.79h-73.188l0.574,0.561
		l-0.252,0.258l-0.838-0.819H90.224l0.563,0.563l-0.255,0.255l-0.817-0.817H0v10.58h211.249v-2.7h0.12v2.7h36.89v0.72h-36.89v0.54
		h-0.12v-0.54H0v0.541h320.315V0H215.739z M211.369,13.788h-0.12v-3.96h0.12V13.788z M211.369,136.008h-0.12v-1.02h0.12V136.008z
		 M293.609,2.118c0.3-0.3,0.6-0.45,1-0.45c0.25,0,0.5,0.05,0.7,0.2c0.25,0.15,0.4,0.35,0.5,0.65c0.15,0.25,0.2,0.6,0.2,0.95
		c0,0.55-0.1,1-0.35,1.3c-0.25,0.35-0.6,0.55-1.05,0.55c-0.4,0-0.75-0.2-1-0.55c-0.25-0.35-0.4-0.75-0.4-1.25
		C293.209,2.918,293.359,2.468,293.609,2.118z M296.839,7.058v0.12h-1.02v-0.12H296.839z M294.909,10.368
		c-0.1-0.15-0.25-0.2-0.45-0.2c-0.1,0-0.2,0.05-0.3,0.1s-0.15,0.15-0.2,0.25l-0.35-0.05l0.25-1.85h1.45v0.45h-1.15l-0.15,0.95
		c0.15-0.15,0.35-0.25,0.55-0.25c0.25,0,0.45,0.1,0.65,0.35c0.15,0.2,0.25,0.45,0.25,0.8c0,0.35-0.1,0.65-0.25,0.9
		c-0.2,0.25-0.45,0.4-0.75,0.4c-0.25,0-0.45-0.1-0.65-0.3c-0.15-0.15-0.25-0.4-0.25-0.7l0.35-0.05c0.05,0.25,0.1,0.4,0.2,0.5
		c0.1,0.1,0.2,0.15,0.35,0.15c0.15,0,0.3-0.05,0.45-0.2c0.1-0.15,0.2-0.4,0.2-0.65S295.009,10.518,294.909,10.368z M290.659,1.718
		h2.3v0.4h-0.95v3.15h-0.4v-3.15h-0.95V1.718z M290.359,7.058h3.96v0.12h-3.96V7.058z M290.659,124.268v-0.4h2.3v0.4h-0.95v3.1h-0.4
		v-3.1H290.659z M294.319,129.208v0.12h-3.96v-0.12H294.319z M292.959,11.818c-0.2,0.25-0.45,0.4-0.75,0.4
		c-0.25,0-0.45-0.1-0.65-0.3c-0.15-0.15-0.25-0.4-0.3-0.7l0.4-0.05c0,0.25,0.1,0.4,0.2,0.5c0.1,0.1,0.2,0.15,0.35,0.15
		c0.15,0,0.3-0.05,0.45-0.2c0.1-0.15,0.15-0.4,0.15-0.65s-0.05-0.45-0.15-0.6c-0.15-0.15-0.25-0.2-0.45-0.2c-0.1,0-0.2,0.05-0.3,0.1
		c-0.1,0.05-0.15,0.15-0.25,0.25l-0.3-0.05l0.25-1.85h1.45v0.45h-1.15l-0.15,0.95c0.15-0.15,0.35-0.25,0.55-0.25
		c0.25,0,0.45,0.1,0.65,0.35c0.15,0.2,0.25,0.45,0.25,0.8C293.209,11.268,293.109,11.568,292.959,11.818z M289.059,8.618h1.85v0.35
		c-0.25,0.35-0.5,0.85-0.7,1.45c-0.25,0.55-0.35,1.15-0.4,1.7h-0.35c0-0.3,0.05-0.6,0.15-1c0.05-0.4,0.2-0.8,0.35-1.15
		c0.15-0.35,0.35-0.65,0.5-0.9h-1.4V8.618z M287.559,2.218c-0.1-0.1-0.25-0.15-0.4-0.15s-0.3,0.05-0.4,0.2
		c-0.1,0.1-0.15,0.3-0.15,0.5l-0.4-0.05c0.05-0.35,0.15-0.6,0.3-0.75c0.15-0.2,0.4-0.25,0.65-0.25c0.3,0,0.55,0.1,0.7,0.3
		c0.15,0.2,0.2,0.4,0.2,0.65s-0.05,0.45-0.15,0.65c-0.15,0.2-0.35,0.5-0.7,0.85c-0.2,0.2-0.35,0.35-0.4,0.45
		c-0.05,0.05-0.1,0.15-0.15,0.2h1.4v0.45h-1.9c0-0.2,0.05-0.35,0.15-0.6c0.1-0.2,0.3-0.45,0.6-0.7c0.3-0.35,0.55-0.6,0.65-0.8
		c0.1-0.15,0.15-0.35,0.15-0.5C287.709,2.518,287.659,2.368,287.559,2.218z M285.509,11.268v-0.4l1.35-2.25h0.3v2.25h0.35v0.4h-0.35
		v0.85h-0.4v-0.85H285.509z M278.809,10.568v-0.4h0.8v-0.95h0.35v0.95h0.75v0.4h-0.75v1h-0.35v-1H278.809z M279.859,7.178v-0.12
		h1.02v0.12H279.859z M280.259,123.868h2.1v0.4h-1.7v1.1h1.6v0.4h-1.6v1.2h1.75v0.4h-2.15V123.868z M284.759,126.968v0.4h-1.8v-3.5
		h0.35v3.1H284.759z M284.309,12.218c-0.25,0-0.5-0.15-0.65-0.45c-0.2-0.25-0.3-0.7-0.3-1.4c0-0.55,0.1-1,0.25-1.35
		c0.15-0.3,0.4-0.45,0.7-0.45s0.5,0.15,0.7,0.4c0.15,0.3,0.25,0.75,0.25,1.4c0,0.6-0.05,1.05-0.2,1.35
		C284.859,12.018,284.659,12.218,284.309,12.218z M282.379,7.178v-0.12h3.96v0.12H282.379z M282.709,8.818
		c0.05,0.05,0.15,0.15,0.15,0.25c0.05,0.1,0.1,0.25,0.1,0.4l-0.35,0.05c0-0.2-0.05-0.35-0.15-0.4c-0.1-0.1-0.2-0.2-0.35-0.2
		c-0.2,0-0.35,0.15-0.5,0.4c-0.1,0.25-0.15,0.55-0.15,1c0.1-0.15,0.2-0.3,0.3-0.35c0.15-0.1,0.25-0.15,0.4-0.15
		c0.25,0,0.45,0.1,0.6,0.35c0.2,0.2,0.25,0.45,0.25,0.8c0,0.25-0.05,0.45-0.1,0.65c-0.1,0.2-0.2,0.35-0.35,0.45
		c-0.15,0.1-0.3,0.15-0.45,0.15c-0.3,0-0.55-0.15-0.7-0.4c-0.2-0.3-0.3-0.7-0.3-1.35s0.1-1.15,0.3-1.45c0.2-0.3,0.45-0.45,0.75-0.45
		C282.359,8.568,282.559,8.668,282.709,8.818z M282.379,129.208h3.96v0.12h-3.96V129.208z M282.959,1.718h0.35v3.1h1.45v0.45h-1.8
		V1.718z M280.259,1.718h2.1v0.4h-1.7v1.1h1.6v0.4h-1.6v1.2h1.75v0.45h-2.15V1.718z M277.659,1.718l0.75,2.55
		c0.1,0.2,0.15,0.4,0.15,0.6c0.05-0.1,0.05-0.2,0.1-0.3c0-0.1,0.05-0.2,0.1-0.3l0.75-2.55h0.4l-1.15,3.55h-0.4l-1.1-3.55H277.659z
		 M274.859,1.718h2.1v0.4h-1.7v1.1h1.6v0.4h-1.6v1.2h1.75v0.45h-2.15V1.718z M274.399,7.058h3.96v0.12h-3.96V7.058z
		 M274.359,126.968v0.4h-1.8v-3.5h0.4v3.1H274.359z M274.259,11.418c-0.15-0.3-0.25-0.5-0.3-0.6c-0.1-0.1-0.15-0.15-0.25-0.2
		c-0.05-0.05-0.15-0.05-0.3-0.05h-0.45v1.55h-0.35v-3.5h1.25c0.3,0,0.5,0,0.6,0.05c0.15,0.1,0.25,0.2,0.35,0.35
		c0.05,0.15,0.1,0.35,0.1,0.55c0,0.25-0.05,0.45-0.2,0.65c-0.15,0.15-0.35,0.25-0.6,0.3c0.1,0.05,0.15,0.15,0.25,0.2
		c0.1,0.15,0.2,0.3,0.3,0.45l0.5,0.95h-0.5L274.259,11.418z M274.859,123.868h2.1v0.4h-1.7v1.1h1.6v0.4h-1.6v1.2h1.75v0.4h-2.15
		V123.868z M275.509,12.118v-3.5h0.35v3.1h1.45v0.4H275.509z M272.559,1.718h0.4v3.1h1.4v0.45h-1.8V1.718z M271.879,7.058h1.02v0.12
		h-1.02V7.058z M263.899,7.058h1.02v0.12h-1.02V7.058z M254.419,129.328h-3.96v-0.12h3.96V129.328z M254.419,7.178h-3.96v-0.12h3.96
		V7.178z M256.939,129.328h-1.02v-0.12h1.02V129.328z M256.939,7.178h-1.02v-0.12h1.02V7.178z M262.399,129.328h-3.96v-0.12h3.96
		V129.328z M262.399,7.178h-3.96v-0.12h3.96V7.178z M264.919,129.328h-1.02v-0.12h1.02V129.328z M270.379,129.328h-3.96v-0.12h0.993
		l-2.656-5.313l0.054-0.027v-0.06h5.4v0.06l0.054,0.027l-2.657,5.313h2.773V129.328z M270.379,7.178h-3.96v-0.12h0.993l-2.656-5.313
		l0.054-0.027v-0.06h5.4v0.06l0.054,0.027l-2.657,5.313h2.773V7.178z M271.879,129.208h1.02v0.12h-1.02V129.208z M274.659,134.268
		l-0.4-0.75c-0.15-0.3-0.25-0.45-0.3-0.55c-0.1-0.1-0.15-0.2-0.25-0.2c-0.05-0.05-0.15-0.1-0.3-0.1h-0.45v1.6h-0.35v-3.55h1.25
		c0.3,0,0.5,0.05,0.6,0.1c0.15,0.05,0.25,0.2,0.35,0.35c0.05,0.15,0.1,0.3,0.1,0.5c0,0.3-0.05,0.5-0.2,0.65
		c-0.15,0.2-0.35,0.3-0.6,0.35c0.1,0.05,0.15,0.1,0.25,0.2c0.1,0.1,0.2,0.25,0.3,0.45l0.5,0.95H274.659z M277.309,134.268h-1.8
		v-3.55h0.35v3.15h1.45V134.268z M278.359,129.328h-3.96v-0.12h3.96V129.328z M278.359,127.368l-1.1-3.5h0.4l0.75,2.55
		c0.1,0.2,0.15,0.4,0.15,0.6c0.05-0.1,0.05-0.2,0.1-0.3c0-0.1,0.05-0.2,0.1-0.3l0.75-2.55h0.4l-1.15,3.5H278.359z M280.709,132.718
		h-0.75v0.95h-0.35v-0.95h-0.8v-0.4h0.8v-0.95h0.35v0.95h0.75V132.718z M280.879,129.328h-1.02v-0.12h1.02V129.328z
		 M282.909,133.768c-0.1,0.2-0.2,0.35-0.35,0.4c-0.15,0.1-0.3,0.15-0.45,0.15c-0.3,0-0.55-0.15-0.7-0.4c-0.2-0.25-0.3-0.7-0.3-1.3
		c0-0.7,0.1-1.2,0.3-1.45c0.2-0.3,0.45-0.45,0.75-0.45c0.2,0,0.4,0.05,0.55,0.2c0.05,0.1,0.15,0.2,0.15,0.3
		c0.05,0.1,0.1,0.25,0.1,0.35l-0.35,0.05c0-0.2-0.05-0.3-0.15-0.4c-0.1-0.1-0.2-0.15-0.35-0.15c-0.2,0-0.35,0.15-0.5,0.4
		c-0.1,0.2-0.15,0.55-0.15,0.95c0.1-0.15,0.2-0.25,0.3-0.35c0.15-0.05,0.25-0.1,0.4-0.1c0.25,0,0.45,0.1,0.6,0.3
		c0.2,0.2,0.25,0.5,0.25,0.85C283.009,133.368,282.959,133.568,282.909,133.768z M285.059,133.868c-0.2,0.3-0.4,0.45-0.75,0.45
		c-0.25,0-0.5-0.15-0.65-0.4c-0.2-0.25-0.3-0.75-0.3-1.4c0-0.6,0.1-1.05,0.25-1.35s0.4-0.45,0.7-0.45s0.5,0.1,0.7,0.35
		c0.15,0.3,0.25,0.8,0.25,1.45C285.259,133.118,285.209,133.568,285.059,133.868z M287.309,133.868c-0.2,0.3-0.4,0.45-0.75,0.45
		c-0.25,0-0.5-0.15-0.65-0.4c-0.2-0.25-0.25-0.75-0.25-1.4c0-0.6,0.05-1.05,0.2-1.35c0.2-0.3,0.4-0.45,0.75-0.45
		c0.25,0,0.45,0.1,0.65,0.35c0.2,0.3,0.25,0.8,0.25,1.45C287.509,133.118,287.459,133.568,287.309,133.868z M287.559,127.368h-0.4
		v-2.75c-0.05,0.1-0.15,0.2-0.3,0.3c-0.15,0.1-0.3,0.15-0.4,0.2v-0.4c0.2-0.1,0.4-0.25,0.55-0.4c0.15-0.15,0.25-0.35,0.3-0.5h0.25
		V127.368z M288.509,134.268h-0.4v-0.5h0.4V134.268z M288.859,129.328h-1.02v-0.12h1.02V129.328z M288.109,12.118v-0.5h0.4v0.5
		H288.109z M288.859,7.178h-1.02v-0.12h1.02V7.178z M290.909,133.418h-0.4v0.85h-0.35v-0.85h-1.25v-0.4l1.3-2.3h0.3v2.3h0.4V133.418
		z M293.159,133.418h-0.4v0.85h-0.35v-0.85h-1.25v-0.4l1.35-2.3h0.25v2.3h0.4V133.418z M295.209,133.968
		c-0.2,0.25-0.45,0.35-0.75,0.35c-0.25,0-0.45-0.1-0.65-0.25c-0.15-0.2-0.25-0.4-0.25-0.75h0.35c0.05,0.2,0.1,0.35,0.2,0.5
		c0.1,0.1,0.2,0.15,0.35,0.15c0.15,0,0.3-0.1,0.45-0.25c0.1-0.15,0.2-0.35,0.2-0.6c0-0.3-0.1-0.45-0.2-0.6
		c-0.1-0.15-0.25-0.2-0.45-0.2c-0.1,0-0.2,0-0.3,0.05c-0.1,0.1-0.15,0.15-0.2,0.25l-0.35-0.05l0.25-1.8h1.45v0.4h-1.15l-0.15,0.95
		c0.15-0.15,0.35-0.2,0.55-0.2c0.25,0,0.45,0.1,0.65,0.3c0.15,0.2,0.25,0.5,0.25,0.85
		C295.459,133.418,295.359,133.718,295.209,133.968z M294.609,127.468c-0.4,0-0.75-0.2-1-0.6c-0.25-0.3-0.4-0.75-0.4-1.2
		c0-0.6,0.15-1.05,0.4-1.4c0.3-0.3,0.6-0.5,1-0.5c0.25,0,0.5,0.1,0.7,0.25c0.25,0.15,0.4,0.35,0.5,0.6c0.15,0.3,0.2,0.6,0.2,1
		c0,0.55-0.1,0.95-0.35,1.3S295.059,127.468,294.609,127.468z M296.839,129.328h-1.02v-0.12h1.02V129.328z M298.459,125.668
		c-0.15,0.2-0.45,0.3-0.85,0.3h-0.75v1.4h-0.35v-3.5h1.1c0.25,0,0.45,0,0.55,0.05c0.15,0.05,0.3,0.15,0.4,0.35
		c0.1,0.15,0.15,0.35,0.15,0.6C298.709,125.168,298.609,125.468,298.459,125.668z M298.459,3.518c-0.15,0.2-0.45,0.3-0.85,0.3h-0.75
		v1.45h-0.35v-3.55h1.1c0.25,0,0.45,0,0.55,0.05c0.15,0.1,0.3,0.2,0.4,0.35c0.1,0.15,0.15,0.4,0.15,0.6
		C298.709,3.068,298.609,3.318,298.459,3.518z M302.659,126.918c-0.3,0.35-0.6,0.55-1.05,0.55c-0.4,0-0.75-0.2-1.05-0.6
		c-0.2-0.3-0.35-0.75-0.35-1.2c0-0.6,0.15-1.05,0.4-1.4c0.3-0.3,0.6-0.5,1-0.5c0.25,0,0.5,0.1,0.7,0.25c0.2,0.15,0.4,0.35,0.5,0.6
		c0.15,0.3,0.2,0.6,0.2,1C303.009,126.168,302.859,126.568,302.659,126.918z M302.659,4.768c-0.3,0.35-0.6,0.55-1.05,0.55
		c-0.4,0-0.75-0.2-1.05-0.55c-0.2-0.35-0.35-0.75-0.35-1.25c0-0.6,0.15-1.05,0.4-1.4c0.3-0.3,0.6-0.45,1-0.45
		c0.25,0,0.5,0.05,0.7,0.2c0.2,0.15,0.4,0.35,0.5,0.65c0.15,0.25,0.2,0.6,0.2,0.95C303.009,4.018,302.859,4.468,302.659,4.768z
		 M305.459,124.268h-1.55v1.1h1.35v0.4h-1.35v1.6h-0.4v-3.5h1.95V124.268z M305.459,2.118h-1.55v1.1h1.35v0.45h-1.35v1.6h-0.4v-3.55
		h1.95V2.118z M309.159,126.918c-0.1,0.2-0.25,0.3-0.4,0.4c-0.15,0.1-0.35,0.15-0.6,0.15c-0.35,0-0.65-0.15-0.85-0.35
		c-0.1-0.1-0.2-0.25-0.25-0.35c-0.05-0.15-0.1-0.35-0.1-0.5l0.35-0.05c0.05,0.2,0.1,0.35,0.15,0.45c0.05,0.1,0.15,0.2,0.3,0.25
		c0.1,0.05,0.25,0.1,0.45,0.1c0.2,0,0.4-0.05,0.5-0.15c0.15-0.1,0.2-0.25,0.2-0.45c0-0.1,0-0.2-0.05-0.25
		c-0.05-0.1-0.15-0.15-0.25-0.2c-0.05-0.05-0.25-0.15-0.6-0.2c-0.25-0.1-0.45-0.2-0.55-0.25c-0.15-0.1-0.2-0.2-0.3-0.35
		c-0.05-0.1-0.1-0.25-0.1-0.4c0-0.3,0.1-0.55,0.3-0.7c0.2-0.2,0.45-0.3,0.75-0.3c0.2,0,0.4,0.05,0.55,0.15
		c0.15,0.1,0.3,0.2,0.4,0.35c0.1,0.15,0.15,0.35,0.15,0.55l-0.4,0.05c0-0.2-0.05-0.4-0.2-0.5c-0.1-0.1-0.3-0.15-0.5-0.15
		s-0.4,0.05-0.5,0.1c-0.1,0.1-0.15,0.25-0.15,0.4s0.05,0.25,0.1,0.35c0.1,0.05,0.3,0.15,0.6,0.25c0.25,0.05,0.45,0.1,0.6,0.2
		c0.15,0.05,0.3,0.2,0.4,0.35c0.1,0.15,0.1,0.3,0.1,0.5C309.259,126.568,309.209,126.768,309.159,126.918z M309.159,4.818
		c-0.1,0.15-0.25,0.3-0.4,0.35c-0.15,0.1-0.35,0.15-0.6,0.15c-0.35,0-0.65-0.1-0.85-0.3c-0.1-0.15-0.2-0.25-0.25-0.4
		c-0.05-0.15-0.1-0.3-0.1-0.5l0.35-0.05c0.05,0.2,0.1,0.35,0.15,0.45c0.05,0.15,0.15,0.2,0.3,0.3c0.1,0.05,0.25,0.1,0.45,0.1
		c0.2,0,0.4-0.1,0.5-0.2c0.15-0.1,0.2-0.25,0.2-0.4c0-0.15,0-0.2-0.05-0.3c-0.05-0.05-0.15-0.15-0.25-0.2
		c-0.05-0.05-0.25-0.1-0.6-0.2c-0.25-0.1-0.45-0.15-0.55-0.25c-0.15-0.1-0.2-0.2-0.3-0.3c-0.05-0.15-0.1-0.3-0.1-0.45
		c0-0.25,0.1-0.5,0.3-0.7c0.2-0.15,0.45-0.25,0.75-0.25c0.2,0,0.4,0.05,0.55,0.1c0.15,0.1,0.3,0.2,0.4,0.4
		c0.1,0.15,0.15,0.35,0.15,0.55l-0.4,0.05c0-0.25-0.05-0.4-0.2-0.55c-0.1-0.1-0.3-0.15-0.5-0.15s-0.4,0.05-0.5,0.15
		c-0.1,0.1-0.15,0.2-0.15,0.35c0,0.15,0.05,0.3,0.1,0.35c0.1,0.1,0.3,0.15,0.6,0.25c0.25,0.1,0.45,0.15,0.6,0.2
		c0.15,0.1,0.3,0.2,0.4,0.35c0.1,0.15,0.1,0.35,0.1,0.55S309.209,4.668,309.159,4.818z M311.609,127.368h-1.85v-3.5h0.4v3.1h1.45
		V127.368z M311.609,5.268h-1.85v-3.55h0.4v3.1h1.45V5.268z M314.009,127.368l-0.35-1.05h-1.2l-0.3,1.05h-0.4l1.1-3.5h0.4l1.2,3.5
		H314.009z M314.009,5.268l-0.35-1.1h-1.2l-0.3,1.1h-0.4l1.1-3.55h0.4l1.2,3.55H314.009z M316.809,126.918
		c-0.1,0.15-0.2,0.3-0.35,0.35c-0.15,0.1-0.35,0.1-0.6,0.1h-1.1v-3.5h1.1c0.2,0,0.4,0,0.5,0.1c0.15,0.05,0.25,0.15,0.35,0.3
		c0.05,0.15,0.1,0.3,0.1,0.5c0,0.15-0.05,0.3-0.1,0.4c-0.1,0.15-0.2,0.25-0.3,0.35c0.15,0.05,0.3,0.15,0.4,0.3
		c0.1,0.15,0.15,0.35,0.15,0.55S316.909,126.768,316.809,126.918z M316.809,4.818c-0.1,0.15-0.2,0.25-0.35,0.35
		c-0.15,0.05-0.35,0.1-0.6,0.1h-1.1v-3.55h1.1c0.2,0,0.4,0.05,0.5,0.1c0.15,0.05,0.25,0.2,0.35,0.3c0.05,0.15,0.1,0.35,0.1,0.5
		c0,0.15-0.05,0.3-0.1,0.45c-0.1,0.1-0.2,0.25-0.3,0.3c0.15,0.05,0.3,0.15,0.4,0.3c0.1,0.15,0.15,0.35,0.15,0.55
		C316.959,4.468,316.909,4.618,316.809,4.818z"/>
	<path fill="#FFFFFF" d="M316.259,3.668c-0.1,0-0.25-0.05-0.45-0.05h-0.7v1.2h0.75h0.35c0.1-0.05,0.2-0.15,0.25-0.25
		c0.05-0.05,0.1-0.2,0.1-0.35c0-0.1-0.05-0.25-0.1-0.35C316.409,3.818,316.359,3.718,316.259,3.668z"/>
	<rect x="215.379" y="15.278" width="0.36" height="113.63"/>
	<polygon points="110.599,6.758 110.554,6.758 110.599,6.803 	"/>
	<polygon points="23.53,6.758 4.639,6.758 4.639,6.938 23.706,6.938 	"/>
	<polygon points="24.049,6.758 24.034,6.758 24.049,6.773 	"/>
	<path d="M215.559,7.298h-8.5h-82.397l0.176,0.18h86.411v-0.17h0.12v0.17h36.89v-0.72h-32.52v0.36
		C215.739,7.218,215.659,7.298,215.559,7.298z"/>
	<polygon points="24.058,7.298 4.459,7.298 0,7.298 0,7.478 24.233,7.478 	"/>
	<polygon points="206.879,6.938 206.879,6.758 124.269,6.758 124.269,6.896 124.31,6.938 	"/>
	<polygon points="124.149,6.758 124.134,6.758 124.149,6.774 	"/>
	<rect x="207.239" y="6.758" width="8.14" height="0.18"/>
	<rect y="6.758" width="4.279" height="0.18"/>
	<polygon points="111.094,7.298 111.273,7.478 124.333,7.478 124.158,7.298 	"/>
	<polygon points="24.562,7.298 24.738,7.478 110.764,7.478 110.584,7.298 	"/>
	<polygon points="123.805,6.938 123.63,6.758 110.719,6.758 110.719,6.923 110.733,6.938 	"/>
	<polygon points="110.224,6.938 110.044,6.758 24.169,6.758 24.169,6.896 24.21,6.938 	"/>
	<rect x="4.639" y="15.099" width="202.24" height="0.18"/>
	<path d="M4.279,15.098v-0.18c0-0.1,0.081-0.18,0.18-0.18h202.6c0.1,0,0.18,0.081,0.18,0.18v0.18v0.18h8.14h0.36h32.52v-0.72H0v0.72
		h4.279V15.098z"/>
	<polygon points="111.127,129.449 111.311,129.628 184.499,129.628 184.499,129.449 	"/>
	<polygon points="76.529,128.981 76.529,128.909 76.463,128.909 	"/>
	<path d="M207.239,128.909v0.179v0.181c0,0.1-0.081,0.18-0.18,0.18h-22.032l0.184,0.18h26.038v-0.1h0.12v0.1h36.89v-0.72h-32.52
		h-0.36H207.239z M214.649,129.208v0.12h-3.96v-0.12H214.649z M209.189,129.208v0.12h-1.02v-0.12H209.189z M242.609,129.208h3.96
		v0.12h-3.96V129.208z M240.089,129.208h1.02v0.12h-1.02V129.208z M234.629,129.208h3.96v0.12h-3.96V129.208z M232.109,129.208h1.02
		v0.12h-1.02V129.208z M226.649,129.208h3.96v0.12h-3.96V129.208z M224.129,129.208h1.02v0.12h-1.02V129.208z M218.669,129.208h3.96
		v0.12h-3.96V129.208z M216.149,129.208h1.02v0.12h-1.02V129.208z"/>
	<polygon points="4.639,128.982 4.706,128.909 4.639,128.909 	"/>
	<path d="M89.534,129.449H4.459c-0.076,0-0.129-0.053-0.155-0.12H3.209v-0.12h1.07v-0.121v-0.179H0v0.72h89.714L89.534,129.449z
		 M0.689,129.328v-0.12h1.02v0.12H0.689z"/>
	<polygon points="184.619,129.05 184.658,129.088 206.879,129.088 206.879,128.909 184.619,128.909 	"/>
	<polygon points="184.499,128.933 184.499,128.909 184.474,128.909 	"/>
	<polygon points="89.504,128.909 89.549,128.953 89.549,128.909 	"/>
	<polygon points="76.889,128.909 76.889,129.088 89.174,129.088 88.994,128.909 	"/>
	<polygon points="184.619,129.628 184.695,129.628 184.619,129.554 	"/>
	<polygon points="89.669,128.909 89.669,129.074 89.684,129.088 110.242,129.088 110.059,128.909 	"/>
	<polygon points="110.599,128.909 110.574,128.909 110.599,128.932 	"/>
	<polygon points="90.044,129.449 90.224,129.628 110.795,129.628 110.611,129.449 	"/>
	<polygon points="4.868,128.909 4.704,129.088 76.464,129.088 76.3,128.909 	"/>
	<polygon points="110.719,128.909 110.719,129.05 110.758,129.088 184.142,129.088 183.958,128.909 	"/>
	<rect y="140.208" width="211.249" height="0.72"/>
	<rect x="211.369" y="140.208" width="36.89" height="0.72"/>
	<polygon points="4.519,129.114 4.639,128.982 4.639,128.909 4.639,50.205 4.542,50.099 4.519,50.099 	"/>
	<path d="M206.879,41.428v87.48v0.18h-22.221l0.123,0.12h0.468h1.5h0.71h3.25v0.12h-3.25h-0.71h-1.5h-0.345l0.123,0.12h22.032
		c0.1,0,0.18-0.081,0.18-0.18v-0.181v-0.179v-87.48H206.879z M193.229,129.328h-1.02v-0.12h1.02V129.328z M198.689,129.328h-3.96
		v-0.12h3.96V129.328z M201.209,129.328h-1.02v-0.12h1.02V129.328z M206.669,129.328h-3.96v-0.12h3.96V129.328z"/>
	<path d="M88.469,129.328h-1.5h-0.26h-3.7v-0.12h3.7h0.26h1.5h0.825l-0.12-0.12H76.889v0.12h2.1v0.12h-3.96v-0.12h1.5v-0.049
		l-0.065-0.072H4.704l-0.109,0.12h2.574v0.12H4.304c0.026,0.067,0.079,0.12,0.155,0.12h85.075l-0.12-0.12H88.469z M9.689,129.328
		h-1.02v-0.12h1.02V129.328z M15.149,129.328h-3.96v-0.12h3.96V129.328z M17.669,129.328h-1.02v-0.12h1.02V129.328z M23.129,129.328
		h-3.96v-0.12h3.96V129.328z M25.649,129.328h-1.02v-0.12h1.02V129.328z M31.109,129.328h-3.96v-0.12h3.96V129.328z M33.629,129.328
		h-1.02v-0.12h1.02V129.328z M39.089,129.328h-3.96v-0.12h3.96V129.328z M41.609,129.328h-1.02v-0.12h1.02V129.328z M47.069,129.328
		h-3.96v-0.12h3.96V129.328z M49.589,129.328h-1.02v-0.12h1.02V129.328z M55.049,129.328h-3.96v-0.12h3.96V129.328z M57.569,129.328
		h-1.02v-0.12h1.02V129.328z M63.029,129.328h-3.96v-0.12h3.96V129.328z M65.549,129.328h-1.02v-0.12h1.02V129.328z M71.009,129.328
		h-3.96v-0.12h3.96V129.328z M73.529,129.328h-1.02v-0.12h1.02V129.328z M81.509,129.328h-1.02v-0.12h1.02V129.328z"/>
	<path d="M106.949,129.328v-0.12h0.81h2.607l-0.123-0.12H89.684l0.12,0.12h1.186h1.52h2.44v0.12h-2.44h-1.52h-1.065l0.12,0.12
		h20.567l-0.123-0.12h-2.729H106.949z M97.469,129.328h-1.02v-0.12h1.02V129.328z M102.929,129.328h-3.96v-0.12h3.96V129.328z
		 M105.449,129.328h-1.02v-0.12h1.02V129.328z"/>
	<path d="M184.229,129.328h-1.5h-1.07h-2.89v-0.12h2.89h1.07h1.5h0.036l-0.123-0.12h-73.384l0.123,0.12h0.028h1.5h1.02h0.13v0.12
		h-0.13h-1.02h-1.405l0.123,0.12h73.372v-0.012l-0.111-0.108H184.229z M118.889,129.328h-3.96v-0.12h3.96V129.328z M121.409,129.328
		h-1.02v-0.12h1.02V129.328z M126.869,129.328h-3.96v-0.12h3.96V129.328z M129.389,129.328h-1.02v-0.12h1.02V129.328z
		 M134.849,129.328h-3.96v-0.12h3.96V129.328z M137.369,129.328h-1.02v-0.12h1.02V129.328z M142.829,129.328h-3.96v-0.12h3.96
		V129.328z M145.349,129.328h-1.02v-0.12h1.02V129.328z M150.809,129.328h-3.96v-0.12h3.96V129.328z M153.329,129.328h-1.02v-0.12
		h1.02V129.328z M158.789,129.328h-3.96v-0.12h3.96V129.328z M161.309,129.328h-1.02v-0.12h1.02V129.328z M166.769,129.328h-3.96
		v-0.12h3.96V129.328z M169.289,129.328h-1.02v-0.12h1.02V129.328z M174.749,129.328h-3.96v-0.12h3.96V129.328z M177.269,129.328
		h-1.02v-0.12h1.02V129.328z"/>
	<path d="M4.399,49.918l0.06-0.023v-0.157h0.18v-34.46v-0.18h202.24v0.18v26.03h0.36v-26.03v-0.18v-0.18c0-0.1-0.081-0.18-0.18-0.18
		H4.459c-0.1,0-0.18,0.081-0.18,0.18v0.18v0.18v113.63v0.179v0.121h0.12V49.918z"/>
	<path d="M21.209,7.178v-0.12h2.614l-0.117-0.12H4.639v0.18c0,0.1-0.081,0.18-0.18,0.18h19.599l-0.117-0.12H21.209z"/>
	<path d="M124.427,7.058h2.732v0.12h-2.614l0.117,0.12h82.397c-0.1,0-0.18-0.081-0.18-0.18v-0.18H124.31L124.427,7.058z"/>
	<polygon points="107.759,7.058 110.344,7.058 110.224,6.938 24.21,6.938 24.327,7.058 27.059,7.058 27.059,7.178 24.445,7.178 
		24.562,7.298 110.584,7.298 110.464,7.178 107.759,7.178 	"/>
	<polygon points="121.309,7.058 123.923,7.058 123.805,6.938 110.733,6.938 110.854,7.058 113.559,7.058 113.559,7.178 
		110.974,7.178 111.094,7.298 124.158,7.298 124.04,7.178 121.309,7.178 	"/>
	<path d="M136.259,120.948h39.65c0.1,0,0.18-0.081,0.18-0.18v-70.85c0-0.1-0.081-0.18-0.18-0.18h-39.65c-0.1,0-0.18,0.081-0.18,0.18
		v70.85C136.079,120.868,136.159,120.948,136.259,120.948z M136.207,49.948l0.104-0.059l0.128,0.229v-0.02h39.29v0.019l0.127-0.228
		l0.112,0.029v70.85l-0.112,0.029l-0.127-0.228v0.018h-39.29v-0.019l-0.128,0.229l-0.104-0.059l0.232-0.415V50.363L136.207,49.948z"
		/>
	<polygon points="175.849,120.538 175.849,50.148 175.729,50.362 175.729,120.325 	"/>
	<path d="M136.439,120.324l-0.232,0.415l0.104,0.059l0.128-0.229l19.645-35.103l19.645,35.104l0.127,0.228l0.112-0.029v-70.85
		l-0.112-0.029l-0.127,0.228l-19.645,35.104l-19.645-35.103l-0.128-0.229l-0.104,0.059l0.232,0.415l19.576,34.98L136.439,120.324z
		 M175.729,50.362l0.12-0.214v70.39l-0.12-0.214l-19.577-34.982L175.729,50.362z"/>
	<polygon points="110.733,6.938 110.719,6.923 110.719,7.058 110.854,7.058 	"/>
	<polygon points="110.344,7.058 110.599,7.058 110.599,6.803 110.554,6.758 109.687,5.891 109.432,6.146 110.044,6.758 
		110.224,6.938 	"/>
	<polygon points="110.974,7.178 110.464,7.178 110.584,7.298 110.764,7.478 111.631,8.346 111.886,8.091 111.273,7.478 
		111.094,7.298 	"/>
	<polygon points="107.759,7.058 107.759,7.178 110.464,7.178 110.974,7.178 113.559,7.178 113.559,7.058 110.854,7.058 
		110.719,7.058 110.719,7.118 110.599,7.118 110.599,7.058 110.344,7.058 	"/>
	<polygon points="110.599,6.803 110.599,7.058 110.599,7.118 110.719,7.118 110.719,7.058 110.719,6.923 110.719,6.758 110.719,0 
		110.599,0 110.599,6.758 	"/>
	<polygon points="110.719,129.208 110.881,129.208 110.758,129.088 110.719,129.05 	"/>
	<polygon points="110.599,128.932 110.574,128.909 109.685,128.039 109.433,128.297 110.059,128.909 110.242,129.088 
		110.365,129.208 110.599,129.208 	"/>
	<polygon points="111.004,129.328 110.909,129.328 110.488,129.328 110.611,129.449 110.795,129.628 111.633,130.447 
		111.885,130.189 111.311,129.628 111.127,129.449 	"/>
	<polygon points="109.685,26.039 109.433,26.297 110.314,27.158 110.83,27.158 	"/>
	<polygon points="110.437,27.278 110.599,27.436 110.599,27.278 	"/>
	<polygon points="110.719,27.554 111.633,28.447 111.885,28.189 110.953,27.278 110.719,27.278 	"/>
	<polygon points="112.409,129.208 110.909,129.208 110.909,129.328 111.004,129.328 112.409,129.328 	"/>
	<rect x="113.429" y="129.208" width="0.13" height="0.12"/>
	<polygon points="110.599,27.218 110.719,27.218 110.719,27.278 110.953,27.278 113.559,27.278 113.559,27.158 110.83,27.158 
		110.314,27.158 107.759,27.158 107.759,27.278 110.437,27.278 110.599,27.278 	"/>
	<polygon points="110.719,129.05 110.719,128.909 110.719,27.554 110.719,27.278 110.719,27.218 110.599,27.218 110.599,27.278 
		110.599,27.436 110.599,128.909 110.599,128.932 110.599,129.208 110.719,129.208 	"/>
	<rect x="122.499" y="27.158" width="0.48" height="0.12"/>
	<rect x="124.479" y="27.158" width="0.48" height="0.12"/>
	<rect x="142.299" y="27.158" width="0.48" height="0.12"/>
	<rect x="138.339" y="27.158" width="0.48" height="0.12"/>
	<rect x="114.579" y="27.158" width="0.48" height="0.12"/>
	<rect x="116.559" y="27.158" width="0.48" height="0.12"/>
	<rect x="140.319" y="27.158" width="0.48" height="0.12"/>
	<rect x="126.459" y="27.158" width="0.48" height="0.12"/>
	<polygon points="144.614,27.158 144.279,27.158 144.279,27.278 144.615,27.278 144.674,27.218 	"/>
	<rect x="130.419" y="27.158" width="0.48" height="0.12"/>
	<path d="M136.839,27.158h-0.397c0,0.02-0.003,0.04-0.003,0.06s0.003,0.04,0.003,0.06h0.397V27.158z"/>
	<rect x="132.399" y="27.158" width="0.48" height="0.12"/>
	<rect x="118.539" y="27.158" width="0.48" height="0.12"/>
	<rect x="120.519" y="27.158" width="0.48" height="0.12"/>
	<rect x="134.379" y="27.158" width="0.48" height="0.12"/>
	<rect x="128.439" y="27.158" width="0.48" height="0.12"/>
	<path d="M153.218,25.306l2.105,0.438l0.073-0.353l-1.915-0.399l-0.32,0.084C153.18,25.154,153.2,25.229,153.218,25.306z"/>
	<path d="M152.802,25.13c-0.006-0.022-0.011-0.043-0.016-0.065c0,0.016-0.005,0.032-0.001,0.048
		C152.787,25.122,152.799,25.122,152.802,25.13z"/>
	<path d="M153.458,24.874l1.469-1.27l-0.235-0.272l-1.618,1.4c0.023,0.075,0.037,0.153,0.058,0.229L153.458,24.874z"/>
	<path d="M153.16,25.077l0.32-0.084l14.844-3.916l-0.03-0.116l-14.836,3.914l-0.327,0.086
		C153.141,24.999,153.15,25.039,153.16,25.077z"/>
	<path d="M144.759,35.898c2.337,0,4.513-0.889,6.127-2.502c1.646-1.646,2.553-3.84,2.553-6.178c0-0.651-0.08-1.29-0.221-1.912
		c-0.017-0.077-0.038-0.153-0.058-0.229c-0.01-0.039-0.019-0.078-0.029-0.116c-0.021-0.076-0.035-0.154-0.058-0.229
		c-0.408-1.357-1.15-2.604-2.187-3.641c-1.646-1.646-3.822-2.553-6.127-2.553c-2.322,0-4.556,0.931-6.127,2.553
		c-1.646,1.646-2.553,3.822-2.553,6.127c0,2.337,0.907,4.531,2.551,6.176C140.172,34.985,142.406,35.898,144.759,35.898z
		 M138.716,21.261l0.085-0.085l0.129,0.129c1.503-1.529,3.623-2.406,5.829-2.406c2.189,0,4.255,0.856,5.828,2.407l0.13-0.13
		l0.085,0.085l-0.13,0.13c1.029,1.043,1.745,2.306,2.114,3.675c0.006,0.022,0.011,0.043,0.016,0.065
		c0.176,0.675,0.276,1.374,0.276,2.088c0,2.221-0.856,4.305-2.406,5.878l0.129,0.13l-0.085,0.085l-0.129-0.13
		c-1.542,1.519-3.608,2.357-5.829,2.357c-2.235,0-4.354-0.859-5.829-2.357l-0.129,0.13l-0.085-0.085l0.129-0.13
		c-1.537-1.559-2.388-3.62-2.403-5.818c0-0.02-0.003-0.04-0.003-0.06s0.003-0.04,0.003-0.06c0.016-2.166,0.867-4.208,2.404-5.768
		L138.716,21.261z"/>
	<polygon points="76.529,128.981 76.463,128.909 40.665,89.594 76.529,50.206 76.529,50.099 76.464,50.099 40.584,89.504 
		4.704,50.099 4.542,50.099 4.639,50.205 40.503,89.594 4.706,128.909 4.639,128.982 4.519,129.114 4.519,50.099 4.459,50.099 
		4.459,49.895 4.399,49.918 4.399,129.208 4.595,129.208 4.704,129.088 4.868,128.909 40.584,89.682 76.3,128.909 76.464,129.088 
		76.529,129.16 	"/>
	<polygon points="144.674,27.218 144.716,27.176 144.801,27.176 144.844,27.218 150.672,21.39 150.801,21.261 150.716,21.176 
		150.587,21.305 144.759,27.133 138.93,21.305 138.801,21.176 138.716,21.261 138.846,21.39 144.614,27.158 	"/>
	<polygon points="144.801,27.176 144.716,27.176 144.674,27.218 144.615,27.278 138.845,33.096 138.716,33.226 138.801,33.311 
		138.93,33.181 144.759,27.304 150.587,33.181 150.716,33.311 150.801,33.226 150.672,33.096 144.844,27.218 	"/>
	<polygon points="76.889,49.918 76.709,49.918 76.709,50.099 76.529,50.099 76.529,50.206 76.529,128.909 76.529,128.981 
		76.529,129.16 76.529,129.208 76.889,129.208 76.889,129.088 76.889,128.909 	"/>
	<polygon points="4.519,50.099 4.542,50.099 4.704,50.099 76.464,50.099 76.529,50.099 76.709,50.099 76.709,49.918 76.709,49.738 
		4.639,49.738 4.459,49.738 4.459,49.895 4.459,50.099 	"/>
	<path d="M107.059,81.718l0.05-0.3c-0.2-0.05-0.3-0.1-0.4-0.15c-0.1-0.1-0.15-0.2-0.15-0.3s0.05-0.2,0.15-0.25
		c0.1-0.1,0.2-0.15,0.3-0.15c0.15,0,0.3,0.05,0.4,0.15c0.05,0.1,0.1,0.2,0.1,0.35v0.05l0.3,0.05v-0.2c0-0.15,0.05-0.25,0.15-0.35
		c0.1-0.1,0.2-0.15,0.4-0.15c0.15,0,0.3,0.05,0.45,0.15c0.1,0.1,0.15,0.25,0.15,0.35c0,0.25-0.2,0.4-0.55,0.45v0.3
		c0.25,0,0.45-0.1,0.6-0.25c0.15-0.1,0.25-0.3,0.25-0.5s-0.1-0.4-0.25-0.55c-0.2-0.15-0.4-0.25-0.65-0.25c-0.15,0-0.25,0-0.35,0.05
		c-0.1,0.05-0.2,0.1-0.25,0.15c-0.05,0.05-0.1,0.15-0.15,0.25c-0.05-0.1-0.1-0.2-0.2-0.25c-0.1-0.05-0.25-0.1-0.35-0.1
		c-0.25,0-0.4,0.1-0.55,0.2c-0.15,0.15-0.2,0.3-0.2,0.5s0.05,0.35,0.15,0.5C106.609,81.568,106.809,81.668,107.059,81.718z"/>
	<path d="M107.859,79.918c0.5,0,0.85-0.1,1.05-0.25c0.25-0.15,0.35-0.35,0.35-0.6c0-0.15-0.05-0.25-0.1-0.35
		c-0.1-0.15-0.2-0.2-0.35-0.3c-0.2-0.05-0.35-0.1-0.55-0.1c-0.3,0-0.5,0.05-0.7,0.2c-0.15,0.15-0.25,0.3-0.25,0.5
		c0,0.1,0.05,0.25,0.1,0.35c0.05,0.1,0.15,0.15,0.3,0.25c-0.35,0-0.65-0.05-0.8-0.15c-0.2-0.1-0.35-0.25-0.35-0.4
		c0-0.1,0.05-0.2,0.15-0.3c0.05-0.05,0.2-0.1,0.35-0.1l-0.05-0.3c-0.1,0-0.2,0.05-0.3,0.05c-0.1,0.05-0.2,0.1-0.25,0.15
		c-0.1,0.15-0.15,0.3-0.15,0.45c0,0.25,0.1,0.5,0.35,0.65C106.859,79.818,107.259,79.918,107.859,79.918z M107.609,79.068
		c0-0.1,0.1-0.2,0.2-0.3c0.1-0.1,0.25-0.15,0.45-0.15c0.25,0,0.4,0.05,0.5,0.15c0.15,0.1,0.2,0.2,0.2,0.3c0,0.15-0.05,0.25-0.2,0.35
		c-0.1,0.1-0.3,0.15-0.5,0.15c-0.2,0-0.35-0.05-0.45-0.15C107.709,79.318,107.609,79.218,107.609,79.068z"/>
	<path d="M106.659,77.818c0.25,0.15,0.6,0.2,1.1,0.2c0.55,0,0.95-0.05,1.15-0.2c0.25-0.15,0.35-0.35,0.35-0.55
		c0-0.25-0.15-0.45-0.4-0.6c-0.25-0.15-0.6-0.2-1.1-0.2c-0.55,0-0.9,0.1-1.15,0.25c-0.2,0.15-0.3,0.3-0.3,0.55
		S106.409,77.718,106.659,77.818z M106.809,76.918c0.15-0.1,0.5-0.15,0.95-0.15c0.5,0,0.8,0.05,0.95,0.15
		c0.15,0.1,0.25,0.2,0.25,0.35c0,0.1-0.1,0.25-0.25,0.35c-0.15,0.05-0.45,0.1-0.95,0.1c-0.45,0-0.75-0.05-0.95-0.1
		c-0.15-0.1-0.25-0.2-0.25-0.35C106.559,77.118,106.659,77.018,106.809,76.918z"/>
	<path d="M106.659,75.968c0.25,0.15,0.6,0.2,1.1,0.2c0.55,0,0.95-0.05,1.15-0.2c0.25-0.15,0.35-0.35,0.35-0.55
		c0-0.25-0.15-0.45-0.4-0.6c-0.25-0.15-0.6-0.2-1.1-0.2c-0.55,0-0.9,0.1-1.15,0.25c-0.2,0.15-0.3,0.3-0.3,0.55
		S106.409,75.868,106.659,75.968z M106.809,75.068c0.15-0.1,0.5-0.15,0.95-0.15c0.5,0,0.8,0.05,0.95,0.15
		c0.15,0.1,0.25,0.2,0.25,0.35c0,0.1-0.1,0.25-0.25,0.3c-0.15,0.1-0.45,0.15-0.95,0.15c-0.45,0-0.75-0.05-0.95-0.1
		c-0.15-0.1-0.25-0.2-0.25-0.35S106.659,75.168,106.809,75.068z"/>
	<path d="M162.609,18.818c0-0.15,0-0.3,0.05-0.4c0.05-0.1,0.15-0.2,0.25-0.2c0.1-0.05,0.2,0,0.3,0.05c0.1,0.05,0.15,0.15,0.2,0.3
		c0.05,0.1,0,0.25-0.05,0.35c-0.05,0.1-0.15,0.2-0.3,0.2l-0.05,0.05l0.05,0.3c0.1-0.05,0.15-0.1,0.2-0.1c0.1-0.05,0.25,0,0.35,0.05
		c0.1,0.1,0.2,0.2,0.25,0.4c0.05,0.15,0,0.3-0.05,0.45c-0.05,0.1-0.15,0.2-0.3,0.25c-0.2,0.05-0.4-0.1-0.6-0.45l-0.25,0.15
		c0.1,0.2,0.2,0.4,0.4,0.5c0.15,0.1,0.35,0.1,0.55,0.05s0.35-0.15,0.5-0.35c0.1-0.2,0.1-0.45,0.05-0.7
		c-0.05-0.15-0.1-0.25-0.15-0.35c-0.05-0.05-0.15-0.15-0.2-0.15c-0.1-0.05-0.2-0.1-0.25-0.1c0.05-0.05,0.1-0.15,0.15-0.3
		c0.05-0.1,0-0.2,0-0.35c-0.05-0.2-0.2-0.35-0.35-0.45c-0.15-0.1-0.35-0.15-0.5-0.1c-0.2,0.05-0.35,0.15-0.45,0.3
		c-0.05,0.15-0.1,0.35-0.05,0.6H162.609z"/>
	<path d="M164.809,20.118c0.15,0.2,0.4,0.25,0.6,0.2c0.25-0.05,0.4-0.25,0.45-0.5c0.1-0.3,0.05-0.65-0.1-1.15
		c-0.1-0.5-0.3-0.85-0.5-1.05c-0.2-0.2-0.4-0.25-0.6-0.15c-0.25,0.05-0.4,0.2-0.45,0.5c-0.1,0.25-0.05,0.65,0.05,1.1
		C164.409,19.618,164.609,19.968,164.809,20.118z M164.459,18.068c0.05-0.2,0.15-0.3,0.25-0.35c0.15,0,0.3,0,0.4,0.15
		c0.15,0.15,0.25,0.45,0.4,0.9c0.1,0.45,0.15,0.75,0.1,0.95c-0.05,0.15-0.15,0.25-0.25,0.3c-0.15,0.05-0.3,0-0.4-0.15
		c-0.15-0.1-0.25-0.4-0.4-0.85C164.459,18.568,164.409,18.218,164.459,18.068z"/>
	<path d="M166.559,19.668c0.2,0.15,0.4,0.25,0.65,0.15c0.25-0.05,0.4-0.2,0.45-0.5c0.05-0.25,0.05-0.65-0.1-1.1
		c-0.1-0.55-0.3-0.9-0.5-1.1c-0.2-0.15-0.4-0.2-0.6-0.15c-0.25,0.05-0.4,0.25-0.5,0.5c-0.05,0.3,0,0.65,0.1,1.15
		C166.209,19.118,166.359,19.468,166.559,19.668z M166.259,17.568c0.05-0.15,0.1-0.3,0.25-0.3c0.15-0.05,0.25,0,0.4,0.15
		c0.15,0.1,0.25,0.4,0.35,0.85c0.15,0.45,0.2,0.8,0.15,0.95c-0.05,0.2-0.15,0.3-0.3,0.35c-0.1,0-0.25-0.05-0.35-0.15
		c-0.15-0.15-0.3-0.45-0.4-0.9C166.259,18.068,166.209,17.768,166.259,17.568z"/>
	<path d="M159.059,21.918l-0.3-1.2l0.35-0.1c0.1-0.05,0.15-0.05,0.25-0.05c0.05,0,0.1,0.05,0.2,0.15c0.1,0.05,0.2,0.15,0.4,0.35
		l0.45,0.5l0.4-0.1l-0.6-0.65c-0.1-0.1-0.25-0.2-0.35-0.3c-0.05-0.05-0.15-0.05-0.25-0.1c0.2-0.1,0.35-0.2,0.45-0.35
		c0.05-0.2,0.05-0.35,0-0.6c-0.05-0.15-0.1-0.25-0.2-0.4c-0.1-0.1-0.2-0.15-0.3-0.15c-0.15-0.05-0.3-0.05-0.5,0.05l-1.05,0.25
		l0.75,2.8L159.059,21.918z M158.409,19.468l0.75-0.2c0.15-0.05,0.3-0.05,0.4,0c0.1,0.05,0.15,0.15,0.2,0.3v0.3
		c0,0.05-0.05,0.15-0.15,0.2c-0.05,0.05-0.15,0.1-0.3,0.15l-0.65,0.15L158.409,19.468z"/>
	<path d="M4.639,7.118v-0.18v-0.18V0h-0.36v6.758v0.18H0v0.36h4.459C4.559,7.298,4.639,7.218,4.639,7.118z"/>
	<path d="M206.879,6.938v0.18c0,0.1,0.081,0.18,0.18,0.18h8.5c0.1,0,0.18-0.081,0.18-0.18v-0.36V0h-0.36v6.758v0.18h-8.14v-0.18V0
		h-0.36v6.758V6.938z"/>
	<rect x="211.249" y="9.828" width="0.12" height="3.96"/>
	<rect x="211.249" width="0.12" height="0.348"/>
	<rect x="211.249" y="134.988" width="0.12" height="1.02"/>
	<rect x="211.249" y="103.068" width="0.12" height="1.02"/>
	<rect x="211.249" y="97.608" width="0.12" height="3.96"/>
	<rect x="211.249" y="95.088" width="0.12" height="1.02"/>
	<rect x="211.249" y="121.548" width="0.12" height="3.96"/>
	<rect x="211.249" y="127.008" width="0.12" height="1.02"/>
	<polygon points="211.249,141.468 211.369,141.468 211.369,140.928 211.369,140.208 211.369,137.508 211.249,137.508 
		211.249,140.208 211.249,140.928 	"/>
	<rect x="211.249" y="119.028" width="0.12" height="1.02"/>
	<rect x="211.249" y="111.048" width="0.12" height="1.02"/>
	<rect x="211.249" y="113.568" width="0.12" height="3.96"/>
	<rect x="211.249" y="105.588" width="0.12" height="3.96"/>
	<rect x="211.249" y="31.248" width="0.12" height="1.02"/>
	<rect x="211.249" y="23.268" width="0.12" height="1.02"/>
	<rect x="211.249" y="17.808" width="0.12" height="3.96"/>
	<rect x="211.249" y="15.288" width="0.12" height="1.02"/>
	<rect x="211.249" y="47.208" width="0.12" height="1.02"/>
	<rect x="211.249" y="1.848" width="0.12" height="3.96"/>
	<rect x="211.249" y="33.768" width="0.12" height="3.96"/>
	<rect x="211.249" y="25.788" width="0.12" height="3.96"/>
	<rect x="211.249" y="49.728" width="0.12" height="3.96"/>
	<rect x="211.249" y="63.168" width="0.12" height="1.02"/>
	<rect x="211.249" y="79.128" width="0.12" height="1.02"/>
	<rect x="211.249" y="81.648" width="0.12" height="3.96"/>
	<rect x="211.249" y="73.668" width="0.12" height="3.96"/>
	<rect x="211.249" y="87.108" width="0.12" height="1.02"/>
	<rect x="211.249" y="57.708" width="0.12" height="3.96"/>
	<rect x="211.249" y="55.188" width="0.12" height="1.02"/>
	<rect x="211.249" y="89.628" width="0.12" height="3.96"/>
	<rect x="211.249" y="71.148" width="0.12" height="1.02"/>
	<rect x="211.249" y="65.688" width="0.12" height="3.96"/>
	<rect x="211.249" y="44.268" width="0.12" height="1.44"/>
	<polygon points="211.249,7.308 211.249,7.478 211.249,8.328 211.369,8.328 211.369,7.478 211.369,7.308 	"/>
	<polygon points="211.249,129.528 211.249,129.628 211.249,133.488 211.369,133.488 211.369,129.628 211.369,129.528 	"/>
	<rect x="226.649" y="129.208" width="3.96" height="0.12"/>
	<rect x="232.109" y="129.208" width="1.02" height="0.12"/>
	<rect x="234.629" y="129.208" width="3.96" height="0.12"/>
	<rect x="224.129" y="129.208" width="1.02" height="0.12"/>
	<rect x="216.149" y="129.208" width="1.02" height="0.12"/>
	<rect x="218.669" y="129.208" width="3.96" height="0.12"/>
	<rect x="242.609" y="129.208" width="3.96" height="0.12"/>
	<rect x="240.089" y="129.208" width="1.02" height="0.12"/>
	<rect x="0.689" y="129.208" width="1.02" height="0.12"/>
	<rect x="210.689" y="129.208" width="3.96" height="0.12"/>
	<rect x="208.169" y="129.208" width="1.02" height="0.12"/>
	<rect x="35.129" y="129.208" width="3.96" height="0.12"/>
	<rect x="40.589" y="129.208" width="1.02" height="0.12"/>
	<rect x="72.509" y="129.208" width="1.02" height="0.12"/>
	<rect x="16.649" y="129.208" width="1.02" height="0.12"/>
	<rect x="19.169" y="129.208" width="3.96" height="0.12"/>
	<rect x="27.149" y="129.208" width="3.96" height="0.12"/>
	<rect x="24.629" y="129.208" width="1.02" height="0.12"/>
	<rect x="51.089" y="129.208" width="3.96" height="0.12"/>
	<rect x="48.569" y="129.208" width="1.02" height="0.12"/>
	<rect x="43.109" y="129.208" width="3.96" height="0.12"/>
	<rect x="32.609" y="129.208" width="1.02" height="0.12"/>
	<rect x="64.529" y="129.208" width="1.02" height="0.12"/>
	<rect x="80.489" y="129.208" width="1.02" height="0.12"/>
	<rect x="56.549" y="129.208" width="1.02" height="0.12"/>
	<rect x="59.069" y="129.208" width="3.96" height="0.12"/>
	<rect x="67.049" y="129.208" width="3.96" height="0.12"/>
	<rect x="130.889" y="129.208" width="3.96" height="0.12"/>
	<rect x="136.349" y="129.208" width="1.02" height="0.12"/>
	<rect x="122.909" y="129.208" width="3.96" height="0.12"/>
	<rect x="128.369" y="129.208" width="1.02" height="0.12"/>
	<rect x="96.449" y="129.208" width="1.02" height="0.12"/>
	<rect x="154.829" y="129.208" width="3.96" height="0.12"/>
	<rect x="144.329" y="129.208" width="1.02" height="0.12"/>
	<rect x="152.309" y="129.208" width="1.02" height="0.12"/>
	<rect x="160.289" y="129.208" width="1.02" height="0.12"/>
	<rect x="146.849" y="129.208" width="3.96" height="0.12"/>
	<rect x="178.769" y="129.208" width="2.89" height="0.12"/>
	<rect x="187.459" y="129.208" width="3.25" height="0.12"/>
	<rect x="92.509" y="129.208" width="2.44" height="0.12"/>
	<rect x="83.009" y="129.208" width="3.7" height="0.12"/>
	<rect x="114.929" y="129.208" width="3.96" height="0.12"/>
	<rect x="11.189" y="129.208" width="3.96" height="0.12"/>
	<rect x="120.389" y="129.208" width="1.02" height="0.12"/>
	<rect x="104.429" y="129.208" width="1.02" height="0.12"/>
	<rect x="98.969" y="129.208" width="3.96" height="0.12"/>
	<rect x="138.869" y="129.208" width="3.96" height="0.12"/>
	<rect x="194.729" y="129.208" width="3.96" height="0.12"/>
	<rect x="162.809" y="129.208" width="3.96" height="0.12"/>
	<rect x="202.709" y="129.208" width="3.96" height="0.12"/>
	<polygon points="7.169,129.328 7.169,129.208 4.595,129.208 4.399,129.208 4.279,129.208 3.209,129.208 3.209,129.328 
		4.304,129.328 	"/>
	<rect x="8.669" y="129.208" width="1.02" height="0.12"/>
	<rect x="192.209" y="129.208" width="1.02" height="0.12"/>
	<rect x="170.789" y="129.208" width="3.96" height="0.12"/>
	<rect x="168.269" y="129.208" width="1.02" height="0.12"/>
	<rect x="176.249" y="129.208" width="1.02" height="0.12"/>
	<rect x="200.189" y="129.208" width="1.02" height="0.12"/>
	<rect x="112.409" y="129.208" width="1.02" height="0.12"/>
	<polygon points="110.909,129.208 110.881,129.208 110.719,129.208 110.599,129.208 110.365,129.208 107.759,129.208 
		106.949,129.208 106.949,129.328 107.759,129.328 110.488,129.328 110.909,129.328 	"/>
	<polygon points="76.529,129.208 75.029,129.208 75.029,129.328 78.989,129.328 78.989,129.208 76.889,129.208 	"/>
	<polygon points="123.923,7.058 124.149,7.058 124.149,6.774 124.134,6.758 123.288,5.892 123.03,6.144 123.63,6.758 123.805,6.938 
			"/>
	<polygon points="124.31,6.938 124.269,6.896 124.269,7.058 124.427,7.058 	"/>
	<polygon points="124.544,7.178 124.04,7.178 124.158,7.298 124.333,7.478 125.18,8.344 125.438,8.092 124.838,7.478 124.662,7.298 
			"/>
	<polygon points="121.309,7.058 121.309,7.178 124.04,7.178 124.544,7.178 127.159,7.178 127.159,7.058 124.427,7.058 
		124.269,7.058 124.269,7.118 124.149,7.118 124.149,7.058 123.923,7.058 	"/>
	<polygon points="124.149,6.774 124.149,7.058 124.149,7.118 124.269,7.118 124.269,7.058 124.269,6.896 124.269,6.758 124.269,0 
		124.149,0 124.149,6.758 	"/>
	<polygon points="24.21,6.938 24.169,6.896 24.169,7.058 24.327,7.058 	"/>
	<polygon points="24.445,7.178 23.94,7.178 24.058,7.298 24.233,7.478 25.08,8.344 25.338,8.092 24.738,7.478 24.562,7.298 	"/>
	<polygon points="23.823,7.058 24.049,7.058 24.049,6.773 24.034,6.758 23.188,5.892 22.93,6.144 23.53,6.758 23.706,6.938 	"/>
	<polygon points="21.209,7.058 21.209,7.178 23.94,7.178 24.445,7.178 27.059,7.178 27.059,7.058 24.327,7.058 24.169,7.058 
		24.169,7.118 24.049,7.118 24.049,7.058 23.823,7.058 	"/>
	<polygon points="24.049,6.773 24.049,7.058 24.049,7.118 24.169,7.118 24.169,7.058 24.169,6.896 24.169,6.758 24.169,0 24.049,0 
		24.049,6.758 	"/>
	<rect x="287.839" y="129.208" width="1.02" height="0.12"/>
	<rect x="271.879" y="129.208" width="1.02" height="0.12"/>
	<rect x="279.859" y="129.208" width="1.02" height="0.12"/>
	<rect x="274.399" y="129.208" width="3.96" height="0.12"/>
	<rect x="250.459" y="129.208" width="3.96" height="0.12"/>
	<rect x="295.819" y="129.208" width="1.02" height="0.12"/>
	<rect x="290.359" y="129.208" width="3.96" height="0.12"/>
	<rect x="255.919" y="129.208" width="1.02" height="0.12"/>
	<rect x="282.379" y="129.208" width="3.96" height="0.12"/>
	<rect x="258.439" y="129.208" width="3.96" height="0.12"/>
	<polygon points="267.563,129.295 267.509,129.268 267.455,129.295 267.412,129.208 266.419,129.208 266.419,129.328 
		270.379,129.328 270.379,129.208 267.606,129.208 	"/>
	<rect x="263.899" y="129.208" width="1.02" height="0.12"/>
	<rect x="258.439" y="7.058" width="3.96" height="0.12"/>
	<rect x="279.859" y="7.058" width="1.02" height="0.12"/>
	<rect x="282.379" y="7.058" width="3.96" height="0.12"/>
	<rect x="274.399" y="7.058" width="3.96" height="0.12"/>
	<rect x="295.819" y="7.058" width="1.02" height="0.12"/>
	<rect x="290.359" y="7.058" width="3.96" height="0.12"/>
	<rect x="255.919" y="7.058" width="1.02" height="0.12"/>
	<polygon points="267.563,7.145 267.509,7.118 267.455,7.145 267.412,7.058 266.419,7.058 266.419,7.178 270.379,7.178 
		270.379,7.058 267.606,7.058 	"/>
	<rect x="287.839" y="7.058" width="1.02" height="0.12"/>
	<rect x="263.899" y="7.058" width="1.02" height="0.12"/>
	<rect x="250.459" y="7.058" width="3.96" height="0.12"/>
	<rect x="271.879" y="7.058" width="1.02" height="0.12"/>
	<polygon points="264.906,1.778 270.112,1.778 270.155,1.691 270.209,1.718 270.209,1.658 264.809,1.658 264.809,1.718 
		264.863,1.691 	"/>
	<polygon points="267.509,7.118 267.455,7.091 267.509,6.984 264.906,1.778 264.863,1.691 264.809,1.718 264.755,1.745 
		267.412,7.058 267.455,7.145 	"/>
	<polygon points="270.112,1.778 267.509,6.984 267.455,7.091 267.509,7.118 267.563,7.145 267.606,7.058 270.263,1.745 
		270.209,1.718 270.155,1.691 	"/>
	<polygon points="264.906,123.928 270.112,123.928 270.155,123.841 270.209,123.868 270.209,123.808 264.809,123.808 
		264.809,123.868 264.863,123.841 	"/>
	<polygon points="267.509,129.268 267.455,129.242 267.509,129.134 264.906,123.928 264.863,123.841 264.809,123.868 
		264.755,123.895 267.412,129.208 267.455,129.295 	"/>
	<polygon points="270.112,123.928 267.509,129.134 267.455,129.242 267.509,129.268 267.563,129.295 267.606,129.208 
		270.263,123.895 270.209,123.868 270.155,123.841 	"/>
	<polygon points="144.819,41.563 144.954,41.428 144.819,41.428 	"/>
	<polygon points="145.074,41.308 145.986,40.396 145.731,40.141 144.819,41.053 144.819,41.308 	"/>
	<polygon points="143.531,42.341 143.786,42.596 144.699,41.683 144.699,41.173 	"/>
	<polygon points="212.538,40.394 212.28,40.142 211.369,41.074 211.369,41.59 	"/>
	<polygon points="211.249,41.197 211.141,41.308 211.249,41.308 	"/>
	<polygon points="211.023,41.428 210.13,42.342 210.388,42.594 211.249,41.713 211.249,41.428 	"/>
	<polygon points="144.759,41.428 144.759,41.308 144.819,41.308 144.819,41.053 144.819,38.468 144.699,38.468 144.699,41.173 
		144.699,41.683 144.699,44.268 144.819,44.268 144.819,41.563 144.819,41.428 	"/>
	<polygon points="211.309,41.308 211.309,41.428 211.249,41.428 211.249,41.713 211.249,41.748 211.249,44.268 211.369,44.268 
		211.369,41.748 211.369,41.59 211.369,41.074 211.369,40.248 211.369,39.228 211.369,38.468 211.249,38.468 211.249,39.228 
		211.249,40.248 211.249,41.197 211.249,41.308 	"/>
	<polygon points="144.819,41.308 144.759,41.308 144.759,41.428 144.819,41.428 144.954,41.428 206.879,41.428 207.239,41.428 
		211.023,41.428 211.249,41.428 211.309,41.428 211.309,41.308 211.249,41.308 211.141,41.308 207.239,41.308 206.879,41.308 
		145.074,41.308 	"/>
	<polygon points="183.585,128.039 183.333,128.297 183.958,128.909 184.142,129.088 184.265,129.208 184.499,129.208 
		184.499,128.933 184.474,128.909 	"/>
	<polygon points="184.619,129.208 184.781,129.208 184.658,129.088 184.619,129.05 	"/>
	<polygon points="184.499,129.437 184.499,129.328 184.388,129.328 	"/>
	<polygon points="184.904,129.328 184.619,129.328 184.619,129.554 184.695,129.628 185.533,130.447 185.785,130.189 
		185.211,129.628 185.027,129.449 	"/>
	<polygon points="184.499,120.433 183.585,119.539 183.333,119.797 184.265,120.708 184.499,120.708 	"/>
	<polygon points="184.781,120.708 184.619,120.55 184.619,120.708 	"/>
	<polygon points="185.785,121.689 184.904,120.828 184.619,120.828 184.619,121.054 185.533,121.947 	"/>
	<polygon points="184.499,120.937 184.499,120.828 184.388,120.828 	"/>
	<polygon points="184.619,50.234 185.531,51.146 185.786,50.891 184.874,49.978 184.619,49.978 	"/>
	<polygon points="184.364,49.978 184.499,50.113 184.499,49.978 	"/>
	<polygon points="183.586,48.691 183.332,48.946 184.244,49.858 184.754,49.858 	"/>
	<polygon points="186.749,129.328 187.459,129.328 187.459,129.208 186.749,129.208 185.249,129.208 184.781,129.208 
		184.619,129.208 184.619,129.268 184.619,129.328 184.904,129.328 185.249,129.328 	"/>
	<polygon points="184.265,129.208 184.229,129.208 182.729,129.208 181.659,129.208 181.659,129.328 182.729,129.328 
		184.229,129.328 184.388,129.328 184.499,129.328 184.499,129.268 184.499,129.208 	"/>
	<polygon points="184.619,129.328 184.619,129.268 184.499,129.268 184.499,129.328 184.499,129.437 184.499,129.449 
		184.499,129.628 184.499,131.418 184.619,131.418 184.619,129.628 184.619,129.554 	"/>
	<polygon points="184.619,129.05 184.619,128.909 184.619,121.054 184.619,120.828 184.499,120.828 184.499,120.937 
		184.499,128.909 184.499,128.933 184.499,129.208 184.499,129.268 184.619,129.268 184.619,129.208 	"/>
	<polygon points="187.459,120.828 187.459,120.708 184.781,120.708 184.619,120.708 184.619,120.768 184.499,120.768 
		184.499,120.708 184.265,120.708 181.659,120.708 181.659,120.828 184.388,120.828 184.499,120.828 184.619,120.828 
		184.904,120.828 	"/>
	<polygon points="184.499,49.918 184.619,49.918 184.619,49.978 184.874,49.978 187.459,49.978 187.459,49.858 184.754,49.858 
		184.244,49.858 181.659,49.858 181.659,49.978 184.364,49.978 184.499,49.978 	"/>
	<polygon points="184.499,120.768 184.619,120.768 184.619,120.708 184.619,120.55 184.619,118.568 184.619,50.234 184.619,49.978 
		184.619,49.918 184.499,49.918 184.499,49.978 184.499,50.113 184.499,118.568 184.499,120.433 184.499,120.708 	"/>
	<polygon points="89.669,129.208 89.804,129.208 89.684,129.088 89.669,129.074 	"/>
	<polygon points="89.924,129.328 89.489,129.328 89.414,129.328 89.534,129.449 89.714,129.628 90.531,130.446 90.786,130.191 
		90.224,129.628 90.044,129.449 	"/>
	<polygon points="89.549,129.208 89.549,128.953 89.504,128.909 88.636,128.041 88.381,128.296 88.994,128.909 89.174,129.088 
		89.294,129.208 89.489,129.208 	"/>
	<polygon points="89.669,50.263 90.53,51.144 90.788,50.892 89.894,49.978 89.669,49.978 	"/>
	<polygon points="89.39,49.978 89.549,50.141 89.549,49.978 	"/>
	<polygon points="88.638,48.692 88.38,48.944 89.273,49.858 89.777,49.858 	"/>
	<polygon points="92.509,129.328 92.509,129.208 90.989,129.208 89.804,129.208 89.669,129.208 89.669,129.268 89.549,129.268 
		89.549,129.208 89.489,129.208 89.294,129.208 88.469,129.208 86.969,129.208 86.709,129.208 86.709,129.328 86.969,129.328 
		88.469,129.328 89.414,129.328 89.489,129.328 89.924,129.328 90.989,129.328 	"/>
	<polygon points="89.549,49.918 89.669,49.918 89.669,49.978 89.894,49.978 92.509,49.978 92.509,49.858 89.777,49.858 
		89.273,49.858 86.709,49.858 86.709,49.978 89.39,49.978 89.549,49.978 	"/>
	<polygon points="89.669,129.074 89.669,128.909 89.669,50.263 89.669,49.978 89.669,49.918 89.549,49.918 89.549,49.978 
		89.549,50.141 89.549,128.909 89.549,128.953 89.549,129.208 89.549,129.268 89.669,129.268 89.669,129.208 	"/>
	<polygon points="274.359,4.818 272.959,4.818 272.959,1.718 272.559,1.718 272.559,5.268 274.359,5.268 	"/>
	<polygon points="277.009,4.818 275.259,4.818 275.259,3.618 276.859,3.618 276.859,3.218 275.259,3.218 275.259,2.118 
		276.959,2.118 276.959,1.718 274.859,1.718 274.859,5.268 277.009,5.268 	"/>
	<path d="M278.759,5.268l1.15-3.55h-0.4l-0.75,2.55c-0.05,0.1-0.1,0.2-0.1,0.3c-0.05,0.1-0.05,0.2-0.1,0.3c0-0.2-0.05-0.4-0.15-0.6
		l-0.75-2.55h-0.4l1.1,3.55H278.759z"/>
	<polygon points="282.409,4.818 280.659,4.818 280.659,3.618 282.259,3.618 282.259,3.218 280.659,3.218 280.659,2.118 
		282.359,2.118 282.359,1.718 280.259,1.718 280.259,5.268 282.409,5.268 	"/>
	<polygon points="284.759,4.818 283.309,4.818 283.309,1.718 282.959,1.718 282.959,5.268 284.759,5.268 	"/>
	<path d="M286.909,3.968c-0.3,0.25-0.5,0.5-0.6,0.7c-0.1,0.25-0.15,0.4-0.15,0.6h1.9v-0.45h-1.4c0.05-0.05,0.1-0.15,0.15-0.2
		c0.05-0.1,0.2-0.25,0.4-0.45c0.35-0.35,0.55-0.65,0.7-0.85c0.1-0.2,0.15-0.4,0.15-0.65s-0.05-0.45-0.2-0.65
		c-0.15-0.2-0.4-0.3-0.7-0.3c-0.25,0-0.5,0.05-0.65,0.25c-0.15,0.15-0.25,0.4-0.3,0.75l0.4,0.05c0-0.2,0.05-0.4,0.15-0.5
		c0.1-0.15,0.25-0.2,0.4-0.2s0.3,0.05,0.4,0.15c0.1,0.15,0.15,0.3,0.15,0.45c0,0.15-0.05,0.35-0.15,0.5
		C287.459,3.368,287.209,3.618,286.909,3.968z"/>
	<polygon points="291.609,5.268 292.009,5.268 292.009,2.118 292.959,2.118 292.959,1.718 290.659,1.718 290.659,2.118 
		291.609,2.118 	"/>
	<path d="M294.609,5.318c0.45,0,0.8-0.2,1.05-0.55c0.25-0.3,0.35-0.75,0.35-1.3c0-0.35-0.05-0.7-0.2-0.95
		c-0.1-0.3-0.25-0.5-0.5-0.65c-0.2-0.15-0.45-0.2-0.7-0.2c-0.4,0-0.7,0.15-1,0.45c-0.25,0.35-0.4,0.8-0.4,1.4
		c0,0.5,0.15,0.9,0.4,1.25C293.859,5.118,294.209,5.318,294.609,5.318z M293.909,2.418c0.2-0.25,0.45-0.35,0.7-0.35
		c0.2,0,0.35,0.05,0.5,0.15c0.15,0.1,0.3,0.25,0.35,0.45c0.1,0.25,0.15,0.5,0.15,0.8c0,0.5-0.1,0.85-0.3,1.1
		c-0.15,0.25-0.4,0.35-0.7,0.35c-0.25,0-0.5-0.1-0.7-0.35c-0.2-0.25-0.3-0.6-0.3-1.05C293.609,3.018,293.709,2.668,293.909,2.418z"
		/>
	<path d="M298.159,1.768c-0.1-0.05-0.3-0.05-0.55-0.05h-1.1v3.55h0.35v-1.45h0.75c0.4,0,0.7-0.1,0.85-0.3
		c0.15-0.2,0.25-0.45,0.25-0.8c0-0.2-0.05-0.45-0.15-0.6C298.459,1.968,298.309,1.868,298.159,1.768z M298.159,3.218
		c-0.1,0.15-0.3,0.2-0.55,0.2h-0.75v-1.3h0.75c0.2,0,0.35,0.05,0.45,0.05c0.05,0.05,0.1,0.15,0.2,0.25c0.05,0.1,0.05,0.2,0.05,0.35
		C298.309,2.968,298.259,3.118,298.159,3.218z"/>
	<path d="M302.309,1.868c-0.2-0.15-0.45-0.2-0.7-0.2c-0.4,0-0.7,0.15-1,0.45c-0.25,0.35-0.4,0.8-0.4,1.4c0,0.5,0.15,0.9,0.35,1.25
		c0.3,0.35,0.65,0.55,1.05,0.55c0.45,0,0.75-0.2,1.05-0.55c0.2-0.3,0.35-0.75,0.35-1.3c0-0.35-0.05-0.7-0.2-0.95
		C302.709,2.218,302.509,2.018,302.309,1.868z M302.309,4.568c-0.2,0.25-0.4,0.35-0.7,0.35c-0.25,0-0.5-0.1-0.7-0.35
		c-0.2-0.25-0.3-0.6-0.3-1.05c0-0.5,0.1-0.85,0.3-1.1c0.2-0.25,0.4-0.35,0.7-0.35c0.2,0,0.35,0.05,0.5,0.15
		c0.15,0.1,0.3,0.25,0.35,0.45c0.1,0.25,0.15,0.5,0.15,0.8C302.609,3.968,302.509,4.318,302.309,4.568z"/>
	<polygon points="303.509,5.268 303.909,5.268 303.909,3.668 305.259,3.668 305.259,3.218 303.909,3.218 303.909,2.118 
		305.459,2.118 305.459,1.718 303.509,1.718 	"/>
	<path d="M308.759,3.368c-0.15-0.05-0.35-0.1-0.6-0.2c-0.3-0.1-0.5-0.15-0.6-0.25c-0.05-0.05-0.1-0.2-0.1-0.35
		c0-0.15,0.05-0.25,0.15-0.35c0.1-0.1,0.3-0.15,0.5-0.15s0.4,0.05,0.5,0.15c0.15,0.15,0.2,0.3,0.2,0.55l0.4-0.05
		c0-0.2-0.05-0.4-0.15-0.55c-0.1-0.2-0.25-0.3-0.4-0.4c-0.15-0.05-0.35-0.1-0.55-0.1c-0.3,0-0.55,0.1-0.75,0.25
		c-0.2,0.2-0.3,0.45-0.3,0.7c0,0.15,0.05,0.3,0.1,0.45c0.1,0.1,0.15,0.2,0.3,0.3c0.1,0.1,0.3,0.15,0.55,0.25
		c0.35,0.1,0.55,0.15,0.6,0.2c0.1,0.05,0.2,0.15,0.25,0.2c0.05,0.1,0.05,0.15,0.05,0.3c0,0.15-0.05,0.3-0.2,0.4
		c-0.1,0.1-0.3,0.2-0.5,0.2c-0.2,0-0.35-0.05-0.45-0.1c-0.15-0.1-0.25-0.15-0.3-0.3c-0.05-0.1-0.1-0.25-0.15-0.45l-0.35,0.05
		c0,0.2,0.05,0.35,0.1,0.5c0.05,0.15,0.15,0.25,0.25,0.4c0.2,0.2,0.5,0.3,0.85,0.3c0.25,0,0.45-0.05,0.6-0.15
		c0.15-0.05,0.3-0.2,0.4-0.35c0.05-0.15,0.1-0.35,0.1-0.55s0-0.4-0.1-0.55C309.059,3.568,308.909,3.468,308.759,3.368z"/>
	<polygon points="310.159,1.718 309.759,1.718 309.759,5.268 311.609,5.268 311.609,4.818 310.159,4.818 	"/>
	<path d="M312.859,1.718l-1.1,3.55h0.4l0.3-1.1h1.2l0.35,1.1h0.45l-1.2-3.55H312.859z M312.559,3.818l0.35-1.05
		c0.05-0.25,0.1-0.45,0.15-0.7c0.05,0.2,0.1,0.45,0.2,0.75l0.3,1H312.559z"/>
	<path d="M316.409,3.368c0.1-0.05,0.2-0.2,0.3-0.3c0.05-0.15,0.1-0.3,0.1-0.45c0-0.15-0.05-0.35-0.1-0.5c-0.1-0.1-0.2-0.25-0.35-0.3
		c-0.1-0.05-0.3-0.1-0.5-0.1h-1.1v3.55h1.1c0.25,0,0.45-0.05,0.6-0.1c0.15-0.1,0.25-0.2,0.35-0.35c0.1-0.2,0.15-0.35,0.15-0.6
		c0-0.2-0.05-0.4-0.15-0.55C316.709,3.518,316.559,3.418,316.409,3.368z M315.109,2.118h0.6c0.2,0,0.35,0.05,0.45,0.05
		c0.1,0.05,0.15,0.1,0.2,0.2c0.05,0.1,0.05,0.2,0.05,0.3c0,0.15,0,0.25-0.05,0.35c-0.05,0.05-0.15,0.1-0.25,0.15
		c-0.05,0.05-0.2,0.05-0.35,0.05h-0.65V2.118z M316.459,4.568c-0.05,0.1-0.15,0.2-0.25,0.25h-0.35h-0.75v-1.2h0.7
		c0.2,0,0.35,0.05,0.45,0.05c0.1,0.05,0.15,0.15,0.2,0.2c0.05,0.1,0.1,0.25,0.1,0.35C316.559,4.368,316.509,4.518,316.459,4.568z"/>
	<path d="M275.159,12.118l-0.5-0.95c-0.1-0.15-0.2-0.3-0.3-0.45c-0.1-0.05-0.15-0.15-0.25-0.2c0.25-0.05,0.45-0.15,0.6-0.3
		c0.15-0.2,0.2-0.4,0.2-0.65c0-0.2-0.05-0.4-0.1-0.55c-0.1-0.15-0.2-0.25-0.35-0.35c-0.1-0.05-0.3-0.05-0.6-0.05h-1.25v3.5h0.35
		v-1.55h0.45c0.15,0,0.25,0,0.3,0.05c0.1,0.05,0.15,0.1,0.25,0.2c0.05,0.1,0.15,0.3,0.3,0.6l0.4,0.7H275.159z M273.809,10.168h-0.85
		v-1.2h0.95c0.2,0,0.35,0.05,0.45,0.15c0.1,0.1,0.15,0.25,0.15,0.45c0,0.1,0,0.25-0.1,0.3c-0.05,0.1-0.1,0.2-0.2,0.2
		C274.109,10.118,273.959,10.168,273.809,10.168z"/>
	<polygon points="277.309,11.718 275.859,11.718 275.859,8.618 275.509,8.618 275.509,12.118 277.309,12.118 	"/>
	<polygon points="279.959,11.568 279.959,10.568 280.709,10.568 280.709,10.168 279.959,10.168 279.959,9.218 279.609,9.218 
		279.609,10.168 278.809,10.168 278.809,10.568 279.609,10.568 279.609,11.568 	"/>
	<path d="M281.409,9.018c-0.2,0.3-0.3,0.8-0.3,1.45s0.1,1.05,0.3,1.35c0.15,0.25,0.4,0.4,0.7,0.4c0.15,0,0.3-0.05,0.45-0.15
		c0.15-0.1,0.25-0.25,0.35-0.45c0.05-0.2,0.1-0.4,0.1-0.65c0-0.35-0.05-0.6-0.25-0.8c-0.15-0.25-0.35-0.35-0.6-0.35
		c-0.15,0-0.25,0.05-0.4,0.15c-0.1,0.05-0.2,0.2-0.3,0.35c0-0.45,0.05-0.75,0.15-1c0.15-0.25,0.3-0.4,0.5-0.4
		c0.15,0,0.25,0.1,0.35,0.2c0.1,0.05,0.15,0.2,0.15,0.4l0.35-0.05c0-0.15-0.05-0.3-0.1-0.4c0-0.1-0.1-0.2-0.15-0.25
		c-0.15-0.15-0.35-0.25-0.55-0.25C281.859,8.568,281.609,8.718,281.409,9.018z M281.709,10.418c0.1-0.15,0.25-0.2,0.4-0.2
		c0.15,0,0.3,0.05,0.4,0.2c0.1,0.15,0.15,0.35,0.15,0.6s-0.05,0.45-0.15,0.6c-0.15,0.15-0.25,0.2-0.4,0.2c-0.15,0-0.3-0.05-0.4-0.2
		c-0.15-0.15-0.2-0.35-0.2-0.65C281.509,10.768,281.559,10.568,281.709,10.418z"/>
	<path d="M285.059,11.718c0.15-0.3,0.2-0.75,0.2-1.35c0-0.65-0.1-1.1-0.25-1.4c-0.2-0.25-0.4-0.4-0.7-0.4s-0.55,0.15-0.7,0.45
		c-0.15,0.35-0.25,0.8-0.25,1.35c0,0.7,0.1,1.15,0.3,1.4c0.15,0.3,0.4,0.45,0.65,0.45C284.659,12.218,284.859,12.018,285.059,11.718
		z M284.359,11.818c-0.2,0-0.35-0.1-0.45-0.25c-0.1-0.2-0.15-0.6-0.15-1.2c0-0.55,0.05-0.95,0.15-1.15c0.1-0.2,0.25-0.3,0.4-0.3
		c0.2,0,0.3,0.1,0.45,0.3c0.1,0.2,0.15,0.6,0.15,1.15c0,0.6-0.05,0.95-0.15,1.15C284.659,11.718,284.509,11.818,284.359,11.818z"/>
	<path d="M287.159,12.118v-0.85h0.35v-0.4h-0.35v-2.25h-0.3l-1.35,2.25v0.4h1.25v0.85H287.159z M285.859,10.868l0.9-1.6v1.6H285.859
		z"/>
	<rect x="288.109" y="11.618" width="0.4" height="0.5"/>
	<path d="M289.959,9.968c-0.15,0.35-0.3,0.75-0.35,1.15c-0.1,0.4-0.15,0.7-0.15,1h0.35c0.05-0.55,0.15-1.15,0.4-1.7
		c0.2-0.6,0.45-1.1,0.7-1.45v-0.35h-1.85v0.45h1.4C290.309,9.318,290.109,9.618,289.959,9.968z"/>
	<path d="M292.309,9.768c-0.2,0-0.4,0.1-0.55,0.25l0.15-0.95h1.15v-0.45h-1.45l-0.25,1.85l0.3,0.05c0.1-0.1,0.15-0.2,0.25-0.25
		c0.1-0.05,0.2-0.1,0.3-0.1c0.2,0,0.3,0.05,0.45,0.2c0.1,0.15,0.15,0.35,0.15,0.6s-0.05,0.5-0.15,0.65c-0.15,0.15-0.3,0.2-0.45,0.2
		c-0.15,0-0.25-0.05-0.35-0.15c-0.1-0.1-0.2-0.25-0.2-0.5l-0.4,0.05c0.05,0.3,0.15,0.55,0.3,0.7c0.2,0.2,0.4,0.3,0.65,0.3
		c0.3,0,0.55-0.15,0.75-0.4c0.15-0.25,0.25-0.55,0.25-0.9c0-0.35-0.1-0.6-0.25-0.8C292.759,9.868,292.559,9.768,292.309,9.768z"/>
	<path d="M294.459,11.818c-0.15,0-0.25-0.05-0.35-0.15c-0.1-0.1-0.15-0.25-0.2-0.5l-0.35,0.05c0,0.3,0.1,0.55,0.25,0.7
		c0.2,0.2,0.4,0.3,0.65,0.3c0.3,0,0.55-0.15,0.75-0.4c0.15-0.25,0.25-0.55,0.25-0.9c0-0.35-0.1-0.6-0.25-0.8
		c-0.2-0.25-0.4-0.35-0.65-0.35c-0.2,0-0.4,0.1-0.55,0.25l0.15-0.95h1.15v-0.45h-1.45l-0.25,1.85l0.35,0.05
		c0.05-0.1,0.1-0.2,0.2-0.25s0.2-0.1,0.3-0.1c0.2,0,0.35,0.05,0.45,0.2c0.1,0.15,0.2,0.35,0.2,0.6s-0.1,0.5-0.2,0.65
		C294.759,11.768,294.609,11.818,294.459,11.818z"/>
	<polygon points="272.559,123.868 272.559,127.368 274.359,127.368 274.359,126.968 272.959,126.968 272.959,123.868 	"/>
	<polygon points="277.009,126.968 275.259,126.968 275.259,125.768 276.859,125.768 276.859,125.368 275.259,125.368 
		275.259,124.268 276.959,124.268 276.959,123.868 274.859,123.868 274.859,127.368 277.009,127.368 	"/>
	<path d="M279.509,123.868l-0.75,2.55c-0.05,0.1-0.1,0.2-0.1,0.3c-0.05,0.1-0.05,0.2-0.1,0.3c0-0.2-0.05-0.4-0.15-0.6l-0.75-2.55
		h-0.4l1.1,3.5h0.4l1.15-3.5H279.509z"/>
	<polygon points="282.409,126.968 280.659,126.968 280.659,125.768 282.259,125.768 282.259,125.368 280.659,125.368 
		280.659,124.268 282.359,124.268 282.359,123.868 280.259,123.868 280.259,127.368 282.409,127.368 	"/>
	<polygon points="282.959,123.868 282.959,127.368 284.759,127.368 284.759,126.968 283.309,126.968 283.309,123.868 	"/>
	<path d="M287.009,124.318c-0.15,0.15-0.35,0.3-0.55,0.4v0.4c0.1-0.05,0.25-0.1,0.4-0.2c0.15-0.1,0.25-0.2,0.3-0.3v2.75h0.4v-3.55
		h-0.25C287.259,123.968,287.159,124.168,287.009,124.318z"/>
	<polygon points="292.009,127.368 292.009,124.268 292.959,124.268 292.959,123.868 290.659,123.868 290.659,124.268 
		291.609,124.268 291.609,127.368 	"/>
	<path d="M295.809,124.618c-0.1-0.25-0.25-0.45-0.5-0.6c-0.2-0.15-0.45-0.25-0.7-0.25c-0.4,0-0.7,0.2-1,0.5
		c-0.25,0.35-0.4,0.8-0.4,1.4c0,0.45,0.15,0.9,0.4,1.2c0.25,0.4,0.6,0.6,1,0.6c0.45,0,0.8-0.2,1.05-0.55s0.35-0.75,0.35-1.3
		C296.009,125.218,295.959,124.918,295.809,124.618z M295.309,126.668c-0.15,0.25-0.4,0.4-0.7,0.4c-0.25,0-0.5-0.15-0.7-0.4
		c-0.2-0.2-0.3-0.55-0.3-1c0-0.5,0.1-0.9,0.3-1.1c0.2-0.25,0.45-0.4,0.7-0.4c0.2,0,0.35,0.05,0.5,0.2c0.15,0.1,0.3,0.25,0.35,0.4
		c0.1,0.25,0.15,0.55,0.15,0.85C295.609,126.068,295.509,126.418,295.309,126.668z"/>
	<path d="M298.159,123.918c-0.1-0.05-0.3-0.05-0.55-0.05h-1.1v3.5h0.35v-1.4h0.75c0.4,0,0.7-0.1,0.85-0.3
		c0.15-0.2,0.25-0.5,0.25-0.8c0-0.25-0.05-0.45-0.15-0.6C298.459,124.068,298.309,123.968,298.159,123.918z M298.159,125.368
		c-0.1,0.1-0.3,0.15-0.55,0.15h-0.75v-1.25h0.75c0.2,0,0.35,0,0.45,0.05c0.05,0.05,0.1,0.1,0.2,0.2c0.05,0.1,0.05,0.25,0.05,0.35
		C298.309,125.118,298.259,125.268,298.159,125.368z"/>
	<path d="M302.309,124.018c-0.2-0.15-0.45-0.25-0.7-0.25c-0.4,0-0.7,0.2-1,0.5c-0.25,0.35-0.4,0.8-0.4,1.4c0,0.45,0.15,0.9,0.35,1.2
		c0.3,0.4,0.65,0.6,1.05,0.6c0.45,0,0.75-0.2,1.05-0.55c0.2-0.35,0.35-0.75,0.35-1.3c0-0.4-0.05-0.7-0.2-1
		C302.709,124.368,302.509,124.168,302.309,124.018z M302.309,126.668c-0.2,0.25-0.4,0.4-0.7,0.4c-0.25,0-0.5-0.15-0.7-0.4
		c-0.2-0.2-0.3-0.55-0.3-1c0-0.5,0.1-0.9,0.3-1.1c0.2-0.25,0.4-0.4,0.7-0.4c0.2,0,0.35,0.05,0.5,0.2c0.15,0.1,0.3,0.25,0.35,0.4
		c0.1,0.25,0.15,0.55,0.15,0.85C302.609,126.068,302.509,126.418,302.309,126.668z"/>
	<polygon points="303.509,127.368 303.909,127.368 303.909,125.768 305.259,125.768 305.259,125.368 303.909,125.368 
		303.909,124.268 305.459,124.268 305.459,123.868 303.509,123.868 	"/>
	<path d="M308.759,125.518c-0.15-0.1-0.35-0.15-0.6-0.2c-0.3-0.1-0.5-0.2-0.6-0.25c-0.05-0.1-0.1-0.2-0.1-0.35s0.05-0.3,0.15-0.4
		c0.1-0.05,0.3-0.1,0.5-0.1s0.4,0.05,0.5,0.15c0.15,0.1,0.2,0.3,0.2,0.5l0.4-0.05c0-0.2-0.05-0.4-0.15-0.55
		c-0.1-0.15-0.25-0.25-0.4-0.35c-0.15-0.1-0.35-0.15-0.55-0.15c-0.3,0-0.55,0.1-0.75,0.3c-0.2,0.15-0.3,0.4-0.3,0.7
		c0,0.15,0.05,0.3,0.1,0.4c0.1,0.15,0.15,0.25,0.3,0.35c0.1,0.05,0.3,0.15,0.55,0.25c0.35,0.05,0.55,0.15,0.6,0.2
		c0.1,0.05,0.2,0.1,0.25,0.2c0.05,0.05,0.05,0.15,0.05,0.25c0,0.2-0.05,0.35-0.2,0.45c-0.1,0.1-0.3,0.15-0.5,0.15
		c-0.2,0-0.35-0.05-0.45-0.1c-0.15-0.05-0.25-0.15-0.3-0.25c-0.05-0.1-0.1-0.25-0.15-0.45l-0.35,0.05c0,0.15,0.05,0.35,0.1,0.5
		c0.05,0.1,0.15,0.25,0.25,0.35c0.2,0.2,0.5,0.35,0.85,0.35c0.25,0,0.45-0.05,0.6-0.15c0.15-0.1,0.3-0.2,0.4-0.4
		c0.05-0.15,0.1-0.35,0.1-0.55c0-0.2,0-0.35-0.1-0.5C309.059,125.718,308.909,125.568,308.759,125.518z"/>
	<polygon points="310.159,123.868 309.759,123.868 309.759,127.368 311.609,127.368 311.609,126.968 310.159,126.968 	"/>
	<path d="M312.859,123.868l-1.1,3.5h0.4l0.3-1.05h1.2l0.35,1.05h0.45l-1.2-3.5H312.859z M312.559,125.918l0.35-1
		c0.05-0.25,0.1-0.45,0.15-0.7c0.05,0.2,0.1,0.45,0.2,0.75l0.3,0.95H312.559z"/>
	<path d="M316.409,125.518c0.1-0.1,0.2-0.2,0.3-0.35c0.05-0.1,0.1-0.25,0.1-0.4c0-0.2-0.05-0.35-0.1-0.5
		c-0.1-0.15-0.2-0.25-0.35-0.3c-0.1-0.1-0.3-0.1-0.5-0.1h-1.1v3.5h1.1c0.25,0,0.45,0,0.6-0.1c0.15-0.05,0.25-0.2,0.35-0.35
		c0.1-0.15,0.15-0.35,0.15-0.55s-0.05-0.4-0.15-0.55C316.709,125.668,316.559,125.568,316.409,125.518z M315.109,124.268h0.6
		c0.2,0,0.35,0,0.45,0.05c0.1,0.05,0.15,0.1,0.2,0.15c0.05,0.1,0.05,0.2,0.05,0.35c0,0.1,0,0.25-0.05,0.3
		c-0.05,0.1-0.15,0.15-0.25,0.2h-0.35h-0.65V124.268z M316.459,126.718c-0.05,0.1-0.15,0.15-0.25,0.2c-0.05,0.05-0.2,0.05-0.35,0.05
		h-0.75v-1.2h0.7c0.2,0,0.35,0,0.45,0.05c0.1,0.05,0.15,0.1,0.2,0.2c0.05,0.1,0.1,0.2,0.1,0.35
		C316.559,126.518,316.509,126.618,316.459,126.718z"/>
	<path d="M274.359,132.868c-0.1-0.1-0.15-0.15-0.25-0.2c0.25-0.05,0.45-0.15,0.6-0.35c0.15-0.15,0.2-0.35,0.2-0.65
		c0-0.2-0.05-0.35-0.1-0.5c-0.1-0.15-0.2-0.3-0.35-0.35c-0.1-0.05-0.3-0.1-0.6-0.1h-1.25v3.55h0.35v-1.6h0.45
		c0.15,0,0.25,0.05,0.3,0.1c0.1,0,0.15,0.1,0.25,0.2c0.05,0.1,0.15,0.25,0.3,0.55l0.4,0.75h0.5l-0.5-0.95
		C274.559,133.118,274.459,132.968,274.359,132.868z M273.809,132.268h-0.85v-1.15h0.95c0.2,0,0.35,0.05,0.45,0.15
		c0.1,0.1,0.15,0.25,0.15,0.4c0,0.15,0,0.25-0.1,0.35c-0.05,0.1-0.1,0.15-0.2,0.2C274.109,132.268,273.959,132.268,273.809,132.268z
		"/>
	<polygon points="275.859,130.718 275.509,130.718 275.509,134.268 277.309,134.268 277.309,133.868 275.859,133.868 	"/>
	<polygon points="279.959,131.368 279.609,131.368 279.609,132.318 278.809,132.318 278.809,132.718 279.609,132.718 
		279.609,133.668 279.959,133.668 279.959,132.718 280.709,132.718 280.709,132.318 279.959,132.318 	"/>
	<path d="M282.159,131.968c-0.15,0-0.25,0.05-0.4,0.1c-0.1,0.1-0.2,0.2-0.3,0.35c0-0.4,0.05-0.75,0.15-0.95
		c0.15-0.25,0.3-0.4,0.5-0.4c0.15,0,0.25,0.05,0.35,0.15c0.1,0.1,0.15,0.2,0.15,0.4l0.35-0.05c0-0.1-0.05-0.25-0.1-0.35
		c0-0.1-0.1-0.2-0.15-0.3c-0.15-0.15-0.35-0.2-0.55-0.2c-0.3,0-0.55,0.15-0.75,0.45c-0.2,0.25-0.3,0.75-0.3,1.45
		c0,0.6,0.1,1.05,0.3,1.3c0.15,0.25,0.4,0.4,0.7,0.4c0.15,0,0.3-0.05,0.45-0.15c0.15-0.05,0.25-0.2,0.35-0.4
		c0.05-0.2,0.1-0.4,0.1-0.65c0-0.35-0.05-0.65-0.25-0.85C282.609,132.068,282.409,131.968,282.159,131.968z M282.509,133.768
		c-0.15,0.1-0.25,0.2-0.4,0.2c-0.15,0-0.3-0.1-0.4-0.25c-0.15-0.15-0.2-0.35-0.2-0.6s0.05-0.4,0.2-0.55c0.1-0.15,0.25-0.2,0.4-0.2
		c0.15,0,0.3,0.05,0.4,0.2c0.1,0.15,0.15,0.3,0.15,0.55C282.659,133.418,282.609,133.618,282.509,133.768z"/>
	<path d="M284.309,130.718c-0.3,0-0.55,0.15-0.7,0.45s-0.25,0.75-0.25,1.35c0,0.65,0.1,1.15,0.3,1.4c0.15,0.25,0.4,0.4,0.65,0.4
		c0.35,0,0.55-0.15,0.75-0.45c0.15-0.3,0.2-0.75,0.2-1.35c0-0.65-0.1-1.15-0.25-1.45
		C284.809,130.818,284.609,130.718,284.309,130.718z M284.759,133.668c-0.1,0.2-0.25,0.3-0.4,0.3c-0.2,0-0.35-0.1-0.45-0.3
		c-0.1-0.2-0.15-0.6-0.15-1.15s0.05-0.95,0.15-1.15c0.1-0.2,0.25-0.3,0.4-0.3c0.2,0,0.3,0.1,0.45,0.3c0.1,0.2,0.15,0.55,0.15,1.15
		C284.909,133.068,284.859,133.468,284.759,133.668z"/>
	<path d="M286.609,130.718c-0.35,0-0.55,0.15-0.75,0.45c-0.15,0.3-0.2,0.75-0.2,1.35c0,0.65,0.05,1.15,0.25,1.4
		c0.15,0.25,0.4,0.4,0.65,0.4c0.35,0,0.55-0.15,0.75-0.45c0.15-0.3,0.2-0.75,0.2-1.35c0-0.65-0.05-1.15-0.25-1.45
		C287.059,130.818,286.859,130.718,286.609,130.718z M287.009,133.668c-0.1,0.2-0.25,0.3-0.4,0.3c-0.2,0-0.35-0.1-0.45-0.3
		s-0.15-0.6-0.15-1.15s0.05-0.95,0.15-1.15c0.1-0.2,0.25-0.3,0.4-0.3c0.2,0,0.35,0.1,0.45,0.3c0.1,0.2,0.15,0.55,0.15,1.15
		C287.159,133.068,287.109,133.468,287.009,133.668z"/>
	<rect x="288.109" y="133.768" width="0.4" height="0.5"/>
	<path d="M290.509,130.718h-0.3l-1.3,2.3v0.4h1.25v0.85h0.35v-0.85h0.4v-0.4h-0.4V130.718z M290.159,133.018h-0.9l0.9-1.6V133.018z"
		/>
	<path d="M292.759,130.718h-0.25l-1.35,2.3v0.4h1.25v0.85h0.35v-0.85h0.4v-0.4h-0.4V130.718z M292.409,133.018h-0.9l0.9-1.6V133.018
		z"/>
	<path d="M294.559,131.918c-0.2,0-0.4,0.05-0.55,0.2l0.15-0.95h1.15v-0.4h-1.45l-0.25,1.8l0.35,0.05c0.05-0.1,0.1-0.15,0.2-0.25
		c0.1-0.05,0.2-0.05,0.3-0.05c0.2,0,0.35,0.05,0.45,0.2c0.1,0.15,0.2,0.3,0.2,0.6c0,0.25-0.1,0.45-0.2,0.6
		c-0.15,0.15-0.3,0.25-0.45,0.25c-0.15,0-0.25-0.05-0.35-0.15c-0.1-0.15-0.15-0.3-0.2-0.5h-0.35c0,0.35,0.1,0.55,0.25,0.75
		c0.2,0.15,0.4,0.25,0.65,0.25c0.3,0,0.55-0.1,0.75-0.35c0.15-0.25,0.25-0.55,0.25-0.9c0-0.35-0.1-0.65-0.25-0.85
		C295.009,132.018,294.809,131.918,294.559,131.918z"/>
	<path d="M175.109,38.868c-0.2,0.2-0.4,0.4-0.45,0.6c-0.1,0.15-0.15,0.3-0.15,0.45h1.6v-0.35h-1.2c0.05-0.05,0.1-0.1,0.15-0.2
		c0.05-0.05,0.15-0.15,0.35-0.35c0.25-0.25,0.45-0.5,0.55-0.65c0.1-0.2,0.15-0.35,0.15-0.55c0-0.2-0.1-0.4-0.2-0.55
		c-0.15-0.15-0.3-0.25-0.55-0.25s-0.4,0.05-0.55,0.2c-0.15,0.15-0.2,0.35-0.25,0.65h0.3c0-0.15,0.05-0.3,0.15-0.4
		c0.1-0.1,0.2-0.15,0.35-0.15c0.1,0,0.2,0.05,0.3,0.15c0.1,0.05,0.15,0.2,0.15,0.35c0,0.1-0.05,0.25-0.15,0.4
		C175.559,38.368,175.409,38.568,175.109,38.868z"/>
	<path d="M177.159,39.668c-0.25,0-0.4-0.15-0.45-0.55l-0.3,0.05c0,0.25,0.1,0.45,0.25,0.6c0.15,0.15,0.3,0.2,0.5,0.2
		s0.4-0.05,0.55-0.25c0.15-0.15,0.25-0.4,0.25-0.65c0-0.1,0-0.25-0.05-0.35c-0.05-0.1-0.1-0.15-0.15-0.25
		c-0.05-0.05-0.15-0.1-0.25-0.1c0.1-0.05,0.2-0.15,0.25-0.25c0.05-0.1,0.1-0.2,0.1-0.35c0-0.2-0.1-0.4-0.2-0.55
		c-0.15-0.15-0.3-0.2-0.5-0.2s-0.35,0.05-0.5,0.2c-0.1,0.1-0.2,0.3-0.25,0.55l0.3,0.05c0.05-0.15,0.1-0.3,0.15-0.4
		c0.1-0.05,0.2-0.1,0.3-0.1s0.2,0.05,0.25,0.1c0.1,0.1,0.15,0.2,0.15,0.35c0,0.15-0.05,0.25-0.15,0.35c-0.1,0.1-0.2,0.15-0.35,0.15
		l-0.05-0.05l-0.05,0.35c0.1-0.05,0.15-0.05,0.2-0.05c0.15,0,0.25,0.05,0.35,0.15c0.1,0.1,0.15,0.25,0.15,0.4
		c0,0.2-0.05,0.35-0.15,0.45C177.409,39.618,177.309,39.668,177.159,39.668z"/>
	<path d="M179.009,39.668c-0.1,0-0.2-0.05-0.3-0.1c-0.05-0.1-0.15-0.25-0.15-0.45l-0.3,0.05c0,0.25,0.1,0.45,0.25,0.6
		c0.15,0.15,0.3,0.2,0.5,0.2c0.25,0,0.45-0.1,0.6-0.3s0.2-0.45,0.2-0.7c0-0.3-0.05-0.55-0.2-0.7c-0.15-0.2-0.3-0.25-0.5-0.25
		s-0.35,0.05-0.45,0.15l0.1-0.75h0.95v-0.35h-1.15l-0.25,1.5l0.25,0.05c0.05-0.1,0.15-0.2,0.2-0.25c0.1-0.05,0.15-0.05,0.25-0.05
		c0.15,0,0.25,0.05,0.35,0.15c0.1,0.15,0.15,0.3,0.15,0.5s-0.05,0.4-0.15,0.55C179.259,39.618,179.159,39.668,179.009,39.668z"/>
	<path d="M180.859,39.968c0.3,0,0.45-0.1,0.6-0.35c0.15-0.25,0.2-0.65,0.2-1.1c0-0.55-0.1-0.95-0.25-1.2c-0.1-0.2-0.3-0.3-0.55-0.3
		s-0.45,0.1-0.55,0.35c-0.15,0.25-0.2,0.65-0.2,1.15s0.05,0.9,0.2,1.15C180.459,39.868,180.659,39.968,180.859,39.968z
		 M180.559,37.568c0.05-0.2,0.2-0.25,0.3-0.25c0.15,0,0.25,0.05,0.35,0.25c0.1,0.15,0.15,0.45,0.15,0.95c0,0.45-0.05,0.75-0.15,0.9
		c-0.1,0.2-0.2,0.25-0.3,0.25c-0.15,0-0.3-0.05-0.35-0.2c-0.1-0.2-0.15-0.5-0.15-0.95C180.409,38.018,180.459,37.718,180.559,37.568
		z"/>
	<path d="M180.959,127.568l0.05-0.3c-0.15-0.05-0.3-0.1-0.4-0.15c-0.05-0.1-0.1-0.2-0.1-0.3c0-0.1,0.05-0.2,0.1-0.25
		c0.1-0.1,0.2-0.15,0.35-0.15c0.15,0,0.25,0.05,0.35,0.15c0.1,0.1,0.1,0.2,0.1,0.35v0.05l0.35,0.05c-0.05-0.1-0.05-0.15-0.05-0.2
		c0-0.15,0.05-0.25,0.15-0.35s0.25-0.15,0.4-0.15c0.2,0,0.35,0.05,0.45,0.15c0.1,0.1,0.15,0.2,0.15,0.35c0,0.25-0.2,0.4-0.55,0.45
		l0.05,0.3c0.25,0,0.45-0.1,0.6-0.25c0.15-0.1,0.2-0.3,0.2-0.5c0-0.2-0.1-0.4-0.25-0.55c-0.15-0.15-0.4-0.25-0.65-0.25
		c-0.15,0-0.25,0-0.35,0.05c-0.1,0.05-0.2,0.1-0.25,0.15s-0.1,0.15-0.1,0.25c-0.05-0.1-0.15-0.2-0.25-0.25
		c-0.1-0.05-0.2-0.1-0.35-0.1c-0.2,0-0.4,0.1-0.55,0.2c-0.15,0.15-0.2,0.3-0.2,0.5c0,0.2,0.05,0.35,0.2,0.5
		C180.509,127.418,180.709,127.518,180.959,127.568z"/>
	<path d="M180.559,125.518c0.25,0.15,0.65,0.2,1.1,0.2c0.55,0,0.95-0.05,1.15-0.2c0.25-0.15,0.35-0.35,0.35-0.55
		c0-0.25-0.1-0.45-0.35-0.6c-0.25-0.15-0.65-0.2-1.15-0.2s-0.9,0.1-1.15,0.25c-0.2,0.1-0.3,0.3-0.3,0.55
		S180.309,125.418,180.559,125.518z M180.709,124.618c0.2-0.1,0.5-0.15,0.95-0.15c0.5,0,0.8,0.05,0.95,0.15
		c0.2,0.1,0.25,0.2,0.25,0.3c0,0.15-0.05,0.3-0.25,0.35c-0.15,0.1-0.45,0.15-0.95,0.15c-0.45,0-0.75-0.05-0.9-0.15
		c-0.2-0.05-0.25-0.2-0.25-0.3C180.509,124.818,180.559,124.718,180.709,124.618z"/>
	<path d="M180.559,123.668c0.25,0.15,0.65,0.2,1.1,0.2c0.55,0,0.95-0.05,1.15-0.2c0.25-0.15,0.35-0.35,0.35-0.55
		c0-0.3-0.1-0.45-0.35-0.6c-0.25-0.15-0.65-0.2-1.15-0.2s-0.9,0.1-1.15,0.25c-0.2,0.1-0.3,0.3-0.3,0.55
		S180.309,123.568,180.559,123.668z M180.709,122.768c0.2-0.1,0.5-0.15,0.95-0.15c0.5,0,0.8,0.05,0.95,0.15
		c0.2,0.1,0.25,0.2,0.25,0.3c0,0.15-0.05,0.3-0.25,0.35c-0.15,0.1-0.45,0.15-0.95,0.15c-0.45,0-0.75-0.05-0.9-0.15
		c-0.2-0.05-0.25-0.2-0.25-0.3C180.509,122.968,180.559,122.868,180.709,122.768z"/>
	<path d="M181.059,88.768v-0.3c-0.15,0-0.3,0-0.4-0.1c-0.1-0.1-0.15-0.2-0.15-0.35c0-0.1,0.05-0.2,0.1-0.3
		c0.1-0.1,0.25-0.15,0.4-0.15c0.1,0,0.25,0.05,0.4,0.15c0.15,0.05,0.35,0.25,0.65,0.5c0.2,0.25,0.4,0.4,0.6,0.5
		c0.15,0.1,0.3,0.15,0.45,0.15v-1.6h-0.35v1.15c-0.05,0-0.1-0.05-0.2-0.1c-0.05-0.05-0.15-0.15-0.35-0.35
		c-0.3-0.25-0.5-0.45-0.65-0.55c-0.2-0.1-0.35-0.15-0.55-0.15c-0.2,0-0.4,0.05-0.55,0.2c-0.2,0.1-0.25,0.3-0.25,0.55
		c0,0.2,0.05,0.4,0.2,0.55C180.559,88.668,180.759,88.768,181.059,88.768z"/>
	<path d="M182.309,86.668l0.05,0.3c0.25,0,0.45-0.1,0.6-0.25c0.15-0.15,0.2-0.3,0.2-0.5c0-0.25-0.1-0.45-0.3-0.6
		c-0.2-0.15-0.45-0.25-0.75-0.25c-0.25,0-0.5,0.1-0.65,0.25c-0.2,0.15-0.25,0.3-0.25,0.5c0,0.15,0.05,0.3,0.15,0.45l-0.75-0.1v-0.95
		h-0.35v1.15l1.5,0.25l0.05-0.3c-0.1-0.05-0.2-0.1-0.25-0.15c-0.05-0.1-0.05-0.15-0.05-0.25c0-0.15,0.05-0.3,0.15-0.4
		c0.15-0.05,0.3-0.1,0.5-0.1s0.4,0.05,0.5,0.15c0.15,0.1,0.2,0.2,0.2,0.35c0,0.1-0.05,0.2-0.1,0.3
		C182.659,86.568,182.509,86.618,182.309,86.668z"/>
	<path d="M180.559,84.918c0.25,0.15,0.65,0.2,1.1,0.2c0.55,0,0.95-0.1,1.15-0.2c0.25-0.15,0.35-0.35,0.35-0.6s-0.1-0.45-0.35-0.55
		c-0.25-0.15-0.65-0.2-1.15-0.2s-0.9,0.05-1.15,0.25c-0.2,0.1-0.3,0.3-0.3,0.5C180.209,84.568,180.309,84.768,180.559,84.918z
		 M180.709,84.018c0.2-0.1,0.5-0.15,0.95-0.15c0.5,0,0.8,0.05,0.95,0.15c0.2,0.05,0.25,0.2,0.25,0.3c0,0.15-0.05,0.25-0.25,0.35
		c-0.15,0.1-0.45,0.15-0.95,0.15c-0.45,0-0.75-0.05-0.9-0.15c-0.2-0.1-0.25-0.2-0.25-0.3
		C180.509,84.218,180.559,84.068,180.709,84.018z"/>
	<path d="M180.559,83.068c0.25,0.15,0.65,0.2,1.1,0.2c0.55,0,0.95-0.1,1.15-0.2c0.25-0.15,0.35-0.35,0.35-0.6s-0.1-0.45-0.35-0.55
		c-0.25-0.15-0.65-0.2-1.15-0.2s-0.9,0.05-1.15,0.25c-0.2,0.1-0.3,0.3-0.3,0.5C180.209,82.718,180.309,82.918,180.559,83.068z
		 M180.709,82.168c0.2-0.1,0.5-0.15,0.95-0.15c0.5,0,0.8,0.05,0.95,0.15c0.2,0.05,0.25,0.2,0.25,0.3c0,0.15-0.05,0.25-0.25,0.35
		c-0.15,0.1-0.45,0.15-0.95,0.15c-0.45,0-0.75-0.05-0.9-0.15c-0.2-0.1-0.25-0.2-0.25-0.3
		C180.509,82.368,180.559,82.218,180.709,82.168z"/>
	<path d="M86.059,93.018l0.05-0.3c-0.2,0-0.35,0-0.45-0.1c-0.1-0.1-0.15-0.2-0.15-0.35c0-0.1,0.05-0.2,0.15-0.3s0.2-0.15,0.35-0.15
		c0.15,0,0.3,0.05,0.45,0.15c0.1,0.05,0.35,0.25,0.6,0.5s0.45,0.4,0.6,0.5c0.2,0.1,0.35,0.15,0.5,0.15v-1.6h-0.35v1.15
		c-0.1,0-0.15-0.05-0.2-0.1c-0.05-0.05-0.2-0.15-0.35-0.35c-0.3-0.25-0.55-0.45-0.7-0.55c-0.15-0.1-0.35-0.15-0.55-0.15
		c-0.2,0-0.35,0.05-0.55,0.2c-0.15,0.1-0.25,0.3-0.25,0.55c0,0.2,0.1,0.4,0.25,0.55C85.559,92.918,85.809,93.018,86.059,93.018z"/>
	<path d="M85.959,91.118c0.15,0,0.3-0.05,0.4-0.1c0.1-0.05,0.15-0.15,0.2-0.25c0.05,0.15,0.15,0.25,0.25,0.35
		c0.15,0.05,0.3,0.1,0.5,0.1c0.25,0,0.45-0.1,0.65-0.25c0.15-0.15,0.25-0.3,0.25-0.55c0-0.2-0.1-0.4-0.25-0.55
		c-0.2-0.15-0.4-0.2-0.65-0.2c-0.2,0-0.35,0-0.45,0.1c-0.15,0.05-0.25,0.2-0.3,0.35c-0.05-0.15-0.1-0.25-0.2-0.3
		c-0.1-0.05-0.25-0.05-0.4-0.05c-0.2,0-0.4,0.05-0.5,0.15c-0.15,0.15-0.25,0.3-0.25,0.5s0.1,0.4,0.2,0.5
		C85.559,91.068,85.759,91.118,85.959,91.118z M86.909,90.068c0.1-0.05,0.25-0.1,0.4-0.1c0.2,0,0.3,0.05,0.45,0.1
		c0.1,0.1,0.15,0.25,0.15,0.35c0,0.15-0.05,0.25-0.2,0.35c-0.1,0.1-0.25,0.15-0.4,0.15c-0.2,0-0.3-0.05-0.45-0.15
		c-0.1-0.1-0.15-0.2-0.15-0.35C86.709,90.318,86.759,90.168,86.909,90.068z M85.659,90.168c0.1-0.1,0.2-0.1,0.3-0.1
		c0.15,0,0.25,0,0.35,0.1c0.1,0.05,0.1,0.15,0.1,0.25c0,0.1,0,0.2-0.1,0.3c-0.1,0.05-0.2,0.1-0.35,0.1c-0.1,0-0.25-0.05-0.3-0.1
		c-0.1-0.1-0.15-0.2-0.15-0.3C85.509,90.318,85.559,90.218,85.659,90.168z"/>
	<path d="M85.609,89.168c0.25,0.15,0.6,0.2,1.1,0.2c0.55,0,0.95-0.1,1.15-0.2c0.2-0.15,0.35-0.35,0.35-0.6s-0.15-0.45-0.4-0.55
		c-0.25-0.15-0.6-0.2-1.1-0.2c-0.55,0-0.95,0.05-1.2,0.25c-0.2,0.1-0.3,0.3-0.3,0.5C85.209,88.818,85.359,89.018,85.609,89.168z
		 M85.759,88.268c0.15-0.1,0.5-0.15,0.95-0.15c0.45,0,0.8,0.05,0.95,0.15c0.15,0.05,0.25,0.2,0.25,0.3c0,0.15-0.1,0.25-0.25,0.35
		c-0.15,0.1-0.5,0.15-0.95,0.15c-0.45,0-0.8-0.05-0.95-0.15c-0.15-0.1-0.25-0.2-0.25-0.3C85.509,88.468,85.609,88.318,85.759,88.268
		z"/>
	<path d="M85.609,87.318c0.25,0.15,0.6,0.2,1.1,0.2c0.55,0,0.95-0.1,1.15-0.2c0.2-0.15,0.35-0.35,0.35-0.6s-0.15-0.45-0.4-0.55
		c-0.25-0.15-0.6-0.2-1.1-0.2c-0.55,0-0.95,0.05-1.2,0.25c-0.2,0.1-0.3,0.3-0.3,0.5C85.209,86.968,85.359,87.168,85.609,87.318z
		 M85.759,86.418c0.15-0.1,0.5-0.15,0.95-0.15c0.45,0,0.8,0.05,0.95,0.15c0.15,0.05,0.25,0.2,0.25,0.3c0,0.15-0.1,0.25-0.25,0.35
		c-0.15,0.1-0.5,0.15-0.95,0.15c-0.45,0-0.8-0.05-0.95-0.15c-0.15-0.1-0.25-0.2-0.25-0.3C85.509,86.618,85.609,86.468,85.759,86.418
		z"/>
</g>
</svg>
