<?xml version="1.0" encoding="utf-8"?>
<!-- Generator: Adobe Illustrator 18.1.1, SVG Export Plug-In . SVG Version: 6.00 Build 0)  -->
<svg class="Layer_1" xmlns="http://www.w3.org/2000/svg" xmlns:xlink="http://www.w3.org/1999/xlink" x="0px" y="0px"
	 viewBox="0 0 320 65.019" enable-background="new 0 0 320 65.019" xml:space="preserve">
<rect y="0" fill="#ffffff" width="320.315" height="65.019"/>
<rect x="2.562" y="0" fill="#c6d9f1" width="156.659" height="3.467"/>
<rect x="162.541" y="0" fill="#c6d9f1" width="156.818" height="3.467"/>
<rect x="2.562" y="15.425" fill="#c6d9f1" width="156.66" height="4.056"/>
<rect x="162.541" y="15.426" fill="#c6d9f1" width="156.818" height="4.055"/>
<rect x="2.562" y="35.443" fill="#c6d9f1" width="156.66" height="4.056"/>
<rect x="162.541" y="35.443" fill="#c6d9f1" width="156.818" height="4.056"/>
<rect x="2.562" y="51.456" fill="#c6d9f1" width="156.66" height="4.056"/>
<rect x="162.541" y="51.457" fill="#c6d9f1" width="156.818" height="4.055"/>
<text transform="matrix(1 0 0 1 16.4161 2.2578)" font-family="'Arial'" font-weight="bolder" font-size="2.6865">Screeds</text>
<text transform="matrix(1 0 0 1 118.6071 2.2578)" font-family="'Arial'" font-weight="bolder" font-size="2.6865">.</text>
<text transform="matrix(1 0 0 1 146.9473 2.2578)" font-family="'Arial'" font-weight="bolder" font-size="2.6865">.</text>
<text transform="matrix(1 0 0 1 176.5524 2.2578)" font-family="'Arial'" font-weight="bolder" font-size="2.6865">Screeds</text>
<g>
	<text transform="matrix(1 0 0 1 307.0836 2.2578)" font-family="'Arial'" font-weight="bolder" font-size="2.6865">.</text>
	<text transform="matrix(1 0 0 1 278.7439 2.2578)" font-family="'Arial'" font-weight="bolder" font-size="2.6865">.</text>
</g>
<rect x="0.07" y="0.001" fill="none" width="319.394" height="65.018"/>
<text transform="matrix(1 0 0 1 2.9305 6.1541)" font-family="'Arial'" font-size="2.6865">SCR-01</text>
<text transform="matrix(1 0 0 1 16.4162 6.2078)" font-family="'Arial'" font-size="2.6865">Bonded screeds </text>
<text transform="matrix(1 0 0 1 114.0224 6.2078)" font-family="'Arial'" font-size="2.6865">Screeds</text>
<text transform="matrix(1 0 0 1 143.1524 6.2078)" font-family="'Arial'" font-size="2.6865">05-300</text>
<text transform="matrix(1 0 0 1 163.0674 6.1541)" font-family="'Arial'" font-size="2.6865">SCR-01</text>
<text transform="matrix(1 0 0 1 176.5535 6.2078)" font-family="'Arial'" font-size="2.6865">Bonded screeds </text>
<text transform="matrix(1 0 0 1 274.1597 6.2078)" font-family="'Arial'" font-size="2.6865">Screeds</text>
<text transform="matrix(1 0 0 1 303.2897 6.2078)" font-family="'Arial'" font-size="2.6865">05-300</text>
<text transform="matrix(1 0 0 1 2.9305 10.16)" font-family="'Arial'" font-size="2.6865">SCR-02</text>
<text transform="matrix(1 0 0 1 16.4166 10.2137)" font-family="'Arial'" font-size="2.6865">Unbonded screeds</text>
<text transform="matrix(1 0 0 1 114.0224 10.2137)" font-family="'Arial'" font-size="2.6865">Screeds</text>
<text transform="matrix(1 0 0 1 143.1524 10.2137)" font-family="'Arial'" font-size="2.6865">05-300</text>
<text transform="matrix(1 0 0 1 163.0701 10.16)" font-family="'Arial'" font-size="2.6865">SCR-02</text>
<text transform="matrix(1 0 0 1 176.5567 10.2137)" font-family="'Arial'" font-size="2.6865">Unbonded screeds</text>
<text transform="matrix(1 0 0 1 274.1619 10.2137)" font-family="'Arial'" font-size="2.6865">Screeds</text>
<text transform="matrix(1 0 0 1 303.2919 10.2137)" font-family="'Arial'" font-size="2.6865">05-300</text>
<g>
	<text transform="matrix(1 0 0 1 146.9537 14.2169)" font-family="'Arial'" font-size="2.6865">.</text>
	<text transform="matrix(1 0 0 1 118.6135 14.2169)" font-family="'Arial'" font-size="2.6865">.</text>
</g>
<g>
	<text transform="matrix(1 0 0 1 307.0836 14.2136)" font-family="'Arial'" font-size="2.6865">.</text>
	<text transform="matrix(1 0 0 1 278.7439 14.2136)" font-family="'Arial'" font-size="2.6865">.</text>
</g>
<rect x="0.07" y="0.001" fill="none" width="319.394" height="65.018"/>
<text transform="matrix(1 0 0 1 16.4156 18.27)" font-family="'Arial'" font-weight="bolder" font-size="2.6865">Signage</text>
<text transform="matrix(1 0 0 1 118.6071 18.27)" font-family="'Arial'" font-weight="bolder" font-size="2.6865">.</text>
<text transform="matrix(1 0 0 1 146.9473 18.27)" font-family="'Arial'" font-weight="bolder" font-size="2.6865">.</text>
<text transform="matrix(1 0 0 1 176.5524 18.27)" font-family="'Arial'" font-weight="bolder" font-size="2.6865">Signage</text>
<g>
	<text transform="matrix(1 0 0 1 307.0836 18.27)" font-family="'Arial'" font-weight="bolder" font-size="2.6865">.</text>
	<text transform="matrix(1 0 0 1 278.7439 18.27)" font-family="'Arial'" font-weight="bolder" font-size="2.6865">.</text>
</g>
<rect x="0.07" y="0.001" fill="none" width="319.394" height="65.018"/>
<text transform="matrix(1 0 0 1 2.93 22.1685)" font-family="'Arial'" font-size="2.6865">SGN-01</text>
<text transform="matrix(1 0 0 1 16.4162 22.2221)" font-family="'Arial'" font-size="2.6865">400w x 1800h wall hung blade </text>
<text transform="matrix(1 0 0 1 114.0707 22.2221)" font-family="'Arial'" font-size="2.6865">Signage</text>
<text transform="matrix(1 0 0 1 143.147 22.2221)" font-family="'Arial'" font-size="2.6865">06-280</text>
<text transform="matrix(1 0 0 1 163.0674 22.1685)" font-family="'Arial'" font-size="2.6865">SGN-04</text>
<text transform="matrix(1 0 0 1 176.553 22.2221)" font-family="'Arial'" font-size="2.6865">Free standing totem sign - type 1</text>
<text transform="matrix(1 0 0 1 274.2124 22.2221)" font-family="'Arial'" font-size="2.6865">Signage</text>
<text transform="matrix(1 0 0 1 303.2897 22.2221)" font-family="'Arial'" font-size="2.6865">06-280</text>
<text transform="matrix(1 0 0 1 2.9328 26.1743)" font-family="'Arial'" font-size="2.6865">SGN-02</text>
<text transform="matrix(1 0 0 1 16.4188 26.2275)" font-family="'Arial'" font-size="2.6865">400w x 600h wall hung blade </text>
<text transform="matrix(1 0 0 1 114.076 26.2275)" font-family="'Arial'" font-size="2.6865">Signage</text>
<text transform="matrix(1 0 0 1 143.1524 26.2275)" font-family="'Arial'" font-size="2.6865">06-280</text>
<text transform="matrix(1 0 0 1 163.0723 26.1743)" font-family="'Arial'" font-size="2.6865">SGN-05</text>
<text transform="matrix(1 0 0 1 176.5588 26.2275)" font-family="'Arial'" font-size="2.6865">Free standing totem sign - type 2</text>
<text transform="matrix(1 0 0 1 274.2183 26.2275)" font-family="'Arial'" font-size="2.6865">Signage</text>
<text transform="matrix(1 0 0 1 303.2945 26.2275)" font-family="'Arial'" font-size="2.6865">06-280</text>
<text transform="matrix(1 0 0 1 2.9381 30.1792)" font-family="'Arial'" font-size="2.6865">SGN-03</text>
<text transform="matrix(1 0 0 1 16.4247 30.2329)" font-family="'Arial'" font-size="2.6865">Free standing totem sign - type 1</text>
<text transform="matrix(1 0 0 1 114.0836 30.2329)" font-family="'Arial'" font-size="2.6865">Signage</text>
<text transform="matrix(1 0 0 1 143.1599 30.2329)" font-family="'Arial'" font-size="2.6865">06-280</text>
<text transform="matrix(1 0 0 1 163.0749 30.1792)" font-family="'Arial'" font-size="2.6865">SGN-06</text>
<text transform="matrix(1 0 0 1 176.5615 30.2329)" font-family="'Arial'" font-size="2.6865">Free standing triangular base sign</text>
<text transform="matrix(1 0 0 1 274.2183 30.2329)" font-family="'Arial'" font-size="2.6865">Signage</text>
<text transform="matrix(1 0 0 1 303.2945 30.2329)" font-family="'Arial'" font-size="2.6865">06-280</text>
<text transform="matrix(1 0 0 1 16.4274 38.2924)" font-family="'Arial'" font-weight="bolder" font-size="2.6865">Tiling</text>
<text transform="matrix(1 0 0 1 118.6189 38.2924)" font-family="'Arial'" font-weight="bolder" font-size="2.6865">.</text>
<text transform="matrix(1 0 0 1 146.9585 38.2924)" font-family="'Arial'" font-weight="bolder" font-size="2.6865">.</text>
<text transform="matrix(1 0 0 1 176.5637 38.2924)" font-family="'Arial'" font-weight="bolder" font-size="2.6865">Tiling</text>
<g>
	<text transform="matrix(1 0 0 1 307.0836 38.287)" font-family="'Arial'" font-weight="bolder" font-size="2.6865">.</text>
	<text transform="matrix(1 0 0 1 278.7439 38.287)" font-family="'Arial'" font-weight="bolder" font-size="2.6865">.</text>
</g>
<rect x="0.07" y="0.001" fill="none" width="319.394" height="65.018"/>
<text transform="matrix(1 0 0 1 2.9295 42.1855)" font-family="'Arial'" font-size="2.6865">TIL-01</text>
<text transform="matrix(1 0 0 1 16.4161 42.2392)" font-family="'Arial'" font-size="2.6865">Vitrified ceramic floor tiling: Klingenberg/Graphite Mix  </text>
<text transform="matrix(1 0 0 1 115.8108 42.2392)" font-family="'Arial'" font-size="2.6865">Tiling</text>
<text transform="matrix(1 0 0 1 143.1491 42.2392)" font-family="'Arial'" font-size="2.6865">05-400</text>
<text transform="matrix(1 0 0 1 163.069 42.1855)" font-family="'Arial'" font-size="2.6865">TIL-03</text>
<text transform="matrix(1 0 0 1 176.5562 42.2392)" font-family="'Arial'" font-size="2.6865">Vitrified ceramic floor tiling - Metz Ceramic tiles</text>
<text transform="matrix(1 0 0 1 275.9509 42.2392)" font-family="'Arial'" font-size="2.6865">Tiling</text>
<text transform="matrix(1 0 0 1 303.2886 42.2392)" font-family="'Arial'" font-size="2.6865">05-400</text>
<text transform="matrix(1 0 0 1 2.9349 46.1909)" font-family="'Arial'" font-size="2.6865">TIL-02</text>
<text transform="matrix(1 0 0 1 16.4215 46.2445)" font-family="'Arial'" font-size="2.6865">Ceramic wall tiling - Classic Ceramics: Matt White</text>
<text transform="matrix(1 0 0 1 115.8167 46.2445)" font-family="'Arial'" font-size="2.6865">Tiling</text>
<text transform="matrix(1 0 0 1 143.154 46.2445)" font-family="'Arial'" font-size="2.6865">05-400</text>
<text transform="matrix(1 0 0 1 163.0717 46.1909)" font-family="'Arial'" font-size="2.6865">TIL-04</text>
<text transform="matrix(1 0 0 1 176.5583 46.2445)" font-family="'Arial'" font-size="2.6865">Ceramic wall tiling - Classic Ceramics: Matt White</text>
<text transform="matrix(1 0 0 1 275.953 46.2445)" font-family="'Arial'" font-size="2.6865">Tiling</text>
<text transform="matrix(1 0 0 1 303.2908 46.2445)" font-family="'Arial'" font-size="2.6865">05-400</text>
<g>
	<text transform="matrix(1 0 0 1 146.9558 50.2472)" font-family="'Arial'" font-size="2.6865">.</text>
	<text transform="matrix(1 0 0 1 118.6156 50.2472)" font-family="'Arial'" font-size="2.6865">.</text>
</g>
<g>
	<text transform="matrix(1 0 0 1 307.0836 50.2451)" font-family="'Arial'" font-size="2.6865">.</text>
	<text transform="matrix(1 0 0 1 278.7438 50.2451)" font-family="'Arial'" font-size="2.6865">.</text>
</g>
<rect x="0.07" y="0.001" fill="none" width="319.394" height="65.018"/>
<text transform="matrix(1 0 0 1 16.415 54.3004)" font-family="'Arial'" font-weight="bolder" font-size="2.6865">Trims/Skirtings/Architraves</text>
<text transform="matrix(1 0 0 1 118.607 54.3004)" font-family="'Arial'" font-weight="bolder" font-size="2.6865">.</text>
<text transform="matrix(1 0 0 1 146.9467 54.3004)" font-family="'Arial'" font-weight="bolder" font-size="2.6865">.</text>
<text transform="matrix(1 0 0 1 176.5524 54.3004)" font-family="'Arial'" font-weight="bolder" font-size="2.6865">Trims/Skirtings/Architraves</text>
<text transform="matrix(1 0 0 1 278.7438 54.3004)" font-family="'Arial'" font-weight="bolder" font-size="2.6865">.</text>
<text transform="matrix(1 0 0 1 307.0835 54.3004)" font-family="'Arial'" font-weight="bolder" font-size="2.6865">.</text>
<text transform="matrix(1 0 0 1 2.9316 58.1989)" font-family="'Arial'" font-size="2.6865">TRM-01</text>
<text transform="matrix(1 0 0 1 16.4177 58.2525)" font-family="'Arial'" font-size="2.6865">Handrail and Crash Rail Combined</text>
<text transform="matrix(1 0 0 1 109.9612 58.2525)" font-family="'Arial'" font-size="2.6865">Wall Protection</text>
<text transform="matrix(1 0 0 1 143.1454 58.2525)" font-family="'Arial'" font-size="2.6865">06-150</text>
<text transform="matrix(1 0 0 1 163.0679 58.1989)" font-family="'Arial'" font-size="2.6865">TRM-01</text>
<text transform="matrix(1 0 0 1 176.5545 58.2525)" font-family="'Arial'" font-size="2.6865">Handrail and Crash Rail Combined</text>
<text transform="matrix(1 0 0 1 270.0985 58.2525)" font-family="'Arial'" font-size="2.6865">Wall Protection</text>
<text transform="matrix(1 0 0 1 303.2827 58.2525)" font-family="'Arial'" font-size="2.6865">06-150</text>
<text transform="matrix(1 0 0 1 2.9316 62.2042)" font-family="'Arial'" font-size="2.6865">TRM-02</text>
<text transform="matrix(1 0 0 1 16.4177 62.2579)" font-family="'Arial'" font-size="2.6865">Single Corner Guard</text>
<text transform="matrix(1 0 0 1 109.9671 62.2579)" font-family="'Arial'" font-size="2.6865">Wall Protection</text>
<text transform="matrix(1 0 0 1 143.1502 62.2579)" font-family="'Arial'" font-size="2.6865">06-150</text>
<text transform="matrix(1 0 0 1 163.0679 62.2042)" font-family="'Arial'" font-size="2.6865">TRM-02</text>
<text transform="matrix(1 0 0 1 176.5545 62.2579)" font-family="'Arial'" font-size="2.6865">Single Corner Guard</text>
<text transform="matrix(1 0 0 1 270.1034 62.2579)" font-family="'Arial'" font-size="2.6865">Wall Protection</text>
<text transform="matrix(1 0 0 1 303.287 62.2579)" font-family="'Arial'" font-size="2.6865">06-150</text>
<rect x="0.07" y="0.001" fill="none" width="319.394" height="65.018"/>
<rect x="2.562" y="3.31" width="156.765" height="0.263"/>
<rect x="2.562" y="7.313" width="156.765" height="0.264"/>
<rect x="2.562" y="11.316" width="156.765" height="0.264"/>
<rect x="2.562" y="15.319" width="156.765" height="0.264"/>
<rect x="2.562" y="19.324" width="156.765" height="0.263"/>
<rect x="2.562" y="23.327" width="156.765" height="0.264"/>
<rect x="2.562" y="27.33" width="156.765" height="0.264"/>
<rect x="2.562" y="31.333" width="156.765" height="0.264"/>
<rect x="2.562" y="35.337" width="156.765" height="0.263"/>
<rect x="2.562" y="39.34" width="156.765" height="0.264"/>
<rect x="2.562" y="43.344" width="156.765" height="0.264"/>
<rect x="2.562" y="47.347" width="156.765" height="0.264"/>
<rect x="2.562" y="51.351" width="156.765" height="0.263"/>
<rect x="2.562" y="55.354" width="156.765" height="0.264"/>
<rect x="2.562" y="59.357" width="156.765" height="0.264"/>
<rect x="2.562" y="63.36" width="156.765" height="0.264"/>
<rect x="2.299" y="0.001" width="0.264" height="65.018"/>
<rect x="15.784" y="0.001" width="0.264" height="65.018"/>
<rect x="102.384" y="0.001" width="0.264" height="65.018"/>
<rect x="135.254" y="0.001" width="0.264" height="65.018"/>
<rect x="159.064" y="0.001" width="0.263" height="65.018"/>
<rect x="162.436" y="0.001" width="0.263" height="65.018"/>
<rect x="175.92" y="0.001" width="0.264" height="65.018"/>
<rect x="262.521" y="0.001" width="0.263" height="65.018"/>
<rect x="295.391" y="0.001" width="0.264" height="65.018"/>
<rect x="319.2" y="0.001" width="0.264" height="65.018"/>
<rect x="0.07" y="0.001" fill="none" width="319.394" height="65.018"/>
<rect x="162.699" y="3.31" width="156.766" height="0.263"/>
<rect x="162.699" y="7.313" width="156.766" height="0.264"/>
<rect x="162.699" y="11.316" width="156.766" height="0.264"/>
<rect x="162.699" y="15.319" width="156.766" height="0.264"/>
<rect x="162.699" y="19.324" width="156.766" height="0.263"/>
<rect x="162.699" y="23.327" width="156.766" height="0.264"/>
<rect x="162.699" y="27.33" width="156.766" height="0.264"/>
<rect x="162.699" y="31.333" width="156.766" height="0.264"/>
<rect x="162.699" y="35.337" width="156.766" height="0.263"/>
<rect x="162.699" y="39.34" width="156.766" height="0.264"/>
<rect x="162.699" y="43.344" width="156.766" height="0.264"/>
<rect x="162.699" y="47.347" width="156.766" height="0.264"/>
<rect x="162.699" y="51.351" width="156.766" height="0.263"/>
<rect x="162.699" y="55.354" width="156.766" height="0.264"/>
<rect x="162.699" y="59.357" width="156.766" height="0.264"/>
<rect x="162.699" y="63.36" width="156.766" height="0.264"/>
</svg>
