<?xml version="1.0" standalone="no"?>
<!DOCTYPE svg PUBLIC "-//W3C//DTD SVG 20010904//EN"
 "http://www.w3.org/TR/2001/REC-SVG-20010904/DTD/svg10.dtd">
<svg version="1.0" xmlns="http://www.w3.org/2000/svg"
 width="510.000000pt" height="510.000000pt" viewBox="0 0 510.000000 510.000000"
 preserveAspectRatio="xMidYMid meet">
<metadata>
Created by potrace 1.11, written by Peter Selinger 2001-2013
</metadata>
<g transform="translate(0.000000,510.000000) scale(0.100000,-0.100000)"
fill="#000000" stroke="none">
<path d="M393 5086 c-187 -46 -342 -206 -382 -394 -15 -74 -16 -4218 0 -4294
30 -146 145 -291 284 -359 l70 -34 2190 0 2190 0 77 38 c98 49 191 143 239
242 l34 70 0 2190 0 2190 -34 70 c-68 139 -213 254 -359 284 -82 17 -4239 14
-4309 -3z m4132 -522 c61 -29 65 -49 65 -366 0 -263 -1 -285 -20 -315 -35 -57
-38 -58 -355 -58 -409 0 -380 -29 -380 380 0 317 1 320 58 355 30 19 52 20
315 20 238 0 289 -3 317 -16z m-1725 -1037 c187 -48 342 -140 481 -284 134
-139 215 -284 261 -469 31 -126 31 -332 0 -458 -46 -185 -127 -330 -261 -469
-138 -143 -291 -234 -481 -285 -82 -22 -116 -25 -245 -25 -129 0 -163 3 -245
25 -190 51 -343 142 -481 285 -134 139 -215 284 -261 469 -31 126 -31 332 0
458 46 185 127 330 261 469 208 216 465 322 756 313 84 -3 149 -12 215 -29z
m-1768 -769 c-4 -18 -7 -118 -6 -223 0 -155 5 -209 22 -291 132 -618 586
-1071 1206 -1206 147 -32 455 -32 602 0 546 119 970 488 1148 1001 63 182 79
280 80 501 1 107 -2 207 -7 223 l-7 27 260 0 260 0 0 -1090 c0 -920 -2 -1096
-14 -1125 -30 -70 136 -65 -2016 -65 -1748 0 -1945 2 -1975 16 -69 32 -65 -36
-65 1173 l0 1091 260 0 260 0 -8 -32z"/>
</g>
</svg>
