<svg class="templates-letterhead-sample" xmlns="http://www.w3.org/2000/svg" xmlns:xlink="http://www.w3.org/1999/xlink" x="0px" y="0px" viewBox="0 0 225.232 316.177" enable-background="new 0 0 225.232 316.177"
	 xml:space="preserve" alt="Example BVN letterhead with correct positioning and fonts.">
<rect x="2.834" y="2.834" fill="white" stroke="#000000" stroke-width="0.25" width="219.563" height="310.516"/>
<text transform="matrix(1 0 0 1 29.125 21.5117)" font-size="3.6734">255 PITT STREET / SYDNEY 2000 AUSTRALIA / T +61 2 8297 7200 / BVN.COM.AU</text>
<path d="M41.052,27.795v6.359h-1.638L41.052,27.795z M34.75,34.154c0.198-0.406,0.313-0.852,0.313-1.33
	c0-0.842-0.355-1.6-0.93-2.141c0.574-0.539,0.93-1.297,0.93-2.141v-0.01l1.461,5.621H34.75z M30.762,34.154v-2.66h1.336
	c0.731,0,1.325,0.604,1.325,1.33s-0.594,1.33-1.325,1.33H30.762z M32.098,27.215c0.731,0,1.325,0.592,1.325,1.328
	c0,0.729-0.594,1.32-1.325,1.32h-1.336v-2.648H32.098z M39.519,27.215l-1.556,5.994l-1.555-5.994H39.519z M45.634,34.154h-2.942
	v-4.842L45.634,34.154z M46.271,32.045l-2.944-4.83h2.944V32.045z M29.125,35.785h18.785V25.584H29.125V35.785z"/>
	<path d="M42.421,177.189c0.465-0.371,0.816-0.73,1.146-1.113c0.454-0.529,0.945-1.016,1.529-1.41c0.343-0.232,0.5-0.1,0.604,0.209
		c0.159,0.465,0.237,0.947,0.247,1.5c0.646-0.365,1.102-0.887,1.653-1.279c0.244-0.174,0.491-0.51,0.794-0.354
		c0.308,0.156,0.297,0.551,0.291,0.891c-0.005,0.342-0.038,0.693,0.1,1.063c0.398-0.182,0.581-0.58,0.88-0.85
		c0.325-0.293,0.625-0.611,0.945-0.908c0.158-0.146,0.371-0.184,0.566-0.119c0.198,0.066,0.125,0.279,0.146,0.432
		c0.05,0.359,0.08,0.721,0.123,1.117c0.648-0.426,1.062-1.057,1.685-1.443c0.133-0.082,0.222-0.246,0.429-0.133
		c0.196,0.105,0.295,0.244,0.311,0.473c0.03,0.469,0.081,0.939,0.133,1.506c0.517-0.434,0.975-0.838,1.453-1.215
		c0.578-0.457,1.215-0.801,1.935-1.004c0.363-0.104,0.559,0.002,0.69,0.322c0.155,0.379,0.179,0.748,0.103,1.166
		c-0.085,0.461-0.317,0.975,0.145,1.404c0.137,0.129,0.014,0.264-0.069,0.391c-0.141,0.211-0.337,0.215-0.532,0.135
		c-0.155-0.064-0.374-0.107-0.335-0.365c0.046-0.305,0.09-0.611,0.14-0.916c0.008-0.053,0.053-0.1,0.058-0.152
		c0.041-0.4,0.124-0.871-0.176-1.146c-0.337-0.307-0.726,0.039-1.055,0.189c-0.833,0.379-1.385,1.113-2.046,1.707
		c-0.122,0.109-0.256,0.219-0.347,0.354c-0.129,0.193-0.295,0.035-0.436,0.057c-0.191,0.031-0.087-0.186-0.102-0.291
		c-0.077-0.594-0.082-1.197-0.259-1.848c-0.68,0.492-1.21,1.084-1.705,1.711c-0.11,0.139-0.156,0.285-0.42,0.217
		c-0.296-0.074-0.187-0.246-0.197-0.408c-0.023-0.365-0.051-0.73-0.075-1.096c-0.008-0.113-0.022-0.246-0.126-0.289
		c-0.118-0.051-0.19,0.082-0.261,0.154c-0.567,0.592-1.174,1.15-1.598,1.867c-0.042,0.07-0.011,0.355-0.269,0.188
		c-0.131-0.084-0.313-0.074-0.286-0.328c0.054-0.512-0.161-1.01-0.114-1.529c0.012-0.133-0.04-0.352-0.131-0.4
		c-0.156-0.082-0.293,0.096-0.413,0.197c-0.499,0.43-0.984,0.875-1.489,1.297c-0.316,0.264-0.549,0.178-0.617-0.215
		c-0.072-0.412-0.146-0.826-0.174-1.242c-0.028-0.43-0.253-0.32-0.448-0.174c-0.515,0.385-0.9,0.906-1.342,1.367
		c-0.316,0.33-0.629,0.666-0.907,1.027c-0.159,0.205-0.33,0.107-0.492,0.086c-0.216-0.025-0.143-0.23-0.145-0.354
		c-0.01-0.697,0.178-1.385,0.072-2.139c-0.383,0.262-0.62,0.631-0.872,0.959c-0.349,0.451-0.771,0.83-1.136,1.262
		c-0.198,0.232-0.416,0.275-0.719,0.189c-0.347-0.096-0.189-0.344-0.219-0.531c-0.084-0.547,0.138-1.08,0.102-1.727
		c-0.505,0.604-0.948,1.146-1.407,1.676c-0.344,0.395-0.729,0.705-1.313,0.607c-0.266-0.043-0.358-0.15-0.372-0.428
		c-0.024-0.506,0.236-0.91,0.419-1.34c0.185-0.438,0.388-0.867,0.612-1.285c0.136-0.252,0.06-0.33-0.19-0.34
		c-0.4-0.018-0.802-0.061-1.2-0.045c-0.79,0.033-1.563-0.193-2.344-0.158c-0.934,0.043-1.882-0.061-2.802,0.225
		c-0.229,0.072-0.318,0.141-0.346,0.387c-0.204,1.785-0.289,3.58-0.427,5.369c-0.008,0.09-0.038,0.215,0.008,0.271
		c0.652,0.797-0.21,1.443-0.206,2.174c0.001,0.16-0.082,0.236-0.246,0.199c-0.155-0.035-0.283-0.096-0.234-0.295
		c0.004-0.018,0.005-0.037,0.011-0.055c0.396-1.166,0.188-2.389,0.33-3.582c0.146-1.219,0.166-2.449,0.238-3.676
		c0.032-0.559,0.057-1.117,0.085-1.674c0.01-0.189,0.104-0.33,0.257-0.438c0.089,0.168,0.39-0.076,0.416,0.219
		c0.016,0.16,0.15,0.131,0.254,0.131c1.993-0.012,3.967,0.32,5.957,0.346c0.258,0.004,0.515-0.012,0.771-0.021
		c0.146-0.006,0.383-0.219,0.413-0.027c0.033,0.203,0.207,0.432-0.029,0.699c-0.422,0.477-0.726,1.047-1.014,1.619
		c-0.084,0.164-0.155,0.324-0.183,0.512c-0.03,0.203-0.239,0.441,0.003,0.592c0.21,0.129,0.42-0.08,0.589-0.203
		c0.72-0.521,1.204-1.275,1.813-1.906c0.183-0.189,0.312-0.332,0.596-0.223c0.368,0.143,0.102,0.383,0.086,0.553
		c-0.05,0.559-0.152,1.109-0.256,1.799c0.716-0.5,1.243-0.992,1.672-1.572c0.273-0.371,0.626-0.668,0.901-1.033
		c0.074-0.098,0.13-0.207,0.308-0.135c0.18,0.076,0.268,0.166,0.25,0.365c-0.055,0.6-0.103,1.199-0.152,1.799
		C42.448,176.869,42.438,176.986,42.421,177.189"/>
	<path d="M60.43,178.021c-0.199-0.014-0.139-0.256-0.268-0.338c0.199-0.203,0.121-0.684,0.55-0.629
		c0.187,0.023,0.556-0.006,0.524,0.348C61.197,177.855,60.779,177.898,60.43,178.021"/>
<text transform="matrix(1 0 0 1 29.1255 60.0146)"><tspan x="0" y="0"  font-size="3.67">John Doe </tspan><tspan x="0" y="3.899"  font-size="3.67">Position </tspan><tspan x="0" y="7.8"  font-size="3.67">Company </tspan><tspan x="0" y="11.7"  font-size="3.67">00 Street Name</tspan><tspan x="0" y="15.6"  font-size="3.67">Sydney NSW 0000</tspan><tspan x="0" y="19.5"  font-size="3.67">Australia</tspan></text>
<text transform="matrix(1 0 0 1 29.0542 98.0615)"  font-size="3.67">1 SEP 2014</text>
<text transform="matrix(1 0 0 1 75.5337 98.0615)"  font-size="3.67">1/1</text>
<text transform="matrix(1 0 0 1 28.9907 116.3428)"  font-size="3.67">Dear  John ,</text>
<text transform="matrix(1 0 0 1 28.9917 125.125)"><tspan x="0" y="0" font-family="'Blender-Bold'" font-size="5.2">HEADING 1</tspan><tspan x="0" y="3.9"  font-size="3.67">Body text</tspan></text>
<text transform="matrix(1 0 0 1 28.9917 149.542)"><tspan x="0" y="0" font-family="'Blender-Medium'" font-size="3.67">HEADING 3</tspan><tspan x="0" y="3.9"  font-size="3.67">Body text</tspan></text>
<text transform="matrix(1 0 0 1 28.9917 137.7344)"><tspan x="0" y="0" font-family="'Blender-Medium'" font-size="4.4">HEADING 2</tspan><tspan x="0" y="3.9"  font-size="3.67">Body text</tspan></text>
<text transform="matrix(1 0 0 1 29.2188 165.0615)"  font-size="3.67">Yours sincerely,</text>
<text transform="matrix(1 0 0 1 29.1406 190.4678)"><tspan x="0" y="0" font-family="'Blender-Medium'" font-size="3.67">John Doe</tspan><tspan x="0" y="3.899"  font-size="3.67">National Director</tspan></text>
<text transform="matrix(1 0 0 1 28.9912 294.1025)"><tspan x="0" y="0"  font-size="2.95">BVN ARCHITECTURE PTY LTD / ABN 46 010 724 339 / ACN 010 724 339 </tspan><tspan x="0" y="3"  font-size="2.95">NSW ARCHITECTS REGISTRATION BOARD / NOMINATED ARCHITECT 6501 ABBIE GALVIN</tspan></text>
<text transform="matrix(1 0 0 1 29.1406 304.6045)" font-size="2.567">
	P:\OH\OH14XXXX.bvn\Graphics\150702_BVN_letterhead_template_example_v00.docx
</text>
</svg>