<svg class="Layer_1" xmlns="http://www.w3.org/2000/svg" xmlns:xlink="http://www.w3.org/1999/xlink" x="0px" y="0px" viewBox="-1.24 -0.227 10 3.5" enable-background="new -1.24 -0.227 10 3.5" xml:space="preserve">
<path d="M0.414,0.348c0-0.051,0.007-0.087,0.014-0.109C0.442,0.225,0.457,0.21,0.471,0.21c0.015,0,0.029,0.007,0.043,0.029
	C0.522,0.254,0.529,0.29,0.529,0.348c0,0.051-0.007,0.087-0.015,0.109C0.5,0.472,0.493,0.486,0.479,0.486S0.45,0.479,0.435,0.457
	S0.414,0.399,0.414,0.348 M0.377,0.348c0,0.065,0.007,0.102,0.022,0.131c0.015,0.029,0.036,0.036,0.065,0.036
	c0.029,0,0.051-0.015,0.065-0.043c0.015-0.029,0.022-0.073,0.022-0.124c0.007-0.065,0-0.109-0.022-0.138
	C0.515,0.188,0.493,0.174,0.471,0.174c-0.029,0-0.051,0.014-0.065,0.043C0.392,0.254,0.377,0.29,0.377,0.348"/>
<path d="M0.595,0.421c0,0.029,0.014,0.051,0.029,0.072C0.638,0.508,0.66,0.515,0.682,0.515s0.043-0.007,0.065-0.029
	c0.014-0.021,0.029-0.043,0.029-0.072c0-0.015,0-0.029-0.007-0.036C0.761,0.363,0.761,0.355,0.754,0.348
	C0.747,0.341,0.74,0.334,0.725,0.334C0.74,0.327,0.747,0.319,0.754,0.305C0.761,0.29,0.761,0.283,0.761,0.261
	S0.754,0.218,0.74,0.203S0.704,0.182,0.682,0.182S0.646,0.188,0.631,0.203S0.609,0.239,0.602,0.269l0.036,0.007
	c0-0.022,0.007-0.037,0.015-0.043c0-0.015,0.014-0.022,0.021-0.022c0.015,0,0.022,0.007,0.029,0.015
	C0.71,0.232,0.718,0.247,0.718,0.261S0.71,0.29,0.704,0.305C0.696,0.312,0.682,0.319,0.66,0.319H0.653v0.036
	c0.007,0,0.014-0.007,0.021-0.007c0.015,0,0.029,0.007,0.036,0.015c0.007,0.015,0.015,0.029,0.015,0.043
	c0,0.022-0.007,0.036-0.015,0.051C0.696,0.472,0.689,0.479,0.667,0.479c-0.029,0-0.043-0.022-0.051-0.065L0.595,0.421"/>
<rect x="0.537" y="0.769" width="0.072" height="0.029"/>
<path d="M0.414,2.263c0-0.051,0.007-0.087,0.014-0.109C0.442,2.14,0.45,2.125,0.464,2.125c0.015,0,0.029,0.007,0.044,0.029
	c0.007,0.015,0.014,0.051,0.014,0.109c0,0.051-0.007,0.086-0.014,0.108C0.493,2.393,0.486,2.4,0.471,2.4
	c-0.014,0-0.029-0.007-0.043-0.028C0.42,2.349,0.414,2.314,0.414,2.263 M0.377,2.263c0,0.064,0.007,0.108,0.022,0.13
	c0.015,0.029,0.036,0.036,0.065,0.036c0.029,0,0.051-0.014,0.065-0.043s0.022-0.072,0.022-0.123c0-0.059-0.007-0.109-0.029-0.131
	C0.515,2.103,0.493,2.096,0.471,2.096c-0.029,0-0.051,0.015-0.065,0.044C0.392,2.161,0.377,2.205,0.377,2.263"/>
<path d="M0.696,2.306h-0.08l0.087-0.152v0.152H0.696z M0.696,2.422h0.036v-0.08h0.036V2.306H0.732v-0.21H0.704L0.58,2.306v0.036
	h0.116V2.422"/>
<rect x="0.537" y="2.683" width="0.072" height="0.029"/>
<path d="M1.733,1.001V0.667H1.711C1.704,0.682,1.697,0.696,1.682,0.711C1.668,0.726,1.653,0.74,1.631,0.747v0.043
	c0.015-0.007,0.022-0.015,0.037-0.021C1.682,0.762,1.689,0.747,1.697,0.74v0.261H1.733"/>
<rect x="1.842" y="0.762" width="0.036" height="0.043"/>
<rect x="1.842" y="0.958" width="0.036" height="0.043"/>
<path d="M1.922,0.914c0,0.029,0.014,0.051,0.029,0.065c0.015,0.015,0.036,0.022,0.058,0.022c0.029,0,0.051-0.015,0.065-0.036
	c0.015-0.022,0.022-0.051,0.022-0.08c0-0.036-0.007-0.058-0.022-0.08C2.06,0.783,2.038,0.776,2.016,0.776
	c-0.015,0-0.037,0.007-0.051,0.022l0.014-0.087h0.109V0.667H1.951L1.922,0.841l0.029,0.007c0.007-0.007,0.015-0.015,0.021-0.022
	C1.979,0.82,1.987,0.82,2.001,0.82S2.03,0.827,2.045,0.841S2.06,0.87,2.06,0.899c0,0.021-0.007,0.043-0.015,0.058
	C2.03,0.972,2.023,0.979,2.001,0.979c-0.015,0-0.022-0.007-0.036-0.014C1.958,0.95,1.951,0.936,1.951,0.921L1.922,0.914"/>
<path d="M1.733,2.916V2.582H1.711C1.704,2.596,1.697,2.611,1.682,2.625C1.668,2.64,1.653,2.654,1.631,2.662v0.043
	c0.015-0.007,0.022-0.014,0.037-0.021c0.014-0.008,0.021-0.014,0.029-0.029v0.262H1.733"/>
<rect x="1.842" y="2.675" width="0.036" height="0.045"/>
<rect x="1.842" y="2.873" width="0.036" height="0.043"/>
<path d="M1.922,2.828c0,0.029,0.014,0.051,0.029,0.066c0.015,0.014,0.036,0.021,0.058,0.021c0.029,0,0.051-0.015,0.065-0.037
	c0.015-0.021,0.022-0.051,0.022-0.086c0-0.029-0.007-0.059-0.022-0.08C2.06,2.691,2.038,2.683,2.016,2.683
	c-0.015,0-0.037,0.008-0.051,0.021l0.014-0.086h0.109V2.582H1.951L1.922,2.749l0.029,0.007c0.007-0.007,0.015-0.014,0.021-0.021
	c0.007-0.008,0.015-0.008,0.029-0.008S2.03,2.734,2.045,2.749S2.06,2.777,2.06,2.806c0,0.021-0.007,0.044-0.015,0.059
	C2.03,2.878,2.023,2.886,2.001,2.886c-0.015,0-0.022-0.008-0.036-0.014C1.958,2.857,1.951,2.843,1.951,2.822L1.922,2.828"/>
<path d="M1.675,0.479h0.043l0.065-0.291C1.791,0.174,1.791,0.16,1.791,0.145l0.007,0.043l0.065,0.291h0.043l0.087-0.377H1.951
	L1.9,0.341C1.893,0.37,1.885,0.399,1.885,0.421C1.878,0.377,1.871,0.334,1.864,0.29L1.82,0.102H1.77L1.711,0.355L1.697,0.428
	C1.689,0.406,1.689,0.377,1.682,0.355L1.639,0.109H1.595L1.675,0.479"/>
<rect x="2.038" y="0.102" width="0.043" height="0.377"/>
<polygon points="2.146,0.479 2.19,0.479 2.19,0.188 2.35,0.479 2.393,0.479 2.393,0.102 2.357,0.102 2.357,0.399 2.19,0.102 
	2.146,0.102 "/>
<path d="M2.502,0.435v-0.29h0.065c0.022,0,0.043,0,0.051,0.007C2.632,0.16,2.647,0.174,2.661,0.196
	c0.007,0.022,0.015,0.051,0.015,0.087c0,0.036-0.007,0.065-0.015,0.094C2.654,0.399,2.647,0.414,2.632,0.421
	S2.596,0.435,2.574,0.435H2.502 M2.465,0.479h0.109c0.029,0,0.058-0.007,0.08-0.015C2.676,0.45,2.69,0.428,2.705,0.399
	C2.719,0.37,2.727,0.334,2.727,0.29c0-0.036-0.007-0.065-0.015-0.087C2.705,0.182,2.698,0.16,2.683,0.145
	C2.668,0.131,2.654,0.116,2.64,0.109S2.604,0.102,2.582,0.102H2.473v0.377"/>
<path d="M2.806,0.297c0-0.051,0.015-0.094,0.029-0.116c0.021-0.029,0.043-0.043,0.08-0.043c0.022,0,0.036,0.007,0.051,0.014
	C2.98,0.167,2.995,0.182,3.002,0.196c0.015,0.029,0.015,0.058,0.015,0.087c0,0.051-0.007,0.087-0.029,0.116
	C2.966,0.428,2.944,0.435,2.915,0.435c-0.029,0-0.051-0.014-0.072-0.036C2.813,0.385,2.806,0.348,2.806,0.297 M2.763,0.297
	c0,0.051,0.015,0.094,0.037,0.131c0.029,0.043,0.065,0.058,0.108,0.058s0.08-0.021,0.109-0.058c0.029-0.037,0.036-0.08,0.036-0.138
	c0-0.043-0.007-0.072-0.021-0.102C3.017,0.16,3.002,0.138,2.98,0.124C2.958,0.109,2.93,0.102,2.908,0.102
	c-0.043,0-0.08,0.015-0.108,0.051C2.777,0.182,2.763,0.232,2.763,0.297"/>
<path d="M3.169,0.479h0.043l0.065-0.291c0-0.014,0.007-0.029,0.007-0.043l0.007,0.043l0.065,0.291h0.043l0.087-0.377H3.444
	L3.394,0.341C3.387,0.37,3.379,0.399,3.379,0.421C3.372,0.377,3.365,0.334,3.357,0.29L3.314,0.102H3.263L3.205,0.355L3.191,0.428
	c-0.007-0.029-0.007-0.051-0.015-0.08L3.133,0.102H3.089L3.169,0.479"/>
<path d="M3.684,0.435v-0.29h0.065c0.022,0,0.043,0,0.051,0.007C3.814,0.16,3.829,0.174,3.843,0.196
	c0.007,0.022,0.015,0.051,0.015,0.087c0,0.036-0.007,0.065-0.015,0.094C3.836,0.399,3.829,0.414,3.814,0.421
	C3.8,0.428,3.778,0.435,3.756,0.435H3.684 M3.64,0.479h0.109c0.029,0,0.058-0.007,0.08-0.015C3.851,0.45,3.865,0.428,3.879,0.399
	C3.894,0.37,3.901,0.334,3.901,0.29c0-0.036-0.007-0.065-0.015-0.087C3.879,0.182,3.873,0.16,3.858,0.145
	C3.843,0.131,3.829,0.116,3.814,0.109C3.8,0.102,3.778,0.102,3.756,0.102H3.647v0.377"/>
<polygon points="3.952,0.479 4.184,0.479 4.184,0.435 3.996,0.435 3.996,0.312 4.169,0.312 4.169,0.261 3.996,0.261 3.996,0.152 
	4.177,0.152 4.177,0.102 3.952,0.102 "/>
<polygon points="4.322,0.479 4.365,0.479 4.365,0.152 4.467,0.152 4.467,0.102 4.22,0.102 4.22,0.152 4.322,0.152 "/>
<path d="M4.561,0.327l0.037-0.109c0.007-0.022,0.014-0.043,0.014-0.073c0.007,0.022,0.015,0.043,0.022,0.08L4.67,0.327H4.561
	 M4.474,0.479h0.043l0.037-0.116h0.13l0.036,0.116h0.043L4.641,0.102H4.59L4.474,0.479"/>
<rect x="4.801" y="0.102" width="0.043" height="0.377"/>
<polygon points="4.909,0.479 5.105,0.479 5.105,0.435 4.953,0.435 4.953,0.102 4.909,0.102 "/>
<rect x="5.257" y="0.319" width="0.116" height="0.043"/>
<path d="M5.525,0.363c0,0.022,0.008,0.036,0.008,0.051C5.54,0.428,5.547,0.442,5.563,0.457c0.021,0.022,0.051,0.036,0.094,0.036
	c0.021,0,0.043-0.007,0.065-0.014C5.736,0.472,5.75,0.457,5.766,0.435c0.014-0.014,0.014-0.036,0.014-0.058
	c0-0.022-0.007-0.043-0.014-0.058C5.758,0.305,5.743,0.29,5.722,0.283C5.707,0.276,5.686,0.269,5.656,0.261S5.605,0.247,5.598,0.239
	C5.591,0.232,5.584,0.218,5.584,0.203S5.591,0.174,5.598,0.16c0.016-0.015,0.029-0.015,0.051-0.015c0.022,0,0.044,0.007,0.051,0.015
	c0.016,0.015,0.022,0.029,0.022,0.058L5.766,0.21c0-0.022-0.008-0.043-0.016-0.058C5.743,0.138,5.729,0.124,5.707,0.109
	C5.692,0.102,5.671,0.094,5.648,0.094c-0.035,0-0.058,0.007-0.079,0.029C5.547,0.145,5.54,0.167,5.54,0.196
	c0,0.015,0.007,0.029,0.015,0.043c0.008,0.015,0.015,0.022,0.029,0.037C5.598,0.283,5.62,0.29,5.648,0.305
	c0.037,0.007,0.051,0.015,0.066,0.022c0.007,0.007,0.014,0.014,0.021,0.021c0.007,0.007,0.007,0.015,0.007,0.029
	c0,0.014-0.007,0.036-0.021,0.043C5.707,0.435,5.686,0.435,5.664,0.435c-0.016,0-0.037,0-0.044-0.007
	C5.605,0.421,5.598,0.414,5.591,0.399C5.584,0.385,5.576,0.37,5.576,0.348L5.525,0.363"/>
<polygon points="5.83,0.479 6.063,0.479 6.063,0.435 5.874,0.435 5.874,0.312 6.041,0.312 6.041,0.261 5.874,0.261 5.874,0.152 
	6.055,0.152 6.055,0.102 5.83,0.102 "/>
<path d="M6.338,0.348C6.33,0.385,6.323,0.406,6.302,0.421C6.287,0.435,6.266,0.442,6.244,0.442c-0.029,0-0.051-0.014-0.073-0.036
	C6.156,0.377,6.143,0.341,6.143,0.29c0-0.036,0.007-0.065,0.014-0.087c0.008-0.021,0.021-0.036,0.037-0.051
	c0.014-0.014,0.035-0.014,0.051-0.014c0.043,0,0.072,0.029,0.079,0.08l0.044-0.015c-0.008-0.036-0.021-0.065-0.044-0.08
	C6.302,0.102,6.279,0.094,6.244,0.094c-0.029,0-0.051,0.007-0.073,0.022c-0.021,0.015-0.036,0.036-0.05,0.065
	C6.105,0.21,6.099,0.247,6.099,0.283c0,0.043,0.007,0.08,0.022,0.108c0.014,0.029,0.028,0.051,0.05,0.065
	c0.022,0.015,0.044,0.022,0.073,0.022c0.028,0,0.058-0.015,0.079-0.029c0.022-0.021,0.036-0.051,0.051-0.094L6.338,0.348"/>
<polygon points="6.512,0.479 6.549,0.479 6.549,0.152 6.656,0.152 6.656,0.102 6.41,0.102 6.41,0.152 6.512,0.152 "/>
<rect x="6.701" y="0.102" width="0.043" height="0.377"/>
<path d="M6.846,0.297c0-0.051,0.014-0.094,0.029-0.116c0.021-0.029,0.043-0.043,0.079-0.043c0.022,0,0.036,0.007,0.051,0.014
	C7.02,0.167,7.034,0.182,7.041,0.196c0.015,0.029,0.015,0.058,0.015,0.087c0,0.051-0.015,0.087-0.028,0.116
	C7.005,0.428,6.983,0.435,6.954,0.435c-0.028,0-0.051-0.014-0.072-0.036C6.854,0.385,6.846,0.348,6.846,0.297 M6.803,0.297
	c0,0.051,0.014,0.094,0.035,0.131c0.029,0.043,0.065,0.058,0.109,0.058c0.043,0,0.08-0.021,0.108-0.058
	c0.029-0.037,0.036-0.08,0.036-0.138c0-0.043-0.007-0.072-0.021-0.102C7.056,0.16,7.041,0.138,7.02,0.124S6.969,0.102,6.947,0.102
	c-0.044,0-0.08,0.015-0.109,0.051C6.816,0.182,6.803,0.232,6.803,0.297"/>
<polygon points="7.15,0.479 7.187,0.479 7.187,0.188 7.354,0.479 7.396,0.479 7.396,0.102 7.354,0.102 7.354,0.399 7.193,0.102 
	7.15,0.102 "/>
<path d="M1.675,2.393h0.043l0.065-0.29C1.791,2.089,1.791,2.074,1.791,2.06l0.007,0.043l0.065,0.29h0.043l0.087-0.377H1.951
	L1.9,2.255c-0.007,0.029-0.015,0.059-0.015,0.08C1.878,2.292,1.871,2.248,1.864,2.205L1.82,2.016H1.77L1.711,2.27L1.697,2.342
	C1.689,2.314,1.689,2.292,1.682,2.263L1.639,2.016H1.595L1.675,2.393"/>
<path d="M2.081,2.241l0.037-0.108C2.125,2.11,2.132,2.082,2.132,2.06c0.007,0.022,0.015,0.043,0.022,0.08L2.19,2.241H2.081
	 M1.994,2.393h0.043l0.036-0.116h0.131l0.036,0.116h0.043L2.161,2.016H2.118L1.994,2.393"/>
<polygon points="2.313,2.393 2.509,2.393 2.509,2.349 2.357,2.349 2.357,2.016 2.313,2.016 "/>
<polygon points="2.553,2.393 2.749,2.393 2.749,2.349 2.596,2.349 2.596,2.016 2.553,2.016 "/>
<rect x="2.93" y="2.016" width="0.043" height="0.377"/>
<polygon points="3.039,2.393 3.075,2.393 3.075,2.096 3.242,2.393 3.285,2.393 3.285,2.016 3.242,2.016 3.242,2.314 3.082,2.016 
	3.039,2.016 "/>
<polygon points="3.43,2.393 3.474,2.393 3.474,2.06 3.575,2.06 3.575,2.016 3.329,2.016 3.329,2.06 3.43,2.06 "/>
<polygon points="3.619,2.393 3.851,2.393 3.851,2.349 3.662,2.349 3.662,2.219 3.829,2.219 3.829,2.176 3.662,2.176 3.662,2.06 
	3.843,2.06 3.843,2.016 3.619,2.016 "/>
<path d="M3.945,2.183V2.06h0.102c0.022,0,0.036,0.007,0.051,0.015c0.015,0.015,0.015,0.029,0.015,0.043s0,0.022-0.007,0.036
	C4.097,2.161,4.09,2.168,4.083,2.176S4.061,2.183,4.039,2.183H3.945 M3.909,2.393h0.043V2.226h0.051c0.015,0,0.021,0,0.029,0.008
	c0.007,0.007,0.015,0.014,0.022,0.021C4.061,2.27,4.075,2.285,4.09,2.321L4.133,2.4h0.051L4.133,2.298
	C4.126,2.285,4.112,2.263,4.097,2.248C4.09,2.241,4.083,2.234,4.068,2.226c0.029-0.007,0.05-0.014,0.065-0.036
	c0.015-0.014,0.022-0.043,0.022-0.065c0-0.022-0.007-0.043-0.015-0.058S4.119,2.038,4.104,2.031C4.09,2.023,4.068,2.016,4.039,2.016
	H3.901v0.377"/>
<polygon points="4.22,2.393 4.264,2.393 4.264,2.226 4.409,2.226 4.409,2.183 4.264,2.183 4.264,2.06 4.431,2.06 4.431,2.016 
	4.22,2.016 "/>
<path d="M4.54,2.241l0.036-0.108C4.583,2.11,4.59,2.082,4.59,2.06c0.007,0.022,0.015,0.043,0.021,0.08l0.037,0.101H4.54
	 M4.453,2.393h0.043l0.036-0.116h0.13l0.037,0.116h0.036L4.612,2.016H4.568L4.453,2.393"/>
<path d="M4.989,2.263C4.982,2.292,4.975,2.321,4.953,2.335C4.938,2.349,4.917,2.357,4.895,2.357c-0.029,0-0.058-0.015-0.073-0.036
	C4.808,2.292,4.793,2.255,4.793,2.205c0-0.036,0.007-0.065,0.014-0.087C4.815,2.096,4.83,2.074,4.844,2.067
	C4.858,2.052,4.88,2.052,4.895,2.052c0.043,0,0.065,0.029,0.08,0.08l0.043-0.015c-0.007-0.036-0.021-0.065-0.043-0.08
	c-0.022-0.015-0.043-0.029-0.08-0.029c-0.029,0-0.051,0.007-0.073,0.022C4.801,2.045,4.779,2.067,4.771,2.096
	C4.757,2.125,4.75,2.161,4.75,2.205c0,0.043,0.007,0.08,0.021,0.109c0.015,0.028,0.029,0.051,0.051,0.064
	C4.844,2.393,4.866,2.4,4.895,2.4c0.036,0,0.058-0.014,0.087-0.028c0.021-0.022,0.036-0.051,0.043-0.095L4.989,2.263"/>
<polygon points="5.083,2.393 5.315,2.393 5.315,2.349 5.127,2.349 5.127,2.219 5.293,2.219 5.293,2.176 5.127,2.176 5.127,2.06 
	5.308,2.06 5.308,2.016 5.083,2.016 "/>
<rect x="5.475" y="2.234" width="0.116" height="0.043"/>
<path d="M5.801,2.197V2.06h0.08c0.021,0,0.037,0,0.043,0.007c0.008,0.007,0.016,0.015,0.022,0.022
	C5.953,2.096,5.953,2.11,5.953,2.125c0,0.021-0.007,0.043-0.014,0.051C5.924,2.19,5.91,2.19,5.881,2.19h-0.08 M5.758,2.393h0.043
	V2.241h0.08c0.043,0,0.072-0.015,0.088-0.036c0.014-0.021,0.028-0.051,0.028-0.08c0-0.029-0.007-0.051-0.015-0.065
	S5.961,2.031,5.939,2.023C5.924,2.016,5.902,2.016,5.881,2.016H5.766v0.377"/>
<polygon points="6.041,2.393 6.236,2.393 6.236,2.349 6.084,2.349 6.084,2.016 6.041,2.016 "/>
<path d="M6.338,2.241l0.036-0.108C6.381,2.11,6.389,2.082,6.389,2.06C6.396,2.082,6.403,2.103,6.41,2.14l0.029,0.101H6.338
	 M6.251,2.393h0.044L6.33,2.277h0.131l0.037,0.116h0.043L6.418,2.016H6.374L6.251,2.393"/>
<polygon points="6.577,2.393 6.613,2.393 6.613,2.096 6.773,2.393 6.816,2.393 6.816,2.016 6.78,2.016 6.78,2.314 6.613,2.016 
	6.577,2.016 "/>
<line fill="none" stroke="#231f20" stroke-width="0.046" stroke-linejoin="bevel" stroke-miterlimit="1.414" x1="0.326" y1="0.566" x2="0.326" y2="0.566"/>
<line fill="none" stroke="#231f20" stroke-width="0.046" stroke-linejoin="bevel" stroke-miterlimit="1.414" x1="0.326" y1="0.566" x2="0.326" y2="0.566"/>
<line fill="none" stroke="#231f20" stroke-width="0.091" stroke-linejoin="round" stroke-miterlimit="1.414" x1="0" y1="0.566" x2="1.131" y2="0.566"/>
<path fill="none" stroke="#231f20" stroke-width="0.091" stroke-linejoin="round" stroke-miterlimit="1.414" d="M1.131,0.566
	c0-0.073-0.015-0.145-0.043-0.218c-0.029-0.072-0.073-0.13-0.124-0.181S0.849,0.073,0.783,0.043C0.718,0.015,0.638,0,0.565,0
	C0.493,0,0.42,0.015,0.348,0.043C0.275,0.073,0.217,0.116,0.167,0.167C0.116,0.218,0.073,0.283,0.043,0.348
	C0.015,0.414,0,0.493,0,0.566c0,0.072,0.015,0.152,0.043,0.217c0.029,0.073,0.073,0.131,0.124,0.182
	c0.05,0.051,0.116,0.094,0.181,0.123s0.145,0.043,0.217,0.043c0.073,0,0.152-0.015,0.218-0.043c0.072-0.029,0.13-0.072,0.181-0.123
	s0.094-0.116,0.124-0.182C1.117,0.711,1.131,0.638,1.131,0.566"/>
<line fill="none" stroke="#231f20" stroke-width="0.046" stroke-linejoin="bevel" stroke-miterlimit="1.414" x1="0.326" y1="2.48" x2="0.326" y2="2.48"/>
<line fill="none" stroke="#231f20" stroke-width="0.046" stroke-linejoin="bevel" stroke-miterlimit="1.414" x1="0.326" y1="2.48" x2="0.326" y2="2.48"/>
<line fill="none" stroke="#231f20" stroke-width="0.091" stroke-linejoin="round" stroke-miterlimit="1.414" x1="0" y1="2.48" x2="1.131" y2="2.48"/>
<path fill="none" stroke="#231f20" stroke-width="0.091" stroke-linejoin="round" stroke-miterlimit="1.414" d="M1.131,2.48
	c0-0.072-0.015-0.145-0.043-0.217C1.059,2.19,1.015,2.132,0.964,2.082S0.849,1.987,0.783,1.958C0.718,1.929,0.638,1.915,0.565,1.915
	c-0.072,0-0.145,0.015-0.217,0.043C0.275,1.987,0.217,2.031,0.167,2.082C0.116,2.132,0.073,2.197,0.043,2.263
	C0.015,2.328,0,2.408,0,2.48s0.015,0.152,0.043,0.218c0.029,0.065,0.073,0.13,0.124,0.181c0.05,0.051,0.116,0.095,0.181,0.124
	c0.065,0.028,0.145,0.044,0.217,0.044c0.073,0,0.152-0.016,0.218-0.044c0.072-0.029,0.13-0.073,0.181-0.124s0.094-0.115,0.124-0.181
	C1.117,2.625,1.131,2.552,1.131,2.48"/>
<line fill="none" stroke="#231f20" stroke-width="0.091" stroke-linejoin="round" stroke-miterlimit="1.414" x1="1.131" y1="0.566" x2="7.52" y2="0.566"/>
<line fill="none" stroke="#231f20" stroke-width="0.091" stroke-linejoin="round" stroke-miterlimit="1.414" x1="1.131" y1="2.48" x2="7.52" y2="2.48"/>
</svg>
