<?xml version="1.0" encoding="utf-8"?>
<!-- Generator: Adobe Illustrator 18.1.1, SVG Export Plug-In . SVG Version: 6.00 Build 0)  -->
<svg version="1.1" id="Layer_1" xmlns="http://www.w3.org/2000/svg" xmlns:xlink="http://www.w3.org/1999/xlink" x="0px" y="0px"
	 viewBox="0 0 137.9 113.1" enable-background="new 0 0 137.9 113.1" xml:space="preserve">
<path fill-rule="evenodd" clip-rule="evenodd" d="M6.4,37.9c0-0.7,0.1-1.2,0.2-1.5C6.8,36.2,7,36,7.2,36c0.2,0,0.4,0.1,0.6,0.4
	c0.1,0.2,0.2,0.7,0.2,1.5c0,0.7-0.1,1.2-0.2,1.5c-0.2,0.2-0.3,0.4-0.5,0.4c-0.2,0-0.4-0.1-0.6-0.4C6.5,39.1,6.4,38.6,6.4,37.9
	 M5.9,37.9c0,0.9,0.1,1.4,0.3,1.8c0.2,0.4,0.5,0.5,0.9,0.5c0.4,0,0.7-0.2,0.9-0.6c0.2-0.4,0.3-1,0.3-1.7C8.4,37,8.3,36.4,8,36
	c-0.2-0.3-0.5-0.5-0.8-0.5c-0.4,0-0.7,0.2-0.9,0.6C6.1,36.6,5.9,37.1,5.9,37.9"/>
<path fill-rule="evenodd" clip-rule="evenodd" d="M8.9,38.9c0,0.4,0.2,0.7,0.4,1c0.2,0.2,0.5,0.3,0.8,0.3c0.3,0,0.6-0.1,0.9-0.4
	c0.2-0.3,0.4-0.6,0.4-1c0-0.2,0-0.4-0.1-0.5c-0.1-0.2-0.1-0.3-0.2-0.4s-0.2-0.2-0.4-0.2c0.2-0.1,0.3-0.2,0.4-0.4
	c0.1-0.2,0.1-0.3,0.1-0.6c0-0.3-0.1-0.6-0.3-0.8c-0.2-0.2-0.5-0.3-0.8-0.3c-0.3,0-0.5,0.1-0.7,0.3c-0.2,0.2-0.3,0.5-0.4,0.9l0.5,0.1
	c0-0.3,0.1-0.5,0.2-0.6C9.7,36.1,9.9,36,10,36c0.2,0,0.3,0.1,0.4,0.2c0.1,0.1,0.2,0.3,0.2,0.5c0,0.2-0.1,0.4-0.2,0.6
	c-0.1,0.1-0.3,0.2-0.6,0.2l-0.1,0l0,0.5c0.1,0,0.2-0.1,0.3-0.1c0.2,0,0.4,0.1,0.5,0.2c0.1,0.2,0.2,0.4,0.2,0.6
	c0,0.3-0.1,0.5-0.2,0.7c-0.2,0.2-0.3,0.3-0.6,0.3c-0.4,0-0.6-0.3-0.7-0.9L8.9,38.9"/>
<rect y="0" fill="none" width="137.9" height="113.1"/>
<rect x="8.1" y="43.7" width="1" height="0.4"/>
<path fill-rule="evenodd" clip-rule="evenodd" d="M6.4,64.3c0-0.7,0.1-1.2,0.2-1.5c0.2-0.2,0.3-0.4,0.5-0.4c0.2,0,0.4,0.1,0.6,0.4
	c0.1,0.2,0.2,0.7,0.2,1.5c0,0.7-0.1,1.2-0.2,1.5c-0.2,0.3-0.3,0.4-0.5,0.4c-0.2,0-0.4-0.1-0.6-0.4C6.5,65.5,6.4,65,6.4,64.3
	 M5.9,64.3c0,0.9,0.1,1.5,0.3,1.8c0.2,0.4,0.5,0.5,0.9,0.5c0.4,0,0.7-0.2,0.9-0.6c0.2-0.4,0.3-1,0.3-1.7c0-0.8-0.1-1.5-0.4-1.8
	C7.8,62.1,7.5,62,7.2,62c-0.4,0-0.7,0.2-0.9,0.6C6.1,62.9,5.9,63.5,5.9,64.3"/>
<path fill-rule="evenodd" clip-rule="evenodd" d="M10.3,64.9H9.2l1.2-2.1V64.9z M10.3,66.5h0.5v-1.1h0.5v-0.5h-0.5V62h-0.4l-1.7,2.9
	v0.5h1.6V66.5"/>
<rect y="0" fill="none" width="137.9" height="113.1"/>
<rect x="8.1" y="70.1" width="1" height="0.4"/>
<path fill-rule="evenodd" clip-rule="evenodd" d="M24.6,46.9v-4.6h-0.3c-0.1,0.2-0.2,0.4-0.4,0.6c-0.2,0.2-0.4,0.4-0.7,0.5v0.6
	c0.2-0.1,0.3-0.2,0.5-0.3c0.2-0.1,0.3-0.3,0.4-0.4v3.6H24.6"/>
<rect x="26.1" y="43.6" fill-rule="evenodd" clip-rule="evenodd" width="0.5" height="0.6"/>
<rect x="26.1" y="46.3" fill-rule="evenodd" clip-rule="evenodd" width="0.5" height="0.6"/>
<path fill-rule="evenodd" clip-rule="evenodd" d="M27.2,45.7c0,0.4,0.2,0.7,0.4,0.9c0.2,0.2,0.5,0.3,0.8,0.3c0.4,0,0.7-0.2,0.9-0.5
	c0.2-0.3,0.3-0.7,0.3-1.1c0-0.5-0.1-0.8-0.3-1.1c-0.2-0.3-0.5-0.4-0.8-0.4c-0.2,0-0.5,0.1-0.7,0.3l0.2-1.2h1.5v-0.6h-1.9l-0.4,2.4
	l0.4,0.1c0.1-0.1,0.2-0.2,0.3-0.3c0.1-0.1,0.2-0.1,0.4-0.1c0.2,0,0.4,0.1,0.6,0.3c0.2,0.2,0.2,0.4,0.2,0.8c0,0.3-0.1,0.6-0.2,0.8
	c-0.2,0.2-0.3,0.3-0.6,0.3c-0.2,0-0.3-0.1-0.5-0.2c-0.1-0.2-0.2-0.4-0.2-0.6L27.2,45.7"/>
<path fill-rule="evenodd" clip-rule="evenodd" d="M24.6,73.3v-4.6h-0.3c-0.1,0.2-0.2,0.4-0.4,0.6c-0.2,0.2-0.4,0.4-0.7,0.5v0.6
	c0.2-0.1,0.3-0.2,0.5-0.3c0.2-0.1,0.3-0.2,0.4-0.4v3.6H24.6"/>
<rect x="26.1" y="70" fill-rule="evenodd" clip-rule="evenodd" width="0.5" height="0.6"/>
<rect x="26.1" y="72.7" fill-rule="evenodd" clip-rule="evenodd" width="0.5" height="0.6"/>
<path fill-rule="evenodd" clip-rule="evenodd" d="M27.2,72.1c0,0.4,0.2,0.7,0.4,0.9c0.2,0.2,0.5,0.3,0.8,0.3c0.4,0,0.7-0.2,0.9-0.5
	c0.2-0.3,0.3-0.7,0.3-1.2c0-0.4-0.1-0.8-0.3-1.1c-0.2-0.3-0.5-0.4-0.8-0.4c-0.2,0-0.5,0.1-0.7,0.3l0.2-1.2h1.5v-0.5h-1.9l-0.4,2.3
	l0.4,0.1c0.1-0.1,0.2-0.2,0.3-0.3c0.1-0.1,0.2-0.1,0.4-0.1c0.2,0,0.4,0.1,0.6,0.3c0.2,0.2,0.2,0.4,0.2,0.8c0,0.3-0.1,0.6-0.2,0.8
	c-0.2,0.2-0.3,0.3-0.6,0.3c-0.2,0-0.3-0.1-0.5-0.2c-0.1-0.2-0.2-0.4-0.2-0.7L27.2,72.1"/>
<path fill-rule="evenodd" clip-rule="evenodd" d="M23.8,39.7h0.6l0.9-4c0.1-0.2,0.1-0.4,0.1-0.6l0.1,0.6l0.9,4H27l1.2-5.2h-0.6
	l-0.7,3.3c-0.1,0.4-0.2,0.8-0.2,1.1c-0.1-0.6-0.2-1.2-0.3-1.8l-0.6-2.6h-0.7l-0.8,3.5l-0.2,1C24,38.7,24,38.3,23.9,38l-0.6-3.4h-0.6
	L23.8,39.7"/>
<rect x="28.8" y="34.5" fill-rule="evenodd" clip-rule="evenodd" width="0.6" height="5.2"/>
<polygon fill-rule="evenodd" clip-rule="evenodd" points="30.3,39.7 30.9,39.7 30.9,35.7 33.1,39.7 33.7,39.7 33.7,34.5 33.2,34.5 
	33.2,38.6 30.9,34.5 30.3,34.5 "/>
<path fill-rule="evenodd" clip-rule="evenodd" d="M35.2,39.1v-4h0.9c0.3,0,0.6,0,0.7,0.1c0.2,0.1,0.4,0.3,0.6,0.6
	c0.1,0.3,0.2,0.7,0.2,1.2c0,0.5-0.1,0.9-0.2,1.3c-0.1,0.3-0.2,0.5-0.4,0.6c-0.2,0.1-0.5,0.2-0.8,0.2H35.2 M34.7,39.7h1.5
	c0.4,0,0.8-0.1,1.1-0.2c0.3-0.2,0.5-0.5,0.7-0.9c0.2-0.4,0.3-0.9,0.3-1.5c0-0.5-0.1-0.9-0.2-1.2c-0.1-0.3-0.2-0.6-0.4-0.8
	c-0.2-0.2-0.4-0.4-0.6-0.5c-0.2-0.1-0.5-0.1-0.8-0.1h-1.5V39.7"/>
<path fill-rule="evenodd" clip-rule="evenodd" d="M39.4,37.2c0-0.7,0.2-1.3,0.4-1.6c0.3-0.4,0.6-0.6,1.1-0.6c0.3,0,0.5,0.1,0.7,0.2
	c0.2,0.2,0.4,0.4,0.5,0.6c0.2,0.4,0.2,0.8,0.2,1.2c0,0.7-0.1,1.2-0.4,1.6c-0.3,0.4-0.6,0.5-1,0.5c-0.4,0-0.7-0.2-1-0.5
	C39.5,38.4,39.4,37.9,39.4,37.2 M38.8,37.2c0,0.7,0.2,1.3,0.5,1.8c0.4,0.6,0.9,0.8,1.5,0.8c0.6,0,1.1-0.3,1.5-0.8
	c0.4-0.5,0.5-1.1,0.5-1.9c0-0.6-0.1-1-0.3-1.4c-0.2-0.4-0.4-0.7-0.7-0.9c-0.3-0.2-0.7-0.3-1-0.3c-0.6,0-1.1,0.2-1.5,0.7
	C39,35.6,38.8,36.3,38.8,37.2"/>
<path fill-rule="evenodd" clip-rule="evenodd" d="M44.4,39.7h0.6l0.9-4c0-0.2,0.1-0.4,0.1-0.6l0.1,0.6l0.9,4h0.6l1.2-5.2h-0.6
	l-0.7,3.3c-0.1,0.4-0.2,0.8-0.2,1.1c-0.1-0.6-0.2-1.2-0.3-1.8l-0.6-2.6h-0.7l-0.8,3.5l-0.2,1c-0.1-0.4-0.1-0.7-0.2-1.1l-0.6-3.4
	h-0.6L44.4,39.7"/>
<path fill-rule="evenodd" clip-rule="evenodd" d="M51.5,39.1v-4h0.9c0.3,0,0.6,0,0.7,0.1c0.2,0.1,0.4,0.3,0.6,0.6
	c0.1,0.3,0.2,0.7,0.2,1.2c0,0.5-0.1,0.9-0.2,1.3c-0.1,0.3-0.2,0.5-0.4,0.6c-0.2,0.1-0.5,0.2-0.8,0.2H51.5 M50.9,39.7h1.5
	c0.4,0,0.8-0.1,1.1-0.2c0.3-0.2,0.5-0.5,0.7-0.9c0.2-0.4,0.3-0.9,0.3-1.5c0-0.5-0.1-0.9-0.2-1.2c-0.1-0.3-0.2-0.6-0.4-0.8
	c-0.2-0.2-0.4-0.4-0.6-0.5c-0.2-0.1-0.5-0.1-0.8-0.1h-1.5V39.7"/>
<polygon fill-rule="evenodd" clip-rule="evenodd" points="55.2,39.7 58.4,39.7 58.4,39.1 55.8,39.1 55.8,37.4 58.2,37.4 58.2,36.7 
	55.8,36.7 55.8,35.2 58.3,35.2 58.3,34.5 55.2,34.5 "/>
<polygon fill-rule="evenodd" clip-rule="evenodd" points="60.3,39.7 60.9,39.7 60.9,35.2 62.3,35.2 62.3,34.5 58.9,34.5 58.9,35.2 
	60.3,35.2 "/>
<path fill-rule="evenodd" clip-rule="evenodd" d="M63.6,37.6l0.5-1.5c0.1-0.3,0.2-0.6,0.2-1c0.1,0.3,0.2,0.6,0.3,1.1l0.5,1.4H63.6
	 M62.4,39.7H63l0.5-1.6h1.8l0.5,1.6h0.6l-1.7-5.2H64L62.4,39.7"/>
<rect x="66.9" y="34.5" fill-rule="evenodd" clip-rule="evenodd" width="0.6" height="5.2"/>
<polygon fill-rule="evenodd" clip-rule="evenodd" points="68.4,39.7 71.1,39.7 71.1,39.1 69,39.1 69,34.5 68.4,34.5 "/>
<rect x="73.2" y="37.5" fill-rule="evenodd" clip-rule="evenodd" width="1.6" height="0.6"/>
<path fill-rule="evenodd" clip-rule="evenodd" d="M76.9,38.1c0,0.3,0.1,0.5,0.1,0.7c0.1,0.2,0.2,0.4,0.4,0.6
	c0.3,0.3,0.7,0.5,1.3,0.5c0.3,0,0.6-0.1,0.9-0.2c0.2-0.1,0.4-0.3,0.6-0.6c0.2-0.2,0.2-0.5,0.2-0.8c0-0.3-0.1-0.6-0.2-0.8
	c-0.1-0.2-0.3-0.4-0.6-0.5c-0.2-0.1-0.5-0.2-0.9-0.3c-0.4-0.1-0.7-0.2-0.8-0.3c-0.1-0.1-0.2-0.3-0.2-0.5c0-0.2,0.1-0.4,0.2-0.6
	c0.2-0.2,0.4-0.2,0.7-0.2c0.3,0,0.6,0.1,0.7,0.2c0.2,0.2,0.3,0.4,0.3,0.8l0.6-0.1c0-0.3-0.1-0.6-0.2-0.8c-0.1-0.2-0.3-0.4-0.6-0.6
	c-0.2-0.1-0.5-0.2-0.8-0.2c-0.5,0-0.8,0.1-1.1,0.4c-0.3,0.3-0.4,0.6-0.4,1c0,0.2,0.1,0.4,0.2,0.6c0.1,0.2,0.2,0.3,0.4,0.5
	c0.2,0.1,0.5,0.2,0.9,0.4c0.5,0.1,0.7,0.2,0.9,0.3c0.1,0.1,0.2,0.2,0.3,0.3c0.1,0.1,0.1,0.2,0.1,0.4c0,0.2-0.1,0.5-0.3,0.6
	c-0.2,0.2-0.5,0.2-0.8,0.2c-0.2,0-0.5,0-0.6-0.1c-0.2-0.1-0.3-0.2-0.4-0.4c-0.1-0.2-0.2-0.4-0.2-0.7L76.9,38.1"/>
<polygon fill-rule="evenodd" clip-rule="evenodd" points="81.1,39.7 84.3,39.7 84.3,39.1 81.7,39.1 81.7,37.4 84,37.4 84,36.7 
	81.7,36.7 81.7,35.2 84.2,35.2 84.2,34.5 81.1,34.5 "/>
<path fill-rule="evenodd" clip-rule="evenodd" d="M88.1,37.9c-0.1,0.5-0.2,0.8-0.5,1c-0.2,0.2-0.5,0.3-0.8,0.3c-0.4,0-0.7-0.2-1-0.5
	c-0.2-0.4-0.4-0.9-0.4-1.6c0-0.5,0.1-0.9,0.2-1.2c0.1-0.3,0.3-0.5,0.5-0.7c0.2-0.2,0.5-0.2,0.7-0.2c0.6,0,1,0.4,1.1,1.1l0.6-0.2
	c-0.1-0.5-0.3-0.9-0.6-1.1c-0.3-0.3-0.6-0.4-1.1-0.4c-0.4,0-0.7,0.1-1,0.3c-0.3,0.2-0.5,0.5-0.7,0.9c-0.2,0.4-0.3,0.9-0.3,1.4
	c0,0.6,0.1,1.1,0.3,1.5c0.2,0.4,0.4,0.7,0.7,0.9c0.3,0.2,0.6,0.3,1,0.3c0.4,0,0.8-0.2,1.1-0.4c0.3-0.3,0.5-0.7,0.7-1.3L88.1,37.9"/>
<polygon fill-rule="evenodd" clip-rule="evenodd" points="90.5,39.7 91,39.7 91,35.2 92.5,35.2 92.5,34.5 89.1,34.5 89.1,35.2 
	90.5,35.2 "/>
<rect x="93.1" y="34.5" fill-rule="evenodd" clip-rule="evenodd" width="0.6" height="5.2"/>
<path fill-rule="evenodd" clip-rule="evenodd" d="M95.1,37.2c0-0.7,0.2-1.3,0.4-1.6c0.3-0.4,0.6-0.6,1.1-0.6c0.3,0,0.5,0.1,0.7,0.2
	c0.2,0.2,0.4,0.4,0.5,0.6c0.2,0.4,0.2,0.8,0.2,1.2c0,0.7-0.2,1.2-0.4,1.6c-0.3,0.4-0.6,0.5-1,0.5c-0.4,0-0.7-0.2-1-0.5
	C95.2,38.4,95.1,37.9,95.1,37.2 M94.5,37.2c0,0.7,0.2,1.3,0.5,1.8c0.4,0.6,0.9,0.8,1.5,0.8c0.6,0,1.1-0.3,1.5-0.8
	c0.4-0.5,0.5-1.1,0.5-1.9c0-0.6-0.1-1-0.3-1.4c-0.2-0.4-0.4-0.7-0.7-0.9c-0.3-0.2-0.7-0.3-1-0.3c-0.6,0-1.1,0.2-1.5,0.7
	C94.7,35.6,94.5,36.3,94.5,37.2"/>
<polygon fill-rule="evenodd" clip-rule="evenodd" points="99.3,39.7 99.8,39.7 99.8,35.7 102.1,39.7 102.7,39.7 102.7,34.5 
	102.1,34.5 102.1,38.6 99.9,34.5 99.3,34.5 "/>
<path fill-rule="evenodd" clip-rule="evenodd" d="M23.8,66.1h0.6l0.9-4c0.1-0.2,0.1-0.4,0.1-0.6l0.1,0.6l0.9,4H27l1.2-5.2h-0.6
	l-0.7,3.3c-0.1,0.4-0.2,0.8-0.2,1.1c-0.1-0.6-0.2-1.2-0.3-1.8l-0.6-2.6h-0.7l-0.8,3.5l-0.2,1c-0.1-0.4-0.1-0.7-0.2-1.1l-0.6-3.4
	h-0.6L23.8,66.1"/>
<path fill-rule="evenodd" clip-rule="evenodd" d="M29.4,64l0.5-1.5c0.1-0.3,0.2-0.7,0.2-1c0.1,0.3,0.2,0.6,0.3,1.1l0.5,1.4H29.4
	 M28.2,66.1h0.6l0.5-1.6h1.8l0.5,1.6h0.6l-1.7-5.2h-0.6L28.2,66.1"/>
<polygon fill-rule="evenodd" clip-rule="evenodd" points="32.6,66.1 35.3,66.1 35.3,65.5 33.2,65.5 33.2,60.9 32.6,60.9 "/>
<polygon fill-rule="evenodd" clip-rule="evenodd" points="35.9,66.1 38.6,66.1 38.6,65.5 36.5,65.5 36.5,60.9 35.9,60.9 "/>
<rect x="41.1" y="60.9" fill-rule="evenodd" clip-rule="evenodd" width="0.6" height="5.2"/>
<polygon fill-rule="evenodd" clip-rule="evenodd" points="42.6,66.1 43.1,66.1 43.1,62 45.4,66.1 46,66.1 46,60.9 45.4,60.9 
	45.4,65 43.2,60.9 42.6,60.9 "/>
<polygon fill-rule="evenodd" clip-rule="evenodd" points="48,66.1 48.6,66.1 48.6,61.5 50,61.5 50,60.9 46.6,60.9 46.6,61.5 
	48,61.5 "/>
<polygon fill-rule="evenodd" clip-rule="evenodd" points="50.6,66.1 53.8,66.1 53.8,65.5 51.2,65.5 51.2,63.7 53.5,63.7 53.5,63.1 
	51.2,63.1 51.2,61.5 53.7,61.5 53.7,60.9 50.6,60.9 "/>
<path fill-rule="evenodd" clip-rule="evenodd" d="M55.1,63.2v-1.7h1.4c0.3,0,0.5,0.1,0.7,0.2c0.2,0.2,0.2,0.4,0.2,0.6
	c0,0.2,0,0.3-0.1,0.5c-0.1,0.1-0.2,0.2-0.3,0.3c-0.1,0.1-0.3,0.1-0.6,0.1H55.1 M54.6,66.1h0.6v-2.3h0.7c0.2,0,0.3,0,0.4,0.1
	c0.1,0.1,0.2,0.2,0.3,0.3c0.1,0.2,0.3,0.4,0.5,0.9l0.6,1.1h0.7l-0.7-1.4c-0.1-0.2-0.3-0.5-0.5-0.7c-0.1-0.1-0.2-0.2-0.4-0.3
	c0.4-0.1,0.7-0.2,0.9-0.5c0.2-0.2,0.3-0.6,0.3-0.9c0-0.3-0.1-0.6-0.2-0.8c-0.1-0.2-0.3-0.4-0.5-0.5c-0.2-0.1-0.5-0.2-0.9-0.2h-1.9
	V66.1"/>
<polygon fill-rule="evenodd" clip-rule="evenodd" points="58.9,66.1 59.5,66.1 59.5,63.8 61.5,63.8 61.5,63.2 59.5,63.2 59.5,61.5 
	61.8,61.5 61.8,60.9 58.9,60.9 "/>
<path fill-rule="evenodd" clip-rule="evenodd" d="M63.3,64l0.5-1.5c0.1-0.3,0.2-0.7,0.2-1c0.1,0.3,0.2,0.6,0.3,1.1l0.5,1.4H63.3
	 M62.1,66.1h0.6l0.5-1.6h1.8l0.5,1.6H66l-1.7-5.2h-0.6L62.1,66.1"/>
<path fill-rule="evenodd" clip-rule="evenodd" d="M69.5,64.3c-0.1,0.4-0.2,0.8-0.5,1c-0.2,0.2-0.5,0.3-0.8,0.3c-0.4,0-0.8-0.2-1-0.5
	c-0.2-0.4-0.4-0.9-0.4-1.6c0-0.5,0.1-0.9,0.2-1.2c0.1-0.3,0.3-0.6,0.5-0.7c0.2-0.2,0.5-0.2,0.7-0.2c0.6,0,0.9,0.4,1.1,1.1l0.6-0.2
	c-0.1-0.5-0.3-0.9-0.6-1.1c-0.3-0.2-0.6-0.4-1.1-0.4c-0.4,0-0.7,0.1-1,0.3c-0.3,0.2-0.6,0.5-0.7,0.9c-0.2,0.4-0.3,0.9-0.3,1.5
	c0,0.6,0.1,1.1,0.3,1.5c0.2,0.4,0.4,0.7,0.7,0.9c0.3,0.2,0.6,0.3,1,0.3c0.5,0,0.8-0.2,1.2-0.4c0.3-0.3,0.5-0.7,0.6-1.3L69.5,64.3"/>
<polygon fill-rule="evenodd" clip-rule="evenodd" points="70.8,66.1 74,66.1 74,65.5 71.4,65.5 71.4,63.7 73.7,63.7 73.7,63.1 
	71.4,63.1 71.4,61.5 73.9,61.5 73.9,60.9 70.8,60.9 "/>
<rect x="76.2" y="63.9" fill-rule="evenodd" clip-rule="evenodd" width="1.6" height="0.6"/>
<path fill-rule="evenodd" clip-rule="evenodd" d="M80.7,63.4v-1.9h1.1c0.3,0,0.5,0,0.6,0.1c0.1,0.1,0.2,0.2,0.3,0.3
	c0.1,0.1,0.1,0.3,0.1,0.5c0,0.3-0.1,0.6-0.2,0.7c-0.2,0.2-0.4,0.2-0.8,0.2H80.7 M80.1,66.1h0.6V64h1.1c0.6,0,1-0.2,1.2-0.5
	c0.2-0.3,0.4-0.7,0.4-1.1c0-0.4-0.1-0.7-0.2-0.9c-0.1-0.2-0.3-0.4-0.6-0.5c-0.2-0.1-0.5-0.1-0.8-0.1h-1.6V66.1"/>
<polygon fill-rule="evenodd" clip-rule="evenodd" points="84,66.1 86.7,66.1 86.7,65.5 84.6,65.5 84.6,60.9 84,60.9 "/>
<path fill-rule="evenodd" clip-rule="evenodd" d="M88.1,64l0.5-1.5c0.1-0.3,0.2-0.7,0.2-1c0.1,0.3,0.2,0.6,0.3,1.1l0.4,1.4H88.1
	 M86.9,66.1h0.6l0.5-1.6h1.8l0.5,1.6h0.6l-1.7-5.2h-0.6L86.9,66.1"/>
<polygon fill-rule="evenodd" clip-rule="evenodd" points="91.4,66.1 91.9,66.1 91.9,62 94.1,66.1 94.7,66.1 94.7,60.9 94.2,60.9 
	94.2,65 91.9,60.9 91.4,60.9 "/>
<line fill="none" stroke="#231F20" stroke-width="4.600000e-002" stroke-linejoin="bevel" stroke-miterlimit="1.414" x1="5.2" y1="40.9" x2="5.2" y2="40.9"/>
<line fill="none" stroke="#231F20" stroke-width="4.600000e-002" stroke-linejoin="bevel" stroke-miterlimit="1.414" x1="5.2" y1="40.9" x2="5.2" y2="40.9"/>
<line fill="none" stroke="#231F20" stroke-width="9.100000e-002" stroke-linejoin="round" stroke-miterlimit="1.414" x1="0.7" y1="40.9" x2="16.3" y2="40.9"/>
<path fill="none" stroke="#231F20" stroke-width="9.100000e-002" stroke-linejoin="round" stroke-miterlimit="1.414" d="M16.3,40.9
	c0-1-0.2-2-0.6-3c-0.4-1-1-1.8-1.7-2.5c-0.7-0.7-1.6-1.3-2.5-1.7c-0.9-0.4-2-0.6-3-0.6s-2,0.2-3,0.6c-1,0.4-1.8,1-2.5,1.7
	c-0.7,0.7-1.3,1.6-1.7,2.5c-0.4,0.9-0.6,2-0.6,3c0,1,0.2,2.1,0.6,3c0.4,1,1,1.8,1.7,2.5c0.7,0.7,1.6,1.3,2.5,1.7
	c0.9,0.4,2,0.6,3,0.6s2.1-0.2,3-0.6c1-0.4,1.8-1,2.5-1.7c0.7-0.7,1.3-1.6,1.7-2.5C16.1,42.9,16.3,41.9,16.3,40.9"/>
<line fill="none" stroke="#231F20" stroke-width="4.600000e-002" stroke-linejoin="bevel" stroke-miterlimit="1.414" x1="5.2" y1="67.3" x2="5.2" y2="67.3"/>
<line fill="none" stroke="#231F20" stroke-width="4.600000e-002" stroke-linejoin="bevel" stroke-miterlimit="1.414" x1="5.2" y1="67.3" x2="5.2" y2="67.3"/>
<line fill="none" stroke="#231F20" stroke-width="9.100000e-002" stroke-linejoin="round" stroke-miterlimit="1.414" x1="0.7" y1="67.3" x2="16.3" y2="67.3"/>
<path fill="none" stroke="#231F20" stroke-width="9.100000e-002" stroke-linejoin="round" stroke-miterlimit="1.414" d="M16.3,67.3
	c0-1-0.2-2-0.6-3c-0.4-1-1-1.8-1.7-2.5c-0.7-0.7-1.6-1.3-2.5-1.7c-0.9-0.4-2-0.6-3-0.6s-2,0.2-3,0.6c-1,0.4-1.8,1-2.5,1.7
	c-0.7,0.7-1.3,1.6-1.7,2.5c-0.4,0.9-0.6,2-0.6,3c0,1,0.2,2.1,0.6,3c0.4,0.9,1,1.8,1.7,2.5c0.7,0.7,1.6,1.3,2.5,1.7
	c0.9,0.4,2,0.6,3,0.6s2.1-0.2,3-0.6c1-0.4,1.8-1,2.5-1.7c0.7-0.7,1.3-1.6,1.7-2.5C16.1,69.3,16.3,68.3,16.3,67.3"/>
<line fill="none" stroke="#231F20" stroke-width="9.100000e-002" stroke-linejoin="round" stroke-miterlimit="1.414" x1="16.3" y1="40.9" x2="104.4" y2="40.9"/>
<line fill="none" stroke="#231F20" stroke-width="9.100000e-002" stroke-linejoin="round" stroke-miterlimit="1.414" x1="16.3" y1="67.3" x2="104.4" y2="67.3"/>
<rect y="0" fill="none" width="137.9" height="113.1"/>
</svg>
