<?xml version="1.0" encoding="utf-8"?>
<!-- Generator: Adobe Illustrator 18.1.1, SVG Export Plug-In . SVG Version: 6.00 Build 0)  -->
<svg class="Layer_1" xmlns="http://www.w3.org/2000/svg" xmlns:xlink="http://www.w3.org/1999/xlink" x="0px" y="0px"
	 viewBox="0 0 320 99.439" enable-background="new 0 0 320 99.439" xml:space="preserve">
<rect y="0" fill="#ffffff" width="160.157" height="99.439"/>
<rect x="1.097" y="1.724" fill="#b6dde8" width="158.341" height="16.102"/>
<text transform="matrix(1.0105 0 0 1 5.9547 5.5688)" font-family="'Arial'" font-weight="bolder" font-size="3.9894">JOINERY</text>
<text transform="matrix(1.0105 0 0 1 9.0145 10.7115)" font-family="'Arial'" font-weight="bolder" font-size="3.9894">CODE</text>
<text transform="matrix(1.0105 0 0 1 60.6444 5.5688)" font-family="'Arial'" font-weight="bolder" font-size="3.9894">JOINERY NAME</text>
<text transform="matrix(1.0105 0 0 1 131.5084 5.5688)" font-family="'Arial'" font-weight="bolder" font-size="3.9894">DRAWING </text>
<text transform="matrix(1.0105 0 0 1 132.432 10.7115)" font-family="'Arial'" font-weight="bolder" font-size="3.9894">NUMBER</text>
<text transform="matrix(1.0105 0 0 1 7.7973 29.5527)" font-family="'Arial'" font-weight="bolder" font-size="3.9894">J01</text>
<text transform="matrix(1.0105 0 0 1 32.4694 29.5049)" font-family="'Arial'" font-size="3.9894">WARDROBE</text>
<text transform="matrix(1.0105 0 0 1 127.0377 29.5049)" font-family="'Arial'" font-size="3.9894">AR-M-XX-02</text>
<text transform="matrix(1.0105 0 0 1 7.7973 36.2352)" font-family="'Arial'" font-weight="bolder" font-size="3.9894">J02</text>
<text transform="matrix(1.0105 0 0 1 32.4694 36.1874)" font-family="'Arial'" font-size="3.9894">DAY BED</text>
<text transform="matrix(1.0105 0 0 1 127.0377 36.1874)" font-family="'Arial'" font-size="3.9894">AR-M-XX-02</text>
<text transform="matrix(1.0105 0 0 1 7.7973 42.9176)" font-family="'Arial'" font-weight="bolder" font-size="3.9894">J05</text>
<text transform="matrix(1.0105 0 0 1 32.4694 42.8697)" font-family="'Arial'" font-size="3.9894">SHELF</text>
<text transform="matrix(1.0105 0 0 1 127.0377 42.8697)" font-family="'Arial'" font-size="3.9894">AR-M-XX-02</text>
<text transform="matrix(1.0105 0 0 1 7.7973 49.5995)" font-family="'Arial'" font-weight="bolder" font-size="3.9894">J06</text>
<text transform="matrix(1.0105 0 0 1 32.4694 49.5518)" font-family="'Arial'" font-size="3.9894">WRITING BENCH</text>
<text transform="matrix(1.0105 0 0 1 127.0377 49.5518)" font-family="'Arial'" font-size="3.9894">AR-M-XX-02</text>
<text transform="matrix(1.0105 0 0 1 7.7925 56.2819)" font-family="'Arial'" font-weight="bolder" font-size="3.9894">J10</text>
<text transform="matrix(1.0105 0 0 1 32.4653 56.2338)" font-family="'Arial'" font-size="3.9894">BENCH</text>
<text transform="matrix(1.0105 0 0 1 127.0298 56.2338)" font-family="'Arial'" font-size="3.9894">AR-M-XX-03</text>
<text transform="matrix(1.0105 0 0 1 7.7889 62.9645)" font-family="'Arial'" font-weight="bolder" font-size="3.9894">J11</text>
<text transform="matrix(1.0105 0 0 1 32.4609 62.9164)" font-family="'Arial'" font-size="3.9894">OVERHEAD SHELF</text>
<text transform="matrix(1.0105 0 0 1 127.0298 62.9164)" font-family="'Arial'" font-size="3.9894">AR-M-XX-03</text>
<text transform="matrix(1.0105 0 0 1 7.7889 69.6459)" font-family="'Arial'" font-weight="bolder" font-size="3.9894">J12</text>
<text transform="matrix(1.0105 0 0 1 32.4609 69.5981)" font-family="'Arial'" font-size="3.9894">CUPBOARD DOOR</text>
<text transform="matrix(1.0105 0 0 1 127.0298 69.5981)" font-family="'Arial'" font-size="3.9894">AR-M-XX-04</text>
<text transform="matrix(1.0105 0 0 1 7.7889 76.3288)" font-family="'Arial'" font-weight="bolder" font-size="3.9894">J13</text>
<text transform="matrix(1.0105 0 0 1 32.4609 76.2807)" font-family="'Arial'" font-size="3.9894">OVERHEAD SHELVING</text>
<text transform="matrix(1.0105 0 0 1 127.0298 76.2807)" font-family="'Arial'" font-size="3.9894">AR-M-XX-04</text>
<text transform="matrix(1.0105 0 0 1 7.7889 83.0114)" font-family="'Arial'" font-weight="bolder" font-size="3.9894">J14</text>
<text transform="matrix(1.0105 0 0 1 32.4609 82.9633)" font-family="'Arial'" font-size="3.9894">BENCH</text>
<text transform="matrix(1.0105 0 0 1 127.0257 82.9633)" font-family="'Arial'" font-size="3.9894">AR-M-XX-04</text>
<text transform="matrix(1.0105 0 0 1 7.7845 89.6928)" font-family="'Arial'" font-weight="bolder" font-size="3.9894">J16</text>
<text transform="matrix(1.0105 0 0 1 32.4569 89.645)" font-family="'Arial'" font-size="3.9894">BENCH</text>
<text transform="matrix(1.0105 0 0 1 127.0218 89.645)" font-family="'Arial'" font-size="3.9894">AR-M-XX-06</text>
<text transform="matrix(1.0105 0 0 1 7.7808 96.3757)" font-family="'Arial'" font-weight="bolder" font-size="3.9894">J18</text>
<text transform="matrix(1.0105 0 0 1 32.4525 96.3276)" font-family="'Arial'" font-size="3.9894">FULL HEIGHT CUPBOARD</text>
<text transform="matrix(1.0105 0 0 1 127.0218 96.3276)" font-family="'Arial'" font-size="3.9894">AR-M-XX-07</text>
<rect x="0.709" y="0.708" fill="none" width="159.448" height="98.731"/>
<rect x="0.709" y="1.339" fill="#808080" width="0.388" height="98.1"/>
<rect x="28.443" y="1.724" fill="#808080" width="0.389" height="97.716"/>
<rect x="123.011" y="1.724" fill="#808080" width="0.389" height="97.716"/>
<rect x="159.196" y="1.724" fill="#808080" width="0.389" height="97.716"/>
<rect x="1.097" y="1.339" fill="#808080" width="158.487" height="0.385"/>
<rect x="1.097" y="17.585" fill="#808080" width="158.487" height="0.385"/>
<rect x="1.097" y="24.555" fill="#808080" width="158.487" height="0.384"/>
<rect x="1.097" y="31.236" fill="#808080" width="158.487" height="0.384"/>
<rect x="1.097" y="37.917" fill="#808080" width="158.487" height="0.385"/>
<rect x="1.097" y="44.598" fill="#808080" width="158.487" height="0.385"/>
<rect x="1.097" y="51.279" fill="#808080" width="158.487" height="0.385"/>
<rect x="1.097" y="57.96" fill="#808080" width="158.487" height="0.385"/>
<rect x="1.097" y="64.641" fill="#808080" width="158.487" height="0.385"/>
<rect x="1.097" y="71.322" fill="#808080" width="158.487" height="0.385"/>
<rect x="1.097" y="78.003" fill="#808080" width="158.487" height="0.385"/>
<rect x="1.097" y="84.684" fill="#808080" width="158.487" height="0.385"/>
<rect x="1.097" y="91.366" fill="#808080" width="158.487" height="0.384"/>
<rect x="1.097" y="98.047" fill="#808080" width="158.487" height="0.385"/>
<rect x="0.709" y="0.708" fill="none" width="159.448" height="98.731"/>
<rect x="160.158" y="0" fill="#ffffff" width="160.157" height="99.439"/>
<rect x="161.712" y="1.912" fill="#b6dde8" width="157.9" height="15.604"/>
<text transform="matrix(1.0398 0 0 1 162.632 5.6386)" font-family="'Arial'" font-weight="bolder" font-size="3.8662">FURNITURE / </text>
<text transform="matrix(1.0398 0 0 1 162.7288 10.6218)" font-family="'Arial'" font-weight="bolder" font-size="3.8662">ACCESSORY</text>
<text transform="matrix(1.0398 0 0 1 169.6075 15.6058)" font-family="'Arial'" font-weight="bolder" font-size="3.8662">CODE</text>
<text transform="matrix(1.0398 0 0 1 222.597 5.6386)" font-family="'Arial'" font-weight="bolder" font-size="3.8662">DESCRIPTION</text>
<text transform="matrix(1.0398 0 0 1 193.0045 29.0213)" font-family="'Arial'" font-weight="bolder" font-size="3.8662">CHAIRS</text>
<text transform="matrix(1.0398 0 0 1 168.4437 35.916)" font-family="'Arial'" font-weight="bolder" font-size="4.2854">C-16</text>
<text transform="matrix(1.0398 0 0 1 193.0011 34.7511)" font-family="'Arial'" font-size="3.8662">BULO EASY RIDER ARMCHAIR</text>
<text transform="matrix(1.0398 0 0 1 168.4437 42.6703)" font-family="'Arial'" font-weight="bolder" font-size="4.2854">C-17</text>
<text transform="matrix(1.0398 0 0 1 193.0011 41.5056)" font-family="'Arial'" font-size="3.8662">INTERSTUHL SILENCIO ARMCHAIR WITH GLASS SIDES</text>
<text transform="matrix(1.0398 0 0 1 168.4437 49.4243)" font-family="'Arial'" font-weight="bolder" font-size="4.2854">C-19</text>
<text transform="matrix(1.0398 0 0 1 193.0011 48.2597)" font-family="'Arial'" font-size="3.8662">SAARINEN TULIP CHAIRS</text>
<text transform="matrix(1.0398 0 0 1 168.4437 56.1786)" font-family="'Arial'" font-weight="bolder" font-size="4.2854">C-20</text>
<text transform="matrix(1.0398 0 0 1 193.0011 55.0143)" font-family="'Arial'" font-size="3.8662">CELESTE ARMCHAIR WITH WRITING TABLET</text>
<text transform="matrix(1.0398 0 0 1 168.4437 62.9326)" font-family="'Arial'" font-weight="bolder" font-size="4.2854">C-21</text>
<text transform="matrix(1.0398 0 0 1 193.0011 61.768)" font-family="'Arial'" font-size="3.8662">CALLA CHAIR</text>
<text transform="matrix(1.0398 0 0 1 168.4437 69.687)" font-family="'Arial'" font-weight="bolder" font-size="4.2854">C-22</text>
<text transform="matrix(1.0398 0 0 1 193.0011 68.5226)" font-family="'Arial'" font-size="3.8662">DIVINA CHAIR WITH TABLET ARM</text>
<text transform="matrix(1.0398 0 0 1 168.4437 76.4409)" font-family="'Arial'" font-weight="bolder" font-size="4.2854">C-23</text>
<text transform="matrix(1.0398 0 0 1 193.0011 75.2767)" font-family="'Arial'" font-size="3.8662">EAMES LCW PONY HAIR</text>
<text transform="matrix(1.0398 0 0 1 168.4437 83.1953)" font-family="'Arial'" font-weight="bolder" font-size="4.2854">C-24</text>
<text transform="matrix(1.0398 0 0 1 193.0011 82.0307)" font-family="'Arial'" font-size="3.8662">EAMES LCW WALNUT</text>
<text transform="matrix(1.0398 0 0 1 168.4437 89.9496)" font-family="'Arial'" font-weight="bolder" font-size="4.2854">C-25</text>
<text transform="matrix(1.0398 0 0 1 193.0011 88.7849)" font-family="'Arial'" font-size="3.8662">NORMA FULLY UPHOLSTERED LEATHER CHAIR</text>
<text transform="matrix(1.0398 0 0 1 168.4437 96.7036)" font-family="'Arial'" font-weight="bolder" font-size="4.2854">C-26</text>
<text transform="matrix(1.0398 0 0 1 193.0011 95.5394)" font-family="'Arial'" font-size="3.8662">30X30 CHAIR</text>
<rect x="160.157" y="0.929" fill="none" width="160.158" height="98.51"/>
<rect x="319.37" y="1.912" fill="#808080" width="0.387" height="97.527"/>
<rect x="161.324" y="1.54" fill="#808080" width="0.387" height="97.899"/>
<rect x="188.981" y="1.912" fill="#808080" width="0.387" height="97.527"/>
<rect x="160.157" y="0.929" fill="none" width="160.158" height="98.51"/>
<rect x="161.712" y="1.54" fill="#808080" width="158.046" height="0.373"/>
<rect x="161.712" y="17.284" fill="#808080" width="158.046" height="0.373"/>
<rect x="161.712" y="24.038" fill="#808080" width="158.046" height="0.373"/>
<rect x="161.712" y="30.792" fill="#808080" width="158.046" height="0.372"/>
<rect x="161.712" y="37.546" fill="#808080" width="158.046" height="0.372"/>
<rect x="161.712" y="44.301" fill="#808080" width="158.046" height="0.373"/>
<rect x="161.712" y="51.055" fill="#808080" width="158.046" height="0.372"/>
<rect x="161.712" y="57.809" fill="#808080" width="158.046" height="0.373"/>
<rect x="161.712" y="64.563" fill="#808080" width="158.046" height="0.373"/>
<rect x="161.712" y="71.317" fill="#808080" width="158.046" height="0.373"/>
<rect x="161.712" y="78.072" fill="#808080" width="158.046" height="0.373"/>
<rect x="161.712" y="84.826" fill="#808080" width="158.046" height="0.373"/>
<rect x="161.712" y="91.58" fill="#808080" width="158.046" height="0.373"/>
<rect x="161.712" y="98.334" fill="#808080" width="158.046" height="0.373"/>
<rect x="160.157" y="0.929" fill="none" width="160.158" height="98.51"/>
</svg>
