<svg version="1.1" id="stationery-business-card" xmlns="http://www.w3.org/2000/svg" xmlns:xlink="http://www.w3.org/1999/xlink" x="0px" y="0px" viewBox="0 0 331.404 409.238" enable-background="new 0 0 331.404 409.238" xml:space="preserve" alt="BVN sample business cards.">
<rect x="2.834" y="2.834" fill="#ffffff" width="155.656" height="89.936"/>
<rect x="2.834" y="2.834" fill="none" stroke="#000000" stroke-width="0.25" width="155.656" height="89.936"/>
<g>
	<path d="M29.691,64.394v8.818h-2.266L29.691,64.394z M20.977,73.212c0.279-0.554,0.438-1.179,0.438-1.84
		c0-1.167-0.493-2.222-1.281-2.97c0.788-0.748,1.281-1.804,1.281-2.973c0-0.003,0-0.006,0-0.01l2.011,7.793H20.977z M15.476,73.212
		v-3.681h1.838c1.014,0.003,1.839,0.829,1.839,1.841c0,1.013-0.824,1.838-1.835,1.84H15.476z M17.314,63.589
		c1.014,0.003,1.839,0.829,1.839,1.84c0,1.013-0.824,1.839-1.835,1.841h-1.842v-3.681H17.314z M27.563,63.589l-2.138,8.318
		l-2.147-8.318H27.563z M36.017,73.212h-4.064v-6.707L36.017,73.212z M36.894,70.295l-4.064-6.706h4.064V70.295z M13.214,61.327
		v14.147h25.942V61.327H13.214z"/>
</g>
<rect x="172.914" y="2.834" fill="#ffffff" width="155.657" height="89.936"/>
<rect x="172.914" y="2.834" fill="none" stroke="#000000" stroke-width="0.25" width="155.657" height="89.936"/>
<path d="M216.404,73.995V56.206h-26.812v17.789H216.404z M222.704,80.296h-39.411V8.025h39.411h48.942V20.07h33.132v18.068v18.068
	h-33.132h-48.942V80.296z"/>
<rect x="2.834" y="211.554" fill="#ffffff" width="155.656" height="89.936"/>
<rect x="2.834" y="211.554" fill="none" stroke="#000000" stroke-width="0.25" width="155.656" height="89.936"/>
<g>
	<path d="M101.487,257.477c7.499,0,13.578,6.079,13.578,13.578s-6.079,13.578-13.578,13.578c-7.498,0-13.577-6.079-13.577-13.578
		S93.989,257.477,101.487,257.477 M87.91,243.898v-27.154h49.797v27.154H87.91z M63.011,257.477v27.156H13.214v-27.156v-40.732
		h74.695l0.001,40.732H63.011z"/>
</g>
<rect x="172.914" y="211.554" fill="#ffffff" width="155.657" height="89.936"/>
<rect x="172.914" y="211.554" fill="none" stroke="#000000" stroke-width="0.25" width="155.657" height="89.936"/>
<path d="M230.385,258.901h-47.093v24.091h47.093V258.901z M307.786,216.743h-53.855h-16.784h-53.854v36.137h53.854h16.784h53.855
	V216.743z"/>
<rect x="2.834" y="107.193" fill="#ffffff" width="155.656" height="89.937"/>
<rect x="2.834" y="107.193" fill="none" stroke="#000000" stroke-width="0.25" width="155.656" height="89.937"/>
<path d="M24.067,123.237h102.787v46.183H24.067V123.237z M137.707,112.384H13.214v67.89h124.493V112.384z"/>
<rect x="172.914" y="107.193" fill="#ffffff" width="155.657" height="89.937"/>
<rect x="172.914" y="107.193" fill="none" stroke="#000000" stroke-width="0.25" width="155.657" height="89.937"/>
<g>
	<path d="M199.769,168.753v8.818h-2.266L199.769,168.753z M191.055,177.571c0.279-0.554,0.438-1.179,0.438-1.84
		c0-1.167-0.493-2.222-1.281-2.97c0.788-0.748,1.281-1.805,1.281-2.974c0-0.003,0-0.006,0-0.009l2.011,7.792H191.055z
		 M185.554,177.571v-3.681h1.838c1.014,0.004,1.839,0.829,1.839,1.841c0,1.013-0.824,1.838-1.835,1.84H185.554z M187.392,167.948
		c1.014,0.003,1.839,0.829,1.839,1.84c0,1.014-0.824,1.839-1.835,1.841h-1.842v-3.681H187.392z M197.641,167.948l-2.138,8.318
		l-2.147-8.318H197.641z M206.095,177.571h-4.063v-6.707L206.095,177.571z M206.972,174.654l-4.063-6.706h4.063V174.654z
		 M183.292,165.687v14.146h25.941v-14.146H183.292z"/>
</g>
<rect x="172.914" y="315.912" fill="#ffffff" width="155.657" height="89.937"/>
<rect x="172.914" y="315.912" fill="none" stroke="#000000" stroke-width="0.25" width="155.657" height="89.937"/>
<g>
	<path d="M263.609,369.284h-68.271h-12.045v-48.181h88.354v24.09h36.14v24.091h-36.14H263.609z M195.337,393.374
		c-6.652,0-12.045-5.393-12.045-12.045c0-6.653,5.393-12.045,12.045-12.045c6.652,0,12.045,5.392,12.045,12.045
		C207.382,387.981,201.99,393.374,195.337,393.374"/>
</g>
<rect x="2.834" y="315.912" fill="#ffffff" width="155.656" height="89.937"/>
<rect x="2.834" y="315.912" fill="none" stroke="#000000" stroke-width="0.25" width="155.656" height="89.937"/>
<g>
	<path d="M29.69,377.472v8.818h-2.266L29.69,377.472z M20.977,386.29c0.279-0.554,0.438-1.179,0.438-1.84
		c0-1.167-0.493-2.223-1.281-2.971c0.788-0.748,1.281-1.804,1.281-2.973c0-0.003,0-0.006,0-0.01l2.011,7.793H20.977z M15.476,386.29
		v-3.681h1.838c1.014,0.003,1.839,0.828,1.839,1.841s-0.824,1.838-1.835,1.84H15.476z M17.313,376.667
		c1.014,0.003,1.839,0.829,1.839,1.84c0,1.013-0.824,1.839-1.835,1.841h-1.842v-3.681H17.313z M27.563,376.667l-2.138,8.318
		l-2.147-8.318H27.563z M36.017,386.29h-4.064v-6.707L36.017,386.29z M36.894,383.373l-4.064-6.706h4.064V383.373z M13.213,374.405
		v14.146h25.942v-14.146H13.213z"/>
</g>
<rect x="13.159" y="9.245" fill="none" width="134.173" height="24.506"/>
<text transform="matrix(1 0 0 1 13.1587 12.833)"><tspan x="0" y="0" font-family="'Blender-medium'" font-size="6">ABBIE GALVIN</tspan><tspan x="0" y="5.5" font-size="5">PRINCIPAL, BArch RAIA</tspan><tspan x="0" y="11" font-family="'Blender-medium'" font-size="5">T</tspan><tspan x="2.465" y="11" font-size="5"> +61 2 0810 3920</tspan><tspan x="38.565" y="11" font-family="'Blender-medium'" font-size="5">M</tspan><tspan x="41.815" y="11" font-size="5"> +61 811 043 342 </tspan><tspan x="77.916" y="11" font-family="'Blender-medium'" font-size="5">E</tspan><tspan x="80.441" y="11" font-size="5"> abbie_galvin@bvn.com.au</tspan><tspan x="0" y="16.5" font-size="5">255 PITT STREET / SYDNEY 2000 AUSTRALIA / BVN.COM.AU</tspan></text>
<rect x="183.237" y="113.604" fill="none" width="134.173" height="24.506"/>
<text transform="matrix(1 0 0 1 183.2368 117.1924)"><tspan x="0" y="0" font-family="'Blender-medium'" font-size="6">AMANDA TENN </tspan><tspan x="0" y="5.5" font-size="5">ADMINISTRATION MANAGER</tspan><tspan x="0" y="11" font-family="'Blender-medium'" font-size="5">T</tspan><tspan x="2.465" y="11" font-size="5"> +61 2 1061 6735 </tspan><tspan x="38.565" y="11" font-family="'Blender-medium'" font-size="5">M</tspan><tspan x="41.815" y="11" font-size="5"> +61 170 844 018 </tspan><tspan x="77.916" y="11" font-family="'Blender-medium'" font-size="5">E</tspan><tspan x="80.441" y="11" font-size="5"> amanda_tenn@bvn.com.au</tspan><tspan x="0" y="16.5" font-size="5">255 PITT STREET / SYDNEY 2000 AUSTRALIA / BVN.COM.AU</tspan></text>
<rect x="13.029" y="322.323" fill="none" width="134.173" height="24.506"/>
<text transform="matrix(1 0 0 1 13.0288 325.9111)"><tspan x="0" y="0" font-family="'Blender-medium'" font-size="6">JANE WILLIAMS </tspan><tspan x="0" y="5.5" font-size="5">PRINCIPAL, BArchSt(Hons) BArch(Hons)</tspan><tspan x="0" y="11" font-family="'Blender-medium'" font-size="5">T</tspan><tspan x="2.465" y="11" font-size="5"> +61 2 929 6554 </tspan><tspan x="38.565" y="11" font-family="'Blender-medium'" font-size="5">M</tspan><tspan x="41.815" y="11" font-size="5"> +61 223 964 963 </tspan><tspan x="77.916" y="11" font-family="'Blender-medium'" font-size="5">E</tspan><tspan x="80.441" y="11" font-size="5"> jane_williams@bvn.com.au</tspan><tspan x="0" y="16.5" font-size="5">255 PITT STREET / SYDNEY 2000 AUSTRALIA / BVN.COM.AU</tspan></text>
</svg>
