<svg version="1.1" id="stationery-envelopes" xmlns="http://www.w3.org/2000/svg" xmlns:xlink="http://www.w3.org/1999/xlink" x="0px" y="0px" viewBox="0 0 235.275 167.953" enable-background="new 0 0 235.275 167.953"
	 xml:space="preserve" alt="BVN stationery envelopes.">
<rect x="2.834" y="2.834" fill="#FFFFFF" width="229.606" height="162.283"/>
<rect x="2.834" y="2.834" fill="none" stroke="#000000" stroke-width="0.25" width="229.606" height="162.283"/>
<g>
	<path d="M19.441,13.96v4.336h-1.114L19.441,13.96z M15.156,18.296c0.138-0.272,0.216-0.58,0.216-0.905
		c0-0.574-0.243-1.092-0.63-1.46c0.387-0.368,0.63-0.887,0.63-1.462c0-0.002-0.001-0.003-0.001-0.005l0.99,3.832H15.156z
		 M12.451,18.296v-1.81h0.904c0.499,0.002,0.904,0.408,0.904,0.905c0,0.498-0.405,0.904-0.902,0.905H12.451z M13.355,13.564
		c0.499,0.002,0.904,0.408,0.904,0.905c0,0.498-0.405,0.904-0.902,0.905h-0.906v-1.81H13.355z M18.395,13.564l-1.052,4.09
		l-1.056-4.09H18.395z M22.552,18.296h-1.999v-3.298L22.552,18.296z M22.983,16.862l-1.999-3.298h1.999V16.862z M11.339,12.452
		v6.956h12.756v-6.956H11.339z"/>
</g>
<rect x="2.834" y="50.315" fill="#FFFFFF" width="162.284" height="114.803"/>
<rect x="2.834" y="50.315" fill="none" stroke="#000000" stroke-width="0.25" width="162.284" height="114.803"/>
<g>
	<path d="M19.441,61.44v4.336h-1.114L19.441,61.44z M15.156,65.776c0.138-0.272,0.216-0.58,0.216-0.905
		c0-0.574-0.243-1.092-0.63-1.46c0.387-0.368,0.63-0.887,0.63-1.462c0-0.002-0.001-0.003-0.001-0.005l0.99,3.832H15.156z
		 M12.451,65.776v-1.81h0.904c0.499,0.002,0.904,0.408,0.904,0.905c0,0.498-0.405,0.904-0.902,0.905H12.451z M13.355,61.044
		c0.499,0.002,0.904,0.408,0.904,0.905c0,0.498-0.405,0.904-0.902,0.905h-0.906v-1.81H13.355z M18.395,61.044l-1.052,4.09
		l-1.056-4.09H18.395z M22.552,65.776h-1.999v-3.298L22.552,65.776z M22.983,64.342l-1.999-3.298h1.999V64.342z M11.339,59.932
		v6.956h12.756v-6.956H11.339z"/>
</g>
<rect x="2.834" y="87.165" fill="#FFFFFF" width="155.906" height="77.953"/>
<rect x="2.834" y="87.165" fill="none" stroke="#000000" stroke-width="0.25" width="155.906" height="77.953"/>
<g>
	<path d="M19.441,98.291v4.336h-1.114L19.441,98.291z M15.156,102.626c0.138-0.272,0.216-0.58,0.216-0.905
		c0-0.574-0.243-1.092-0.63-1.46c0.387-0.368,0.63-0.887,0.63-1.462c0-0.002-0.001-0.003-0.001-0.005l0.99,3.832H15.156z
		 M12.451,102.626v-1.81h0.904c0.499,0.002,0.904,0.408,0.904,0.905c0,0.498-0.405,0.904-0.902,0.905H12.451z M13.355,97.895
		c0.499,0.002,0.904,0.408,0.904,0.905c0,0.498-0.405,0.904-0.902,0.905h-0.906v-1.81H13.355z M18.395,97.895l-1.052,4.09
		l-1.056-4.09H18.395z M22.552,102.626h-1.999v-3.298L22.552,102.626z M22.983,101.192l-1.999-3.298h1.999V101.192z M11.339,96.783
		v6.956h12.756v-6.956H11.339z"/>
</g>
<rect x="11.339" y="8.87" fill="none" width="50.563" height="1.688"/>
<text transform="matrix(1 0 0 1 11.3389 10.0698)" font-size="2">255 PITT STREET / SYDNEY 2000 AUSTRALIA / BVN.COM.AU</text>
<rect x="11.339" y="56.37" fill="none" width="50.563" height="1.688"/>
<text transform="matrix(1 0 0 1 11.3389 57.5698)" font-size="2">255 PITT STREET / SYDNEY 2000 AUSTRALIA / BVN.COM.AU</text>
<rect x="11.339" y="93.245" fill="none" width="50.563" height="1.688"/>
<text transform="matrix(1 0 0 1 11.3389 94.4448)" font-size="2">255 PITT STREET / SYDNEY 2000 AUSTRALIA / BVN.COM.AU</text>
</svg>
