<svg version="1.1" id="stationery-letterhead" xmlns="http://www.w3.org/2000/svg" xmlns:xlink="http://www.w3.org/1999/xlink" x="0px" y="0px"
	 width="436.958px" height="399.674px" viewBox="0 0 436.958 399.674" enable-background="new 0 0 436.958 399.674"
	 xml:space="preserve">
<rect x="300.186" y="3.59" fill="#FFFFFF" width="133.938" height="189.426"/>
<rect x="3.516" y="3.591" fill="#FFFFFF" width="133.937" height="189.424"/>
<rect x="300.186" y="3.59" fill="none" stroke="#000000" stroke-width="0.225" width="133.938" height="189.426"/>
<path d="M378.965,26.328v124.729h-56.042V26.328H378.965z M392.135,164.227V13.156l-82.382,0.002v151.068H392.135z"/>
<path fill="none" stroke="#000000" stroke-width="0.45" stroke-miterlimit="10" d="M378.965,26.328v124.729h-56.042V26.328H378.965z
	 M392.135,164.227V13.156l-82.382,0.002v151.068H392.135z"/>
<rect x="300.186" y="207.414" fill="#FFFFFF" width="133.938" height="189.424"/>
<rect x="300.186" y="207.414" fill="none" stroke="#000000" stroke-width="0.225" width="133.938" height="189.424"/>
<g>
	<path d="M375.658,326.844v-93.387V216.98h-65.905v120.855h32.952v49.436h32.953v-49.436V326.844z M408.611,233.457
		c0-9.1-7.377-16.477-16.477-16.477s-16.477,7.377-16.477,16.477s7.377,16.477,16.477,16.477S408.611,242.557,408.611,233.457"/>
	<path fill="none" stroke="#000000" stroke-width="0.45" stroke-miterlimit="10" d="M375.658,326.844v-93.387V216.98h-65.905
		v120.855h32.952v49.436h32.953v-49.436V326.844z M408.611,233.457c0-9.1-7.377-16.477-16.477-16.477s-16.477,7.377-16.477,16.477
		s7.377,16.477,16.477,16.477S408.611,242.557,408.611,233.457z"/>
</g>
<rect x="151.851" y="207.414" fill="#FFFFFF" width="133.937" height="189.426"/>
<rect x="151.851" y="207.414" fill="none" stroke="#000000" stroke-width="0.225" width="133.937" height="189.426"/>
<path d="M161.417,387.271h49.429v-73.664v-22.961V216.98h-49.429v73.666v22.961V387.271z M252.038,281.398V216.98h-32.953v64.418
	H252.038z"/>
<path fill="none" stroke="#000000" stroke-width="0.45" stroke-miterlimit="10" d="M161.417,387.271h49.429v-73.664v-22.961V216.98
	h-49.429v73.666v22.961V387.271z M252.038,281.398V216.98h-32.953v64.418H252.038z"/>
<rect x="3.516" y="207.414" fill="#FFFFFF" width="133.937" height="189.424"/>
<rect x="3.516" y="207.414" fill="none" stroke="#000000" stroke-width="0.225" width="133.937" height="189.424"/>
<g>
	<path d="M62.512,324.098c0,9.102,7.377,16.479,16.476,16.479c9.1,0,16.477-7.377,16.477-16.479c0-9.098-7.377-16.475-16.477-16.475
		C69.889,307.623,62.512,315,62.512,324.098 M46.036,307.623H13.083v60.428h32.953V307.623z M62.512,277.408h32.953V216.98H62.512
		H13.083v90.643h49.429V277.408z"/>
	<path fill="none" stroke="#000000" stroke-width="0.45" stroke-miterlimit="10" d="M62.512,324.098
		c0,9.102,7.377,16.479,16.476,16.479c9.1,0,16.477-7.377,16.477-16.479c0-9.098-7.377-16.475-16.477-16.475
		C69.889,307.623,62.512,315,62.512,324.098z M46.036,307.623H13.083v60.428h32.953V307.623z M62.512,277.408h32.953V216.98H62.512
		H13.083v90.643h49.429V277.408z"/>
</g>
<rect x="151.851" y="3.479" fill="#FFFFFF" width="133.937" height="189.424"/>
<rect x="151.851" y="3.479" fill="none" stroke="#000000" stroke-width="0.225" width="133.937" height="189.424"/>
<path d="M251.658,58.336h-24.335V21.664h24.334L251.658,58.336z M260.276,66.955v-53.91h-98.858l0,0v53.91V133.9h16.476v45.32
	h24.715h24.714V133.9V66.955H260.276z"/>
<path fill="none" stroke="#000000" stroke-width="0.45" stroke-miterlimit="10" d="M251.658,58.336h-24.335V21.664h24.334
	L251.658,58.336z M260.276,66.955v-53.91h-98.858l0,0v53.91V133.9h16.476v45.32h24.715h24.714V133.9V66.955H260.276z"/>
<rect x="3.516" y="3.59" fill="none" stroke="#000000" stroke-width="0.225" width="133.937" height="189.426"/>
<rect x="3.516" y="3.59" fill="none" stroke="#000000" stroke-width="0.225" width="133.937" height="189.424"/>
<g>
	<defs>
		<rect id="SVGID_1_" x="13.083" y="8.978" width="114.358" height="177.974"/>
	</defs>
	<clipPath id="SVGID_2_">
		<use xlink:href="#SVGID_1_"  overflow="visible"/>
	</clipPath>
	<g transform="matrix(1 0 0 1 2.384186e-007 0)" clip-path="url(#SVGID_2_)">
		
			<image overflow="visible" width="1030" height="1452" xlink:href="/assets/letterhead-documents.png"  transform="matrix(0.1314 0 0 0.1314 2.8345 2.835)">
		</image>
	</g>
</g>
</svg>
