<svg version="1.1" id="stationery-mailing-labels" xmlns="http://www.w3.org/2000/svg" xmlns:xlink="http://www.w3.org/1999/xlink" x="0px" y="0px" viewBox="0 0 215.688 154.743" enable-background="new 0 0 215.688 154.743"
	 xml:space="preserve">
<rect x="2.834" y="2.834" fill="#FFFFFF" width="104.882" height="74.408"/>
<rect x="2.834" y="2.834" fill="none" stroke="#000000" stroke-width="0.25" width="104.882" height="74.408"/>
<g>
	<path d="M19.441,13.959v4.336h-1.114L19.441,13.959z M15.156,18.295c0.138-0.271,0.216-0.58,0.216-0.904
		c0-0.574-0.243-1.093-0.63-1.46c0.387-0.368,0.63-0.888,0.63-1.462c0-0.003-0.001-0.004-0.001-0.006l0.99,3.832H15.156z
		 M12.451,18.295v-1.81h0.904c0.499,0.002,0.904,0.408,0.904,0.905c0,0.498-0.405,0.903-0.902,0.904H12.451z M13.354,13.563
		c0.499,0.002,0.904,0.408,0.904,0.905s-0.405,0.903-0.902,0.904h-0.906v-1.81H13.354z M18.395,13.563l-1.052,4.09l-1.056-4.09
		H18.395z M22.552,18.295h-1.999v-3.298L22.552,18.295z M22.983,16.861l-1.999-3.298h1.999V16.861z M11.339,12.451v6.956h12.756
		v-6.956H11.339z"/>
</g>
<rect x="107.966" y="2.834" fill="#FFFFFF" width="104.882" height="74.408"/>
<rect x="107.966" y="2.834" fill="none" stroke="#000000" stroke-width="0.25" width="104.882" height="74.408"/>
<g>
	<path d="M124.573,13.959v4.336h-1.114L124.573,13.959z M120.288,18.295c0.138-0.271,0.216-0.58,0.216-0.904
		c0-0.574-0.243-1.093-0.63-1.46c0.387-0.368,0.63-0.888,0.63-1.462c0-0.003-0.001-0.004-0.001-0.006l0.99,3.832H120.288z
		 M117.583,18.295v-1.81h0.904c0.499,0.002,0.904,0.408,0.904,0.905c0,0.498-0.405,0.903-0.902,0.904H117.583z M118.487,13.563
		c0.499,0.002,0.904,0.408,0.904,0.905s-0.405,0.903-0.902,0.904h-0.906v-1.81H118.487z M123.526,13.563l-1.052,4.09l-1.056-4.09
		H123.526z M127.684,18.295h-1.999v-3.298L127.684,18.295z M128.115,16.861l-1.999-3.298h1.999V16.861z M116.471,12.451v6.956
		h12.756v-6.956H116.471z"/>
</g>
<rect x="2.834" y="77.493" fill="#FFFFFF" width="104.882" height="74.409"/>
<rect x="2.834" y="77.493" fill="none" stroke="#000000" stroke-width="0.25" width="104.882" height="74.409"/>
<g>
	<path d="M19.441,88.619v4.336h-1.114L19.441,88.619z M15.156,92.955c0.138-0.272,0.216-0.58,0.216-0.905
		c0-0.574-0.243-1.092-0.63-1.46c0.387-0.368,0.63-0.887,0.63-1.462c0-0.002-0.001-0.003-0.001-0.005l0.99,3.832H15.156z
		 M12.451,92.955v-1.811h0.904c0.499,0.002,0.904,0.408,0.904,0.905c0,0.498-0.405,0.904-0.902,0.905H12.451z M13.354,88.223
		c0.499,0.002,0.904,0.408,0.904,0.905c0,0.498-0.405,0.904-0.902,0.905h-0.906v-1.811H13.354z M18.395,88.223l-1.052,4.09
		l-1.056-4.09H18.395z M22.552,92.955h-1.999v-3.298L22.552,92.955z M22.983,91.521l-1.999-3.298h1.999V91.521z M11.339,87.11v6.956
		h12.756V87.11H11.339z"/>
</g>
<rect x="107.966" y="77.493" fill="#FFFFFF" width="104.882" height="74.409"/>
<rect x="107.966" y="77.493" fill="none" stroke="#000000" stroke-width="0.25" width="104.882" height="74.409"/>
<g>
	<path d="M124.573,88.619v4.336h-1.114L124.573,88.619z M120.288,92.955c0.138-0.272,0.216-0.58,0.216-0.905
		c0-0.574-0.243-1.092-0.63-1.46c0.387-0.368,0.63-0.887,0.63-1.462c0-0.002-0.001-0.003-0.001-0.005l0.99,3.832H120.288z
		 M117.583,92.955v-1.811h0.904c0.499,0.002,0.904,0.408,0.904,0.905c0,0.498-0.405,0.904-0.902,0.905H117.583z M118.487,88.223
		c0.499,0.002,0.904,0.408,0.904,0.905c0,0.498-0.405,0.904-0.902,0.905h-0.906v-1.811H118.487z M123.526,88.223l-1.052,4.09
		l-1.056-4.09H123.526z M127.684,92.955h-1.999v-3.298L127.684,92.955z M128.115,91.521l-1.999-3.298h1.999V91.521z M116.471,87.11
		v6.956h12.756V87.11H116.471z"/>
</g>
<rect x="11.339" y="8.904" fill="none" width="50.563" height="1.688"/>
<text transform="matrix(1 0 0 1 11.3389 10.104)" font-size="2">255 PITT STREET / SYDNEY 2000 AUSTRALIA / BVN.COM.AU</text>
<rect x="116.471" y="8.904" fill="none" width="50.562" height="1.688"/>
<text transform="matrix(1 0 0 1 116.4707 10.104)" font-size="2">255 PITT STREET / SYDNEY 2000 AUSTRALIA / BVN.COM.AU</text>
<rect x="11.339" y="83.563" fill="none" width="50.563" height="1.688"/>
<text transform="matrix(1 0 0 1 11.3389 84.7632)" font-size="2">255 PITT STREET / SYDNEY 2000 AUSTRALIA / BVN.COM.AU</text>
<rect x="116.471" y="83.563" fill="none" width="50.562" height="1.688"/>
<text transform="matrix(1 0 0 1 116.4707 84.7632)" font-size="2">255 PITT STREET / SYDNEY 2000 AUSTRALIA / BVN.COM.AU</text>
</svg>
