<svg version="1.1" id="stationery-project-record-books"
	 xmlns="http://www.w3.org/2000/svg" xmlns:xlink="http://www.w3.org/1999/xlink" x="0px" y="0px" viewBox="-0.105 850.695 1327.209 833.754" enable-background="new -0.105 850.695 1327.209 833.754"
	 xml:space="preserve">
<path fill="#FFFFFF" d="M670.218,853.53h655.217v828.087H670.218V853.53z"/>
<path fill="none" stroke="#010101" stroke-width="0.25" d="M670.218,853.53h655.217v828.087H670.218V853.53z"/>
<path fill="#010101" d="M1265.306,901.286v17.063h-4.387L1265.306,901.286z M1248.447,918.349c0.539-1.07,0.846-2.282,0.846-3.561
	c0-2.259-0.951-4.297-2.475-5.744c1.523-1.448,2.475-3.494,2.475-5.752v-0.021l3.895,15.077H1248.447z M1237.804,918.349v-7.125
	h3.557c1.959,0.008,3.557,1.605,3.557,3.561c0,1.959-1.598,3.553-3.549,3.561h-3.564V918.349z M1241.361,899.732
	c1.959,0.008,3.557,1.604,3.557,3.561c0,1.959-1.598,3.553-3.549,3.557h-3.564v-7.121h3.557V899.732z M1261.187,899.732
	l-4.135,16.091l-4.16-16.091H1261.187z M1277.546,918.349h-7.869V905.37L1277.546,918.349z M1279.238,912.708l-7.861-12.976h7.861
	V912.708z M1233.429,895.352v27.368h50.188v-27.368H1233.429z"/>
<path fill="none" stroke="#010101" stroke-width="0.063" stroke-miterlimit="10" d="M809.624,959.853h206.5 M1016.125,959.853
	h84.512 M1100.644,959.853h13.939 M1114.583,959.853h14.984 M1129.568,959.853h69.529 M1199.097,959.853h11.803 M1210.9,959.853
	h73.361 M809.624,973.797h206.5 M1016.125,973.797h84.512 M1100.644,973.797h13.939 M1114.583,973.797h14.984 M1129.568,973.797
	h69.529 M1199.097,973.797h11.803 M1210.9,973.797h73.361 M809.624,988.079h206.5 M1016.125,988.079h84.512 M1100.644,988.079
	h13.939 M1114.583,988.079h14.984 M1129.568,988.079h69.529 M1199.097,988.079h11.803 M1210.9,988.079h73.361 M809.624,1002.361
	h206.5 M1016.125,1002.361h84.512 M1100.644,1002.361h13.939 M1114.583,1002.361h14.984 M1129.568,1002.361h69.529
	 M1199.097,1002.361h11.803 M1210.9,1002.361h73.361 M809.624,1016.642h206.5 M1016.125,1016.642h84.512 M809.624,1030.921h206.5
	 M1016.125,1030.921h84.512 M809.624,1045.203h206.5 M1016.125,1045.203h84.512 M809.624,1073.766h206.5 M1016.125,1073.766h84.512
	 M1100.644,1073.766h13.939 M1114.583,1073.766h14.984 M1129.568,1073.766h69.529 M1199.097,1073.766h11.803 M1210.9,1073.766
	h73.361"/>
<text transform="matrix(1 0 0 1 809.3677 957.0671)" fill="#010101" font-size="8.8524">Project</text>
<text transform="matrix(1 0 0 1 1114.3228 957.0671)" fill="#010101" font-size="8.8524">Project number</text>
<text transform="matrix(1 0 0 1 809.3677 971.0046)" fill="#010101" font-size="8.8524">Date</text>
<text transform="matrix(1 0 0 1 1015.8638 971.0046)" fill="#010101" font-size="8.8524">Time</text>
<text transform="matrix(1 0 0 1 1114.3228 971.0046)" fill="#010101" font-size="8.8524">File number</text>
<text transform="matrix(1 0 0 1 809.3677 985.2859)" fill="#010101" font-size="8.8524">At</text>
<text transform="matrix(1 0 0 1 1114.3228 985.2859)" fill="#010101" font-size="8.8524">Minuted by</text>
<text transform="matrix(1 0 0 1 809.3677 999.5671)" fill="#010101" font-size="8.8524">Participants</text>
<text transform="matrix(1 0 0 1 1114.3228 999.5671)" fill="#010101" font-size="8.8524">Of</text>
<text transform="matrix(1 0 0 1 1114.3228 1013.8406)" fill="#010101" font-size="8.8524">Event</text>
<text transform="matrix(1 0 0 1 1129.3052 1028.1296)" fill="#010101" font-size="9.836">Phone call</text>
<text transform="matrix(1 0 0 1 1210.6411 1028.1296)" fill="#010101" font-size="9.836">Inspection</text>
<text transform="matrix(1 0 0 1 1129.3052 1042.4187)" fill="#010101" font-size="9.836">Meeting</text>
<text transform="matrix(1 0 0 1 1210.6411 1042.4187)" fill="#010101" font-size="9.836">Other</text>
<text transform="matrix(1 0 0 1 809.3677 1070.9695)" fill="#010101" font-size="8.8524">Item</text>
<text transform="matrix(1 0 0 1 1114.3228 1070.9695)" fill="#010101" font-size="8.8524">Action</text>
<path fill="#FFFFFF" d="M1114.697,1018.574h10.91v10.906h-10.91V1018.574z"/>
<path fill="none" stroke="#010101" stroke-width="0.063" d="M1114.697,1018.574h10.91v10.906h-10.91V1018.574z"/>
<path fill="#FFFFFF" d="M1195.384,1018.574h10.902v10.906h-10.902V1018.574z"/>
<path fill="none" stroke="#010101" stroke-width="0.063" d="M1195.384,1018.574h10.902v10.906h-10.902V1018.574z"/>
<path fill="#FFFFFF" d="M1114.697,1032.518h10.91v10.905h-10.91V1032.518z"/>
<path fill="none" stroke="#010101" stroke-width="0.063" d="M1114.697,1032.518h10.91v10.905h-10.91V1032.518z"/>
<path fill="#FFFFFF" d="M1195.384,1032.518h10.902v10.905h-10.902V1032.518z"/>
<path fill="none" stroke="#010101" stroke-width="0.063" d="M1195.384,1032.518h10.902v10.905h-10.902V1032.518z M1227.712,1639.673
	h55.904"/>
<g>
	<circle fill="none" stroke="#977845" stroke-width="0.25" cx="751.074" cy="1153.261" r="8.365"/>
	<circle fill="none" stroke="#977845" stroke-width="0.25" cx="751.074" cy="1381.886" r="8.364"/>
</g>
<path fill="none" stroke="#977845" stroke-width="0.25" stroke-dasharray="0.997,0.997" d="M725.984,853.53v828.083"/>
<path fill="#FFFFFF" d="M2.729,853.528h655.213v828.087H2.729V853.528z"/>
<path fill="none" stroke="#010101" stroke-width="0.25" d="M2.729,853.53h655.213v828.087H2.729V853.53z"/>
<path fill="#010101" d="M500.231,901.286v17.063h-4.383L500.231,901.286z M483.372,918.349c0.543-1.07,0.85-2.282,0.85-3.561
	c0-2.259-0.955-4.297-2.479-5.744c1.523-1.448,2.479-3.494,2.479-5.752c0-0.008-0.004-0.012-0.004-0.021l3.896,15.077H483.372z
	 M472.726,918.349v-7.125h3.557c1.964,0.008,3.557,1.605,3.557,3.561c0,1.959-1.593,3.553-3.549,3.561h-3.564V918.349z
	 M476.282,899.732c1.964,0.008,3.557,1.604,3.557,3.561c0,1.959-1.593,3.553-3.549,3.557h-3.564v-7.121h3.557V899.732z
	 M496.112,899.732l-4.14,16.091l-4.154-16.091H496.112z M512.472,918.349h-7.865V905.37L512.472,918.349z M514.167,912.708
	l-7.865-12.976h7.865V912.708z M468.354,895.352v27.368h50.188v-27.368H468.354z"/>
<path fill="none" stroke="#010101" stroke-width="0.063" stroke-miterlimit="10" d="M44.552,959.853h206.497 M251.049,959.853
	h84.515 M335.568,959.853h13.939 M349.508,959.853h14.986 M364.494,959.853h69.529 M434.023,959.853h11.803 M445.826,959.853h73.365
	 M44.552,973.797h206.497 M251.049,973.797h84.515 M335.568,973.797h13.939 M349.508,973.797h14.986 M364.494,973.797h69.529
	 M434.023,973.797h11.803 M445.826,973.797h73.365 M44.552,988.079h206.497 M251.049,988.079h84.515 M335.568,988.079h13.939
	 M349.508,988.079h14.986 M364.494,988.079h69.529 M434.023,988.079h11.803 M445.826,988.079h73.365 M44.552,1002.361h206.497
	 M251.049,1002.361h84.515 M335.568,1002.361h13.939 M349.508,1002.361h14.986 M364.494,1002.361h69.529 M434.023,1002.361h11.803
	 M445.826,1002.361h73.365 M44.552,1016.642h206.497 M251.049,1016.642h84.515 M44.552,1030.921h206.497 M251.049,1030.921h84.515
	 M44.552,1045.203h206.497 M251.049,1045.203h84.515 M44.552,1073.766h206.497 M251.049,1073.766h84.515 M335.568,1073.766h13.939
	 M349.508,1073.766h14.986 M364.494,1073.766h69.529 M434.023,1073.766h11.803 M445.826,1073.766h73.365"/>
<text transform="matrix(1 0 0 1 44.3013 957.0671)" fill="#010101" font-size="8.8524">Project</text>
<text transform="matrix(1 0 0 1 349.2583 957.0671)" fill="#010101" font-size="8.8524">Project number</text>
<text transform="matrix(1 0 0 1 44.3013 971.0046)" fill="#010101" font-size="8.8524">Date</text>
<text transform="matrix(1 0 0 1 250.8032 971.0046)" fill="#010101" font-size="8.8524">Time</text>
<text transform="matrix(1 0 0 1 349.2583 971.0046)" fill="#010101" font-size="8.8524">File number</text>
<text transform="matrix(1 0 0 1 44.3013 985.2859)" fill="#010101" font-size="8.8524">At</text>
<text transform="matrix(1 0 0 1 349.2583 985.2859)" fill="#010101" font-size="8.8524">Minuted by</text>
<text transform="matrix(1 0 0 1 44.3013 999.5671)" fill="#010101" font-size="8.8524">Participants</text>
<text transform="matrix(1 0 0 1 349.2583 1013.8406)" fill="#010101" font-size="8.8524">Event</text>
<text transform="matrix(1 0 0 1 364.2485 1028.1296)" fill="#010101" font-size="9.836">Phone call</text>
<text transform="matrix(1 0 0 1 445.5806 1028.1296)" fill="#010101" font-size="9.836">Inspection</text>
<text transform="matrix(1 0 0 1 364.2485 1042.4187)" fill="#010101" font-size="9.836">Meeting</text>
<text transform="matrix(1 0 0 1 445.5806 1042.4187)" fill="#010101" font-size="9.836">Other</text>
<text transform="matrix(1 0 0 1 44.3013 1070.9695)" fill="#010101" font-size="8.8524">Item</text>
<text transform="matrix(1 0 0 1 349.2583 1070.9695)" fill="#010101" font-size="8.8524">Action</text>
<path fill="#FFFFFF" d="M349.63,1018.574h10.906v10.906H349.63V1018.574z"/>
<path fill="none" stroke="#010101" stroke-width="0.063" d="M349.63,1018.574h10.906v10.906H349.63V1018.574z"/>
<path fill="#FFFFFF" d="M430.313,1018.574h10.905v10.906h-10.905V1018.574z"/>
<path fill="none" stroke="#010101" stroke-width="0.063" d="M430.313,1018.574h10.905v10.906h-10.905V1018.574z"/>
<path fill="#FFFFFF" d="M349.63,1032.518h10.906v10.905H349.63V1032.518z"/>
<path fill="none" stroke="#010101" stroke-width="0.063" d="M349.63,1032.518h10.906v10.905H349.63V1032.518z"/>
<path fill="#FFFFFF" d="M430.313,1032.518h10.905v10.905h-10.905V1032.518z"/>
<path fill="none" stroke="#010101" stroke-width="0.063" d="M430.313,1032.518h10.905v10.905h-10.905V1032.518z M462.638,1639.673
	h55.904"/>
<g>
	<circle fill="none" stroke="#977845" stroke-width="0.25" cx="577.09" cy="1153.261" r="8.365"/>
	<circle fill="none" stroke="#977845" stroke-width="0.25" cx="577.09" cy="1381.886" r="8.364"/>
</g>
<path fill="none" stroke="#977845" stroke-width="0.25" stroke-dasharray="0.997,0.997" d="M602.188,853.53v828.083"/>
<rect x="44.604" y="1655.993" fill="none" width="227.5" height="12.666"/>
<text transform="matrix(1 0 0 1 44.6035 1660.7927)" font-size="8">BVN ARCHITECTURE PTY LTD / ABN 46 010 724 339 / ACN 010 724 339</text>
<rect x="809.538" y="897.914" fill="none" width="99.123" height="15.375"/>
<text transform="matrix(1 0 0 1 809.5381 905.0896)" font-family="'Blender-Bold'" font-size="12">PROJECT RECORD</text>
<rect x="44.411" y="897.914" fill="none" width="99.123" height="15.375"/>
<text transform="matrix(1 0 0 1 44.4106 905.0896)" font-family="'Blender-Bold'" font-size="12">PROJECT RECORD</text>
<rect x="44.411" y="1083.695" fill="#FFFFFF" width="375.984" height="150.5"/>
<rect x="809.243" y="1655.993" fill="none" width="227.5" height="12.666"/>
<text transform="matrix(1 0 0 1 809.2432 1660.7927)" font-size="8">BVN ARCHITECTURE PTY LTD / ABN 46 010 724 339 / ACN 010 724 339</text>



   <defs>
      <pattern id="dots" x="45" y="1085" width="13.5" height="13.5" patternUnits="userSpaceOnUse">
         <circle cx="6.7" cy="6.7" r="0.5" style="stroke:none; fill:black;" />
      </pattern>
   </defs>

<rect x="45" y="1085" height="555" width="470" style=" fill:url(#dots);"/>
<rect x="810" y="1085" height="555" width="470" style=" fill:url(#dots);"/>
</svg>
