<svg version="1.1" id="with-compliments" xmlns="http://www.w3.org/2000/svg" xmlns:xlink="http://www.w3.org/1999/xlink" x="0px" y="0px" viewBox="0 0 286.526 297.181" enable-background="new 0 0 286.526 297.181"
	 xml:space="preserve">
<rect x="2.834" y="2.834" fill="#FFFFFF" width="133.937" height="63.143"/>
<rect x="2.834" y="2.834" fill="none" stroke="#000000" stroke-width="0.225" width="133.937" height="63.143"/>
<g>
	<path d="M17.78,12.848v3.903h-1.003L17.78,12.848z M13.923,16.751c0.124-0.246,0.194-0.522,0.194-0.815
		c0-0.516-0.218-0.983-0.566-1.313c0.348-0.331,0.566-0.8,0.566-1.316c0-0.001,0-0.003,0-0.004l0.89,3.449H13.923z M11.489,16.751
		v-1.629h0.814c0.448,0.001,0.813,0.365,0.813,0.813s-0.364,0.814-0.812,0.815H11.489z M12.303,12.492
		c0.448,0.001,0.813,0.367,0.813,0.814c0,0.449-0.364,0.814-0.812,0.815h-0.815v-1.63H12.303z M16.837,12.492l-0.946,3.682
		l-0.95-3.682H16.837z M20.579,16.751h-1.798v-2.969L20.579,16.751z M20.967,15.46l-1.798-2.969h1.798V15.46z M10.488,11.491v6.261
		h11.48v-6.261H10.488z"/>
</g>
<rect x="149.751" y="2.834" fill="#FFFFFF" width="133.937" height="63.143"/>
<rect x="149.751" y="2.834" fill="none" stroke="#000000" stroke-width="0.225" width="133.937" height="63.143"/>
<path d="M165.573,16.106h77.36v34.759h-77.359L165.573,16.106z M251.101,7.937h-93.696v51.096h93.696V7.937z"/>
<rect x="2.834" y="155.08" fill="#FFFFFF" width="133.937" height="63.143"/>
<rect x="2.834" y="155.08" fill="none" stroke="#000000" stroke-width="0.225" width="133.937" height="63.143"/>
<path d="M35.407,209.833v-13.39H15.229v13.39H35.407z M40.149,214.575H10.487v-54.392h0.001h29.661h36.833v9.065h24.936v13.598
	v13.598H76.982H40.149V214.575z"/>
<rect x="149.751" y="155.08" fill="#FFFFFF" width="133.937" height="63.143"/>
<rect x="149.751" y="155.08" fill="none" stroke="#000000" stroke-width="0.225" width="133.937" height="63.143"/>
<g>
	<path d="M217.853,196.445H166.47h-9.064v-36.263h66.496v18.131H251.1v18.132h-27.198H217.853z M166.47,214.576
		c-5.007,0-9.064-4.06-9.064-9.065c0-5.007,4.058-9.065,9.064-9.065c5.008,0,9.065,4.059,9.065,9.065
		C175.536,210.516,171.478,214.576,166.47,214.576"/>
</g>
<rect x="2.834" y="78.958" fill="#FFFFFF" width="133.937" height="63.143"/>
<rect x="2.834" y="78.958" fill="none" stroke="#000000" stroke-width="0.225" width="133.937" height="63.143"/>
<g>
	<path d="M76.924,114.716c5.644,0,10.219,4.575,10.219,10.22c0,5.644-4.575,10.219-10.219,10.219s-10.219-4.575-10.219-10.219
		C66.705,119.292,71.28,114.716,76.924,114.716 M66.705,104.498V84.06h37.478l0.001,20.438H66.705z M47.966,114.716v20.438H10.488
		v-20.438V84.06h56.216v30.656H47.966z"/>
</g>
<rect x="149.751" y="78.958" fill="#FFFFFF" width="133.937" height="63.143"/>
<rect x="149.751" y="78.958" fill="none" stroke="#000000" stroke-width="0.225" width="133.937" height="63.143"/>
<g>
	<path d="M164.697,88.971v3.902h-1.003L164.697,88.971z M160.84,92.874c0.124-0.246,0.193-0.521,0.193-0.814
		c0-0.517-0.218-0.983-0.565-1.314c0.348-0.331,0.565-0.799,0.565-1.315c0-0.001,0-0.003,0-0.004l0.891,3.448H160.84z
		 M158.406,92.874v-1.629h0.814c0.448,0.001,0.813,0.366,0.813,0.814c0,0.447-0.363,0.813-0.812,0.814H158.406z M159.22,88.615
		c0.448,0.001,0.813,0.367,0.813,0.814c0,0.448-0.363,0.813-0.812,0.814h-0.815v-1.629H159.22z M163.755,88.615l-0.946,3.681
		l-0.95-3.681H163.755z M167.497,92.874h-1.799v-2.968L167.497,92.874z M167.884,91.583l-1.798-2.968h1.798V91.583z M157.405,87.614
		v6.26h11.48v-6.26H157.405z"/>
</g>
<rect x="149.751" y="231.203" fill="#FFFFFF" width="133.937" height="63.143"/>
<rect x="149.751" y="231.203" fill="none" stroke="#000000" stroke-width="0.225" width="133.937" height="63.143"/>
<path d="M192.848,268.035h-35.443v18.131h35.443V268.035z M251.101,236.305h-40.531h-12.633h-40.532v27.196h40.532h12.633h40.531
	V236.305z"/>
<rect x="3.053" y="231.64" fill="#FFFFFF" width="133.937" height="63.143"/>
<rect x="2.834" y="231.203" fill="none" stroke="#000000" stroke-width="0.225" width="133.937" height="63.143"/>
<g>
	<path d="M17.78,241.216v3.902h-1.003L17.78,241.216z M13.923,245.119c0.124-0.245,0.194-0.521,0.194-0.814
		c0-0.516-0.218-0.983-0.566-1.314c0.348-0.331,0.566-0.799,0.566-1.315c0-0.001,0-0.002,0-0.004l0.89,3.448H13.923z
		 M11.489,245.119v-1.629h0.814c0.448,0.001,0.813,0.367,0.813,0.814c0,0.449-0.364,0.813-0.812,0.814H11.489z M12.303,240.86
		c0.448,0.001,0.813,0.367,0.813,0.814c0,0.449-0.364,0.813-0.812,0.814h-0.815v-1.629H12.303z M16.837,240.86l-0.946,3.682
		l-0.95-3.682H16.837z M20.579,245.119h-1.798v-2.968L20.579,245.119z M20.967,243.828l-1.798-2.968h1.798V243.828z M10.488,239.859
		v6.26h11.48v-6.26H10.488z"/>
</g>
<rect x="10.488" y="8.281" fill="none" width="50.563" height="1.688"/>
<text transform="matrix(1 0 0 1 10.4878 9.3608)" font-size="1.8">255 PITT STREET / SYDNEY 2000 AUSTRALIA / BVN.COM.AU</text>
<rect x="157.405" y="84.419" fill="none" width="56.162" height="1.688"/>
<text transform="matrix(1 0 0 1 157.4048 85.4995)" font-size="1.8">360 ELIZABETH STREET / MELBOURNE 3000 AUSTRALIA / BVN.COM.AU</text>
<rect x="10.488" y="236.64" fill="none" width="50.563" height="1.688"/>
<text transform="matrix(1 0 0 1 10.4878 237.7202)" font-size="1.8">12 CREEK STREET / BRISBANE 4000 AUSTRALIA / BVN.COM.AU</text>
</svg>
