<svg version="1.1" id="graical-elements-inncorect-addition-of-elements" xmlns="http://www.w3.org/2000/svg" xmlns:xlink="http://www.w3.org/1999/xlink" x="0px" y="0px" viewBox="0 0 303.307 216.396" enable-background="new 0 0 303.307 216.396"
	 xml:space="preserve">
<text transform="matrix(-6.123234e-017 -1 1 -6.123234e-017 576.8164 782.8223)" font-size="7"> </text>
<rect x="2.834" y="2.961" fill="#FFFFFF" width="297.638" height="210.472"/>
<rect x="2.834" y="2.961" fill="none" stroke="#000000" stroke-width="0.25" width="297.638" height="210.472"/>
<g>
	<defs>
		<rect id="SVGID_1_" x="28.082" y="13.591" width="98.77" height="112.11"/>
	</defs>
	<clipPath id="SVGID_2_">
		<use xlink:href="#SVGID_1_"  overflow="visible"/>
	</clipPath>
	<g clip-path="url(#SVGID_2_)">
		<defs>
			<rect id="SVGID_3_" x="26.891" y="12.314" width="100.535" height="114.426"/>
		</defs>
		<clipPath id="SVGID_4_">
			<use xlink:href="#SVGID_3_"  overflow="visible"/>
		</clipPath>
		<g clip-path="url(#SVGID_4_)">
			
				<image overflow="visible" width="304" height="346" xlink:href="/assets/BEE33D76.jpg"  transform="matrix(0.3307 0 0 0.3307 26.8911 12.3145)">
			</image>
		</g>
	</g>
</g>
<g>
	<defs>
		<rect id="SVGID_5_" x="176.458" y="13.591" width="84.154" height="119.905"/>
	</defs>
	<clipPath id="SVGID_6_">
		<use xlink:href="#SVGID_5_"  overflow="visible"/>
	</clipPath>
	<g clip-path="url(#SVGID_6_)">
		<defs>
			<rect id="SVGID_7_" x="175.397" y="12.451" width="86.436" height="122.06"/>
		</defs>
		<clipPath id="SVGID_8_">
			<use xlink:href="#SVGID_7_"  overflow="visible"/>
		</clipPath>
		<g clip-path="url(#SVGID_8_)">
			
				<image overflow="visible" width="181" height="255" xlink:href="/assets/BEE33D7A.jpg"  transform="matrix(0.4775 0 0 0.4787 175.397 12.4512)">
			</image>
		</g>
	</g>
</g>
<g>
	<defs>
		<rect id="SVGID_9_" x="176.458" y="140.582" width="113.386" height="62.221"/>
	</defs>
	<clipPath id="SVGID_10_">
		<use xlink:href="#SVGID_9_"  overflow="visible"/>
	</clipPath>
	<g clip-path="url(#SVGID_10_)">
		<defs>
			<rect id="SVGID_11_" x="175.278" y="139.473" width="115.724" height="64.4"/>
		</defs>
		<clipPath id="SVGID_12_">
			<use xlink:href="#SVGID_11_"  overflow="visible"/>
		</clipPath>
		<g transform="matrix(1 0 0 1 1.525879e-005 0)" clip-path="url(#SVGID_12_)">
			
				<image overflow="visible" width="242" height="135" xlink:href="/assets/BEE33D7D.jpg"  transform="matrix(0.4782 0 0 0.477 175.2778 139.4727)">
			</image>
		</g>
	</g>
</g>
<line fill="none" stroke="#000000" stroke-width="0.25" x1="157.552" y1="2.835" x2="157.552" y2="213.559"/>
<g>
	<path d="M19.967,17.886c0,2.362,1.807,4.278,4.035,4.278c2.229,0,4.035-1.916,4.035-4.278c0-2.363-1.806-4.278-4.035-4.278
		C21.774,13.607,19.967,15.522,19.967,17.886 M19.967,26.444v-8.559v-4.278H3.828V44.99h8.07v12.837h16.14V26.444H19.967z"/>
	<path d="M201.868,155.205c0,3.555,2.882,6.438,6.437,6.438c3.556,0,6.437-2.883,6.437-6.438s-2.881-6.437-6.437-6.437
		C204.75,148.769,201.868,151.65,201.868,155.205 M195.43,148.769h-12.872v23.606h12.872V148.769z M201.868,136.965h12.873v-23.606
		h-12.873h-19.31v35.41h19.31V136.965z"/>
</g>
<polygon points="269.139,83.227 274.327,83.227 274.327,73.04 269.139,73.04 274.327,73.04 274.327,65.765 259.774,65.765 
	245.551,65.765 245.551,73.04 254.917,73.04 254.917,80.316 269.139,80.316 "/>
<rect x="72.124" y="133.288" fill="none" width="54.912" height="71.169"/>
<text transform="matrix(1 0 0 1 72.124 134.7881)"><tspan x="0" y="0" font-size="2.5">BVN buildings are about providing support and </tspan><tspan x="0" y="2.6" font-size="2.5">background for human activity, Not all-conquering </tspan><tspan x="0" y="5.2" font-size="2.5">foreground. They are about the art of place making in </tspan><tspan x="0" y="7.8" font-size="2.5">its most diverse sense from infrastructure, buildings </tspan><tspan x="0" y="10.4" font-size="2.5">and their spaces to the workplace and furniture. We </tspan><tspan x="0" y="13" font-size="2.5">regard buildings as trading places </tspan><tspan x="34.389" y="13" font-family="'Blender-Bold'" font-size="2.5">– a place for the </tspan><tspan x="0" y="15.6" font-family="'Blender-Bold'" font-size="2.5">successful interchange of ideas, learning, business </tspan><tspan x="0" y="18.2" font-family="'Blender-Bold'" font-size="2.5">and culture.</tspan><tspan x="12.237" y="18.2" font-size="2.5"> Buildings, like cities, can fail as trading </tspan><tspan x="0" y="20.8" font-size="2.5">places if they do not understand their essential </tspan><tspan x="0" y="23.4" font-size="2.5">business. They can also fail like cities if they do not </tspan><tspan x="0" y="26" font-size="2.5">understand sustainability and ecology. Healthy </tspan><tspan x="0" y="28.6" font-size="2.5">buildings are like healthy cities grounded in </tspan><tspan x="0" y="31.2" font-size="2.5">interchange and ecology. This point of view about </tspan><tspan x="0" y="33.8" font-size="2.5">architecture leads to a design process which is not </tspan><tspan x="0" y="36.4" font-size="2.5">‘our way’ or ‘your way’. It is a round table energised by </tspan><tspan x="0" y="39" font-size="2.5">challenging questions. All at the table are equal </tspan><tspan x="0" y="41.6" font-size="2.5">contributors to a successful result. This process, in </tspan><tspan x="0" y="44.2" font-size="2.5">our view, increases the quality of our surroundings, </tspan><tspan x="0" y="46.8" font-size="2.5">lifts interaction and gives new pleasure to the essential </tspan><tspan x="0" y="49.4" font-size="2.5">business of our lives.</tspan><tspan x="0" y="52" font-family="'Blender-Bold'" font-size="2.5">Jointly only, can a place be made.</tspan></text>
<rect x="7.797" y="145.425" fill="none" width="4.813" height="57.313"/>
<text transform="matrix(4.489659e-011 -1 1 4.489659e-011 8.8164 202.7354)" font-size="1.7">SUBMISSION TITLE COMES HERE WITH DATE JUNE 2014</text>
<rect x="24.175" y="133.746" fill="none" width="44.25" height="41.315"/>
<text transform="matrix(1 0 0 1 45.2656 142.7461)"><tspan x="0" y="0" font-size="15">THE </tspan><tspan x="-0.51" y="10.5" font-size="15">ART </tspan><tspan x="7.29" y="21" font-size="15">OF </tspan><tspan x="-15.449" y="31.5" font-size="15">PLACE</tspan></text>
<rect x="128.123" y="104.874" fill="none" width="2.294" height="20.813"/>
<text transform="matrix(4.489659e-011 -1 1 4.489659e-011 129.1392 125.6846)" font-family="'Blender-Bold'" font-size="1.7">THE BRAGGS, ADELAIDE</text>
<rect x="261.882" y="79.246" fill="none" width="2.294" height="54.25"/>
<text transform="matrix(4.489659e-011 -1 1 4.489659e-011 262.8989 133.4961)" font-family="'Blender-Bold'" font-size="1.7">TRANSLATIONAL RESEARCH INSTITUTIE, BRISBANE</text>
<rect x="174.486" y="160.489" fill="none" width="2.294" height="42.313"/>
<text transform="matrix(4.489659e-011 -1 1 4.489659e-011 175.5024 202.8008)" font-family="'Blender-Bold'" font-size="1.7">FLINDERS STREET STATION COMPETITION, MELBOURNE</text>
<rect x="294.809" y="145.425" fill="none" width="4.813" height="57.313"/>
<text transform="matrix(4.489659e-011 -1 1 4.489659e-011 295.8276 202.7354)" font-size="1.7">SECTION</text>
</svg>
