<?xml version="1.0" encoding="utf-8"?>
<!-- Generator: Adobe Illustrator 18.1.1, SVG Export Plug-In . SVG Version: 6.00 Build 0)  -->
<svg class="Layer_1" xmlns="http://www.w3.org/2000/svg" xmlns:xlink="http://www.w3.org/1999/xlink" x="0px" y="0px"
	 viewBox="0 0 320 65.019" enable-background="new 0 0 320 65.019" xml:space="preserve">
<rect y="0" fill="#ffffff" width="320.315" height="65.019"/>
<rect x="2.562" y="12.428" fill="#c5d9f1" width="156.66" height="4.056"/>
<rect x="162.541" y="12.427" fill="#c5d9f1" width="156.818" height="4.056"/>
<rect x="2.562" y="20.645" fill="#c5d9f1" width="156.66" height="4.056"/>
<rect x="162.541" y="20.645" fill="#c5d9f1" width="156.818" height="4.056"/>
<rect x="2.562" y="44.666" fill="#c5d9f1" width="156.66" height="4.056"/>
<rect x="162.541" y="44.666" fill="#c5d9f1" width="156.818" height="4.055"/>
<rect x="2.562" y="64.683" fill="#c5d9f1" width="156.66" height="0.336"/>
<rect x="162.541" y="64.683" fill="#c5d9f1" width="156.818" height="0.336"/>
<rect x="0.071" y="0" fill="none" width="319.394" height="65.019"/>
<text transform="matrix(1 0 0 1 2.9305 3.1562)"><tspan x="0" y="0" fill="#1d1d1b" font-family="'Arial'" font-size="2.6865">PT-0</tspan><tspan x="5.822" y="0" fill="#1d1d1b" font-family="'Arial'" font-size="2.6865" letter-spacing="6">7</tspan><tspan x="13.484" y="0" fill="#1d1d1b" font-family="'Arial'" font-size="2.6865">Interior Acrylic Paint - Low Sheen</tspan></text>
<text transform="matrix(1 0 0 1 103.2234 3.1562)"><tspan x="0" y="0" fill="#1d1d1b" font-family="'Arial'" font-size="2.6865">Painting and Wall Finishe</tspan><tspan x="30.313" y="0" fill="#1d1d1b" font-family="'Arial'" font-size="2.6865" letter-spacing="8">s</tspan><tspan x="39.929" y="0" fill="#1d1d1b" font-family="'Arial'" font-size="2.6865">05-60</tspan><tspan x="46.8" y="0" fill="#1d1d1b" font-family="'Arial'" font-size="2.6865" letter-spacing="11">0</tspan><tspan x="59.837" y="0" fill="#1d1d1b" font-family="'Arial'" font-size="2.6865">PT-1</tspan><tspan x="65.659" y="0" fill="#1d1d1b" font-family="'Arial'" font-size="2.6865" letter-spacing="6">5</tspan><tspan x="73.321" y="0" fill="#1d1d1b" font-family="'Arial'" font-size="2.6865">Line Marking Paint </tspan></text>
<text transform="matrix(1 0 0 1 263.3495 3.1562)"><tspan x="0" y="0" fill="#1d1d1b" font-family="'Arial'" font-size="2.6865">Painting and Wall Finishe</tspan><tspan x="30.313" y="0" fill="#1d1d1b" font-family="'Arial'" font-size="2.6865" letter-spacing="8">s</tspan><tspan x="39.929" y="0" fill="#1d1d1b" font-family="'Arial'" font-size="2.6865">05-600</tspan></text>
<text transform="matrix(1 0 0 1 118.6085 7.1594)" fill="#1d1d1b" font-family="'Arial'" font-size="2.6865">.</text>
<text transform="matrix(1 0 0 1 146.9492 7.1594)" fill="#1d1d1b" font-family="'Arial'" font-size="2.6865">.</text>
<text transform="matrix(1 0 0 1 163.0673 7.1594)"><tspan x="0" y="0" fill="#1d1d1b" font-family="'Arial'" font-size="2.6865">PT-1</tspan><tspan x="5.821" y="0" fill="#1d1d1b" font-family="'Arial'" font-size="2.6865" letter-spacing="6">6</tspan><tspan x="13.483" y="0" fill="#1d1d1b" font-family="'Arial'" font-size="2.6865">Write-on Wall Paint</tspan></text>
<text transform="matrix(1 0 0 1 263.3624 7.1594)"><tspan x="0" y="0" fill="#1d1d1b" font-family="'Arial'" font-size="2.6865">Painting and Wall Finishe</tspan><tspan x="30.313" y="0" fill="#1d1d1b" font-family="'Arial'" font-size="2.6865" letter-spacing="8">s</tspan><tspan x="39.929" y="0" fill="#1d1d1b" font-family="'Arial'" font-size="2.6865">05-600</tspan></text>
<g>
	<text transform="matrix(1 0 0 1 146.9492 11.162)" fill="#1d1d1b" font-family="'Arial'" font-size="2.6865">.</text>
	<text transform="matrix(1 0 0 1 118.6085 11.162)" fill="#1d1d1b" font-family="'Arial'" font-size="2.6865">.</text>
</g>
<g>
	<text transform="matrix(1 0 0 1 307.085 11.1636)" fill="#1d1d1b" font-family="'Arial'" font-size="2.6865">.</text>
	<text transform="matrix(1 0 0 1 278.7458 11.1636)" fill="#1d1d1b" font-family="'Arial'" font-size="2.6865">.</text>
</g>
<rect x="0.071" y="0" fill="none" width="319.394" height="65.019"/>
<text transform="matrix(1 0 0 1 16.4154 15.2195)" fill="#1d1d1b" font-family="'Arial'" font-weight="bolder" font-size="2.6865">Panelling / Cubicles</text>
<text transform="matrix(1 0 0 1 118.6106 15.2195)" fill="#1d1d1b" font-family="'Arial'" font-weight="bolder" font-size="2.6865">.</text>
<text transform="matrix(1 0 0 1 147.0545 15.2195)" fill="#1d1d1b" font-family="'Arial'" font-weight="bolder" font-size="2.6865">.</text>
<text transform="matrix(1 0 0 1 176.5555 15.2195)" fill="#1d1d1b" font-family="'Arial'" font-weight="bolder" font-size="2.6865">Panelling / Cubicles</text>
<text transform="matrix(1 0 0 1 278.7496 15.2195)" fill="#1d1d1b" font-family="'Arial'" font-weight="bolder" font-size="2.6865">.</text>
<text transform="matrix(1 0 0 1 307.195 15.2195)" fill="#1d1d1b" font-family="'Arial'" font-weight="bolder" font-size="2.6865">.</text>
<g>
	<text transform="matrix(1 0 0 1 146.945 19.1712)" fill="#1d1d1b" font-family="'Arial'" font-size="2.6865">.</text>
	<text transform="matrix(1 0 0 1 118.6052 19.1712)" fill="#1d1d1b" font-family="'Arial'" font-size="2.6865">.</text>
</g>
<g>
	<text transform="matrix(1 0 0 1 296.0206 19.6968)" fill="#1d1d1b" font-family="'Calibri'" font-size="2.9499">.</text>
	<text transform="matrix(1 0 0 1 263.1523 19.6968)" fill="#1d1d1b" font-family="'Calibri'" font-size="2.9499">.</text>
</g>
<rect x="0.071" y="0" fill="none" width="319.394" height="65.019"/>
<text transform="matrix(1 0 0 1 16.4159 23.7005)" fill="#1d1d1b" font-family="'Arial'" font-weight="bolder" font-size="2.6865">Paving</text>
<text transform="matrix(1 0 0 1 118.6079 23.4906)" fill="#1d1d1b" font-family="'Arial'" font-weight="bolder" font-size="2.6865">.</text>
<text transform="matrix(1 0 0 1 147.0528 23.7005)" fill="#1d1d1b" font-family="'Arial'" font-weight="bolder" font-size="2.6865">.</text>
<text transform="matrix(1 0 0 1 176.5528 23.7005)" fill="#1d1d1b" font-family="'Arial'" font-weight="bolder" font-size="2.6865">Paving</text>
<text transform="matrix(1 0 0 1 278.7448 23.4906)" fill="#1d1d1b" font-family="'Arial'" font-weight="bolder" font-size="2.6865">.</text>
<text transform="matrix(1 0 0 1 307.1892 23.7005)" fill="#1d1d1b" font-family="'Arial'" font-weight="bolder" font-size="2.6865">.</text>
<text transform="matrix(1 0 0 1 2.9299 27.3864)"><tspan x="0" y="0" fill="#1d1d1b" font-family="'Arial'" font-size="2.6865">PAV-0</tspan><tspan x="7.764" y="0" fill="#1d1d1b" font-family="'Arial'" font-size="2.6865" letter-spacing="4">1</tspan><tspan x="13.484" y="0" fill="#1d1d1b" font-family="'Arial'" font-size="2.6865">Interlocking concrete pavers, red oxide colour, shotblast finish</tspan></text>
<text transform="matrix(1 0 0 1 111.3838 27.3864)" fill="#1d1d1b" font-family="'Arial'" font-size="2.6865">Landscaping</text>
<text transform="matrix(1 0 0 1 143.1436 27.3864)"><tspan x="0" y="0" fill="#1d1d1b" font-family="'Arial'" font-size="2.6865">05-21</tspan><tspan x="6.871" y="0" fill="#1d1d1b" font-family="'Arial'" font-size="2.6865" letter-spacing="11">0</tspan><tspan x="19.909" y="0" fill="#1d1d1b" font-family="'Arial'" font-size="2.6865">PAV-0</tspan><tspan x="27.673" y="0" fill="#1d1d1b" font-family="'Arial'" font-size="2.6865" letter-spacing="4">5</tspan><tspan x="33.394" y="0" fill="#1d1d1b" font-family="'Arial'" font-size="2.6865">Exposed aggregate concrete pavers</tspan></text>
<text transform="matrix(1 0 0 1 271.5068 27.3864)" fill="#1d1d1b" font-family="'Arial'" font-size="2.6865">L</text>
<text transform="matrix(1 0 0 1 273.0224 27.3864)" fill="#1d1d1b" font-family="'Arial'" font-size="2.6865">andscaping</text>
<text transform="matrix(1 0 0 1 303.289 27.3864)" fill="#1d1d1b" font-family="'Arial'" font-size="2.6865">05-210</text>
<text transform="matrix(1 0 0 1 2.9299 31.389)"><tspan x="0" y="0" fill="#1d1d1b" font-family="'Arial'" font-size="2.6865">PAV-0</tspan><tspan x="7.764" y="0" fill="#1d1d1b" font-family="'Arial'" font-size="2.6865" letter-spacing="4">2</tspan><tspan x="13.484" y="0" fill="#1d1d1b" font-family="'Arial'" font-size="2.6865">Interlocking concrete pavers, red oxide colour, honed</tspan></text>
<text transform="matrix(1 0 0 1 111.3838 31.389)" fill="#1d1d1b" font-family="'Arial'" font-size="2.6865">Landscaping</text>
<text transform="matrix(1 0 0 1 143.1436 31.389)"><tspan x="0" y="0" fill="#1d1d1b" font-family="'Arial'" font-size="2.6865">05-21</tspan><tspan x="6.871" y="0" fill="#1d1d1b" font-family="'Arial'" font-size="2.6865" letter-spacing="11">0</tspan><tspan x="19.909" y="0" fill="#1d1d1b" font-family="'Arial'" font-size="2.6865">PAV-0</tspan><tspan x="27.673" y="0" fill="#1d1d1b" font-family="'Arial'" font-size="2.6865" letter-spacing="4">6</tspan><tspan x="33.394" y="0" fill="#1d1d1b" font-family="'Arial'" font-size="2.6865">Brushed concrete</tspan></text>
<text transform="matrix(1 0 0 1 271.5095 31.389)" fill="#1d1d1b" font-family="'Arial'" font-size="2.6865">Landscaping</text>
<text transform="matrix(1 0 0 1 303.2702 31.389)" fill="#1d1d1b" font-family="'Arial'" font-size="2.6865">05-210</text>
<text transform="matrix(1 0 0 1 2.9299 35.3916)"><tspan x="0" y="0" fill="#1d1d1b" font-family="'Arial'" font-size="2.6865">PAV-0</tspan><tspan x="7.764" y="0" fill="#1d1d1b" font-family="'Arial'" font-size="2.6865" letter-spacing="4">3</tspan><tspan x="13.484" y="0" fill="#1d1d1b" font-family="'Arial'" font-size="2.6865">Interlocking concrete pavers, charcoal colour, shotblast finish</tspan></text>
<text transform="matrix(1 0 0 1 111.3838 35.3916)" fill="#1d1d1b" font-family="'Arial'" font-size="2.6865">Landscaping</text>
<text transform="matrix(1 0 0 1 143.1436 35.3916)"><tspan x="0" y="0" fill="#1d1d1b" font-family="'Arial'" font-size="2.6865">05-21</tspan><tspan x="6.871" y="0" fill="#1d1d1b" font-family="'Arial'" font-size="2.6865" letter-spacing="11">0</tspan><tspan x="19.909" y="0" fill="#1d1d1b" font-family="'Arial'" font-size="2.6865">PAV-0</tspan><tspan x="27.673" y="0" fill="#1d1d1b" font-family="'Arial'" font-size="2.6865" letter-spacing="4">7</tspan><tspan x="33.394" y="0" fill="#1d1d1b" font-family="'Arial'" font-size="2.6865">Pigmented concrete</tspan></text>
<text transform="matrix(1 0 0 1 271.5095 35.3916)" fill="#1d1d1b" font-family="'Arial'" font-size="2.6865">Landscaping</text>
<text transform="matrix(1 0 0 1 303.2702 35.3916)" fill="#1d1d1b" font-family="'Arial'" font-size="2.6865">05-210</text>
<text transform="matrix(1 0 0 1 2.9299 39.3949)"><tspan x="0" y="0" fill="#1d1d1b" font-family="'Arial'" font-size="2.6865">PAV-0</tspan><tspan x="7.764" y="0" fill="#1d1d1b" font-family="'Arial'" font-size="2.6865" letter-spacing="4">4</tspan><tspan x="13.484" y="0" fill="#1d1d1b" font-family="'Arial'" font-size="2.6865">Interlocking concrete pavers, charcoal colour, honed</tspan></text>
<text transform="matrix(1 0 0 1 111.3807 39.3949)" fill="#1d1d1b" font-family="'Arial'" font-size="2.6865">Landscaping</text>
<text transform="matrix(1 0 0 1 143.1404 39.3949)" fill="#1d1d1b" font-family="'Arial'" font-size="2.6865">05-210</text>
<g>
	<text transform="matrix(1 0 0 1 146.945 43.3981)" fill="#1d1d1b" font-family="'Arial'" font-size="2.6865">.</text>
	<text transform="matrix(1 0 0 1 118.6052 43.3981)" fill="#1d1d1b" font-family="'Arial'" font-size="2.6865">.</text>
</g>
<text transform="matrix(1 0 0 1 16.4133 47.4544)" fill="#1d1d1b" font-family="'Arial'" font-weight="bolder" font-size="2.6865">Rainwater Goods / Systems</text>
<text transform="matrix(1 0 0 1 118.6052 47.5076)" fill="#1d1d1b" font-family="'Arial'" font-weight="bolder" font-size="2.6865">.</text>
<text transform="matrix(1 0 0 1 147.0496 47.7175)" fill="#1d1d1b" font-family="'Arial'" font-weight="bolder" font-size="2.6865">.</text>
<text transform="matrix(1 0 0 1 176.5479 47.4544)" fill="#1d1d1b" font-family="'Arial'" font-weight="bolder" font-size="2.6865">Rainwater Goods / Systems</text>
<text transform="matrix(1 0 0 1 278.7389 47.5076)" fill="#1d1d1b" font-family="'Arial'" font-weight="bolder" font-size="2.6865">.</text>
<text transform="matrix(1 0 0 1 307.1843 47.7175)" fill="#1d1d1b" font-family="'Arial'" font-weight="bolder" font-size="2.6865">.</text>
<text transform="matrix(1 0 0 1 2.9245 51.4038)"><tspan x="0" y="0" fill="#1d1d1b" font-family="'Arial'" font-size="2.6865">RWS-0</tspan><tspan x="8.656" y="0" fill="#1d1d1b" font-family="'Arial'" font-size="2.6865" letter-spacing="3">1</tspan><tspan x="13.484" y="0" fill="#1d1d1b" font-family="'Arial'" font-size="2.6865">Downpipes</tspan></text>
<text transform="matrix(1 0 0 1 110.7525 51.457)" fill="#1d1d1b" font-family="'Arial'" font-size="2.6865">Metal Roofing</text>
<text transform="matrix(1 0 0 1 143.2537 51.7201)" fill="#1d1d1b" font-family="'Arial'" font-size="2.6865">04-160</text>
<text transform="matrix(1 0 0 1 163.0613 51.4038)"><tspan x="0" y="0" fill="#1d1d1b" font-family="'Arial'" font-size="2.6865">RWS-0</tspan><tspan x="8.656" y="0" fill="#1d1d1b" font-family="'Arial'" font-size="2.6865" letter-spacing="3">1</tspan><tspan x="13.484" y="0" fill="#1d1d1b" font-family="'Arial'" font-size="2.6865">Downpipes</tspan></text>
<text transform="matrix(1 0 0 1 270.8893 51.457)" fill="#1d1d1b" font-family="'Arial'" font-size="2.6865">Metal Roofing</text>
<text transform="matrix(1 0 0 1 303.3905 51.7201)" fill="#1d1d1b" font-family="'Arial'" font-size="2.6865">04-160</text>
<text transform="matrix(1 0 0 1 2.9245 55.4087)"><tspan x="0" y="0" fill="#1d1d1b" font-family="'Arial'" font-size="2.6865">RWS-0</tspan><tspan x="8.656" y="0" fill="#1d1d1b" font-family="'Arial'" font-size="2.6865" letter-spacing="3">2</tspan><tspan x="13.484" y="0" fill="#1d1d1b" font-family="'Arial'" font-size="2.6865">Eaves Gutters</tspan></text>
<text transform="matrix(1 0 0 1 110.7525 55.4624)" fill="#1d1d1b" font-family="'Arial'" font-size="2.6865">Metal Roofing</text>
<text transform="matrix(1 0 0 1 143.2537 55.7255)" fill="#1d1d1b" font-family="'Arial'" font-size="2.6865">04-203</text>
<text transform="matrix(1 0 0 1 163.0613 55.4087)"><tspan x="0" y="0" fill="#1d1d1b" font-family="'Arial'" font-size="2.6865">RWS-0</tspan><tspan x="8.656" y="0" fill="#1d1d1b" font-family="'Arial'" font-size="2.6865" letter-spacing="3">2</tspan><tspan x="13.484" y="0" fill="#1d1d1b" font-family="'Arial'" font-size="2.6865">Eaves Gutters</tspan></text>
<text transform="matrix(1 0 0 1 270.8893 55.4624)" fill="#1d1d1b" font-family="'Arial'" font-size="2.6865">Metal Roofing</text>
<text transform="matrix(1 0 0 1 303.3905 55.7255)" fill="#1d1d1b" font-family="'Arial'" font-size="2.6865">04-203</text>
<text transform="matrix(1 0 0 1 2.9245 59.4114)"><tspan x="0" y="0" fill="#1d1d1b" font-family="'Arial'" font-size="2.6865">RWS-0</tspan><tspan x="8.656" y="0" fill="#1d1d1b" font-family="'Arial'" font-size="2.6865" letter-spacing="3">3</tspan><tspan x="13.484" y="0" fill="#1d1d1b" font-family="'Arial'" font-size="2.6865">Box Gutters</tspan></text>
<text transform="matrix(1 0 0 1 110.7525 59.4656)" fill="#1d1d1b" font-family="'Arial'" font-size="2.6865">Metal Roofing</text>
<text transform="matrix(1 0 0 1 143.2537 59.7292)" fill="#1d1d1b" font-family="'Arial'" font-size="2.6865">04-203</text>
<text transform="matrix(1 0 0 1 163.0613 59.4114)"><tspan x="0" y="0" fill="#1d1d1b" font-family="'Arial'" font-size="2.6865">RWS-0</tspan><tspan x="8.656" y="0" fill="#1d1d1b" font-family="'Arial'" font-size="2.6865" letter-spacing="3">3</tspan><tspan x="13.484" y="0" fill="#1d1d1b" font-family="'Arial'" font-size="2.6865">Box Gutters</tspan></text>
<text transform="matrix(1 0 0 1 270.8893 59.4656)" fill="#1d1d1b" font-family="'Arial'" font-size="2.6865">Metal Roofing</text>
<text transform="matrix(1 0 0 1 303.3905 59.7292)" fill="#1d1d1b" font-family="'Arial'" font-size="2.6865">04-203</text>
<text transform="matrix(1 0 0 1 118.6079 63.4704)" fill="#1d1d1b" font-family="'Arial'" font-size="2.6865">.</text>
<text transform="matrix(1 0 0 1 147.0528 63.734)" fill="#1d1d1b" font-family="'Arial'" font-size="2.6865">.</text>
<text transform="matrix(1 0 0 1 278.7448 63.4704)" fill="#1d1d1b" font-family="'Arial'" font-size="2.6865">.</text>
<text transform="matrix(1 0 0 1 307.1892 63.734)" fill="#1d1d1b" font-family="'Arial'" font-size="2.6865">.</text>
<rect x="0.071" y="0" fill="none" width="319.394" height="65.019"/>
<rect x="2.562" y="0.312" fill="#1d1d1b" width="156.766" height="0.263"/>
<rect x="2.562" y="4.315" fill="#1d1d1b" width="156.766" height="0.264"/>
<rect x="2.562" y="8.318" fill="#1d1d1b" width="156.766" height="0.264"/>
<rect x="2.562" y="12.322" fill="#1d1d1b" width="156.766" height="0.264"/>
<rect x="2.562" y="16.326" fill="#1d1d1b" width="156.766" height="0.263"/>
<rect x="2.562" y="20.539" fill="#1d1d1b" width="156.766" height="0.264"/>
<rect x="2.562" y="24.543" fill="#1d1d1b" width="156.766" height="0.264"/>
<rect x="2.562" y="28.546" fill="#1d1d1b" width="156.766" height="0.264"/>
<rect x="2.562" y="32.55" fill="#1d1d1b" width="156.766" height="0.263"/>
<rect x="2.562" y="36.553" fill="#1d1d1b" width="156.766" height="0.264"/>
<rect x="2.562" y="40.556" fill="#1d1d1b" width="156.766" height="0.264"/>
<rect x="2.562" y="44.56" fill="#1d1d1b" width="156.766" height="0.263"/>
<rect x="2.562" y="48.564" fill="#1d1d1b" width="156.766" height="0.263"/>
<rect x="2.562" y="52.567" fill="#1d1d1b" width="156.766" height="0.264"/>
<rect x="2.562" y="56.57" fill="#1d1d1b" width="156.766" height="0.264"/>
<rect x="2.562" y="60.573" fill="#1d1d1b" width="156.766" height="0.264"/>
<rect x="2.562" y="64.577" fill="#1d1d1b" width="156.766" height="0.263"/>
<rect x="2.299" y="0" fill="#1d1d1b" width="0.263" height="65.019"/>
<rect x="15.784" y="0" fill="#1d1d1b" width="0.264" height="65.019"/>
<rect x="102.384" y="0" fill="#1d1d1b" width="0.264" height="65.019"/>
<rect x="135.254" y="0" fill="#1d1d1b" width="0.264" height="65.019"/>
<rect x="159.065" y="0" fill="#1d1d1b" width="0.263" height="65.019"/>
<rect x="162.436" y="0" fill="#1d1d1b" width="0.263" height="65.019"/>
<rect x="175.921" y="0" fill="#1d1d1b" width="0.264" height="65.019"/>
<rect x="262.521" y="0" fill="#1d1d1b" width="0.263" height="65.019"/>
<rect x="295.391" y="0" fill="#1d1d1b" width="0.264" height="65.019"/>
<rect x="319.201" y="0" fill="#1d1d1b" width="0.264" height="65.019"/>
<rect x="162.699" y="0.312" fill="#1d1d1b" width="156.766" height="0.263"/>
<rect x="162.699" y="4.315" fill="#1d1d1b" width="156.766" height="0.264"/>
<rect x="162.699" y="8.318" fill="#1d1d1b" width="156.766" height="0.264"/>
<rect x="162.699" y="12.322" fill="#1d1d1b" width="156.766" height="0.264"/>
<rect x="162.699" y="16.326" fill="#1d1d1b" width="156.766" height="0.263"/>
<rect x="162.699" y="20.539" fill="#1d1d1b" width="156.766" height="0.264"/>
<rect x="162.699" y="24.543" fill="#1d1d1b" width="156.766" height="0.264"/>
<rect x="162.699" y="28.546" fill="#1d1d1b" width="156.766" height="0.264"/>
<rect x="162.699" y="32.55" fill="#1d1d1b" width="156.766" height="0.263"/>
<rect x="162.699" y="36.553" fill="#1d1d1b" width="156.766" height="0.264"/>
<rect x="162.699" y="40.556" fill="#1d1d1b" width="156.766" height="0.264"/>
<rect x="162.699" y="44.56" fill="#1d1d1b" width="156.766" height="0.263"/>
<rect x="162.699" y="48.564" fill="#1d1d1b" width="156.766" height="0.263"/>
<rect x="162.699" y="52.567" fill="#1d1d1b" width="156.766" height="0.264"/>
<rect x="162.699" y="56.57" fill="#1d1d1b" width="156.766" height="0.264"/>
<rect x="162.699" y="60.573" fill="#1d1d1b" width="156.766" height="0.264"/>
<rect x="162.699" y="64.577" fill="#1d1d1b" width="156.766" height="0.263"/>
</svg>
