<?xml version="1.0" encoding="utf-8"?>
<!-- Generator: Adobe Illustrator 18.1.1, SVG Export Plug-In . SVG Version: 6.00 Build 0)  -->
<svg id="Layer_1" xmlns="http://www.w3.org/2000/svg" xmlns:xlink="http://www.w3.org/1999/xlink" x="0px" y="0px"
	 viewBox="0 0 320 65.019" enable-background="new 0 0 320 65.019" xml:space="preserve">
<rect y="0" fill="#ffffff" width="320.315" height="65.019"/>
<rect x="2.561" y="12.179" fill="#c5d9f1" width="156.66" height="4.056"/>
<rect x="162.54" y="12.179" fill="#c5d9f1" width="156.819" height="4.056"/>
<rect x="2.561" y="48.21" fill="#c5d9f1" width="156.66" height="4.056"/>
<rect x="162.54" y="48.21" fill="#c5d9f1" width="156.819" height="4.056"/>
<text transform="matrix(1 0 0 1 2.9301 2.9074)"><tspan x="0" y="0" font-family="'Arial'" font-size="2.6865">INS-0</tspan><tspan x="6.867" y="0" font-family="'Arial'" font-size="2.6865" letter-spacing="5">6</tspan><tspan x="13.484" y="0" font-family="'Arial'" font-size="2.6865">Thermal Insulation - Under Concrete - 35mm (R1.66) thick</tspan></text>
<text transform="matrix(1 0 0 1 113.3852 2.9074)" font-family="'Arial'" font-size="2.6865">Partitions</text>
<rect x="0.071" y="0" fill="none" width="319.394" height="65.019"/>
<text transform="matrix(1 0 0 1 150.5295 2.855)" font-family="'MicrosoftSansSerif'" font-size="2.4231"> </text>
<text transform="matrix(1 0 0 1 142.2596 2.9084)"><tspan x="0" y="0" font-family="'Arial'" font-size="2.6865">05</tspan><tspan x="2.951" y="0" font-family="'Arial'" font-size="2.6865">-</tspan><tspan x="3.845" y="0" font-family="'Arial'" font-size="2.6865">10</tspan><tspan x="6.796" y="0" font-family="'Arial'" font-size="2.6865" letter-spacing="12">0</tspan><tspan x="20.806" y="0" font-family="'Arial'" font-size="2.6865">INS-1</tspan><tspan x="27.673" y="0" font-family="'Arial'" font-size="2.6865" letter-spacing="5">3</tspan><tspan x="34.291" y="0" font-family="'Arial'" font-size="2.6865">Acoustic Insulation (Walls) -100mm thick</tspan></text>
<text transform="matrix(1 0 0 1 273.522 2.9084)" font-family="'Arial'" font-size="2.6865">Partitions</text>
<text transform="matrix(1 0 0 1 303.3876 2.9084)" font-family="'Arial'" font-size="2.6865">05-100</text>
<rect x="0.071" y="0" fill="none" width="319.394" height="65.019"/>
<text transform="matrix(1 0 0 1 2.9301 6.9112)"><tspan x="0" y="0" font-family="'Arial'" font-size="2.6865">INS-0</tspan><tspan x="6.867" y="0" font-family="'Arial'" font-size="2.6865" letter-spacing="5">7</tspan><tspan x="13.484" y="0" font-family="'Arial'" font-size="2.6865">Thermal insulation (ceilings) - Not Used</tspan></text>
<text transform="matrix(1 0 0 1 107.1179 6.9112)"><tspan x="0" y="0" font-family="'Arial'" font-size="2.6865">Suspended Ceiling</tspan><tspan x="22.553" y="0" font-family="'Arial'" font-size="2.6865" letter-spacing="12">s</tspan><tspan x="36.136" y="0" font-family="'Arial'" font-size="2.6865">05-050</tspan></text>
<g>
	<text transform="matrix(1 0 0 1 147.0536 10.9143)" font-family="'Arial'" font-size="2.6865">.</text>
	<text transform="matrix(1 0 0 1 118.6077 10.9143)" font-family="'Arial'" font-size="2.6865">.</text>
</g>
<g>
	<text transform="matrix(1 0 0 1 307.191 10.9149)" font-family="'Arial'" font-size="2.6865">.</text>
	<text transform="matrix(1 0 0 1 278.745 10.9149)" font-family="'Arial'" font-size="2.6865">.</text>
</g>
<rect x="0.071" y="0" fill="none" width="319.394" height="65.019"/>
<text transform="matrix(1 0 0 1 16.4157 14.9707)" font-family="'Arial'" font-weight="bolder" font-size="2.6865">Partitions</text>
<text transform="matrix(1 0 0 1 118.6071 14.9707)" font-family="'Arial'" font-weight="bolder" font-size="2.6865">.</text>
<text transform="matrix(1 0 0 1 147.0515 14.9707)" font-family="'Arial'" font-weight="bolder" font-size="2.6865">.</text>
<text transform="matrix(1 0 0 1 176.552 14.9707)" font-family="'Arial'" font-weight="bolder" font-size="2.6865">Partitions </text>
<g>
	<text transform="matrix(1 0 0 1 307.191 14.9707)" font-family="'Arial'" font-weight="bolder" font-size="2.6865">.</text>
	<text transform="matrix(1 0 0 1 278.745 14.9707)" font-family="'Arial'" font-weight="bolder" font-size="2.6865">.</text>
</g>
<rect x="0.071" y="0" fill="none" width="319.394" height="65.019"/>
<text transform="matrix(1 0 0 1 2.9296 18.9218)"><tspan x="0" y="0" font-family="'Arial'" font-size="2.6865">A</tspan><tspan x="1.792" y="0" font-family="'Arial'" font-size="2.6865" letter-spacing="10">1</tspan><tspan x="13.484" y="0" font-family="'Arial'" font-size="2.6865">Internal Acoustic Rated Partition -  Nominal width 100mm &amp; 40 Rw</tspan></text>
<text transform="matrix(1 0 0 1 113.3852 18.9218)" font-family="'Arial'" font-size="2.6865">Partitions</text>
<text transform="matrix(1 0 0 1 143.2513 18.9218)"><tspan x="0" y="0" font-family="'Arial'" font-size="2.6865">05-10</tspan><tspan x="6.871" y="0" font-family="'Arial'" font-size="2.6865" letter-spacing="11">0</tspan><tspan x="19.804" y="0" font-family="'Arial'" font-size="2.6865">F</tspan><tspan x="21.445" y="0" font-family="'Arial'" font-size="2.6865" letter-spacing="10">1</tspan><tspan x="33.288" y="0" font-family="'Arial'" font-size="2.6865">Internal Fire &amp; Acoustic Rated Partition - </tspan></text>
<text transform="matrix(1 0 0 1 225.2265 18.9218)"><tspan x="0" y="0" font-family="'Arial'" font-size="2.6865"> Nominal width 130mm , FRL: </tspan><tspan x="36.13" y="0" font-family="'Arial'" font-size="2.6865" letter-spacing="11">-</tspan><tspan x="48.3" y="0" font-family="'Arial'" font-size="2.6865">Partitions</tspan></text>
<text transform="matrix(1 0 0 1 303.2888 18.9218)" font-family="'Arial'" font-size="2.6865">05-100</text>
<text transform="matrix(1 0 0 1 2.9296 22.9245)"><tspan x="0" y="0" font-family="'Arial'" font-size="2.6865">A</tspan><tspan x="1.792" y="0" font-family="'Arial'" font-size="2.6865" letter-spacing="10">2</tspan><tspan x="13.484" y="0" font-family="'Arial'" font-size="2.6865">Internal Acoustic Rated Partition -  Nominal width 115mm &amp; 45 Rw</tspan></text>
<text transform="matrix(1 0 0 1 113.4899 22.9245)" font-family="'Arial'" font-size="2.6865">Partitions</text>
<text transform="matrix(1 0 0 1 143.2513 22.9245)"><tspan x="0" y="0" font-family="'Arial'" font-size="2.6865">05-10</tspan><tspan x="6.871" y="0" font-family="'Arial'" font-size="2.6865" letter-spacing="11">0</tspan><tspan x="19.804" y="0" font-family="'Arial'" font-size="2.6865">F</tspan><tspan x="21.445" y="0" font-family="'Arial'" font-size="2.6865" letter-spacing="10">2</tspan><tspan x="33.288" y="0" font-family="'Arial'" font-size="2.6865">Internal Fire &amp; Acoustic Rated Partition - </tspan></text>
<text transform="matrix(1 0 0 1 225.2265 22.9245)"><tspan x="0" y="0" font-family="'Arial'" font-size="2.6865"> Nominal width 130mm , FRL: </tspan><tspan x="36.13" y="0" font-family="'Arial'" font-size="2.6865" letter-spacing="11">-</tspan><tspan x="48.404" y="0" font-family="'Arial'" font-size="2.6865">Partitions</tspan></text>
<text transform="matrix(1 0 0 1 303.3934 22.9245)" font-family="'Arial'" font-size="2.6865">05-100</text>
<text transform="matrix(1 0 0 1 2.9296 26.9277)"><tspan x="0" y="0" font-family="'Arial'" font-size="2.6865">A</tspan><tspan x="1.792" y="0" font-family="'Arial'" font-size="2.6865" letter-spacing="10">3</tspan><tspan x="13.484" y="0" font-family="'Arial'" font-size="2.6865">Internal Acoustic Rated Partition -  Nominal width 130mm &amp; 51 Rw</tspan></text>
<text transform="matrix(1 0 0 1 113.3852 26.9277)" font-family="'Arial'" font-size="2.6865">Partitions</text>
<text transform="matrix(1 0 0 1 143.1465 26.9277)"><tspan x="0" y="0" font-family="'Arial'" font-size="2.6865">05-10</tspan><tspan x="6.871" y="0" font-family="'Arial'" font-size="2.6865" letter-spacing="11">0</tspan><tspan x="19.909" y="0" font-family="'Arial'" font-size="2.6865">F</tspan><tspan x="21.55" y="0" font-family="'Arial'" font-size="2.6865" letter-spacing="10">3</tspan><tspan x="33.393" y="0" font-family="'Arial'" font-size="2.6865">Internal Fire &amp; Acoustic Rated Partition - </tspan></text>
<text transform="matrix(1 0 0 1 225.2265 26.9277)"><tspan x="0" y="0" font-family="'Arial'" font-size="2.6865"> Nominal width 130mm , FRL: </tspan><tspan x="36.13" y="0" font-family="'Arial'" font-size="2.6865" letter-spacing="11">-</tspan><tspan x="48.3" y="0" font-family="'Arial'" font-size="2.6865">Partitions</tspan></text>
<text transform="matrix(1 0 0 1 303.2888 26.9277)" font-family="'Arial'" font-size="2.6865">05-100</text>
<text transform="matrix(1 0 0 1 2.9296 30.9298)"><tspan x="0" y="0" font-family="'Arial'" font-size="2.6865">A</tspan><tspan x="1.792" y="0" font-family="'Arial'" font-size="2.6865" letter-spacing="10">4</tspan><tspan x="13.484" y="0" font-family="'Arial'" font-size="2.6865">Internal Acoustic Rated Partition -  Nominal width 250mm &amp; 60+ Rw</tspan></text>
<text transform="matrix(1 0 0 1 113.3852 30.9298)" font-family="'Arial'" font-size="2.6865">Partitions</text>
<text transform="matrix(1 0 0 1 143.1465 30.9298)"><tspan x="0" y="0" font-family="'Arial'" font-size="2.6865">05-10</tspan><tspan x="6.871" y="0" font-family="'Arial'" font-size="2.6865" letter-spacing="11">0</tspan><tspan x="19.909" y="0" font-family="'Arial'" font-size="2.6865">F</tspan><tspan x="21.55" y="0" font-family="'Arial'" font-size="2.6865" letter-spacing="10">4</tspan><tspan x="33.393" y="0" font-family="'Arial'" font-size="2.6865">Internal Fire &amp; Acoustic Rated Partition -</tspan></text>
<text transform="matrix(1 0 0 1 224.4802 30.9298)"><tspan x="0" y="0" font-family="'Arial'" font-size="2.6865">  Nominal width 155mm , FRL:</tspan><tspan x="36.13" y="0" font-family="'Arial'" font-size="2.6865" letter-spacing="12"> </tspan><tspan x="49.153" y="0" font-family="'Arial'" font-size="2.6865">Partitions</tspan></text>
<text transform="matrix(1 0 0 1 303.3934 30.9298)" font-family="'Arial'" font-size="2.6865">05-100</text>
<text transform="matrix(1 0 0 1 2.9296 34.9335)"><tspan x="0" y="0" font-family="'Arial'" font-size="2.6865">A</tspan><tspan x="1.792" y="0" font-family="'Arial'" font-size="2.6865" letter-spacing="10">5</tspan><tspan x="13.484" y="0" font-family="'Arial'" font-size="2.6865">Internal Acoustic Rated Partition - Nominal width 115mm &amp; 40 Rw</tspan></text>
<text transform="matrix(1 0 0 1 113.3852 34.9335)" font-family="'Arial'" font-size="2.6865">Partitions</text>
<text transform="matrix(1 0 0 1 143.1465 34.9335)"><tspan x="0" y="0" font-family="'Arial'" font-size="2.6865">05-10</tspan><tspan x="6.871" y="0" font-family="'Arial'" font-size="2.6865" letter-spacing="11">0</tspan><tspan x="19.909" y="0" font-family="'Arial'" font-size="2.6865">F</tspan><tspan x="21.55" y="0" font-family="'Arial'" font-size="2.6865" letter-spacing="10">5</tspan><tspan x="33.393" y="0" font-family="'Arial'" font-size="2.6865">Internal Fire &amp; Acoustic Rated Partition -  </tspan></text>
<text transform="matrix(1 0 0 1 225.9734 34.9335)"><tspan x="0" y="0" font-family="'Arial'" font-size="2.6865">Nominal width 310mm , FRL:</tspan><tspan x="34.637" y="0" font-family="'Arial'" font-size="2.6865" letter-spacing="12"> </tspan><tspan x="47.553" y="0" font-family="'Arial'" font-size="2.6865">Partitions</tspan></text>
<text transform="matrix(1 0 0 1 303.2888 34.9335)" font-family="'Arial'" font-size="2.6865">05-100</text>
<text transform="matrix(1 0 0 1 2.9323 38.9362)"><tspan x="0" y="0" font-family="'Arial'" font-size="2.6865">A</tspan><tspan x="1.792" y="0" font-family="'Arial'" font-size="2.6865" letter-spacing="10">6</tspan><tspan x="13.484" y="0" font-family="'Arial'" font-size="2.6865">Internal Acoustic Rated Partition - Nominal width 130mm &amp; 46 Rw</tspan></text>
<text transform="matrix(1 0 0 1 113.3874 38.9362)" font-family="'Arial'" font-size="2.6865">Partitions</text>
<text transform="matrix(1 0 0 1 143.1487 38.9362)"><tspan x="0" y="0" font-family="'Arial'" font-size="2.6865">05-10</tspan><tspan x="6.871" y="0" font-family="'Arial'" font-size="2.6865" letter-spacing="11">0</tspan><tspan x="19.909" y="0" font-family="'Arial'" font-size="2.6865">F</tspan><tspan x="21.55" y="0" font-family="'Arial'" font-size="2.6865" letter-spacing="10">6</tspan><tspan x="33.393" y="0" font-family="'Arial'" font-size="2.6865">Internal Fire &amp; Acoustic Rated Partition -No</tspan></text>
<text transform="matrix(1 0 0 1 227.9186 38.9362)"><tspan x="0" y="0" font-family="'Arial'" font-size="2.6865">minal width 125mm , FRL: </tspan><tspan x="31.949" y="0" font-family="'Arial'" font-size="2.6865" letter-spacing="12">-</tspan><tspan x="45.612" y="0" font-family="'Arial'" font-size="2.6865">Partitions</tspan></text>
<text transform="matrix(1 0 0 1 303.2909 38.9362)" font-family="'Arial'" font-size="2.6865">05-100</text>
<text transform="matrix(1 0 0 1 2.9323 42.9393)"><tspan x="0" y="0" font-family="'Arial'" font-size="2.6865">A</tspan><tspan x="1.792" y="0" font-family="'Arial'" font-size="2.6865" letter-spacing="10">7</tspan><tspan x="13.484" y="0" font-family="'Arial'" font-size="2.6865">Internal Acoustic Rated Partition - Nominal width 145mm &amp; 51 Rw</tspan></text>
<text transform="matrix(1 0 0 1 113.3874 42.9393)" font-family="'Arial'" font-size="2.6865">Partitions</text>
<text transform="matrix(1 0 0 1 143.1487 42.9393)"><tspan x="0" y="0" font-family="'Arial'" font-size="2.6865">05-10</tspan><tspan x="6.871" y="0" font-family="'Arial'" font-size="2.6865" letter-spacing="11">0</tspan><tspan x="19.909" y="0" font-family="'Arial'" font-size="2.6865">F</tspan><tspan x="21.55" y="0" font-family="'Arial'" font-size="2.6865" letter-spacing="10">7</tspan><tspan x="33.393" y="0" font-family="'Arial'" font-size="2.6865">Internal Fire Rated Partition - Nominal widt</tspan></text>
<text transform="matrix(1 0 0 1 227.1696 42.9393)"><tspan x="0" y="0" font-family="'Arial'" font-size="2.6865">h 125mm , FRL: 120/120/120</tspan><tspan x="34.945" y="0" font-family="'Arial'" font-size="2.6865" letter-spacing="10"> </tspan><tspan x="46.359" y="0" font-family="'Arial'" font-size="2.6865">Partitions</tspan></text>
<text transform="matrix(1 0 0 1 303.2909 42.9393)" font-family="'Arial'" font-size="2.6865">05-100</text>
<g>
	<text transform="matrix(1 0 0 1 146.95 46.942)" font-family="'Arial'" font-size="2.6865">.</text>
	<text transform="matrix(1 0 0 1 118.6104 46.942)" font-family="'Arial'" font-size="2.6865">.</text>
</g>
<g>
	<text transform="matrix(1 0 0 1 307.0837 46.9463)" font-family="'Arial'" font-size="2.6865">.</text>
	<text transform="matrix(1 0 0 1 278.744 46.9463)" font-family="'Arial'" font-size="2.6865">.</text>
</g>
<rect x="0.071" y="0" fill="none" width="319.394" height="65.019"/>
<text transform="matrix(1 0 0 1 16.4151 51.0016)" font-family="'Arial'" font-weight="bolder" font-size="2.6865">Internal Windows/ Partitions</text>
<text transform="matrix(1 0 0 1 118.612 51.0016)" font-family="'Arial'" font-weight="bolder" font-size="2.6865">.</text>
<text transform="matrix(1 0 0 1 146.9517 51.0016)" font-family="'Arial'" font-weight="bolder" font-size="2.6865">.</text>
<text transform="matrix(1 0 0 1 176.5573 51.0016)" font-family="'Arial'" font-weight="bolder" font-size="2.6865">Internal Windows/ Partitions</text>
<text transform="matrix(1 0 0 1 278.7547 51.0016)" font-family="'Arial'" font-weight="bolder" font-size="2.6865">.</text>
<text transform="matrix(1 0 0 1 307.0944 51.0016)" font-family="'Arial'" font-weight="bolder" font-size="2.6865">.</text>
<text transform="matrix(1 0 0 1 2.9317 54.9538)"><tspan x="0" y="0" font-family="'Arial'" font-size="2.6865">G</tspan><tspan x="2.09" y="0" font-family="'Arial'" font-size="2.6865" letter-spacing="9">1</tspan><tspan x="13.483" y="0" font-family="'Arial'" font-size="2.6865">Internal Glazed Partition - 2700mm high</tspan></text>
<text transform="matrix(1 0 0 1 104.065 54.9538)"><tspan x="0" y="0" font-family="'Arial'" font-size="2.6865">Internal Glazed Partition</tspan><tspan x="28.821" y="0" font-family="'Arial'" font-size="2.6865" letter-spacing="8">s</tspan><tspan x="39.086" y="0" font-family="'Arial'" font-size="2.6865">04-50</tspan><tspan x="45.957" y="0" font-family="'Arial'" font-size="2.6865" letter-spacing="11">0</tspan><tspan x="58.995" y="0" font-family="'Arial'" font-size="2.6865">G</tspan><tspan x="61.084" y="0" font-family="'Arial'" font-size="2.6865" letter-spacing="9">7</tspan><tspan x="72.478" y="0" font-family="'Arial'" font-size="2.6865">Internal Glazed Partition - 2700mm high</tspan></text>
<text transform="matrix(1 0 0 1 264.191 54.9538)" font-family="'Arial'" font-size="2.6865">Internal Glaz</text>
<text transform="matrix(1 0 0 1 279.4371 54.9538)"><tspan x="0" y="0" font-family="'Arial'" font-size="2.6865">ed Partition</tspan><tspan x="13.59" y="0" font-family="'Arial'" font-size="2.6865" letter-spacing="8">s</tspan><tspan x="23.853" y="0" font-family="'Arial'" font-size="2.6865">04-500</tspan></text>
<text transform="matrix(1 0 0 1 2.9317 58.9569)"><tspan x="0" y="0" font-family="'Arial'" font-size="2.6865">G</tspan><tspan x="2.09" y="0" font-family="'Arial'" font-size="2.6865" letter-spacing="9">2</tspan><tspan x="13.483" y="0" font-family="'Arial'" font-size="2.6865">Double Glazed Integral Venetian Blinds - Lidco 715 System</tspan></text>
<text transform="matrix(1 0 0 1 104.0617 58.9569)"><tspan x="0" y="0" font-family="'Arial'" font-size="2.6865">Internal Glazed Partition</tspan><tspan x="28.821" y="0" font-family="'Arial'" font-size="2.6865" letter-spacing="8">s</tspan><tspan x="39.086" y="0" font-family="'Arial'" font-size="2.6865">04-50</tspan><tspan x="45.957" y="0" font-family="'Arial'" font-size="2.6865" letter-spacing="11">0</tspan><tspan x="58.995" y="0" font-family="'Arial'" font-size="2.6865">G</tspan><tspan x="61.084" y="0" font-family="'Arial'" font-size="2.6865" letter-spacing="9">8</tspan><tspan x="72.478" y="0" font-family="'Arial'" font-size="2.6865">Double Glazed Integral Venetian Bl</tspan></text>
<text transform="matrix(1 0 0 1 218.5173 58.9569)"><tspan x="0" y="0" font-family="'Arial'" font-size="2.6865">inds - Lidco 715 System &amp; 600mm x</tspan><tspan x="43.002" y="0" font-family="'Arial'" font-size="2.6865" letter-spacing="1"> </tspan><tspan x="45.686" y="0" font-family="'Arial'" font-size="2.6865">Internal Glazed Partition</tspan><tspan x="74.506" y="0" font-family="'Arial'" font-size="2.6865" letter-spacing="8">s</tspan><tspan x="84.771" y="0" font-family="'Arial'" font-size="2.6865">04-500</tspan></text>
<text transform="matrix(1 0 0 1 2.9317 62.9596)"><tspan x="0" y="0" font-family="'Arial'" font-size="2.6865">G</tspan><tspan x="2.09" y="0" font-family="'Arial'" font-size="2.6865" letter-spacing="9">3</tspan><tspan x="13.483" y="0" font-family="'Arial'" font-size="2.6865">Internal Glazed Partition - Lidco 715</tspan></text>
<text transform="matrix(1 0 0 1 104.065 62.9596)"><tspan x="0" y="0" font-family="'Arial'" font-size="2.6865">Internal Glazed Partition</tspan><tspan x="28.821" y="0" font-family="'Arial'" font-size="2.6865" letter-spacing="8">s</tspan><tspan x="39.086" y="0" font-family="'Arial'" font-size="2.6865">04-50</tspan><tspan x="45.957" y="0" font-family="'Arial'" font-size="2.6865" letter-spacing="11">0</tspan><tspan x="58.995" y="0" font-family="'Arial'" font-size="2.6865">G</tspan><tspan x="61.084" y="0" font-family="'Arial'" font-size="2.6865" letter-spacing="9">9</tspan><tspan x="72.478" y="0" font-family="'Arial'" font-size="2.6865">Internal Glazed Partition - Lidco 715 System &amp; 1500mm </tspan></text>
<text transform="matrix(1 0 0 1 243.5985 62.9596)" font-family="'Arial'" font-size="2.6865">high</text>
<text transform="matrix(1 0 0 1 264.2039 62.9596)"><tspan x="0" y="0" font-family="'Arial'" font-size="2.6865">Internal Glazed Partition</tspan><tspan x="28.82" y="0" font-family="'Arial'" font-size="2.6865" letter-spacing="8">s</tspan><tspan x="39.086" y="0" font-family="'Arial'" font-size="2.6865">04-500</tspan></text>
<rect x="0.071" y="0" fill="none" width="319.394" height="65.019"/>
<rect x="2.562" y="0.063" width="156.766" height="0.264"/>
<rect x="2.562" y="4.067" width="156.766" height="0.263"/>
<rect x="2.562" y="8.07" width="156.766" height="0.263"/>
<rect x="2.562" y="12.073" width="156.766" height="0.264"/>
<rect x="2.562" y="16.077" width="156.766" height="0.264"/>
<rect x="2.562" y="20.081" width="156.766" height="0.263"/>
<rect x="2.562" y="24.084" width="156.766" height="0.264"/>
<rect x="2.562" y="28.087" width="156.766" height="0.264"/>
<rect x="2.562" y="32.09" width="156.766" height="0.264"/>
<rect x="2.562" y="36.095" width="156.766" height="0.263"/>
<rect x="2.562" y="40.098" width="156.766" height="0.263"/>
<rect x="2.562" y="44.101" width="156.766" height="0.264"/>
<rect x="2.562" y="48.104" width="156.766" height="0.264"/>
<rect x="2.562" y="52.108" width="156.766" height="0.263"/>
<rect x="2.562" y="56.111" width="156.766" height="0.264"/>
<rect x="2.562" y="60.114" width="156.766" height="0.264"/>
<rect x="2.562" y="64.118" width="156.766" height="0.264"/>
<rect x="2.298" y="0" width="0.264" height="65.019"/>
<rect x="15.784" y="0" width="0.263" height="65.019"/>
<rect x="102.383" y="0" width="0.264" height="65.019"/>
<rect x="135.254" y="0" width="0.263" height="65.019"/>
<rect x="159.064" y="0" width="0.264" height="65.019"/>
<rect x="162.435" y="0" width="0.264" height="65.019"/>
<rect x="175.921" y="0" width="0.263" height="65.019"/>
<rect x="262.52" y="0" width="0.264" height="65.019"/>
<rect x="295.391" y="0" width="0.263" height="65.019"/>
<rect x="319.201" y="0" width="0.264" height="65.019"/>
<rect x="162.699" y="0.063" width="156.766" height="0.264"/>
<rect x="162.699" y="4.067" width="156.766" height="0.263"/>
<rect x="162.699" y="8.07" width="156.766" height="0.263"/>
<rect x="162.699" y="12.073" width="156.766" height="0.264"/>
<rect x="162.699" y="16.077" width="156.766" height="0.264"/>
<rect x="162.699" y="20.081" width="156.766" height="0.263"/>
<rect x="162.699" y="24.084" width="156.766" height="0.264"/>
<rect x="162.699" y="28.087" width="156.766" height="0.264"/>
<rect x="162.699" y="32.09" width="156.766" height="0.264"/>
<rect x="162.699" y="36.095" width="156.766" height="0.263"/>
<rect x="162.699" y="40.098" width="156.766" height="0.263"/>
<rect x="162.699" y="44.101" width="156.766" height="0.264"/>
<rect x="162.699" y="48.104" width="156.766" height="0.264"/>
<rect x="162.699" y="52.108" width="156.766" height="0.263"/>
<rect x="162.699" y="56.111" width="156.766" height="0.264"/>
<rect x="162.699" y="60.114" width="156.766" height="0.264"/>
<rect x="162.699" y="64.118" width="156.766" height="0.264"/>
</svg>
