<svg xmlns="http://www.w3.org/2000/svg" xmlns:xlink="http://www.w3.org/1999/xlink" viewBox="0 0 56.693 56.693">
  <defs>
    <path id="a" d="M0 0h56.693v56.693H0z"/>
  </defs>
  <clipPath id="b">
    <use xlink:href="#a" overflow="visible"/>
  </clipPath>
  <path clip-path="url(#b)" fill="#010202" d="M35.243 13.922V45.8h-4.457l4.457-31.878zM18.103 45.8c.55-2.004.862-4.263.862-6.653 0-4.218-.969-8.032-2.519-10.737 1.55-2.704 2.519-6.521 2.519-10.746v-.035L22.921 45.8h-4.818zm-10.82 0V32.493H10.9c1.994.012 3.617 2.997 3.617 6.654 0 3.662-1.621 6.646-3.61 6.653H7.283zM10.9 11.011c1.994.012 3.617 2.996 3.617 6.653 0 3.663-1.621 6.647-3.61 6.653H7.283V11.011H10.9zm20.157 0l-4.205 30.071-4.223-30.071h8.428zM47.686 45.8h-7.994V21.555L47.686 45.8zm1.724-10.544L41.416 11.01h7.994v24.246zM2.835 53.976h51.024V2.835H2.835v51.141z"/>
</svg>
