<?xml version="1.0" encoding="utf-8"?>
<!-- Generator: Adobe Illustrator 18.1.1, SVG Export Plug-In . SVG Version: 6.00 Build 0)  -->
<svg id="logo-colour-box" version="1.1" baseProfile="tiny" xmlns="http://www.w3.org/2000/svg" xmlns:xlink="http://www.w3.org/1999/xlink"
	 x="0px" y="0px" viewBox="0 0 118.1 69.5" xml:space="preserve">
<text transform="matrix(1 0 0 1 27.9325 54.5709)" fill="#010202" font-size="10">ARCHITECTURE</text>
<g>
	<path fill="#010202" d="M65.9,21v17.3h-4.5L65.9,21z M48.8,38.3c0.6-1.1,0.9-2.3,0.9-3.6c0-2.3-1-4.4-2.5-5.8
		c1.6-1.5,2.5-3.5,2.5-5.8c0,0,0,0,0,0l4,15.3H48.8z M38,38.3v-7.2h3.6c2,0,3.6,1.6,3.6,3.6c0,2-1.6,3.6-3.6,3.6H38z M41.6,19.4
		c2,0,3.6,1.6,3.6,3.6c0,2-1.6,3.6-3.6,3.6H38v-7.2H41.6z M61.7,19.4l-4.2,16.4l-4.2-16.4H61.7z M78.4,38.3h-8V25.1L78.4,38.3z
		 M80.1,32.6l-8-13.2h8V32.6z M33.5,14.9v27.8h51V14.9H33.5z"/>
</g>
<rect x="2.8" y="2.8" fill="none" stroke="#010202" width="112.4" height="63.8"/>
</svg>
