<?xml version="1.0" encoding="utf-8"?>
<!-- Generator: Adobe Illustrator 18.1.1, SVG Export Plug-In . SVG Version: 6.00 Build 0)  -->
<svg version="1.1" id="Layer_1" xmlns="http://www.w3.org/2000/svg" xmlns:xlink="http://www.w3.org/1999/xlink" x="0px" y="0px"
	 viewBox="0 0 320 65.019" enable-background="new 0 0 320 65.019" xml:space="preserve">
<rect y="0" fill="#ffffff" width="320.315" height="65.019"/>
<rect x="2.562" y="0.001" fill="#c5d9f1" width="156.66" height="0.681"/>
<rect x="162.54" y="0.001" fill="#c5d9f1" width="156.819" height="0.681"/>
<rect x="2.562" y="12.639" fill="#c5d9f1" width="156.66" height="4.056"/>
<rect x="162.54" y="12.639" fill="#c5d9f1" width="156.819" height="4.056"/>
<rect x="2.562" y="56.677" fill="#c5d9f1" width="156.66" height="4.056"/>
<rect x="162.54" y="56.677" fill="#c5d9f1" width="156.819" height="4.056"/>
<rect x="0.071" y="0" fill="none" width="319.394" height="65.018"/>
<text transform="matrix(1 0 0 1 2.9301 3.368)" fill="#1d1d1b" font-family="'Arial'" font-size="2.6865">TIL-01</text>
<text transform="matrix(1 0 0 1 16.4157 3.4218)" fill="#1d1d1b" font-family="'Arial'" font-size="2.6865">Vitrified ceramic floor tiling: Klingenberg/Graphite Mix  </text>
<text transform="matrix(1 0 0 1 115.8114 3.4218)" fill="#1d1d1b" font-family="'Arial'" font-size="2.6865">Tiling</text>
<text transform="matrix(1 0 0 1 143.1492 3.4218)" fill="#1d1d1b" font-family="'Arial'" font-size="2.6865">05-400</text>
<text transform="matrix(1 0 0 1 163.0691 3.368)" fill="#1d1d1b" font-family="'Arial'" font-size="2.6865">TIL-03</text>
<text transform="matrix(1 0 0 1 176.5562 3.4218)" fill="#1d1d1b" font-family="'Arial'" font-size="2.6865">Vitrified ceramic floor tiling - Metz Ceramic tiles</text>
<text transform="matrix(1 0 0 1 275.951 3.4218)" fill="#1d1d1b" font-family="'Arial'" font-size="2.6865">Tiling</text>
<text transform="matrix(1 0 0 1 303.2888 3.4218)" fill="#1d1d1b" font-family="'Arial'" font-size="2.6865">05-400</text>
<text transform="matrix(1 0 0 1 2.9354 7.3734)" fill="#1d1d1b" font-family="'Arial'" font-size="2.6865">TIL-02</text>
<text transform="matrix(1 0 0 1 16.4216 7.4276)" fill="#1d1d1b" font-family="'Arial'" font-size="2.6865">Ceramic wall tiling - Classic Ceramics: Matt White</text>
<text transform="matrix(1 0 0 1 115.8168 7.4276)" fill="#1d1d1b" font-family="'Arial'" font-size="2.6865">Tiling</text>
<text transform="matrix(1 0 0 1 143.1541 7.4276)" fill="#1d1d1b" font-family="'Arial'" font-size="2.6865">05-400</text>
<text transform="matrix(1 0 0 1 163.0723 7.3734)" fill="#1d1d1b" font-family="'Arial'" font-size="2.6865">TIL-04</text>
<text transform="matrix(1 0 0 1 176.5584 7.4276)" fill="#1d1d1b" font-family="'Arial'" font-size="2.6865">Ceramic wall tiling - Classic Ceramics: Matt White</text>
<text transform="matrix(1 0 0 1 275.9537 7.4276)" fill="#1d1d1b" font-family="'Arial'" font-size="2.6865">Tiling</text>
<text transform="matrix(1 0 0 1 303.2909 7.4276)" fill="#1d1d1b" font-family="'Arial'" font-size="2.6865">05-400</text>
<g>
	<text transform="matrix(1 0 0 1 146.9559 11.4302)" fill="#1d1d1b" font-family="'Arial'" font-size="2.6865">.</text>
	<text transform="matrix(1 0 0 1 118.6163 11.4303)" fill="#1d1d1b" font-family="'Arial'" font-size="2.6865">.</text>
</g>
<g>
	<text transform="matrix(1 0 0 1 307.0837 11.4276)" fill="#1d1d1b" font-family="'Arial'" font-size="2.6865">.</text>
	<text transform="matrix(1 0 0 1 278.744 11.4276)" fill="#1d1d1b" font-family="'Arial'" font-size="2.6865">.</text>
</g>
<rect x="0.071" y="0" fill="none" width="319.394" height="65.018"/>
<text transform="matrix(1 0 0 1 16.4151 15.4834)" fill="#1d1d1b" font-family="'Arial'" font-weight="bolder" font-size="2.6865">Trims/Skirtings/Architraves</text>
<text transform="matrix(1 0 0 1 118.6061 15.4834)" fill="#1d1d1b" font-family="'Arial'" font-weight="bolder" font-size="2.6865">.</text>
<text transform="matrix(1 0 0 1 146.9468 15.4834)" fill="#1d1d1b" font-family="'Arial'" font-weight="bolder" font-size="2.6865">.</text>
<text transform="matrix(1 0 0 1 176.5514 15.4834)" fill="#1d1d1b" font-family="'Arial'" font-weight="bolder" font-size="2.6865">Trims/Skirtings/Architraves</text>
<text transform="matrix(1 0 0 1 278.744 15.4835)" fill="#1d1d1b" font-family="'Arial'" font-weight="bolder" font-size="2.6865">.</text>
<text transform="matrix(1 0 0 1 307.0836 15.4834)" fill="#1d1d1b" font-family="'Arial'" font-weight="bolder" font-size="2.6865">.</text>
<text transform="matrix(1 0 0 1 2.9317 19.3819)" fill="#1d1d1b" font-family="'Arial'" font-size="2.6865">TRM-01</text>
<text transform="matrix(1 0 0 1 16.4179 19.4356)" fill="#1d1d1b" font-family="'Arial'" font-size="2.6865">Handrail and Crash Rail Combined</text>
<text transform="matrix(1 0 0 1 109.9618 19.4356)" fill="#1d1d1b" font-family="'Arial'" font-size="2.6865">Wall Protection</text>
<text transform="matrix(1 0 0 1 143.1455 19.4356)" fill="#1d1d1b" font-family="'Arial'" font-size="2.6865">06-150</text>
<text transform="matrix(1 0 0 1 163.068 19.3819)" fill="#1d1d1b" font-family="'Arial'" font-size="2.6865">TRM-10</text>
<text transform="matrix(1 0 0 1 176.5547 19.4356)" fill="#1d1d1b" font-family="'Arial'" font-size="2.6865">Aluminium Door Threshold Plate</text>
<text transform="matrix(1 0 0 1 265.2574 19.4356)"><tspan x="0" y="0" fill="#1d1d1b" font-family="'Arial'" font-size="2.6865">Resilient Floor Finishe</tspan><tspan x="26.573" y="0" fill="#1d1d1b" font-family="'Arial'" font-size="2.6865" letter-spacing="10">s</tspan><tspan x="38.028" y="0" fill="#1d1d1b" font-family="'Arial'" font-size="2.6865">05-550</tspan></text>
<text transform="matrix(1 0 0 1 2.934 23.3873)" fill="#1d1d1b" font-family="'Arial'" font-size="2.6865">TRM-02</text>
<text transform="matrix(1 0 0 1 16.4205 23.4415)" fill="#1d1d1b" font-family="'Arial'" font-size="2.6865">Single Corner Guard</text>
<text transform="matrix(1 0 0 1 109.9694 23.4415)" fill="#1d1d1b" font-family="'Arial'" font-size="2.6865">Wall Protection</text>
<text transform="matrix(1 0 0 1 143.153 23.4415)" fill="#1d1d1b" font-family="'Arial'" font-size="2.6865">06-150</text>
<text transform="matrix(1 0 0 1 163.0713 23.3872)" fill="#1d1d1b" font-family="'Arial'" font-size="2.6865">TRM-11</text>
<text transform="matrix(1 0 0 1 176.5573 23.4415)" fill="#1d1d1b" font-family="'Arial'" font-size="2.6865">Aluminium skirtings</text>
<text transform="matrix(1 0 0 1 265.2606 23.4415)"><tspan x="0" y="0" fill="#1d1d1b" font-family="'Arial'" font-size="2.6865">Resilient Floor Finishe</tspan><tspan x="26.573" y="0" fill="#1d1d1b" font-family="'Arial'" font-size="2.6865" letter-spacing="10">s</tspan><tspan x="38.028" y="0" fill="#1d1d1b" font-family="'Arial'" font-size="2.6865">05-100</tspan></text>
<text transform="matrix(1 0 0 1 2.934 27.3931)" fill="#1d1d1b" font-family="'Arial'" font-size="2.6865">TRM-03</text>
<text transform="matrix(1 0 0 1 16.4205 27.4463)" fill="#1d1d1b" font-family="'Arial'" font-size="2.6865">Single Crash Rail</text>
<text transform="matrix(1 0 0 1 109.9694 27.4463)" fill="#1d1d1b" font-family="'Arial'" font-size="2.6865">Wall Protection</text>
<text transform="matrix(1 0 0 1 143.153 27.4463)" fill="#1d1d1b" font-family="'Arial'" font-size="2.6865">06-150</text>
<text transform="matrix(1 0 0 1 163.0713 27.3931)" fill="#1d1d1b" font-family="'Arial'" font-size="2.6865">TRM-12</text>
<text transform="matrix(1 0 0 1 176.5573 27.4463)" fill="#1d1d1b" font-family="'Arial'" font-size="2.6865">Double Corner Guards</text>
<text transform="matrix(1 0 0 1 270.1062 27.4463)" fill="#1d1d1b" font-family="'Arial'" font-size="2.6865">Wall Protection</text>
<text transform="matrix(1 0 0 1 303.2909 27.4464)" fill="#1d1d1b" font-family="'Arial'" font-size="2.6865">06-150</text>
<text transform="matrix(1 0 0 1 2.934 31.3985)" fill="#1d1d1b" font-family="'Arial'" font-size="2.6865">TRM-04</text>
<text transform="matrix(1 0 0 1 16.4205 31.4521)" fill="#1d1d1b" font-family="'Arial'" font-size="2.6865">MDF skirtings</text>
<text transform="matrix(1 0 0 1 105.1259 31.4522)"><tspan x="0" y="0" fill="#1d1d1b" font-family="'Arial'" font-size="2.6865">Resilient Floor Finishe</tspan><tspan x="26.576" y="0" fill="#1d1d1b" font-family="'Arial'" font-size="2.6865" letter-spacing="10">s</tspan><tspan x="38.031" y="0" fill="#1d1d1b" font-family="'Arial'" font-size="2.6865">05-550</tspan></text>
<text transform="matrix(1 0 0 1 163.0713 31.3985)" fill="#1d1d1b" font-family="'Arial'" font-size="2.6865">TRM-13</text>
<text transform="matrix(1 0 0 1 176.5573 31.4521)" fill="#1d1d1b" font-family="'Arial'" font-size="2.6865">Double Crash Rail</text>
<text transform="matrix(1 0 0 1 270.1062 31.4521)" fill="#1d1d1b" font-family="'Arial'" font-size="2.6865">Wall Protection</text>
<text transform="matrix(1 0 0 1 303.2909 31.4522)" fill="#1d1d1b" font-family="'Arial'" font-size="2.6865">06-150</text>
<text transform="matrix(1 0 0 1 2.9371 35.4043)" fill="#1d1d1b" font-family="'Arial'" font-size="2.6865">TRM-05</text>
<text transform="matrix(1 0 0 1 16.4232 35.4581)" fill="#1d1d1b" font-family="'Arial'" font-size="2.6865">Aluminium skirtings</text>
<text transform="matrix(1 0 0 1 105.1259 35.4581)"><tspan x="0" y="0" fill="#1d1d1b" font-family="'Arial'" font-size="2.6865">Resilient Floor Finishe</tspan><tspan x="26.576" y="0" fill="#1d1d1b" font-family="'Arial'" font-size="2.6865" letter-spacing="10">s</tspan><tspan x="38.031" y="0" fill="#1d1d1b" font-family="'Arial'" font-size="2.6865">05-100</tspan></text>
<text transform="matrix(1 0 0 1 163.0734 35.4043)" fill="#1d1d1b" font-family="'Arial'" font-size="2.6865">TRM-14</text>
<text transform="matrix(1 0 0 1 176.56 35.4581)" fill="#1d1d1b" font-family="'Arial'" font-size="2.6865">Handrail and Crash Rail Combined</text>
<text transform="matrix(1 0 0 1 270.1041 35.458)" fill="#1d1d1b" font-family="'Arial'" font-size="2.6865">Wall Protection</text>
<text transform="matrix(1 0 0 1 303.2877 35.458)" fill="#1d1d1b" font-family="'Arial'" font-size="2.6865">06-150</text>
<text transform="matrix(1 0 0 1 2.9371 39.4102)" fill="#1d1d1b" font-family="'Arial'" font-size="2.6865">TRM-06</text>
<text transform="matrix(1 0 0 1 16.4232 39.4634)" fill="#1d1d1b" font-family="'Arial'" font-size="2.6865">Double Corner Guards</text>
<text transform="matrix(1 0 0 1 109.9725 39.4634)" fill="#1d1d1b" font-family="'Arial'" font-size="2.6865">Wall Protection</text>
<text transform="matrix(1 0 0 1 143.1563 39.4634)" fill="#1d1d1b" font-family="'Arial'" font-size="2.6865">06-150</text>
<text transform="matrix(1 0 0 1 163.0734 39.4102)" fill="#1d1d1b" font-family="'Arial'" font-size="2.6865">TRM-15</text>
<text transform="matrix(1 0 0 1 176.56 39.4634)" fill="#1d1d1b" font-family="'Arial'" font-size="2.6865">MDF skirtings</text>
<text transform="matrix(1 0 0 1 265.2654 39.4634)"><tspan x="0" y="0" fill="#1d1d1b" font-family="'Arial'" font-size="2.6865">Resilient Floor Finishe</tspan><tspan x="26.573" y="0" fill="#1d1d1b" font-family="'Arial'" font-size="2.6865" letter-spacing="10">s</tspan><tspan x="38.028" y="0" fill="#1d1d1b" font-family="'Arial'" font-size="2.6865">05-550</tspan></text>
<text transform="matrix(1 0 0 1 2.9371 43.4156)" fill="#1d1d1b" font-family="'Arial'" font-size="2.6865">TRM-07</text>
<text transform="matrix(1 0 0 1 16.4232 43.4693)" fill="#1d1d1b" font-family="'Arial'" font-size="2.6865">Aluminium Door Threshold Plate</text>
<text transform="matrix(1 0 0 1 105.1259 43.4693)"><tspan x="0" y="0" fill="#1d1d1b" font-family="'Arial'" font-size="2.6865">Resilient Floor Finishe</tspan><tspan x="26.576" y="0" fill="#1d1d1b" font-family="'Arial'" font-size="2.6865" letter-spacing="10">s</tspan><tspan x="38.031" y="0" fill="#1d1d1b" font-family="'Arial'" font-size="2.6865">05-550</tspan></text>
<text transform="matrix(1 0 0 1 163.0766 43.4156)" fill="#1d1d1b" font-family="'Arial'" font-size="2.6865">TRM-16</text>
<text transform="matrix(1 0 0 1 176.5627 43.4692)" fill="#1d1d1b" font-family="'Arial'" font-size="2.6865">Single Corner Guard</text>
<text transform="matrix(1 0 0 1 270.1121 43.4692)" fill="#1d1d1b" font-family="'Arial'" font-size="2.6865">Wall Protection</text>
<text transform="matrix(1 0 0 1 303.2958 43.4693)" fill="#1d1d1b" font-family="'Arial'" font-size="2.6865">06-150</text>
<text transform="matrix(1 0 0 1 2.9393 47.421)" fill="#1d1d1b" font-family="'Arial'" font-size="2.6865">TRM-08</text>
<text transform="matrix(1 0 0 1 16.4258 47.4746)" fill="#1d1d1b" font-family="'Arial'" font-size="2.6865">Double Crash Rail</text>
<text transform="matrix(1 0 0 1 109.9752 47.4746)" fill="#1d1d1b" font-family="'Arial'" font-size="2.6865">Wall Protection</text>
<text transform="matrix(1 0 0 1 143.1584 47.4746)" fill="#1d1d1b" font-family="'Arial'" font-size="2.6865">06-150</text>
<text transform="matrix(1 0 0 1 163.0766 47.421)" fill="#1d1d1b" font-family="'Arial'" font-size="2.6865">TRM-17</text>
<text transform="matrix(1 0 0 1 176.5627 47.4746)" fill="#1d1d1b" font-family="'Arial'" font-size="2.6865">Single Corner Guard (Full Height)</text>
<text transform="matrix(1 0 0 1 270.1089 47.4746)" fill="#1d1d1b" font-family="'Arial'" font-size="2.6865">Wall Protection</text>
<text transform="matrix(1 0 0 1 303.2935 47.4746)" fill="#1d1d1b" font-family="'Arial'" font-size="2.6865">06-150</text>
<text transform="matrix(1 0 0 1 2.9393 51.4263)" fill="#1d1d1b" font-family="'Arial'" font-size="2.6865">TRM-09</text>
<text transform="matrix(1 0 0 1 16.4258 51.4804)" fill="#1d1d1b" font-family="'Arial'" font-size="2.6865">Single Corner Guard (Full Height)</text>
<text transform="matrix(1 0 0 1 109.9725 51.4805)" fill="#1d1d1b" font-family="'Arial'" font-size="2.6865">Wall Protection</text>
<text transform="matrix(1 0 0 1 143.1563 51.4804)" fill="#1d1d1b" font-family="'Arial'" font-size="2.6865">06-150</text>
<text transform="matrix(1 0 0 1 163.0734 51.4262)" fill="#1d1d1b" font-family="'Arial'" font-size="2.6865">TRM-18</text>
<text transform="matrix(1 0 0 1 176.56 51.4805)" fill="#1d1d1b" font-family="'Arial'" font-size="2.6865">Single Crash Rail</text>
<text transform="matrix(1 0 0 1 270.1089 51.4804)" fill="#1d1d1b" font-family="'Arial'" font-size="2.6865">Wall Protection</text>
<text transform="matrix(1 0 0 1 303.2935 51.4804)" fill="#1d1d1b" font-family="'Arial'" font-size="2.6865">06-150</text>
<text transform="matrix(1 0 0 1 16.4232 59.5399)" fill="#1d1d1b" font-family="'Arial'" font-weight="bolder" font-size="2.6865">Water Proofing Systems</text>
<text transform="matrix(1 0 0 1 118.6146 59.5399)" fill="#1d1d1b" font-family="'Arial'" font-weight="bolder" font-size="2.6865">.</text>
<text transform="matrix(1 0 0 1 146.9549 59.5399)" fill="#1d1d1b" font-family="'Arial'" font-weight="bolder" font-size="2.6865">.</text>
<text transform="matrix(1 0 0 1 176.56 59.5399)" fill="#1d1d1b" font-family="'Arial'" font-weight="bolder" font-size="2.6865">Water Proofing Systems</text>
<text transform="matrix(1 0 0 1 278.7525 59.5399)" fill="#1d1d1b" font-family="'Arial'" font-weight="bolder" font-size="2.6865">.</text>
<text transform="matrix(1 0 0 1 307.0917 59.5399)" fill="#1d1d1b" font-family="'Arial'" font-weight="bolder" font-size="2.6865">.</text>
<text transform="matrix(1 0 0 1 2.9371 63.4374)" fill="#1d1d1b" font-family="'Arial'" font-size="2.6865">WPRS-01</text>
<text transform="matrix(1 0 0 1 16.4232 63.4912)" fill="#1d1d1b" font-family="'Arial'" font-size="2.6865">Tanking Membrane</text>
<text transform="matrix(1 0 0 1 110.5524 63.4912)" fill="#1d1d1b" font-family="'Arial'" font-size="2.6865">Waterproofing</text>
<text transform="matrix(1 0 0 1 143.1563 63.4912)" fill="#1d1d1b" font-family="'Arial'" font-size="2.6865">04-050</text>
<text transform="matrix(1 0 0 1 163.0734 63.4374)" fill="#1d1d1b" font-family="'Arial'" font-size="2.6865">WPRS-06</text>
<text transform="matrix(1 0 0 1 176.56 63.4912)" fill="#1d1d1b" font-family="'Arial'" font-size="2.6865">Tanking Membrane</text>
<text transform="matrix(1 0 0 1 270.6893 63.4912)" fill="#1d1d1b" font-family="'Arial'" font-size="2.6865">Waterproofing</text>
<text transform="matrix(1 0 0 1 303.2935 63.4912)" fill="#1d1d1b" font-family="'Arial'" font-size="2.6865">04-050</text>
<rect x="0.071" y="0" fill="none" width="319.394" height="65.018"/>
<rect x="2.562" y="0.523" fill="#1d1d1b" width="156.766" height="0.264"/>
<rect x="2.562" y="4.527" fill="#1d1d1b" width="156.766" height="0.263"/>
<rect x="2.562" y="8.53" fill="#1d1d1b" width="156.766" height="0.264"/>
<rect x="2.562" y="12.534" fill="#1d1d1b" width="156.766" height="0.264"/>
<rect x="2.562" y="16.537" fill="#1d1d1b" width="156.766" height="0.264"/>
<rect x="2.562" y="20.541" fill="#1d1d1b" width="156.766" height="0.263"/>
<rect x="2.562" y="24.544" fill="#1d1d1b" width="156.766" height="0.264"/>
<rect x="2.562" y="28.547" fill="#1d1d1b" width="156.766" height="0.264"/>
<rect x="2.562" y="32.55" fill="#1d1d1b" width="156.766" height="0.264"/>
<rect x="2.562" y="36.555" fill="#1d1d1b" width="156.766" height="0.263"/>
<rect x="2.562" y="40.558" fill="#1d1d1b" width="156.766" height="0.264"/>
<rect x="2.562" y="44.561" fill="#1d1d1b" width="156.766" height="0.264"/>
<rect x="2.562" y="48.564" fill="#1d1d1b" width="156.766" height="0.264"/>
<rect x="2.562" y="52.568" fill="#1d1d1b" width="156.766" height="0.263"/>
<rect x="2.562" y="56.571" fill="#1d1d1b" width="156.766" height="0.264"/>
<rect x="2.562" y="60.575" fill="#1d1d1b" width="156.766" height="0.264"/>
<rect x="2.562" y="64.578" fill="#1d1d1b" width="156.766" height="0.264"/>
<rect x="2.298" y="0" fill="#1d1d1b" width="0.264" height="65.018"/>
<rect x="15.784" y="0" fill="#1d1d1b" width="0.264" height="65.018"/>
<rect x="102.383" y="0" fill="#1d1d1b" width="0.264" height="65.018"/>
<rect x="135.254" y="0" fill="#1d1d1b" width="0.264" height="65.018"/>
<rect x="159.064" y="0" fill="#1d1d1b" width="0.264" height="65.018"/>
<rect x="162.435" y="0" fill="#1d1d1b" width="0.264" height="65.018"/>
<rect x="175.921" y="0" fill="#1d1d1b" width="0.263" height="65.018"/>
<rect x="262.52" y="0" fill="#1d1d1b" width="0.264" height="65.018"/>
<rect x="295.391" y="0" fill="#1d1d1b" width="0.263" height="65.018"/>
<rect x="319.201" y="0" fill="#1d1d1b" width="0.264" height="65.018"/>
<rect x="162.699" y="0.523" fill="#1d1d1b" width="156.766" height="0.264"/>
<rect x="162.699" y="4.527" fill="#1d1d1b" width="156.766" height="0.263"/>
<rect x="162.699" y="8.53" fill="#1d1d1b" width="156.766" height="0.264"/>
<rect x="162.699" y="12.534" fill="#1d1d1b" width="156.766" height="0.264"/>
<rect x="162.699" y="16.537" fill="#1d1d1b" width="156.766" height="0.264"/>
<rect x="162.699" y="20.541" fill="#1d1d1b" width="156.766" height="0.263"/>
<rect x="162.699" y="24.544" fill="#1d1d1b" width="156.766" height="0.264"/>
<rect x="162.699" y="28.547" fill="#1d1d1b" width="156.766" height="0.264"/>
<rect x="162.699" y="32.55" fill="#1d1d1b" width="156.766" height="0.264"/>
<rect x="162.699" y="36.555" fill="#1d1d1b" width="156.766" height="0.263"/>
<rect x="162.699" y="40.558" fill="#1d1d1b" width="156.766" height="0.264"/>
<rect x="162.699" y="44.561" fill="#1d1d1b" width="156.766" height="0.264"/>
<rect x="162.699" y="48.564" fill="#1d1d1b" width="156.766" height="0.264"/>
<rect x="162.699" y="52.568" fill="#1d1d1b" width="156.766" height="0.263"/>
<rect x="162.699" y="56.571" fill="#1d1d1b" width="156.766" height="0.264"/>
<rect x="162.699" y="60.575" fill="#1d1d1b" width="156.766" height="0.264"/>
<rect x="162.699" y="64.578" fill="#1d1d1b" width="156.766" height="0.264"/>
</svg>
