<?xml version="1.0" encoding="utf-8"?>
<!-- Generator: Adobe Illustrator 18.1.1, SVG Export Plug-In . SVG Version: 6.00 Build 0)  -->
<svg version="1.1" id="Layer_1" xmlns="http://www.w3.org/2000/svg" xmlns:xlink="http://www.w3.org/1999/xlink" x="0px" y="0px"
	 viewBox="0 0 320 65" enable-background="new 0 0 320 65" xml:space="preserve">
<rect x="0" y="0" fill="#FFFFFF" width="320.3" height="65"/>
<g>
	<defs>
		<rect id="SVGID_1_" x="0.1" y="0" width="319.4" height="65"/>
	</defs>
	<clipPath id="SVGID_2_">
		<use xlink:href="#SVGID_1_"  overflow="visible"/>
	</clipPath>
	<rect x="2.6" y="-4.1" clip-path="url(#SVGID_2_)" fill="#C5D9F1" width="156.7" height="4.1"/>
	<rect x="162.5" y="-4.1" clip-path="url(#SVGID_2_)" fill="#C5D9F1" width="156.8" height="4.1"/>
</g>
<rect x="2.6" y="3.9" fill="#C5D9F1" width="156.7" height="4.1"/>
<rect x="162.5" y="3.9" fill="#C5D9F1" width="156.8" height="4.1"/>
<rect x="2.6" y="11.9" fill="#C5D9F1" width="156.7" height="4.1"/>
<rect x="162.5" y="11.9" fill="#C5D9F1" width="156.8" height="4.1"/>
<rect x="2.6" y="44" fill="#C5D9F1" width="156.7" height="4.1"/>
<rect x="162.5" y="44" fill="#C5D9F1" width="156.8" height="4.1"/>
<rect x="2.6" y="52" fill="#C5D9F1" width="156.7" height="4.1"/>
<rect x="162.5" y="52" fill="#C5D9F1" width="156.8" height="4.1"/>
<g>
	<defs>
		<rect id="SVGID_3_" x="0.1" y="0" width="319.4" height="65"/>
	</defs>
	<clipPath id="SVGID_4_">
		<use xlink:href="#SVGID_3_"  overflow="visible"/>
	</clipPath>
	<g clip-path="url(#SVGID_4_)">
		<text transform="matrix(1 0 0 1 16.4154 -9.2934)" fill="#1D1D1B" font-family="'Arial-BoldMT'" font-size="2.6865">Bollards</text>
	</g>
	<g clip-path="url(#SVGID_4_)">
		<text transform="matrix(1 0 0 1 118.6074 -9.2934)" fill="#1D1D1B" font-family="'Arial-BoldMT'" font-size="2.6865">.</text>
	</g>
	<g clip-path="url(#SVGID_4_)">
		<text transform="matrix(1 0 0 1 146.9471 -9.2934)" fill="#1D1D1B" font-family="'Arial-BoldMT'" font-size="2.6865">.</text>
	</g>
	<g clip-path="url(#SVGID_4_)">
		<text transform="matrix(1 0 0 1 176.5527 -9.2934)" fill="#1D1D1B" font-family="'Arial-BoldMT'" font-size="2.6865">Bollards</text>
	</g>
	<g clip-path="url(#SVGID_4_)">
		<text transform="matrix(1 0 0 1 307.084 -9.2934)" fill="#1D1D1B" font-family="'Arial-BoldMT'" font-size="2.6865">.</text>
		<text transform="matrix(1 0 0 1 278.7448 -9.2934)" fill="#1D1D1B" font-family="'Arial-BoldMT'" font-size="2.6865">.</text>
	</g>
	<g clip-path="url(#SVGID_4_)">
		<text transform="matrix(1 0 0 1 118.6074 -5.3417)" fill="#1D1D1B" font-family="'ArialMT'" font-size="2.6865">.</text>
	</g>
	<g clip-path="url(#SVGID_4_)">
		<text transform="matrix(1 0 0 1 278.7448 -5.3417)" fill="#1D1D1B" font-family="'ArialMT'" font-size="2.6865">.</text>
	</g>
	<g clip-path="url(#SVGID_4_)">
		<text transform="matrix(1 0 0 1 16.4154 -1.2849)" fill="#1D1D1B" font-family="'Arial-BoldMT'" font-size="2.6865">Brickwork</text>
	</g>
	<g clip-path="url(#SVGID_4_)">
		<text transform="matrix(1 0 0 1 118.6074 -1.2849)" fill="#1D1D1B" font-family="'Arial-BoldMT'" font-size="2.6865">.</text>
	</g>
	<g clip-path="url(#SVGID_4_)">
		<text transform="matrix(1 0 0 1 176.5527 -1.2849)" fill="#1D1D1B" font-family="'Arial-BoldMT'" font-size="2.6865">Brickwork</text>
	</g>
	<g clip-path="url(#SVGID_4_)">
		<text transform="matrix(1 0 0 1 278.7448 -1.2849)" fill="#1D1D1B" font-family="'Arial-BoldMT'" font-size="2.6865">.</text>
	</g>
	<g clip-path="url(#SVGID_4_)">
		<text transform="matrix(1 0 0 1 146.9471 2.6673)" fill="#1D1D1B" font-family="'ArialMT'" font-size="2.6865">.</text>
		<text transform="matrix(1 0 0 1 118.6074 2.6673)" fill="#1D1D1B" font-family="'ArialMT'" font-size="2.6865">.</text>
	</g>
	<g clip-path="url(#SVGID_4_)">
		<text transform="matrix(1 0 0 1 307.084 2.6673)" fill="#1D1D1B" font-family="'ArialMT'" font-size="2.6865">.</text>
		<text transform="matrix(1 0 0 1 278.7448 2.6673)" fill="#1D1D1B" font-family="'ArialMT'" font-size="2.6865">.</text>
	</g>
</g>
<text transform="matrix(1 0 0 1 16.4154 6.7204)" fill="#1D1D1B" font-family="'Arial-BoldMT'" font-size="2.6865">Canopies</text>
<text transform="matrix(1 0 0 1 118.6074 6.7204)" fill="#1D1D1B" font-family="'Arial-BoldMT'" font-size="2.6865">.</text>
<text transform="matrix(1 0 0 1 146.9471 6.7204)" fill="#1D1D1B" font-family="'Arial-BoldMT'" font-size="2.6865">.</text>
<text transform="matrix(1 0 0 1 176.5527 6.7204)" fill="#1D1D1B" font-family="'Arial-BoldMT'" font-size="2.6865">Canopies</text>
<g>
	<defs>
		<rect id="SVGID_5_" x="0.1" y="0" width="319.4" height="65"/>
	</defs>
	<clipPath id="SVGID_6_">
		<use xlink:href="#SVGID_5_"  overflow="visible"/>
	</clipPath>
	<g clip-path="url(#SVGID_6_)">
		<text transform="matrix(1 0 0 1 307.085 6.7204)" fill="#1D1D1B" font-family="'Arial-BoldMT'" font-size="2.6865">.</text>
		<text transform="matrix(1 0 0 1 278.7458 6.7204)" fill="#1D1D1B" font-family="'Arial-BoldMT'" font-size="2.6865">.</text>
	</g>
</g>
<text transform="matrix(1 0 0 1 118.6085 10.6711)" fill="#1D1D1B" font-family="'ArialMT'" font-size="2.6865">.</text>
<text transform="matrix(1 0 0 1 278.7458 10.6711)" fill="#1D1D1B" font-family="'ArialMT'" font-size="2.6865">.</text>
<text transform="matrix(1 0 0 1 16.416 14.7279)" fill="#1D1D1B" font-family="'Arial-BoldMT'" font-size="2.6865">Ceilings</text>
<text transform="matrix(1 0 0 1 118.7127 14.7279)" fill="#1D1D1B" font-family="'Arial-BoldMT'" font-size="2.6865">.</text>
<text transform="matrix(1 0 0 1 147.0534 14.7279)" fill="#1D1D1B" font-family="'Arial-BoldMT'" font-size="2.6865">.</text>
<text transform="matrix(1 0 0 1 176.5544 14.7279)" fill="#1D1D1B" font-family="'Arial-BoldMT'" font-size="2.6865">Ceilings</text>
<g>
	<defs>
		<rect id="SVGID_7_" x="0.1" y="0" width="319.4" height="65"/>
	</defs>
	<clipPath id="SVGID_8_">
		<use xlink:href="#SVGID_7_"  overflow="visible"/>
	</clipPath>
	<g clip-path="url(#SVGID_8_)">
		<text transform="matrix(1 0 0 1 307.1902 14.7274)" fill="#1D1D1B" font-family="'Arial-BoldMT'" font-size="2.6865">.</text>
		<text transform="matrix(1 0 0 1 278.8506 14.7274)" fill="#1D1D1B" font-family="'Arial-BoldMT'" font-size="2.6865">.</text>
	</g>
</g>
<text transform="matrix(1 0 0 1 2.9304 18.678)"><tspan x="0" y="0" fill="#1D1D1B" font-family="'ArialMT'" font-size="2.6865">CLG-0</tspan><tspan x="7.9" y="0" fill="#1D1D1B" font-family="'ArialMT'" font-size="2.6865" letter-spacing="4">1</tspan><tspan x="13.5" y="0" fill="#1D1D1B" font-family="'ArialMT'" font-size="2.6865">Suspended plasterboard ceiling</tspan></text>
<text transform="matrix(1 0 0 1 107.1149 18.678)"><tspan x="0" y="0" fill="#1D1D1B" font-family="'ArialMT'" font-size="2.6865">Suspended Ceiling</tspan><tspan x="22.6" y="0" fill="#1D1D1B" font-family="'ArialMT'" font-size="2.6865" letter-spacing="12">s</tspan><tspan x="36" y="0" fill="#1D1D1B" font-family="'ArialMT'" font-size="2.6865">05-05</tspan><tspan x="42.9" y="0" fill="#1D1D1B" font-family="'ArialMT'" font-size="2.6865" letter-spacing="11">0</tspan><tspan x="55.9" y="0" fill="#1D1D1B" font-family="'ArialMT'" font-size="2.6865">CLG-0</tspan><tspan x="63.8" y="0" fill="#1D1D1B" font-family="'ArialMT'" font-size="2.6865" letter-spacing="4">7</tspan><tspan x="69.4" y="0" fill="#1D1D1B" font-family="'ArialMT'" font-size="2.6865">External soffit lining</tspan></text>
<text transform="matrix(1 0 0 1 267.3457 18.678)"><tspan x="0" y="0" fill="#1D1D1B" font-family="'ArialMT'" font-size="2.6865">Suspended Ceiling</tspan><tspan x="22.6" y="0" fill="#1D1D1B" font-family="'ArialMT'" font-size="2.6865" letter-spacing="12">s</tspan><tspan x="35.9" y="0" fill="#1D1D1B" font-family="'ArialMT'" font-size="2.6865">05-050</tspan></text>
<text transform="matrix(1 0 0 1 2.9304 22.6811)"><tspan x="0" y="0" fill="#1D1D1B" font-family="'ArialMT'" font-size="2.6865">CLG-0</tspan><tspan x="7.9" y="0" fill="#1D1D1B" font-family="'ArialMT'" font-size="2.6865" letter-spacing="4">2</tspan><tspan x="13.5" y="0" fill="#1D1D1B" font-family="'ArialMT'" font-size="2.6865">Suspended moisture resistant plasterboard ceiling</tspan></text>
<text transform="matrix(1 0 0 1 107.2196 22.6811)"><tspan x="0" y="0" fill="#1D1D1B" font-family="'ArialMT'" font-size="2.6865">Suspended Ceiling</tspan><tspan x="22.6" y="0" fill="#1D1D1B" font-family="'ArialMT'" font-size="2.6865" letter-spacing="12">s</tspan><tspan x="36" y="0" fill="#1D1D1B" font-family="'ArialMT'" font-size="2.6865">05-05</tspan><tspan x="42.9" y="0" fill="#1D1D1B" font-family="'ArialMT'" font-size="2.6865" letter-spacing="11">0</tspan><tspan x="55.8" y="0" fill="#1D1D1B" font-family="'ArialMT'" font-size="2.6865">CLG-0</tspan><tspan x="63.7" y="0" fill="#1D1D1B" font-family="'ArialMT'" font-size="2.6865" letter-spacing="4">8</tspan><tspan x="69.3" y="0" fill="#1D1D1B" font-family="'ArialMT'" font-size="2.6865">Suspended acoustic tile ceiling - 40CAC</tspan></text>
<text transform="matrix(1 0 0 1 267.3409 22.6811)" fill="#1D1D1B" font-family="'ArialMT'" font-size="2.6865">Sus</text>
<text transform="matrix(1 0 0 1 271.9959 22.6811)"><tspan x="0" y="0" fill="#1D1D1B" font-family="'ArialMT'" font-size="2.6865">pended Ceiling</tspan><tspan x="17.9" y="0" fill="#1D1D1B" font-family="'ArialMT'" font-size="2.6865" letter-spacing="12">s</tspan><tspan x="31.4" y="0" fill="#1D1D1B" font-family="'ArialMT'" font-size="2.6865">05-050</tspan></text>
<text transform="matrix(1 0 0 1 2.9304 26.6838)"><tspan x="0" y="0" fill="#1D1D1B" font-family="'ArialMT'" font-size="2.6865">CLG-0</tspan><tspan x="7.9" y="0" fill="#1D1D1B" font-family="'ArialMT'" font-size="2.6865" letter-spacing="4">3</tspan><tspan x="13.5" y="0" fill="#1D1D1B" font-family="'ArialMT'" font-size="2.6865">Suspended Plasterboard Ceiling - Curved Profile</tspan></text>
<text transform="matrix(1 0 0 1 107.1122 26.6838)"><tspan x="0" y="0" fill="#1D1D1B" font-family="'ArialMT'" font-size="2.6865">Suspended Ceiling</tspan><tspan x="22.6" y="0" fill="#1D1D1B" font-family="'ArialMT'" font-size="2.6865" letter-spacing="12">s</tspan><tspan x="36" y="0" fill="#1D1D1B" font-family="'ArialMT'" font-size="2.6865">05-05</tspan><tspan x="42.9" y="0" fill="#1D1D1B" font-family="'ArialMT'" font-size="2.6865" letter-spacing="11">0</tspan><tspan x="55.9" y="0" fill="#1D1D1B" font-family="'ArialMT'" font-size="2.6865">CLG-0</tspan><tspan x="63.8" y="0" fill="#1D1D1B" font-family="'ArialMT'" font-size="2.6865" letter-spacing="4">9</tspan><tspan x="69.4" y="0" fill="#1D1D1B" font-family="'ArialMT'" font-size="2.6865">Suspended moisture resistant plasterboard ce</tspan></text>
<text transform="matrix(1 0 0 1 231.3555 26.6838)" fill="#1D1D1B" font-family="'ArialMT'" font-size="2.6865">iling</text>
<text transform="matrix(1 0 0 1 267.3623 26.6838)"><tspan x="0" y="0" fill="#1D1D1B" font-family="'ArialMT'" font-size="2.6865">Suspended Ceiling</tspan><tspan x="22.6" y="0" fill="#1D1D1B" font-family="'ArialMT'" font-size="2.6865" letter-spacing="12">s</tspan><tspan x="35.9" y="0" fill="#1D1D1B" font-family="'ArialMT'" font-size="2.6865">05-050</tspan></text>
<text transform="matrix(1 0 0 1 2.9304 30.6865)"><tspan x="0" y="0" fill="#1D1D1B" font-family="'ArialMT'" font-size="2.6865">CLG-0</tspan><tspan x="7.9" y="0" fill="#1D1D1B" font-family="'ArialMT'" font-size="2.6865" letter-spacing="4">4</tspan><tspan x="13.5" y="0" fill="#1D1D1B" font-family="'ArialMT'" font-size="2.6865">Suspended acoustic tile ceiling - 40CAC</tspan></text>
<text transform="matrix(1 0 0 1 107.2201 30.6865)"><tspan x="0" y="0" fill="#1D1D1B" font-family="'ArialMT'" font-size="2.6865">Suspended Ceiling</tspan><tspan x="22.6" y="0" fill="#1D1D1B" font-family="'ArialMT'" font-size="2.6865" letter-spacing="12">s</tspan><tspan x="36" y="0" fill="#1D1D1B" font-family="'ArialMT'" font-size="2.6865">05-05</tspan><tspan x="42.9" y="0" fill="#1D1D1B" font-family="'ArialMT'" font-size="2.6865" letter-spacing="11">0</tspan><tspan x="55.8" y="0" fill="#1D1D1B" font-family="'ArialMT'" font-size="2.6865">CLG-1</tspan><tspan x="63.7" y="0" fill="#1D1D1B" font-family="'ArialMT'" font-size="2.6865" letter-spacing="4">0</tspan><tspan x="69.3" y="0" fill="#1D1D1B" font-family="'ArialMT'" font-size="2.6865">Suspended acoustic tile ceiling - Hygenic - 40CAC</tspan></text>
<text transform="matrix(1 0 0 1 267.2335 30.6865)" fill="#1D1D1B" font-family="'ArialMT'" font-size="2.6865">Sus</text>
<text transform="matrix(1 0 0 1 271.8885 30.6865)"><tspan x="0" y="0" fill="#1D1D1B" font-family="'ArialMT'" font-size="2.6865">pended Ceiling</tspan><tspan x="17.9" y="0" fill="#1D1D1B" font-family="'ArialMT'" font-size="2.6865" letter-spacing="12">s</tspan><tspan x="31.5" y="0" fill="#1D1D1B" font-family="'ArialMT'" font-size="2.6865">05-050</tspan></text>
<text transform="matrix(1 0 0 1 2.9304 34.6896)"><tspan x="0" y="0" fill="#1D1D1B" font-family="'ArialMT'" font-size="2.6865">CLG-0</tspan><tspan x="7.9" y="0" fill="#1D1D1B" font-family="'ArialMT'" font-size="2.6865" letter-spacing="4">5</tspan><tspan x="13.5" y="0" fill="#1D1D1B" font-family="'ArialMT'" font-size="2.6865">Suspended acoustic tile ceiling - Hygenic - 40CAC</tspan></text>
<text transform="matrix(1 0 0 1 107.1149 34.6896)"><tspan x="0" y="0" fill="#1D1D1B" font-family="'ArialMT'" font-size="2.6865">Suspended Ceiling</tspan><tspan x="22.6" y="0" fill="#1D1D1B" font-family="'ArialMT'" font-size="2.6865" letter-spacing="12">s</tspan><tspan x="36" y="0" fill="#1D1D1B" font-family="'ArialMT'" font-size="2.6865">05-05</tspan><tspan x="42.9" y="0" fill="#1D1D1B" font-family="'ArialMT'" font-size="2.6865" letter-spacing="11">0</tspan><tspan x="55.9" y="0" fill="#1D1D1B" font-family="'ArialMT'" font-size="2.6865">CLG-1</tspan><tspan x="63.8" y="0" fill="#1D1D1B" font-family="'ArialMT'" font-size="2.6865" letter-spacing="4">1</tspan><tspan x="69.4" y="0" fill="#1D1D1B" font-family="'ArialMT'" font-size="2.6865">Suspended plasterboard ceiling</tspan></text>
<text transform="matrix(1 0 0 1 267.2361 34.6896)" fill="#1D1D1B" font-family="'ArialMT'" font-size="2.6865">Suspended Ce</text>
<text transform="matrix(1 0 0 1 285.0368 34.6896)"><tspan x="0" y="0" fill="#1D1D1B" font-family="'ArialMT'" font-size="2.6865">iling</tspan><tspan x="4.8" y="0" fill="#1D1D1B" font-family="'ArialMT'" font-size="2.6865" letter-spacing="12">s</tspan><tspan x="18.3" y="0" fill="#1D1D1B" font-family="'ArialMT'" font-size="2.6865">05-050</tspan></text>
<text transform="matrix(1 0 0 1 2.9326 38.6928)"><tspan x="0" y="0" fill="#1D1D1B" font-family="'ArialMT'" font-size="2.6865">CLG-0</tspan><tspan x="7.9" y="0" fill="#1D1D1B" font-family="'ArialMT'" font-size="2.6865" letter-spacing="4">6</tspan><tspan x="13.5" y="0" fill="#1D1D1B" font-family="'ArialMT'" font-size="2.6865">External soffit lining</tspan></text>
<text transform="matrix(1 0 0 1 107.2282 38.6928)"><tspan x="0" y="0" fill="#1D1D1B" font-family="'ArialMT'" font-size="2.6865">Suspended Ceiling</tspan><tspan x="22.6" y="0" fill="#1D1D1B" font-family="'ArialMT'" font-size="2.6865" letter-spacing="12">s</tspan><tspan x="36" y="0" fill="#1D1D1B" font-family="'ArialMT'" font-size="2.6865">05-05</tspan><tspan x="42.9" y="0" fill="#1D1D1B" font-family="'ArialMT'" font-size="2.6865" letter-spacing="11">0</tspan><tspan x="55.8" y="0" fill="#1D1D1B" font-family="'ArialMT'" font-size="2.6865">CLG-1</tspan><tspan x="63.7" y="0" fill="#1D1D1B" font-family="'ArialMT'" font-size="2.6865" letter-spacing="4">2</tspan><tspan x="69.3" y="0" fill="#1D1D1B" font-family="'ArialMT'" font-size="2.6865">Suspended Plasterboard Ceiling - Curved Profile</tspan></text>
<text transform="matrix(1 0 0 1 267.2411 38.6928)"><tspan x="0" y="0" fill="#1D1D1B" font-family="'ArialMT'" font-size="2.6865">Suspended Ceiling</tspan><tspan x="22.6" y="0" fill="#1D1D1B" font-family="'ArialMT'" font-size="2.6865" letter-spacing="12">s</tspan><tspan x="36.1" y="0" fill="#1D1D1B" font-family="'ArialMT'" font-size="2.6865">05-0</tspan></text>
<text transform="matrix(1 0 0 1 308.7773 38.6928)" fill="#1D1D1B" font-family="'ArialMT'" font-size="2.6865">50</text>
<g>
	<text transform="matrix(1 0 0 1 146.9509 42.6955)" fill="#1D1D1B" font-family="'ArialMT'" font-size="2.6865">.</text>
	<text transform="matrix(1 0 0 1 118.6107 42.6955)" fill="#1D1D1B" font-family="'ArialMT'" font-size="2.6865">.</text>
</g>
<g>
	<defs>
		<rect id="SVGID_9_" x="0.1" y="0" width="319.4" height="65"/>
	</defs>
	<clipPath id="SVGID_10_">
		<use xlink:href="#SVGID_9_"  overflow="visible"/>
	</clipPath>
	<g clip-path="url(#SVGID_10_)">
		<text transform="matrix(1 0 0 1 307.085 42.6992)" fill="#1D1D1B" font-family="'ArialMT'" font-size="2.6865">.</text>
		<text transform="matrix(1 0 0 1 278.7448 42.6992)" fill="#1D1D1B" font-family="'ArialMT'" font-size="2.6865">.</text>
	</g>
</g>
<text transform="matrix(1 0 0 1 16.4149 46.7551)" fill="#1D1D1B" font-family="'Arial-BoldMT'" font-size="2.6865">Concrete Finishes</text>
<text transform="matrix(1 0 0 1 118.6074 46.7551)" fill="#1D1D1B" font-family="'Arial-BoldMT'" font-size="2.6865">.</text>
<text transform="matrix(1 0 0 1 146.9471 46.7551)" fill="#1D1D1B" font-family="'Arial-BoldMT'" font-size="2.6865">.</text>
<text transform="matrix(1 0 0 1 176.5527 46.7551)" fill="#1D1D1B" font-family="'Arial-BoldMT'" font-size="2.6865">Concrete Finishes</text>
<text transform="matrix(1 0 0 1 278.7442 46.7551)" fill="#1D1D1B" font-family="'Arial-BoldMT'" font-size="2.6865">.</text>
<text transform="matrix(1 0 0 1 307.0839 46.7551)" fill="#1D1D1B" font-family="'Arial-BoldMT'" font-size="2.6865">.</text>
<g>
	<text transform="matrix(1 0 0 1 146.9444 50.7062)" fill="#1D1D1B" font-family="'ArialMT'" font-size="2.6865">.</text>
	<text transform="matrix(1 0 0 1 118.6042 50.7062)" fill="#1D1D1B" font-family="'ArialMT'" font-size="2.6865">.</text>
</g>
<g>
	<defs>
		<rect id="SVGID_11_" x="0.1" y="0" width="319.4" height="65"/>
	</defs>
	<clipPath id="SVGID_12_">
		<use xlink:href="#SVGID_11_"  overflow="visible"/>
	</clipPath>
	<g clip-path="url(#SVGID_12_)">
		<text transform="matrix(1 0 0 1 307.085 50.7057)" fill="#1D1D1B" font-family="'ArialMT'" font-size="2.6865">.</text>
		<text transform="matrix(1 0 0 1 278.7448 50.7057)" fill="#1D1D1B" font-family="'ArialMT'" font-size="2.6865">.</text>
	</g>
</g>
<text transform="matrix(1 0 0 1 16.4149 54.762)" fill="#1D1D1B" font-family="'Arial-BoldMT'" font-size="2.6865">External wall finishes</text>
<text transform="matrix(1 0 0 1 118.6101 54.762)" fill="#1D1D1B" font-family="'Arial-BoldMT'" font-size="2.6865">.</text>
<text transform="matrix(1 0 0 1 146.9492 54.762)" fill="#1D1D1B" font-family="'Arial-BoldMT'" font-size="2.6865">.</text>
<text transform="matrix(1 0 0 1 176.5554 54.762)" fill="#1D1D1B" font-family="'Arial-BoldMT'" font-size="2.6865">External wall finishes</text>
<text transform="matrix(1 0 0 1 278.7491 54.762)" fill="#1D1D1B" font-family="'Arial-BoldMT'" font-size="2.6865">.</text>
<text transform="matrix(1 0 0 1 307.0888 54.762)" fill="#1D1D1B" font-family="'Arial-BoldMT'" font-size="2.6865">.</text>
<text transform="matrix(1 0 0 1 2.9315 58.7136)"><tspan x="0" y="0" fill="#1D1D1B" font-family="'ArialMT'" font-size="2.6865">CLAD-0</tspan><tspan x="9.6" y="0" fill="#1D1D1B" font-family="'ArialMT'" font-size="2.6865" letter-spacing="2">1</tspan><tspan x="13.5" y="0" fill="#1D1D1B" font-family="'ArialMT'" font-size="2.6865">Metal sheet cladding</tspan></text>
<text transform="matrix(1 0 0 1 110.7546 58.7136)" fill="#1D1D1B" font-family="'ArialMT'" font-size="2.6865">Metal Roofing</text>
<text transform="matrix(1 0 0 1 143.1484 58.7136)"><tspan x="0" y="0" fill="#1D1D1B" font-family="'ArialMT'" font-size="2.6865">04-20</tspan><tspan x="6.9" y="0" fill="#1D1D1B" font-family="'ArialMT'" font-size="2.6865" letter-spacing="11">3</tspan><tspan x="19.9" y="0" fill="#1D1D1B" font-family="'ArialMT'" font-size="2.6865">CLAD-0</tspan><tspan x="29.5" y="0" fill="#1D1D1B" font-family="'ArialMT'" font-size="2.6865" letter-spacing="2">9</tspan><tspan x="33.4" y="0" fill="#1D1D1B" font-family="'ArialMT'" font-size="2.6865">Insulated Wall System Cladding</tspan></text>
<text transform="matrix(1 0 0 1 270.8807 58.7136)" fill="#1D1D1B" font-family="'ArialMT'" font-size="2.6865">Metal Roofing</text>
<text transform="matrix(1 0 0 1 303.2741 58.7136)" fill="#1D1D1B" font-family="'ArialMT'" font-size="2.6865">04-203</text>
<text transform="matrix(1 0 0 1 2.9315 62.7168)"><tspan x="0" y="0" fill="#1D1D1B" font-family="'ArialMT'" font-size="2.6865">CLAD-0</tspan><tspan x="9.6" y="0" fill="#1D1D1B" font-family="'ArialMT'" font-size="2.6865" letter-spacing="2">2</tspan><tspan x="13.5" y="0" fill="#1D1D1B" font-family="'ArialMT'" font-size="2.6865">Insulated Wall System Cladding - 80mm</tspan></text>
<text transform="matrix(1 0 0 1 108.9087 62.7168)" fill="#1D1D1B" font-family="'ArialMT'" font-size="2.6865">Façade Cladding</text>
<text transform="matrix(1 0 0 1 146.9363 62.7168)" fill="#1D1D1B" font-family="'ArialMT'" font-size="2.6865">.</text>
<text transform="matrix(1 0 0 1 163.0554 62.7168)"><tspan x="0" y="0" fill="#1D1D1B" font-family="'ArialMT'" font-size="2.6865">CLAD-1</tspan><tspan x="9.6" y="0" fill="#1D1D1B" font-family="'ArialMT'" font-size="2.6865" letter-spacing="2">0</tspan><tspan x="13.5" y="0" fill="#1D1D1B" font-family="'ArialMT'" font-size="2.6865">Aluminium Composite Cladding</tspan></text>
<text transform="matrix(1 0 0 1 269.03 62.7168)" fill="#1D1D1B" font-family="'ArialMT'" font-size="2.6865">Façade Cladding</text>
<g>
	<defs>
		<rect id="SVGID_13_" x="0.1" y="0" width="319.4" height="65"/>
	</defs>
	<clipPath id="SVGID_14_">
		<use xlink:href="#SVGID_13_"  overflow="visible"/>
	</clipPath>
	<g clip-path="url(#SVGID_14_)">
		<text transform="matrix(1 0 0 1 2.9304 66.7195)"><tspan x="0" y="0" fill="#1D1D1B" font-family="'ArialMT'" font-size="2.6865">CLAD-0</tspan><tspan x="9.6" y="0" fill="#1D1D1B" font-family="'ArialMT'" font-size="2.6865" letter-spacing="2">3</tspan><tspan x="13.5" y="0" fill="#1D1D1B" font-family="'ArialMT'" font-size="2.6865">Insulated Wall System Cladding - 38mm</tspan></text>
	</g>
	<g clip-path="url(#SVGID_14_)">
		<text transform="matrix(1 0 0 1 108.9071 66.7195)" fill="#1D1D1B" font-family="'ArialMT'" font-size="2.6865">Façade Cladding</text>
	</g>
	<g clip-path="url(#SVGID_14_)">
		<text transform="matrix(1 0 0 1 146.9342 66.7195)" fill="#1D1D1B" font-family="'ArialMT'" font-size="2.6865">.</text>
	</g>
	<g clip-path="url(#SVGID_14_)">
		<text transform="matrix(1 0 0 1 163.0537 66.7195)"><tspan x="0" y="0" fill="#1D1D1B" font-family="'ArialMT'" font-size="2.6865">CLAD-1</tspan><tspan x="9.6" y="0" fill="#1D1D1B" font-family="'ArialMT'" font-size="2.6865" letter-spacing="2">1</tspan><tspan x="13.5" y="0" fill="#1D1D1B" font-family="'ArialMT'" font-size="2.6865">Fibre Cement sheet cladding</tspan></text>
	</g>
	<g clip-path="url(#SVGID_14_)">
		<text transform="matrix(1 0 0 1 269.031 66.7195)" fill="#1D1D1B" font-family="'ArialMT'" font-size="2.6865">Façade Cladding</text>
	</g>
</g>
<rect x="2.6" y="0" fill="#1D1D1B" width="156.8" height="0.1"/>
<rect x="2.6" y="3.8" fill="#1D1D1B" width="156.8" height="0.3"/>
<rect x="2.6" y="7.8" fill="#1D1D1B" width="156.8" height="0.3"/>
<rect x="2.6" y="11.8" fill="#1D1D1B" width="156.8" height="0.3"/>
<rect x="2.6" y="15.8" fill="#1D1D1B" width="156.8" height="0.3"/>
<rect x="2.6" y="19.8" fill="#1D1D1B" width="156.8" height="0.3"/>
<rect x="2.6" y="23.8" fill="#1D1D1B" width="156.8" height="0.3"/>
<rect x="2.6" y="27.8" fill="#1D1D1B" width="156.8" height="0.3"/>
<rect x="2.6" y="31.8" fill="#1D1D1B" width="156.8" height="0.3"/>
<rect x="2.6" y="35.8" fill="#1D1D1B" width="156.8" height="0.3"/>
<rect x="2.6" y="39.9" fill="#1D1D1B" width="156.8" height="0.3"/>
<rect x="2.6" y="43.9" fill="#1D1D1B" width="156.8" height="0.3"/>
<rect x="2.6" y="47.9" fill="#1D1D1B" width="156.8" height="0.3"/>
<rect x="2.6" y="51.9" fill="#1D1D1B" width="156.8" height="0.3"/>
<rect x="2.6" y="55.9" fill="#1D1D1B" width="156.8" height="0.3"/>
<rect x="2.6" y="59.9" fill="#1D1D1B" width="156.8" height="0.3"/>
<rect x="2.6" y="63.9" fill="#1D1D1B" width="156.8" height="0.3"/>
<rect x="2.3" y="0" fill="#1D1D1B" width="0.3" height="65"/>
<rect x="15.8" y="0" fill="#1D1D1B" width="0.3" height="65"/>
<rect x="102.4" y="0" fill="#1D1D1B" width="0.3" height="65"/>
<rect x="135.3" y="0" fill="#1D1D1B" width="0.3" height="65"/>
<rect x="159.1" y="0" fill="#1D1D1B" width="0.3" height="65"/>
<rect x="162.4" y="0" fill="#1D1D1B" width="0.3" height="65"/>
<rect x="175.9" y="0" fill="#1D1D1B" width="0.3" height="65"/>
<rect x="262.5" y="0" fill="#1D1D1B" width="0.3" height="65"/>
<rect x="295.4" y="0" fill="#1D1D1B" width="0.3" height="65"/>
<rect x="319.2" y="0" fill="#1D1D1B" width="0.3" height="65"/>
<rect x="162.7" y="0" fill="#1D1D1B" width="156.8" height="0.1"/>
<rect x="162.7" y="3.8" fill="#1D1D1B" width="156.8" height="0.3"/>
<rect x="162.7" y="7.8" fill="#1D1D1B" width="156.8" height="0.3"/>
<rect x="162.7" y="11.8" fill="#1D1D1B" width="156.8" height="0.3"/>
<rect x="162.7" y="15.8" fill="#1D1D1B" width="156.8" height="0.3"/>
<rect x="162.7" y="19.8" fill="#1D1D1B" width="156.8" height="0.3"/>
<rect x="162.7" y="23.8" fill="#1D1D1B" width="156.8" height="0.3"/>
<rect x="162.7" y="27.8" fill="#1D1D1B" width="156.8" height="0.3"/>
<rect x="162.7" y="31.8" fill="#1D1D1B" width="156.8" height="0.3"/>
<rect x="162.7" y="35.8" fill="#1D1D1B" width="156.8" height="0.3"/>
<rect x="162.7" y="39.9" fill="#1D1D1B" width="156.8" height="0.3"/>
<rect x="162.7" y="43.9" fill="#1D1D1B" width="156.8" height="0.3"/>
<rect x="162.7" y="47.9" fill="#1D1D1B" width="156.8" height="0.3"/>
<rect x="162.7" y="51.9" fill="#1D1D1B" width="156.8" height="0.3"/>
<rect x="162.7" y="55.9" fill="#1D1D1B" width="156.8" height="0.3"/>
<rect x="162.7" y="59.9" fill="#1D1D1B" width="156.8" height="0.3"/>
<rect x="162.7" y="63.9" fill="#1D1D1B" width="156.8" height="0.3"/>
</svg>
