<?xml version="1.0" encoding="utf-8"?>
<!-- Generator: Adobe Illustrator 18.1.1, SVG Export Plug-In . SVG Version: 6.00 Build 0)  -->
<svg version="1.1" id="Layer_1" xmlns="http://www.w3.org/2000/svg" xmlns:xlink="http://www.w3.org/1999/xlink" x="0px" y="0px"
	 viewBox="0 0 320 65" enable-background="new 0 0 320 65" xml:space="preserve">
<rect y="0" fill="#FFFFFF" width="320.3" height="65"/>
<rect x="2.6" y="0" fill="#C5D9F1" width="156.7" height="4"/>
<rect x="162.5" y="0" fill="#C5D9F1" width="156.8" height="4"/>
<rect x="2.6" y="15.9" fill="#C5D9F1" width="156.7" height="4.1"/>
<rect x="162.5" y="15.9" fill="#C5D9F1" width="156.8" height="4.1"/>
<rect x="2.6" y="56" fill="#C5D9F1" width="156.7" height="4.1"/>
<rect x="162.5" y="56" fill="#C5D9F1" width="156.8" height="4.1"/>
<rect x="2.6" y="64.2" fill="#C5D9F1" width="156.7" height="0.8"/>
<rect x="162.5" y="64.2" fill="#C5D9F1" width="156.8" height="0.8"/>
<g>
	<defs>
		<rect id="SVGID_1_" x="0.1" y="0" width="319.4" height="65"/>
	</defs>
	<clipPath id="SVGID_2_">
		<use xlink:href="#SVGID_1_"  overflow="visible"/>
	</clipPath>
	<g clip-path="url(#SVGID_2_)">
		<text transform="matrix(1 0 0 1 2.9296 -9.3508)"><tspan x="0" y="0" font-family="'ArialMT'" font-size="2.6865">LV0</tspan><tspan x="4.8" y="0" font-family="'ArialMT'" font-size="2.6865" letter-spacing="7">2</tspan><tspan x="13.5" y="0" font-family="'ArialMT'" font-size="2.6865">Operable Weather Louvres</tspan></text>
	</g>
	<g clip-path="url(#SVGID_2_)">
		<text transform="matrix(1 0 0 1 109.651 -9.2976)" font-family="'ArialMT'" font-size="2.6865">Façade Glazing</text>
	</g>
	<g clip-path="url(#SVGID_2_)">
		<text transform="matrix(1 0 0 1 163.0637 -9.3508)"><tspan x="0" y="0" font-family="'ArialMT'" font-size="2.6865">LV0</tspan><tspan x="4.8" y="0" font-family="'ArialMT'" font-size="2.6865" letter-spacing="7">2</tspan><tspan x="13.5" y="0" font-family="'ArialMT'" font-size="2.6865">Operable Weather Louvres</tspan></text>
	</g>
	<g clip-path="url(#SVGID_2_)">
		<text transform="matrix(1 0 0 1 269.7878 -9.2976)" font-family="'ArialMT'" font-size="2.6865">Façade Glazing</text>
	</g>
	<g clip-path="url(#SVGID_2_)">
		<text transform="matrix(1 0 0 1 2.9296 -5.3455)"><tspan x="0" y="0" font-family="'ArialMT'" font-size="2.6865">LV0</tspan><tspan x="4.8" y="0" font-family="'ArialMT'" font-size="2.6865" letter-spacing="7">3</tspan><tspan x="13.5" y="0" font-family="'ArialMT'" font-size="2.6865">Aluminium Louver to ACTEW&apos;s Requirements </tspan></text>
	</g>
	<g clip-path="url(#SVGID_2_)">
		<text transform="matrix(1 0 0 1 109.753 -5.3455)" font-family="'ArialMT'" font-size="2.6865">Façade Glazing</text>
	</g>
	<g clip-path="url(#SVGID_2_)">
		<text transform="matrix(1 0 0 1 163.0584 -5.3455)"><tspan x="0" y="0" font-family="'ArialMT'" font-size="2.6865">LV0</tspan><tspan x="4.8" y="0" font-family="'ArialMT'" font-size="2.6865" letter-spacing="7">3</tspan><tspan x="13.5" y="0" font-family="'ArialMT'" font-size="2.6865">Aluminium Louver to ACTEW&apos;s Requirements </tspan></text>
	</g>
	<g clip-path="url(#SVGID_2_)">
		<text transform="matrix(1 0 0 1 269.8817 -5.3455)" font-family="'ArialMT'" font-size="2.6865">Façade Glazing</text>
	</g>
	<g clip-path="url(#SVGID_2_)">
		<text transform="matrix(1 0 0 1 16.4157 2.7136)" font-family="'Arial-BoldMT'" font-size="2.6865">Operable Walls</text>
	</g>
	<g clip-path="url(#SVGID_2_)">
		<text transform="matrix(1 0 0 1 118.6104 2.7136)" font-family="'Arial-BoldMT'" font-size="2.6865">.</text>
	</g>
	<g clip-path="url(#SVGID_2_)">
		<text transform="matrix(1 0 0 1 146.9505 2.7136)" font-family="'Arial-BoldMT'" font-size="2.6865">.</text>
	</g>
	<g clip-path="url(#SVGID_2_)">
		<text transform="matrix(1 0 0 1 176.5557 2.7136)" font-family="'Arial-BoldMT'" font-size="2.6865">Operable Walls</text>
	</g>
	<g clip-path="url(#SVGID_2_)">
		<text transform="matrix(1 0 0 1 278.7499 2.7136)" font-family="'Arial-BoldMT'" font-size="2.6865">.</text>
	</g>
	<g clip-path="url(#SVGID_2_)">
		<text transform="matrix(1 0 0 1 307.0896 2.7136)" font-family="'Arial-BoldMT'" font-size="2.6865">.</text>
	</g>
</g>
<text transform="matrix(1 0 0 1 2.9301 6.663)"><tspan x="0" y="0" font-family="'ArialMT'" font-size="2.6865">OW-0</tspan><tspan x="7" y="0" font-family="'ArialMT'" font-size="2.6865" letter-spacing="4">1</tspan><tspan x="13.5" y="0" font-family="'ArialMT'" font-size="2.6865">Operable Wall - Solid</tspan></text>
<text transform="matrix(1 0 0 1 109.9119 6.663)" font-family="'ArialMT'" font-size="2.6865">Operable Walls</text>
<text transform="matrix(1 0 0 1 143.254 6.663)"><tspan x="0" y="0" font-family="'ArialMT'" font-size="2.6865">05-18</tspan><tspan x="6.9" y="0" font-family="'ArialMT'" font-size="2.6865" letter-spacing="11">0</tspan><tspan x="19.8" y="0" font-family="'ArialMT'" font-size="2.6865">OW-0</tspan><tspan x="26.8" y="0" font-family="'ArialMT'" font-size="2.6865" letter-spacing="4">1</tspan><tspan x="33.3" y="0" font-family="'ArialMT'" font-size="2.6865">Operable Wall - Solid</tspan></text>
<text transform="matrix(1 0 0 1 270.0407 6.663)" font-family="'ArialMT'" font-size="2.6865">Operable Walls</text>
<text transform="matrix(1 0 0 1 303.3827 6.663)" font-family="'ArialMT'" font-size="2.6865">05-180</text>
<text transform="matrix(1 0 0 1 2.9301 10.6652)"><tspan x="0" y="0" font-family="'ArialMT'" font-size="2.6865">OW-0</tspan><tspan x="7" y="0" font-family="'ArialMT'" font-size="2.6865" letter-spacing="4">2</tspan><tspan x="13.5" y="0" font-family="'ArialMT'" font-size="2.6865">Operable Wall - Glass</tspan></text>
<text transform="matrix(1 0 0 1 109.9146 10.6652)" font-family="'ArialMT'" font-size="2.6865">Operable Walls</text>
<text transform="matrix(1 0 0 1 143.2567 10.6652)"><tspan x="0" y="0" font-family="'ArialMT'" font-size="2.6865">05-18</tspan><tspan x="6.9" y="0" font-family="'ArialMT'" font-size="2.6865" letter-spacing="11">0</tspan><tspan x="19.8" y="0" font-family="'ArialMT'" font-size="2.6865">OW-0</tspan><tspan x="26.8" y="0" font-family="'ArialMT'" font-size="2.6865" letter-spacing="4">2</tspan><tspan x="33.3" y="0" font-family="'ArialMT'" font-size="2.6865">Operable Wall - Glass</tspan></text>
<text transform="matrix(1 0 0 1 270.0456 10.6652)" font-family="'ArialMT'" font-size="2.6865">Operable Walls</text>
<text transform="matrix(1 0 0 1 303.3885 10.6652)" font-family="'ArialMT'" font-size="2.6865">05-180</text>
<g>
	<text transform="matrix(1 0 0 1 146.9505 14.6684)" font-family="'ArialMT'" font-size="2.6865">.</text>
	<text transform="matrix(1 0 0 1 118.6109 14.6684)" font-family="'ArialMT'" font-size="2.6865">.</text>
</g>
<g>
	<defs>
		<rect id="SVGID_3_" x="0.1" y="0" width="319.4" height="65"/>
	</defs>
	<clipPath id="SVGID_4_">
		<use xlink:href="#SVGID_3_"  overflow="visible"/>
	</clipPath>
	<g clip-path="url(#SVGID_4_)">
		<text transform="matrix(1 0 0 1 307.0847 14.6695)" font-family="'ArialMT'" font-size="2.6865">.</text>
		<text transform="matrix(1 0 0 1 278.745 14.6695)" font-family="'ArialMT'" font-size="2.6865">.</text>
	</g>
</g>
<text transform="matrix(1 0 0 1 16.4157 18.7258)" font-family="'Arial-BoldMT'" font-size="2.6865">Paint / Clear Finishes</text>
<text transform="matrix(1 0 0 1 118.7145 18.7258)" font-family="'Arial-BoldMT'" font-size="2.6865">.</text>
<text transform="matrix(1 0 0 1 147.0542 18.7258)" font-family="'Arial-BoldMT'" font-size="2.6865">.</text>
<text transform="matrix(1 0 0 1 176.5547 18.7258)" font-family="'Arial-BoldMT'" font-size="2.6865">Paint / Clear Finishes</text>
<text transform="matrix(1 0 0 1 278.8541 18.7258)" font-family="'Arial-BoldMT'" font-size="2.6865">.</text>
<text transform="matrix(1 0 0 1 307.1932 18.7258)" font-family="'Arial-BoldMT'" font-size="2.6865">.</text>
<text transform="matrix(1 0 0 1 2.929 22.6775)"><tspan x="0" y="0" font-family="'ArialMT'" font-size="2.6865">PT-0</tspan><tspan x="5.8" y="0" font-family="'ArialMT'" font-size="2.6865" letter-spacing="6">1</tspan><tspan x="13.5" y="0" font-family="'ArialMT'" font-size="2.6865">Interior Acrylic Paint - Low Sheen</tspan></text>
<text transform="matrix(1 0 0 1 103.2215 22.6775)"><tspan x="0" y="0" font-family="'ArialMT'" font-size="2.6865">Painting and Wall Finishe</tspan><tspan x="30.3" y="0" font-family="'ArialMT'" font-size="2.6865" letter-spacing="8">s</tspan><tspan x="39.9" y="0" font-family="'ArialMT'" font-size="2.6865">05-60</tspan><tspan x="46.8" y="0" font-family="'ArialMT'" font-size="2.6865" letter-spacing="11">0</tspan><tspan x="59.8" y="0" font-family="'ArialMT'" font-size="2.6865">PT-0</tspan><tspan x="65.7" y="0" font-family="'ArialMT'" font-size="2.6865" letter-spacing="6">8</tspan><tspan x="73.3" y="0" font-family="'ArialMT'" font-size="2.6865">Interior Acrylic Paint - Low Sheen</tspan></text>
<text transform="matrix(1 0 0 1 263.3475 22.6775)" font-family="'ArialMT'" font-size="2.6865">Painting and Wall</text>
<text transform="matrix(1 0 0 1 284.2672 22.6775)"><tspan x="0" y="0" font-family="'ArialMT'" font-size="2.6865"> Finishe</tspan><tspan x="9.4" y="0" font-family="'ArialMT'" font-size="2.6865" letter-spacing="8">s</tspan><tspan x="19" y="0" font-family="'ArialMT'" font-size="2.6865">05-606</tspan></text>
<text transform="matrix(1 0 0 1 2.929 26.6806)"><tspan x="0" y="0" font-family="'ArialMT'" font-size="2.6865">PT-0</tspan><tspan x="5.8" y="0" font-family="'ArialMT'" font-size="2.6865" letter-spacing="6">2</tspan><tspan x="13.5" y="0" font-family="'ArialMT'" font-size="2.6865">Interior Acrylic Paint - Low Sheen</tspan></text>
<text transform="matrix(1 0 0 1 103.2215 26.6806)"><tspan x="0" y="0" font-family="'ArialMT'" font-size="2.6865">Painting and Wall Finishe</tspan><tspan x="30.3" y="0" font-family="'ArialMT'" font-size="2.6865" letter-spacing="8">s</tspan><tspan x="40" y="0" font-family="'ArialMT'" font-size="2.6865">05-60</tspan><tspan x="46.9" y="0" font-family="'ArialMT'" font-size="2.6865" letter-spacing="11">0</tspan><tspan x="59.8" y="0" font-family="'ArialMT'" font-size="2.6865">PT-0</tspan><tspan x="65.7" y="0" font-family="'ArialMT'" font-size="2.6865" letter-spacing="6">9</tspan><tspan x="73.3" y="0" font-family="'ArialMT'" font-size="2.6865">Interior Acrylic Paint - Low Sheen</tspan></text>
<text transform="matrix(1 0 0 1 263.3475 26.6806)" font-family="'ArialMT'" font-size="2.6865">Painting and Wall</text>
<text transform="matrix(1 0 0 1 284.2672 26.6806)"><tspan x="0" y="0" font-family="'ArialMT'" font-size="2.6865"> Finishe</tspan><tspan x="9.4" y="0" font-family="'ArialMT'" font-size="2.6865" letter-spacing="8">s</tspan><tspan x="19" y="0" font-family="'ArialMT'" font-size="2.6865">05-607</tspan></text>
<text transform="matrix(1 0 0 1 2.929 30.6833)"><tspan x="0" y="0" font-family="'ArialMT'" font-size="2.6865">PT-0</tspan><tspan x="5.8" y="0" font-family="'ArialMT'" font-size="2.6865" letter-spacing="6">3</tspan><tspan x="13.5" y="0" font-family="'ArialMT'" font-size="2.6865">Interior Acrylic Paint - Low Sheen</tspan></text>
<text transform="matrix(1 0 0 1 103.2215 30.6833)"><tspan x="0" y="0" font-family="'ArialMT'" font-size="2.6865">Painting and Wall Finishe</tspan><tspan x="30.3" y="0" font-family="'ArialMT'" font-size="2.6865" letter-spacing="8">s</tspan><tspan x="39.9" y="0" font-family="'ArialMT'" font-size="2.6865">05-60</tspan><tspan x="46.8" y="0" font-family="'ArialMT'" font-size="2.6865" letter-spacing="11">0</tspan><tspan x="59.8" y="0" font-family="'ArialMT'" font-size="2.6865">PT-1</tspan><tspan x="65.7" y="0" font-family="'ArialMT'" font-size="2.6865" letter-spacing="6">0</tspan><tspan x="73.3" y="0" font-family="'ArialMT'" font-size="2.6865">Interior Acrylic Paint - Low Sheen</tspan></text>
<text transform="matrix(1 0 0 1 263.3475 30.6833)" font-family="'ArialMT'" font-size="2.6865">Painting and Wall</text>
<text transform="matrix(1 0 0 1 284.2672 30.6833)"><tspan x="0" y="0" font-family="'ArialMT'" font-size="2.6865"> Finishe</tspan><tspan x="9.4" y="0" font-family="'ArialMT'" font-size="2.6865" letter-spacing="8">s</tspan><tspan x="19" y="0" font-family="'ArialMT'" font-size="2.6865">05-600</tspan></text>
<text transform="matrix(1 0 0 1 2.929 34.686)"><tspan x="0" y="0" font-family="'ArialMT'" font-size="2.6865">PT-0</tspan><tspan x="5.8" y="0" font-family="'ArialMT'" font-size="2.6865" letter-spacing="6">4</tspan><tspan x="13.5" y="0" font-family="'ArialMT'" font-size="2.6865">Interior Acrylic Paint - Low Sheen</tspan></text>
<text transform="matrix(1 0 0 1 103.2215 34.686)"><tspan x="0" y="0" font-family="'ArialMT'" font-size="2.6865">Painting and Wall Finishe</tspan><tspan x="30.3" y="0" font-family="'ArialMT'" font-size="2.6865" letter-spacing="8">s</tspan><tspan x="39.9" y="0" font-family="'ArialMT'" font-size="2.6865">05-60</tspan><tspan x="46.8" y="0" font-family="'ArialMT'" font-size="2.6865" letter-spacing="11">0</tspan><tspan x="59.8" y="0" font-family="'ArialMT'" font-size="2.6865">PT-1</tspan><tspan x="65.7" y="0" font-family="'ArialMT'" font-size="2.6865" letter-spacing="6">1</tspan><tspan x="73.3" y="0" font-family="'ArialMT'" font-size="2.6865">Interior Acrylic Enamel Paint - Gloss</tspan></text>
<text transform="matrix(1 0 0 1 263.3475 34.686)" font-family="'ArialMT'" font-size="2.6865">Painting and W</text>
<text transform="matrix(1 0 0 1 281.5809 34.686)"><tspan x="0" y="0" font-family="'ArialMT'" font-size="2.6865">all Finishe</tspan><tspan x="12.1" y="0" font-family="'ArialMT'" font-size="2.6865" letter-spacing="8">s</tspan><tspan x="21.7" y="0" font-family="'ArialMT'" font-size="2.6865">05-600</tspan></text>
<text transform="matrix(1 0 0 1 2.929 38.6891)"><tspan x="0" y="0" font-family="'ArialMT'" font-size="2.6865">PT-0</tspan><tspan x="5.8" y="0" font-family="'ArialMT'" font-size="2.6865" letter-spacing="6">5</tspan><tspan x="13.5" y="0" font-family="'ArialMT'" font-size="2.6865">Interior Acrylic Paint - Low Sheen</tspan></text>
<text transform="matrix(1 0 0 1 103.2215 38.6891)"><tspan x="0" y="0" font-family="'ArialMT'" font-size="2.6865">Painting and Wall Finishe</tspan><tspan x="30.3" y="0" font-family="'ArialMT'" font-size="2.6865" letter-spacing="8">s</tspan><tspan x="39.9" y="0" font-family="'ArialMT'" font-size="2.6865">05-60</tspan><tspan x="46.8" y="0" font-family="'ArialMT'" font-size="2.6865" letter-spacing="11">3</tspan><tspan x="59.8" y="0" font-family="'ArialMT'" font-size="2.6865">PT-1</tspan><tspan x="65.7" y="0" font-family="'ArialMT'" font-size="2.6865" letter-spacing="6">3</tspan><tspan x="73.3" y="0" font-family="'ArialMT'" font-size="2.6865">Concrete Floor Sealer</tspan></text>
<text transform="matrix(1 0 0 1 263.3475 38.6891)"><tspan x="0" y="0" font-family="'ArialMT'" font-size="2.6865">Painting and Wall Finishe</tspan><tspan x="30.3" y="0" font-family="'ArialMT'" font-size="2.6865" letter-spacing="8">s</tspan><tspan x="40" y="0" font-family="'ArialMT'" font-size="2.6865">05-6</tspan></text>
<text transform="matrix(1 0 0 1 308.7733 38.6891)" font-family="'ArialMT'" font-size="2.6865">00</text>
<text transform="matrix(1 0 0 1 2.929 42.6918)"><tspan x="0" y="0" font-family="'ArialMT'" font-size="2.6865">PT-0</tspan><tspan x="5.8" y="0" font-family="'ArialMT'" font-size="2.6865" letter-spacing="6">6</tspan><tspan x="13.5" y="0" font-family="'ArialMT'" font-size="2.6865">Interior Acrylic Paint - Low Sheen</tspan></text>
<text transform="matrix(1 0 0 1 103.2215 42.6918)"><tspan x="0" y="0" font-family="'ArialMT'" font-size="2.6865">Painting and Wall Finishe</tspan><tspan x="30.3" y="0" font-family="'ArialMT'" font-size="2.6865" letter-spacing="8">s</tspan><tspan x="39.9" y="0" font-family="'ArialMT'" font-size="2.6865">05-60</tspan><tspan x="46.8" y="0" font-family="'ArialMT'" font-size="2.6865" letter-spacing="11">4</tspan><tspan x="59.8" y="0" font-family="'ArialMT'" font-size="2.6865">PT-1</tspan><tspan x="65.7" y="0" font-family="'ArialMT'" font-size="2.6865" letter-spacing="6">4</tspan><tspan x="73.3" y="0" font-family="'ArialMT'" font-size="2.6865">Paint to External Metalwork</tspan></text>
<text transform="matrix(1 0 0 1 263.3475 42.6918)" font-family="'ArialMT'" font-size="2.6865">Painting and Wall Finish</text>
<text transform="matrix(1 0 0 1 292.1785 42.6918)"><tspan x="0" y="0" font-family="'ArialMT'" font-size="2.6865">e</tspan><tspan x="1.5" y="0" font-family="'ArialMT'" font-size="2.6865" letter-spacing="8">s</tspan><tspan x="11.1" y="0" font-family="'ArialMT'" font-size="2.6865">05-600</tspan></text>
<text transform="matrix(1 0 0 1 2.9264 46.6945)"><tspan x="0" y="0" font-family="'ArialMT'" font-size="2.6865">PT-0</tspan><tspan x="5.8" y="0" font-family="'ArialMT'" font-size="2.6865" letter-spacing="6">7</tspan><tspan x="13.5" y="0" font-family="'ArialMT'" font-size="2.6865">Interior Acrylic Paint - Low Sheen</tspan></text>
<text transform="matrix(1 0 0 1 103.2188 46.6945)"><tspan x="0" y="0" font-family="'ArialMT'" font-size="2.6865">Painting and Wall Finishe</tspan><tspan x="30.3" y="0" font-family="'ArialMT'" font-size="2.6865" letter-spacing="8">s</tspan><tspan x="39.9" y="0" font-family="'ArialMT'" font-size="2.6865">05-60</tspan><tspan x="46.8" y="0" font-family="'ArialMT'" font-size="2.6865" letter-spacing="11">0</tspan><tspan x="59.8" y="0" font-family="'ArialMT'" font-size="2.6865">PT-1</tspan><tspan x="65.7" y="0" font-family="'ArialMT'" font-size="2.6865" letter-spacing="6">5</tspan><tspan x="73.3" y="0" font-family="'ArialMT'" font-size="2.6865">Line Marking Paint </tspan></text>
<text transform="matrix(1 0 0 1 263.3444 46.6945)"><tspan x="0" y="0" font-family="'ArialMT'" font-size="2.6865">Painting and Wall Finishe</tspan><tspan x="30.3" y="0" font-family="'ArialMT'" font-size="2.6865" letter-spacing="8">s</tspan><tspan x="39.9" y="0" font-family="'ArialMT'" font-size="2.6865">05-600</tspan></text>
<text transform="matrix(1 0 0 1 118.6039 50.6982)" font-family="'ArialMT'" font-size="2.6865">.</text>
<text transform="matrix(1 0 0 1 146.9441 50.6982)" font-family="'ArialMT'" font-size="2.6865">.</text>
<text transform="matrix(1 0 0 1 163.0632 50.6982)"><tspan x="0" y="0" font-family="'ArialMT'" font-size="2.6865">PT-1</tspan><tspan x="5.8" y="0" font-family="'ArialMT'" font-size="2.6865" letter-spacing="6">6</tspan><tspan x="13.5" y="0" font-family="'ArialMT'" font-size="2.6865">Write-on Wall Paint</tspan></text>
<text transform="matrix(1 0 0 1 263.3583 50.6982)"><tspan x="0" y="0" font-family="'ArialMT'" font-size="2.6865">Painting and Wall Finishe</tspan><tspan x="30.3" y="0" font-family="'ArialMT'" font-size="2.6865" letter-spacing="8">s</tspan><tspan x="39.9" y="0" font-family="'ArialMT'" font-size="2.6865">05-600</tspan></text>
<g>
	<text transform="matrix(1 0 0 1 146.9441 54.7003)" font-family="'ArialMT'" font-size="2.6865">.</text>
	<text transform="matrix(1 0 0 1 118.6039 54.7003)" font-family="'ArialMT'" font-size="2.6865">.</text>
</g>
<g>
	<defs>
		<rect id="SVGID_5_" x="0.1" y="0" width="319.4" height="65"/>
	</defs>
	<clipPath id="SVGID_6_">
		<use xlink:href="#SVGID_5_"  overflow="visible"/>
	</clipPath>
	<g clip-path="url(#SVGID_6_)">
		<text transform="matrix(1 0 0 1 307.0847 54.7046)" font-family="'ArialMT'" font-size="2.6865">.</text>
		<text transform="matrix(1 0 0 1 278.745 54.7046)" font-family="'ArialMT'" font-size="2.6865">.</text>
	</g>
</g>
<text transform="matrix(1 0 0 1 16.4151 58.7599)" font-family="'Arial-BoldMT'" font-size="2.6865">Panelling / Cubicles</text>
<text transform="matrix(1 0 0 1 118.6098 58.7599)" font-family="'Arial-BoldMT'" font-size="2.6865">.</text>
<text transform="matrix(1 0 0 1 147.0542 58.7599)" font-family="'Arial-BoldMT'" font-size="2.6865">.</text>
<text transform="matrix(1 0 0 1 176.5547 58.7599)" font-family="'Arial-BoldMT'" font-size="2.6865">Panelling / Cubicles</text>
<text transform="matrix(1 0 0 1 278.7488 58.7599)" font-family="'Arial-BoldMT'" font-size="2.6865">.</text>
<text transform="matrix(1 0 0 1 307.1932 58.7599)" font-family="'Arial-BoldMT'" font-size="2.6865">.</text>
<g>
	<text transform="matrix(1 0 0 1 146.9441 62.7115)" font-family="'ArialMT'" font-size="2.6865">.</text>
	<text transform="matrix(1 0 0 1 118.6039 62.7115)" font-family="'ArialMT'" font-size="2.6865">.</text>
</g>
<g>
	<defs>
		<rect id="SVGID_7_" x="0.1" y="0" width="319.4" height="65"/>
	</defs>
	<clipPath id="SVGID_8_">
		<use xlink:href="#SVGID_7_"  overflow="visible"/>
	</clipPath>
	<g clip-path="url(#SVGID_8_)">
		<text transform="matrix(1 0 0 1 296.0206 63.2372)" font-family="'Calibri'" font-size="2.9499">.</text>
		<text transform="matrix(1 0 0 1 263.1523 63.2372)" font-family="'Calibri'" font-size="2.9499">.</text>
	</g>
	<g clip-path="url(#SVGID_8_)">
		<text transform="matrix(1 0 0 1 16.4151 67.2409)" font-family="'Arial-BoldMT'" font-size="2.6865">Paving</text>
	</g>
	<g clip-path="url(#SVGID_8_)">
		<text transform="matrix(1 0 0 1 118.6061 67.031)" font-family="'Arial-BoldMT'" font-size="2.6865">.</text>
	</g>
	<g clip-path="url(#SVGID_8_)">
		<text transform="matrix(1 0 0 1 147.051 67.2409)" font-family="'Arial-BoldMT'" font-size="2.6865">.</text>
	</g>
	<g clip-path="url(#SVGID_8_)">
		<text transform="matrix(1 0 0 1 176.5515 67.2409)" font-family="'Arial-BoldMT'" font-size="2.6865">Paving</text>
	</g>
	<g clip-path="url(#SVGID_8_)">
		<text transform="matrix(1 0 0 1 278.744 67.031)" font-family="'Arial-BoldMT'" font-size="2.6865">.</text>
	</g>
	<g clip-path="url(#SVGID_8_)">
		<text transform="matrix(1 0 0 1 307.1883 67.2409)" font-family="'Arial-BoldMT'" font-size="2.6865">.</text>
	</g>
</g>
<rect x="2.6" width="156.8" height="0.1"/>
<rect x="2.6" y="3.8" width="156.8" height="0.3"/>
<rect x="2.6" y="7.8" width="156.8" height="0.3"/>
<rect x="2.6" y="11.8" width="156.8" height="0.3"/>
<rect x="2.6" y="15.8" width="156.8" height="0.3"/>
<rect x="2.6" y="19.8" width="156.8" height="0.3"/>
<rect x="2.6" y="23.8" width="156.8" height="0.3"/>
<rect x="2.6" y="27.8" width="156.8" height="0.3"/>
<rect x="2.6" y="31.8" width="156.8" height="0.3"/>
<rect x="2.6" y="35.8" width="156.8" height="0.3"/>
<rect x="2.6" y="39.8" width="156.8" height="0.3"/>
<rect x="2.6" y="43.9" width="156.8" height="0.3"/>
<rect x="2.6" y="47.9" width="156.8" height="0.3"/>
<rect x="2.6" y="51.9" width="156.8" height="0.3"/>
<rect x="2.6" y="55.9" width="156.8" height="0.3"/>
<rect x="2.6" y="59.9" width="156.8" height="0.3"/>
<rect x="2.6" y="64.1" width="156.8" height="0.3"/>
<rect x="2.3" y="0" width="0.3" height="65"/>
<rect x="15.8" y="0" width="0.3" height="65"/>
<rect x="102.4" y="0" width="0.3" height="65"/>
<rect x="135.3" y="0" width="0.3" height="65"/>
<rect x="159.1" y="0" width="0.3" height="65"/>
<rect x="162.4" y="0" width="0.3" height="65"/>
<rect x="175.9" y="0" width="0.3" height="65"/>
<rect x="262.5" y="0" width="0.3" height="65"/>
<rect x="295.4" y="0" width="0.3" height="65"/>
<rect x="319.2" y="0" width="0.3" height="65"/>
<rect x="162.7" width="156.8" height="0.1"/>
<rect x="162.7" y="3.8" width="156.8" height="0.3"/>
<rect x="162.7" y="7.8" width="156.8" height="0.3"/>
<rect x="162.7" y="11.8" width="156.8" height="0.3"/>
<rect x="162.7" y="15.8" width="156.8" height="0.3"/>
<rect x="162.7" y="19.8" width="156.8" height="0.3"/>
<rect x="162.7" y="23.8" width="156.8" height="0.3"/>
<rect x="162.7" y="27.8" width="156.8" height="0.3"/>
<rect x="162.7" y="31.8" width="156.8" height="0.3"/>
<rect x="162.7" y="35.8" width="156.8" height="0.3"/>
<rect x="162.7" y="39.8" width="156.8" height="0.3"/>
<rect x="162.7" y="43.9" width="156.8" height="0.3"/>
<rect x="162.7" y="47.9" width="156.8" height="0.3"/>
<rect x="162.7" y="51.9" width="156.8" height="0.3"/>
<rect x="162.7" y="55.9" width="156.8" height="0.3"/>
<rect x="162.7" y="59.9" width="156.8" height="0.3"/>
<rect x="162.7" y="64.1" width="156.8" height="0.3"/>
</svg>
