<?xml version="1.0" encoding="utf-8"?>
<!-- Generator: Adobe Illustrator 18.1.1, SVG Export Plug-In . SVG Version: 6.00 Build 0)  -->
<svg version="1.1" id="Layer_1" xmlns="http://www.w3.org/2000/svg" xmlns:xlink="http://www.w3.org/1999/xlink" x="0px" y="0px"
	 viewBox="0 0 320 65.019" enable-background="new 0 0 320 65.019" xml:space="preserve">
<rect y="0" fill="#FFFFFF" width="320.315" height="65.019"/>
<rect x="2.562" y="1.041" fill="#C5D9F1" width="156.66" height="4.056"/>
<rect x="162.541" y="1.041" fill="#C5D9F1" width="156.818" height="4.056"/>
<rect x="2.562" y="21.058" fill="#C5D9F1" width="156.66" height="4.056"/>
<rect x="162.541" y="21.058" fill="#C5D9F1" width="156.818" height="4.056"/>
<rect x="2.562" y="37.071" fill="#C5D9F1" width="156.66" height="4.056"/>
<rect x="162.541" y="37.072" fill="#C5D9F1" width="156.818" height="4.056"/>
<rect x="0.071" y="0" fill="none" width="319.394" height="65.019"/>
<text transform="matrix(1 0 0 1 16.4157 3.885)" font-family="'Arial-BoldMT'" font-size="2.6865">Signage</text>
<text transform="matrix(1 0 0 1 118.6072 3.885)" font-family="'Arial-BoldMT'" font-size="2.6865">.</text>
<text transform="matrix(1 0 0 1 146.9478 3.885)" font-family="'Arial-BoldMT'" font-size="2.6865">.</text>
<text transform="matrix(1 0 0 1 176.552 3.885)" font-family="'Arial-BoldMT'" font-size="2.6865">Signage</text>
<g>
	<text transform="matrix(1 0 0 1 307.0837 3.885)" font-family="'Arial-BoldMT'" font-size="2.6865">.</text>
	<text transform="matrix(1 0 0 1 278.744 3.885)" font-family="'Arial-BoldMT'" font-size="2.6865">.</text>
</g>
<rect x="0.071" y="0" fill="none" width="319.394" height="65.019"/>
<text transform="matrix(1 0 0 1 2.9301 7.7836)" font-family="'ArialMT'" font-size="2.6865">SGN-01</text>
<text transform="matrix(1 0 0 1 16.4157 7.8373)" font-family="'ArialMT'" font-size="2.6865">400w x 1800h wall hung blade </text>
<text transform="matrix(1 0 0 1 114.0708 7.8373)" font-family="'ArialMT'" font-size="2.6865">Signage</text>
<text transform="matrix(1 0 0 1 143.1471 7.8373)" font-family="'ArialMT'" font-size="2.6865">06-280</text>
<text transform="matrix(1 0 0 1 163.067 7.7836)" font-family="'ArialMT'" font-size="2.6865">SGN-04</text>
<text transform="matrix(1 0 0 1 176.5535 7.8373)" font-family="'ArialMT'" font-size="2.6865">Free standing totem sign - type 1</text>
<text transform="matrix(1 0 0 1 274.2135 7.8373)" font-family="'ArialMT'" font-size="2.6865">Signage</text>
<text transform="matrix(1 0 0 1 303.2888 7.8373)" font-family="'ArialMT'" font-size="2.6865">06-280</text>
<text transform="matrix(1 0 0 1 2.9323 11.7894)" font-family="'ArialMT'" font-size="2.6865">SGN-02</text>
<text transform="matrix(1 0 0 1 16.4194 11.8426)" font-family="'ArialMT'" font-size="2.6865">400w x 600h wall hung blade </text>
<text transform="matrix(1 0 0 1 114.0762 11.8426)" font-family="'ArialMT'" font-size="2.6865">Signage</text>
<text transform="matrix(1 0 0 1 143.1519 11.8426)" font-family="'ArialMT'" font-size="2.6865">06-280</text>
<text transform="matrix(1 0 0 1 163.0728 11.7894)" font-family="'ArialMT'" font-size="2.6865">SGN-05</text>
<text transform="matrix(1 0 0 1 176.5584 11.8426)" font-family="'ArialMT'" font-size="2.6865">Free standing totem sign - type 2</text>
<text transform="matrix(1 0 0 1 274.2184 11.8426)" font-family="'ArialMT'" font-size="2.6865">Signage</text>
<text transform="matrix(1 0 0 1 303.2936 11.8426)" font-family="'ArialMT'" font-size="2.6865">06-280</text>
<text transform="matrix(1 0 0 1 2.9382 15.7942)" font-family="'ArialMT'" font-size="2.6865">SGN-03</text>
<text transform="matrix(1 0 0 1 16.4242 15.8485)" font-family="'ArialMT'" font-size="2.6865">Free standing totem sign - type 1</text>
<text transform="matrix(1 0 0 1 114.0842 15.8485)" font-family="'ArialMT'" font-size="2.6865">Signage</text>
<text transform="matrix(1 0 0 1 143.16 15.8485)" font-family="'ArialMT'" font-size="2.6865">06-280</text>
<text transform="matrix(1 0 0 1 163.075 15.7942)" font-family="'ArialMT'" font-size="2.6865">SGN-06</text>
<text transform="matrix(1 0 0 1 176.5611 15.8485)" font-family="'ArialMT'" font-size="2.6865">Free standing triangular base sign</text>
<text transform="matrix(1 0 0 1 274.2184 15.8485)" font-family="'ArialMT'" font-size="2.6865">Signage</text>
<text transform="matrix(1 0 0 1 303.2936 15.8485)" font-family="'ArialMT'" font-size="2.6865">06-280</text>
<text transform="matrix(1 0 0 1 16.4265 23.9075)" font-family="'Arial-BoldMT'" font-size="2.6865">Tiling</text>
<text transform="matrix(1 0 0 1 118.619 23.9075)" font-family="'Arial-BoldMT'" font-size="2.6865">.</text>
<text transform="matrix(1 0 0 1 146.9586 23.9075)" font-family="'Arial-BoldMT'" font-size="2.6865">.</text>
<text transform="matrix(1 0 0 1 176.5643 23.9075)" font-family="'Arial-BoldMT'" font-size="2.6865">Tiling</text>
<g>
	<text transform="matrix(1 0 0 1 307.0837 23.9021)" font-family="'Arial-BoldMT'" font-size="2.6865">.</text>
	<text transform="matrix(1 0 0 1 278.744 23.9021)" font-family="'Arial-BoldMT'" font-size="2.6865">.</text>
</g>
<rect x="0.071" y="0" fill="none" width="319.394" height="65.019"/>
<text transform="matrix(1 0 0 1 2.9296 27.8006)" font-family="'ArialMT'" font-size="2.6865">TIL-01</text>
<text transform="matrix(1 0 0 1 16.4157 27.8542)" font-family="'ArialMT'" font-size="2.6865">Vitrified ceramic floor tiling: Klingenberg/Graphite Mix  </text>
<text transform="matrix(1 0 0 1 115.8114 27.8542)" font-family="'ArialMT'" font-size="2.6865">Tiling</text>
<text transform="matrix(1 0 0 1 143.1487 27.8542)" font-family="'ArialMT'" font-size="2.6865">05-400</text>
<text transform="matrix(1 0 0 1 163.0691 27.8006)" font-family="'ArialMT'" font-size="2.6865">TIL-03</text>
<text transform="matrix(1 0 0 1 176.5557 27.8542)" font-family="'ArialMT'" font-size="2.6865">Vitrified ceramic floor tiling - Metz Ceramic tiles</text>
<text transform="matrix(1 0 0 1 275.9509 27.8542)" font-family="'ArialMT'" font-size="2.6865">Tiling</text>
<text transform="matrix(1 0 0 1 303.2888 27.8542)" font-family="'ArialMT'" font-size="2.6865">05-400</text>
<text transform="matrix(1 0 0 1 2.9355 31.8059)" font-family="'ArialMT'" font-size="2.6865">TIL-02</text>
<text transform="matrix(1 0 0 1 16.4211 31.8596)" font-family="'ArialMT'" font-size="2.6865">Ceramic wall tiling - Classic Ceramics: Matt White</text>
<text transform="matrix(1 0 0 1 115.8163 31.8596)" font-family="'ArialMT'" font-size="2.6865">Tiling</text>
<text transform="matrix(1 0 0 1 143.1541 31.8596)" font-family="'ArialMT'" font-size="2.6865">05-400</text>
<text transform="matrix(1 0 0 1 163.0723 31.8059)" font-family="'ArialMT'" font-size="2.6865">TIL-04</text>
<text transform="matrix(1 0 0 1 176.5584 31.8596)" font-family="'ArialMT'" font-size="2.6865">Ceramic wall tiling - Classic Ceramics: Matt White</text>
<text transform="matrix(1 0 0 1 275.9537 31.8596)" font-family="'ArialMT'" font-size="2.6865">Tiling</text>
<text transform="matrix(1 0 0 1 303.2909 31.8596)" font-family="'ArialMT'" font-size="2.6865">05-400</text>
<g>
	<text transform="matrix(1 0 0 1 146.9559 35.8623)" font-family="'ArialMT'" font-size="2.6865">.</text>
	<text transform="matrix(1 0 0 1 118.6162 35.8623)" font-family="'ArialMT'" font-size="2.6865">.</text>
</g>
<g>
	<text transform="matrix(1 0 0 1 307.0836 35.8601)" font-family="'ArialMT'" font-size="2.6865">.</text>
	<text transform="matrix(1 0 0 1 278.7439 35.8601)" font-family="'ArialMT'" font-size="2.6865">.</text>
</g>
<rect x="0.071" y="0" fill="none" width="319.394" height="65.019"/>
<text transform="matrix(1 0 0 1 16.4151 39.9165)" font-family="'Arial-BoldMT'" font-size="2.6865">Trims/Skirtings/Architraves</text>
<text transform="matrix(1 0 0 1 118.6061 39.9165)" font-family="'Arial-BoldMT'" font-size="2.6865">.</text>
<text transform="matrix(1 0 0 1 146.9468 39.9165)" font-family="'Arial-BoldMT'" font-size="2.6865">.</text>
<text transform="matrix(1 0 0 1 176.5514 39.9165)" font-family="'Arial-BoldMT'" font-size="2.6865">Trims/Skirtings/Architraves</text>
<text transform="matrix(1 0 0 1 278.7439 39.9165)" font-family="'Arial-BoldMT'" font-size="2.6865">.</text>
<text transform="matrix(1 0 0 1 307.0836 39.9165)" font-family="'Arial-BoldMT'" font-size="2.6865">.</text>
<text transform="matrix(1 0 0 1 2.9317 43.8145)" font-family="'ArialMT'" font-size="2.6865">TRM-01</text>
<text transform="matrix(1 0 0 1 16.4173 43.8681)" font-family="'ArialMT'" font-size="2.6865">Handrail and Crash Rail Combined</text>
<text transform="matrix(1 0 0 1 109.9618 43.8681)" font-family="'ArialMT'" font-size="2.6865">Wall Protection</text>
<text transform="matrix(1 0 0 1 143.1449 43.8681)" font-family="'ArialMT'" font-size="2.6865">06-150</text>
<text transform="matrix(1 0 0 1 163.068 43.8145)" font-family="'ArialMT'" font-size="2.6865">TRM-01</text>
<text transform="matrix(1 0 0 1 176.5547 43.8681)" font-family="'ArialMT'" font-size="2.6865">Handrail and Crash Rail Combined</text>
<text transform="matrix(1 0 0 1 270.0982 43.8681)" font-family="'ArialMT'" font-size="2.6865">Wall Protection</text>
<text transform="matrix(1 0 0 1 303.2828 43.8681)" font-family="'ArialMT'" font-size="2.6865">06-150</text>
<text transform="matrix(1 0 0 1 2.9317 47.8198)" font-family="'ArialMT'" font-size="2.6865">TRM-02</text>
<text transform="matrix(1 0 0 1 16.4173 47.8735)" font-family="'ArialMT'" font-size="2.6865">Single Corner Guard</text>
<text transform="matrix(1 0 0 1 109.9667 47.8735)" font-family="'ArialMT'" font-size="2.6865">Wall Protection</text>
<text transform="matrix(1 0 0 1 143.1503 47.8735)" font-family="'ArialMT'" font-size="2.6865">06-150</text>
<text transform="matrix(1 0 0 1 163.068 47.8198)" font-family="'ArialMT'" font-size="2.6865">TRM-02</text>
<text transform="matrix(1 0 0 1 176.5547 47.8735)" font-family="'ArialMT'" font-size="2.6865">Single Corner Guard</text>
<text transform="matrix(1 0 0 1 270.104 47.8735)" font-family="'ArialMT'" font-size="2.6865">Wall Protection</text>
<text transform="matrix(1 0 0 1 303.2877 47.8735)" font-family="'ArialMT'" font-size="2.6865">06-150</text>
<text transform="matrix(1 0 0 1 2.9317 51.8251)" font-family="'ArialMT'" font-size="2.6865">TRM-03</text>
<text transform="matrix(1 0 0 1 16.4173 51.8793)" font-family="'ArialMT'" font-size="2.6865">Single Crash Rail</text>
<text transform="matrix(1 0 0 1 109.9667 51.8793)" font-family="'ArialMT'" font-size="2.6865">Wall Protection</text>
<text transform="matrix(1 0 0 1 143.1503 51.8793)" font-family="'ArialMT'" font-size="2.6865">06-150</text>
<text transform="matrix(1 0 0 1 163.068 51.8251)" font-family="'ArialMT'" font-size="2.6865">TRM-03</text>
<text transform="matrix(1 0 0 1 176.5547 51.8793)" font-family="'ArialMT'" font-size="2.6865">Single Crash Rail</text>
<text transform="matrix(1 0 0 1 270.104 51.8793)" font-family="'ArialMT'" font-size="2.6865">Wall Protection</text>
<text transform="matrix(1 0 0 1 303.2877 51.8793)" font-family="'ArialMT'" font-size="2.6865">06-150</text>
<text transform="matrix(1 0 0 1 2.9317 55.831)" font-family="'ArialMT'" font-size="2.6865">TRM-04</text>
<text transform="matrix(1 0 0 1 16.4173 55.8847)" font-family="'ArialMT'" font-size="2.6865">MDF skirtings</text>
<text transform="matrix(1 0 0 1 105.1227 55.8847)"><tspan x="0" y="0" font-family="'ArialMT'" font-size="2.6865">Resilient Floor Finishe</tspan><tspan x="26.576" y="0" font-family="'ArialMT'" font-size="2.6865" letter-spacing="10">s</tspan><tspan x="38.031" y="0" font-family="'ArialMT'" font-size="2.6865">05-550</tspan></text>
<text transform="matrix(1 0 0 1 163.068 55.831)" font-family="'ArialMT'" font-size="2.6865">TRM-04</text>
<text transform="matrix(1 0 0 1 176.5547 55.8847)" font-family="'ArialMT'" font-size="2.6865">MDF skirtings</text>
<text transform="matrix(1 0 0 1 265.2595 55.8847)"><tspan x="0" y="0" font-family="'ArialMT'" font-size="2.6865">Resilient Floor Finishe</tspan><tspan x="26.576" y="0" font-family="'ArialMT'" font-size="2.6865" letter-spacing="10">s</tspan><tspan x="38.031" y="0" font-family="'ArialMT'" font-size="2.6865">05-550</tspan></text>
<text transform="matrix(1 0 0 1 2.9317 59.8364)" font-family="'ArialMT'" font-size="2.6865">TRM-05</text>
<text transform="matrix(1 0 0 1 16.4173 59.89)" font-family="'ArialMT'" font-size="2.6865">Aluminium skirtings</text>
<text transform="matrix(1 0 0 1 105.1205 59.89)"><tspan x="0" y="0" font-family="'ArialMT'" font-size="2.6865">Resilient Floor Finishe</tspan><tspan x="26.576" y="0" font-family="'ArialMT'" font-size="2.6865" letter-spacing="10">s</tspan><tspan x="38.031" y="0" font-family="'ArialMT'" font-size="2.6865">05-100</tspan></text>
<text transform="matrix(1 0 0 1 163.068 59.8364)" font-family="'ArialMT'" font-size="2.6865">TRM-05</text>
<text transform="matrix(1 0 0 1 176.5547 59.89)" font-family="'ArialMT'" font-size="2.6865">Aluminium skirtings</text>
<text transform="matrix(1 0 0 1 265.2574 59.89)"><tspan x="0" y="0" font-family="'ArialMT'" font-size="2.6865">Resilient Floor Finishe</tspan><tspan x="26.576" y="0" font-family="'ArialMT'" font-size="2.6865" letter-spacing="10">s</tspan><tspan x="38.031" y="0" font-family="'ArialMT'" font-size="2.6865">05-100</tspan></text>
<text transform="matrix(1 0 0 1 2.9296 63.8315)" font-family="'ArialMT'" font-size="2.6865">TRM-06</text>
<text transform="matrix(1 0 0 1 16.4157 63.8851)" font-family="'ArialMT'" font-size="2.6865">Double Corner Guards</text>
<text transform="matrix(1 0 0 1 109.9651 63.8851)" font-family="'ArialMT'" font-size="2.6865">Wall Protection</text>
<text transform="matrix(1 0 0 1 143.1487 63.8851)" font-family="'ArialMT'" font-size="2.6865">06-150</text>
<text transform="matrix(1 0 0 1 163.0664 63.8315)" font-family="'ArialMT'" font-size="2.6865">TRM-06</text>
<text transform="matrix(1 0 0 1 176.5525 63.8851)" font-family="'ArialMT'" font-size="2.6865">Double Corner Guards</text>
<text transform="matrix(1 0 0 1 270.1024 63.8851)" font-family="'ArialMT'" font-size="2.6865">Wall Protection</text>
<text transform="matrix(1 0 0 1 303.286 63.8851)" font-family="'ArialMT'" font-size="2.6865">06-150</text>
<rect x="0.071" y="0" fill="none" width="319.394" height="65.019"/>
<rect x="2.563" y="0.935" width="156.765" height="0.263"/>
<rect x="2.563" y="4.938" width="156.765" height="0.264"/>
<rect x="2.563" y="8.942" width="156.765" height="0.264"/>
<rect x="2.563" y="12.945" width="156.765" height="0.264"/>
<rect x="2.563" y="16.949" width="156.765" height="0.263"/>
<rect x="2.563" y="20.952" width="156.765" height="0.264"/>
<rect x="2.563" y="24.955" width="156.765" height="0.264"/>
<rect x="2.563" y="28.959" width="156.765" height="0.264"/>
<rect x="2.563" y="32.963" width="156.765" height="0.263"/>
<rect x="2.563" y="36.966" width="156.765" height="0.264"/>
<rect x="2.563" y="40.969" width="156.765" height="0.264"/>
<rect x="2.563" y="44.972" width="156.765" height="0.264"/>
<rect x="2.563" y="48.976" width="156.765" height="0.263"/>
<rect x="2.563" y="52.98" width="156.765" height="0.263"/>
<rect x="2.563" y="56.983" width="156.765" height="0.264"/>
<rect x="2.563" y="60.986" width="156.765" height="0.264"/>
<rect x="2.563" y="64.99" width="156.765" height="0.029"/>
<rect x="2.299" y="0" width="0.264" height="65.019"/>
<rect x="15.784" y="0" width="0.264" height="65.019"/>
<rect x="102.384" y="0" width="0.264" height="65.019"/>
<rect x="135.254" y="0" width="0.264" height="65.019"/>
<rect x="159.064" y="0" width="0.263" height="65.019"/>
<rect x="162.435" y="0" width="0.264" height="65.019"/>
<rect x="175.921" y="0" width="0.264" height="65.019"/>
<rect x="262.52" y="0" width="0.264" height="65.019"/>
<rect x="295.391" y="0" width="0.264" height="65.019"/>
<rect x="319.201" y="0" width="0.264" height="65.019"/>
<rect x="162.699" y="0.935" width="156.766" height="0.263"/>
<rect x="162.699" y="4.938" width="156.766" height="0.264"/>
<rect x="162.699" y="8.942" width="156.766" height="0.264"/>
<rect x="162.699" y="12.945" width="156.766" height="0.264"/>
<rect x="162.699" y="16.949" width="156.766" height="0.263"/>
<rect x="162.699" y="20.952" width="156.766" height="0.264"/>
<rect x="162.699" y="24.955" width="156.766" height="0.264"/>
<rect x="162.699" y="28.959" width="156.766" height="0.264"/>
<rect x="162.699" y="32.963" width="156.766" height="0.263"/>
<rect x="162.699" y="36.966" width="156.766" height="0.264"/>
<rect x="162.699" y="40.969" width="156.766" height="0.264"/>
<rect x="162.699" y="44.972" width="156.766" height="0.264"/>
<rect x="162.699" y="48.976" width="156.766" height="0.263"/>
<rect x="162.699" y="52.98" width="156.766" height="0.263"/>
<rect x="162.699" y="56.983" width="156.766" height="0.264"/>
<rect x="162.699" y="60.986" width="156.766" height="0.264"/>
<rect x="162.699" y="64.99" width="156.766" height="0.029"/>
</svg>
