<?xml version="1.0" encoding="utf-8"?>
<!-- Generator: Adobe Illustrator 18.1.1, SVG Export Plug-In . SVG Version: 6.00 Build 0)  -->
<svg id="Layer_1" xmlns="http://www.w3.org/2000/svg" xmlns:xlink="http://www.w3.org/1999/xlink" x="0px" y="0px"
	 viewBox="0 0 320 62.855" enable-background="new 0 0 320 62.855" xml:space="preserve">
<rect x="0.001" fill="#ffffff" width="320.315" height="62.854"/>
<rect x="1.816" y="7.555" fill="#c2d69a" width="155.565" height="3.969"/>
<rect x="162.071" y="7.555" fill="#c2d69a" width="155.72" height="3.969"/>
<text transform="matrix(1 0 0 1 2.1764 3.2247)"><tspan x="0" y="0" font-family="'Arial'" font-weight="bolder" font-size="2.6288">COD</tspan><tspan x="5.842" y="0" font-family="'Arial'" font-weight="bolder" font-size="2.6288" letter-spacing="5">E</tspan><tspan x="13.194" y="0" font-family="'Arial'" font-weight="bolder" font-size="2.6288">DESCRIPTION</tspan></text>
<text transform="matrix(1 0 0 1 109.1843 3.2247)"><tspan x="0" y="0" font-family="'Arial'" font-weight="bolder" font-size="2.6288">SPEC PACKAG</tspan><tspan x="19.281" y="0" font-family="'Arial'" font-weight="bolder" font-size="2.6288" letter-spacing="5">E</tspan><tspan x="26.752" y="0" font-family="'Arial'" font-weight="bolder" font-size="2.6288">SPEC SECTIO</tspan><tspan x="44.428" y="0" font-family="'Arial'" font-weight="bolder" font-size="2.6288" letter-spacing="7">N</tspan><tspan x="53.4" y="0" font-family="'Arial'" font-weight="bolder" font-size="2.6288">COD</tspan><tspan x="59.242" y="0" font-family="'Arial'" font-weight="bolder" font-size="2.6288" letter-spacing="5">E</tspan><tspan x="66.595" y="0" font-family="'Arial'" font-weight="bolder" font-size="2.6288">DESCRIPTION</tspan></text>
<text transform="matrix(1 0 0 1 269.5905 3.2247)"><tspan x="0" y="0" font-family="'Arial'" font-weight="bolder" font-size="2.6288">SPEC PACKAG</tspan><tspan x="19.279" y="0" font-family="'Arial'" font-weight="bolder" font-size="2.6288" letter-spacing="5">E</tspan><tspan x="26.75" y="0" font-family="'Arial'" font-weight="bolder" font-size="2.6288">SPEC SECTION</tspan></text>
<rect y="0.001" fill="none" width="320.315" height="62.854"/>
<text transform="matrix(1 0 0 1 119.2878 7.0909)"><tspan x="0" y="0" font-family="'Arial'" font-size="2.6288" letter-spacing="25">.</tspan><tspan x="26.083" y="0" font-family="'Arial'" font-size="2.6288">.</tspan></text>
<text transform="matrix(1 0 0 1 279.6987 7.0909)"><tspan x="0" y="0" font-family="'Arial'" font-size="2.6288" letter-spacing="25">.</tspan><tspan x="26.083" y="0" font-family="'Arial'" font-size="2.6288">.</tspan></text>
<rect y="0.001" fill="none" width="320.315" height="62.854"/>
<text transform="matrix(1 0 0 1 15.3722 10.2871)" font-family="'Arial'" font-weight="bolder" font-size="2.6288">WET AREAS FIXTURES AND FITTINGS</text>
<text transform="matrix(1 0 0 1 119.2883 10.2871)" font-family="'Arial'" font-weight="bolder" font-size="2.6288">.</text>
<text transform="matrix(1 0 0 1 145.3716 10.2871)" font-family="'Arial'" font-weight="bolder" font-size="2.6288">.</text>
<text transform="matrix(1 0 0 1 175.7838 10.2871)" font-family="'Arial'" font-weight="bolder" font-size="2.6288">WET AREAS FIXTURES AND FITTINGS</text>
<text transform="matrix(1 0 0 1 279.6999 10.2871)" font-family="'Arial'" font-weight="bolder" font-size="2.6288">.</text>
<text transform="matrix(1 0 0 1 305.7831 10.2871)" font-family="'Arial'" font-weight="bolder" font-size="2.6288">.</text>
<text transform="matrix(1 0 0 1 2.1753 14.8218)"><tspan x="0" y="0" font-family="'Arial'" font-size="2.6288">FF-0</tspan><tspan x="5.549" y="0" font-family="'Arial'" font-size="2.6288" letter-spacing="6">4</tspan><tspan x="13.194" y="0" font-family="'Arial'" font-size="2.6288">WC GRAB RAILS</tspan></text>
<text transform="matrix(1 0 0 1 117.1726 14.8218)" font-family="'Arial'" font-size="2.6288">FFE</text>
<text transform="matrix(1 0 0 1 141.6568 14.8218)"><tspan x="0" y="0" font-family="'Arial'" font-size="2.6288">07-80</tspan><tspan x="6.723" y="0" font-family="'Arial'" font-size="2.6288" letter-spacing="12">0</tspan><tspan x="20.924" y="0" font-family="'Arial'" font-size="2.6288">FF-4</tspan><tspan x="26.474" y="0" font-family="'Arial'" font-size="2.6288" letter-spacing="6">3</tspan><tspan x="34.118" y="0" font-family="'Arial'" font-size="2.6288">PICTURE PERFORATED METAL SCREEN</tspan></text>
<text transform="matrix(1 0 0 1 277.5787 14.8218)" font-family="'Arial'" font-size="2.6288">FFE</text>
<text transform="matrix(1 0 0 1 302.0634 14.8218)" font-family="'Arial'" font-size="2.6288">07-800</text>
<text transform="matrix(1 0 0 1 2.1726 19.5114)"><tspan x="0" y="0" font-family="'Arial'" font-size="2.6288">FF-0</tspan><tspan x="5.549" y="0" font-family="'Arial'" font-size="2.6288" letter-spacing="6">5</tspan><tspan x="13.194" y="0" font-family="'Arial'" font-size="2.6288">SHOWER GRAB RAILS</tspan></text>
<text transform="matrix(1 0 0 1 117.17 19.5114)" font-family="'Arial'" font-size="2.6288">FFE</text>
<text transform="matrix(1 0 0 1 141.6541 19.5114)"><tspan x="0" y="0" font-family="'Arial'" font-size="2.6288">07-80</tspan><tspan x="6.723" y="0" font-family="'Arial'" font-size="2.6288" letter-spacing="12">0</tspan><tspan x="20.924" y="0" font-family="'Arial'" font-size="2.6288">FF-4</tspan><tspan x="26.474" y="0" font-family="'Arial'" font-size="2.6288" letter-spacing="6">4</tspan><tspan x="34.118" y="0" font-family="'Arial'" font-size="2.6288">PERGOLA INFILL</tspan></text>
<text transform="matrix(1 0 0 1 277.576 19.5114)" font-family="'Arial'" font-size="2.6288">FFE</text>
<text transform="matrix(1 0 0 1 302.0612 19.5114)" font-family="'Arial'" font-size="2.6288">07-800</text>
<text transform="matrix(1 0 0 1 2.1703 24.2008)"><tspan x="0" y="0" font-family="'Arial'" font-size="2.6288">FF-0</tspan><tspan x="5.549" y="0" font-family="'Arial'" font-size="2.6288" letter-spacing="6">6</tspan><tspan x="13.194" y="0" font-family="'Arial'" font-size="2.6288">ACCESSIBLE WC GRAB RAILS</tspan></text>
<text transform="matrix(1 0 0 1 117.1667 24.2008)" font-family="'Arial'" font-size="2.6288">FFE</text>
<text transform="matrix(1 0 0 1 141.6519 24.2008)"><tspan x="0" y="0" font-family="'Arial'" font-size="2.6288">07-80</tspan><tspan x="6.723" y="0" font-family="'Arial'" font-size="2.6288" letter-spacing="12">0</tspan><tspan x="20.924" y="0" font-family="'Arial'" font-size="2.6288">FF-4</tspan><tspan x="26.474" y="0" font-family="'Arial'" font-size="2.6288" letter-spacing="6">5</tspan><tspan x="34.118" y="0" font-family="'Arial'" font-size="2.6288">BRACKET: TUFFIES</tspan></text>
<text transform="matrix(1 0 0 1 277.576 24.2008)" font-family="'Arial'" font-size="2.6288">FFE</text>
<text transform="matrix(1 0 0 1 302.0612 24.2008)" font-family="'Arial'" font-size="2.6288">07-800</text>
<text transform="matrix(1 0 0 1 2.1703 28.8909)"><tspan x="0" y="0" font-family="'Arial'" font-size="2.6288">FF-0</tspan><tspan x="5.549" y="0" font-family="'Arial'" font-size="2.6288" letter-spacing="6">7</tspan><tspan x="13.194" y="0" font-family="'Arial'" font-size="2.6288">METAL SHELVING</tspan></text>
<text transform="matrix(1 0 0 1 117.1667 28.8908)" font-family="'Arial'" font-size="2.6288">FFE</text>
<text transform="matrix(1 0 0 1 141.6519 28.8908)"><tspan x="0" y="0" font-family="'Arial'" font-size="2.6288">07-80</tspan><tspan x="6.723" y="0" font-family="'Arial'" font-size="2.6288" letter-spacing="12">0</tspan><tspan x="20.924" y="0" font-family="'Arial'" font-size="2.6288">FF-4</tspan><tspan x="26.474" y="0" font-family="'Arial'" font-size="2.6288" letter-spacing="6">6</tspan><tspan x="34.118" y="0" font-family="'Arial'" font-size="2.6288">BRACKET: SOAP DISPENSER</tspan></text>
<text transform="matrix(1 0 0 1 277.5738 28.8908)" font-family="'Arial'" font-size="2.6288">FFE</text>
<text transform="matrix(1 0 0 1 302.0585 28.8909)" font-family="'Arial'" font-size="2.6288">07-800</text>
<text transform="matrix(1 0 0 1 2.1676 33.5809)"><tspan x="0" y="0" font-family="'Arial'" font-size="2.6288">FF-0</tspan><tspan x="5.549" y="0" font-family="'Arial'" font-size="2.6288" letter-spacing="6">8</tspan><tspan x="13.194" y="0" font-family="'Arial'" font-size="2.6288">FOLDING SHOWER SEAT</tspan></text>
<text transform="matrix(1 0 0 1 117.1667 33.5809)" font-family="'Arial'" font-size="2.6288">FFE</text>
<text transform="matrix(1 0 0 1 141.6519 33.5809)"><tspan x="0" y="0" font-family="'Arial'" font-size="2.6288">07-80</tspan><tspan x="6.723" y="0" font-family="'Arial'" font-size="2.6288" letter-spacing="12">0</tspan><tspan x="20.924" y="0" font-family="'Arial'" font-size="2.6288">FF-5</tspan><tspan x="26.474" y="0" font-family="'Arial'" font-size="2.6288" letter-spacing="6">1</tspan><tspan x="34.118" y="0" font-family="'Arial'" font-size="2.6288">BRACKET: MOISTURISER DISPENSER</tspan></text>
<text transform="matrix(1 0 0 1 277.5738 33.5809)" font-family="'Arial'" font-size="2.6288">FFE</text>
<text transform="matrix(1 0 0 1 302.0585 33.5809)" font-family="'Arial'" font-size="2.6288">07-800</text>
<text transform="matrix(1 0 0 1 2.1676 38.2703)"><tspan x="0" y="0" font-family="'Arial'" font-size="2.6288">FF-0</tspan><tspan x="5.549" y="0" font-family="'Arial'" font-size="2.6288" letter-spacing="6">9</tspan><tspan x="13.194" y="0" font-family="'Arial'" font-size="2.6288">HORIZONTAL WALL MOUNTED BABY CHANGE TABLE</tspan></text>
<text transform="matrix(1 0 0 1 117.1667 38.2703)" font-family="'Arial'" font-size="2.6288">FFE</text>
<text transform="matrix(1 0 0 1 141.6519 38.2703)"><tspan x="0" y="0" font-family="'Arial'" font-size="2.6288">07-80</tspan><tspan x="6.723" y="0" font-family="'Arial'" font-size="2.6288" letter-spacing="12">0</tspan><tspan x="20.924" y="0" font-family="'Arial'" font-size="2.6288">FF-5</tspan><tspan x="26.474" y="0" font-family="'Arial'" font-size="2.6288" letter-spacing="6">2</tspan><tspan x="34.118" y="0" font-family="'Arial'" font-size="2.6288">BRACKET: ANTI-MICROBIAL DISPENSER</tspan></text>
<text transform="matrix(1 0 0 1 277.5738 38.2703)" font-family="'Arial'" font-size="2.6288">FFE</text>
<text transform="matrix(1 0 0 1 302.0585 38.2703)" font-family="'Arial'" font-size="2.6288">07-800</text>
<text transform="matrix(1 0 0 1 2.1676 42.9604)"><tspan x="0" y="0" font-family="'Arial'" font-size="2.6288">FF-1</tspan><tspan x="5.549" y="0" font-family="'Arial'" font-size="2.6288" letter-spacing="6">0</tspan><tspan x="13.194" y="0" font-family="'Arial'" font-size="2.6288">VERTICAL WALL MOUNTED BABY CHANGE TABLE.</tspan></text>
<text transform="matrix(1 0 0 1 117.1644 42.9604)" font-family="'Arial'" font-size="2.6288">FFE</text>
<text transform="matrix(1 0 0 1 141.6491 42.9604)"><tspan x="0" y="0" font-family="'Arial'" font-size="2.6288">07-80</tspan><tspan x="6.723" y="0" font-family="'Arial'" font-size="2.6288" letter-spacing="12">0</tspan><tspan x="20.924" y="0" font-family="'Arial'" font-size="2.6288">FF-5</tspan><tspan x="26.474" y="0" font-family="'Arial'" font-size="2.6288" letter-spacing="6">3</tspan><tspan x="34.118" y="0" font-family="'Arial'" font-size="2.6288">BRACKET: ALCOHOL BASED HAND RUB</tspan></text>
<text transform="matrix(1 0 0 1 277.571 42.9604)" font-family="'Arial'" font-size="2.6288">FFE</text>
<text transform="matrix(1 0 0 1 302.0552 42.9604)" font-family="'Arial'" font-size="2.6288">07-800</text>
<text transform="matrix(1 0 0 1 2.1676 47.6504)"><tspan x="0" y="0" font-family="'Arial'" font-size="2.6288">FF-1</tspan><tspan x="5.549" y="0" font-family="'Arial'" font-size="2.6288" letter-spacing="6">1</tspan><tspan x="13.194" y="0" font-family="'Arial'" font-size="2.6288">MAXI BINS PANELS</tspan></text>
<text transform="matrix(1 0 0 1 117.1644 47.6504)" font-family="'Arial'" font-size="2.6288">FFE</text>
<text transform="matrix(1 0 0 1 141.6491 47.6504)"><tspan x="0" y="0" font-family="'Arial'" font-size="2.6288">07-80</tspan><tspan x="6.723" y="0" font-family="'Arial'" font-size="2.6288" letter-spacing="12">0</tspan><tspan x="20.924" y="0" font-family="'Arial'" font-size="2.6288">FF-5</tspan><tspan x="26.474" y="0" font-family="'Arial'" font-size="2.6288" letter-spacing="6">4</tspan><tspan x="34.118" y="0" font-family="'Arial'" font-size="2.6288">DISPENSER: PAPER TOWEL (SMALL)</tspan></text>
<text transform="matrix(1 0 0 1 277.571 47.6504)" font-family="'Arial'" font-size="2.6288">FFE</text>
<text transform="matrix(1 0 0 1 302.0552 47.6504)" font-family="'Arial'" font-size="2.6288">07-800</text>
<text transform="matrix(1 0 0 1 2.1649 52.3399)"><tspan x="0" y="0" font-family="'Arial'" font-size="2.6288">FF-1</tspan><tspan x="5.549" y="0" font-family="'Arial'" font-size="2.6288" letter-spacing="6">2</tspan><tspan x="13.194" y="0" font-family="'Arial'" font-size="2.6288">PATIENT LIFTER - CEILING MOUNTED</tspan></text>
<text transform="matrix(1 0 0 1 117.1644 52.3399)" font-family="'Arial'" font-size="2.6288">FFE</text>
<text transform="matrix(1 0 0 1 141.6491 52.3399)"><tspan x="0" y="0" font-family="'Arial'" font-size="2.6288">07-80</tspan><tspan x="6.723" y="0" font-family="'Arial'" font-size="2.6288" letter-spacing="12">0</tspan><tspan x="20.924" y="0" font-family="'Arial'" font-size="2.6288">FF-5</tspan><tspan x="26.474" y="0" font-family="'Arial'" font-size="2.6288" letter-spacing="6">5</tspan><tspan x="34.118" y="0" font-family="'Arial'" font-size="2.6288">BRACKET: SUCTION BOTTLE</tspan></text>
<text transform="matrix(1 0 0 1 277.5738 52.3399)" font-family="'Arial'" font-size="2.6288">FFE</text>
<text transform="matrix(1 0 0 1 302.0584 52.3399)" font-family="'Arial'" font-size="2.6288">07-800</text>
<text transform="matrix(1 0 0 1 2.1649 57.0294)"><tspan x="0" y="0" font-family="'Arial'" font-size="2.6288">FF-1</tspan><tspan x="5.549" y="0" font-family="'Arial'" font-size="2.6288" letter-spacing="6">3</tspan><tspan x="13.194" y="0" font-family="'Arial'" font-size="2.6288">BRACKETS - MONITOR</tspan></text>
<text transform="matrix(1 0 0 1 117.1644 57.0294)" font-family="'Arial'" font-size="2.6288">FFE</text>
<text transform="matrix(1 0 0 1 141.6491 57.0294)"><tspan x="0" y="0" font-family="'Arial'" font-size="2.6288">07-80</tspan><tspan x="6.723" y="0" font-family="'Arial'" font-size="2.6288" letter-spacing="12">0</tspan><tspan x="20.924" y="0" font-family="'Arial'" font-size="2.6288">FF-5</tspan><tspan x="26.474" y="0" font-family="'Arial'" font-size="2.6288" letter-spacing="6">6</tspan><tspan x="34.118" y="0" font-family="'Arial'" font-size="2.6288">SOAP/SHAMPOO HOLDER</tspan></text>
<text transform="matrix(1 0 0 1 277.571 57.0294)" font-family="'Arial'" font-size="2.6288">FFE</text>
<text transform="matrix(1 0 0 1 302.0552 57.0294)" font-family="'Arial'" font-size="2.6288">07-800</text>
<text transform="matrix(1 0 0 1 2.1649 61.7194)"><tspan x="0" y="0" font-family="'Arial'" font-size="2.6288">FF-1</tspan><tspan x="5.549" y="0" font-family="'Arial'" font-size="2.6288" letter-spacing="6">4</tspan><tspan x="13.194" y="0" font-family="'Arial'" font-size="2.6288">BRACKETS - SHARPS</tspan></text>
<text transform="matrix(1 0 0 1 117.1622 61.7194)" font-family="'Arial'" font-size="2.6288">FFE</text>
<text transform="matrix(1 0 0 1 141.6463 61.7194)"><tspan x="0" y="0" font-family="'Arial'" font-size="2.6288">07-80</tspan><tspan x="6.723" y="0" font-family="'Arial'" font-size="2.6288" letter-spacing="12">0</tspan><tspan x="20.924" y="0" font-family="'Arial'" font-size="2.6288">FF-5</tspan><tspan x="26.474" y="0" font-family="'Arial'" font-size="2.6288" letter-spacing="6">7</tspan><tspan x="34.118" y="0" font-family="'Arial'" font-size="2.6288">BRACKET: GLOVE DISPENSER</tspan></text>
<text transform="matrix(1 0 0 1 277.5688 61.7194)" font-family="'Arial'" font-size="2.6288">FFE</text>
<text transform="matrix(1 0 0 1 302.0534 61.7194)" font-family="'Arial'" font-size="2.6288">07-800</text>
<rect y="0.001" fill="none" width="320.315" height="62.854"/>
<rect x="1.3" y="0.391" width="156.183" height="0.257"/>
<rect x="2.073" y="4.308" width="155.41" height="0.257"/>
<rect x="2.073" y="7.452" width="155.41" height="0.258"/>
<rect x="2.073" y="11.37" width="155.41" height="0.257"/>
<rect x="2.073" y="16.06" width="155.41" height="0.257"/>
<rect x="2.073" y="20.751" width="155.41" height="0.257"/>
<rect x="2.073" y="25.442" width="155.41" height="0.257"/>
<rect x="2.073" y="30.132" width="155.41" height="0.258"/>
<rect x="2.073" y="34.823" width="155.41" height="0.258"/>
<rect x="2.073" y="39.514" width="155.41" height="0.257"/>
<rect x="2.073" y="44.204" width="155.41" height="0.257"/>
<rect x="2.073" y="48.895" width="155.41" height="0.257"/>
<rect x="2.073" y="53.586" width="155.41" height="0.257"/>
<rect x="2.073" y="58.276" width="155.41" height="0.258"/>
<rect x="2.073" y="62.966" width="155.41" height="0.258"/>
<rect y="0.001" fill="none" width="320.315" height="62.854"/>
<rect x="1.3" y="0.648" width="0.258" height="62.207"/>
<rect x="1.816" y="0.648" width="0.257" height="62.207"/>
<rect x="14.754" y="0.648" width="0.257" height="62.207"/>
<rect x="105.062" y="0.648" width="0.257" height="62.207"/>
<rect x="133.928" y="0.648" width="0.257" height="62.207"/>
<rect x="157.226" y="0.648" width="0.257" height="62.207"/>
<rect x="161.711" y="0.648" width="0.257" height="62.207"/>
<rect x="162.226" y="0.648" width="0.257" height="62.207"/>
<rect x="175.164" y="0.648" width="0.258" height="62.207"/>
<rect x="265.472" y="0.648" width="0.258" height="62.207"/>
<rect x="294.337" y="0.648" width="0.258" height="62.207"/>
<rect x="317.636" y="0.648" width="0.257" height="62.207"/>
<rect x="161.711" y="0.391" width="156.183" height="0.257"/>
<rect x="162.484" y="4.308" width="155.41" height="0.257"/>
<rect x="162.484" y="7.452" width="155.41" height="0.258"/>
<rect x="162.484" y="11.37" width="155.41" height="0.257"/>
<rect x="162.484" y="16.06" width="155.41" height="0.257"/>
<rect x="162.484" y="20.751" width="155.41" height="0.257"/>
<rect x="162.484" y="25.442" width="155.41" height="0.257"/>
<rect x="162.484" y="30.132" width="155.41" height="0.258"/>
<rect x="162.484" y="34.823" width="155.41" height="0.258"/>
<rect x="162.484" y="39.514" width="155.41" height="0.257"/>
<rect x="162.484" y="44.204" width="155.41" height="0.257"/>
<rect x="162.484" y="48.895" width="155.41" height="0.257"/>
<rect x="162.484" y="53.586" width="155.41" height="0.257"/>
<rect x="162.484" y="58.276" width="155.41" height="0.258"/>
<rect x="162.484" y="62.966" width="155.41" height="0.258"/>
<rect y="0.001" fill="none" width="320.315" height="62.854"/>
</svg>
