<?xml version="1.0" encoding="utf-8"?>
<!-- Generator: Adobe Illustrator 18.1.1, SVG Export Plug-In . SVG Version: 6.00 Build 0)  -->
<svg version="1.1" id="Layer_1" xmlns="http://www.w3.org/2000/svg" xmlns:xlink="http://www.w3.org/1999/xlink" x="0px" y="0px"
	 viewBox="0 0 320 65.019" enable-background="new 0 0 320 65.019" xml:space="preserve">
<rect y="0" fill="#ffffff" width="320.315" height="65.019"/>
<rect x="2.562" y="16.432" fill="#c5d9f1" width="156.66" height="4.056"/>
<rect x="162.54" y="16.432" fill="#c5d9f1" width="156.819" height="4.056"/>
<rect x="2.562" y="44.666" fill="#c5d9f1" width="156.66" height="4.056"/>
<rect x="162.54" y="44.666" fill="#c5d9f1" width="156.819" height="4.056"/>
<text transform="matrix(1 0 0 1 2.9301 3.1562)"><tspan x="0" y="0" fill="#1d1d1b" font-family="'Arial'" font-size="2.6865">FL-0</tspan><tspan x="5.524" y="0" fill="#1d1d1b" font-family="'Arial'" font-size="2.6865" letter-spacing="6">8</tspan><tspan x="13.484" y="0" fill="#1d1d1b" font-family="'Arial'" font-size="2.6865">Vinyl Sheet Flooring - Armstrong Accolade Plus: Sand Grey</tspan></text>
<text transform="matrix(1 0 0 1 105.1162 3.1562)"><tspan x="0" y="0" fill="#1d1d1b" font-family="'Arial'" font-size="2.6865">Resilient Floor Finishe</tspan><tspan x="26.576" y="0" fill="#1d1d1b" font-family="'Arial'" font-size="2.6865" letter-spacing="10">s</tspan><tspan x="38.031" y="0" fill="#1d1d1b" font-family="'Arial'" font-size="2.6865">05-50</tspan><tspan x="44.902" y="0" fill="#1d1d1b" font-family="'Arial'" font-size="2.6865" letter-spacing="11">0</tspan><tspan x="57.94" y="0" fill="#1d1d1b" font-family="'Arial'" font-size="2.6865">FL-1</tspan><tspan x="63.464" y="0" fill="#1d1d1b" font-family="'Arial'" font-size="2.6865" letter-spacing="6">8</tspan><tspan x="71.425" y="0" fill="#1d1d1b" font-family="'Arial'" font-size="2.6865">Vinyl Sheet Flooring - Tarkett</tspan></text>
<text transform="matrix(1 0 0 1 211.3405 3.1562)" fill="#1d1d1b" font-family="'Arial'" font-size="2.6865"> IQ Optima: 867 colour.</text>
<text transform="matrix(1 0 0 1 265.2585 3.1562)"><tspan x="0" y="0" fill="#1d1d1b" font-family="'Arial'" font-size="2.6865">Resilient Floor Finishe</tspan><tspan x="26.576" y="0" fill="#1d1d1b" font-family="'Arial'" font-size="2.6865" letter-spacing="10">s</tspan><tspan x="38.031" y="0" fill="#1d1d1b" font-family="'Arial'" font-size="2.6865">05-500</tspan></text>
<rect x="0.071" y="0.001" fill="none" width="319.394" height="65.018"/>
<text transform="matrix(1 0 0 1 2.9301 7.1605)"><tspan x="0" y="0" fill="#1d1d1b" font-family="'Arial'" font-size="2.6865">FL-0</tspan><tspan x="5.524" y="0" fill="#1d1d1b" font-family="'Arial'" font-size="2.6865" letter-spacing="6">9</tspan><tspan x="13.484" y="0" fill="#1d1d1b" font-family="'Arial'" font-size="2.6865">Vinyl Sheet Flooring - Armstrong Accolade Plus: Black Opal</tspan></text>
<text transform="matrix(1 0 0 1 105.1162 7.1605)"><tspan x="0" y="0" fill="#1d1d1b" font-family="'Arial'" font-size="2.6865">Resilient Floor Finishe</tspan><tspan x="26.576" y="0" fill="#1d1d1b" font-family="'Arial'" font-size="2.6865" letter-spacing="10">s</tspan><tspan x="38.031" y="0" fill="#1d1d1b" font-family="'Arial'" font-size="2.6865">05-50</tspan><tspan x="44.902" y="0" fill="#1d1d1b" font-family="'Arial'" font-size="2.6865" letter-spacing="11">0</tspan><tspan x="57.94" y="0" fill="#1d1d1b" font-family="'Arial'" font-size="2.6865">FL-1</tspan><tspan x="63.464" y="0" fill="#1d1d1b" font-family="'Arial'" font-size="2.6865" letter-spacing="6">9</tspan><tspan x="71.425" y="0" fill="#1d1d1b" font-family="'Arial'" font-size="2.6865">Vinyl Sheet Flooring - Tarket</tspan></text>
<text transform="matrix(1 0 0 1 210.5963 7.1605)" fill="#1d1d1b" font-family="'Arial'" font-size="2.6865">t IQ Optima: 859 colour.</text>
<text transform="matrix(1 0 0 1 265.2616 7.1605)"><tspan x="0" y="0" fill="#1d1d1b" font-family="'Arial'" font-size="2.6865">Resilient Floor Finishe</tspan><tspan x="26.576" y="0" fill="#1d1d1b" font-family="'Arial'" font-size="2.6865" letter-spacing="10">s</tspan><tspan x="38.031" y="0" fill="#1d1d1b" font-family="'Arial'" font-size="2.6865">05-500</tspan></text>
<text transform="matrix(1 0 0 1 2.9323 11.1636)"><tspan x="0" y="0" fill="#1d1d1b" font-family="'Arial'" font-size="2.6865">FL-1</tspan><tspan x="5.524" y="0" fill="#1d1d1b" font-family="'Arial'" font-size="2.6865" letter-spacing="6">0</tspan><tspan x="13.484" y="0" fill="#1d1d1b" font-family="'Arial'" font-size="2.6865">Vinyl Sheet Flooring - Armstrong Accolade Safe Plus: Spice Whit</tspan><tspan x="90.68" y="0" fill="#1d1d1b" font-family="'Arial'" font-size="2.6865" letter-spacing="10">e</tspan><tspan x="102.189" y="0" fill="#1d1d1b" font-family="'Arial'" font-size="2.6865">Resilient Floor Finishe</tspan><tspan x="128.766" y="0" fill="#1d1d1b" font-family="'Arial'" font-size="2.6865" letter-spacing="10">s</tspan><tspan x="140.221" y="0" fill="#1d1d1b" font-family="'Arial'" font-size="2.6865">05-50</tspan><tspan x="147.092" y="0" fill="#1d1d1b" font-family="'Arial'" font-size="2.6865" letter-spacing="11">0</tspan><tspan x="160.13" y="0" fill="#1d1d1b" font-family="'Arial'" font-size="2.6865">FL-2</tspan><tspan x="165.653" y="0" fill="#1d1d1b" font-family="'Arial'" font-size="2.6865" letter-spacing="6">0</tspan><tspan x="173.614" y="0" fill="#1d1d1b" font-family="'Arial'" font-size="2.6865">Vinyl Sheet Flooring - </tspan></text>
<text transform="matrix(1 0 0 1 202.9829 11.1636)" fill="#1d1d1b" font-family="'Arial'" font-size="2.6865">Tarkett IQ Optima: 824 colour.</text>
<text transform="matrix(1 0 0 1 265.2616 11.1636)"><tspan x="0" y="0" fill="#1d1d1b" font-family="'Arial'" font-size="2.6865">Resilient Floor Finishe</tspan><tspan x="26.576" y="0" fill="#1d1d1b" font-family="'Arial'" font-size="2.6865" letter-spacing="10">s</tspan><tspan x="38.136" y="0" fill="#1d1d1b" font-family="'Arial'" font-size="2.6865">05-500</tspan></text>
<g>
	<text transform="matrix(1 0 0 1 146.9505 15.1663)" fill="#1d1d1b" font-family="'Arial'" font-size="2.6865">.</text>
	<text transform="matrix(1 0 0 1 118.6109 15.1663)" fill="#1d1d1b" font-family="'Arial'" font-size="2.6865">.</text>
</g>
<g>
	<text transform="matrix(1 0 0 1 307.0847 15.1668)" fill="#1d1d1b" font-family="'Arial'" font-size="2.6865">.</text>
	<text transform="matrix(1 0 0 1 278.745 15.1668)" fill="#1d1d1b" font-family="'Arial'" font-size="2.6865">.</text>
</g>
<rect x="0.071" y="0.001" fill="none" width="319.394" height="65.018"/>
<text transform="matrix(1 0 0 1 16.4157 19.2237)" fill="#1d1d1b" font-family="'Arial'" font-weight="bolder" font-size="2.6865">Glass Types</text>
<text transform="matrix(1 0 0 1 118.6071 19.2237)" fill="#1d1d1b" font-family="'Arial'" font-weight="bolder" font-size="2.6865">.</text>
<text transform="matrix(1 0 0 1 146.9468 19.2237)" fill="#1d1d1b" font-family="'Arial'" font-weight="bolder" font-size="2.6865">.</text>
<text transform="matrix(1 0 0 1 176.552 19.2237)" fill="#1d1d1b" font-family="'Arial'" font-weight="bolder" font-size="2.6865">Glass Types</text>
<g>
	<text transform="matrix(1 0 0 1 307.0847 19.2237)" fill="#1d1d1b" font-family="'Arial'" font-weight="bolder" font-size="2.6865">.</text>
	<text transform="matrix(1 0 0 1 278.745 19.2237)" fill="#1d1d1b" font-family="'Arial'" font-weight="bolder" font-size="2.6865">.</text>
</g>
<rect x="0.071" y="0.001" fill="none" width="319.394" height="65.018"/>
<text transform="matrix(1 0 0 1 2.9296 23.1737)"><tspan x="0" y="0" fill="#1d1d1b" font-family="'Arial'" font-size="2.6865">VG-0</tspan><tspan x="6.27" y="0" fill="#1d1d1b" font-family="'Arial'" font-size="2.6865" letter-spacing="5">1</tspan><tspan x="13.484" y="0" fill="#1d1d1b" font-family="'Arial'" font-size="2.6865">Vision Glass</tspan></text>
<text transform="matrix(1 0 0 1 109.651 23.1737)" fill="#1d1d1b" font-family="'Arial'" font-size="2.6865">Façade Glazing</text>
<text transform="matrix(1 0 0 1 163.0616 23.1737)"><tspan x="0" y="0" fill="#1d1d1b" font-family="'Arial'" font-size="2.6865">VG-0</tspan><tspan x="6.27" y="0" fill="#1d1d1b" font-family="'Arial'" font-size="2.6865" letter-spacing="5">6</tspan><tspan x="13.484" y="0" fill="#1d1d1b" font-family="'Arial'" font-size="2.6865">Vision Glass</tspan></text>
<text transform="matrix(1 0 0 1 269.782 23.1737)" fill="#1d1d1b" font-family="'Arial'" font-size="2.6865">Façade Glazing</text>
<text transform="matrix(1 0 0 1 2.9296 27.1774)"><tspan x="0" y="0" fill="#1d1d1b" font-family="'Arial'" font-size="2.6865">VG-0</tspan><tspan x="6.27" y="0" fill="#1d1d1b" font-family="'Arial'" font-size="2.6865" letter-spacing="5">2</tspan><tspan x="13.484" y="0" fill="#1d1d1b" font-family="'Arial'" font-size="2.6865">Safety Vision Glass</tspan></text>
<text transform="matrix(1 0 0 1 109.651 27.1774)" fill="#1d1d1b" font-family="'Arial'" font-size="2.6865">Façade Glazing</text>
<text transform="matrix(1 0 0 1 163.0616 27.1774)"><tspan x="0" y="0" fill="#1d1d1b" font-family="'Arial'" font-size="2.6865">VG-0</tspan><tspan x="6.27" y="0" fill="#1d1d1b" font-family="'Arial'" font-size="2.6865" letter-spacing="5">7</tspan><tspan x="13.484" y="0" fill="#1d1d1b" font-family="'Arial'" font-size="2.6865">Safety Vision Glass</tspan></text>
<text transform="matrix(1 0 0 1 269.782 27.1774)" fill="#1d1d1b" font-family="'Arial'" font-size="2.6865">Façade Glazing</text>
<text transform="matrix(1 0 0 1 2.9296 31.3922)"><tspan x="0" y="0" fill="#1d1d1b" font-family="'Arial'" font-size="2.6865">VG-0</tspan><tspan x="6.27" y="0" fill="#1d1d1b" font-family="'Arial'" font-size="2.6865" letter-spacing="5">3</tspan><tspan x="13.484" y="0" fill="#1d1d1b" font-family="'Arial'" font-size="2.6865">Spandrel Glass</tspan></text>
<text transform="matrix(1 0 0 1 109.6483 31.3922)" fill="#1d1d1b" font-family="'Arial'" font-size="2.6865">Façade Glazing</text>
<text transform="matrix(1 0 0 1 163.0584 31.3922)"><tspan x="0" y="0" fill="#1d1d1b" font-family="'Arial'" font-size="2.6865">VG-0</tspan><tspan x="6.27" y="0" fill="#1d1d1b" font-family="'Arial'" font-size="2.6865" letter-spacing="5">8</tspan><tspan x="13.484" y="0" fill="#1d1d1b" font-family="'Arial'" font-size="2.6865">Spandrel Glass</tspan></text>
<text transform="matrix(1 0 0 1 269.777 31.3922)" fill="#1d1d1b" font-family="'Arial'" font-size="2.6865">Façade Glazing</text>
<text transform="matrix(1 0 0 1 2.9269 35.3948)"><tspan x="0" y="0" fill="#1d1d1b" font-family="'Arial'" font-size="2.6865">VG-0</tspan><tspan x="6.27" y="0" fill="#1d1d1b" font-family="'Arial'" font-size="2.6865" letter-spacing="5">4</tspan><tspan x="13.484" y="0" fill="#1d1d1b" font-family="'Arial'" font-size="2.6865">Safety Vision Glass</tspan></text>
<text transform="matrix(1 0 0 1 109.6483 35.3948)" fill="#1d1d1b" font-family="'Arial'" font-size="2.6865">Façade Glazing</text>
<text transform="matrix(1 0 0 1 163.0584 35.3948)"><tspan x="0" y="0" fill="#1d1d1b" font-family="'Arial'" font-size="2.6865">VG-0</tspan><tspan x="6.27" y="0" fill="#1d1d1b" font-family="'Arial'" font-size="2.6865" letter-spacing="5">9</tspan><tspan x="13.484" y="0" fill="#1d1d1b" font-family="'Arial'" font-size="2.6865">Safety Vision Glass</tspan></text>
<text transform="matrix(1 0 0 1 269.7798 35.3948)" fill="#1d1d1b" font-family="'Arial'" font-size="2.6865">Façade Glazing</text>
<text transform="matrix(1 0 0 1 2.9269 39.3981)"><tspan x="0" y="0" fill="#1d1d1b" font-family="'Arial'" font-size="2.6865">VG-0</tspan><tspan x="6.27" y="0" fill="#1d1d1b" font-family="'Arial'" font-size="2.6865" letter-spacing="5">5</tspan><tspan x="13.484" y="0" fill="#1d1d1b" font-family="'Arial'" font-size="2.6865">Laminated Safety Glass</tspan></text>
<text transform="matrix(1 0 0 1 109.753 39.3981)" fill="#1d1d1b" font-family="'Arial'" font-size="2.6865">Façade Glazing</text>
<text transform="matrix(1 0 0 1 163.0584 39.3981)"><tspan x="0" y="0" fill="#1d1d1b" font-family="'Arial'" font-size="2.6865">VG-1</tspan><tspan x="6.27" y="0" fill="#1d1d1b" font-family="'Arial'" font-size="2.6865" letter-spacing="5">0</tspan><tspan x="13.484" y="0" fill="#1d1d1b" font-family="'Arial'" font-size="2.6865">Laminated Safety Glass</tspan></text>
<text transform="matrix(1 0 0 1 269.8845 39.3981)" fill="#1d1d1b" font-family="'Arial'" font-size="2.6865">Façade Glazing</text>
<g>
	<text transform="matrix(1 0 0 1 146.9447 43.4007)" fill="#1d1d1b" font-family="'Arial'" font-size="2.6865">.</text>
	<text transform="matrix(1 0 0 1 118.605 43.4007)" fill="#1d1d1b" font-family="'Arial'" font-size="2.6865">.</text>
</g>
<g>
	<text transform="matrix(1 0 0 1 307.0837 43.4018)" fill="#1d1d1b" font-family="'Arial'" font-size="2.6865">.</text>
	<text transform="matrix(1 0 0 1 278.744 43.4018)" fill="#1d1d1b" font-family="'Arial'" font-size="2.6865">.</text>
</g>
<rect x="0.071" y="0.001" fill="none" width="319.394" height="65.018"/>
<text transform="matrix(1 0 0 1 16.4151 47.4581)" fill="#1d1d1b" font-family="'Arial'" font-weight="bolder" font-size="2.6865">Internal Linings</text>
<text transform="matrix(1 0 0 1 118.6092 47.4581)" fill="#1d1d1b" font-family="'Arial'" font-weight="bolder" font-size="2.6865">.</text>
<text transform="matrix(1 0 0 1 147.0536 47.4581)" fill="#1d1d1b" font-family="'Arial'" font-weight="bolder" font-size="2.6865">.</text>
<text transform="matrix(1 0 0 1 176.5541 47.4581)" fill="#1d1d1b" font-family="'Arial'" font-weight="bolder" font-size="2.6865">Internal Linings</text>
<text transform="matrix(1 0 0 1 278.7488 47.4581)" fill="#1d1d1b" font-family="'Arial'" font-weight="bolder" font-size="2.6865">.</text>
<text transform="matrix(1 0 0 1 307.1932 47.4581)" fill="#1d1d1b" font-family="'Arial'" font-weight="bolder" font-size="2.6865">.</text>
<text transform="matrix(1 0 0 1 2.9258 51.4098)"><tspan x="0" y="0" fill="#1d1d1b" font-family="'Arial'" font-size="2.6865">IL-0</tspan><tspan x="4.629" y="0" fill="#1d1d1b" font-family="'Arial'" font-size="2.6865" letter-spacing="7">1</tspan><tspan x="13.484" y="0" fill="#1d1d1b" font-family="'Arial'" font-size="2.6865">Plasterboard</tspan></text>
<text transform="matrix(1 0 0 1 113.3841 51.4098)" fill="#1d1d1b" font-family="'Arial'" font-size="2.6865">Partitions</text>
<text transform="matrix(1 0 0 1 143.2497 51.4098)"><tspan x="0" y="0" fill="#1d1d1b" font-family="'Arial'" font-size="2.6865">05-10</tspan><tspan x="6.871" y="0" fill="#1d1d1b" font-family="'Arial'" font-size="2.6865" letter-spacing="11">0</tspan><tspan x="19.804" y="0" fill="#1d1d1b" font-family="'Arial'" font-size="2.6865">IL-0</tspan><tspan x="24.434" y="0" fill="#1d1d1b" font-family="'Arial'" font-size="2.6865" letter-spacing="7">9</tspan><tspan x="33.289" y="0" fill="#1d1d1b" font-family="'Arial'" font-size="2.6865">Sheet Wall Vinyl </tspan></text>
<text transform="matrix(1 0 0 1 263.3475 51.4098)"><tspan x="0" y="0" fill="#1d1d1b" font-family="'Arial'" font-size="2.6865">Painting and Wall Finishe</tspan><tspan x="30.313" y="0" fill="#1d1d1b" font-family="'Arial'" font-size="2.6865" letter-spacing="8">s</tspan><tspan x="40.033" y="0" fill="#1d1d1b" font-family="'Arial'" font-size="2.6865">05-500</tspan></text>
<text transform="matrix(1 0 0 1 2.9231 55.4125)"><tspan x="0" y="0" fill="#1d1d1b" font-family="'Arial'" font-size="2.6865">IL-0</tspan><tspan x="4.629" y="0" fill="#1d1d1b" font-family="'Arial'" font-size="2.6865" letter-spacing="7">2</tspan><tspan x="13.484" y="0" fill="#1d1d1b" font-family="'Arial'" font-size="2.6865">Fire resistant plasterboard</tspan></text>
<text transform="matrix(1 0 0 1 113.3814 55.4125)" fill="#1d1d1b" font-family="'Arial'" font-size="2.6865">Partitions</text>
<text transform="matrix(1 0 0 1 143.2469 55.4125)"><tspan x="0" y="0" fill="#1d1d1b" font-family="'Arial'" font-size="2.6865">05-10</tspan><tspan x="6.871" y="0" fill="#1d1d1b" font-family="'Arial'" font-size="2.6865" letter-spacing="11">0</tspan><tspan x="19.804" y="0" fill="#1d1d1b" font-family="'Arial'" font-size="2.6865">IL-1</tspan><tspan x="24.434" y="0" fill="#1d1d1b" font-family="'Arial'" font-size="2.6865" letter-spacing="7">0</tspan><tspan x="33.289" y="0" fill="#1d1d1b" font-family="'Arial'" font-size="2.6865">Sheet Wall Vinyl </tspan></text>
<text transform="matrix(1 0 0 1 263.3444 55.4125)"><tspan x="0" y="0" fill="#1d1d1b" font-family="'Arial'" font-size="2.6865">Painting and Wall Finishe</tspan><tspan x="30.313" y="0" fill="#1d1d1b" font-family="'Arial'" font-size="2.6865" letter-spacing="8">s</tspan><tspan x="40.033" y="0" fill="#1d1d1b" font-family="'Arial'" font-size="2.6865">05-500</tspan></text>
<text transform="matrix(1 0 0 1 2.9231 59.4156)"><tspan x="0" y="0" fill="#1d1d1b" font-family="'Arial'" font-size="2.6865">IL-0</tspan><tspan x="4.629" y="0" fill="#1d1d1b" font-family="'Arial'" font-size="2.6865" letter-spacing="7">3</tspan><tspan x="13.484" y="0" fill="#1d1d1b" font-family="'Arial'" font-size="2.6865">Impact resistant plasterboard</tspan></text>
<text transform="matrix(1 0 0 1 113.3814 59.4156)" fill="#1d1d1b" font-family="'Arial'" font-size="2.6865">Partitions</text>
<text transform="matrix(1 0 0 1 143.2469 59.4156)"><tspan x="0" y="0" fill="#1d1d1b" font-family="'Arial'" font-size="2.6865">05-10</tspan><tspan x="6.871" y="0" fill="#1d1d1b" font-family="'Arial'" font-size="2.6865" letter-spacing="11">0</tspan><tspan x="19.804" y="0" fill="#1d1d1b" font-family="'Arial'" font-size="2.6865">IL-1</tspan><tspan x="24.434" y="0" fill="#1d1d1b" font-family="'Arial'" font-size="2.6865" letter-spacing="7">1</tspan><tspan x="33.289" y="0" fill="#1d1d1b" font-family="'Arial'" font-size="2.6865">Sheet Wall Vinyl </tspan></text>
<text transform="matrix(1 0 0 1 263.3444 59.4156)"><tspan x="0" y="0" fill="#1d1d1b" font-family="'Arial'" font-size="2.6865">Painting and Wall Finishe</tspan><tspan x="30.313" y="0" fill="#1d1d1b" font-family="'Arial'" font-size="2.6865" letter-spacing="8">s</tspan><tspan x="40.033" y="0" fill="#1d1d1b" font-family="'Arial'" font-size="2.6865">05-500</tspan></text>
<text transform="matrix(1 0 0 1 2.921 63.4183)"><tspan x="0" y="0" fill="#1d1d1b" font-family="'Arial'" font-size="2.6865">IL-0</tspan><tspan x="4.629" y="0" fill="#1d1d1b" font-family="'Arial'" font-size="2.6865" letter-spacing="7">4</tspan><tspan x="13.484" y="0" fill="#1d1d1b" font-family="'Arial'" font-size="2.6865">Moisture resistant plasterboard</tspan></text>
<text transform="matrix(1 0 0 1 113.3787 63.4183)" fill="#1d1d1b" font-family="'Arial'" font-size="2.6865">Partitions</text>
<text transform="matrix(1 0 0 1 143.2443 63.4183)" fill="#1d1d1b" font-family="'Arial'" font-size="2.6865">05-100</text>
<rect x="0.071" y="0.001" fill="none" width="319.394" height="65.018"/>
<rect x="2.562" y="0.312" fill="#1d1d1b" width="156.766" height="0.264"/>
<rect x="2.562" y="4.315" fill="#1d1d1b" width="156.766" height="0.264"/>
<rect x="2.562" y="8.319" fill="#1d1d1b" width="156.766" height="0.263"/>
<rect x="2.562" y="12.323" fill="#1d1d1b" width="156.766" height="0.264"/>
<rect x="2.562" y="16.326" fill="#1d1d1b" width="156.766" height="0.264"/>
<rect x="2.562" y="20.329" fill="#1d1d1b" width="156.766" height="0.264"/>
<rect x="2.562" y="24.333" fill="#1d1d1b" width="156.766" height="0.263"/>
<rect x="2.562" y="28.547" fill="#1d1d1b" width="156.766" height="0.264"/>
<rect x="2.562" y="32.55" fill="#1d1d1b" width="156.766" height="0.264"/>
<rect x="2.562" y="36.554" fill="#1d1d1b" width="156.766" height="0.263"/>
<rect x="2.562" y="40.557" fill="#1d1d1b" width="156.766" height="0.264"/>
<rect x="2.562" y="44.561" fill="#1d1d1b" width="156.766" height="0.264"/>
<rect x="2.562" y="48.564" fill="#1d1d1b" width="156.766" height="0.264"/>
<rect x="2.562" y="52.568" fill="#1d1d1b" width="156.766" height="0.263"/>
<rect x="2.562" y="56.571" fill="#1d1d1b" width="156.766" height="0.263"/>
<rect x="2.562" y="60.574" fill="#1d1d1b" width="156.766" height="0.264"/>
<rect x="2.562" y="64.577" fill="#1d1d1b" width="156.766" height="0.264"/>
<rect x="2.298" y="0.001" fill="#1d1d1b" width="0.264" height="65.018"/>
<rect x="15.784" y="0.001" fill="#1d1d1b" width="0.263" height="65.018"/>
<rect x="102.383" y="0.001" fill="#1d1d1b" width="0.264" height="65.018"/>
<rect x="135.254" y="0.001" fill="#1d1d1b" width="0.263" height="65.018"/>
<rect x="159.064" y="0.001" fill="#1d1d1b" width="0.264" height="65.018"/>
<rect x="162.435" y="0.001" fill="#1d1d1b" width="0.264" height="65.018"/>
<rect x="175.921" y="0.001" fill="#1d1d1b" width="0.263" height="65.018"/>
<rect x="262.52" y="0.001" fill="#1d1d1b" width="0.264" height="65.018"/>
<rect x="295.391" y="0.001" fill="#1d1d1b" width="0.263" height="65.018"/>
<rect x="319.201" y="0.001" fill="#1d1d1b" width="0.264" height="65.018"/>
<rect x="162.699" y="0.312" fill="#1d1d1b" width="156.766" height="0.264"/>
<rect x="162.699" y="4.315" fill="#1d1d1b" width="156.766" height="0.264"/>
<rect x="162.699" y="8.319" fill="#1d1d1b" width="156.766" height="0.263"/>
<rect x="162.699" y="12.323" fill="#1d1d1b" width="156.766" height="0.264"/>
<rect x="162.699" y="16.326" fill="#1d1d1b" width="156.766" height="0.264"/>
<rect x="162.699" y="20.329" fill="#1d1d1b" width="156.766" height="0.264"/>
<rect x="162.699" y="24.333" fill="#1d1d1b" width="156.766" height="0.263"/>
<rect x="162.699" y="28.547" fill="#1d1d1b" width="156.766" height="0.264"/>
<rect x="162.699" y="32.55" fill="#1d1d1b" width="156.766" height="0.264"/>
<rect x="162.699" y="36.554" fill="#1d1d1b" width="156.766" height="0.263"/>
<rect x="162.699" y="40.557" fill="#1d1d1b" width="156.766" height="0.264"/>
<rect x="162.699" y="44.561" fill="#1d1d1b" width="156.766" height="0.264"/>
<rect x="162.699" y="48.564" fill="#1d1d1b" width="156.766" height="0.264"/>
<rect x="162.699" y="52.568" fill="#1d1d1b" width="156.766" height="0.263"/>
<rect x="162.699" y="56.571" fill="#1d1d1b" width="156.766" height="0.263"/>
<rect x="162.699" y="60.574" fill="#1d1d1b" width="156.766" height="0.264"/>
<rect x="162.699" y="64.577" fill="#1d1d1b" width="156.766" height="0.264"/>
</svg>
