<svg xmlns="http://www.w3.org/2000/svg" viewBox="0 0 320 65.019">
  <path fill="#fff" d="M0 0h320.315v65.019H0z"/>
  <path fill="#c5d9f1" d="M2.562 16.432h156.66v4.056H2.562zm159.978 0h156.819v4.056H162.54zM2.562 44.666h156.66v4.056H2.562zm159.978 0h156.819v4.056H162.54z"/>
  <text transform="translate(2.93 3.156)">
    <tspan x="0" y="0" fill="#1d1d1b" font-family="'Arial'" font-size="2.687">FL-0</tspan><tspan x="5.524" y="0" fill="#1d1d1b" font-family="'Arial'" font-size="2.687" letter-spacing="6">8</tspan><tspan x="13.484" y="0" fill="#1d1d1b" font-family="'Arial'" font-size="2.687">Vinyl Sheet Flooring - Armstrong Accolade Plus: Sand Grey</tspan>
  </text>
  <text transform="translate(105.116 3.156)">
    <tspan x="0" y="0" fill="#1d1d1b" font-family="'Arial'" font-size="2.687">Resilient Floor Finishe</tspan><tspan x="26.576" y="0" fill="#1d1d1b" font-family="'Arial'" font-size="2.687" letter-spacing="10">s</tspan><tspan x="38.031" y="0" fill="#1d1d1b" font-family="'Arial'" font-size="2.687">05-50</tspan><tspan x="44.902" y="0" fill="#1d1d1b" font-family="'Arial'" font-size="2.687" letter-spacing="11">0</tspan><tspan x="57.94" y="0" fill="#1d1d1b" font-family="'Arial'" font-size="2.687">FL-1</tspan><tspan x="63.464" y="0" fill="#1d1d1b" font-family="'Arial'" font-size="2.687" letter-spacing="6">8</tspan><tspan x="71.425" y="0" fill="#1d1d1b" font-family="'Arial'" font-size="2.687">Vinyl Sheet Flooring - Tarkett</tspan>
  </text>
  <text transform="translate(211.34 3.156)" fill="#1d1d1b" font-family="'Arial'" font-size="2.687">
    IQ Optima: 867 colour.
  </text>
  <text transform="translate(265.259 3.156)">
    <tspan x="0" y="0" fill="#1d1d1b" font-family="'Arial'" font-size="2.687">Resilient Floor Finishe</tspan><tspan x="26.576" y="0" fill="#1d1d1b" font-family="'Arial'" font-size="2.687" letter-spacing="10">s</tspan><tspan x="38.031" y="0" fill="#1d1d1b" font-family="'Arial'" font-size="2.687">05-500</tspan>
  </text>
  <path fill="none" d="M.071.001h319.394v65.018H.071z"/>
  <text transform="translate(2.93 7.16)">
    <tspan x="0" y="0" fill="#1d1d1b" font-family="'Arial'" font-size="2.687">FL-0</tspan><tspan x="5.524" y="0" fill="#1d1d1b" font-family="'Arial'" font-size="2.687" letter-spacing="6">9</tspan><tspan x="13.484" y="0" fill="#1d1d1b" font-family="'Arial'" font-size="2.687">Vinyl Sheet Flooring - Armstrong Accolade Plus: Black Opal</tspan>
  </text>
  <text transform="translate(105.116 7.16)">
    <tspan x="0" y="0" fill="#1d1d1b" font-family="'Arial'" font-size="2.687">Resilient Floor Finishe</tspan><tspan x="26.576" y="0" fill="#1d1d1b" font-family="'Arial'" font-size="2.687" letter-spacing="10">s</tspan><tspan x="38.031" y="0" fill="#1d1d1b" font-family="'Arial'" font-size="2.687">05-50</tspan><tspan x="44.902" y="0" fill="#1d1d1b" font-family="'Arial'" font-size="2.687" letter-spacing="11">0</tspan><tspan x="57.94" y="0" fill="#1d1d1b" font-family="'Arial'" font-size="2.687">FL-1</tspan><tspan x="63.464" y="0" fill="#1d1d1b" font-family="'Arial'" font-size="2.687" letter-spacing="6">9</tspan><tspan x="71.425" y="0" fill="#1d1d1b" font-family="'Arial'" font-size="2.687">Vinyl Sheet Flooring - Tarket</tspan>
  </text>
  <text transform="translate(210.596 7.16)" fill="#1d1d1b" font-family="'Arial'" font-size="2.687">
    t IQ Optima: 859 colour.
  </text>
  <text transform="translate(265.262 7.16)">
    <tspan x="0" y="0" fill="#1d1d1b" font-family="'Arial'" font-size="2.687">Resilient Floor Finishe</tspan><tspan x="26.576" y="0" fill="#1d1d1b" font-family="'Arial'" font-size="2.687" letter-spacing="10">s</tspan><tspan x="38.031" y="0" fill="#1d1d1b" font-family="'Arial'" font-size="2.687">05-500</tspan>
  </text>
  <text transform="translate(2.932 11.164)">
    <tspan x="0" y="0" fill="#1d1d1b" font-family="'Arial'" font-size="2.687">FL-1</tspan><tspan x="5.524" y="0" fill="#1d1d1b" font-family="'Arial'" font-size="2.687" letter-spacing="6">0</tspan><tspan x="13.484" y="0" fill="#1d1d1b" font-family="'Arial'" font-size="2.687">Vinyl Sheet Flooring - Armstrong Accolade Safe Plus: Spice Whit</tspan><tspan x="90.68" y="0" fill="#1d1d1b" font-family="'Arial'" font-size="2.687" letter-spacing="10">e</tspan><tspan x="102.189" y="0" fill="#1d1d1b" font-family="'Arial'" font-size="2.687">Resilient Floor Finishe</tspan><tspan x="128.766" y="0" fill="#1d1d1b" font-family="'Arial'" font-size="2.687" letter-spacing="10">s</tspan><tspan x="140.221" y="0" fill="#1d1d1b" font-family="'Arial'" font-size="2.687">05-50</tspan><tspan x="147.092" y="0" fill="#1d1d1b" font-family="'Arial'" font-size="2.687" letter-spacing="11">0</tspan><tspan x="160.13" y="0" fill="#1d1d1b" font-family="'Arial'" font-size="2.687">FL-2</tspan><tspan x="165.653" y="0" fill="#1d1d1b" font-family="'Arial'" font-size="2.687" letter-spacing="6">0</tspan><tspan x="173.614" y="0" fill="#1d1d1b" font-family="'Arial'" font-size="2.687">Vinyl Sheet Flooring -</tspan>
  </text>
  <text transform="translate(202.983 11.164)" fill="#1d1d1b" font-family="'Arial'" font-size="2.687">
    Tarkett IQ Optima: 824 colour.
  </text>
  <text transform="translate(265.262 11.164)">
    <tspan x="0" y="0" fill="#1d1d1b" font-family="'Arial'" font-size="2.687">Resilient Floor Finishe</tspan><tspan x="26.576" y="0" fill="#1d1d1b" font-family="'Arial'" font-size="2.687" letter-spacing="10">s</tspan><tspan x="38.136" y="0" fill="#1d1d1b" font-family="'Arial'" font-size="2.687">05-500</tspan>
  </text>
  <g fill="#1d1d1b" font-family="'Arial'" font-size="2.687">
    <text transform="translate(146.95 15.166)">
      .
    </text>
    <text transform="translate(118.61 15.166)">
      .
    </text>
  </g>
  <g fill="#1d1d1b" font-family="'Arial'" font-size="2.687">
    <text transform="translate(307.085 15.167)">
      .
    </text>
    <text transform="translate(278.745 15.167)">
      .
    </text>
  </g>
  <path fill="none" d="M.071.001h319.394v65.018H.071z"/>
  <text transform="translate(16.416 19.224)" fill="#1d1d1b" font-family="'Arial'" font-weight="bolder" font-size="2.687">
    Glass Types
  </text>
  <text transform="translate(118.607 19.224)" fill="#1d1d1b" font-family="'Arial'" font-weight="bolder" font-size="2.687">
    .
  </text>
  <text transform="translate(146.947 19.224)" fill="#1d1d1b" font-family="'Arial'" font-weight="bolder" font-size="2.687">
    .
  </text>
  <text transform="translate(176.552 19.224)" fill="#1d1d1b" font-family="'Arial'" font-weight="bolder" font-size="2.687">
    Glass Types
  </text>
  <g fill="#1d1d1b" font-family="'Arial'" font-weight="bolder" font-size="2.687">
    <text transform="translate(307.085 19.224)">
      .
    </text>
    <text transform="translate(278.745 19.224)">
      .
    </text>
  </g>
  <path fill="none" d="M.071.001h319.394v65.018H.071z"/>
  <text transform="translate(2.93 23.174)">
    <tspan x="0" y="0" fill="#1d1d1b" font-family="'Arial'" font-size="2.687">VG-0</tspan><tspan x="6.27" y="0" fill="#1d1d1b" font-family="'Arial'" font-size="2.687" letter-spacing="5">1</tspan><tspan x="13.484" y="0" fill="#1d1d1b" font-family="'Arial'" font-size="2.687">Vision Glass</tspan>
  </text>
  <text transform="translate(109.651 23.174)" fill="#1d1d1b" font-family="'Arial'" font-size="2.687">
    Façade Glazing
  </text>
  <text transform="translate(163.062 23.174)">
    <tspan x="0" y="0" fill="#1d1d1b" font-family="'Arial'" font-size="2.687">VG-0</tspan><tspan x="6.27" y="0" fill="#1d1d1b" font-family="'Arial'" font-size="2.687" letter-spacing="5">6</tspan><tspan x="13.484" y="0" fill="#1d1d1b" font-family="'Arial'" font-size="2.687">Vision Glass</tspan>
  </text>
  <text transform="translate(269.782 23.174)" fill="#1d1d1b" font-family="'Arial'" font-size="2.687">
    Façade Glazing
  </text>
  <text transform="translate(2.93 27.177)">
    <tspan x="0" y="0" fill="#1d1d1b" font-family="'Arial'" font-size="2.687">VG-0</tspan><tspan x="6.27" y="0" fill="#1d1d1b" font-family="'Arial'" font-size="2.687" letter-spacing="5">2</tspan><tspan x="13.484" y="0" fill="#1d1d1b" font-family="'Arial'" font-size="2.687">Safety Vision Glass</tspan>
  </text>
  <text transform="translate(109.651 27.177)" fill="#1d1d1b" font-family="'Arial'" font-size="2.687">
    Façade Glazing
  </text>
  <text transform="translate(163.062 27.177)">
    <tspan x="0" y="0" fill="#1d1d1b" font-family="'Arial'" font-size="2.687">VG-0</tspan><tspan x="6.27" y="0" fill="#1d1d1b" font-family="'Arial'" font-size="2.687" letter-spacing="5">7</tspan><tspan x="13.484" y="0" fill="#1d1d1b" font-family="'Arial'" font-size="2.687">Safety Vision Glass</tspan>
  </text>
  <text transform="translate(269.782 27.177)" fill="#1d1d1b" font-family="'Arial'" font-size="2.687">
    Façade Glazing
  </text>
  <text transform="translate(2.93 31.392)">
    <tspan x="0" y="0" fill="#1d1d1b" font-family="'Arial'" font-size="2.687">VG-0</tspan><tspan x="6.27" y="0" fill="#1d1d1b" font-family="'Arial'" font-size="2.687" letter-spacing="5">3</tspan><tspan x="13.484" y="0" fill="#1d1d1b" font-family="'Arial'" font-size="2.687">Spandrel Glass</tspan>
  </text>
  <text transform="translate(109.648 31.392)" fill="#1d1d1b" font-family="'Arial'" font-size="2.687">
    Façade Glazing
  </text>
  <text transform="translate(163.058 31.392)">
    <tspan x="0" y="0" fill="#1d1d1b" font-family="'Arial'" font-size="2.687">VG-0</tspan><tspan x="6.27" y="0" fill="#1d1d1b" font-family="'Arial'" font-size="2.687" letter-spacing="5">8</tspan><tspan x="13.484" y="0" fill="#1d1d1b" font-family="'Arial'" font-size="2.687">Spandrel Glass</tspan>
  </text>
  <text transform="translate(269.777 31.392)" fill="#1d1d1b" font-family="'Arial'" font-size="2.687">
    Façade Glazing
  </text>
  <text transform="translate(2.927 35.395)">
    <tspan x="0" y="0" fill="#1d1d1b" font-family="'Arial'" font-size="2.687">VG-0</tspan><tspan x="6.27" y="0" fill="#1d1d1b" font-family="'Arial'" font-size="2.687" letter-spacing="5">4</tspan><tspan x="13.484" y="0" fill="#1d1d1b" font-family="'Arial'" font-size="2.687">Safety Vision Glass</tspan>
  </text>
  <text transform="translate(109.648 35.395)" fill="#1d1d1b" font-family="'Arial'" font-size="2.687">
    Façade Glazing
  </text>
  <text transform="translate(163.058 35.395)">
    <tspan x="0" y="0" fill="#1d1d1b" font-family="'Arial'" font-size="2.687">VG-0</tspan><tspan x="6.27" y="0" fill="#1d1d1b" font-family="'Arial'" font-size="2.687" letter-spacing="5">9</tspan><tspan x="13.484" y="0" fill="#1d1d1b" font-family="'Arial'" font-size="2.687">Safety Vision Glass</tspan>
  </text>
  <text transform="translate(269.78 35.395)" fill="#1d1d1b" font-family="'Arial'" font-size="2.687">
    Façade Glazing
  </text>
  <text transform="translate(2.927 39.398)">
    <tspan x="0" y="0" fill="#1d1d1b" font-family="'Arial'" font-size="2.687">VG-0</tspan><tspan x="6.27" y="0" fill="#1d1d1b" font-family="'Arial'" font-size="2.687" letter-spacing="5">5</tspan><tspan x="13.484" y="0" fill="#1d1d1b" font-family="'Arial'" font-size="2.687">Laminated Safety Glass</tspan>
  </text>
  <text transform="translate(109.753 39.398)" fill="#1d1d1b" font-family="'Arial'" font-size="2.687">
    Façade Glazing
  </text>
  <text transform="translate(163.058 39.398)">
    <tspan x="0" y="0" fill="#1d1d1b" font-family="'Arial'" font-size="2.687">VG-1</tspan><tspan x="6.27" y="0" fill="#1d1d1b" font-family="'Arial'" font-size="2.687" letter-spacing="5">0</tspan><tspan x="13.484" y="0" fill="#1d1d1b" font-family="'Arial'" font-size="2.687">Laminated Safety Glass</tspan>
  </text>
  <text transform="translate(269.885 39.398)" fill="#1d1d1b" font-family="'Arial'" font-size="2.687">
    Façade Glazing
  </text>
  <g fill="#1d1d1b" font-family="'Arial'" font-size="2.687">
    <text transform="translate(146.945 43.4)">
      .
    </text>
    <text transform="translate(118.605 43.4)">
      .
    </text>
  </g>
  <g fill="#1d1d1b" font-family="'Arial'" font-size="2.687">
    <text transform="translate(307.084 43.402)">
      .
    </text>
    <text transform="translate(278.744 43.402)">
      .
    </text>
  </g>
  <path fill="none" d="M.071.001h319.394v65.018H.071z"/>
  <text transform="translate(16.415 47.458)" fill="#1d1d1b" font-family="'Arial'" font-weight="bolder" font-size="2.687">
    Internal Linings
  </text>
  <text transform="translate(118.61 47.458)" fill="#1d1d1b" font-family="'Arial'" font-weight="bolder" font-size="2.687">
    .
  </text>
  <text transform="translate(147.054 47.458)" fill="#1d1d1b" font-family="'Arial'" font-weight="bolder" font-size="2.687">
    .
  </text>
  <text transform="translate(176.554 47.458)" fill="#1d1d1b" font-family="'Arial'" font-weight="bolder" font-size="2.687">
    Internal Linings
  </text>
  <text transform="translate(278.749 47.458)" fill="#1d1d1b" font-family="'Arial'" font-weight="bolder" font-size="2.687">
    .
  </text>
  <text transform="translate(307.193 47.458)" fill="#1d1d1b" font-family="'Arial'" font-weight="bolder" font-size="2.687">
    .
  </text>
  <text transform="translate(2.926 51.41)">
    <tspan x="0" y="0" fill="#1d1d1b" font-family="'Arial'" font-size="2.687">IL-0</tspan><tspan x="4.629" y="0" fill="#1d1d1b" font-family="'Arial'" font-size="2.687" letter-spacing="7">1</tspan><tspan x="13.484" y="0" fill="#1d1d1b" font-family="'Arial'" font-size="2.687">Plasterboard</tspan>
  </text>
  <text transform="translate(113.384 51.41)" fill="#1d1d1b" font-family="'Arial'" font-size="2.687">
    Partitions
  </text>
  <text transform="translate(143.25 51.41)">
    <tspan x="0" y="0" fill="#1d1d1b" font-family="'Arial'" font-size="2.687">05-10</tspan><tspan x="6.871" y="0" fill="#1d1d1b" font-family="'Arial'" font-size="2.687" letter-spacing="11">0</tspan><tspan x="19.804" y="0" fill="#1d1d1b" font-family="'Arial'" font-size="2.687">IL-0</tspan><tspan x="24.434" y="0" fill="#1d1d1b" font-family="'Arial'" font-size="2.687" letter-spacing="7">9</tspan><tspan x="33.289" y="0" fill="#1d1d1b" font-family="'Arial'" font-size="2.687">Sheet Wall Vinyl</tspan>
  </text>
  <text transform="translate(263.348 51.41)">
    <tspan x="0" y="0" fill="#1d1d1b" font-family="'Arial'" font-size="2.687">Painting and Wall Finishe</tspan><tspan x="30.313" y="0" fill="#1d1d1b" font-family="'Arial'" font-size="2.687" letter-spacing="8">s</tspan><tspan x="40.033" y="0" fill="#1d1d1b" font-family="'Arial'" font-size="2.687">05-500</tspan>
  </text>
  <text transform="translate(2.923 55.413)">
    <tspan x="0" y="0" fill="#1d1d1b" font-family="'Arial'" font-size="2.687">IL-0</tspan><tspan x="4.629" y="0" fill="#1d1d1b" font-family="'Arial'" font-size="2.687" letter-spacing="7">2</tspan><tspan x="13.484" y="0" fill="#1d1d1b" font-family="'Arial'" font-size="2.687">Fire resistant plasterboard</tspan>
  </text>
  <text transform="translate(113.381 55.413)" fill="#1d1d1b" font-family="'Arial'" font-size="2.687">
    Partitions
  </text>
  <text transform="translate(143.247 55.413)">
    <tspan x="0" y="0" fill="#1d1d1b" font-family="'Arial'" font-size="2.687">05-10</tspan><tspan x="6.871" y="0" fill="#1d1d1b" font-family="'Arial'" font-size="2.687" letter-spacing="11">0</tspan><tspan x="19.804" y="0" fill="#1d1d1b" font-family="'Arial'" font-size="2.687">IL-1</tspan><tspan x="24.434" y="0" fill="#1d1d1b" font-family="'Arial'" font-size="2.687" letter-spacing="7">0</tspan><tspan x="33.289" y="0" fill="#1d1d1b" font-family="'Arial'" font-size="2.687">Sheet Wall Vinyl</tspan>
  </text>
  <text transform="translate(263.344 55.413)">
    <tspan x="0" y="0" fill="#1d1d1b" font-family="'Arial'" font-size="2.687">Painting and Wall Finishe</tspan><tspan x="30.313" y="0" fill="#1d1d1b" font-family="'Arial'" font-size="2.687" letter-spacing="8">s</tspan><tspan x="40.033" y="0" fill="#1d1d1b" font-family="'Arial'" font-size="2.687">05-500</tspan>
  </text>
  <text transform="translate(2.923 59.416)">
    <tspan x="0" y="0" fill="#1d1d1b" font-family="'Arial'" font-size="2.687">IL-0</tspan><tspan x="4.629" y="0" fill="#1d1d1b" font-family="'Arial'" font-size="2.687" letter-spacing="7">3</tspan><tspan x="13.484" y="0" fill="#1d1d1b" font-family="'Arial'" font-size="2.687">Impact resistant plasterboard</tspan>
  </text>
  <text transform="translate(113.381 59.416)" fill="#1d1d1b" font-family="'Arial'" font-size="2.687">
    Partitions
  </text>
  <text transform="translate(143.247 59.416)">
    <tspan x="0" y="0" fill="#1d1d1b" font-family="'Arial'" font-size="2.687">05-10</tspan><tspan x="6.871" y="0" fill="#1d1d1b" font-family="'Arial'" font-size="2.687" letter-spacing="11">0</tspan><tspan x="19.804" y="0" fill="#1d1d1b" font-family="'Arial'" font-size="2.687">IL-1</tspan><tspan x="24.434" y="0" fill="#1d1d1b" font-family="'Arial'" font-size="2.687" letter-spacing="7">1</tspan><tspan x="33.289" y="0" fill="#1d1d1b" font-family="'Arial'" font-size="2.687">Sheet Wall Vinyl</tspan>
  </text>
  <text transform="translate(263.344 59.416)">
    <tspan x="0" y="0" fill="#1d1d1b" font-family="'Arial'" font-size="2.687">Painting and Wall Finishe</tspan><tspan x="30.313" y="0" fill="#1d1d1b" font-family="'Arial'" font-size="2.687" letter-spacing="8">s</tspan><tspan x="40.033" y="0" fill="#1d1d1b" font-family="'Arial'" font-size="2.687">05-500</tspan>
  </text>
  <text transform="translate(2.921 63.418)">
    <tspan x="0" y="0" fill="#1d1d1b" font-family="'Arial'" font-size="2.687">IL-0</tspan><tspan x="4.629" y="0" fill="#1d1d1b" font-family="'Arial'" font-size="2.687" letter-spacing="7">4</tspan><tspan x="13.484" y="0" fill="#1d1d1b" font-family="'Arial'" font-size="2.687">Moisture resistant plasterboard</tspan>
  </text>
  <text transform="translate(113.379 63.418)" fill="#1d1d1b" font-family="'Arial'" font-size="2.687">
    Partitions
  </text>
  <text transform="translate(143.244 63.418)" fill="#1d1d1b" font-family="'Arial'" font-size="2.687">
    05-100
  </text>
  <path fill="none" d="M.071.001h319.394v65.018H.071z"/>
  <path fill="#1d1d1b" d="M2.562.312h156.766v.264H2.562zm0 4.003h156.766v.264H2.562zm0 4.004h156.766v.263H2.562zm0 4.004h156.766v.264H2.562zm0 4.003h156.766v.264H2.562zm0 4.003h156.766v.264H2.562zm0 4.004h156.766v.263H2.562zm0 4.214h156.766v.264H2.562zm0 4.003h156.766v.264H2.562zm0 4.004h156.766v.263H2.562zm0 4.003h156.766v.264H2.562zm0 4.004h156.766v.264H2.562zm0 4.003h156.766v.264H2.562zm0 4.004h156.766v.263H2.562zm0 4.003h156.766v.263H2.562zm0 4.003h156.766v.264H2.562zm0 4.003h156.766v.264H2.562z"/>
  <path fill="#1d1d1b" d="M2.298.001h.264v65.018h-.264zm13.486 0h.263v65.018h-.263zm86.599 0h.264v65.018h-.264zm32.871 0h.263v65.018h-.263zm23.81 0h.264v65.018h-.264zm3.371 0h.264v65.018h-.264zm13.486 0h.263v65.018h-.263zm86.599 0h.264v65.018h-.264zm32.871 0h.263v65.018h-.263zm23.81 0h.264v65.018h-.264z"/>
  <path fill="#1d1d1b" d="M162.699.312h156.766v.264H162.699zm0 4.003h156.766v.264H162.699zm0 4.004h156.766v.263H162.699zm0 4.004h156.766v.264H162.699zm0 4.003h156.766v.264H162.699zm0 4.003h156.766v.264H162.699zm0 4.004h156.766v.263H162.699zm0 4.214h156.766v.264H162.699zm0 4.003h156.766v.264H162.699zm0 4.004h156.766v.263H162.699zm0 4.003h156.766v.264H162.699zm0 4.004h156.766v.264H162.699zm0 4.003h156.766v.264H162.699zm0 4.004h156.766v.263H162.699zm0 4.003h156.766v.263H162.699zm0 4.003h156.766v.264H162.699zm0 4.003h156.766v.264H162.699z"/>
</svg>
