<svg xmlns="http://www.w3.org/2000/svg" viewBox="0 0 320 47.5">
  <path fill="#fff" d="M293.3 15.2h-12v1h12M311 11v.5l-.3.7h.7l-.2-.7V11zM290.2 10s-.2 0-.3.2l-.2.8v.8l.4.2s.2 0 .3-.2V11v-.8l-.3-.2z"/>
  <path fill="#fff" d="M313.8 13V11l-2-1-2 1V13l2 1.2 2-1zM312 11h1.4v.2l-.5 1-.4 1.2h-.2v-.7l.4-.8c0-.3.2-.4.3-.6h-1V11zm-.5 1.7h-1v.7h-.3l.7-2.4h.2l.8 2.4h-.3l-.2-.7zM204 6.6v-1h-.2v1M288 12.8h4.4v.4H288zM288 8.8v4h4.4v-4H288zm1.2 2.6v.6c-.2.2-.4.2-.5.2h-.4v-.7s0 .3.2.4h.2c.2 0 .2-.2.2-.2v-2h.2v1.6zm1.5.5l-.5.2c-.2 0-.3 0-.5-.3v-1-1l.5-.2c.2 0 .3 0 .5.2v2zm1.7.2H291s0-.3.2-.4c0-.2.2-.3.4-.5l.4-.5v-.4-.3h-.5l-.2.5h-.2c0-.3.2-.4.3-.6 0-.2.3-.2.5-.2 0 0 .3 0 .4.2l.2.4c0 .2 0 .4-.2.5l-.4.4-.3.3v.2h1v.2zM184.7 18.8v-.6-.2h1.4c.2 0 .2 0 .2.2h8l.3-.2h1v-.4h-16V19h5.2v-.2zM221.3 15v-.6h-.2v.7-.7l-.3-.2h-4.3v1.4h-.2V14h-10.6v2.2h15.7v-1zm-.5 0v-.8 1zM226 1.7V2l-.2.8h.6l-.2-.7v-.3zM206.3 5.6v2.2l2 1.2 2-1.2V5.6l-.5-.3h-3l-.5.3zm2.7.5l.4-.2s0-.2.2-.3V8 6l-.4.2s0 .2-.2.2V6zm-1.2-.5h.4l.3.3v1h-1.2v1h-.2V5.6h.8zM216.5 3.5h-.2.2z"/>
  <path fill="#fff" d="M208.2 6.5v-.3V6v-.2h-.9v1h.5c.2 0 .3-.2.4-.3zM224.8 1.5v2.2l2 1.2 2-1.3V1.5l-2-1.2-2 1.2zm3.3 1.3s0-.2-.2-.2h-.2v-.2h.4V2v-.3h-.2-.2l-.2.3h-.2c0-.2 0-.3.2-.5h.8l.2.5v.3c-.2 0-.3.2-.3.2h.3v1.2c-.2.2-.3.2-.5.2h-.5V3c0 .4.3.6.5.6 0 0 .2 0 .3-.2l.2-.3V3zm-1.3 1l-.2-.7h-.8l-.2.8h-.3l.7-2.4h.2l.8 2.4h-.3zM292.5 13.4h-4.8v-.6h-6.4V15h12V13h-.8v.5zM207 5.2h2.7l-1.4-.8M249.8 11v.5l-.4.7h.7v-.7l-.2-.5zM195.5 16.6h-10.2v.8h-.2v-.8h-5.5v1h16"/>
  <path fill="#fff" d="M252.5 13V11l-2-1-2 1V13l2 1.2 2-1zm-1.7-2.2h1.3v.2c0 .3-.2.6-.4 1l-.2 1.2h-.3l.2-.7c0-.3.2-.6.3-.8 0-.3.2-.4.3-.6h-1V11zm-.6 1.7h-.8l-.3.7.7-2.4h.2l.7 2.4h-.3l-.2-.7zM110.8 15.8v-2 2zM110.5 9.2v4.4zM197.4 14.7h.2v1.5h-.2zM191.8 12.4h4.5V8h-4.5v4.4zm3.5-2.8l.3-.3c.2 0 .2-.2.3-.3v2.4h-.2v-2c0 .2-.2.3-.3.3 0 0 0 .2-.2.2v-.4zm-1.5-.3c0-.2.2-.3.4-.3s.4 0 .5.3l.2 1c0 .3-.2.6-.3.8 0 .3-.3.5-.5.5s-.3 0-.4-.3c-.2-.2-.2-.5-.2-1 0-.4 0-.7.2-1zm-1.4 1.4v.4l.3.2h.2V11 9h.3v1.7c0 .3 0 .5-.2.6 0 0 0 .2-.3.2s-.3 0-.4-.2l-.2-.5h.4zM217 2.6v-.3V2l-.4-.2h-.2c0 .5 0 1 .2 1.2 0-.2.3-.3.3-.4zM110.8 12V9.2v4.5-1.4-.3zM201 16.2c-.2 0-.2 0-.3-.2h-.2c-.2 0-.4-.2-.6-.4l-.6-.5h-.3-.3V15.7l.4.2v.2s-.3 0-.4-.2c-.2 0-.2-.2-.2-.5 0-.2 0-.3.2-.4v-.2h-.8V16h3zM110.5 16.2v-2.3c-.2 0-.2-.2-.2-.2v-.4h-4.6 4.5v-2h-5l.7 1-.3.2-.7-1.2.7-1.3.2.2-.7 1h5V6.7h-5.7v9.4h6zM105 7.5v5h-.2v-5zM104.4 6.8v9.4zM197.4 6.8h.2V10h-.2zM197.4 10.3h.2v4h-.2zM113 12.5v-.3c.2 0 .3-.3.3-.7 0-.5 0-.7-.2-.8 0-.2 0-.2-.2-.2l-.2.2v1.5c0 .2.2.3.3.3z"/>
  <path fill="#fff" d="M197.7 6.8h.2V10h-.3zM202.2 22.5v1h-.3v-1l-2.5-1.2h-1V21h.5l-1.6-.6V22.3h-.3v-2l-1.3-.6v1-1h-3.9v-.2h-12.2v.4-.4h-22.7H156V21h.3v.2H196.6h-17.2v.8-.7h-64v1.2h-.3v-1.2h-4l-1.3 1.2V24h4.6l.2-.3h.3v.4h64.4v-.7.8h18.2l-.3-.4h.3l.3.5h7.7l-3.5-1.5zM185 18.6h.9v-.3h-1M194.6 18.3v.3h1v-.3M194.3 18.8h-8H185.6v.6h9.3V19h-.5s-.2 0-.2-.2zM210.8 1.5h.3c.2 0 .3-.2.3-.3V.6 0h-1v1.5h.5zM111 12v.3h.5V10h.4V12c0 .2-.2.4-.3.5l-.4.2s-.3 0-.4-.2v1.2h4V9.2h-4V12zm3-1.2s.2 0 .3-.3l.2-.3h.2v2.5h-.3v-2s0 .2-.2.3h-.3V11zm-1.6-.3c0-.2.2-.3.5-.3 0 0 .2 0 .3.3l.2 1v1l-.7.2s-.3 0-.4-.3l-.2-1c0-.4 0-.6.2-1zM199.6 14h1v-.2s0-.2-.2-.3h-1.6v.6c.2.2.4.2.8.2h.8V14h-.8zM104.4 6.7V5.3M110.2 6.7v-.5h-5 5v.5h.4c0-.5 0-1-.2-1.4h-5.8v1.4h5.6zM115.2 17.5V17h.3v.5H152v-1h-30.6v1h-.2v-1h-8.4v1"/>
  <path fill="#fff" d="M119.5 14.7v-.3h1.7l-2-1v-2.6l2-1.3h.2l2 1.2v2.5l-2 1.2h.2v.3h-.2v1.5h8V6.8h24v-.5L153 6h.3v-.7h-37.8v.4h-.3v-.4h-4.7l.2 1.4h.2V9h4V14h-4v2c0-.3.3-.5.6-.6v.2c0 .2-.3.4-.5.6v.2H121v-1.5h-1.7zm6.8-.3h2v.3h-2v-.3zm-1.3.3h-2v-.3h2v.3zm-10 0h-1c-.4 0-.8 0-1 .2l-.2-.4 1.2-.2h1v.3zm.5 1h-.3v-2h.3v2zm0-3.3h-.3v-2h.3v2zm0-3.3h-.3V7h.3v2zm2.7 5.7h-2v-.3h2v.3zM216 4v-.3h-.3V4h-1.3v-.3h-9V4h11-.5zM320.5 9.4V11l.3.2v-2c-.2 0-.3 0-.3.2zM203.7.7c-.5 0-1 0-1.6.3l.5.7c.2.3.6.4 1 .4h.2V.8zM281.7 0h3.5v4.8h-3.5zM152.4 19.6h3.5V21h-3.6zM276 0h3.5v4.8H276zM275.2 2l-.6-1h.3l.5 1v.2l-.6 1h-.4l.6-1h-2.8v2.6h3.5V0h-3.6v2"/>
  <path fill="#fff" d="M318.4 12.4h2.4v-1c-.2 0-.4 0-.5-.2l-.2-1c0-.4.2-.7.3-1 0 0 .2-.2.5-.2V8h-2.4v4.4zm.5-1.7v.4s0 .2.2.2h.2V11 9h.4v1.7c0 .3 0 .5-.2.6l-.4.2-.4-.2v-.5zM296.2 3h.2l.2-.5s0-.2-.2-.3c0-.2 0-.2-.2-.2 0 0-.2 0-.3.2l-.2.3V3h.4zM289 2h3.2V0H289v2"/>
  <path fill="#fff" d="M297 4.3V0h-4.6v4.3h4.5zm-1.3-3c0-.3.3-.4.5-.4h.4v.2l.2.3h-.3v-.3h-.3s-.2 0-.3.2c-.2 0-.2.4-.2.7l.2-.2h.2c.2 0 .3 0 .5.2v1s0 .2-.2.3h-.3c-.2 0-.4 0-.5-.2l-.2-.8c0-.5 0-.8.2-1zm-.8 1c-.2 0-.3-.2-.3-.2s-.2 0-.2.2V2c.2 0 .2 0 .3-.2l.2-.3s0-.2-.2-.3h-.4v.4h-.4c0-.3 0-.5.2-.5h.8l.2.5v.3l-.3.2.3.3v.3c0 .2 0 .4-.2.5 0 .3-.2.4-.4.4l-.4-.3s-.2 0-.2-.3h.2c0 .2.2.4.4.4h.3v-.4-.3zm-2 .7h.3V.8h.4v1.5c0 .3 0 .6-.2.7l-.4.2s-.2 0-.3-.2v-.6c0 .2 0 .3.2.4zM288.8 4.8V2.2h-1.5l.6 1-.4.2-.6-1.2V2l.6-1h.3l-.7 1h1.5V0h-3.5v4.8M281.2 16.2V0H280v16.2h1.2zM280.5.8v1-1zm0 2v3.5V3zm0 4.8v1-1zm0 2v3.5-3.3zm0 4.8v.8-.8zM272 2h.2V0h-2v2M229.4 0h1.2v2.5h-1.2zM231 2.5V.7c1.6 0 3.2.6 4.3 1.7l.3.3V1.3h.3V3c.7 1.2 1 2.4 1 3.7h.4v4.6h.8V9h4.8V14h-4.7v-2.3h-1v4.7h9l-.5-.6.2-.2.8.7V0h-2.2 1v.3H243V0H231v2.5zm14.6 6.3H243V7.3h.4v1.2h.8v-1h.2v1h1V7.3h.2v1.5zM243 2l1-.3s0-.2.3-.2c-.2 0-.3 0-.5-.2l-.7-.5V.6l1.6.8h1v.2h-1l-1.5.8V2zm0 .5h.4V3h2.2v.4h-2.2V4h-.3V2.6zm.2 3l.5-.3h1.2s.2 0 .3.2l.2-.4h.3c0 .3-.2.4-.4.5.2.2.2.4.2.5 0 .3 0 .6-.4.8l-1 .2h-.5l-.5-.5V6v-.5zM213.6 2c-.3.2-.7.4-1.2.4h-8.6v2.8V4h.2V2.7v1h1v.3h.4v.2-.5h9l.5-.6.4-.4v-.3V2l-.3-.2s-.2 0-.2.2v.3h-.4c0-.3 0-.4.2-.6h1.1v1l-.5.6-.2.3h1.2l.5-.5c0-.2 0-.6-.2-1v.3h-.3c0-.3 0-.4.2-.6 0-.6-.3-1-.5-1.7H214v.7c0 .4 0 .8-.4 1.2z"/>
  <path fill="#fff" d="M216.7 1.6s.3 0 .4.2c.2 0 .3.3.3.5l-.2.4s0 .3-.3.6v.4h.6V4h-.7v.2h-8.2l1.7 1h19.2V2.7h-.2V4l-2 1h-.2l-2-1-.2-.2V1.4L227 0l2.2 1.3v1.2h.2V0h-13.4c.2.5.4 1 .5 1.7h.4zm2.6.3c0-.3.3-.4.5-.4s.3 0 .4.2c.2.2.3.6.3 1s0 .7-.2 1c0 .2-.3.3-.5.3s-.4 0-.5-.2l-.2-1c0-.4.2-.7.3-1zm-.8 0l-.3-.2s-.2 0-.3.2l-.2.3h-.2c0-.3 0-.4.2-.6h.9v1l-.5.6-.3.3h.8V4h-1.3v-.3l.5-.6c.2 0 .4-.3.5-.4v-.3V2z"/>
  <path fill="#fff" d="M219.8 3.8s.2 0 .3-.2c.2 0 .2-.4.2-.8V2l-.4-.2c-.2 0-.2 0-.3.2v1.6c0 .2 0 .2.3.2zM270 4.3V0h-4.4v4.3h4.4zM269 1l.4-.2s.3 0 .4.2v.2s0 .2.2.2h-.3v-.2h-.3c-.2 0-.3 0-.4.2V1.8h.8l.2.7V3c-.2 0-.2.2-.3.2h-.8c-.3-.3-.3-.6-.3-1 0-.5 0-.8.2-1zm-1 1.3s0-.2-.2-.2h-.2l.4-.2v-.3-.3h-.2-.3v.3h-.3c0-.2 0-.4.2-.5l.4-.2s.3 0 .4.2l.2.5v.3c-.2 0-.2 0-.3.2h.3v1.1c-.2.3-.3.3-.5.3s-.3 0-.4-.2c-.2 0-.2-.2-.2-.4h.2c0 .3.2.5.4.5h.3l.2-.4v-.3zm-2 .6h.3c.2 0 .2 0 .2-.2V1h.3V3c-.2.3-.4.3-.5.3-.2 0-.3 0-.4-.2-.2 0-.2-.2-.2-.4h.2v.3zM244.3 6.7c.4 0 .6 0 .8-.2.3 0 .4-.3.4-.5v-.3c-.2 0-.3.2-.3.3v-.4c0-.2-.3-.2-.7-.2h-.5l-.4.3V6c0 .2 0 .4.2.5 0 .2.4.2.7.2z"/>
  <path fill="#fff" d="M269.4 3h.2l.2-.5c0-.2 0-.3-.2-.4h-.5V3h.4z"/>
  <path fill="#fff" d="M250.4 16.2v-1.8l-2-1v-2.6l2-1.3h.2l2 1.2v2.5l-2 1.2v1.8h5V6.8H280V0h-.2v5h-7.3V2v.2l-.5-.2h-1.6v2.2h-4.7V0h-18.6v16.2h3.4zM305.4 6.7v9.5h6.3v-1.8l-2-1v-2.6l2-1.3 2.2 1.2v2.5l-2 1.2v1.8h8.8v-3.6h-2.5V7.8v-.2h2.5V0H297v4.4h-4.7V2.2h-3l-.3.3V2 5h-7.4V0h-.2v6.7h24zM89.7 15.4l.8.8v-1h-12v1H90l-.5-.6.2-.2zM83 15h2.9v.2H82.8zm3 .4v.4s-.2 0-.2-.2c0 0 0-.2.2-.2zm-5.4.6v-.8.8zm.3 0h-.2v-.8.8zm.5 0H81h.2v-.8H81h.5-.2v.3h.3c0 .3 0 .3-.2.4v-.2.2zm1.4 0h-1.5H83zm0-.8h-1.5H83zm3 1H82.8V16h2.9zm.4-1h-.2v.8h.2-.5v-.8h.4zm0 .8v-.8.8zm.4 0v-.8.8zM156 18.6h.5s.2 0 .2.2h22.7v-1.2H156v1zM156 16.6h23.3v1H156zM92.8 15.4h-.2V15H91l.6.8-.2.2-.8-.7v1h7V15h-4.8M93.5 11h.3v-.5-.3l-.3-.2s-.2 0-.3.2v.7h.3zM93.5 9.8h.2v-.4V9h-.2-.2v.7h.2zM198 5.2h5.7V2.4h-.2c-.4 0-1-.2-1.2-.5l-.4-1c-1 .3-2 .8-2.5 1.5-.8.8-1.3 1.7-1.6 2.7zM97.8 16.2h1.8l-.6-.6.2-.2.8.7v-1h-2.2M99.7 13V11l-2-1-2 1V13l2 1.2 2-1zM98 11h1.3v.2l-.5 1-.3 1.2h-.2v-.7c0-.3.2-.6.3-.8 0-.3.3-.4.3-.6h-1V11zm-.6 1.7h-1v.7H96l.8-2.4h.3l1 2.4h-.4l-.2-.7zM105.4 38.7s.3 0 .3-.2l.2-1c0-.5-.2-.8-.3-1 0-.2-.2-.2-.3-.2-.2 0-.3 0-.4.2v2l.4.2z"/>
  <path fill="#fff" d="M97 11c0 .2 0 .3-.2.5l-.2.7h.7l-.2-.7V11zM85.6 13.5h-3.8V15h3.8v-1.5zm-2 1c-.2 0-.3-.2-.3-.5 0-.2.2-.4.4-.4s.4.2.4.4c0 .3 0 .5-.3.5zM94.7 11.2V9l-2-1.3-2 1.2V11l2 1 2-1zm-1.7-1c0-.2 0-.3.3-.3-.2 0-.2-.2-.3-.3v-.3V9c.2-.2.3-.2.5-.2s.3 0 .4.2v.7s0 .2-.2.2h.3v1c-.2.2-.3.2-.5.2H93v-.7-.4zm-.3 1h-1.3V8.8h.3v2h1v.4zM85.6 13l.2-5c0-.8-.2-1.5-.7-2-.2-.4-.8-.6-1.3-.6s-1 .2-1.4.6c-.5.5-.8 1.2-.7 2l.2 5h3.7zm-3-2.5V10l.2.2zm2 0V10c.2 0 .2 0 .2.2zm.8-2v.3l-.4.4-.3.4h-.2l-.5.3h-.7l-.4-.3h-.3l-.3-.5-.3-.4V7.2l.2-.5v-.2L83 6h.2l.2-.2H84.3l.2.2.5.5.2.2.2.5v1.3z"/>
  <path fill="#fff" d="M85.3 7.2l-.2-.5v-.2l-.5-.5H84v-.2H83L83 6l-.6.5-.2.2v.5l-.2.3v1l.2.2.3.5.3.3.6.3H84l.4-.2h.2L85 9l.2-.3V7.2zm-1 2H83 84.4zm0 0H83V9H84.4zm0 0v-1c0-.3-.3-.5-.6-.5s-.6.2-.6.5v1-1c0-.3.3-.6.7-.6.4 0 .7.3.7.6v1zM80.4 3v.3L80 4h.8l-.2-.6c0-.2 0-.4-.2-.5zM83.7 13.7c-.2 0-.3.2-.3.3 0 .2 0 .4.3.4.2 0 .3-.2.3-.4 0 0 0-.3-.3-.3z"/>
  <path fill="#fff" d="M83.2 5V2.7l-2-1.2-2 1.2V5l2 1 2-1zm-1.7-2.4h1.3V3c-.2 0-.4.4-.5 1-.2.2-.3.6-.3 1h-.2v-.7c0-.3.2-.5.3-.7l.5-.7h-1v-.4zm-.7 1.7H80l-.2.7h-.3l.8-2.4h.3l.8 2.4H81l-.2-.7zM85.7 14.8v-1.3M81.6 13.5v1.3-1.3M108.4 24h1.2V23M198 10h3.4l-.6-1h.3l.8 1-.2.2h.2l-.7 1.3-.2-.2.6-1H198v1-1h-.3v4c.5 0 1 .2 1.4.3v.2h.5c.2 0 .3.3.6.5h.2c.2 0 .3 0 .4.2v-.8h.3v1c0 .2.2.3.3.5h.4l-.6-.6.3-.2.7.7v-2h-1.2s0 .2-.2.3l-1 .2c-.4 0-.7 0-1-.2l-.2-.5c0-.2 0-.3.2-.4h-.6V13v.3h.7l1-.2c.4 0 .7.2 1 .3h.5v-.4l.5.3h.3v-1 1h.6-.5v.5h1.7V7H198V10zm2.6 2.7l-1 .2c-.4 0-.7-.2-1-.3 0 0-.2-.2-.2-.5 0-.2 0-.3.3-.4.2-.2.5-.2 1-.2h1l.2.6c0 .2-.2.4-.4.5zm2.8-5.2v5-5zM225 10.5c.3-.4.5-.8.5-1.4 0-.4-.2-1-.5-1.3-.3-.4-.7-.6-1-.6-.6 0-1 .3-1.3.7-.3.3-.5 1-.5 1.4 0 .4 0 .8.2 1l.8.5v-1c0-.3.3-.6.7-.6-.5 0-.7.2-.7.6v1h1-1.2v-.2h1v-.8 1h-1.1c.2 0 .2 0 .2.2v.3h.3c.3 0 .7 0 1-.5zm-.6-1c0-.3-.2-.5-.5-.5.2 0 .5.2.5.6zM184.4 11v.5l-.3.7h.8l-.2-.7c0-.2 0-.4-.2-.5zM223 14v-.2h.7l-.4-.4-1 .5h.6zM223.8 13.6V13h-.2v.2l-.3.2.5.2z"/>
  <path fill="#fff" d="M200.4 12s-.3-.2-.8-.2h-.8v.7h1.6c.2 0 .2-.2.2-.3 0 0 0-.2-.2-.3zM243 9.2h-4.6v4.5h4.5V9.2zm-3.2 2.7v.5l-.5.2c-.2 0-.3 0-.4-.2-.2 0-.3-.3-.3-.5h.3v.3h.5V10h.3V12zm1.5.4c0 .2-.3.3-.5.3s-.3 0-.5-.3v-1-1l.5-.2c.2 0 .4 0 .4.3.2.2.2.5.2 1v1zm1.3.3h-.3v-2s0 .2-.2.3V11l.2-.3.3-.3v2.5zM204.6 14h-.5v2.2h1.4V6.8H204v7M100 15h2.8v1.2H100zM161.7 4.5V2.3h-3v2.5h3.6v-.2h-.5z"/>
  <path fill="#fff" d="M240.8 10.5s-.2 0-.3.2v1.5c0 .2.2.3.3.3 0 0 .2 0 .3-.3.2 0 .2-.3.2-.7v-.8l-.4-.2zM223.8 12v.6c.5 0 1 0 1.4.2.3 0 .5.3.6.6l-.6-.5-1.3-.3v.2h1-1v.6c.2 0 .4-.2.5-.5 0 .5-.3.7-.6.7v.2-.2h1.7l.3-4.5c0-.8-.3-1.5-.7-2-.4-.4-1-.6-1.4-.6-.7 0-1.2.2-1.5.6-.5.5-.8 1.2-.7 2v.4l.5.3-.2-1c0-.4.3-1 .6-1.4.4-.4.8-.6 1.3-.6.3 0 .8.2 1 .6.4.4.6 1 .6 1.5 0 .7-.2 1.2-.5 1.6-.2.4-.7.6-1 .6h-.4v1h.2V12zm1-.4v0z"/>
  <path fill="#fff" d="M223.8 12.7h-.2v.2h.2v-.3zM201.8 13.4l.2.3v-.3M155 15.2v1h12v-1M234.7 25l3.8 5h2.5c0-1.5.7-3 1.8-4l1.2-1h-9.2zM187.2 13V11l-2-1-2 1V13l2 1.2 2-1zm-1.7-2.2h1.3v.2l-.5 1-.3 1.2h-.2v-.7c0-.3.2-.6.3-.8l.5-.6h-1V11zm-.7 1.7h-.8l-.2.7h-.3l.8-2.4h.3l.8 2.4h-.3l-.2-.7z"/>
  <path fill="#fff" d="M223.8 12.3h-.2v.3h.2v-.3zM153.3 16.2v-1h-12v1h11M155.3 6.7h-.2.4zM154.7 7v1-1zM200.7 13.4l.2.4h.8l-.5-.4h-.6zM204 14V6.7h-.2v7M222 13.2v-.7l.4-.8c0-.3.2-.4.3-.6h-.8V13.3zM268 12.8h11.8V15h-12zM223 13v-.2h-.4c0 .2-.2.2-.3.3v.2s-.2 0-.3.3v.4l1-.8V13zM223.2 13.2h.2V13h-.2v.2zM268 15.2v1h11.8v-1M221.3 14.2h.4-.6M218.3 11.2V9l-2-1.3-2 1.2V11l2 1 2-1zm-1.8-1c0-.2.2-.3.3-.3 0 0 0-.2-.2-.3v-.3V9c.2-.2.3-.2.5-.2l.5.2.2.4v.3l-.3.2h.2v1c-.2.2-.3.2-.5.2h-.4v-.7-.4zm-.3 1H215V8.8h.3v2h1v.4z"/>
  <path fill="#fff" d="M267.8 12.8h12v-6h-24v9.4h12v-3.4zm-4 .6H259V8.6h4.8V11h5l-.6-1 .3-.3.7 1.2h-.2.2l-.7 1.2h-.3l.6-1h-5v2.2z"/>
  <path fill="#fff" d="M259.2 13.2h4.5V8.8h-4.5v4.4zm4-3c0-.2 0-.2-.2-.2h-.3v.5h-.3V10l.6-.2c.2 0 .3 0 .5.2v.9l-.5.4c0 .2-.2.3-.3.3v.2h1v.2h-1.4v-.4l.5-.5.5-.5v-.4-.3zm-2.2 0c0-.3.2-.4.4-.4s.4 0 .5.2v2l-.6.2s-.3 0-.4-.3l-.2-1c0-.4 0-.7.2-1zm-1.4 1.3v.4h.3s0-.2.2-.2v-2h.2V12c-.2.2-.3.2-.5.2h-.5v-.7zM223.2 13h.2v-.2h-.2z"/>
  <path fill="#fff" d="M261.5 12l.2-.2V11v-.8s0-.2-.3-.2c0 0-.2 0-.2.2l-.2.8c0 .4 0 .6.2.8 0 0 0 .2.3.2zM224 14.2H222h2.7-3.1l-.2.2V16.2h7.7v-2H224zm-2.4.7v-.2-.3s.2 0 .2.2c0 0 0 .2-.2.2zm3 0H221.6 224.7zm2.3-.8v1-1zm-.4 0v1-1zm-2 .8h1.8v-.2h-.2v-.4h.2-1.5V14h2-.2v.8h.2-1.8zM110.4 5.2c-.3-1-.8-2-1.6-2.7-1-1-2.6-1.8-4.2-1.8v4l.5-.5.3.2-.7.8h5.8zM221.8 11V10h-.4l-2 1V13l1.3 1h1.2l-.2-3zm-.5 2.2l-.2-.7h-.7l-.3.7h-.2l.7-2.4h.3l.8 2.4h-.3zM217 11h.4v-.5-.3l-.3-.2-.2.2v.7h.3zM154.8 5.2v-.4l-.3.3v.2M217 9.8h.3v-.4V9h-.2l-.2.4v.3h.3z"/>
  <path fill="#fff" d="M223 10.8c-.2 0-.3 0-.4-.2 0 0 0-.2-.2-.3l-.6-.4v.8h1zM220.7 11c0 .2 0 .3-.2.5l-.2.7h.7l-.2-.7V11zM223 11l-.5 1-.2 1s.2 0 .3-.2h.5l.4-.4V11h-.4zm0 .8h-.2l.2-.2v.2z"/>
  <path fill="#fff" d="M223.4 11v-.2l-.8-.4c.3.3.5.5.8.6zM223.4 12.7v-.2.2zM154 5.3h-.5v.4"/>
  <path fill="#fff" d="M207.8 11.3v.2h.2V14h5.5V11.3h.2c.2-.7 0-1.4-.3-2-.3-.4-.8-.7-1.4-.7H212.7V9h.4v.2h.2l.2.3v.2h.2v1.7h-.2v-.2l.2-.2V10l-.2-.2v-.2l-.3-.3V9H212.3v-.2h-.7.3l-.3-.2h-2 2c.8 0 1.4.3 1.8.8.4.6.5 1.3.3 2v.2h-.2V14h2.6v-1.5l-2-1.2V8.7l2-1.3 2.2 1.2v2.5l-2 1.3V14h4l-1-.7h-.2v-2.5l2-1.3h.5v-.2c0-.8.2-1.5.7-2 .4-.5 1-.7 1.5-.7.4 0 1 .2 1.3.6.5.6.8 1.3.8 2V14h3.2V5.2h-19 .2V8l-1 .6h.9V9H209V9h-.2l-.2.2h-.2v.3h-.2v.4h-.2v1.5-.4h-.2V10h.2v-.4l.2-.2.2-.2-.3.3c-.3.5-.4 1.2-.2 1.8zm3.4-2.6h.5-.5zm0 4h.8v-.2H212.6v-.2h.2V12h.2l.4-.3-.3.4v.2l-.2.2h-.4v.2H211zm0-1l-.4.2c-.2 0-.3-.2-.3-.4 0-.4.6-.4.6 0zm-3 0l.3.4v.2h.4v.2h.5v.2H210.5 209v-.2h-.4V12l-.5-.4h.2zM237 6.8h.3v4.5h-.2zM209.2 8.7h0zM204.2 5.3v1.3h1.2V5.3M205.6 6.6h.5v-1l.2-.2h.2-.8v1.2z"/>
  <path fill="#fff" d="M205.6 14h2.4V11.5h-.2v-.2c-.3-.7-.2-1.4.2-2 0 0 .2 0 .2-.2l-2-1.2V6.7h-.6v7zM236.7 11.2V6.8H231v9.4h4.6v-1.5h.3v1.5h1v-4.7h-1v1.8h.7V13v.4H232h3.4v-2h-2.3l.6 1-.4.3-.7-1.2.6-1.3.3.2-.7 1h3.7V6.7h-.2v4.4zm-5.3 1.3v-5 5zM236 10h-.4V8h.3v2zM231.6 4.2l.2.2-.8.8v1.5h4.6v-.5h-4 4V4.5h.3V6h.7v.7h.3c0-1.2-.4-2.4-1-3.4h-.4V3c0-.2-.2-.4-.3-.5-1-1-2.7-1.8-4.3-1.8v1.8h1v.2h-1v2l.6-.5z"/>
  <path fill="#fff" d="M231 4.8v-2h-.2V5M230.6 16.2V5.6l-.7.7-.3-.2.8-.7h-1v11M230.6 2.7h-1.2v2.5h1.2M210.8 11.8s.2 0 .2-.2c0 0 0-.2-.2-.2s-.2 0-.2.2c0 0 0 .2.2.2zM198 6.7v-.5.5h5.7v-1l-.5.6H198V6h5l.7-.6H198c-.2.4-.3.8-.3 1.3h.2z"/>
  <path fill="#fff" d="M155.3 6.4s.3 0 .4.2H179v9.6h6v-1.5h-1.5v-.3h1.6l-2-1v-2.6l2-1.3h.2l2 1.2h.2v2.5l-2 1.2h.2v.3h-.3v1.5h12v-.6h-.2v-2.2h.3v-1.2h-.2v-2h-.5v2.3h-4.8V8v-.2h4.7v2.3h1V9h-.3v-2H197.7c0-.6 0-1 .2-1.5h-.4v.2h-.3v-.2h-17.4v3.3h-.2V5.4l-.8.8-.2-.2.8-.7H155v1.2h.3zm38.3 8h2v.3h-2v-.3zm-3.4 0h2v.3h-2v-.3zm-1.3.3h-2.2v-.3h2v.3zm-9-.3h2.2v.3h-2v-.3zm-.6-4.7V13 9.8zm0 4.7v.8-.8zM205.6 5.2h1l1.6-1h-2.7v1zM110.7 6.8h.2V9h-.3zM110.4 9h.2V6.8h-.3V9zM153.5 14.4h1.3v-6s-.2 0-.3-.3v-.5V7c0-.2.2-.3.3-.4V5.3h-.5v2.4h-.2V5.5l-.5.6v8.4zM204.3 5.2h1V5s0-.2-.2-.2h-.3l-.4.4zM205.2 4.6v-.2h-.2v.2M204.2 4.8V5v-.2zM204.7 4.3h-.6v.3h.4l.3-.3zM133.5 11.2s.2 0 .3-.2v-.8-.8h-.3-.3V11l.3.2zM230.8 5.4v1.3-1.4M153.5 14.7h1.2v1.5h-1.2zM119.4 10.8V13l2 1.2 2-1v-2.4l-2-1-2 1zm2.3 0h1.3v.2l-.5 1-.3 1.2h-.3v-.7c0-.3.2-.6.3-.8 0-.3.2-.4.4-.6h-1V11zm-.4 2.4l-.3-.7h-.8l-.2.7h-.3l.8-2.4h.3l.8 2.4h-.3zM236 6.2h.7v.5h-.8zM167 15v-.3h-.4v-.3h.3v-1.6h-12v1.6h.3v.3h-.3v.4h12zm-3.7-.6h2v.3h-2v-.3zm-3.4 0h2v.3h-2v-.3zm-3.5 0h2v.3h-2v-.3zM201 38.7c.2 0 .3 0 .4-.2v-1-1c0-.2-.2-.2-.4-.2l-.4.2v2l.4.2zM141.4 12.8v1.6h.4v.3h-.4v.4h12v-.3h-.2V12.8h-11.8zm3.8 2h-2v-.4h2v.3zm3.3 0h-2v-.4h2v.3zm3.4 0h-2.2v-.4h2v.3z"/>
  <path fill="#fff" d="M120.6 11v.5l-.3.7h.7l-.2-.7-.2-.5zM167 12.7v1.7h1.7v.3H167v1.5h12V6.8h-23V7h-.3V7h-.7v1.5h.2v-1h.3v1l.2-.4h.3c0 .2 0 .3-.3.5h-.2v.6h1v.4h-1.2v-.8h-.3v4h12zm9.7 1.7h2v.3h-2v-.3zm-3.3 0h2v.3h-2v-.3zm-1.3.3h-2v-.3h2v.3zM160.3 8v-.2h4.8v2.3h5l-.6-1h.3l.7 1-.2.2h.2l-.7 1.3-.3-.2.6-1h-5v2.2h-4.7V8z"/>
  <path fill="#fff" d="M162.6 9.3h-.3V11l.3.2s.2 0 .3-.2v-.8-.8h-.4z"/>
  <path fill="#fff" d="M164.8 8h-4.4v4.4h4.4V8zm-3.2 2.7v.6l-.5.2s-.2 0-.3-.2v-.5s0 .2.2.3v.2h.3V11 9h.3v1.7zm1.5.4c0 .3-.2.5-.4.5s-.3 0-.5-.3v-1-1l.6-.2c.2 0 .4 0 .4.3.2.2.2.5.2 1v.8zm1.8 0v.4h-1.3V11l.5-.5.4-.5v-.4-.3h-.3c-.2 0-.2.3-.2.4h-.3c0-.2 0-.4.2-.5l.4-.2c.4 0 .5 0 .6.2l.2.5v.4l-.6.7-.3.3h-.2 1zM114 18.2h1.2v-.6h-2.4v.4h1v.2zM113.6 18.6v-.3h-.8v.3h.4M230.8 6.8v9.4zM237 11.5h.3v4.7h-.2zM115.2 20.4h.3v.7h.4v.2H152.3v-1.6H123.6h-10.9v1h-.2v-.8l-1.2 1.3h4v-.6zM235.6 16.8v-.2h-14v.8h-.3v-.8h-18.8l.6.6v.2l-1-.7v1.5c.2.2.2.5.2.7v1h-.3v-1c0-.4 0-.7-.2-1h.2v-1.4h-.4v.2h-.2l-.2-.2H196v2.7l6 2.6v-.6h.2v.6l4.7 2h30.3l1.4-4.6v-2.8H236v.2h-.4zm-38.2 2h-.3v-2h.4v2zM236 22c0 .5-.2 1-.4 1.6h-.3c.2-.6.3-1 .3-1.6v-.6h.3v.6zm0-1.8h-.4v-2h.3v2z"/>
  <path fill="#fff" d="M320 40.6h-39.3v2.8h-.2v-2.7l-1 1-.2-.2 1.2-1.2v-3.4V40l1-1 .3.3-1 1h40V25h-40.2v1.7V25H250c.5.3 1 .6 1.3 1 1 1 1.7 2.5 1.7 4.2 0 1.6-.6 3-1.7 4.2S248.7 36 247 36s-3-.5-4.2-1.6c-1-1-1.7-2.6-1.8-4h-2.6l-4-5-1 .7-.2-.2c.4-.2.8-.5 1-.8h-32.1V27h-.3v-2h-3.4.2l-.2.4-.2-.2-.2-.2h-18.7v1.7V25h-65.2v.2c-.2 0-.4.2-.5.3l-.2-.2.3-.3H78.2v.8l.7.2v.3c-.3 0-.5 0-.7-.2v.7-.6c-.5 0-1-.3-1.2-.6l.3-.3c.2.4.6.6 1 .7V25h-6c-.2 0-.2 0-.2-.2v-8.3h-.4.5V0H54v16.2l.2.2H57h-2.7l1 1-.2.2-1-1h-3v-.2h2.8l-1-1 .2-.3 1 1V0h-8.2v8.3H51h-.4l-2 2 1.8-2H49l-1.7 2 1.7-2h-1.4l-1.8 2v6h2v.2h-2v31H54l-1.2-1.3c-.2 0-.5-.3-.7-.6 0-.2-.3-.4-.5-.7L48 41.3l3.5-3.4.6-.8 1-.6 3.3-3.4v-12h.2v14.3c1.5 0 3 .6 4 1.7 1.2 1 1.8 2.7 1.8 4.2 0 1.6-.6 3-1.7 4.2-1.2 1-2.6 1.8-4.2 1.8h264.4v-6.8h-1zm-16.3-4.3c0-.2.4-.3.6-.3.3 0 .4 0 .6.3v2.2c-.2.4-.4.5-.7.5-.2 0-.4 0-.6-.3l-.2-1.2c0-.5 0-1 .2-1.2zm-1 1.2l-.3-.2h-.3v.3h-.4l.3-1.6h1v.3h-1v1c0-.2.3-.3.4-.3.2 0 .4 0 .6.2.2.2.2.5.2.8 0 .2 0 .5-.2.7l-.6.3c-.2 0-.4 0-.6-.2l-.2-.6h.3v.4h.7c.2-.2.2-.4.2-.6 0-.2 0-.4-.3-.5zm-3 .4l1-2h.2v2h.3v.2h-.4v.8h-.3v-.8h-1V38zm-.8-.3l-.4-.2h-.2v-.3h.4l.2-.5s0-.2-.2-.3h-.6v.4h-.4c0-.3 0-.5.2-.6.2-.2.3-.2.5-.2l.5.2c.2 0 .2.3.2.5v.4c0 .2-.2.3-.3.4h.2v.3l.2.4c0 .4 0 .6-.3.8 0 0-.2.2-.5.2-.2 0-.4 0-.5-.2-.2-.2-.2-.4-.2-.6h.3c0 .3.3.5.5.5s.3 0 .4-.2V38v-.3zM280.4 28v.8-1zm0 2v3.4V30zm0 4.7v1-1zM50 16.5h-.8.8zm.2-6.2l.7-1v.2l-.8.8zm11.2 6.2H58h3.4zm2.2 0h-1 1zm4.6 0H65 68zm2.2 0h-1 1zm8 30.5H78v-3.4V47zm0-4.6H78v-1 1zm0-2.2H78V37 40zm0-4.6H78v-1 1zm0-2.2H78V30v3.4zm0-4.6H78v-1 1zm154 7.5c.3-.2.4-.3.7-.3.3 0 .5 0 .7.3l.2 1.2c0 .5-.2 1-.3 1 0 .4-.3.5-.6.5s-.3 0-.5-.3l-.2-1.2c0-.5 0-1 .2-1.2zm-2.4-10h1.5l.5-.2v.4h-2v-.2zm1.5 11.2l-.3-.2h-.3c-.2 0-.2.2-.3.3h-.3l.3-1.6h1.2v.3h-1l-.2 1c0-.2.3-.3.4-.3.3 0 .4 0 .6.2l.2.8c0 .2 0 .5-.2.7l-.6.3c-.2 0-.4 0-.6-.2l-.2-.6h.3s0 .3.2.4h.5l.2-.6c0-.2 0-.4-.2-.5zm-2.8-.8c.2 0 .3-.2.4-.4.3 0 .3-.2.4-.3h.2v3h-.3v-2.4l-.3.3h-.3v-.3zm-12.2-10.5h2v.3h-2v-.3zm-3.4 0h2.2v.3h-2v-.3zm-3.2 0h2v.3h-2v-.3zm-3.4 0h2v.3h-2v-.3zm-3.4 0h2v.3h-2v-.3zm-3.2-.4c.5.2 1 .4 1.7.4h.3v.3h-.3c-.6 0-1.3-.2-1.8-.4V26zm-1 11c0 .2-.2.2-.3.3v-.3c.2 0 .4-.2.5-.4l.2-.3h.3v3h-.4v-2.4.3zm-1.5-6.2h.5c.5 0 1 0 1.5-.3v.3c-.4.2-1 .3-1.5.3h-.5v-.4zm-3.3 0h2v.3h-2v-.4zm-3.4 0h2v.3h-2v-.4zm-.7 5.7c0-.2.2-.3.5-.3s.4 0 .5.3c.2.2.3.6.3 1.2 0 .5 0 1-.2 1 0 .4-.2.5-.5.5-.2 0-.4 0-.6-.3-.2-.2-.3-.7-.3-1.2s0-1 .2-1.2zm-1 1.2l-.4-.2h-.3s0 .2-.2.3h-.2l.3-1.6h1.3v.3h-1v1c0-.2.2-.3.4-.3 0 0 .3 0 .5.2l.2.8c0 .2 0 .5-.2.7l-.6.3c-.2 0-.4 0-.6-.2l-.2-.6h.3l.3.4h.6V38v-.5zm-1.8-7h2v.4h-2v-.4zm-.6 5.5c.2 0 .4 0 .5.2.3 0 .3.3.3.5v.4c0 .2-.2.3-.3.4h.3v.3c.2 0 .2.3.2.4 0 .4 0 .6-.3.8l-.5.2c-.2 0-.5 0-.6-.2v-.6h.2c0 .3.2.5.4.5s.3 0 .4-.2V38v-.3l-.3-.2h-.2v-.3h.4v-.5-.3h-.4-.3v.4h-.4c0-.3 0-.5.2-.6 0-.2.3-.2.4-.2zm-2.7-5.4h2v.3h-2v-.4zm.5 6.3h-.3v-.3l.4-.4c.2 0 .2-.2.3-.3v3h-.2v-2.4l-.3.3zm-4-6.4h2v.3h-2v-.4zm-1-2.7v.8-1zm0 2v3.4V30zm0 4.7v1-1zm-69-8.5h.6c.6 0 1 0 1.6-.3v.2c-.4.2-1 .3-1.5.3h-.4v-.3zm0 2.5l.6.7 1 .7v.4c-.4-.2-.8-.5-1-.8l-.7-.7.3-.3zm-1-3h.4v1.9h-.2l-.2-1.2v-.8zm-2.3.5h2v.3h-2v-.3zm-3.4 0h2v.3h-2v-.3zm-21.4.3h-2v-.3h2v.3zm3.3 0h-2v-.3h2v.3zm3.4 0h-2v-.3h2v.3zm3.5 0h-2v-.3h2v.3zm3.3 0h-2v-.3h2v.3zm3.4 0h-2v-.3h2v.3zm3 11.7h-.2v.8h-.3v-.8h-1V38l1-2h.3v2h.3v.2zm.4-11.7h-2v-.3h2v.3zm1.4 12.2c0 .2-.3.3-.5.3-.3 0-.4 0-.6-.2-.2 0-.3-.3-.4-.6h.4s0 .3.2.4h.6l.2-.6c0-.2 0-.4-.2-.5l-.3-.2h-.3l-.2.3h-.3l.2-1.6h1.2v.3h-1v1c0-.2.2-.3.3-.3.3 0 .4 0 .5.2.2.2.3.5.3.8 0 .3 0 .5-.3.7zm.6-1.2c0-.5 0-1 .2-1.2 0-.2.3-.3.6-.3.2 0 .4 0 .6.3l.2 1.2c0 .5 0 1-.2 1-.2.4-.3.5-.6.5-.2 0-.5 0-.6-.3-.2-.2-.2-.7-.2-1.2zm10.2 3h-2.2v3-2.8l-1 1-.3-.2 1-1h-5v3h-.2v-2.8l-.8 1-.3-.2 1-1h-2 2v-3h.2v2.7l1-1 .2.3-1 1h5v-3h.2v2.7l1-1 .2.3-1 1h2zm.5-9.6H114c-.3 0-.6 0-.8-.2v-.3h2.1v.4zm3.3 0h-2v-.4h2v.3zm3.4 0h-2v-.4h2v.3zm3.4 0h-2v-.4h2v.3zm3.3 0h-2v-.4h2v.3zm3.4 0h-2v-.4h2v.3zm3.5 0h-2v-.4h2v.3zm3.3 0h-2v-.4h2v.3zm3.4 0h-2v-.4h2v.3zm3.4 0h-2v-.4h2v.3zm3.3 0h-2.2v-.4h2v.3zm3.3 0h-2v-.4h2v.3zm3.4 0h-2v-.4h2v.3zm3.3 0h-2v-.4h2v.3zm3.4 0h-2v-.4h2v.3zm3.4 0h-2v-.4h2v.3zm3.3 0h-2v-.4h2v.3zm3.5 0h-2v-.4h2v.3zm3.4 0h-2.2v-.4h2v.3zm1-.4h2.2v.3h-2v-.4zm2.5 16.4v-3.4V47zm38-8.2c-1 1-2.6 1.8-4 1.8-1.7 0-3.2-.7-4.4-1.8l-.6-1v2.4l1-1 .2.3-1 1h2-2.2v3-2.8l-1 1-.3-.2 1-1h-12.2v3h-.2v-2.7l-1 1v-.3l.8-1h-15.8v3h-.2v-2.8l-1 1-.2-.2 1.2-1.2v-3.4V40l1-1 .3.3-1 1h15.7l.2-.2v-2.8 2.7l1-1 .3.3-1 1h12l.3-.2v-2.6c-.6-1-1-2-1-3h-2.6l-4-5v.2l-.3-.3.3-.3c.4-.4.7-.8 1-1.4l.2.2-1 1.3 3.8 5h2.6c0-1.5.6-3 1.7-4 1.2-1.2 2.7-1.8 4.4-1.8 1.5 0 3 .6 4 1.7 1.3 1 2 2.6 2 4.2s-.7 3-1.8 4.2zm-17.3-1.3c0-.5 0-1 .2-1.2l.6-.3c.2 0 .5 0 .6.3.2.2.2.6.2 1.2 0 .5 0 1-.2 1 0 .4-.3.5-.6.5-.2 0-.4 0-.6-.3l-.2-1.2zm3 0s0-.2-.3-.2h-.4v.3h-.4l.2-1.6h1.3v.3h-1l-.2 1 .5-.3c.2 0 .4 0 .5.2.2.2.3.5.3.8 0 .2 0 .5-.3.7 0 .2-.3.3-.6.3s-.5 0-.6-.2c-.2 0-.3-.3-.3-.6h.4s0 .3.2.4h.6l.2-.6c0-.2 0-.4-.2-.5zm.8 0c0-.5 0-1 .3-1.2 0-.2.3-.3.6-.3 0 0 .3 0 .4.3.2.2.3.6.3 1.2 0 .5 0 1-.2 1-.2.4-.4.5-.6.5-.4 0-.6 0-.7-.3-.2-.2-.3-.7-.3-1.2zm18-11h-2v-.3h2v.3zm3.3 0h-2v-.3h2v.3zm1.3-.3h2v.3h-2v-.3zm14.7 14.4H239v3-2.8l-1 1-.2-.3 1-1h-1.4v3h-.2v-2.8l-1 1-.2-.2 1-1h-8.7 8.7l.2-.2v-2.8 2.7l1-1 .3.3-1 1h1.4v-3 2.7l1-1 .3.3-1 1h2zm39.3 6.4v-3.4V47zM194.2 11.2c.2 0 .2 0 .3-.2v-.8-.8h-.3-.3V11s0 .2.2.2z"/>
  <path fill="#fff" d="M141.3 14.7h-1.6v-.3h1.6v-1.6h12v-6h-24v9.4h12v-1.5zm-9.6 0h-2v-.3h2v.3zm3.4 0h-2v-.3h2v.3zm.8-2h-4.6V7.8v-.2h4.6v2.3h5l-.5-1h.3l.6 1v.2l-.6 1.3-.3-.2.6-1h-5v2.2h-.2zm2.6 2h-2v-.3h2v.3zM205 38.7l.2-.2.2-1c0-.5 0-.8-.2-1 0-.2-.2-.2-.3-.2-.3 0-.4 0-.5.2l-.2 1c0 .5 0 .8.2 1l.4.2z"/>
  <path fill="#fff" d="M131.3 12.4h4.4V8h-4.4v4.4zm4-3h-.2-.2v.3h-.4c0-.2 0-.4.2-.5l.5-.2c.3 0 .4 0 .5.2l.2.5s0 .3-.2.4l-.4.7s0 .2-.2.3h1v.4h-1.4V11c.2 0 .3-.3.5-.5 0-.2.2-.4.3-.5v-.4-.3zm-2.3 0c.2-.3.3-.4.5-.4s.3 0 .5.3V11c0 .3-.3.5-.5.5s-.3 0-.5-.3v-1-1zm-1.3 1.3v.4l.3.2c.2 0 .2-.2.2-.2V9h.3v2.3l-.5.2c-.2 0-.3 0-.4-.2v-.5zM287.8 12.7v-4h4.7V11h5l-.5-1 .3-.3.6 1.2h-.2l-.5 1.2h-.3l.6-1h-5v1.5h.7v3.5h12V6.8h-24v6h6.5zM98 1.2h-1.2l1 .6M97.2 3.3h.4v-.4-.4h-.9V3h.5zM87.3 10.7H89v-.3-.3h-1.7l-.2.4.3.3zM166.4 4.6h-4V5h-7.2v-.5h-.2v.7h24.3V2.6h.2V5l.7-.8.2.2-.7.8H197V3.4h.4v1.8h.4c.3-1 .8-2 1.6-2.8.7-.7 1.5-1.2 2.5-1.5V.6 0h-35.5v4.5zM197 0h.4v2h-.3V0zm-3.4 2c.2-.3.3-.4.5-.4.3 0 .5 0 .6.2l.2 1c0 .4 0 .7-.2 1 0 .2-.2.3-.5.3l-.4-.2v-1-1zM191.8 3l1-1.6h.2v1.6h.2v.2h-.2V4h-.3v-.6h-1v-.2zM190.5 2c0-.3.2-.4.5-.4.2 0 .3 0 .4.2.2.2.2.6.2 1v1l-.6.3c-.2 0-.4 0-.5-.2l-.2-1c0-.4 0-.7.2-1zm-.8 0l-.3-.2s-.2 0-.3.2v.3h-.3c0-.3 0-.4.3-.6h.9v1l-.5.6c-.2 0-.3.2-.3.3h-.2 1V4h-1.3v-.3l.5-.6c.3 0 .4-.3.5-.4v-.3V2zM179.4.7v1-1zm-7 1s.2-.2.5-.2c0 0 .2 0 .3.2l.2 1c0 .4 0 .7-.2 1 0 .2-.2.3-.5.3-.2 0-.3 0-.5-.2v-1-1zm-1.6 0s.2-.2.5-.2c.2 0 .3 0 .4.2l.2 1c0 .4 0 .7-.3 1 0 .2-.2.3-.5.3 0 0-.3 0-.4-.2-.2-.2-.2-.5-.2-1 0-.4 0-.7.2-1zm-1.6.4c.2 0 .3-.2.4-.3l.2-.4h.2V4h-.3V2c0 .2 0 .3-.2.3 0 0-.2 0-.3.2v-.3zm-.8-.3l-.3-.2-.2.2v.3h-.3c0-.3 0-.4.2-.6h1l.2.6-.2.4-.4.6c-.2 0-.3.2-.3.3h-.2 1V4h-1.4v-.3l.5-.6c.2 0 .3-.3.4-.4v-.3V2z"/>
  <path fill="#fff" d="M79 3.7v-1-.2l2-1.2h.2l2 1.2h.2V5L81 6.4 79 5V4h-.5v11h2.8V13h.4l-.2-5c0-.8.2-1.5.7-2 .4-.5 1-.7 1.5-.7s1 .2 1.5.6c.5.5.8 1.2.7 2l-.3 5h.3V15h4.2l-.7-.7h.3l.7.7V13 15h2.2v-2.3l-2-1.2h-.2V8.7l2.2-1.3 2 1.2h.2v2.5h-.2l-2 1.3V15h4.8v-.6l-2-1v-2.6l2-1.3 2.2 1.2v2.5l-2 1.2v.5h2.2V0h-1.2l-.2.2-1 .2h-1c0-.2 0-.3-.2-.4h-9v.6h-7.2V0h-1.7v3.7h.5zM96.4 1H98V.5h.2V1h.6V1h-.6V2H98l-1.6-1zm0 1.5c.2 0 .3 0 .4-.2h1.5c.2 0 .3.2.4.3l.2.3-.3.3h-.2c0 .2 0 .2-.3.2v-.2c.3 0 .4-.2.4-.4v-.3l-.4-.2h-.5l.2.2V3s0 .3-.2.4l-.6.2c-.3 0-.5 0-.6-.2-.2-.2-.2-.3-.2-.5v-.5zm0 1.7h2.4v.2h-2l.3.3c.2 0 .2 0 .2.2H97c0-.2-.2-.3-.3-.4l-.3-.3zm-7 8.5c-.2 0-.3 0-.5-.2l-.6-.3-.5-.5H87v.4l.4.2v.2c-.3 0-.5 0-.6-.2 0 0-.2-.2-.2-.5s0-.4.2-.5l.5-.2h.5c0 .2.3.4.5.6l.4.2v-1h.3v1.5zM87 10c.3-.2.6-.3 1-.3.5 0 .8 0 1 .2.3 0 .4.2.4.4s0 .4-.3.5h-1.8c-.2-.2-.4-.4-.4-.6 0-.2 0-.3.3-.5zm-.2 3.3h2.5v.2h-2c.2 0 .2 0 .3.3l.2.2h-.3l-.3-.4-.4-.2zM104.2 16.2V5.6l-.7.7-.2-.2 1-1V0H103v16.2"/>
  <path fill="#fff" d="M97.6.2c.4 0 .7 0 .8-.2h-1.7l1 .2zM100 0h2.8v15H100zM104.5 4.8V.6c1.7 0 3.2.7 4.4 1.8.7.8 1.2 1.8 1.5 2.8h4.7V3.6h.3v1.6h37.8V0h-.2v5H146V2v.2l-.5-.2h-1.5v2.2H139V0h-34.6v5-.2zm26.6-3l.6-.2c.2 0 .4 0 .5.2.2.2.3.6.3 1s0 .7-.2 1c0 .2-.2.3-.4.3s-.3 0-.4-.2c-.2-.2-.2-.5-.2-1v-1zm-1.7 1.4l1-1.6v1.6h.4v.2h-.3V4h-.2v-.6h-1v-.2zm-1.3-1l.4-.3.2-.4V4 2l-.3.3s-.2 0-.3.2v-.3zm-2 1l1-1.6h.3v1.6h.3v.2h-.3V4h-.3v-.6h-1v-.2zm-10.8-3h.3v2h-.3v-2zM191 3.8s.2 0 .3-.2v-.8V2l-.3-.2s-.3 0-.3.2v1.6c0 .2.2.2.3.2zM45.6 6l-2 2.2v1.3l2-2.2M44.3 6l-.8.8V8l2-2M173 3.8v-.2c.2 0 .2-.4.2-.8V2l-.4-.2s-.2 0-.2.2l-.2.8c0 .4 0 .7.2.8 0 .2 0 .2.3.2z"/>
  <path fill="#fff" d="M75 16.4h-2v7.7h3c-.2-.5-.4-1-.4-1.7h.3c0 .6 0 1.2.4 1.8h1.8v-.7.8h29.5l4.6-4.7v-2.7h-1.7s0 .2-.2.3l-.3-.2c.2 0 .2 0 .2-.2h-9.7l.6.6v.2l-1-.8h-2.2v.8h-.2v-.8H91l.6.6-.2.2-.8-.7v1.5-1.6H78.2V20v-3.4c-.2 0-.3 0-.3-.2V4h-2v-.3h2V0h-2v.8h-.4V0H73v16.4h2zm34.6 2.5v-1h.4v3h-.4v-2zM78.2 21v.8-.8zm-2-4.8h1-1zM75.7 2h.3v2.2h-.4v-2zm0 3.5h.3v2h-.4v-2zm0 3.3h.3v2h-.4V9zm0 3.4h.3v2h-.4v-2zm0 3.4h.3v2h-.4v-2zm0 3.3h.3v2h-.4v-2zM43.5 6v.6L44 6M171.3 3.8s.2 0 .2-.2l.2-.8c0-.4 0-.6-.2-.8 0 0 0-.2-.3-.2 0 0-.2 0-.2.2v1.6c0 .2.2.2.3.2zM122 18.2l.2-.2h1.2s.2 0 .2.2v.6h28v-.2h.5v-1h-36.5v.7h6.6zM158.7 4.8V2.3h-2l.6 1h-.3l-.6-1V2l.6-1h.3l-.6 1h2V0h-3.5v4.8M158.8 0h2.8v2h-2.8zM155 4.4V0v4.3M154 5.2V2.7h.2V5v-.2l.6-.4V0h-1.3v5.2M162.5 3h.2v-.7.2h-.2V2h.3V1h.3v2.3h-.5v1h3.8V0h-3.8v3zm2.6-1.7l.6-.3h.4v.3c.2 0 .2.2.2.3h-.2s0-.2-.2-.3h-.2s-.2 0-.3.2V2l.4-.2.4.2c.2.2.2.4.2.6V3c0 .2-.2.3-.3.4h-.4c-.2 0-.4 0-.5-.2v-1-1zm-.6 1h-.3V2h.2l.2-.4v-.3h-.3-.2v.4h-.4c0-.3 0-.5.2-.6h.8l.2.6V2h-.2v.2c.2 0 .2 0 .3.2v.3c0 .2 0 .4-.2.5 0 .2-.3.2-.4.2h-.4l-.2-.6h.3c0 .2 0 .4.4.4h.3v-.5-.4zM162.3 4.4v-1h-.2v-.7h.2V3 0h-.3v4.4h.3z"/>
  <path fill="#fff" d="M165.6 3.2h.3v-.6-.3l-.4-.2s-.2 0-.3.3V3l.3.2zM122.7 19h-.5v-.2h-6.7v.4h-.3v-.4H114h-.7v.6h9.4V19zM149.5 0h3.5v4.8h-3.5zM131.6 3.8c.2 0 .2 0 .3-.2v-.8V2l-.4-.2s-.2 0-.3.2v1.6c0 .2.2.2.3.2zM143.6 4.3V0h-4.4v4.3h4.4zM142.4 1l.5-.2s.2 0 .3.2v.2c.2 0 .2.2.2.2h-.2l-.2-.2c-.2 0-.3 0-.4.2V1.8h.7V3s0 .2-.2.2H142.3l-.2-1c0-.5 0-.8.2-1zm-.8 1.3l-.2-.2h-.2c.2 0 .3-.2.3-.2l.2-.3v-.3h-.4-.2v.3h-.3l.2-.5.3-.2c.2 0 .3 0 .4.2l.2.5s0 .2-.2.3l-.2.2h.2s0 .2.2.3v.2c0 .3 0 .5-.2.6 0 .3-.3.3-.5.3s-.3 0-.4-.2c-.2 0-.3-.2-.3-.4h.2c0 .3 0 .5.3.5h.3v-.4-.3zm-2 .6h.4v-.2V1h.4v1.5c0 .3 0 .5-.2.6 0 .3-.2.3-.4.3 0 0-.3 0-.4-.2v-.4c0 .2.2.2.2.3zM130.2 2l-.7 1.2h.7M145.6 2h.2V0h-2v2M45.8 8.4v.2l.2-.2M127 2l-.6 1.2h.6"/>
  <path fill="#fff" d="M143 3h.2v-.5V2h-.7V3h.3zM148.7 2l-.5-1h.2l.7 1v.2l-.6 1h-.2l.5-1H146v2.6h3.4V0H146v2M44.5 16.5h1V9l-1 1.3h-.2l1.3-1.5V7.5l-2 2.2v37.8h2v-31M192.7 2l-.6 1.2h.7M202 1c.6-.3 1.2-.4 1.8-.4v1.6h8.6c.4 0 .8-.2 1-.5.3-.3.5-.6.5-1l-.3-.7h-1v1.8h-.2V0l-.2.2h-.2l.2-.2h-.6V1.4c0 .2-.2.3-.3.4H210V0h-1v.4s-.2 0-.3.2h.2V2l-.6.2-.4-.3-.2-.5h.2c0 .3.2.4.4.4h.3V1 1h-.3V.4h.2V0h-.5v.2h-.2V0h-.2c0 .3 0 .4-.2.6l-.4.5c0 .2-.2.4-.3.4h1V2h-1.4v-.4c.2 0 .3-.3.5-.4l.4-.5V0h-.6v.2h-.2V0h-.4v1.7l-.5.2c-.2 0-.3-.2-.4-.4v-1V0h-.7v1.8h-.3V0l-.2.2h-.2V0h-1.4V1zm7.4.5h.3v.3h-.3v-.3zM101.7 38v-1.5L101 38M194 3.8c.2 0 .4 0 .4-.2v-.8V2l-.3-.2-.2.2v1.6c0 .2.2.2.3.2zM122.4 18.3v.3h.9v-.3M203.7 14h-1.3l.7.8v.2l-1-.8v2h1.7M300.7 36.5L300 38h.7M233 38.7c.2 0 .4 0 .5-.2v-1-1c0-.2-.3-.2-.4-.2 0 0-.2 0-.3.2v2l.4.2zM304.3 38.7s.3 0 .3-.2c.2-.2.2-.5.2-1s0-.8-.2-1c0-.2-.2-.2-.3-.2 0 0-.2 0-.3.2-.2.2-.2.5-.2 1s0 .8.2 1l.3.2z"/>
  <path fill="#fff" d="M205.2 1.4c0 .2.2.2.3.2 0 0 .2 0 .3-.2V.7 0h-.6v1.4zM204 16.2V14h-.2v2.2M190.5 38.7l.4-.2v-1-1l-.5-.2s-.3 0-.3.2l-.2 1c0 .5 0 .8.2 1l.3.2zM43 10.3h-.2l.5-.5V8.4l-2 2V10l2-2V7l-1 1v.5H42v-.3l-1.4 1.4L42 8v-.4h.2V8l1-1.2V6H43l-2.2 2.2 2-2.2h-.4v.3V6h-1l-.6.7.6-.7h-.6H42V3h.2v3h1V0H31v16.4h3.3H31v31h12.3V10l-.4.3zM42 .8h.2v1-1zm-5.5 15.7h-1 1zm4.6 0h-3.3H41zM42.3 47v-3.4V47zm0-4.6v-1 1zm0-2.2V37 40zm0-4.6v-1 1zm0-2.2V30v3.4zm0-4.6v-1 1zm0-2v-3.5 3.4zm0-4.8v-.8.8zm0-2v-3.5V20zm0-4.8v-.8.8zm0-2V9.6 13zm.2 3.3h.8-.8zM43.5 0h2.2v6h-2.2zM46.2 8.4l-.4.4V10l1.7-1.6"/>
  <path d="M138.5 19.5h5-5zM145.2 19.5h5-5zM122.7 19.5h-4.4 4.5zM116 21.2h1.6-1.7zM113.2 19.6h3.4-3.3zM152.3 19.6V21v-1.4zM125 19.5h5-5zM131.7 19.5h5-5zM112.6 20.6v-1 1M129.4 21.2h1.7-1.6zM122.7 21.2h1.7-1.7zM136 21.2h1.8-1.7zM143 21.2h1.6-1.7zM149.6 21.2h1.7-1.7zM195.5 18.3v.3zM195.6 19.6zM197.4 20.3l1.6.8M197 20.2l-1.3-.6 1.4.7M195.5 16.6v1zM195.5 17.6v.4zM202.2 22.5l3.5 1.6h.2l-3.8-1.5M199.6 21.3l2.3 1M208 25h.2-.2M151.6 19.4h-28H151.6zM122.7 19.4h-9.4 9.4zM112.8 17.5h2.4-2.4zM115.5 17.5H152h-36.5z"/>
  <path fill="#fff" d="M152.5 16.6h3.2v2.6h-3.2z"/>
  <path d="M156 16.6h.2v1h-.2zM152 18.6h.3s.2 0 .2.2v.6s0 .2-.2.2h3.6c-.2 0-.2 0-.2-.2v-2.8 2.6h-3.3v-2.6h-.4v2zM156 19.6zM156 17.6h.2v1h-.2z"/>
  <path d="M152.3 19.6s.2 0 .2-.2v-.6s0-.2-.2-.2h-.5V19.5h.5zM123.6 19v-.2zM123.6 19.4h-.2V19h-.7V19.5H123.7v-.2zM113.2 19.6v-.7h-.4V19.5h.4z"/>
  <path fill="#fff" d="M123.5 19h28v.2h-28z"/>
  <path d="M123.6 19h-.2v.3h28.4V19h-28.2zm28 0h-28 28zM123.6 19V18s0-.2-.2-.2h-1.2V19H123.6zm-.8-.4h-.4v-.3h1v.3h-.6zM113.8 19V18 18h-1v.3h.8v.3h-.8v.3h1z"/>
  <path fill="#fff" d="M115.5 18.5h6.6-6.5zM114 18.5h1.2-1.3z"/>
  <path d="M115.2 18.6H114h1.2v-.3h-1.5v.4h1.4zM122.2 18.8v-.4h-6.7 6.6v.2h-6.5v.2h6.8zM185.5 19.6h4.5-4.4zM190 21.2h1.7-1.7zM183.3 21.2h1.7-1.7zM179.5 19.5h3.8-3.8zM164.7 19.5h5-5zM169.8 21.2h1.7-1.7zM158 19.5h5-5zM171.5 19.5h5-5zM176.5 21.2h1.7-1.7zM156.3 21.2h1.7-1.7zM163 21.2h1.8-1.7zM178.2 19.5h1.2-1.2zM195 19.5h-3.3 3.3zM195.7 19.6v1-1zM156 19.6V21v-1.4zM184.7 19.4h-5.2H184.7zM156 17.6v1-1zM195 19.4h-9.4 9.3zM179.4 19.4h-22.7 22.7zM195.6 17.6h-16 16M156 17.5v-1 1h23.4H156M156.7 19.4h-.2V19h.2v-.2s0-.2-.2-.2h-.4c-.2 0-.2 0-.2.2v.8H156.8v-.2zM184.7 19v-.2zM185.6 19.5v-.6h-.7v.3h-.2v.2h.8zM195.7 19.6V19h-.8V19.5h.6z"/>
  <path fill="#fff" d="M156.6 19h22.8v.2h-22.8zM179.5 19h5.2v.2h-5.2z"/>
  <path d="M156.5 19v.3h22.9v-.2h-22.8 22.8-22.9zM184.7 19h-5.2 5.2v.2h-5.2v.2h5.4V19h-.2zM186.2 18.8h-.2v-.4h.2V18 18h-1.4v.8h1.5zm-.3-.2h-1v-.3h1v.3zM195.6 18h-1c-.2 0-.3 0-.3.2h.2v.5h-.2c0 .2 0 .2.2.2h1v-1zm0 .6h-.9v-.3h1v.3z"/>
  <path fill="#fff" d="M186.2 18.5h8.2-8.2z"/>
  <path d="M186 18.3v.4h8.5v-.3H186zm8.4.3h-8.2 8.2zM109.6 22.2l2.8-3v-2.6 2.7l-4.7 4.8M109.6 22.2l-1.8 2h.6l1.2-1.4M107.4 25"/>
  <path d="M110 22.5l1-1.2V21h.3l1.2-1.2.2-.2v-3.1h-.3v2.7l-2.8 3h.3v.2zM202.2 22.5L206 24h1l-4.8-2M208 25h.2M195.6 16.6v3l1.5.6h.4l1.7 1h.8-.2l2.3 1V22l-6-2.7v-2.7h-.4zM152.4 21h-1v.2h5-.4M149.6 21h-5v.2h5M164.7 21.3h5V21h-5v.2M191.7 21.3h5V21h-5v.2M116 21h-.5v.3h.4M136 21h-5v.2h5M178.2 21.3h5.2V21H178v.2M171.5 21.3h5V21h-5v.2M158 21.3h5V21h-5v.2M143 21h-5.2v.2h5M122.7 21h-5v.2h5M185 21.3h5V21h-5v.2M129.4 21h-5v.2h5"/>
  <path d="M115.2 21H111v.3h4.2M199.8 21.3V21H198.5v.3h1.2M248 16.4h2.3v-.2H247v.2M185.7 16.4h-.4v.2H201.2h-3.8V16h-12v.2h.3zm11.4 0h-3.3 3.4zm-4.5 0h-1 1zm-2.2 0H187h3.3zM205.6 16.2h15.6-15.6zM237.8 16.4H236v.2h2.7v-.2H246.4v-.2h-9v.2M90.4 16.5H85.2h5L90 16H78.6v-1h-.2v-.8.5h.2V4h-.2v2.3V4H78v12.4s0 .2.2.2h12.3zm-12.2-9v1-1zm0 2.2V13 9.8zm3.6 6.8h-3.4 3.4zm2 0h-.7 1zM104.6 16.2v.2h5.7v-.2h-5.8zM205.5 16.5h-3.1 19M312 16.4h8.8v-.2h-9M78.3 25H114 78.3zM90.6 16.2v.2h4.8-4.6l.2.2h6.6v-.4h-7zm6 .3h1-1zM167 16.4h12v-.2h-12"/>
  <path d="M236 16.2h1v.2h-1zM237.6 25h-2.8 9.2-6.4zM202 16.5h-.5.5zM197.4 16.2h.2v.2h-.2zM202.2 25h32-32zM78.2 3.7V3v.7h.3V0H78v3.7h.2zm0-3v1-1zM305.4 16.4v-.2h-12v.2h8.8M110.8 16.4zM204 16.2h-.2v.2M250 25h30.5H250zM104.4 16.2v.2zM221.5 16.2h7.7-7.7zM237 16.2h.3v.2h-.2zM73 25h-.7s-.2 0-.2-.2v-8.3 8.3s0 .2.3.2h6-5.4zM198.6 25h3.3-3.4zM251.4 16.4h4.4v-.2h-5.2v.2M282.4 16.2l.2.2h10.8v-.2h-11zM204 16.2h1.4-1.3z"/>
  <path d="M258.2 16.4h9.5v-.2h-12v.2h2.4M232.3 16.5h-10.8 14-2.3M72 0h.2v16.4zM179.5 25h18.7-18.7zM202 16.2l.3.2h1.4v-.2M167 16.4v-.2h-12v.2H166.6M201.8 16.4v-.2h-.5v.2h.5zM229.4 16.2h1.2-1.2zM230.8 16.2v.2zM98.8 16.5h-1 2.2M99.8 16.4l-.2-.2h-1.8v.2h1M197.7 16.2v.2h3.3v-.2h-3.3zM103 16.2h1.2-1.2zM268 16.4h10.5l.3-.2h-11v.2zM141.3 16.4v-.2h-12v.2h10.3M305.6 16.4H311.7v-.2h-6.2v.2M232.3 16.4h3.3v-.2H231v.2M110.2 16.5H102.6V16H100l.2.2h2.3-2.1l.2.2h9.7zM114.4 25h65-65zM153.3 16.4v-.2h-12v.2H153M153.5 16.2h1.2-1.2z"/>
  <path d="M152.5 16.6H185h-.2v-.2h.3v-.2h-6v.2h-49.6v-.2h-8v.2h1-1v.2h31.2zm27.7-.2h3.3-3.3zm-51 0H126h3.3zm-5.4 0h.8-.8zM112.8 16.6h8.4-2v-.2h2v-.2H111v.2h-.3v.2h2.1zm5-.2h-.8 1zm-5.5 0h3.4-3.4z"/>
  <path fill="#fff" d="M73 24.2h-.3v-7.7h-.3v8.2H78v-.3H73M179.5 24.7H198l-.3-.3h-18.2v.3zM114.6 24.7h64.8v-.3h-64.6s0 .2-.2.3zM78.3 24.4v.3h36s0-.2.2-.3H78.3zM72.4 0h.3v16.4h-.3zM237.2 24.4h-39v.3h36.5v-.2l.2.2h2l.2-.3z"/>
  <path d="M237.2 25h-.2v-.3h-2s0 .2-.2.3h2.4zM179.5 25h18.7l-.2-.3h-18.5v.3zM73 24.7v.3H78v-.3H73M114.4 25h65v-.3h-64.8l-.2.3zM78.3 24.7v.3H114s0-.2.2-.3h-36zM198.3 24.7l.3.3h3.3v-.2h.2v.2h32.2l.3-.3h-36.4zM114.8 24.4h64.6V24H115c0 .2 0 .3-.2.4zM73 24.2v.2H78V24h-1.8v.2l-.2.2V24H73v.2zM179.5 24.4h18.2V24h-18.2v.4zM78.3 24.4h36.2V24H110v.3h-.4V24H78.3v.4zM237.2 24.4V24H198v.4h39.2zM72 0h.4v16.4H72zM72.7 0h.3v16.4h-.3zM72.7 16.5v7.7h.2v-7.7"/>
  <path d="M73 24.7h-.6v-8.2H72v8.3l.3.2h.6v-.3zM112.8 40.5l1-1-.2-.3-1 1v.3M112.3 40.6l-1 1h.2l1-1M112.5 40.3v.2M107 40.6l-1 1h.2l1-1M107 40.3v.2M107.4 40.5l1-1-.2-.3-1 1v.3M112.6 40.5v-3 3M112.6 40.6v3-3M107.2 40.6v3-3M107.2 40.5v-3 3M112.6 40.5h2.2-2M112.6 40.6H107h5.3M107.2 40.6H105h2M208 40.6l-1 1h.3l1-1M208.3 40.3l-.2.2h.3"/>
  <path d="M208.6 40.5l1-1-.3-.3-1 1v.3M208.3 40.3v.2V38v-.3 2.6zM208.3 40.6v3-3M208.3 40.5h2.2-2M208.3 40.6H196h12.5M238.8 40.6l-1 1h.2l1-.8v-.2M239 40.3v.2M239 40.7h.2M239.3 40.5l1-1-.2-.3-1 1v.3M237.5 40.5l1-1-.3-.3-1 1v.3M237 40.6l-1 1h.2l1-1M237.2 40.3l-.2.2h.2M239 40.6V43.5v-2.8M239 40.5v-3 3M237.2 40.6v3-3M237.2 40.5v-3 3M239 40.5h2.2-2M239 40.6h-1.7 1.7M237.2 40.6H228.3 237M54 16l-1-1-.2.4 1 1h.2M55 17.6l.3-.2-1-1H54M54.2 16.4v-.2.2M54.7 16.4H56h-1.3zM56.8 16.4h.3-.2zM51 16.4h.2-.2zM54 16.4V0v16M50.2 10.3l.7-1v.2zM48.7 10.2l2-1.8h-.3M47.2 10.2l2-1.8H49M45.8 10v.3l1.8-2M44.3 10.2L45.7 9v-.2M46 8.4l-.2.2v.2l.4-.4M43 10.3l.3-.4v-.2l-.5.4M43.5 9.5v.2l2-2.2v-.2M41.4 10.3l2-2-2 2M45.6 6l-2 2v.2l2-2.2M44 6l-.5.6v.2l.8-.8M40.5 9.6l1.6-1.4V8M42.2 8l1-1v-.2l-1 1M40.5 8v.2L43 6M40.5 6.6l.8-.6M42.2 6h1.1-1M40.6 6h1.6M44.3 6h1.3-2 .5M46 8.4H51h-5.2M195.6 40.3v.2M197 39.5l-.3-.3-1 1v.5l.2-.2"/>
  <path d="M195.4 40.6l-1 1h.3l1-.8v-.2M178.2 41.5l.2.2 1-1v-.4M179.5 40.5h.2l1-1-.3-.3-1 1M195.7 40.2v-2.7 6-2.8M179.4 42.4v1zM179.4 40.6V40v1.3-1M195.7 40.6h-16.2 16M279.3 41.5l.3.2 1-1v-.4M280.6 40.5h.2l1-1-.2-.3-1 1M280.5 42.4v1zM280.6 40.6V40v1.3-1M280.8 40.5h-.2H320.8h-1M141 10.2h.2l-.6-1.2h-.3l.6 1M141 10.3l-.7 1 .3.2.6-1.2"/>
  <path d="M141 10.3V10h-5v.3M170.2 10.2h.2l-.7-1.2h-.3l.6 1h.2M170 10.3l-.6 1 .3.2.7-1.2h-.2"/>
  <path d="M170 10.3h.2V10H165v.3M201.6 10.2h.2L201 9h-.2l.6 1h.2M201.4 10.3l-.6 1 .3.2.8-1.2h-.2M197.7 10h.2v.3h-.3z"/>
  <path d="M197.4 10h.2v.3h-.2zM197.3 10h-.8v.3h.6V10M201.6 10.3V10H198v.3h3.4M233 11.4l.6 1.3.3-.2-.7-1h-.2M233.3 11.3l.6-1h-.4l-.7 1M237 11.3h.3v.2h-.2zM237.4 11.3h.8v.2h-.8z"/>
  <path d="M233.3 11.3h-.2v.2H235.7v-.2h.3v.2h1v-.2M269 11h.2l-.7-1.3-.3.2.6 1h.2M268.8 11l-.6 1 .3.2.7-1.2h-.2M268.8 11h.2-5.2M297.8 11l-.5-1.3-.3.2.6 1h.2M297.6 11l-.6 1 .3.2.6-1.2h-.2M297.6 11h.2-5.2M275.4 2l-.5-1h-.4l.6 1h.2M275.2 2.2l-.6 1h.3l.5-1M272 2h-1.8v.2h1.6M275.4 2.2V2h-3v.2h2.8M149 2l-.6-1h-.2l.5 1h.3M148.7 2.2l-.5 1h.2l.7-1M145.6 2h-1.8v.2h1.5M149 2.2V2H146v.2h2.7M105 11.4l.7 1.3.2-.2-.7-1h-.2M105.3 11.3l.6-1h-.3l-.7 1"/>
  <path d="M105 11.3v.2h5.3v-.2h-5M156.5 2.2l.5 1.2h.3l-.6-1h-.2M156.7 2l.6-1h-.3l-.6 1v.2"/>
  <path d="M156.7 2h-.2v.2h2.2M158.8 2h2.8v.3h-2.8zM287 2v.2l.6 1.2.3-.2-.7-1h-.2M287.3 2l.6-1h-.4l-.6 1M289.2 2h.2v.2h2.8V2"/>
  <path d="M287 2v.2h1.8V2h-1.5M155 4.2V0h-.2v4.4M155 12.8v1.6zM154.8 6.5h.2V5.3h-.2v1.3zM154.8 5.2h.2v-.6l-.2.2M155 6.8v1.5-1.5zM155 14.7v.4zM154.8 7v1-1zM155 12.7v-4-.2 4.2zM154.8 12.8V8.5v6-1.7zM154.8 16.2v-1.5 1.5M155 16.2v-1 1.2-.2M153.5 5.7v-.4h-.2V6M153.3 12.8v1.6zM153.3 14.7v.4zM153.3 6.8v6zM153.3 0h.2v5.2h-.2zM153.5 6.8v7.6V6l-.2.3v.4M153.4 15.2v1.2M153.5 16.3v-1.6M153.4 16.5h1.5M154.8 16.3h-1.3 1.3M204 16.4h.6-.6 1.5-.3.3-1.4M229.3 16.5h1.4-1.4zM230.6 16.4h-1.2M281.4 6.8v6zM281.4 15.2v1zM281.3 16.2V0v16.2M281.4 12.8V15zM279.8 12.8V15zM280 6.7v9.5V0h-.2v6.7M279.8 6.8v6zM279.8 15.2v1zM104.4 5.4v1.3M104.3 5V3 5 0v5M104.4 16.4V6.8v1M104.3 16.3V5.5v10.7M104.3 16.5h-1 1v-.2H103v.2M204.7 4.8h.4v-.2h.2-.3l-.3.2zM204 4.6h.3V5v-.2h-.2zM204 5.4v1.2M204 14V6.7v1M204 5v-.2.4-.3zM204 6.6v-1M204 16.4V14M204 14V6.6 14M204 16.4V14v2.2M205.6 5.2v-.5s0 .2-.2.2V5h.2zM205.4 5.3h.2v1.3h-.2zM205.4 16.3h.2V6.8h-.2v9.4M230.8 5.4v1.3M230.6 0h.2v2.5h-.2zM230.7 5V3 5 2.7v2.5M230.8 16.4V6.8v1M230.6 16.4V5.5v10.7M223.8 14h-1.6 1.6M222.8 14h-.4.4M208 14h5.5-5.4zM220.7 14h-4.4M225.8 14h-1 .8-1.6 5.2-3.3M221.7 14h.3-1.3.4M205.5 14h10.7-10.6M221.5 16.4h2.7-2.7 7.8-1.6 1.6-7.8zm4 0h1-1zM206 16.4h-.5 15.8-.4.3-15.7.4zm12.7 0h1-1zm-4.6 0h3.5-3.4zm-2 0h.8-1zm-4.7 0h3.4-3.4zM229.2 2.7h.2v2.5h-.2zM229.2 0h.2v2.5h-.2z"/>
  <path d="M229.2 14v2.2h.2v-11h-.2V14M103 15h-.2v1.4h.2V0h-.2v15M93 15h-.2 4.8-4.8M91 15h1.6-1.8M97.8 15h2.2-2.2zM81.7 15h4-4zM92.6 15h-2M78.3 15h12.2H88h2.3H78.3M103 15H100h2.8M167 15.2h-12M167 16.2v.2-1.7V15.3M167 12.8h-12 12v1.6"/>
  <path d="M179 6.8v9.6H155h24V6.8h-23.2 23zM155 6.8H155.4h-.3-.2v1.5V7h.2zM155 12.7V8.5h-.2v5.9-1.6zM154.8 16.3V15M153.3 15.2h-12M141.4 12.7v1.7-1.6h12M141.4 15v-.3 1.7-1.2"/>
  <path d="M129.3 16.4h24H129.5V6.8h24v7.6-7.6h-24v9.4M153.4 15.2v1.2-1.7.4M293.3 15.2h-12M288 12.7h4.4-4.4zM287.8 12.8h-6.4M293.4 16.4v-3.6h-.8.7v3.7"/>
  <path d="M281.4 15.2V6.7h24v9.6-9.6h-24v9.4M268 15v.2h11.8"/>
  <path d="M267.8 12.7v3.7V12.8h12"/>
  <path d="M255.8 16.4V6.8h24v9.5-9.4h-24v9.6M86 15l-.2-.2v.2h.3v-.2"/>
  <path d="M86 13.4h-.2V15h.2v-1.4zm0 1.4v-1.3 1.3zM81.3 15h.4v-.2h-.4v.2"/>
  <path d="M81.4 15l.2-.2v-1.3h-.2v1.3zm0-1.5v1.3-1.3zM81.3 16H81h.5-.2M81.3 15.7h.2v-.2h-.2v.2z"/>
  <path d="M81.6 15.6s0 .2-.2.2c0 0 .2 0 .2-.2 0 0 0-.2-.2-.2 0 0 .2 0 .2.2zM81.5 15.6v-.2.2zM81.3 15.2h.2-.5.2M81.3 16v-.8.8M80.8 15.2v.8zM80.5 15.2v.8zM83 16h.7-.8zM83 15h.7v.2H83zM81.5 16H83h-1.5zM81.5 15H83v.2h-1.5zM86 16h.4-.2M86 15.6v0-.2.2zM85.8 15.6c0 .2 0 .2.2.3v-.2-.4s-.2 0-.2.2zM86 15.2h.4-.5M86.7 15.2v.8zM86.4 15.2v.8zM86 15.2v.8h.2v-.8M84.5 15H86v.2h-1.5zM84.5 16H86h-1.5zM84.5 15.2h-.8M84.5 16h-.8.8M84.7 10.2s-.2 0-.2.2 0 0 .2 0 0-.2 0-.2zM85.7 13l.2-5M85.6 13.5V15v-1.5M83.7 13.6c-.2 0-.4.2-.4.4 0 .3 0 .5.4.5.2 0 .4-.2.4-.5 0-.2 0-.4-.3-.4zm0 0zm0 .8c-.2 0-.3-.2-.3-.4 0 0 0-.3.3-.3.2 0 .3.2.3.3 0 .2 0 .4-.3.4zM85.6 13l.3-5h-.2M81.7 15v-1.5V15M85.7 15h-4 4M83 9h.7-.6zM83 9.2h.7-.6zM83.7 9h.6-.6zM83.7 9.2h.6-.6zM82.7 10.2v0zM83.7 7.6c.3 0 .6.3.6.6 0-.3-.2-.6-.6-.6zM83 8.2c0-.3.3-.5.7-.5-.4 0-.7.2-.7.5zM82.3 6c.3-.4 1-.6 1.4-.6s1 .2 1.4.6h.2c-.4-.5-1-.7-1.5-.7-.6 0-1 .2-1.5.6zM81.5 8c0-.8.3-1.5.8-2-.6.5-1 1.2-.8 2zM84.3 8.2v1zM83 8.2v1-1M81.8 13l-.2-5v5M85 6c.6.5.8 1.2.8 2 .2-.8 0-1.5-.6-2z"/>
  <path d="M85.4 7.2l-.2-.5v-.2l-.6-.5h-.2l-.2-.2h-1.5l-.5.7v.2l-.3.5v1.6l.4.4.3.4h.2l.3.3h.7l.5-.3h.2L85 9l.3-.4V7.2zm0 1.3l-.2.2-.3.4-.4.5h-.2l-.4.3H83.4l-.5-.2h-.2l-.3-.4-.3-.5v-.2L82 8v-.8l.2-.5.2-.2.5-.5h.2l.3-.2h.4l.3.2h.2l.5.5v.2l.3.5v1.3zM83.7 13.7z"/>
  <path fill="#fff" d="M81.4 13.4H86v-.2H81.4v.2"/>
  <path d="M81.7 13H86h-4.6M81.8 13.5H86h-4.6.2M45.6 16.5h.2v31h-.2zM45.6 6v10.4h.2V0h-.2v6M43.5 9.5V0h-.2v47.5h.2V9.7M204 5c.2 0 .2 0 .2-.2V4h.5l.4.2h.3v.2h-.2V5H205.7v-.5h-.2V4H204v1zM204 4h-.2v.7s0 .2.2.2V4zM216.3 1.7c0-.6-.3-1.2-.5-1.7 0 .6.3 1 .4 1.7zM216.4 2v1h.2c0-.3 0-.7-.2-1zM216.5 4zM216.5 3.5V3.5zM215.7 3.7h.3-1.2 1z"/>
  <path d="M205.5 4.2h11.1V4h-11v-.3h8.8-9v.5zM216.5 3.6h-.2.3zM231 .7c1.6 0 3.2.7 4.2 1.8.2 0 .3.3.4.4v-.3l-.3-.3c-1-1-2.7-1.8-4.3-1.8zM237 6.7c0-1.3-.3-2.6-1-3.6v.3c.6 1 1 2.2 1 3.4zM231 4.7v-2 2M231 6.7V5.2M231 .7v1.8M237.3 6.8v9.6V6.8M237 11.5v4.9V6.8v4.5M231 16.2v.2-9.6M230.7 16.4V7.7M231 6.8h5.7-6M236.8 6.7h.5-.2M231 16.5h1.3-1.3M233.2 16.4h1.3-1.3zM158.7 2.3v2.5V0v2M162.6 2v.4h.2V2M155.2 4.4V5h7.2v-.4.2H155V0v4.4M162.3 3.4v1h.2v-1h-.2zM162.5 3V0h-.2v3h.2zM149.4 0v4.8zM145.8 2h-.5v.2l.4.3V2"/>
  <path d="M145.8 2.2V5h7.3V0v4.8H146V0h-.2v2M285.2 0v4.8zM289.4 2h-.4v.4l.4-.2M281.6 5h7.2V0 4.8h-7.1V0v5M276 0v4.8zM272.3 2h-.4v.2l.4.3V2"/>
  <path d="M272.3 2.2V5h7.3V0v4.8h-7.2V0v2M236.7 13.4V13v.3h-.8M232.2 13.3h3.4-3.4zM231.7 6h4v.2h-4zM231.3 7.5v5zM236.7 6h-.8v.2h.7v5-5M110.7 6.7c0-.5 0-1-.2-1.4v1.4h.2zM104.6.7c1.6 0 3 .7 4.2 1.8.8.8 1.3 1.7 1.6 2.7-.2-1-.7-2-1.5-2.8-1.3-1-2.8-1.8-4.4-1.8zM104.6.7v4M104.5 5.3v1.4zM110.8 12V9.2M111 12.5l-.2-.2v1.4-1.2zM110.8 15.8v-2 2zM110.8 6.8V9 6.8M110.8 16.3zM110.6 9.2v4.4zM110.7 16v-2 2zM110.6 6.8V9zM104.6 6.8v9.6-.2M104.4 16.4V7.7v8.6M104.5 6.8h5.7-5.8M110.3 6.7h.5-.2M109 16.4h1.2-1.3zM104.6 16.4h-.2 1.2M104.8 7.5v5zM110.3 11.2v-2V6h-5 5v5zM110.2 13.3h-4.5 4.6V13M199.5 2.5c.6-.7 1.5-1.2 2.4-1.5-1 .2-2 .7-2.6 1.4-.8.8-1.3 1.8-1.6 2.8.4-1 1-2 1.7-2.7zM203.7.7c-.5 0-1 0-1.6.2l1.7-.3zM197.7 6.7c0-.5 0-1 .2-1.4h-.2c-.2.5-.2 1-.2 1.4zM203.8 5.7v1M203.7 2.4v3zM203.7.7V2 .8M197.4 14.4V7v6.8M197.4 16.4v-1.7 1.7M197.6 16.4v-1.7 1.5M197.7 10V7v7.6-4M203.7 6.8v7zM203.8 14V16.4v-.2M204 7.7V14zM204 16.4V14M198 6.7h5.2-5.2zM197.4 6.8h.5-.6M199.2 16.4h.4-.4zM197.7 16.4h-.3 1M202 13.4h-.3M198.7 13.3h-.7V13v.4h.6zM199.6 13.4h-.5.6zM198 6v.2h5M201.3 13.4h-.7.7zM198 10v1.3-5 .5M203.4 7.5v5zM202 13.3h.6-.5zM222.8 14H222.2h.6M222 13.4s.2 0 .2-.2c0 0-.2 0-.2.2zM222.6 13v-.2s-.2 0-.3.2h.3zM223.2 12.8h.2-.2zM223.8 12.6h-.2.2zM222.6 13l.5-.2h-.4zM225.7 13.4c0-.3-.2-.5-.5-.6l.5.6zM225 14h.7-.7zM225.2 13v-.2l-1.3-.2 1.2.3zM223 11.6h-.2l.2.2v-.2zM223.3 10.4h.6-.7zM224 10.5h-.7.6M224 9c-.5 0-.8.2-.8.6 0-.4.3-.6.7-.6zM223.3 9.6v1M224.8 11.8v-.2.2zM224.4 10.5v-1 1"/>
  <path d="M224 9c.2 0 .4.2.4.6 0-.4-.2-.7-.5-.7zM224.4 10.4h-.5.4M224.4 10.6h-.5M222.5 7.3c.3-.4.8-.6 1.4-.6.4 0 1 .2 1.3.6-.4-.5-1-.7-1.4-.7-.7 0-1.2.2-1.6.6zM223 10.8c0 .2.2.3.4.3-.3 0-.5-.3-.7-.5l-.3-.2.2.3s.2 0 .3.2z"/>
  <path d="M225 10.6c.4-.4.6-1 .6-1.5s-.2-1-.5-1.4c-.2-.4-.7-.6-1-.6-.6 0-1 .2-1.4.6-.3.4-.5 1-.5 1.5 0 .4.2.7.3 1V9c0-.4 0-1 .4-1.3.3-.4.7-.6 1.2-.6.3 0 .7.3 1 .7.3.3.5 1 .5 1.4 0 .7-.2 1-.5 1.5-.3.4-.7.6-1 .6h-.4v.2h.3c.3 0 .8-.2 1-.6zM225.3 7.3c.4.5.7 1.2.7 2 0-.8-.2-1.5-.7-2zM221.8 9.3c0-.8.2-1.5.7-2-.6.5-1 1.2-.8 2zM221.8 9.3v.3M221.8 10.8v-1 1M222 13.4V11h-.2v3h.2v-.6M226 9.3l-.2 4.6.3-4.7M223 12.7v.2h.2v-.2c0-.2 0-.2.2-.3 0 0-.2 0-.3.2zM224.6 13c-.2.4-.4.6-.7.6.2 0 .5 0 .6-.5zM223.8 13.7c-.2 0-.3-.2-.5-.3 0 .2.3.3.5.3zM223 13v.2h.2V13zM223.8 12.2h-.2v.2h.2V12z"/>
  <path d="M224 14v-1h-.2V14M223.8 14v.2-.2M224 12.6V12h-.2V12.8v-.3M223 13h.4-.2M224 13h1-1.4.2M211.7 12.6h-.6.7M211.7 12.7h.7v-.2h.4v-.2h.2V12l.4-.2-.4.3v.2h-.4v.2H212v.2h-.3M213.4 9.7v.2h.2v1.3l-.2.2h.2V9.7l-.2-.2M211.7 8.7h.5l.2.2h.4v.2h.3l.3.3v.2-.4h-.2V9h-.4v-.2H211.6zM211.2 8.7h.6-.6zM209.8 12.7h.6-.6M208.5 12.2l.2.2h.2v.2h.8-.5l-.2-.2h-.2V12h-.2l-.4-.5.3.4M208 9.6v.4l-.2.2V11.4h.2v.2-1.8h.2M208.4 9.2l-.2.2v.2l.2-.3h.2V9h.4l.2-.2h.6-.7l-.5.4zM209.8 8.7h.6-.6zM213.5 14v-1.3V14M208 14v-1.3V14M209.8 8.5h2-2z"/>
  <path d="M213.7 11.3c.3-.6.2-1.3-.2-2-.4-.4-1-.8-1.8-.8l.3.2c.6 0 1 .3 1.4.8.4.5.5 1.2.3 1.8zM213.5 12.7V11.8h.2v-.4.2h-.2v1.1M207.7 11.4c0-.7 0-1.4.4-2 .2 0 .3 0 .3-.2 0 0-.2 0-.3.2-.4.6-.5 1.3-.3 2zM209.6 8.7h.2v-.2h-.3l-.3.2h.3zM208 12.7V11.4h-.2v.4h.2V12.7M213.5 14H208h5.5M210.7 12c.2 0 .4-.2.4-.4 0-.4-.5-.4-.5 0 0 .2 0 .3.2.3zm0-.6c.2 0 .3 0 .3.2 0 0 0 .2-.2.2s-.2 0-.2-.2c0 0 0-.2.2-.2zM210.7 12zM223 14h-.2M223.8 14h.2M224.8 14h-2 2.2-.2zm-1 0zM226.6 15h-.5M226.3 14.5c-.2 0-.2 0-.2.2h.2v-.2z"/>
  <path d="M226 14.7s0-.2.2-.2c-.2 0-.2 0-.2.2v.2-.2z"/>
  <path d="M226.2 14.7v-.2s-.2 0-.2.2h.2zM226.4 14.2h.2-.5.3M226.4 15v-.7.7M226.6 14.2v.8zM227 14.2v.8zM224 15h.7-.8zM224 14.2h.7-.8zM224.7 15h1.4-1.3zM224.7 14.2h1.4-1.3zM221.2 15zM221.5 15h.2-.2zM221.7 14.7s0-.2-.2-.2v.2h.2z"/>
  <path d="M221.8 14.7s0-.2-.2-.3v.5l.2-.3zM220.7 14.2v.8zM221 15v-.7.8M223 14.2h-1.3 1.3M221.6 15h1.4-1.4zM223 14.3h1-1M223 15h1M224.7 13.8h-.7v.2h.7M223 14h.7v-.2h-.7M224 14h-.2zM210.8 12zM102 36h-.2l-1.2 2v.2h1v.8h.4v-.8h.3V38h-.3v-2zm-.3 2h-.8l.7-1.5V38zM103.5 37s-.3 0-.4.2l.2-1h1V36H103l-.3 1.6h.3s0-.2.2-.2h.6l.2.6c0 .2 0 .4-.2.5 0 .2-.2.2-.3.2h-.3l-.2-.5h-.4c0 .3.2.5.3.6 0 .2.2.2.5.2.2 0 .4 0 .5-.3.2-.2.3-.5.3-.7 0-.3 0-.6-.3-.8l-.5-.2zM105.4 39c.3 0 .4 0 .6-.4l.2-1c0-.7 0-1-.2-1.3-.2-.3-.4-.3-.6-.3-.3 0-.5 0-.6.3-.2.3-.2.7-.2 1.2s0 1 .2 1.2c0 .2.4.3.6.3zm-.4-2.5c0-.2.2-.2.4-.2 0 0 .3 0 .3.2l.2 1c0 .5-.2.8-.3 1l-.3.2c-.2 0-.3 0-.4-.2v-1-1zM199.5 39v-3h-.3s0 .2-.2.3c0 .2-.3.3-.5.4v.4h.4v-.4V39h.5zM201 39c.3 0 .5 0 .6-.4.2-.2.2-.6.2-1 0-.7 0-1-.2-1.3 0-.3-.4-.3-.6-.3-.2 0-.4 0-.6.3l-.2 1.2c0 .5 0 1 .2 1.2l.6.3zm-.4-2.5l.4-.2c.2 0 .3 0 .4.2v2l-.4.2-.4-.2v-1-1zM203 38.7h-.4c0-.2 0-.4-.2-.5h-.3c0 .3.2.5.4.6 0 .2.3.2.5.2s.4 0 .5-.3c.2-.2.3-.5.3-.7 0-.3 0-.6-.3-.8l-.5-.2s-.3 0-.5.2l.2-1h1V36h-1.3l-.2 1.6h.3v-.2h.7l.2.6c0 .2 0 .4-.2.5 0 .2-.2.2-.4.2zM205 39s.3 0 .5-.4l.2-1c0-.7 0-1-.3-1.3 0-.3-.3-.3-.5-.3-.4 0-.6 0-.7.3-.2.3-.3.7-.3 1.2s0 1 .3 1.2c0 .2.3.3.6.3zm-.5-2.5c0-.2.2-.2.4-.2l.2.2.2 1c0 .5 0 .8-.2 1l-.3.2c-.3 0-.4 0-.5-.2l-.2-1c0-.5 0-.8.2-1zM229.3 36.6V39h.3v-3h-.2s0 .2-.3.3c0 .2 0 .3-.3.4v.4h.3c0-.2.2-.3.3-.4zM231.2 38.7h-.3l-.3-.5h-.3c0 .3 0 .5.2.6.2.2.4.2.6.2.2 0 .4 0 .6-.3l.2-.7c0-.3 0-.6-.2-.8l-.6-.2s-.3 0-.4.2v-1h1V36h-1l-.4 1.6h.3s0-.2.2-.2h.5l.2.6c0 .2 0 .4-.2.5 0 .2-.2.2-.3.2zM233 39c.4 0 .6 0 .7-.4l.2-1c0-.7-.2-1-.3-1.3-.2-.3-.4-.3-.6-.3-.2 0-.3 0-.5.3l-.2 1.2c0 .5 0 1 .2 1.2l.6.3zm-.3-2.5c0-.2.3-.2.4-.2.2 0 .4 0 .5.2v2l-.4.2-.3-.2v-1-1zM185 39v-3c-.2 0-.2.2-.4.3 0 .2-.3.3-.4.4v.4h.3c0-.2.2-.3.3-.4V39h.3zM186.2 36.8v-.4h.7v.7c-.2.2-.3.2-.5.2v.4h.5v1c0 .2-.2.2-.4.2s-.4-.2-.4-.6l-.3.2v.6l.7.2c.2 0 .3 0 .5-.2s.3-.4.3-.7v-.3l-.2-.2h-.3c0-.2.2-.3.3-.4v-.3c0-.2 0-.4-.2-.5 0-.2-.2-.2-.4-.2 0 0-.3 0-.4.2-.2 0-.3.3-.3.5h.2zM188.6 38.7h-.3l-.2-.5h-.2c0 .3 0 .5.2.6.2.2.4.2.6.2.2 0 .4 0 .6-.3l.2-.7c0-.3 0-.6-.2-.8l-.5-.2c-.2 0-.4 0-.5.2v-1h1V36h-1l-.4 1.6h.3c.2 0 .2-.2.3-.2h.7v1.1l-.4.2zM190.5 39c.3 0 .5 0 .6-.4.3-.2.3-.6.3-1 0-.7 0-1-.3-1.3 0-.3-.3-.3-.5-.3s-.5 0-.6.3c-.2.3-.3.7-.3 1.2s0 1 .2 1.2c0 .2.3.3.5.3zm-.3-2.5c0-.2.2-.2.3-.2l.4.2v2c-.3 0-.3.2-.5.2 0 0-.3 0-.3-.2l-.2-1c0-.5 0-.8.2-1zM298.5 38.7c-.2 0-.4-.2-.4-.6l-.2.2c0 .2 0 .4.2.6l.5.2c.3 0 .5 0 .6-.2.3-.2.4-.4.4-.7v-.3c-.2 0-.2-.2-.2-.2h-.3c0-.2 0-.3.2-.4v-.3c0-.2 0-.4-.2-.5 0-.2-.3-.2-.5-.2l-.5.2-.2.5h.3s0-.2.2-.3h.6l.2.3c0 .2 0 .3-.2.4 0 .2-.2.2-.4.2v.4h.5v1c-.2.2-.3.2-.5.2z"/>
  <path d="M300.7 39h.2v-.8h.3V38h-.4v-2h-.3l-1 2v.2h1v.8zm-.8-1l.7-1.5V38h-.8zM302.4 38.7h-.3V38h-.4c0 .3 0 .5.2.6.2.2.4.2.6.2.2 0 .4 0 .6-.3.2-.2.2-.5.2-.7 0-.3 0-.6-.2-.8l-.6-.2s-.3 0-.4.2v-1h1V36h-1l-.4 1.6h.3v-.2h.7c.2.2.2.4.2.6 0 .2 0 .4-.3.5 0 .2-.2.2-.3.2zM304.3 39c.3 0 .5 0 .6-.4v-1-1.3c-.3-.3-.4-.3-.7-.3-.2 0-.5 0-.6.3l-.2 1.2c0 .5 0 1 .2 1.2l.6.3zm-.3-2.5c0-.2.2-.2.3-.2 0 0 .3 0 .3.2.2.2.2.5.2 1s0 .8-.2 1l-.3.2s-.2 0-.3-.2l-.2-1c0-.5 0-.8.2-1z"/>
  <path fill="#fff" d="M320.8 18.8h-8-.7v.6h8.8V19v-.2zM282.6 18.6h.4s.2 0 .2.2h28v-.6-.2h1.3s.2 0 .2.2h8v-.6h-38v1zM239.2 17.6v.4h1s.2 0 .2.2h8l.3-.2h1.2v.8h28s0-.2.2-.2h.4v-1h-39.4zM319.3 21.3H280.5v.7-.7h-1.7V21h3.3v-1.4h-1.7v.3-.4h-1.8v1.6h-6.6 6.5v-1.6h-.5-39v1h-.2v-.3l-.3.8h5v.2h1.4-6.4l-1 3.7h6.6c1-.6 1.8-.8 3-.8.8 0 1.8.2 2.7.7h30.5v-1.7V25H321v-3.7h-1.5zm-54-.2h5.2v.2h1.5-6.5zm-6.6 0h5v.2h1.6-6.5zm-6.7 0h5v.2h1.6-6.6zm-6.8 0h5v.2h1.6-6.5zM239.2 18.6h.9v-.3h-.8"/>
  <path fill="#fff" d="M312.4 18.6v-.3h-1v.3h.5M318.2 19.5h-6.9H282.7v1.6h1.5v.2H321v-1.6h-2.6zM248.5 18.8h-8-.7v.6h9.3V19h-.3s-.2 0-.2-.2zM248.8 18.3v.3h.9v-.3M312 17.4h-.3v-1h-29.1v1h38.2v-1h-9M247.8 17.2l-.2.2-1-1h-7.4v1h39.4v-1h-28v1h-.2v-1H247"/>
  <path d="M239 16.4h-.2.2M237.2 25h.2M237.6 25H244.2h-6.6zM250 25h30.5H250zM280.6 25h40.2-40.2z"/>
  <path fill="#fff" d="M280.6 16.6h1.5v2.6h-1.4zM279 16.6h1.6v2.6H279z"/>
  <path d="M279.8 16.2h-1s-.2 0-.2.2h.2V19.6h1.7v-.4H279v-2.6h3.2v2.6h-1.6v.4h1.7v-3h-.4v-.2h.6s0-.2-.2-.2h-2.6zm0 .2h.8-.8zM282.4 19.6z"/>
  <path d="M278.6 16.5h.2v1h-.2zM282.4 17.6h.2v1h-.2zM278.6 19.6zM278.6 17.6h.2v1h-.2zM282.4 16.5h.2v1h-.2zM237.3 24v.4l-.2.3v.2h.4-.2l1.6-5.6v-3 3M239.2 18.3v.3zM239 20l.2-.4M239 16.5h.3v1h-.2z"/>
  <path d="M239 19.6v-3.2h-.2v3l-1.6 5.5h.4l1-3.7V21l.4-.7v-.7z"/>
  <path d="M239 17.6h.3v.4h-.2zM249 19.5H240h9.3zM278 19.4h-28H278zM278.7 17.6v1-1zM239 18v-.4.5zM250.4 16.5H247M239 16.4v1.2H279v-1.2h-28.3 28.1v1h-39.4v-1h7.4H238.8M311 19.4h-27.8H311zM312 19.4h8.8-8.7zM282.4 18.6v-1 1zM320.5 16.4H312h8.8-.3M282.4 17.5v-1H311.7 282.4v1H321h-38.2M202.3 14l-.2-.2M201.8 14h.2v-.3l-.2-.3-.5-.5-.2.2h.2v.2M203 14.8l-.6-.8h-.3v.2l1 .8M202 16.4V16l-.7-.6-.2.2.7.6v.2M202 16.4h.3l-.2-.2M202 16.5v.2l1 .7v-.2l-.5-.6M200.6 14h-1 1zM202 14h-1.2 1.2zM202 14h2.5H202.2M204.6 16.4h-.5.6M199.6 16.4h1-1zM202 13.7v.2V12v1.2M202 16.4V14v2M202 16.5v1.7-1.7zM90.5 15v-.3l-.7-.8h-.3l.7 1M90.6 15v-.2M90.6 15v.3l.8.7.2-.2-.7-.7h-.2M90.5 16.2l-.8-.8-.2.2.6.6.3.2h.2M90.7 16.5v.2l.7.7.2-.2-.6-.6h-.2M92.8 15h.2-.2zM90.5 15H88h2.4M90.8 15h1.8-2M88.6 16.4H90h-1.4zM90.7 16.5H92h-1.3M90.5 15V13v1.7M90.6 15v1.4V15M90.6 16.5v1.7-1.5M231 5.3l.8-1h-.2l-.6.4-.2.3v.4M230 6.3l.6-.7v-.3l-1 .8M203 6v.2h.2l.5-.4.2-.2v-.3h-.3M204.3 5.2l.4-.4.2-.2v-.2l-.2-.2-.4.4-.2.2v.4M204 5.2h-.2M179.7 5.2l.7-.8-.2-.2.2.2M178.6 6.3l.8-.8v-.2h-.2l-.8.8M179.5 5.3"/>
  <path d="M179.5 5.2h.2l.7-.8-.2-.2-.7.8M154.5 5v.2M155 4.2l-.2.2-.5.4M153.3 6.3l.2-.2.6-.5"/>
  <path d="M153.3 6h-.2l.3.3.8-.8v-.2l-.5.4M154.2 5.2h.2l.4-.4.2-.2.2-.2h-.2V4l-.7.6V5M104.3 5l-1 1 .2.3.7-.7M104.5 5.2l.8-.8-.2-.2-.4.5-.2.2v.2M230.7 6.8v1-5 2.8M229.2 5.3h1.5H210M206.8 5.3h3-3M204.2 5.3h2.2-2.3M204 5v1.5V3v1M204 6.8v1zM197.8 5.3h6.2H197.4M179.5 5.2h17.6-17.3M179.4 2.8zM179.4 6.3v1.3zM154.4 5.2h-.2 25.2H154.7"/>
  <path d="M154 5.2h.2v2.5-4.9V5M104.3 6.8v1-5 2.8M153.3 5.3h.8H115.4M104.6 5.2h-.2 10.8-4.7M247 16.2v.2M246.7 16.4V16l-.7-.6-.2.2.6.6v.2M246.6 16.5l1 1 .2-.3-.7-.7h-.3M244.6 16.4h1.3-1.4zM246.7 16.5h1.4-1.2M246.8 16.4V0v16M99 15.6l.6.6.2.2h.2V16l-.8-.6M100 16.2v.2h.2M100 16.5l1 1V17l-.5-.6h-.2M102 16.4h.5-.4zM97.8 16.4h1-1zM100 15v1.4V0v15M263.8 21.2h1.5-1.5zM270.5 21.2h1.5-1.5zM243.6 21.2h1.5-1.4zM257 21.2h1.5-1.5zM250.3 21.2h1.5-1.5zM249 19.5h-4.3 4.5zM278.8 19.6v1.6H277h1.6v-1.6zM239 19.6v1-1zM271.6 19.5h5M258.2 19.5h5M239.8 19.5h3.2-3.2zM265 19.5h5M251.4 19.5h5"/>
  <path fill="#fff" d="M250 19h28v.2h-28z"/>
  <path fill="#fff" d="M250 19h28v.2h-28z"/>
  <path d="M250 19h28-28zM250 19h28v.3h-28z"/>
  <path fill="#fff" d="M240.4 18.5h8-8zM240.4 18.5h8-8z"/>
  <path d="M240.4 18.6h8v.2h-8zM240.4 18.3h8v.2h-8zM284 21.2h1.7-1.7zM290.7 21.2h1.7-1.7zM311 21.2h1.6-1.7zM312 19.6h4.5-4.4zM304.2 21.2h1.7-1.8zM297.4 21.2h1.7-1.6zM317.6 21.2h1.7-1.7zM282.4 19.6V21v-1.4zM284.5 19.5h5M304.7 19.5h5M298 19.5h5M318.2 19.5h2.6-2.6M291.3 19.5h5"/>
  <path fill="#fff" d="M283.2 19h28v.2h-28z"/>
  <path fill="#fff" d="M283.2 19h28v.2h-28z"/>
  <path d="M283.2 19h28v.3h-28zM283.2 19h28-28z"/>
  <path fill="#fff" d="M312.7 18.5h8-8zM312.7 18.5h8-8z"/>
  <path d="M312.7 18.3h8v.2h-8zM312.7 18.6h8v.2h-8zM250.3 21.3V21h-5v.3h5M270.5 21.3V21h-5v.3h5M257 21.3V21h-5v.3h5M277.2 21h-5v.3h5M312.6 21.3h5V21h-5v.2M319.3 21.2h1.5-1.5M305.8 21.3h5V21h-5v.2M263.8 21.3V21h-5v.3h5M285.6 21.3h5V21h-5v.2M292.4 21.3h5V21h-5v.2M299 21.3h5.2V21h-5v.2M279 21v.3h5V21h-1.6M238.5 21v.3h5.2V21h-5M155.7 8.5l.3-.6h-.3V8h-.2v.4h.2zM154.8 8.5h.4s-.2 0-.2-.2h-.2V8v-.5V7c0-.2 0-.2.2-.2h.6V7h.3V7h-.2v-.2l-.5-.2h-.3-.2v.2l-.3.3V8c0 .3.2.4.3.4z"/>
  <path d="M156.4 9.4V9h-1V7.4v2.1M198.4 15.3c0 .3 0 .4.2.5l.5.2v-.2l-.2-.2v-.2-.3h.7c0 .2.3.3.5.6 0 .2.3.3.5.3h.2l-.6-.5v-.2c-.2-.2-.3-.4-.5-.4 0-.2-.3-.3-.4-.3v.2s-.2 0-.3-.2c-.3.2-.3.3-.3.5zM201 14.7h-.4v.8s.2 0 .3.2v-1zM201 13.8l-.3-.4c-.3-.2-.6-.3-1-.3-.5 0-.8.2-1 .3-.2.2-.3.3-.3.5s0 .4.3.5h2V14h.2v-.2zm-.6.3c0 .2-.3.2-.8.2h-.8v-.4-.3h1.7c.2 0 .2.2.2.3v.2h-.2zM200.6 11.7h-2l-.2.5c0 .3 0 .4.3.5l1 .2c.4 0 .7-.2 1-.3l.2-.5c0-.2-.2-.3-.4-.5zm-.2.8h-1.6v-.3-.3l.8-.2h.8l.2.4s0 .3-.2.3zM87.5 14h.3l-.2-.2c0-.2 0-.2-.2-.3h2v-.2h-2.6c.2.2.2.3.4.3 0 .2.2.3.3.4zM89 12.3c-.2 0-.3-.2-.5-.4l-.5-.6h-1l-.2.5c0 .2 0 .3.2.4l.6.2v-.2c-.2 0-.3 0-.4-.2V12v-.3h.7l.4.5c.2 0 .4.3.5.3l.3.2v-1.4H89v1zM87.2 11h2l.2-.6c0-.2 0-.4-.4-.5-.2-.2-.5-.3-1-.3-.4 0-.7 0-1 .2l-.2.4c0 .2.2.4.4.5zm0-1H89v.7h-1.7l-.2-.3.3-.3zM214.4 3.7V4h1.3v-.3h-1c0-.2.3-.3.4-.4l.6-.6v-.4-.5c-.2-.2-.3-.2-.5-.2h-.4l-.2.7h.3V2l.4-.2h.4v.8l-.5.5-.5.6zM216 3.7V4h1.3v-.3h-1c0-.2 0-.2.2-.2 0-.2 0-.2.2-.2l.4-.6.3-.4c0-.2 0-.4-.2-.5 0-.2-.2-.2-.3-.2h-.4c-.2.3-.3.4-.3.7h.2V2h.2s0-.2.2-.2h.3v.8l-.4.4-.6.6zM218 3l-.4.7V4h1.2v-.3h-1l.4-.4.5-.6v-.4-.5c0-.2-.3-.2-.5-.2h-.4c-.2.3-.2.4-.2.7h.2V2l.4-.2h.3v.8l-.5.5zM219.8 4c.2 0 .4 0 .5-.3l.2-1c0-.3 0-.7-.3-1h-.4c-.2 0-.4 0-.5.2l-.2.8c0 .5.2.8.3 1 0 .2.3.3.5.3zm-.3-2s0-.2.3-.2c0 0 .2 0 .3.2.2.2.2.4.2.8v.8l-.4.2c-.2 0-.2 0-.3-.2v-.8V2zM189.2 3l-.4.7V4h1.3v-.3h-1 .2c0-.2 0-.3.3-.4l.4-.6v-.4-.5c-.2-.2-.4-.2-.6-.2h-.4l-.3.7h.3V2l.4-.2h.3v.8l-.5.5zM191 4c.2 0 .4 0 .5-.3v-1-1h-.5c-.3 0-.4 0-.5.2l-.2.8c0 .5 0 .8.2 1 0 .2.3.3.5.3zm-.3-2l.3-.2s.2 0 .3.2v1.6c0 .2-.2.2-.3.2 0 0-.2 0-.3-.2v-.8V2zM192.7 4h.3v-.6h.2v-.2h-.2V1.6h-.3l-1 1.6v.2h1V4zm-.6-.8l.7-1.2v1.2h-.6zM194 4c.4 0 .5 0 .6-.3l.2-1c0-.3 0-.7-.2-1h-.5l-.4.2v1.8c.2.2.3.3.5.3zm-.2-2l.3-.2c.2 0 .4 0 .4.2v1.6c0 .2-.2.2-.3.2l-.2-.2v-.8V2zM168 3l-.5.7V4h1.3v-.3h-1c0-.2.2-.3.4-.4l.4-.6.2-.4c0-.2 0-.4-.2-.5 0-.2-.3-.2-.5-.2h-.3c-.2.3-.2.4-.2.7h.2V2l.4-.2h.4v.8l-.5.5zM169.7 2v2h.3V1.6h-.2s0 .2-.2.3l-.4.2v.3s.2 0 .3-.2c0 0 .2 0 .2-.2zM171.2 4c.3 0 .5 0 .5-.3.2-.2.2-.5.2-1l-.3-1h-.4c-.3 0-.4 0-.5.2-.2 0-.2.4-.2.8 0 .5 0 .8.2 1 0 .2.3.3.4.3zm-.2-2l.2-.2c.2 0 .3 0 .3.2l.2.8c0 .4 0 .7-.2.8 0 .2 0 .2-.2.2 0 0-.2 0-.3-.2v-.8V2zM172.8 4c.3 0 .4 0 .5-.3l.2-1c0-.3 0-.7-.2-1h-.4c-.4 0-.5 0-.7.2v1.8c.2.2.3.3.5.3zm-.2-2s0-.2.2-.2c0 0 .3 0 .3.2.2.2.2.4.2.8v.8c0 .2-.3.2-.3.2-.3 0-.4 0-.4-.2l-.2-.8c0-.4 0-.6.2-.8zM127 4h.3v-.6h.2v-.2h-.2V1.6h-.2l-1 1.6v.2h1V4zm-.6-.8L127 2v1.2h-.6zM128.5 2v2h.2V1.6l-.3.3s-.3 0-.4.2v.3s.2 0 .3-.2l.2-.2zM130.2 4h.2v-.6h.3v-.2h-.3V1.6h-.2l-1 1.6v.2h1V4zm-.7-.8l.7-1.2v1.2h-.7zM131.6 4c.2 0 .4 0 .5-.3.2-.2.3-.5.3-1 0-.3 0-.7-.2-1h-.4c-.2 0-.4 0-.5.2v.8c0 .5 0 .8.2 1 0 .2.2.3.4.3zm-.3-2l.3-.2c.2 0 .2 0 .3.2v1.6l-.4.2s-.2 0-.3-.2v-.8V2zM245.3 8.5h-1v-1 1h-1V7.3h-.2v1.5h2.6V7.3h-.3M243.7 7h.6c.4 0 .7 0 1-.2.2-.2.3-.5.3-.8 0 0 0-.3-.2-.5.2 0 .3-.2.4-.4h-.3l-.2.4-.4-.3h-.7c-.2 0-.5 0-.6.2-.3 0-.4.2-.5.3v1c0 .2.2.3.5.4zm-.3-1.3l.4-.3h.5c.4 0 .6 0 .8.2V6l.3-.3V6c0 .2 0 .4-.2.5 0 .2-.3.2-.7.2-.3 0-.6 0-.7-.2-.2 0-.2-.3-.2-.5v-.3zM243.4 3.4h2.2V3h-2.2v-.5h-.3V4h.4M245.6 1.6v-.2h-1L243 .6v.2l.8.5c.2 0 .3 0 .5.2-.2 0-.3 0-.4.2l-1 .4v.4l1.6-.8h1zM245.6.3V0H243v.3M96.7 4.6l.2.3h.2v-.3c-.2 0-.3-.2-.3-.3h1.8v-.2h-2.4c0 .2.2.3.3.4zM97.2 3.6c.2 0 .4 0 .6-.2L98 3v-.3c-.2 0-.2-.2-.3-.2h.5c.2 0 .3 0 .3.2V3s0 .2-.3.3v.2h.3l.2-.2.2-.4c0-.2-.2-.3-.3-.4l-.4-.3h-1.5l-.3.2v.8l.7.2zm-.5-1h.9V3h-.9V3v-.4zM98.2 2v-.8h.6V1h-.6V.5H98V1h-1.6L98 2h.2zm-.3-.8v.6l-1.2-.6h1zM96.7.3h2V0h-.3l-.8.2c-.4 0-.6 0-.8-.2h-.4s0 .2.3.3z"/>
  <path fill="#fff" d="M60.3 44l.2-.2v-.3-.4h-.3-.2v.8h.3zM60.3 42.8c.2 0 .2-.2.2-.3v-.3H60c-.2 0-.2.2-.2.3v.2h.3zM60.4 37.4c-1-1-2.6-1.7-4-1.7-1.6 0-3 .6-4 1.7-1.2 1-1.8 2.5-1.8 4H62c0-1.5-.5-3-1.6-4zm-4 3c-.2.2-.4.3-.7.3-.2 0-.4 0-.6-.3V39v-1c.3-.3.5-.4.7-.4.3 0 .4 0 .6.3l.2 1c0 .7 0 1-.2 1.3zm1.6.3h-.3v-2.5s0 .2-.3.3l-.3.2v-.4c.3 0 .4-.2.6-.3l.2-.4h.2v3zM59 44v-.3c.2 0 .2-.3.2-.7v-.7l-.4-.2s0 .2-.2.3v1.4c0 .2 0 .2.3.2z"/>
  <path fill="#fff" d="M55.7 38l-.4.2v2l.4.2c.2 0 .3 0 .4-.2.2-.2.2-.5.2-1v-1c-.2-.2-.3-.3-.5-.3zM52.3 45.5c1 1 2.5 1.7 4 1.7 1.6 0 3-.6 4-1.7 1-1 1.8-2.5 1.8-4H50.7c0 1.5.6 3 1.7 4zm7.5-2.7v-.3-.4h.8l.2.5v.3h-.3c0 .2.2.2.2.3v.9l-.4.2c-.2 0-.4 0-.5-.3v-.5-.4h.2l-.2-.2zm-1.4-.6c0-.2.3-.3.5-.3h.3v2l-.4.2s-.5 0-.6-.3v-1-.8zm-1 1h.7v.2h-.6v-.2zM55.8 42h.3l.4.5v.3c.2 0 .2-.2.3-.3l.3-.6h.3l-.6 1 .6 1H57l-.4-.7h-.2l-.4.8h-.3l.7-1-.6-1zM54 42h.4l.3.5v.3c.2 0 .2-.2.3-.3l.3-.6h.3l-.6 1 .6 1h-.3l-.4-.7h-.2l-.5.8H54l.7-1-.6-1zm-.7 1.2h.6v.2h-.7v-.2zM53 42v.2h-1v.6h1v.3h-1v1-2h1z"/>
  <path d="M52 45.6l.8.6-1.3-1.3.6.6zM52 37.2c0 .3-.3.5-.5.8l1.4-1.4-1 .6z"/>
  <path d="M56.5 35.6c-1 0-1.6 0-2.3.4-.7.3-1.4.7-2 1.3-.6.6-1 1.2-1.3 2-.4.7-.5 1.4-.5 2 0-1.4.7-3 1.8-4 1-1 2.5-1.6 4-1.6s3 .6 4 1.7c1.2 1 1.8 2.5 1.8 4h.2c0 1.6-.8 3-1.8 4-1 1.2-2.5 1.8-4 1.8-1.6 0-3-.6-4-1.7-1.2-1-1.8-2.5-1.8-4 0 .7 0 1.4.3 2 .2.8.6 1.5 1.2 2 .6.6 1.3 1 2 1.4.7 0 1.4.3 2.2.3 1.6 0 3-.6 4.2-1.7 1-1 1.7-2.6 1.7-4.2 0-1.5-.6-3-1.7-4.2-1-1-2.6-1.7-4-1.7zM216.5 26.2h2v.3h-2zM197 5.5h.4V3.3h-.3v2M213 26.2h2.2v.3h-2zM226.6 26.2h2v.3h-2zM235.6 18h.3v2.2h-.4zM209.8 26.2h2v.3h-2zM235.6 22c0 .5 0 1-.3 1.5h.3c.2-.4.3-1 .3-1.5v-.6h-.4v.6zM203 26.2h2v.3h-2zM201.5 26.5h.3v-.3h-.3c-.6 0-1.2-.2-1.7-.4v.3c.4.3 1 .5 1.7.5zM235.6 3.3h.3V1.4h-.4V3M220 26.2h2v.3h-2zM223.2 26.2h2v.3h-2zM235.6 8h.3v2h-.4zM197 16.8h.4v2h-.3zM234.6 25h.2l.2-.3-.2-.2v.2c-.2 0-.3.2-.4.3l-1.2.8v.3c.6 0 1-.4 1.3-.7V25zM232 26.4V26l-.5.2H230v.3h2.1zM206.4 26.2h2v.3h-2zM197 0h.4v2h-.3zM197.4 20.2h-.3v2.1h.4v-2.1zM235.6 16.6v.2h.3v-.2h-.4M236 16.4v-1.7h-.4v1.7M198.6 25l-.3-.3s0-.2-.2-.3V24c-.2 0-.3-.3-.4-.5h-.3c0 .3.2.4.3.6v.4c.2 0 .3.2.4.3 0 0 0 .2.2.3l.2.2.2.2.2-.3h-.2zM235.6 11.3v2h.3v-2M236 6.7V4.6h-.4v2.2M197.4 6.8h-.3v2h.3M197.4 10h-.3v2.3h.3M197.4 14.7h-.3v1h.3M197.4 14.4v-1h-.3v1"/>
  <path d="M241 30h-2.5l-3.8-5-.3.2 4 5h2.7V30z"/>
  <path fill="#fff" d="M249.5 32.7s.2 0 .3-.2v-.7-.7h-.3-.3v1.5l.3.2zM243.4 32.6h0v-.3c.2 0 .3 0 .4.2l.2-.8v-.4l-.3-.3h-.8c-.2.2-.2.4-.2.7v.7l.6.2zM246 32.7v-.2c.2-.2.3-.4.3-.7 0-.4 0-.6-.2-.7h-.4v1.5l.3.2zM248.3 28.3V27l-.8 1.3M246.2 26.6c-.2 0-.3 0-.4.3v2l.4.2s.3 0 .4-.3v-1-1c0-.3-.3-.4-.4-.4z"/>
  <path fill="#fff" d="M251 26.2c-1-1-2.5-1.7-4-1.7s-3 .6-4 1.7c-1 1-1.6 2.4-1.6 3.8h11.3c0-1.5-.6-2.8-1.6-3.8zm-4.2 3s-.3.3-.6.3-.5-.2-.6-.4c-.2 0-.2-.5-.2-1 0-.6 0-1 .2-1.3 0-.2.3-.4.6-.4.2 0 .4 0 .6.3l.2 1.3c0 .4 0 .8-.2 1zm2.2-.5h-.4v.7h-.3v-.7h-1v-.4l1-2h.3v2h.4v.4zM243 34.2c1 1 2.5 1.6 4 1.6 1.6 0 3-.5 4-1.6 1-1 1.7-2.4 1.7-4h-11.3c0 1.5.6 3 1.6 4zm7.3-3.5h1.2v.2c-.2 0-.3.4-.5.8l-.2 1h-.2v-.6l.3-.7c0-.2 0-.4.2-.6h-1v-.3zm-1.2.2c.2-.2.3-.4.5-.4s.3 0 .4.3v1.6c-.2.2-.3.3-.5.3s-.3-.2-.4-.4v-.8-1zm-1 1h.8v.2h-.7V32zM247 31c.2 0 .3 0 .4-.3l.2-.4V33 31h-.3c0 .2 0 .2-.2.2v-.2zm-1.4-.3c0-.2.3-.4.5-.4 0 0 .2 0 .3.3l.2.8c0 .3 0 .6-.2.8 0 .2-.2.3-.4.3-.3 0-.4-.2-.6-.4v-.8-1zm-1 1h.7v.2h-.6V32zm-1.5-1.2l.4-.2s.3 0 .4.2c.2 0 .2.2.3.4.2 0 .3.3.3.5v.6c-.2 0-.3.2-.3.3l.3.2v.2c-.2 0-.3 0-.5-.2h-.4c-.3 0-.5 0-.6-.2-.2-.3-.3-.5-.3-1v-.4l.4-.4z"/>
  <path d="M250 25c-1-.6-2-.8-3-.8s-2 .2-2.8.7h-.2l-1.2 1c-1 1-1.7 2.5-1.7 4v.2c0 1.6.7 3 1.8 4.2 1 1 2.6 1.8 4.3 1.8 1.7 0 3.2-.7 4.3-1.8s1.7-2.6 1.7-4.2c0-1.7-.6-3.2-1.7-4.3l-1.2-1zm3 5.3h-.3c0 1.5-.6 3-1.6 4s-2.4 1.5-4 1.5c-1.5 0-3-.5-4-1.6-1-1-1.6-2.5-1.6-4h-.2V30h.2c0-1.4.6-2.8 1.6-3.8s2.5-1.7 4-1.7 3 .6 4 1.7c1 1 1.7 2.3 1.7 3.8h.2v.3zM119.5 14.4v.3h1.7v-.3M190.2 14.4h2v.3h-2zM121.4 14.4h.2v.3h-.2zM185.3 14.4h.3v.3h-.3zM180 14.4h2.2v.3h-2zM136.3 14.4h2v.3h-2zM193.6 14.4h2v.3h-2zM186.8 14.4h2v.3h-2zM116.2 14.4h2v.3h-2zM123 14.4h2v.3h-2zM110 19v-1h-.3v3h.2v-2zM126.3 14.4h2v.3h-2zM133 14.4h2v.3h-2zM112.8 14.6v.3l1.2-.3h1v-.3h-1c-.4 0-.8 0-1.2.2zM170 14.4h2v.3h-2zM133.4 30.6h2v.3h-2zM180.5 30.6h2v.3h-2zM163.7 30.6h2v.3h-2zM167 30.6h2v.3h-2zM136.7 30.6h2v.3h-2zM143 14.4h2.2v.3h-2zM184 30.6h2v.3h-2zM187.2 30.6h2v.3h-2zM160 14.4h2v.3h-2zM201 29.4l1-1.2-.4-.2c-.2.5-.5 1-1 1.4 0 0 0 .2-.2.2l.2.3c0-.2 0-.2.2-.3v-.3zM146.8 30.6h2v.3h-2zM143.5 30.6h2v.3h-2zM140 30.6h2.2v.3h-2zM123.3 30.6h2v.3h-2zM120 30.6h2v.3h-2zM113.2 30.5v.3h2.1v-.2h-2.1zM116.6 30.6h2v.3h-2zM129.6 14.4h2v.3h-2zM149.8 14.4h2v.3h-2zM163.3 14.4h2v.3h-2zM173.8 30.6h2v.3h-2zM170.4 30.6h2v.3h-2zM112 30.4V30c-.3 0-.6-.3-1-.6l-.4-.7-.3.2.6.6c.2.3.6.6 1 .8zM110 27.6v-2h-.4v.8c0 .5 0 1 .2 1.3h.3zM190.6 30.6h2v.3h-2zM130 30.6h2v.3h-2zM126.6 30.6h2v.3h-2zM146.4 14.4h2v.3h-2zM177 30.6h2.2v.3h-2zM176.7 14.4h2v.3h-2zM153.6 30.6h2v.3h-2zM141.8 14.7v-.3h-2.1v.3h1.6M157 30.6h2v.3h-2zM150.2 30.6h2v.3h-2zM156.5 14.4h2v.3h-2zM168.7 14.7v-.3h-2.1v.3h.3M160.3 30.6h2v.3h-2zM185 14.4h-1.5v.3h1.6v-.3M194 30.6h2v.3h-2zM199.4 30.6v-.3c-.6.2-1 .3-1.6.3h-.5v.3h.5c.5 0 1-.2 1.6-.4zM173.4 14.4h2v.3h-2zM110 22.2h-.4V24.4h.3v-1.7M202.2 22v-.6h-.3v2h.2v-1M110.3 16.5c0 .2 0 .2-.2.3h.4l.2-.2h-.3zM201 16.5h.2c0 .2 0 .3.2.4l.3-.2v-.2H201zM202.2 24.8h-.3V27h.2v-2.2zM153.4 14.4h-.2v.3H155.4v-.3h-1.8M110.8 15.8v.2h-.2v.2s-.2 0-.2.2h.4V16c.2 0 .3-.2.3-.2l.7-.6v-.2c-.4 0-.6.3-.8.5h-.2zM202 18h-.2v2h.4v-1-.8-.2h-.2zM200.7 16l.2.2v.2h.4v-.2l-.5-.5c-.2 0-.3 0-.4-.2l-.4-.3v.2c0 .2.3.4.5.6zM197.4 14.7h1.4c0 .2 0 .2.2.2v-.4l-1.2-.2h-.7v.3h.4z"/>
  <path d="M207.4 34.5h-2.6l-4-5v.2l3.8 5h2.8v-.2z"/>
  <path fill="#fff" d="M209.3 38.6c1 1 2.5 1.8 4 1.8s3-.7 4-1.8c1.2-1 1.7-2.4 1.8-4h-11.4c0 1.6.6 3 1.7 4zm8.3-3.2h-.5v.3h-.2v-.5h1v.9c0 .2-.2.4-.4.6-.2 0-.3.2-.3.3h1v.3h-1.3V37l.5-.5.4-.5v-.3-.3zm-2 .2l.2-.2.2-.3h.2v2.3h-.3v-1.7h-.3c0 .2 0 .3-.2.3v-.4zm-1 .7h.6v.3h-.7v-.3zm-1.8-1.2h.3l.4.7.2.2v-.3l.5-.6h.3l-.6 1 .7 1.3h-.3l-.3-.8v-.2c-.2 0-.2.2-.2.2l-.4.8h-.2l.6-1.2-.6-1zm-1.6 0h.2l.4.7v.2l.3-.3.4-.6h.3l-.7 1 .7 1.3h-.3l-.4-.8v-.2l-.2.2-.4.8h-.3l.8-1.2-.6-1zm-1 1.3h.8v.3h-.7v-.3zM209 35h1.3v.4h-1v.6h1v.3h-1v.7h1v.3H209V35zM217.4 30.5c-1-1-2.5-1.6-4-1.6-1.6 0-3 .5-4 1.5-1.2 1-1.8 2.6-1.8 4H219c0-1.5-.5-3-1.6-4zm-4.3 3c0 .2-.2.4-.5.4-.2 0-.5-.2-.6-.5-.3-.2-.3-.6-.3-1.2 0-.5 0-1 .2-1 0-.4.2-.5.5-.5.2 0 .4 0 .6.3.2.3.3.7.3 1.3 0 .6 0 1-.2 1.2zm2.2 0v.3h-1.6v-.4l.6-.7.6-.7v-.4-.4h-.7v.5h-.3c0-.3 0-.6.2-.7 0-.2.2-.2.5-.2s.4 0 .6.2c.2.2.2.4.2.6v.6c-.2 0-.4.4-.7.7-.2 0-.3.2-.3.3 0 0-.2 0-.2.2h1.2z"/>
  <path fill="#fff" d="M212.5 31c-.2 0-.3.2-.4.3v2c.2.2.3.3.5.3 0 0 .3 0 .3-.3l.2-1c0-.5 0-.8-.2-1l-.3-.2z"/>
  <path d="M213.4 28.7c-1.7 0-3.2.6-4.3 1.7-1 1-1.6 2.6-1.6 4v.2c0 1.2.3 2.2 1 3v.3l.7.8c1.3 1 2.8 1.8 4.4 1.8 1.5 0 3-.7 4-1.8 1.3-1 2-2.6 2-4.2s-.7-3-1.8-4.2c-1.2-1-2.7-1.7-4.2-1.7zm5.8 6c-.2 1.5-.7 3-1.8 4-1 1-2.6 1.7-4 1.7-1.6 0-3-.7-4-1.8-1.2-1-1.8-2.4-1.8-4 0-1.5.6-3 1.7-4 1-1 2.5-1.7 4-1.7 1.6 0 3 .5 4 1.5 1.2 1 1.7 2.5 1.8 4h.2v.2zM90.4 26.2h2v.3h-2zM115.2.2h.3v2h-.3zM100.5 26.2h2v.3h-2zM93.7 26.2h2v.3h-2zM97 26.2h2.2v.3h-2zM115.2 7h.3v2h-.3zM115.2 5.7h.3V3.6h-.3v1.6M115.2 10.3h.3v2h-.3zM115.2 13.7h.3v2h-.3zM75.6 2h.3v2.2h-.4zM75.6 5.5h.3v2h-.4zM112.7 26.2V26l-1.6.2h-.4v.3h.5c.6 0 1.2 0 1.7-.3zM75.6 8.8h.3v2h-.4zM115.2 18.3v.9h.3V17h-.3v.5M107.2 26.2h2v.3h-2zM79 26.3V26c-.2 0-.5 0-.7-.2v.3c.2.2.4.3.7.3zM75.6 15.6h.3v2h-.4zM75.6 19h.3v2h-.4zM75.6 12.2h.3v2h-.4zM103.8 26.2h2v.3h-2zM87 26.2h2v.3h-2zM83.6 26.2h2v.3h-2zM80.3 26.2h2v.3h-2zM75.6 0h.3v.8h-.4zM77.3 25l-.2.4 1.2.7v-.3c-.3 0-.7-.3-1-.6zM115.5 21v-.6h-.3v2.2h.3V21zM114.6 24.7s0-.2.2-.3c0 0 0-.2.2-.3V24h-.2l-.2.3v.4c-.2 0-.3.2-.4.3 0 0 0 .2-.2.3-.2 0-.3.2-.4.3l.2.2.4-.3V25h.2s0-.2.2-.3zM76.2 24.4l.3-.2c-.4-.7-.6-1.3-.6-2h-.4c0 .7.2 1.3.5 2 0 0 .2 0 .2.2zM278.8 19.6v-.8-.2H278s-.2 0-.2.2v.7s0 .2.2.2H278.8zM250 19.4V19h-1v.6s.2 0 .2.2h.7v-.2zM239.8 19.5v-.6h-.8v-.2.8h.8zM250 18h-1.3s-.2 0-.2.2v.6h1.6v-.6-.2zm-.7.6h-.5v-.3h1v.3h-.5z"/>
  <path d="M240.4 18.8v-.5-.3H239v.8h1.3zm-.3-.2h-.8v-.3h1v.3zM282.4 18.6s-.2 0-.2.2v.8h.8c.2 0 .2-.2.2-.2V19s0-.2-.2-.2H282.4zM311 19v.4c.2 0 .2.2.3.2h.6v-.7h-.7s-.2 0-.2-.2v.3z"/>
  <path d="M311.3 19h1.3s.2 0 .2-.2v-.5c0-.2 0-.3-.2-.3h-1.2s-.2 0-.2.2v.6h.3zm0-.7h1v.3h-1v-.3zM320.8 18.3v.5-.7.2zM44.5 16.4h3.3-2.2M31 16.4h3.3H31zM35.6 16.4h1-1zM42.4 16.4h1-1zM69.5 16.4h1-1zM62.7 16.4h1-1zM58 16.4h3.5H58zM65 16.4h3.3H65zM49.2 16.4h1-1zM37.7 16.4H41h-3.3zM76.3 16.4h1-1zM178 16.4h1-1M268.4 16.4h3.3M144 16.4h1M157.7 16.4h.8M151 16.4h.8M146.3 16.4h3.3M173.4 16.4h3.4M273 16.4h1M141.4 16.4h-2 3.4M320.5 16.4h.3-.3M159.8 16.4h3.4M132.7 16.4h3.4M130.6 16.4h.8M164.5 16.4h.8M167 16.4h-.4 3.4M275 16.4h3.5M171.2 16.4h1M184.8 16.4h.3-.2zM137.3 16.4h1M307 16.4h.8M96.6 16.4h1-1zM83 16.4h1-1zM305.5 16.4h-3.2 3.3M78.4 16.4h3.4-3.4zM119 16.4h2.2-2zM286.6 16.4h.8M282.6 16.4h-.7 3.3M295.5 16.4h3.4M300 16.4h1M288.7 16.4h3.4M293.4 16.4h.8M259.4 16.4h1M261.6 16.4h3.3M266.2 16.4h1M126 16.4h3.3-3.4zM123.8 16.4h1-1zM121.4 16.4h1-1zM117 16.4h1-1zM185.3 16.4h.4-.4zM180.2 16.4h3.4-3.4zM187 16.4h3.4-3.4zM193.7 16.4h3.4-3.3zM191.6 16.4h1-1zM112.3 16.4h3.4-3.4zM72.4 16.5H75 71.7h.5M56 16.4h.8-1zM54 16.4h-2.7 3.3-.5M225.5 16.4h1-1zM206 16.4h-.8.8M221 16.4h.3-.4zM212 16.4h.8-1zM207.3 16.4h3.4-3.4zM221.5 16.4h2.7-2.7zM214 16.4h3.5-3.4zM218.7 16.4h1-1zM156.4 16.5H153h1.9M231 16.5H227.6h3M232.3 16.4h1-1zM237 16.4H234.4h3.3-.7M104.3 16.4h-1 1M105.6 16.4h3.4-3.4zM110.8 16.4H110.2h.7M198.4 16.4h1-1zM279.8 16.4h1-1zM241.2 16.5h3.4-3.3M254.8 16.5h3.4-3.4M251.4 16.4h-.8.8M250.4 16.5H248h1.3M252.6 16.5h1-1M239 16.5h1-1M311.7 16.4H309h2.7M312 16.5h.4-.5M313.7 16.5h1-1M315.8 16.5h3.4-3.4M202 16.5h1.9-3.4 1.1M88 16.4h-2.8 3.4M93 16.5h2.4H92M90.5 16.4H90 90.5M246 16.5h.6-.7M98.8 16.4h3.3-2.2M42 28h.2v.8zM42 30h.2v3.5zM42 23.3h.2v3.4zM42.2 7.6V8.5 8M42 21.2h.2v1zM42 14.4h.2v1zM42 16.5h.2V20zM42 43.6h.2V47zM42.2 3v3.3V6M42 9.7h.2V13zM42 41.5h.2v1zM42 .8h.2v1zM42 34.7h.2v1zM42 37h.2v3.3zM280.5 9.7V13zM280.5 7.6v1zM280.5 28v.8zM280.5 14.4v1zM280.5 34.7v1zM280.5.8v1zM280.5 30v3.5zM280.5 43.6V47zM280.5 3v3.3zM280.5 41.5v1zM280.6 40.2V37 40M280.6 25v-1.7 3.3V25M280.6 19.2v-2.6V20v-.4M280.5 21.2v.8-.7M179.4 43.6V47zM179.4 9.7V13zM179.4.8v1zM179.4 34.7v1zM179.4 14.4v1zM179.4 28v.8zM179.4 30v3.5zM179.5 19.4v-2.7V19.8v-.4M179.5 21.2v.8-.7M179.5 24.7V23.4v3.5V25M179.4 41.5v1zM179.5 40.2V37 40M179.4 7.7v.8-.8M179.4 5.2v1.1V3v2M78.2 21.2v1zM78.2 34.7v1zM78.2 30v3.5zM78.2 28v.8zM78.2 37v3.3zM78.2 41.5v1zM78.2 43.6V47zM78.2.8v1zM78.2 3v.7zM78.2 4v2.3zM78.2 16.5V20v-3.4M78.3 14.4v.8-.3M78.2 9.7V13zM78.2 7.6v1zM78.3 24.7V23.4 27 25"/>
  <path fill="#fff" d="M87.3.5V0h-.6c-.2.2-.3.2-.5.2 0 0-.3 0-.4-.2H85v.2h-.3V0h-1.2c0 .2-.2.2-.4.2 0 0-.2 0-.3-.2h-1v.2h-.2V0h-1.2v.5h7z"/>
  <path d="M80.3.6h7V0v.5h-7V0v.6M213.5 1.7c-.3.3-.7.5-1 .5v.2c.4 0 .8-.2 1-.5.4-.5.6-1 .6-1.3V0h-.3l.2.7c0 .4-.3.7-.5 1zM203.8 2.4h8.6V2h-8.9v.4h.2M202 1c0 .3 0 .6.3 1 .3.2.8.4 1.2.4V2c-.4 0-.8 0-1-.3L202 1V.6c0-.3 0-.5.2-.7h-.2V1zM62 41.5h.2v-.2H50.5v.2H62zM56.4 35.6V21.2v12-.2"/>
  <path d="M56.4 47.3c-.8 0-1.5-.2-2.2-.4l-2-1.4c-.6-.6-1-1.3-1.3-2-.4-.7-.5-1.4-.5-2v-.2c0-.7 0-1.4.4-2 .2-1 .6-1.5 1.2-2 .6-.7 1.3-1 2-1.4.7-.3 1.4-.4 2.2-.4V33v.2l-3.5 3.4-1.5 1.4-3.4 3.4 3.5 3.5 1.3 1.2 1.2 1.3h2.4v-.2zM252.7 30h-11.5v.3H253V30M97.8 14.4l2-1v-2.6l-2-1.3h-.2l-2 1.2v2.5l2 1.2h.2zm-2-3.6l2-1 2 1V13l-2 1.2-2-1v-2.4zM92.8 12.4l2-1V8.7l-2-1.3h-.2l-2 1.2v2.5l2 1.3h.2zm-2-3.5l2-1.3 2 1.2V11l-2 1-2-1V9z"/>
  <path d="M97.8 16.4v-2.1h-.2V17.3h.2v-.8M79 4v1l2 1.3h.2l2-1.2h.2V2.6L81 1.2 79 2.5V4zm.2-1.3l2-1.2 2 1.2V5l-2 1-2-1V2.7zM78.3 4h.7v-.3h-3V4h2.2M92.6 15v.4h.2v-2.8h-.2V15M123.5 13.2v-2.4l-2-1.3h-.2l-2 1.2v2.5l2 1.2 2.2-1V13zm-.2 0l-2 1-2-1v-2.4l2-1 2 1V13zM185 14.4h.3l2-1v-2.6l-2-1.3h-.2l-2 1.2v2.5l2 1.2zm-1.8-3.6l2-1 2 1V13l-2 1.2-2-1v-2.4zM121.4 17.4v-3h-.2v3M250.6 14.4l2-1v-2.6l-2-1.3-2.2 1.2v2.5l2 1.2h.2zm-2-3.6l2-1 2 1V13l-2 1.2-2-1v-2.4z"/>
  <path d="M185 16.5v1h.3V14.3h-.2v2M312 14.4l2-1v-2.6l-2.2-1.3-2 1.2h-.2v2.5l2 1.2h.3zm-2.2-3.6l2-1 2 1V13l-2 1.2-2-1v-2.4zM250.4 16.5v1h.2v-3.1h-.2v2M311.7 16.5v1h.2v-3.1h-.3v2M216.4 12.4l2-1V8.7l-2-1.3h-.2l-2 1.2v2.5l2 1.3h.2zm-2-3.5l2-1.3 2 1.2V11l-2 1-2-1V9zM221 14.3H222V14h.4l1-.6.2-.2v-2.4l-.2-.2h-.2l-.8-.6-.6-.3-.4-.2-2 1.2h-.2v2.5l1 .7h.5l.3.3zm-1.6-1.2V11l2-1h.3l.7.5h.2l.8.5V13l-.2.2-1.2.7h-.3l-.2.2h-.4l-.3-.3-1.3-1zM216.2 15.4h.2v-2.8h-.2V14M221.5 16.5v-2h-.2v3h.2v-.8M136 10V8c0-.2 0-.2-.2-.2h-4.6v4.7h4.6V10zm-.3 2.4h-4.4V8h4.4v4.4zM160.3 12.6h4.6V8v-.2h-4.7v4.7zm0-4.6h4.5v4.4h-4.4V8zM196.5 8v-.2h-4.8v4.7h4.7V8zm-.2 4.4h-4.5V8h4.5v4.4zM238.2 13.8h4.8V9h-4.7V14zm.2-4.6h4.5v4.5h-4.6V9.2zM264 11V8.6H259v4.6h4.8V11zm-.3 2.2h-4.5V8.8h4.5v4.4zM292.6 11V8.6h-4.9v4.6h4.7V11zm-.2 1.8v.4H288V8.8h4.4v4zM318.2 8v4.5h2.6-2.4V8h2.4v-.2h-2.5zM265.5 4.5h4.8V0h-.2v4.3h-4.4V0h-.2v4.4zM139 4.5h4.7V0v4.3H139V0h-.2v4.4zM110.7 9h-.3v4.7H115V9h-4.2zm4.2.2v4.5h-4.4V9.2h4.2zM161.7 2.3v2.2h4.8V0h-.2v4.4H162V0h-.3v2.3zM229 2.5v-1-.2L227 0h-.2l-2 1.3h-.2V4l2.2 1.3 2.2-1V2.4zm-.2 1.2l-2 1.2-2-1.3V1.5l2-1.2 2 1.2v2.2zM230.6 2.7h1.4v-.2h-3v.2h.4M208.2 4.2l-1.7 1-.3.2V8l2 1.2h.2l.7-.4h.2l.3-.2 1-.6V5.4l-.3-.2-1.8-1h-.2zm1.6 1l.5.4v2.2l-2 1.2-2-1.2V5.6l.5-.3 1.5-1 1.4 1z"/>
  <path d="M203.8 6.6h-.6V7h3v-.2H204M292.2 2.2v2.2h4.8V0v4.3h-4.6V0h-.2v2.2zM219 34.5h-11.4v.2h11.7v-.2M81.5 0h.3v.2h-.3zM83.5 0h-.8l.4.2h.5zM84.7 0h.3v.2h-.3zM86.2.2h.4V0H86c0 .2.3.2.4.2zM203.6.3h.2c0-.2.2-.2.2-.3h-.3v.3zM204 0h.3v1.8h-.3zM205 1.6c.2.2.3.3.5.3s.4-.3.5-.4v-1V0h-.2v1.4c0 .2-.2.2-.3.2 0 0-.2 0-.3-.2V.7 0h-.2v1.7zM207.2.5l-.4.5c-.2 0-.3.3-.4.4v.4h1.2v-.3h-1c.2 0 .3-.3.4-.4.2 0 .4-.3.4-.4l.2-.5h-.3v.5zM206.6.2V0h-.2v.2h.2zM208.6.4h-.3v.3h.4v.9h-.3c-.2 0-.3 0-.4-.3h-.2c0 .2 0 .4.2.5l.4.2.5-.3V1 1c0-.2-.2-.2-.3-.2 0 0 .2 0 .2-.2V0h-.3v.4zM208 .2V0h-.2l.3.2zM209.4 1.5h.3v.3h-.3zM210.8 1.8h.5c0-.2.2-.3.3-.5V.6 0h-.3v1.2s0 .2-.2.3h-.7V0h-.2v1.8h.8zM212.5 0h.3v1.8h-.3zM212 .3h.3c0-.2.2-.2.2-.3h-.3v.3zM52 44v-1h1V43h-1v-.6h1V42h-1v2M53.3 43.2h.7v.3h-.7zM54.3 44l.4-.7h.2l.3.8h.3l-.6-1 .6-1h-.3l-.3.5s0 .2-.2.3v-.3l-.4-.6H54l.7 1-.7 1h.3zM56 44l.4-.7h.2l.4.8h.3l-.6-1 .6-1H57l-.3.5s0 .2-.2.3v-.3L56 42H56l.6 1-.7 1h.3zM57.4 43.2h.7v.3h-.6zM59 44.2l.3-.3v-1-1H59c-.3 0-.5 0-.6.2V44l.5.2zm-.4-2h.5c.2.2.2.5.2.8v.7l-.3.2c-.3 0-.3 0-.4-.3V43v-.7zM59.8 43v.9l.5.2s.3 0 .4-.3v-.5-.4h-.2l.2-.2v-.3-.4H60 60c-.2.2-.3.3-.3.5v.3h.3c0 .2-.2.2-.2.3zm.2-.5v-.3h.4v.5H60v-.2zm0 .6h.5v.8H60v-.3-.4zM55.7 37.6c-.2 0-.4 0-.6.4v2.4l.7.3c.3 0 .5 0 .6-.4.2-.3.2-.6.2-1.2 0-.4 0-.8-.2-1-.2-.3-.3-.4-.6-.4zm.4 2.6s0 .2-.3.2l-.4-.2v-1-1l.4-.3c.2 0 .3 0 .4.2.2 0 .2.4.2 1v1zM57.6 38c-.2 0-.3.2-.5.3v.4c.2 0 .3 0 .4-.2.2 0 .2-.2.3-.3v2.5h.3v-3h-.2s0 .2-.2.3zM242.8 32.6c0 .2.3.3.6.3 0 0 .3 0 .4-.2l.4.2v-.2l-.2-.2s0-.2.2-.3v-.6-.5l-.4-.4-.4-.2c-.2 0-.3 0-.5.2-.2 0-.3.2-.4.4v.5c0 .4 0 .6.2 1zm0-1.5H243.8l.2.3v.4c0 .3 0 .6-.2.8 0-.2-.2-.2-.4-.2v.2h0-.5l-.2-.8V31zM244.4 32h.7v.2h-.6zM246 33l.3-.4.2-.8c0-.4 0-.7-.2-1l-.4-.2c-.3 0-.5.2-.6.3v1.6c.2.2.3.3.5.3zm-.4-2h.3c.2.2.3.4.3.8 0 .3 0 .5-.2.7v.2c-.2 0-.3 0-.4-.2v-.7-.7zM247.3 31.2V33h.2v-2.4c0 .2-.2.3-.3.3l-.4.2v.3s.2 0 .3-.2h.3zM248 32h.8v.2h-.7zM249.5 33c.2 0 .3-.2.4-.4v-.8-1l-.5-.2c-.2 0-.3.2-.4.3v1.6c.2.2.3.3.5.3zm-.3-2h.6v1.5l-.3.2s-.2 0-.3-.2v-.7-.7zM251 31.5c-.2.2-.3.5-.3.7v.7c0-.5.2-1 .3-1.2l.5-1h-1.2 1l-.4.7zM246.2 26.3c-.3 0-.5.2-.6.4-.2.3-.2.7-.2 1.2s0 1 .2 1c0 .3.4.5.6.5s.5-.2.6-.4l.2-1c0-.7 0-1-.2-1.4l-.6-.3zm.3 2.6l-.3.2c-.2 0-.3 0-.4-.3v-1-1c0-.3.2-.4.4-.4 0 0 .3 0 .3.3 0 0 .2.4.2 1 0 .4 0 .7-.2 1zM248.6 26.3h-.2l-1.2 2v.4h1v.7h.4v-.7h.4v-.4h-.4v-2zm-.3 2h-.8l.8-1.4v1.3zM97 10.8H97l-.8 2.4h.3l.2-.7h1v.7h.4l-1-2.4zm-.4 1.4l.2-.7V11l.3.5.3.7h-.7zM98.6 11.7l-.2.8v.7L99 12c0-.4.3-.7.5-1v-.2H98v.3h1c0 .3-.3.4-.4.7zM91.7 8.8h-.3v2.4h1.3V11h-1M93.5 11.2h.5v-.7-.4H94l.2-.3v-.3V9c-.2-.2-.3-.2-.5-.2s-.3 0-.4.2v.7s0 .2.3.2H93v1c.2.2.3.2.5.2zm-.3-1.8V9h.5v.7h-.2-.2v-.3zm0 .8l.3-.2s.2 0 .3.2v.7h-.3-.3v-.5-.3zM80.6 2.6h-.3L79.5 5h.3l.2-.7h.8l.3.7h.4l-.8-2.4zM80 4l.3-.7V3c.2 0 .2.2.3.4l.2.6H80zM82 3.6v.7c-.2.3-.2.5-.2.7h.2c0-.4 0-.8.3-1 0-.6.3-1 .5-1v-.4h-1.3V3h1c-.2 0-.3.3-.4.6zM120.5 10.8l-.8 2.4h.3l.2-.7h.8l.3.7h.3l-.8-2.4h-.3zm-.2 1.4l.2-.7V11l.2.5.3.7h-.7zM122.3 11.7l-.2.8v.7h.2c0-.4 0-.8.3-1.2 0-.4.3-.7.5-1v-.2h-1.3v.3h1l-.4.7zM184.6 10.8h-.3l-.8 2.4h.3l.2-.7h.8l.3.7h.4l-.8-2.4zm-.5 1.4l.3-.7V11c.2 0 .2.3.3.5l.2.7h-.7zM186 11.7v.8c-.2.2-.2.5-.2.7h.2c0-.4 0-.8.3-1.2 0-.4.3-.7.5-1v-.2h-1.3v.3h1l-.4.7zM250 10.8h-.3l-.8 2.4.4-.7h.8l.2.7h.3l-.8-2.4zm-.6 1.4l.3-.7V11l.2.5v.7h-.6zM251.5 11.7l-.3.8v.7h.2c0-.4 0-.8.2-1.2l.5-1v-.2H251v.3h1c0 .3-.2.4-.3.7zM311.2 10.8h-.3l-.8 2.4h.2l.2-.7h1v.7h.4l-.8-2.4zm-.5 1.4l.2-.7V11s0 .3.2.5l.2.7h-.7zM312.8 11.7c-.2.2-.2.5-.3.8v.7l.4-1.2c0-.4.2-.7.4-1v-.2H312v.3h1l-.2.7zM215.3 8.8h-.3v2.4h1.2V11h-1M217 11.2h.6v-.7-.4h-.2l.2-.3v-.3V9c-.2-.2-.3-.2-.5-.2l-.3.2-.2.4v.3c.2 0 .2.2.3.2h-.3v1l.6.2zm-.2-1.8V9h.6v.7h-.2c-.2 0-.2-.2-.2-.3zm0 .8l.3-.2c.2 0 .3 0 .4.2v.7h-.3-.2v-.5-.3zM220.5 10.8l-.7 2.4h.2l.3-.7h.8l.3.7h.3l-.8-2.4h-.3zm-.2 1.4l.2-.7c0-.2 0-.3.2-.5v.5l.3.7h-.7zM222.7 11c0 .3-.2.4-.3.7-.2.2-.2.5-.3.8v.7h.2V13l.3-1 .5-1v-.2h-1.3v.3H222.7zM132 11.5s.3 0 .4-.2V9v1.7s0 .2-.2.3c0 .2 0 .2-.2.2h-.2v-.5h-.3v.6l.5.2zM133.5 11.5c.2 0 .4-.2.5-.4v-.8-1l-.5-.2c-.2 0-.3 0-.5.3v2l.5.2zm-.3-2c0-.2.2-.2.3-.2h.3V11l-.3.2s-.2 0-.3-.2v-.8-.8zM135 10.5l-.5.5v.4h1.2V11h-1c.2 0 .2-.2.4-.3.3-.2.5-.5.5-.6l.2-.3c0-.2 0-.4-.2-.5L135 9s-.3 0-.4.2l-.2.5h.3v-.3h.7V10l-.4.5zM161.4 10.7v.3l-.3.2c-.2-.2-.2-.3-.2-.5h-.2v.6l.5.2c.3 0 .4 0 .5-.2V9v1.7zM162.6 9c-.2 0-.4 0-.5.3v2l.6.2c.2 0 .4-.2.5-.4.2 0 .2-.4.2-.8s0-.7-.2-1l-.4-.2zm.3 2l-.4.2s-.2 0-.3-.2v-.8-.8h.6V11zM164.2 10.7l.5-.6v-.3-.5L164 9s-.2 0-.3.2l-.2.5h.3v-.3h.7V10l-.4.5-.4.5v.4h1.2V11h-1c.2 0 .3-.2.4-.3zM192.7 11.5c.2 0 .3 0 .4-.2.2 0 .3-.3.3-.6V9h-.3v2l-.3.2h-.2v-.5h-.4c0 .3.2.5.3.6l.4.2zM194.2 11.5c.2 0 .4-.2.5-.4l.2-.8c0-.4-.2-.7-.3-1l-.5-.2c-.2 0-.4 0-.4.3-.2.2-.2.5-.2 1 0 .4 0 .7.2 1l.4.2zm-.3-2c0-.2 0-.2.2-.2h.3V11s0 .2-.3.2c0 0-.2 0-.3-.2-.2 0-.2-.4-.2-.8v-.8zM195.8 9.5v2h.2V9c-.2 0-.2.2-.4.3l-.3.3v.3l.2-.3s.2 0 .3-.2zM239.6 12v.4h-.3-.2v-.5h-.3c0 .2 0 .4.2.5 0 0 0 .2.3.2.2 0 .3 0 .4-.2V10 12zM240.8 10.2c-.2 0-.4 0-.5.3v2l.5.2c.2 0 .4 0 .5-.3v-1-1l-.5-.2zm.3 2c0 .2 0 .3-.2.3 0 0-.2 0-.3-.3v-.7-.8c0-.2.2-.2.3-.2 0 0 .2 0 .3.2.2 0 .2.3.2.8v.7zM242.2 10.5c0 .2-.2.3-.3.3v.3c.2 0 .3-.2.3-.2v2h.3V10c-.2 0-.3.3-.4.3zM260 12.2s.2 0 .3-.2V9.8v2h-.5v-.3h-.3v.6c.2.2.3.2.5.2zM261.4 12.2c.2 0 .4 0 .5-.3v-1-1l-.6-.2c-.2 0-.3 0-.4.3l-.2 1c0 .4 0 .8.2 1l.4.2zm-.2-2s0-.2.2-.2.2 0 .3.2v1.6s0 .2-.2.2-.2 0-.3-.2l-.2-.8c0-.4 0-.7.2-.8zM262.8 11.3l-.4.5v.4h1.2V12h-1v-.3c.2 0 .3 0 .4-.3l.5-.5v-.6-.4c-.2-.2-.3-.2-.5-.2h-.5v.7c0-.2 0-.3.2-.4h.6v.8l-.5.5zM289 11.4v.4h-.5v-.3h-.3v.6c.2.2.3.2.5.2 0 0 .3 0 .4-.2.2 0 .2-.3.2-.6V9.8h-.2v1.6zM290.2 9.8c-.2 0-.4 0-.5.3v2l.5.2c.2 0 .4 0 .5-.3v-1-1l-.5-.2zm.3 2l-.3.2s-.2 0-.3-.2l-.2-.8v-.8l.4-.2s.2 0 .3.2v1.6zM291.5 11.7l.3-.3.4-.5.2-.6c0-.2 0-.3-.2-.4 0-.2-.3-.2-.4-.2h-.5l-.2.7h.3c0-.2 0-.3.2-.4h.5v.8l-.4.5-.4.5s-.2.3 0 .4h1.2V12h-1v-.3zM319.2 11.5c.2 0 .4 0 .4-.2l.2-.6V9h-.3v2c0 .2-.2.2-.3.2h-.2v-.5h-.3v.6l.5.2zM320.3 9.3l-.2 1c0 .4.2.7.3 1l.5.2v-.3s-.3 0-.3-.2v-.8-.8h.3V9c-.3 0-.4 0-.5.3zM266 3c0 .3 0 .3.3.3 0 0 .3 0 .4-.2V1v1.5c0 .2 0 .3-.2.3V3h-.2-.2v-.5h-.2v.6zM267.8 3c-.2 0-.3 0-.4-.4h-.2c0 .2 0 .4.2.5 0 .3.2.3.4.3s.3 0 .5-.2v-.5-.2V2h-.2c.2 0 .2 0 .3-.2v-.3V1l-.5-.2c-.2 0-.3 0-.4.2l-.2.5h.2v-.3H268v.6h-.3v.3c.2 0 .3.2.4.3 0 0 .2 0 .2.3V3h-.4zM269.4 3.3h.3l.2-.4v-.5c0-.2 0-.4-.2-.6 0-.2-.3-.3-.4-.3h-.3v-.3l.4-.3.2.2v.3h.4V1c-.2 0-.2 0-.2-.2l-.4-.2c-.2 0-.4.2-.5.3-.3.4-.3.7-.3 1.2 0 .4 0 .7.2 1h.4zM269 2H269.7l.2.5c0 .2 0 .3-.2.4h-.5v-.5V2zM139.4 3c0 .3.3.3.4.3.2 0 .3 0 .4-.2 0 0 .2-.2.2-.5V1h-.3v2h-.2-.2v-.5h-.3v.6z"/>
  <path d="M141.3 3c-.2 0-.3 0-.4-.4h-.3c0 .2 0 .4.2.5 0 .3 0 .3.3.3.2 0 .4 0 .5-.2.2 0 .2-.2.2-.5v-.2s0-.2-.2-.2h-.2s.2 0 .2-.2v-.3V1l-.5-.2-.4.2-.3.5h.3v-.3h.6v.6h-.4v.3h.2l.2.3V3h-.3zM143 3.3h.2l.2-.4v-.5V2c-.2-.2-.3-.3-.5-.3h-.3c0 .2-.2.3-.2.3v-.6s.3-.3.4-.3v.2c.2 0 .2.2.3.3h.2V1l-.2-.2-.4-.2c-.3 0-.4.2-.6.3l-.2 1.2c0 .4 0 .7.2 1h.5zm-.4-1.2h.5V3h-.7v-.5V2zM110.8 12.3v.2l.5.2c.2 0 .4 0 .4-.2l.2-.6V10h-.4v2.1h-.3-.2v-.5h-.2v.3zM112.8 12.7c.3 0 .4 0 .6-.3v-1-1l-.5-.2c-.4 0-.5 0-.6.3l-.2 1c0 .4 0 .7.2 1l.4.2zm-.2-2c0-.2.2-.2.2-.2.2 0 .3 0 .3.2.2 0 .3.3.3.8 0 .4 0 .6-.2.7v.3c-.2 0-.3 0-.4-.3v-.7-.8zM114.4 10.8v2h.3V10h-.2s0 .3-.2.3c0 .2-.2.3-.4.3v.3h.2l.2-.2zM162.5 3.4h.5V1h-.2v2h-.3-.2v-.3h-.3v.6h.5zM164 3.2c-.2 0-.3-.2-.3-.5h-.3c0 .3 0 .4.2.6h1c.2-.2.2-.4.2-.6v-.3l-.2-.2v-.3-.4V1h-.5-.4c0 .2 0 .4-.2.6h.3v-.3h.7V2h-.3v.3h.4V3c-.2 0-.3.2-.3.2zM165.6 3.4h.3V3c.2 0 .2-.2.2-.4V2c-.3 0-.4-.2-.5-.2h-.3l-.2.4v-.7l.4-.3h.2c0 .2 0 .3.2.4h.2v-.3L166 1h-.4c-.2 0-.4 0-.5.3v2h.6zm-.3-1c0-.3.2-.3.3-.3 0 0 .2 0 .3.3V3l-.4.2s-.2 0-.3-.2v-.4-.3zM226 1.4l-.8 2.4h.3l.2-.7h.8l.2.8h.3l-.8-2.4h-.3zm-.2 1.4l.2-.7v-.3s0 .3.2.4l.2.8h-.6zM227.8 3.6c-.2 0-.4-.2-.4-.5h-.2v.7h1c.2-.2.2-.4.2-.6V3v-.2h-.3l.3-.3V2v-.4c-.2-.2-.4-.2-.5-.2h-.4l-.2.6h.2s0-.2.2-.3h.4v.6h-.3v.4h.4l.2.4v.4l-.4.2zM207.3 8V7h.5c.3 0 .5 0 .6-.2l.2-.6v-.4l-.4-.2H207v2.3h.3zm0-2.2h.8c.2 0 .2 0 .3.2v.5l-.5.2h-.5v-1zM209.5 6v2h.2V5.4c-.2 0-.3.2-.3.3-.2 0-.3.2-.4.3v.4s.2 0 .2-.2c.2 0 .2 0 .3-.2zM292.7 3.2l.4.2c.3 0 .4 0 .5-.2l.2-.7V1h-.3v1.9h-.3c-.2 0-.2-.2-.2-.4h-.2v.6zM294.6 3c-.2 0-.3 0-.4-.4h-.2c0 .3 0 .5.2.5 0 .3.2.4.4.4l.5-.3c.2 0 .3-.2.3-.4v-.3L295 2v-.2c.2 0 .2-.2.2-.3 0-.2 0-.3-.2-.4h-.8s0 .3-.2.5h.3v-.3h.5l.2.3s0 .2-.2.3h-.3v.4h.4V3h-.4zM296.2 3.4h.3l.2-.4v-.5V2c-.2-.2-.3-.3-.5-.3h-.2l-.2.4v-.6l.4-.3.2.2v.3h.4v-.3h-.2c0-.3-.2-.3-.4-.3s-.4 0-.5.2l-.2 1c0 .4 0 .7.2 1l.5.2zm-.3-1.2c0-.2 0-.2.2-.2 0 0 .2 0 .2.2l.2.3c0 .2 0 .3-.2.5h-.2-.3l-.2-.5v-.3zM210 37h-1v-.7h1V36h-1v-.6h1V35H209v2.3h1.3M210.3 36.3h.7v.3h-.7zM211.4 37.3l.4-.8v-.2c.2 0 .2.2.2.2l.4.8h.3L212 36l.7-1h-.3l-.3.7v.2s0-.2-.2-.3l-.4-.6h-.2l.6 1-.7 1.3h.4zM213 37.3l.5-.8v-.2l.2.2.4.8h.4l-.7-1.2.6-1h-.2l-.3.7v.2l-.3-.3-.3-.6h-.2l.6 1-.6 1.3h.3zM214.5 36.3h.7v.3h-.7zM216 35.6v1.7h.2V35h-.2c0 .2 0 .3-.2.4 0 0 0 .2-.3.2v.3l.2-.3h.3zM217.2 36.5c-.2 0-.3.3-.4.4v.3h1V37h-.8c0-.2.2-.3.4-.4l.4-.5v-.3-.4l-.4-.2c-.2 0-.3 0-.5.2s-.2.3-.2.5h.2v-.3H217.7v.6l-.4.5zM212.5 30.8c-.3 0-.5 0-.6.4-.3.2-.3.6-.3 1 0 .7 0 1 .2 1.3 0 .3.3.4.5.4.3 0 .5-.3.6-.5.2-.3.3-.6.3-1.2s0-1-.2-1.2l-.5-.2zm.3 2.5c0 .2-.2.3-.3.3-.2 0-.3 0-.4-.3v-1-1l.5-.2.3.3.2 1c0 .5 0 .8-.2 1zM214.2 33.3s0-.2.3-.4l.6-.8c.2-.2.2-.4.2-.6V31l-.7-.2s-.5 0-.6.2c-.3 0-.3.4-.3.7h.3v-.5h.8v.8c0 .2-.3.4-.6.7l-.5.7v.4h1.5v-.3H214s0-.2.2-.2z"/>
</svg>
