<?xml version="1.0" encoding="utf-8"?>
<!-- Generator: Adobe Illustrator 18.1.1, SVG Export Plug-In . SVG Version: 6.00 Build 0)  -->
<svg id="logo-logo-with-address-3" version="1.1" baseProfile="tiny" xmlns="http://www.w3.org/2000/svg" xmlns:xlink="http://www.w3.org/1999/xlink"
	 x="0px" y="0px" viewBox="0 0 235.3 168" xml:space="preserve">
<rect x="2.8" y="2.8" fill="#FFFFFF" width="229.6" height="162.3"/>
<rect x="2.8" y="2.8" fill="none" stroke="#010202" stroke-width="0.25" width="229.6" height="162.3"/>
<g>
	<path fill="#010202" d="M186,14v4.3h-1.1L186,14z M181.7,18.3c0.1-0.3,0.2-0.6,0.2-0.9c0-0.6-0.2-1.1-0.6-1.5
		c0.4-0.4,0.6-0.9,0.6-1.5c0,0,0,0,0,0l1,3.8H181.7z M179,18.3v-1.8h0.9c0.5,0,0.9,0.4,0.9,0.9c0,0.5-0.4,0.9-0.9,0.9H179z
		 M179.9,13.6c0.5,0,0.9,0.4,0.9,0.9c0,0.5-0.4,0.9-0.9,0.9H179v-1.8H179.9z M184.9,13.6l-1.1,4.1l-1.1-4.1H184.9z M189.1,18.3h-2
		V15L189.1,18.3z M189.5,16.9l-2-3.3h2V16.9z M177.9,12.5v7h12.8v-7H177.9z"/>
</g>
<text transform="matrix(1 0 0 1 177.8743 10.1027)" fill="#010202" font-family="'Blender-Book'" font-size="2">2</text>
<text transform="matrix(1 0 0 1 178.8821 10.1027)" fill="#010202" font-family="'Blender-Book'" font-size="2">5</text>
<text transform="matrix(1 0 0 1 179.8899 10.1027)" fill="#010202" font-family="'Blender-Book'" font-size="2">5</text>
<text transform="matrix(1 0 0 1 180.8987 10.1027)" fill="#010202" font-family="'Blender-Book'" font-size="2"> </text>
<text transform="matrix(1 0 0 1 181.3548 10.1027)" fill="#010202" font-family="'Blender-Book'" font-size="2">P</text>
<text transform="matrix(1 0 0 1 182.3987 10.1027)" fill="#010202" font-family="'Blender-Book'" font-size="2">I</text>
<text transform="matrix(1 0 0 1 182.8304 10.1027)" fill="#010202" font-family="'Blender-Book'" font-size="2">T</text>
<text transform="matrix(1 0 0 1 183.7698 10.1027)" fill="#010202" font-family="'Blender-Book'" font-size="2">T</text>
<text transform="matrix(1 0 0 1 184.7102 10.1027)" fill="#010202" font-family="'Blender-Book'" font-size="2"> </text>
<text transform="matrix(1 0 0 1 185.1663 10.1027)" fill="#010202" font-family="'Blender-Book'" font-size="2">S</text>
<text transform="matrix(1 0 0 1 186.262 10.1027)" fill="#010202" font-family="'Blender-Book'" font-size="2">T</text>
<text transform="matrix(1 0 0 1 187.2024 10.1027)" fill="#010202" font-family="'Blender-Book'" font-size="2">R</text>
<text transform="matrix(1 0 0 1 188.304 10.1027)" fill="#010202" font-family="'Blender-Book'" font-size="2">E</text>
<text transform="matrix(1 0 0 1 189.3001 10.1027)" fill="#010202" font-family="'Blender-Book'" font-size="2">E</text>
<text transform="matrix(1 0 0 1 190.2962 10.1027)" fill="#010202" font-family="'Blender-Book'" font-size="2">T</text>
<text transform="matrix(1 0 0 1 191.2356 10.1027)" fill="#010202" font-family="'Blender-Book'" font-size="2"> </text>
<text transform="matrix(1 0 0 1 191.6917 10.1027)" fill="#010202" font-family="'Blender-Book'" font-size="2">/</text>
<text transform="matrix(1 0 0 1 192.5364 10.1027)" fill="#010202" font-family="'Blender-Book'" font-size="2"> </text>
<text transform="matrix(1 0 0 1 192.9925 10.1027)" fill="#010202" font-family="'Blender-Book'" font-size="2">S</text>
<text transform="matrix(1 0 0 1 194.0882 10.1027)" fill="#010202" font-family="'Blender-Book'" font-size="2">Y</text>
<text transform="matrix(1 0 0 1 194.9964 10.1027)" fill="#010202" font-family="'Blender-Book'" font-size="2">D</text>
<text transform="matrix(1 0 0 1 196.0843 10.1027)" fill="#010202" font-family="'Blender-Book'" font-size="2">N</text>
<text transform="matrix(1 0 0 1 197.1839 10.1027)" fill="#010202" font-family="'Blender-Book'" font-size="2">E</text>
<text transform="matrix(1 0 0 1 198.18 10.1027)" fill="#010202" font-family="'Blender-Book'" font-size="2">Y</text>
<text transform="matrix(1 0 0 1 199.0882 10.1027)" fill="#010202" font-family="'Blender-Book'" font-size="2"> </text>
<text transform="matrix(1 0 0 1 199.5442 10.1027)" fill="#010202" font-family="'Blender-Book'" font-size="2">2</text>
<text transform="matrix(1 0 0 1 200.552 10.1027)" fill="#010202" font-family="'Blender-Book'" font-size="2">0</text>
<text transform="matrix(1 0 0 1 201.5598 10.1027)" fill="#010202" font-family="'Blender-Book'" font-size="2">0</text>
<text transform="matrix(1 0 0 1 202.5677 10.1027)" fill="#010202" font-family="'Blender-Book'" font-size="2">0</text>
<text transform="matrix(1 0 0 1 203.5755 10.1027)" fill="#010202" font-family="'Blender-Book'" font-size="2"> </text>
<text transform="matrix(1 0 0 1 204.0315 10.1027)" fill="#010202" font-family="'Blender-Book'" font-size="2">A</text>
<text transform="matrix(1 0 0 1 205.1057 10.1027)" fill="#010202" font-family="'Blender-Book'" font-size="2">U</text>
<text transform="matrix(1 0 0 1 206.1995 10.1027)" fill="#010202" font-family="'Blender-Book'" font-size="2">S</text>
<text transform="matrix(1 0 0 1 207.2962 10.1027)" fill="#010202" font-family="'Blender-Book'" font-size="2">T</text>
<text transform="matrix(1 0 0 1 208.2356 10.1027)" fill="#010202" font-family="'Blender-Book'" font-size="2">R</text>
<text transform="matrix(1 0 0 1 209.3382 10.1027)" fill="#010202" font-family="'Blender-Book'" font-size="2">A</text>
<text transform="matrix(1 0 0 1 210.4114 10.1027)" fill="#010202" font-family="'Blender-Book'" font-size="2">L</text>
<text transform="matrix(1 0 0 1 211.3216 10.1027)" fill="#010202" font-family="'Blender-Book'" font-size="2">I</text>
<text transform="matrix(1 0 0 1 211.7532 10.1027)" fill="#010202" font-family="'Blender-Book'" font-size="2">A</text>
<text transform="matrix(1 0 0 1 212.8274 10.1027)" fill="#010202" font-family="'Blender-Book'" font-size="2"> </text>
<text transform="matrix(1 0 0 1 213.2835 10.1027)" fill="#010202" font-family="'Blender-Book'" font-size="2">/</text>
<text transform="matrix(1 0 0 1 214.1272 10.1027)" fill="#010202" font-family="'Blender-Book'" font-size="2"> </text>
<text transform="matrix(1 0 0 1 214.5833 10.1027)" fill="#010202" font-family="'Blender-Book'" font-size="2">B</text>
<text transform="matrix(1 0 0 1 215.6653 10.1027)" fill="#010202" font-family="'Blender-Book'" font-size="2">V</text>
<text transform="matrix(1 0 0 1 216.7073 10.1027)" fill="#010202" font-family="'Blender-Book'" font-size="2">N</text>
<text transform="matrix(1 0 0 1 217.8079 10.1027)" fill="#010202" font-family="'Blender-Book'" font-size="2">.</text>
<text transform="matrix(1 0 0 1 218.2493 10.1027)" fill="#010202" font-family="'Blender-Book'" font-size="2">C</text>
<text transform="matrix(1 0 0 1 219.2932 10.1027)" fill="#010202" font-family="'Blender-Book'" font-size="2">O</text>
<text transform="matrix(1 0 0 1 220.427 10.1027)" fill="#010202" font-family="'Blender-Book'" font-size="2">M</text>
<text transform="matrix(1 0 0 1 221.7278 10.1027)" fill="#010202" font-family="'Blender-Book'" font-size="2">.</text>
<text transform="matrix(1 0 0 1 222.2073 10.1027)" fill="#010202" font-family="'Blender-Book'" font-size="2">A</text>
<text transform="matrix(1 0 0 1 223.2815 10.1027)" fill="#010202" font-family="'Blender-Book'" font-size="2">U</text>
</svg>
