<?xml version="1.0" encoding="utf-8"?>
<!-- Generator: Adobe Illustrator 18.1.1, SVG Export Plug-In . SVG Version: 6.00 Build 0)  -->
<svg id="logo-logo-with-address-1" version="1.1" baseProfile="tiny" xmlns="http://www.w3.org/2000/svg" xmlns:xlink="http://www.w3.org/1999/xlink"
	 x="0px" y="0px" viewBox="0 0 154.5 216.1" xml:space="preserve">
<rect x="2.8" y="2.8" fill="#FFFFFF" width="148.8" height="210.5"/>
<rect x="2.8" y="2.8" fill="none" stroke="#010202" stroke-width="0.25" width="148.8" height="210.5"/>
<g>
	<path fill="#010202" d="M28.7,196.1v4.3h-1.1L28.7,196.1z M24.4,200.4c0.1-0.3,0.2-0.6,0.2-0.9c0-0.6-0.2-1.1-0.6-1.5
		c0.4-0.4,0.6-0.9,0.6-1.5c0,0,0,0,0,0l1,3.8H24.4z M21.7,200.4v-1.8h0.9c0.5,0,0.9,0.4,0.9,0.9c0,0.5-0.4,0.9-0.9,0.9H21.7z
		 M22.6,195.7c0.5,0,0.9,0.4,0.9,0.9c0,0.5-0.4,0.9-0.9,0.9h-0.9v-1.8H22.6z M27.6,195.7l-1.1,4.1l-1.1-4.1H27.6z M31.8,200.4h-2
		v-3.3L31.8,200.4z M32.2,199l-2-3.3h2V199z M20.6,194.6v7h12.8v-7H20.6z"/>
</g>
<text transform="matrix(1 0 0 1 20.5509 192.2302)" fill="#010202" font-family="'Blender-Book'" font-size="2">2</text>
<text transform="matrix(1 0 0 1 21.5588 192.2302)" fill="#010202" font-family="'Blender-Book'" font-size="2">5</text>
<text transform="matrix(1 0 0 1 22.5671 192.2302)" fill="#010202" font-family="'Blender-Book'" font-size="2">5</text>
<text transform="matrix(1 0 0 1 23.5749 192.2302)" fill="#010202" font-family="'Blender-Book'" font-size="2"> </text>
<text transform="matrix(1 0 0 1 24.0309 192.2302)" fill="#010202" font-family="'Blender-Book'" font-size="2">P</text>
<text transform="matrix(1 0 0 1 25.0749 192.2302)" fill="#010202" font-family="'Blender-Book'" font-size="2">I</text>
<text transform="matrix(1 0 0 1 25.507 192.2302)" fill="#010202" font-family="'Blender-Book'" font-size="2">T</text>
<text transform="matrix(1 0 0 1 26.4469 192.2302)" fill="#010202" font-family="'Blender-Book'" font-size="2">T</text>
<text transform="matrix(1 0 0 1 27.3869 192.2302)" fill="#010202" font-family="'Blender-Book'" font-size="2"> </text>
<text transform="matrix(1 0 0 1 27.8429 192.2302)" fill="#010202" font-family="'Blender-Book'" font-size="2">S</text>
<text transform="matrix(1 0 0 1 28.9386 192.2302)" fill="#010202" font-family="'Blender-Book'" font-size="2">T</text>
<text transform="matrix(1 0 0 1 29.8786 192.2302)" fill="#010202" font-family="'Blender-Book'" font-size="2">R</text>
<text transform="matrix(1 0 0 1 30.9806 192.2302)" fill="#010202" font-family="'Blender-Book'" font-size="2">E</text>
<text transform="matrix(1 0 0 1 31.9767 192.2302)" fill="#010202" font-family="'Blender-Book'" font-size="2">E</text>
<text transform="matrix(1 0 0 1 32.9728 192.2302)" fill="#010202" font-family="'Blender-Book'" font-size="2">T</text>
<text transform="matrix(1 0 0 1 33.9128 192.2302)" fill="#010202" font-family="'Blender-Book'" font-size="2"> </text>
<text transform="matrix(1 0 0 1 34.3688 192.2302)" fill="#010202" font-family="'Blender-Book'" font-size="2">/</text>
<text transform="matrix(1 0 0 1 35.2126 192.2302)" fill="#010202" font-family="'Blender-Book'" font-size="2"> </text>
<text transform="matrix(1 0 0 1 35.6686 192.2302)" fill="#010202" font-family="'Blender-Book'" font-size="2">S</text>
<text transform="matrix(1 0 0 1 36.7648 192.2302)" fill="#010202" font-family="'Blender-Book'" font-size="2">Y</text>
<text transform="matrix(1 0 0 1 37.6725 192.2302)" fill="#010202" font-family="'Blender-Book'" font-size="2">D</text>
<text transform="matrix(1 0 0 1 38.7604 192.2302)" fill="#010202" font-family="'Blender-Book'" font-size="2">N</text>
<text transform="matrix(1 0 0 1 39.8605 192.2302)" fill="#010202" font-family="'Blender-Book'" font-size="2">E</text>
<text transform="matrix(1 0 0 1 40.8566 192.2302)" fill="#010202" font-family="'Blender-Book'" font-size="2">Y</text>
<text transform="matrix(1 0 0 1 41.7643 192.2302)" fill="#010202" font-family="'Blender-Book'" font-size="2"> </text>
<text transform="matrix(1 0 0 1 42.2204 192.2302)" fill="#010202" font-family="'Blender-Book'" font-size="2">2</text>
<text transform="matrix(1 0 0 1 43.2287 192.2302)" fill="#010202" font-family="'Blender-Book'" font-size="2">0</text>
<text transform="matrix(1 0 0 1 44.2365 192.2302)" fill="#010202" font-family="'Blender-Book'" font-size="2">0</text>
<text transform="matrix(1 0 0 1 45.2443 192.2302)" fill="#010202" font-family="'Blender-Book'" font-size="2">0</text>
<text transform="matrix(1 0 0 1 46.2526 192.2302)" fill="#010202" font-family="'Blender-Book'" font-size="2"> </text>
<text transform="matrix(1 0 0 1 46.7087 192.2302)" fill="#010202" font-family="'Blender-Book'" font-size="2">A</text>
<text transform="matrix(1 0 0 1 47.7824 192.2302)" fill="#010202" font-family="'Blender-Book'" font-size="2">U</text>
<text transform="matrix(1 0 0 1 48.8766 192.2302)" fill="#010202" font-family="'Blender-Book'" font-size="2">S</text>
<text transform="matrix(1 0 0 1 49.9723 192.2302)" fill="#010202" font-family="'Blender-Book'" font-size="2">T</text>
<text transform="matrix(1 0 0 1 50.9128 192.2302)" fill="#010202" font-family="'Blender-Book'" font-size="2">R</text>
<text transform="matrix(1 0 0 1 52.0143 192.2302)" fill="#010202" font-family="'Blender-Book'" font-size="2">A</text>
<text transform="matrix(1 0 0 1 53.0885 192.2302)" fill="#010202" font-family="'Blender-Book'" font-size="2">L</text>
<text transform="matrix(1 0 0 1 53.9987 192.2302)" fill="#010202" font-family="'Blender-Book'" font-size="2">I</text>
<text transform="matrix(1 0 0 1 54.4303 192.2302)" fill="#010202" font-family="'Blender-Book'" font-size="2">A</text>
<text transform="matrix(1 0 0 1 55.5046 192.2302)" fill="#010202" font-family="'Blender-Book'" font-size="2"> </text>
<text transform="matrix(1 0 0 1 55.9606 192.2302)" fill="#010202" font-family="'Blender-Book'" font-size="2">/</text>
<text transform="matrix(1 0 0 1 56.8044 192.2302)" fill="#010202" font-family="'Blender-Book'" font-size="2"> </text>
<text transform="matrix(1 0 0 1 57.2604 192.2302)" fill="#010202" font-family="'Blender-Book'" font-size="2">T</text>
<text transform="matrix(1 0 0 1 58.1999 192.2302)" fill="#010202" font-family="'Blender-Book'" font-size="2"> </text>
<text transform="matrix(1 0 0 1 58.6559 192.2302)" fill="#010202" font-family="'Blender-Book'" font-size="2">+</text>
<text transform="matrix(1 0 0 1 59.7018 192.2302)" fill="#010202" font-family="'Blender-Book'" font-size="2">6</text>
<text transform="matrix(1 0 0 1 60.7106 192.2302)" fill="#010202" font-family="'Blender-Book'" font-size="2">1</text>
<text transform="matrix(1 0 0 1 61.7184 192.2302)" fill="#010202" font-family="'Blender-Book'" font-size="2"> </text>
<text transform="matrix(1 0 0 1 62.1745 192.2302)" fill="#010202" font-family="'Blender-Book'" font-size="2">2</text>
<text transform="matrix(1 0 0 1 63.1823 192.2302)" fill="#010202" font-family="'Blender-Book'" font-size="2"> </text>
<text transform="matrix(1 0 0 1 63.6384 192.2302)" fill="#010202" font-family="'Blender-Book'" font-size="2">8</text>
<text transform="matrix(1 0 0 1 64.6462 192.2302)" fill="#010202" font-family="'Blender-Book'" font-size="2">2</text>
<text transform="matrix(1 0 0 1 65.654 192.2302)" fill="#010202" font-family="'Blender-Book'" font-size="2">9</text>
<text transform="matrix(1 0 0 1 66.6618 192.2302)" fill="#010202" font-family="'Blender-Book'" font-size="2">7</text>
<text transform="matrix(1 0 0 1 67.6706 192.2302)" fill="#010202" font-family="'Blender-Book'" font-size="2"> </text>
<text transform="matrix(1 0 0 1 68.1266 192.2302)" fill="#010202" font-family="'Blender-Book'" font-size="2">7</text>
<text transform="matrix(1 0 0 1 69.1344 192.2302)" fill="#010202" font-family="'Blender-Book'" font-size="2">2</text>
<text transform="matrix(1 0 0 1 70.1423 192.2302)" fill="#010202" font-family="'Blender-Book'" font-size="2">0</text>
<text transform="matrix(1 0 0 1 71.1501 192.2302)" fill="#010202" font-family="'Blender-Book'" font-size="2">0</text>
<text transform="matrix(1 0 0 1 72.1579 192.2302)" fill="#010202" font-family="'Blender-Book'" font-size="2"> </text>
<text transform="matrix(1 0 0 1 72.6139 192.2302)" fill="#010202" font-family="'Blender-Book'" font-size="2">/</text>
<text transform="matrix(1 0 0 1 73.4587 192.2302)" fill="#010202" font-family="'Blender-Book'" font-size="2"> </text>
<text transform="matrix(1 0 0 1 73.9137 192.2302)" fill="#010202" font-family="'Blender-Book'" font-size="2">B</text>
<text transform="matrix(1 0 0 1 74.9958 192.2302)" fill="#010202" font-family="'Blender-Book'" font-size="2">V</text>
<text transform="matrix(1 0 0 1 76.0378 192.2302)" fill="#010202" font-family="'Blender-Book'" font-size="2">N</text>
<text transform="matrix(1 0 0 1 77.1384 192.2302)" fill="#010202" font-family="'Blender-Book'" font-size="2">.</text>
<text transform="matrix(1 0 0 1 77.5798 192.2302)" fill="#010202" font-family="'Blender-Book'" font-size="2">C</text>
<text transform="matrix(1 0 0 1 78.6237 192.2302)" fill="#010202" font-family="'Blender-Book'" font-size="2">O</text>
<text transform="matrix(1 0 0 1 79.7585 192.2302)" fill="#010202" font-family="'Blender-Book'" font-size="2">M</text>
<text transform="matrix(1 0 0 1 81.0583 192.2302)" fill="#010202" font-family="'Blender-Book'" font-size="2">.</text>
<text transform="matrix(1 0 0 1 81.5378 192.2302)" fill="#010202" font-family="'Blender-Book'" font-size="2">A</text>
<text transform="matrix(1 0 0 1 82.612 192.2302)" fill="#010202" font-family="'Blender-Book'" font-size="2">U</text>
</svg>
