<svg version="1.1" id="Layer_1" xmlns="http://www.w3.org/2000/svg" xmlns:xlink="http://www.w3.org/1999/xlink" x="0px" y="0px"
	 viewBox="0 0 270 99.569" enable-background="new 0 0 270 99.569" xml:space="preserve">
<path fill-rule="evenodd" clip-rule="evenodd" fill="#FFFFFF" d="M159.306,24.469c0-3.7-1.5-7.2-4-9.7c-2.6-2.6-6.1-4.1-9.8-4.1
	c-3.6,0-7.1,1.5-9.7,4.1c-2.5,2.5-4,6-4,9.7c0,3.6,1.5,7.1,4,9.7c2.6,2.5,6.1,4,9.7,4c3.7,0,7.2-1.5,9.8-4
	C157.806,31.569,159.306,28.069,159.306,24.469"/>
<path fill="none" stroke="#000000" stroke-width="0.48" stroke-linejoin="round" stroke-miterlimit="1.414" d="M159.306,24.469
	c0-3.7-1.5-7.2-4-9.7c-2.6-2.6-6.1-4.1-9.8-4.1c-3.6,0-7.1,1.5-9.7,4.1c-2.5,2.5-4,6-4,9.7c0,3.6,1.5,7.1,4,9.7c2.6,2.5,6.1,4,9.7,4
	c3.7,0,7.2-1.5,9.8-4C157.806,31.569,159.306,28.069,159.306,24.469"/>
<line fill="none" stroke="#000000" stroke-width="0.48" stroke-linejoin="round" stroke-miterlimit="1.414" x1="145.707" y1="79.269" x2="145.707" y2="99.569"/>
<polyline fill-rule="evenodd" clip-rule="evenodd" points="145.707,99.569 145.707,97.269 161.107,97.269 161.107,99.569 "/>
<line fill="none" stroke="#000000" stroke-width="0.48" stroke-linejoin="round" stroke-miterlimit="1.414" x1="145.507" y1="38.169" x2="145.507" y2="58.369"/>
<path fill-rule="evenodd" clip-rule="evenodd" d="M145.507,10.669v-5.9l19.4,19.7l-19.4,19.6v-5.9c1.7,0,3.4-0.3,5.1-1
	c1.7-0.6,3.3-1.7,4.7-3c1.3-1.4,2.3-3,3-4.7c0.7-1.7,1-3.4,1-5c0-1.7-0.3-3.4-1-5.1c-0.7-1.7-1.7-3.3-3-4.6c-1.4-1.4-3-2.4-4.7-3.1
	C148.907,10.969,147.207,10.669,145.507,10.669"/>
<line fill="none" stroke="#000000" stroke-width="0.48" stroke-linejoin="round" stroke-miterlimit="1.414" x1="159.306" y1="24.469" x2="131.806" y2="24.469"/>
<path fill-rule="evenodd" clip-rule="evenodd" d="M135.206,30.069v-3.9h0.9c0.3,0,0.5,0.1,0.7,0.1c0.2,0.1,0.4,0.3,0.5,0.6
	c0.2,0.3,0.2,0.7,0.2,1.2s0,1-0.2,1.3c-0.1,0.3-0.2,0.4-0.4,0.6c-0.2,0.1-0.5,0.1-0.8,0.1H135.206 M134.606,30.769h1.5
	c0.5,0,0.8-0.1,1.1-0.3c0.2-0.2,0.5-0.5,0.6-0.9c0.2-0.4,0.3-0.9,0.3-1.4s-0.1-0.9-0.2-1.2c-0.1-0.4-0.2-0.6-0.4-0.8
	c-0.2-0.3-0.4-0.4-0.6-0.5c-0.2-0.1-0.5-0.1-0.8-0.1h-1.5V30.769"/>
<rect x="138.607" y="28.568" fill-rule="evenodd" clip-rule="evenodd" width="1.6" height="0.6"/>
<path fill-rule="evenodd" clip-rule="evenodd" d="M140.407,30.769h0.7l1-1.8c0.1-0.1,0.1-0.2,0.2-0.4c0.1,0.1,0.2,0.2,0.2,0.3
	l1.1,1.9h0.7l-1.6-2.8l1.5-2.4h-0.6l-0.9,1.4c-0.1,0.2-0.2,0.4-0.3,0.6c-0.1-0.2-0.2-0.4-0.4-0.7l-0.7-1.3h-0.7l1.4,2.5
	L140.407,30.769"/>
<path fill-rule="evenodd" clip-rule="evenodd" d="M144.306,30.769h0.7l1.1-1.8c0-0.1,0.1-0.2,0.2-0.4c0,0.1,0.1,0.2,0.1,0.3l1.1,1.9
	h0.7l-1.6-2.8l1.5-2.4h-0.6l-0.9,1.4c-0.1,0.2-0.2,0.4-0.3,0.6c-0.1-0.2-0.2-0.4-0.3-0.7l-0.8-1.3h-0.7l1.5,2.5L144.306,30.769"/>
<rect x="148.407" y="28.568" fill-rule="evenodd" clip-rule="evenodd" width="1.6" height="0.6"/>
<path fill-rule="evenodd" clip-rule="evenodd" d="M152.407,30.769v-5.2h-0.4c0,0.2-0.2,0.4-0.4,0.7c-0.2,0.2-0.5,0.4-0.8,0.6v0.6
	c0.2-0.1,0.4-0.2,0.6-0.3c0.2-0.2,0.3-0.3,0.5-0.5v4.1H152.407"/>
<path fill-rule="evenodd" clip-rule="evenodd" d="M154.207,28.169c0-0.8,0.1-1.4,0.3-1.7c0.1-0.2,0.3-0.4,0.6-0.4
	c0.2,0,0.4,0.2,0.6,0.4c0.1,0.3,0.2,0.9,0.2,1.7c0,0.8-0.1,1.4-0.2,1.7c-0.2,0.3-0.4,0.4-0.6,0.4c-0.3,0-0.5-0.1-0.6-0.4
	C154.307,29.569,154.207,29.069,154.207,28.169 M153.707,28.169c0,1,0.1,1.7,0.4,2.1c0.2,0.3,0.6,0.5,1,0.5s0.8-0.2,1-0.6
	c0.2-0.5,0.4-1.1,0.4-2c0-0.9-0.2-1.6-0.5-2.1c-0.2-0.3-0.5-0.5-0.9-0.5c-0.5,0-0.8,0.2-1,0.7
	C153.807,26.669,153.707,27.369,153.707,28.169"/>
<path fill-rule="evenodd" clip-rule="evenodd" d="M142.907,19.069c0-1.2,0.1-1.9,0.3-2.3c0.3-0.4,0.5-0.7,0.9-0.7
	c0.3,0,0.6,0.2,0.8,0.6c0.3,0.4,0.4,1.2,0.4,2.4c0,1.2-0.1,1.9-0.4,2.3c-0.2,0.4-0.5,0.7-0.8,0.7s-0.6-0.2-0.9-0.6
	C143.007,21.069,142.907,20.269,142.907,19.069 M142.207,19.069c0,1.4,0.1,2.3,0.5,2.9c0.4,0.5,0.8,0.8,1.4,0.8s1.1-0.3,1.4-1
	c0.4-0.6,0.5-1.5,0.5-2.7c0-1.3-0.2-2.3-0.6-2.9c-0.3-0.5-0.7-0.8-1.3-0.8s-1.1,0.3-1.5,1
	C142.307,16.969,142.207,17.869,142.207,19.069"/>
<path fill-rule="evenodd" clip-rule="evenodd" d="M149.507,22.669v-7.3h-0.5c-0.1,0.3-0.3,0.7-0.6,1s-0.7,0.6-1.1,0.8v0.9
	c0.2-0.1,0.5-0.3,0.8-0.5s0.5-0.4,0.7-0.6v5.7H149.507"/>
<text transform="matrix(1 0 0 1 0 6.856)" fill="#1D1D1B" font-family="'Helvetica'" font-size="8">SECTION</text>
<text transform="matrix(1 0 0 1 15.603 22.2109)" fill="#CD1719" font-family="'Helvetica'" font-size="9">Detail number</text>
<text transform="matrix(1 0 0 1 15.603 45.9512)" fill="#CD1719" font-family="'Helvetica'" font-size="9">Drawing number</text>
<line fill="none" stroke="#CD1719" stroke-width="0.75" stroke-linecap="round" stroke-linejoin="round" stroke-dasharray="0,2.232" x1="88.367" y1="43.505" x2="140.816" y2="43.505"/>
<line fill="none" stroke="#CD1719" stroke-width="0.75" stroke-linecap="round" stroke-linejoin="round" stroke-dasharray="0,2.303" x1="141.932" y1="41.202" x2="141.932" y2="35.444"/>
<path fill="none" stroke="#CD1719" stroke-width="0.75" stroke-linecap="round" stroke-linejoin="round" d="M141.932,34.292
	L141.932,34.292 M141.932,43.505L141.932,43.505 M86.135,43.505L86.135,43.505"/>
<line fill="none" stroke="#CD1719" stroke-width="0.75" stroke-linecap="round" stroke-linejoin="round" stroke-dasharray="0,2.218" x1="77.723" y1="19.198" x2="136.489" y2="19.198"/>
<path fill="none" stroke="#CD1719" stroke-width="0.75" stroke-linecap="round" stroke-linejoin="round" d="M137.597,19.198
	L137.597,19.198 M75.505,19.198L75.505,19.198"/>
</svg>
