<?xml version="1.0" encoding="utf-8"?>
<svg version="1.1" width="100%" xmlns="http://www.w3.org/2000/svg" xmlns:xlink="http://www.w3.org/1999/xlink" x="0px" y="0px"
	 viewBox="0 0 612 369.6" enable-background="new 0 0 612 369.6" xml:space="preserve">
<path fill="#FFFFFF" d="M591.2,90.9c0-13.7-5.6-26.7-14.8-36c-9.6-9.6-22.6-15.2-36.4-15.2c-13.4,0-26.4,5.6-36,15.2
	c-9.3,9.3-14.8,22.3-14.8,36c0,13.4,5.6,26.4,14.8,36c9.6,9.3,22.6,14.8,36,14.8c13.7,0,26.7-5.6,36.4-14.8
	C585.6,117.3,591.2,104.3,591.2,90.9"/>
<path fill="none" stroke="#000000" stroke-width="0.48" stroke-linejoin="round" stroke-miterlimit="1.414" d="M591.2,90.9
	c0-13.7-5.6-26.7-14.8-36c-9.6-9.6-22.6-15.2-36.4-15.2c-13.4,0-26.4,5.6-36,15.2c-9.3,9.3-14.8,22.3-14.8,36
	c0,13.4,5.6,26.4,14.8,36c9.6,9.3,22.6,14.8,36,14.8c13.7,0,26.7-5.6,36.4-14.8C585.6,117.3,591.2,104.3,591.2,90.9"/>
<line fill="none" stroke="#000000" stroke-width="0.48" stroke-linejoin="round" stroke-miterlimit="1.414" x1="540.7" y1="294.3" x2="540.7" y2="369.6"/>
<polyline points="540.7,369.6 540.7,361.1 597.9,361.1 597.9,369.6 "/>
<line fill="none" stroke="#000000" stroke-width="0.48" stroke-linejoin="round" stroke-miterlimit="1.414" x1="540" y1="141.8" x2="540" y2="216.7"/>
<path d="M540,39.7V17.8l72,73.1l-72,72.7v-21.9c6.3,0,12.6-1.1,18.9-3.7c6.3-2.2,12.2-6.3,17.4-11.1c4.8-5.2,8.5-11.1,11.1-17.4
	c2.6-6.3,3.7-12.6,3.7-18.6c0-6.3-1.1-12.6-3.7-18.9c-2.6-6.3-6.3-12.2-11.1-17.1c-5.2-5.2-11.1-8.9-17.4-11.5
	C552.6,40.8,546.3,39.7,540,39.7"/>
<line fill="none" stroke="#000000" stroke-width="0.48" stroke-linejoin="round" stroke-miterlimit="1.414" x1="591.2" y1="90.9" x2="489.2" y2="90.9"/>
<path d="M501.8,111.7V97.2h3.3c1.1,0,1.9,0.4,2.6,0.4c0.7,0.4,1.5,1.1,1.9,2.2c0.7,1.1,0.7,2.6,0.7,4.5c0,1.9,0,3.7-0.7,4.8
	c-0.4,1.1-0.7,1.5-1.5,2.2c-0.7,0.4-1.9,0.4-3,0.4L501.8,111.7 M499.5,114.3h5.6c1.9,0,3-0.4,4.1-1.1c0.7-0.7,1.9-1.9,2.2-3.3
	c0.7-1.5,1.1-3.3,1.1-5.2c0-1.9-0.4-3.3-0.7-4.5c-0.4-1.5-0.7-2.2-1.5-3c-0.7-1.1-1.5-1.5-2.2-1.9c-0.7-0.4-1.9-0.4-3-0.4h-5.6
	L499.5,114.3"/>
<rect x="514.4" y="106.1" width="5.9" height="2.2"/>
<path d="M521.1,114.3h2.6l3.7-6.7c0.4-0.4,0.4-0.7,0.7-1.5c0.4,0.4,0.7,0.7,0.7,1.1l4.1,7.1h2.6l-5.9-10.4l5.6-8.9h-2.2l-3.3,5.2
	c-0.4,0.7-0.7,1.5-1.1,2.2c-0.4-0.7-0.7-1.5-1.5-2.6l-2.6-4.8h-2.6l5.2,9.3L521.1,114.3"/>
<path d="M535.5,114.3h2.6l4.1-6.7c0-0.4,0.4-0.7,0.7-1.5c0,0.4,0.4,0.7,0.4,1.1l4.1,7.1h2.6l-5.9-10.4l5.6-8.9h-2.2l-3.3,5.2
	c-0.4,0.7-0.7,1.5-1.1,2.2c-0.4-0.7-0.7-1.5-1.1-2.6l-3-4.8h-2.6l5.6,9.3L535.5,114.3"/>
<rect x="550.8" y="106.1" width="5.9" height="2.2"/>
<path d="M565.6,114.3V95h-1.5c0,0.7-0.7,1.5-1.5,2.6c-0.7,0.7-1.9,1.5-3,2.2v2.2c0.7-0.4,1.5-0.7,2.2-1.1c0.7-0.7,1.1-1.1,1.9-1.9
	v15.2L565.6,114.3"/>
<path d="M572.3,104.7c0-3,0.4-5.2,1.1-6.3c0.4-0.7,1.1-1.5,2.2-1.5c0.7,0,1.5,0.7,2.2,1.5c0.4,1.1,0.7,3.3,0.7,6.3
	c0,3-0.4,5.2-0.7,6.3c-0.7,1.1-1.5,1.5-2.2,1.5c-1.1,0-1.9-0.4-2.2-1.5C572.7,109.9,572.3,108,572.3,104.7 M570.4,104.7
	c0,3.7,0.4,6.3,1.5,7.8c0.7,1.1,2.2,1.9,3.7,1.9c1.5,0,3-0.7,3.7-2.2c0.7-1.9,1.5-4.1,1.5-7.4c0-3.3-0.7-5.9-1.9-7.8
	c-0.7-1.1-1.9-1.9-3.3-1.9c-1.9,0-3,0.7-3.7,2.6C570.8,99.1,570.4,101.7,570.4,104.7"/>
<path d="M530.4,70.9c0-4.5,0.4-7.1,1.1-8.5c1.1-1.5,1.9-2.6,3.3-2.6c1.1,0,2.2,0.7,3,2.2c1.1,1.5,1.5,4.5,1.5,8.9
	c0,4.5-0.4,7.1-1.5,8.5c-0.7,1.5-1.9,2.6-3,2.6s-2.2-0.7-3.3-2.2C530.7,78.3,530.4,75.3,530.4,70.9 M527.8,70.9
	c0,5.2,0.4,8.5,1.9,10.8c1.5,1.9,3,3,5.2,3c2.2,0,4.1-1.1,5.2-3.7c1.5-2.2,1.9-5.6,1.9-10c0-4.8-0.7-8.5-2.2-10.8
	c-1.1-1.9-2.6-3-4.8-3c-2.2,0-4.1,1.1-5.6,3.7C528.1,63.1,527.8,66.4,527.8,70.9"/>
<path d="M554.8,84.2V57.2H553c-0.4,1.1-1.1,2.6-2.2,3.7s-2.6,2.2-4.1,3v3.3c0.7-0.4,1.9-1.1,3-1.9s1.9-1.5,2.6-2.2v21.2H554.8"/>
<text transform="matrix(1 0 0 1 -6.384100e-004 25.4452)" fill="#1D1D1B" font-family="'Helvetica'" font-size="29.6907">SECTION</text>
<text transform="matrix(1 0 0 1 57.9076 82.4303)" fill="#CD1719" font-family="'Helvetica'" font-size="33.4021">Detail number</text>
<text transform="matrix(1 0 0 1 57.9076 170.541)" fill="#CD1719" font-family="'Helvetica'" font-size="33.4021">Drawing number</text>
<line fill="none" stroke="#CD1719" stroke-width="0.75" stroke-linecap="round" stroke-linejoin="round" stroke-dasharray="0,2.232" x1="328.1" y1="161.4" x2="522.6" y2="161.4"/>
<line fill="none" stroke="#CD1719" stroke-width="0.75" stroke-linecap="round" stroke-linejoin="round" stroke-dasharray="0,2.303" x1="526.6" y1="152.9" x2="526.6" y2="131.4"/>
<path fill="none" stroke="#CD1719" stroke-width="0.75" stroke-linecap="round" stroke-linejoin="round" d="M526.6,127.3
	L526.6,127.3 M526.6,161.4L526.6,161.4 M319.5,161.4L319.5,161.4"/>
<line fill="none" stroke="#CD1719" stroke-width="0.75" stroke-linecap="round" stroke-linejoin="round" stroke-dasharray="0,2.218" x1="288.4" y1="71.3" x2="506.6" y2="71.3"/>
<path fill="none" stroke="#CD1719" stroke-width="0.75" stroke-linecap="round" stroke-linejoin="round" d="M510.7,71.3L510.7,71.3
	 M280.2,71.3L280.2,71.3"/>
</svg>
