<svg version="1.1" id="Layer_1" xmlns="http://www.w3.org/2000/svg" xmlns:xlink="http://www.w3.org/1999/xlink" x="0px" y="0px"
	 viewBox="0 0 270 114.671" enable-background="new 0 0 270 114.671" xml:space="preserve">
<path fill-rule="evenodd" clip-rule="evenodd" fill="#ffffff" d="M162.129,95.071c0-3.7-1.5-7.2-4-9.7c-2.6-2.6-6.1-4.1-9.8-4.1
	c-3.6,0-7.1,1.5-9.7,4.1c-2.5,2.5-4,6-4,9.7c0,3.6,1.5,7.1,4,9.7c2.6,2.5,6.1,4,9.7,4c3.7,0,7.2-1.5,9.8-4
	C160.629,102.171,162.129,98.671,162.129,95.071"/>
<path fill="none" stroke="#000000" stroke-width="0.48" stroke-linejoin="round" stroke-miterlimit="1.414" d="M162.129,95.071
	c0-3.7-1.5-7.2-4-9.7c-2.6-2.6-6.1-4.1-9.8-4.1c-3.6,0-7.1,1.5-9.7,4.1c-2.5,2.5-4,6-4,9.7c0,3.6,1.5,7.1,4,9.7c2.6,2.5,6.1,4,9.7,4
	c3.7,0,7.2-1.5,9.8-4C160.629,102.171,162.129,98.671,162.129,95.071"/>
<path fill-rule="evenodd" clip-rule="evenodd" fill="#ffffff" d="M162.129,30.471c0-3.6-1.5-7.1-4-9.7c-2.6-2.6-6.1-4-9.8-4
	c-3.6,0-7.1,1.4-9.7,4c-2.5,2.6-4,6.1-4,9.7c0,3.6,1.5,7.1,4,9.7c2.6,2.6,6.1,4,9.7,4c3.7,0,7.2-1.4,9.8-4
	C160.629,37.571,162.129,34.071,162.129,30.471"/>
<path fill="none" stroke="#000000" stroke-width="0.48" stroke-linejoin="round" stroke-miterlimit="1.414" d="M162.129,30.471
	c0-3.6-1.5-7.1-4-9.7c-2.6-2.6-6.1-4-9.8-4c-3.6,0-7.1,1.4-9.7,4c-2.5,2.6-4,6.1-4,9.7c0,3.6,1.5,7.1,4,9.7c2.6,2.6,6.1,4,9.7,4
	c3.7,0,7.2-1.4,9.8-4C160.629,37.571,162.129,34.071,162.129,30.471"/>
<line fill="none" stroke="#000000" stroke-width="0.48" stroke-linejoin="round" stroke-miterlimit="1.414" x1="162.129" y1="95.071" x2="134.629" y2="95.071"/>
<path fill-rule="evenodd" clip-rule="evenodd" d="M148.329,108.771v5.9l19.4-19.6l-19.4-19.7v5.9c1.7,0,3.4,0.3,5.1,1
	c1.7,0.7,3.3,1.7,4.7,3.1c1.3,1.3,2.3,2.9,3,4.6c0.7,1.7,1,3.4,1,5.1c0,1.6-0.3,3.3-1,5c-0.7,1.7-1.7,3.3-3,4.7
	c-1.4,1.3-3,2.4-4.7,3C151.729,108.471,150.029,108.771,148.329,108.771"/>
<line fill="none" stroke="#000000" stroke-width="0.48" stroke-linejoin="round" stroke-miterlimit="1.414" x1="162.129" y1="30.471" x2="134.629" y2="30.471"/>
<path fill-rule="evenodd" clip-rule="evenodd" d="M148.329,44.171v6l19.4-19.7l-19.4-19.7v6c1.7,0,3.4,0.3,5.1,0.9
	c1.7,0.7,3.3,1.7,4.7,3.1c1.3,1.3,2.3,2.9,3,4.6c0.7,1.8,1,3.5,1,5.1s-0.3,3.4-1,5.1c-0.7,1.7-1.7,3.3-3,4.6c-1.4,1.4-3,2.4-4.7,3.1
	C151.729,43.871,150.029,44.171,148.329,44.171"/>
<rect x="147.329" y="99.171" width="1.6" height="0.6"/>
<path fill-rule="evenodd" clip-rule="evenodd" d="M145.529,89.671c0-1.2,0.2-1.9,0.4-2.3s0.5-0.6,0.8-0.6c0.4,0,0.6,0.2,0.9,0.5
	c0.2,0.4,0.3,1.2,0.3,2.4c0,1.2-0.1,1.9-0.3,2.4c-0.3,0.4-0.5,0.6-0.9,0.6c-0.3,0-0.6-0.2-0.8-0.6
	C145.729,91.671,145.529,90.871,145.529,89.671 M144.829,89.671c0,1.4,0.2,2.3,0.5,2.9c0.4,0.5,0.9,0.8,1.4,0.8c0.7,0,1.1-0.3,1.5-1
	c0.3-0.6,0.5-1.5,0.5-2.7c0-1.3-0.2-2.3-0.6-2.9c-0.4-0.5-0.8-0.8-1.4-0.8s-1.1,0.3-1.4,1
	C145.029,87.571,144.829,88.471,144.829,89.671"/>
<path fill-rule="evenodd" clip-rule="evenodd" d="M152.129,93.271v-7.3h-0.5c-0.1,0.3-0.3,0.7-0.6,1s-0.7,0.6-1.1,0.8v0.9
	c0.3-0.1,0.5-0.3,0.8-0.5c0.3-0.2,0.5-0.4,0.7-0.6v5.7H152.129"/>
<path fill-rule="evenodd" clip-rule="evenodd" d="M140.829,34.971c-0.1,0.4-0.2,0.8-0.4,1c-0.2,0.2-0.5,0.3-0.8,0.3
	c-0.4,0-0.8-0.2-1-0.5c-0.3-0.4-0.4-0.9-0.4-1.6c0-0.5,0.1-0.9,0.2-1.2c0.1-0.3,0.3-0.5,0.5-0.6c0.2-0.2,0.5-0.3,0.7-0.3
	c0.6,0,1,0.4,1.2,1.1l0.5-0.2c-0.1-0.4-0.3-0.8-0.6-1.1c-0.3-0.2-0.6-0.3-1.1-0.3c-0.3,0-0.7,0.1-1,0.3c-0.3,0.2-0.5,0.5-0.7,0.8
	c-0.2,0.4-0.2,0.9-0.2,1.5s0,1.1,0.2,1.5s0.4,0.7,0.7,0.9c0.3,0.2,0.6,0.3,1,0.3c0.4,0,0.8-0.2,1.1-0.4c0.3-0.3,0.6-0.8,0.7-1.3
	L140.829,34.971"/>
<rect x="141.829" y="34.57" fill-rule="evenodd" clip-rule="evenodd" width="1.6" height="0.6"/>
<path fill-rule="evenodd" clip-rule="evenodd" d="M143.629,36.771h0.7l1-1.8c0.1-0.1,0.1-0.2,0.2-0.4c0.1,0.1,0.2,0.3,0.2,0.4
	l1.1,1.8h0.7l-1.6-2.7l1.5-2.5h-0.6l-0.9,1.4c-0.1,0.2-0.2,0.4-0.3,0.6c-0.1-0.2-0.2-0.4-0.4-0.6l-0.7-1.4h-0.7l1.4,2.5
	L143.629,36.771"/>
<path fill-rule="evenodd" clip-rule="evenodd" d="M147.529,36.771h0.7l1.1-1.8c0-0.1,0.1-0.2,0.2-0.4c0,0.1,0.1,0.3,0.1,0.4l1.1,1.8
	h0.7l-1.6-2.7l1.5-2.5h-0.6l-0.9,1.4c-0.1,0.2-0.2,0.4-0.3,0.6c-0.1-0.2-0.2-0.4-0.3-0.6l-0.8-1.4h-0.7l1.5,2.5L147.529,36.771"/>
<rect x="151.629" y="34.57" fill-rule="evenodd" clip-rule="evenodd" width="1.6" height="0.6"/>
<path fill-rule="evenodd" clip-rule="evenodd" d="M154.229,34.271c0-0.9,0-1.4,0.2-1.7c0.2-0.3,0.4-0.5,0.6-0.5s0.4,0.2,0.6,0.5
	c0.2,0.3,0.2,0.8,0.2,1.7c0,0.8,0,1.3-0.2,1.6c-0.1,0.3-0.3,0.5-0.6,0.5c-0.2,0-0.4-0.2-0.6-0.5
	C154.229,35.571,154.229,35.071,154.229,34.271 M153.629,34.271c0,0.9,0.2,1.6,0.4,2c0.3,0.4,0.6,0.6,1,0.6c0.5,0,0.8-0.2,1-0.7
	c0.3-0.4,0.4-1.1,0.4-1.9c0-1-0.2-1.7-0.4-2.1c-0.3-0.4-0.6-0.6-1-0.6s-0.8,0.3-1,0.7C153.729,32.671,153.629,33.371,153.629,34.271
	"/>
<path fill-rule="evenodd" clip-rule="evenodd" d="M158.929,36.771v-5.2h-0.4c-0.1,0.3-0.2,0.5-0.4,0.7c-0.3,0.3-0.5,0.5-0.8,0.6v0.6
	c0.2,0,0.3-0.2,0.6-0.3c0.2-0.1,0.3-0.3,0.4-0.4v4H158.929"/>
<path fill-rule="evenodd" clip-rule="evenodd" d="M145.529,25.071c0-1.1,0.2-1.9,0.4-2.3c0.2-0.4,0.5-0.6,0.8-0.6
	c0.4,0,0.6,0.2,0.9,0.6c0.2,0.4,0.3,1.2,0.3,2.3c0,1.2-0.1,2-0.3,2.4c-0.3,0.4-0.5,0.6-0.9,0.6c-0.3,0-0.6-0.2-0.8-0.6
	C145.729,27.071,145.529,26.271,145.529,25.071 M144.829,25.071c0,1.4,0.2,2.3,0.5,2.9c0.4,0.5,0.9,0.8,1.4,0.8
	c0.7,0,1.1-0.3,1.5-0.9c0.3-0.6,0.5-1.6,0.5-2.8c0-1.3-0.2-2.3-0.6-2.9c-0.4-0.5-0.8-0.7-1.4-0.7s-1.1,0.3-1.4,0.9
	C145.029,22.971,144.829,23.871,144.829,25.071"/>
<path fill-rule="evenodd" clip-rule="evenodd" d="M152.129,28.671v-7.2h-0.5c-0.1,0.3-0.3,0.6-0.6,0.9c-0.3,0.4-0.7,0.6-1.1,0.9v0.8
	c0.3-0.1,0.5-0.2,0.8-0.4s0.5-0.4,0.7-0.6v5.6H152.129"/>
<text transform="matrix(1 0 0 1 0 6.856)"><tspan x="0" y="0" fill="#1d1d1b" font-family="'Helvetica'" font-size="8">ELE</tspan><tspan x="13.784" y="0" fill="#1d1d1b" font-family="'Helvetica'" font-size="8">V</tspan><tspan x="18.096" y="0" fill="#1d1d1b" font-family="'Helvetica'" font-size="8">A</tspan><tspan x="22.6" y="0" fill="#1d1d1b" font-family="'Helvetica'" font-size="8">TION</tspan></text>
<text transform="matrix(1 0 0 1 18.4253 27.5259)" fill="#cd1719" font-family="'Helvetica'" font-size="9">Detail number</text>
<text transform="matrix(1 0 0 1 18.4253 93.0063)" fill="#cd1719" font-family="'Helvetica'" font-size="9">Detail number</text>
<text transform="matrix(1 0 0 1 18.4253 103.7778)" fill="#cd1719" font-family="'Helvetica'" font-size="9">Same sheet</text>
<text transform="matrix(1 0 0 1 18.4253 51.6206)" fill="#cd1719" font-family="'Helvetica'" font-size="9">Drawing number</text>
<text transform="matrix(1 0 0 1 82.6035 51.6206)" fill="#cd1719" font-family="'Helvetica'" font-size="9"> </text>
<text transform="matrix(1 0 0 1 18.4253 62.2207)"><tspan x="0" y="0" fill="#cd1719" font-family="'Helvetica'" font-size="9">di</tspan><tspan x="6.831" y="0" fill="#cd1719" font-family="'Helvetica'" font-size="9">f</tspan><tspan x="9.009" y="0" fill="#cd1719" font-family="'Helvetica'" font-size="9">fe</tspan><tspan x="16.011" y="0" fill="#cd1719" font-family="'Helvetica'" font-size="9">r</tspan><tspan x="18.693" y="0" fill="#cd1719" font-family="'Helvetica'" font-size="9">ent sheet</tspan></text>
<line fill="none" stroke="#cd1719" stroke-width="0.75" stroke-linecap="round" stroke-linejoin="round" stroke-dasharray="0,2.232" x1="73.131" y1="99.703" x2="138.962" y2="99.703"/>
<path fill="none" stroke="#cd1719" stroke-width="0.75" stroke-linecap="round" stroke-linejoin="round" d="M140.078,99.703
	L140.078,99.703 M70.899,99.703L70.899,99.703"/>
<line fill="none" stroke="#cd1719" stroke-width="0.75" stroke-linecap="round" stroke-linejoin="round" stroke-dasharray="0,2.218" x1="80.204" y1="90.466" x2="138.97" y2="90.466"/>
<path fill="none" stroke="#cd1719" stroke-width="0.75" stroke-linecap="round" stroke-linejoin="round" d="M140.078,90.466
	L140.078,90.466 M77.986,90.466L77.986,90.466"/>
<line fill="none" stroke="#cd1719" stroke-width="0.75" stroke-linecap="round" stroke-linejoin="round" stroke-dasharray="0,2.232" x1="91.662" y1="49.955" x2="144.111" y2="49.955"/>
<line fill="none" stroke="#cd1719" stroke-width="0.75" stroke-linecap="round" stroke-linejoin="round" stroke-dasharray="0,2.303" x1="145.226" y1="47.651" x2="145.226" y2="41.893"/>
<path fill="none" stroke="#cd1719" stroke-width="0.75" stroke-linecap="round" stroke-linejoin="round" d="M145.226,40.742
	L145.226,40.742 M145.226,49.955L145.226,49.955 M89.43,49.955L89.43,49.955"/>
<line fill="none" stroke="#cd1719" stroke-width="0.75" stroke-linecap="round" stroke-linejoin="round" stroke-dasharray="0,2.218" x1="81.207" y1="24.726" x2="139.973" y2="24.726"/>
<path fill="none" stroke="#cd1719" stroke-width="0.75" stroke-linecap="round" stroke-linejoin="round" d="M141.081,24.726
	L141.081,24.726 M78.989,24.726L78.989,24.726"/>
</svg>
