<?xml version="1.0" encoding="utf-8"?>
<!-- Generator: Adobe Illustrator 18.1.1, SVG Export Plug-In . SVG Version: 6.00 Build 0)  -->
<svg version="1.1" id="Layer_1" xmlns="http://www.w3.org/2000/svg" xmlns:xlink="http://www.w3.org/1999/xlink" x="0px" y="0px"
	 viewBox="0 0 167.7 114.7" enable-background="new 0 0 167.7 114.7" xml:space="preserve">
<path fill-rule="evenodd" clip-rule="evenodd" fill="#FFFFFF" d="M162.1,95.1c0-3.7-1.5-7.2-4-9.7c-2.6-2.6-6.1-4.1-9.8-4.1
	c-3.6,0-7.1,1.5-9.7,4.1c-2.5,2.5-4,6-4,9.7c0,3.6,1.5,7.1,4,9.7c2.6,2.5,6.1,4,9.7,4c3.7,0,7.2-1.5,9.8-4
	C160.6,102.2,162.1,98.7,162.1,95.1"/>
<path fill="none" stroke="#000000" stroke-width="0.48" stroke-linejoin="round" stroke-miterlimit="1.414" d="M162.1,95.1
	c0-3.7-1.5-7.2-4-9.7c-2.6-2.6-6.1-4.1-9.8-4.1c-3.6,0-7.1,1.5-9.7,4.1c-2.5,2.5-4,6-4,9.7c0,3.6,1.5,7.1,4,9.7c2.6,2.5,6.1,4,9.7,4
	c3.7,0,7.2-1.5,9.8-4C160.6,102.2,162.1,98.7,162.1,95.1"/>
<path fill-rule="evenodd" clip-rule="evenodd" fill="#FFFFFF" d="M162.1,30.5c0-3.6-1.5-7.1-4-9.7c-2.6-2.6-6.1-4-9.8-4
	c-3.6,0-7.1,1.4-9.7,4c-2.5,2.6-4,6.1-4,9.7c0,3.6,1.5,7.1,4,9.7c2.6,2.6,6.1,4,9.7,4c3.7,0,7.2-1.4,9.8-4
	C160.6,37.6,162.1,34.1,162.1,30.5"/>
<path fill="none" stroke="#000000" stroke-width="0.48" stroke-linejoin="round" stroke-miterlimit="1.414" d="M162.1,30.5
	c0-3.6-1.5-7.1-4-9.7c-2.6-2.6-6.1-4-9.8-4c-3.6,0-7.1,1.4-9.7,4c-2.5,2.6-4,6.1-4,9.7c0,3.6,1.5,7.1,4,9.7c2.6,2.6,6.1,4,9.7,4
	c3.7,0,7.2-1.4,9.8-4C160.6,37.6,162.1,34.1,162.1,30.5"/>
<line fill="none" stroke="#000000" stroke-width="0.48" stroke-linejoin="round" stroke-miterlimit="1.414" x1="162.1" y1="95.1" x2="134.6" y2="95.1"/>
<path fill-rule="evenodd" clip-rule="evenodd" d="M148.3,108.8v5.9l19.4-19.6l-19.4-19.7v5.9c1.7,0,3.4,0.3,5.1,1
	c1.7,0.7,3.3,1.7,4.7,3.1c1.3,1.3,2.3,2.9,3,4.6c0.7,1.7,1,3.4,1,5.1c0,1.6-0.3,3.3-1,5c-0.7,1.7-1.7,3.3-3,4.7
	c-1.4,1.3-3,2.4-4.7,3C151.7,108.5,150,108.8,148.3,108.8"/>
<line fill="none" stroke="#000000" stroke-width="0.48" stroke-linejoin="round" stroke-miterlimit="1.414" x1="162.1" y1="30.5" x2="134.6" y2="30.5"/>
<path fill-rule="evenodd" clip-rule="evenodd" d="M148.3,44.2v6l19.4-19.7l-19.4-19.7v6c1.7,0,3.4,0.3,5.1,0.9
	c1.7,0.7,3.3,1.7,4.7,3.1c1.3,1.3,2.3,2.9,3,4.6c0.7,1.8,1,3.5,1,5.1s-0.3,3.4-1,5.1c-0.7,1.7-1.7,3.3-3,4.6c-1.4,1.4-3,2.4-4.7,3.1
	C151.7,43.9,150,44.2,148.3,44.2"/>
<rect x="147.3" y="99.2" width="1.6" height="0.6"/>
<g>
	<path fill-rule="evenodd" clip-rule="evenodd" d="M145.5,89.7c0-1.2,0.2-1.9,0.4-2.3s0.5-0.6,0.8-0.6c0.4,0,0.6,0.2,0.9,0.5
		c0.2,0.4,0.3,1.2,0.3,2.4c0,1.2-0.1,1.9-0.3,2.4c-0.3,0.4-0.5,0.6-0.9,0.6c-0.3,0-0.6-0.2-0.8-0.6
		C145.7,91.7,145.5,90.9,145.5,89.7 M144.8,89.7c0,1.4,0.2,2.3,0.5,2.9c0.4,0.5,0.9,0.8,1.4,0.8c0.7,0,1.1-0.3,1.5-1
		c0.3-0.6,0.5-1.5,0.5-2.7c0-1.3-0.2-2.3-0.6-2.9c-0.4-0.5-0.8-0.8-1.4-0.8s-1.1,0.3-1.4,1C145,87.6,144.8,88.5,144.8,89.7"/>
	<path fill-rule="evenodd" clip-rule="evenodd" d="M152.1,93.3V86h-0.5c-0.1,0.3-0.3,0.7-0.6,1s-0.7,0.6-1.1,0.8v0.9
		c0.3-0.1,0.5-0.3,0.8-0.5c0.3-0.2,0.5-0.4,0.7-0.6v5.7H152.1"/>
</g>
<path fill-rule="evenodd" clip-rule="evenodd" d="M140.8,35c-0.1,0.4-0.2,0.8-0.4,1c-0.2,0.2-0.5,0.3-0.8,0.3c-0.4,0-0.8-0.2-1-0.5
	c-0.3-0.4-0.4-0.9-0.4-1.6c0-0.5,0.1-0.9,0.2-1.2c0.1-0.3,0.3-0.5,0.5-0.6c0.2-0.2,0.5-0.3,0.7-0.3c0.6,0,1,0.4,1.2,1.1l0.5-0.2
	c-0.1-0.4-0.3-0.8-0.6-1.1c-0.3-0.2-0.6-0.3-1.1-0.3c-0.3,0-0.7,0.1-1,0.3c-0.3,0.2-0.5,0.5-0.7,0.8c-0.2,0.4-0.2,0.9-0.2,1.5
	s0,1.1,0.2,1.5s0.4,0.7,0.7,0.9c0.3,0.2,0.6,0.3,1,0.3c0.4,0,0.8-0.2,1.1-0.4c0.3-0.3,0.6-0.8,0.7-1.3L140.8,35"/>
<rect x="141.8" y="34.6" fill-rule="evenodd" clip-rule="evenodd" width="1.6" height="0.6"/>
<path fill-rule="evenodd" clip-rule="evenodd" d="M143.6,36.8h0.7l1-1.8c0.1-0.1,0.1-0.2,0.2-0.4c0.1,0.1,0.2,0.3,0.2,0.4l1.1,1.8
	h0.7l-1.6-2.7l1.5-2.5h-0.6l-0.9,1.4c-0.1,0.2-0.2,0.4-0.3,0.6c-0.1-0.2-0.2-0.4-0.4-0.6l-0.7-1.4h-0.7l1.4,2.5L143.6,36.8"/>
<path fill-rule="evenodd" clip-rule="evenodd" d="M147.5,36.8h0.7l1.1-1.8c0-0.1,0.1-0.2,0.2-0.4c0,0.1,0.1,0.3,0.1,0.4l1.1,1.8h0.7
	l-1.6-2.7l1.5-2.5h-0.6l-0.9,1.4c-0.1,0.2-0.2,0.4-0.3,0.6c-0.1-0.2-0.2-0.4-0.3-0.6l-0.8-1.4h-0.7l1.5,2.5L147.5,36.8"/>
<rect x="151.6" y="34.6" fill-rule="evenodd" clip-rule="evenodd" width="1.6" height="0.6"/>
<path fill-rule="evenodd" clip-rule="evenodd" d="M154.2,34.3c0-0.9,0-1.4,0.2-1.7c0.2-0.3,0.4-0.5,0.6-0.5s0.4,0.2,0.6,0.5
	c0.2,0.3,0.2,0.8,0.2,1.7c0,0.8,0,1.3-0.2,1.6c-0.1,0.3-0.3,0.5-0.6,0.5c-0.2,0-0.4-0.2-0.6-0.5C154.2,35.6,154.2,35.1,154.2,34.3
	 M153.6,34.3c0,0.9,0.2,1.6,0.4,2c0.3,0.4,0.6,0.6,1,0.6c0.5,0,0.8-0.2,1-0.7c0.3-0.4,0.4-1.1,0.4-1.9c0-1-0.2-1.7-0.4-2.1
	c-0.3-0.4-0.6-0.6-1-0.6s-0.8,0.3-1,0.7C153.7,32.7,153.6,33.4,153.6,34.3"/>
<path fill-rule="evenodd" clip-rule="evenodd" d="M158.9,36.8v-5.2h-0.4c-0.1,0.3-0.2,0.5-0.4,0.7c-0.3,0.3-0.5,0.5-0.8,0.6v0.6
	c0.2,0,0.3-0.2,0.6-0.3c0.2-0.1,0.3-0.3,0.4-0.4v4H158.9"/>
<path fill-rule="evenodd" clip-rule="evenodd" d="M145.5,25.1c0-1.1,0.2-1.9,0.4-2.3c0.2-0.4,0.5-0.6,0.8-0.6c0.4,0,0.6,0.2,0.9,0.6
	c0.2,0.4,0.3,1.2,0.3,2.3c0,1.2-0.1,2-0.3,2.4c-0.3,0.4-0.5,0.6-0.9,0.6c-0.3,0-0.6-0.2-0.8-0.6C145.7,27.1,145.5,26.3,145.5,25.1
	 M144.8,25.1c0,1.4,0.2,2.3,0.5,2.9c0.4,0.5,0.9,0.8,1.4,0.8c0.7,0,1.1-0.3,1.5-0.9c0.3-0.6,0.5-1.6,0.5-2.8c0-1.3-0.2-2.3-0.6-2.9
	c-0.4-0.5-0.8-0.7-1.4-0.7s-1.1,0.3-1.4,0.9C145,23,144.8,23.9,144.8,25.1"/>
<path fill-rule="evenodd" clip-rule="evenodd" d="M152.1,28.7v-7.2h-0.5c-0.1,0.3-0.3,0.6-0.6,0.9c-0.3,0.4-0.7,0.6-1.1,0.9v0.8
	c0.3-0.1,0.5-0.2,0.8-0.4s0.5-0.4,0.7-0.6v5.6H152.1"/>
<text transform="matrix(1 0 0 1 0 6.856)"><tspan x="0" y="0" fill="#1D1D1B" font-family="'Helvetica'" font-size="8">ELE</tspan><tspan x="13.8" y="0" fill="#1D1D1B" font-family="'Helvetica'" font-size="8">V</tspan><tspan x="18.1" y="0" fill="#1D1D1B" font-family="'Helvetica'" font-size="8">A</tspan><tspan x="22.6" y="0" fill="#1D1D1B" font-family="'Helvetica'" font-size="8">TION</tspan></text>
<text transform="matrix(1 0 0 1 18.4253 27.5259)" fill="#CD1719" font-family="'Helvetica'" font-size="9">Detail number</text>
<text transform="matrix(1 0 0 1 18.4253 93.0063)" fill="#CD1719" font-family="'Helvetica'" font-size="9">Detail number</text>
<text transform="matrix(1 0 0 1 18.4253 103.7778)" fill="#CD1719" font-family="'Helvetica'" font-size="9">Same sheet</text>
<text transform="matrix(1 0 0 1 18.4253 51.6206)" fill="#CD1719" font-family="'Helvetica'" font-size="9">Drawing number</text>
<text transform="matrix(1 0 0 1 82.6035 51.6206)" fill="#CD1719" font-family="'Helvetica'" font-size="9"> </text>
<text transform="matrix(1 0 0 1 18.4253 62.2207)"><tspan x="0" y="0" fill="#CD1719" font-family="'Helvetica'" font-size="9">di</tspan><tspan x="6.8" y="0" fill="#CD1719" font-family="'Helvetica'" font-size="9">f</tspan><tspan x="9" y="0" fill="#CD1719" font-family="'Helvetica'" font-size="9">fe</tspan><tspan x="16" y="0" fill="#CD1719" font-family="'Helvetica'" font-size="9">r</tspan><tspan x="18.7" y="0" fill="#CD1719" font-family="'Helvetica'" font-size="9">ent sheet</tspan></text>
<line fill="none" stroke="#CD1719" stroke-width="0.75" stroke-linecap="round" stroke-linejoin="round" stroke-dasharray="0,2.232" x1="73.1" y1="99.7" x2="139" y2="99.7"/>
<path fill="none" stroke="#CD1719" stroke-width="0.75" stroke-linecap="round" stroke-linejoin="round" d="M140.1,99.7L140.1,99.7
	 M70.9,99.7L70.9,99.7"/>
<line fill="none" stroke="#CD1719" stroke-width="0.75" stroke-linecap="round" stroke-linejoin="round" stroke-dasharray="0,2.218" x1="80.2" y1="90.5" x2="139" y2="90.5"/>
<path fill="none" stroke="#CD1719" stroke-width="0.75" stroke-linecap="round" stroke-linejoin="round" d="M140.1,90.5L140.1,90.5
	 M78,90.5L78,90.5"/>
<line fill="none" stroke="#CD1719" stroke-width="0.75" stroke-linecap="round" stroke-linejoin="round" stroke-dasharray="0,2.232" x1="91.7" y1="50" x2="144.1" y2="50"/>
<line fill="none" stroke="#CD1719" stroke-width="0.75" stroke-linecap="round" stroke-linejoin="round" stroke-dasharray="0,2.303" x1="145.2" y1="47.7" x2="145.2" y2="41.9"/>
<path fill="none" stroke="#CD1719" stroke-width="0.75" stroke-linecap="round" stroke-linejoin="round" d="M145.2,40.7L145.2,40.7
	 M145.2,50L145.2,50 M89.4,50L89.4,50"/>
<line fill="none" stroke="#CD1719" stroke-width="0.75" stroke-linecap="round" stroke-linejoin="round" stroke-dasharray="0,2.218" x1="81.2" y1="24.7" x2="140" y2="24.7"/>
<path fill="none" stroke="#CD1719" stroke-width="0.75" stroke-linecap="round" stroke-linejoin="round" d="M141.1,24.7L141.1,24.7
	 M79,24.7L79,24.7"/>
</svg>
