<svg version="1.1" id="Layer_1" xmlns="http://www.w3.org/2000/svg" xmlns:xlink="http://www.w3.org/1999/xlink" x="0px" y="0px"
	 viewBox="0 0 270 118.829" enable-background="new 0 0 270 118.829" xml:space="preserve">
<path fill="none" stroke="#000000" stroke-width="0.72" stroke-linejoin="round" stroke-miterlimit="1.414" stroke-dasharray="4.92,3" d="
	M113.729,54.829v53.9c0,2.7,1.1,5.3,3,7.2c1.9,1.8,4.4,2.9,7.1,2.9h26.6c2.7,0,5.2-1.1,7.1-2.9c1.9-1.9,3-4.5,3-7.2v-53.9
	c0-2.6-1.1-5.2-3-7.1c-1.9-1.9-4.4-2.9-7.1-2.9h-26.6c-2.7,0-5.2,1-7.1,2.9C114.829,49.629,113.729,52.229,113.729,54.829"/>
<polyline fill="none" stroke="#000000" stroke-width="0.48" stroke-linejoin="round" stroke-miterlimit="1.414" points="
	157.529,47.729 169.629,35.729 176.129,35.729 "/>
<path fill-rule="evenodd" clip-rule="evenodd" fill="#ffffff" d="M203.629,35.729c0-3.7-1.5-7.2-4.1-9.7c-2.5-2.6-6-4.1-9.7-4.1
	c-3.6,0-7.1,1.5-9.7,4.1c-2.6,2.5-4,6-4,9.7c0,3.6,1.4,7.1,4,9.7c2.6,2.6,6.1,4,9.7,4c3.7,0,7.2-1.4,9.7-4
	C202.129,42.829,203.629,39.329,203.629,35.729"/>
<path fill="none" stroke="#000000" stroke-width="0.48" stroke-linejoin="round" stroke-miterlimit="1.414" d="M203.629,35.729
	c0-3.7-1.5-7.2-4.1-9.7c-2.5-2.6-6-4.1-9.7-4.1c-3.6,0-7.1,1.5-9.7,4.1c-2.6,2.5-4,6-4,9.7c0,3.6,1.4,7.1,4,9.7c2.6,2.6,6.1,4,9.7,4
	c3.7,0,7.2-1.4,9.7-4C202.129,42.829,203.629,39.329,203.629,35.729"/>
<line fill="none" stroke="#000000" stroke-width="0.48" stroke-linejoin="round" stroke-miterlimit="1.414" x1="176.129" y1="35.729" x2="203.629" y2="35.729"/>
<line fill="none" stroke="#000000" stroke-width="0.48" stroke-linejoin="round" stroke-miterlimit="1.414" x1="184.129" y1="35.729" x2="184.129" y2="35.729"/>
<line fill="none" stroke="#000000" stroke-width="0.48" stroke-linejoin="round" stroke-miterlimit="1.414" x1="184.129" y1="35.729" x2="184.129" y2="35.729"/>
<path fill-rule="evenodd" clip-rule="evenodd" d="M181.229,40.629l-0.1,0.4c0.2,0.1,0.4,0.2,0.5,0.3c-0.1,0.1-0.3,0.2-0.5,0.2
	c-0.4,0-0.8-0.2-1.1-0.5c-0.2-0.4-0.4-0.9-0.4-1.6c0-0.7,0.2-1.2,0.4-1.6c0.3-0.3,0.7-0.5,1.1-0.5c0.2,0,0.5,0.1,0.7,0.3
	c0.2,0.1,0.4,0.4,0.5,0.7c0.2,0.3,0.2,0.6,0.2,1.1c0,0.7-0.1,1.3-0.5,1.6C181.829,40.829,181.529,40.729,181.229,40.629
	 M182.529,41.429c0.2-0.2,0.3-0.5,0.4-0.8c0.1-0.4,0.2-0.8,0.2-1.2c0-0.6-0.1-1-0.3-1.4c-0.2-0.4-0.4-0.7-0.7-0.9
	c-0.3-0.3-0.7-0.4-1-0.4c-0.4,0-0.7,0.1-1,0.3c-0.3,0.2-0.6,0.6-0.8,1c-0.2,0.4-0.2,0.9-0.2,1.4c0,0.8,0.1,1.4,0.5,1.9
	c0.4,0.5,0.9,0.8,1.5,0.8c0.3,0,0.7-0.1,1-0.4c0.3,0.3,0.6,0.5,0.9,0.7l0.2-0.5C183.029,41.829,182.729,41.629,182.529,41.429"/>
<rect x="183.629" y="39.829" fill-rule="evenodd" clip-rule="evenodd" width="1.5" height="0.6"/>
<path fill-rule="evenodd" clip-rule="evenodd" d="M186.129,39.429c0-0.8,0.1-1.3,0.2-1.6c0.2-0.3,0.4-0.5,0.6-0.5
	c0.3,0,0.5,0.2,0.6,0.5c0.2,0.2,0.3,0.8,0.3,1.6c0,0.9-0.1,1.4-0.2,1.7c-0.2,0.3-0.4,0.4-0.6,0.4c-0.3,0-0.5-0.1-0.7-0.4
	C186.229,40.829,186.129,40.329,186.129,39.429 M185.629,39.429c0,1,0.1,1.7,0.4,2.1c0.2,0.4,0.5,0.6,0.9,0.6c0.5,0,0.8-0.3,1.1-0.7
	c0.2-0.4,0.3-1.1,0.3-2c0-0.9-0.1-1.6-0.4-2c-0.2-0.4-0.5-0.6-1-0.6c-0.4,0-0.7,0.2-1,0.7
	C185.729,37.929,185.629,38.629,185.629,39.429"/>
<path fill-rule="evenodd" clip-rule="evenodd" d="M191.629,41.429h-2.1c0.1-0.1,0.1-0.3,0.2-0.4c0.1-0.1,0.3-0.3,0.6-0.6
	c0.5-0.5,0.8-0.9,1-1.2c0.2-0.3,0.3-0.6,0.3-1c0-0.3-0.1-0.7-0.4-1c-0.2-0.2-0.5-0.4-0.9-0.4c-0.4,0-0.8,0.1-1,0.4
	c-0.2,0.2-0.4,0.6-0.4,1.1l0.5,0.1c0-0.4,0.1-0.6,0.2-0.8c0.2-0.2,0.4-0.3,0.6-0.3c0.3,0,0.5,0.1,0.6,0.3c0.2,0.1,0.2,0.4,0.2,0.6
	c0,0.2,0,0.5-0.2,0.8c-0.1,0.2-0.5,0.6-0.9,1.1c-0.5,0.4-0.7,0.7-0.9,1.1c-0.1,0.3-0.2,0.5-0.2,0.8h2.8V41.429"/>
<rect x="192.129" y="39.829" fill-rule="evenodd" clip-rule="evenodd" width="1.6" height="0.6"/>
<path fill-rule="evenodd" clip-rule="evenodd" d="M196.029,42.029v-5.2h-0.3c-0.1,0.2-0.2,0.5-0.5,0.7c-0.2,0.2-0.4,0.4-0.7,0.6v0.6
	c0.2-0.1,0.3-0.2,0.5-0.3c0.2-0.2,0.4-0.3,0.5-0.4v4H196.029"/>
<path fill-rule="evenodd" clip-rule="evenodd" d="M197.929,39.429c0-0.8,0.1-1.3,0.2-1.6c0.2-0.3,0.4-0.5,0.6-0.5
	c0.3,0,0.5,0.2,0.6,0.5c0.2,0.2,0.3,0.8,0.3,1.6c0,0.9-0.1,1.4-0.3,1.7c-0.1,0.3-0.3,0.4-0.5,0.4c-0.3,0-0.5-0.1-0.7-0.4
	C198.029,40.829,197.929,40.329,197.929,39.429 M197.429,39.429c0,1,0.1,1.7,0.4,2.1c0.2,0.4,0.5,0.6,0.9,0.6c0.5,0,0.8-0.3,1.1-0.7
	c0.2-0.4,0.3-1.1,0.3-2c0-0.9-0.1-1.6-0.4-2c-0.2-0.4-0.6-0.6-1-0.6c-0.4,0-0.8,0.2-1,0.7
	C197.529,37.929,197.429,38.629,197.429,39.429"/>
<path fill-rule="evenodd" clip-rule="evenodd" d="M186.529,30.329c0-1.1,0.1-1.9,0.3-2.3s0.5-0.6,0.8-0.6c0.4,0,0.7,0.2,0.9,0.6
	c0.2,0.4,0.3,1.1,0.3,2.3c0,1.2-0.1,2-0.3,2.4c-0.2,0.4-0.5,0.6-0.8,0.6c-0.4,0-0.7-0.2-0.9-0.6
	C186.629,32.329,186.529,31.529,186.529,30.329 M185.729,30.329c0,1.4,0.2,2.3,0.6,2.9c0.3,0.5,0.8,0.8,1.3,0.8
	c0.7,0,1.2-0.3,1.5-0.9c0.3-0.7,0.5-1.6,0.5-2.8c0-1.3-0.2-2.3-0.6-2.9c-0.3-0.5-0.8-0.8-1.3-0.8c-0.7,0-1.2,0.3-1.5,1
	C185.929,28.229,185.729,29.129,185.729,30.329"/>
<path fill-rule="evenodd" clip-rule="evenodd" d="M194.129,33.029h-2.9c0.1-0.1,0.2-0.3,0.3-0.5c0.2-0.1,0.5-0.4,0.9-0.9
	c0.7-0.7,1.1-1.2,1.4-1.7c0.2-0.4,0.3-0.8,0.3-1.3s-0.1-1-0.4-1.4s-0.8-0.6-1.4-0.6c-0.6,0-1,0.2-1.3,0.6c-0.4,0.3-0.6,0.8-0.6,1.5
	l0.7,0.1c0-0.5,0.1-0.8,0.3-1.1c0.3-0.2,0.5-0.3,0.9-0.3c0.3,0,0.6,0.1,0.8,0.3c0.2,0.2,0.3,0.5,0.3,0.9c0,0.3-0.1,0.7-0.3,1
	c-0.2,0.4-0.7,0.9-1.4,1.6c-0.5,0.6-0.9,1.1-1.2,1.5c-0.2,0.4-0.3,0.8-0.3,1.2h3.9V33.029"/>
<text transform="matrix(1 0 0 1 0 6.8564)" fill="#1d1d1b" font-family="'Helvetica'" font-size="8">ENLARGED AREA BOX</text>
<text transform="matrix(1 0 0 1 18.4253 33.082)" fill="#cd1719" font-family="'Helvetica'" font-size="9">C</text>
<text transform="matrix(1 0 0 1 24.7612 33.082)" fill="#cd1719" font-family="'Helvetica'" font-size="9">ranked lead line,</text>
<text transform="matrix(1 0 0 1 87.9497 33.082)" fill="#cd1719" font-family="'Helvetica'" font-size="9"> </text>
<text transform="matrix(1 0 0 1 18.4253 43.6826)"><tspan x="0" y="0" fill="#cd1719" font-family="'Helvetica'" font-size="9">f</tspan><tspan x="2.331" y="0" fill="#cd1719" font-family="'Helvetica'" font-size="9">r</tspan><tspan x="5.013" y="0" fill="#cd1719" font-family="'Helvetica'" font-size="9">om the </tspan><tspan x="34.686" y="0" fill="#cd1719" font-family="'Helvetica'" font-size="9">r</tspan><tspan x="37.359" y="0" fill="#cd1719" font-family="'Helvetica'" font-size="9">ounded</tspan></text>
<text transform="matrix(1 0 0 1 85.4478 43.6826)" fill="#cd1719" font-family="'Helvetica'" font-size="9"> </text>
<text transform="matrix(1 0 0 1 18.4253 54.2822)"><tspan x="0" y="0" fill="#cd1719" font-family="'Helvetica'" font-size="9">co</tspan><tspan x="9.675" y="0" fill="#cd1719" font-family="'Helvetica'" font-size="9">r</tspan><tspan x="12.672" y="0" fill="#cd1719" font-family="'Helvetica'" font-size="9">ner</tspan></text>
<line fill="none" stroke="#cd1719" stroke-width="0.75" stroke-linecap="round" stroke-linejoin="round" stroke-dasharray="0,2.262" x1="92.399" y1="30.079" x2="152.33" y2="30.079"/>
<line fill="none" stroke="#cd1719" stroke-width="0.75" stroke-linecap="round" stroke-linejoin="round" stroke-dasharray="0,2.1" x1="154.808" y1="31.69" x2="160.871" y2="38.939"/>
<path fill="none" stroke="#cd1719" stroke-width="0.75" stroke-linecap="round" stroke-linejoin="round" d="M161.544,39.744
	L161.544,39.744 M153.46,30.079L153.46,30.079 M90.137,30.079L90.137,30.079"/>
</svg>
