<?xml version="1.0" encoding="utf-8"?>
<!-- Generator: Adobe Illustrator 18.1.1, SVG Export Plug-In . SVG Version: 6.00 Build 0)  -->
<svg version="1.1" id="Layer_1" xmlns="http://www.w3.org/2000/svg" xmlns:xlink="http://www.w3.org/1999/xlink" x="0px" y="0px"
	 viewBox="0 0 203.6 118.8" enable-background="new 0 0 203.6 118.8" xml:space="preserve">
<path fill="none" stroke="#000000" stroke-width="0.72" stroke-linejoin="round" stroke-miterlimit="1.414" stroke-dasharray="4.92,3" d="
	M113.7,54.8v53.9c0,2.7,1.1,5.3,3,7.2c1.9,1.8,4.4,2.9,7.1,2.9h26.6c2.7,0,5.2-1.1,7.1-2.9c1.9-1.9,3-4.5,3-7.2V54.8
	c0-2.6-1.1-5.2-3-7.1c-1.9-1.9-4.4-2.9-7.1-2.9h-26.6c-2.7,0-5.2,1-7.1,2.9C114.8,49.6,113.7,52.2,113.7,54.8"/>
<polyline fill="none" stroke="#000000" stroke-width="0.48" stroke-linejoin="round" stroke-miterlimit="1.414" points="157.5,47.7 
	169.6,35.7 176.1,35.7 "/>
<path fill-rule="evenodd" clip-rule="evenodd" fill="#FFFFFF" d="M203.6,35.7c0-3.7-1.5-7.2-4.1-9.7c-2.5-2.6-6-4.1-9.7-4.1
	c-3.6,0-7.1,1.5-9.7,4.1c-2.6,2.5-4,6-4,9.7c0,3.6,1.4,7.1,4,9.7c2.6,2.6,6.1,4,9.7,4c3.7,0,7.2-1.4,9.7-4
	C202.1,42.8,203.6,39.3,203.6,35.7"/>
<path fill="none" stroke="#000000" stroke-width="0.48" stroke-linejoin="round" stroke-miterlimit="1.414" d="M203.6,35.7
	c0-3.7-1.5-7.2-4.1-9.7c-2.5-2.6-6-4.1-9.7-4.1c-3.6,0-7.1,1.5-9.7,4.1c-2.6,2.5-4,6-4,9.7c0,3.6,1.4,7.1,4,9.7c2.6,2.6,6.1,4,9.7,4
	c3.7,0,7.2-1.4,9.7-4C202.1,42.8,203.6,39.3,203.6,35.7"/>
<line fill="none" stroke="#000000" stroke-width="0.48" stroke-linejoin="round" stroke-miterlimit="1.414" x1="176.1" y1="35.7" x2="203.6" y2="35.7"/>
<line fill="none" stroke="#000000" stroke-width="0.48" stroke-linejoin="round" stroke-miterlimit="1.414" x1="184.1" y1="35.7" x2="184.1" y2="35.7"/>
<line fill="none" stroke="#000000" stroke-width="0.48" stroke-linejoin="round" stroke-miterlimit="1.414" x1="184.1" y1="35.7" x2="184.1" y2="35.7"/>
<path fill-rule="evenodd" clip-rule="evenodd" d="M181.2,40.6l-0.1,0.4c0.2,0.1,0.4,0.2,0.5,0.3c-0.1,0.1-0.3,0.2-0.5,0.2
	c-0.4,0-0.8-0.2-1.1-0.5c-0.2-0.4-0.4-0.9-0.4-1.6c0-0.7,0.2-1.2,0.4-1.6c0.3-0.3,0.7-0.5,1.1-0.5c0.2,0,0.5,0.1,0.7,0.3
	c0.2,0.1,0.4,0.4,0.5,0.7c0.2,0.3,0.2,0.6,0.2,1.1c0,0.7-0.1,1.3-0.5,1.6C181.8,40.8,181.5,40.7,181.2,40.6 M182.5,41.4
	c0.2-0.2,0.3-0.5,0.4-0.8c0.1-0.4,0.2-0.8,0.2-1.2c0-0.6-0.1-1-0.3-1.4c-0.2-0.4-0.4-0.7-0.7-0.9c-0.3-0.3-0.7-0.4-1-0.4
	c-0.4,0-0.7,0.1-1,0.3c-0.3,0.2-0.6,0.6-0.8,1c-0.2,0.4-0.2,0.9-0.2,1.4c0,0.8,0.1,1.4,0.5,1.9c0.4,0.5,0.9,0.8,1.5,0.8
	c0.3,0,0.7-0.1,1-0.4c0.3,0.3,0.6,0.5,0.9,0.7l0.2-0.5C183,41.8,182.7,41.6,182.5,41.4"/>
<rect x="183.6" y="39.8" fill-rule="evenodd" clip-rule="evenodd" width="1.5" height="0.6"/>
<path fill-rule="evenodd" clip-rule="evenodd" d="M186.1,39.4c0-0.8,0.1-1.3,0.2-1.6c0.2-0.3,0.4-0.5,0.6-0.5c0.3,0,0.5,0.2,0.6,0.5
	c0.2,0.2,0.3,0.8,0.3,1.6c0,0.9-0.1,1.4-0.2,1.7c-0.2,0.3-0.4,0.4-0.6,0.4c-0.3,0-0.5-0.1-0.7-0.4C186.2,40.8,186.1,40.3,186.1,39.4
	 M185.6,39.4c0,1,0.1,1.7,0.4,2.1c0.2,0.4,0.5,0.6,0.9,0.6c0.5,0,0.8-0.3,1.1-0.7c0.2-0.4,0.3-1.1,0.3-2c0-0.9-0.1-1.6-0.4-2
	c-0.2-0.4-0.5-0.6-1-0.6c-0.4,0-0.7,0.2-1,0.7C185.7,37.9,185.6,38.6,185.6,39.4"/>
<path fill-rule="evenodd" clip-rule="evenodd" d="M191.6,41.4h-2.1c0.1-0.1,0.1-0.3,0.2-0.4c0.1-0.1,0.3-0.3,0.6-0.6
	c0.5-0.5,0.8-0.9,1-1.2c0.2-0.3,0.3-0.6,0.3-1c0-0.3-0.1-0.7-0.4-1c-0.2-0.2-0.5-0.4-0.9-0.4c-0.4,0-0.8,0.1-1,0.4
	c-0.2,0.2-0.4,0.6-0.4,1.1l0.5,0.1c0-0.4,0.1-0.6,0.2-0.8c0.2-0.2,0.4-0.3,0.6-0.3c0.3,0,0.5,0.1,0.6,0.3c0.2,0.1,0.2,0.4,0.2,0.6
	c0,0.2,0,0.5-0.2,0.8c-0.1,0.2-0.5,0.6-0.9,1.1c-0.5,0.4-0.7,0.7-0.9,1.1c-0.1,0.3-0.2,0.5-0.2,0.8h2.8V41.4"/>
<rect x="192.1" y="39.8" fill-rule="evenodd" clip-rule="evenodd" width="1.6" height="0.6"/>
<path fill-rule="evenodd" clip-rule="evenodd" d="M196,42v-5.2h-0.3c-0.1,0.2-0.2,0.5-0.5,0.7c-0.2,0.2-0.4,0.4-0.7,0.6v0.6
	c0.2-0.1,0.3-0.2,0.5-0.3c0.2-0.2,0.4-0.3,0.5-0.4v4H196"/>
<path fill-rule="evenodd" clip-rule="evenodd" d="M197.9,39.4c0-0.8,0.1-1.3,0.2-1.6c0.2-0.3,0.4-0.5,0.6-0.5c0.3,0,0.5,0.2,0.6,0.5
	c0.2,0.2,0.3,0.8,0.3,1.6c0,0.9-0.1,1.4-0.3,1.7c-0.1,0.3-0.3,0.4-0.5,0.4c-0.3,0-0.5-0.1-0.7-0.4C198,40.8,197.9,40.3,197.9,39.4
	 M197.4,39.4c0,1,0.1,1.7,0.4,2.1c0.2,0.4,0.5,0.6,0.9,0.6c0.5,0,0.8-0.3,1.1-0.7c0.2-0.4,0.3-1.1,0.3-2c0-0.9-0.1-1.6-0.4-2
	c-0.2-0.4-0.6-0.6-1-0.6c-0.4,0-0.8,0.2-1,0.7C197.5,37.9,197.4,38.6,197.4,39.4"/>
<path fill-rule="evenodd" clip-rule="evenodd" d="M186.5,30.3c0-1.1,0.1-1.9,0.3-2.3s0.5-0.6,0.8-0.6c0.4,0,0.7,0.2,0.9,0.6
	c0.2,0.4,0.3,1.1,0.3,2.3c0,1.2-0.1,2-0.3,2.4c-0.2,0.4-0.5,0.6-0.8,0.6c-0.4,0-0.7-0.2-0.9-0.6C186.6,32.3,186.5,31.5,186.5,30.3
	 M185.7,30.3c0,1.4,0.2,2.3,0.6,2.9c0.3,0.5,0.8,0.8,1.3,0.8c0.7,0,1.2-0.3,1.5-0.9c0.3-0.7,0.5-1.6,0.5-2.8c0-1.3-0.2-2.3-0.6-2.9
	c-0.3-0.5-0.8-0.8-1.3-0.8c-0.7,0-1.2,0.3-1.5,1C185.9,28.2,185.7,29.1,185.7,30.3"/>
<path fill-rule="evenodd" clip-rule="evenodd" d="M194.1,33h-2.9c0.1-0.1,0.2-0.3,0.3-0.5c0.2-0.1,0.5-0.4,0.9-0.9
	c0.7-0.7,1.1-1.2,1.4-1.7c0.2-0.4,0.3-0.8,0.3-1.3s-0.1-1-0.4-1.4s-0.8-0.6-1.4-0.6c-0.6,0-1,0.2-1.3,0.6c-0.4,0.3-0.6,0.8-0.6,1.5
	l0.7,0.1c0-0.5,0.1-0.8,0.3-1.1c0.3-0.2,0.5-0.3,0.9-0.3c0.3,0,0.6,0.1,0.8,0.3c0.2,0.2,0.3,0.5,0.3,0.9c0,0.3-0.1,0.7-0.3,1
	c-0.2,0.4-0.7,0.9-1.4,1.6c-0.5,0.6-0.9,1.1-1.2,1.5c-0.2,0.4-0.3,0.8-0.3,1.2h3.9V33"/>
<text transform="matrix(1 0 0 1 0 6.8564)" fill="#1D1D1B" font-family="'Helvetica'" font-size="8">ENLARGED AREA BOX</text>
<text transform="matrix(1 0 0 1 18.4253 33.082)" fill="#CD1719" font-family="'Helvetica'" font-size="9">Cranked lead line,</text>
<text transform="matrix(1 0 0 1 87.9497 33.082)" fill="#CD1719" font-family="'Helvetica'" font-size="9"> </text>
<text transform="matrix(1 0 0 1 18.4253 43.6826)"><tspan x="0" y="0" fill="#CD1719" font-family="'Helvetica'" font-size="9">f</tspan><tspan x="2.3" y="0" fill="#CD1719" font-family="'Helvetica'" font-size="9">r</tspan><tspan x="5" y="0" fill="#CD1719" font-family="'Helvetica'" font-size="9">om the </tspan><tspan x="34.7" y="0" fill="#CD1719" font-family="'Helvetica'" font-size="9">r</tspan><tspan x="37.4" y="0" fill="#CD1719" font-family="'Helvetica'" font-size="9">ounded</tspan></text>
<text transform="matrix(1 0 0 1 85.4478 43.6826)" fill="#CD1719" font-family="'Helvetica'" font-size="9"> </text>
<text transform="matrix(1 0 0 1 18.4253 54.2822)"><tspan x="0" y="0" fill="#CD1719" font-family="'Helvetica'" font-size="9">co</tspan><tspan x="9.7" y="0" fill="#CD1719" font-family="'Helvetica'" font-size="9">r</tspan><tspan x="12.7" y="0" fill="#CD1719" font-family="'Helvetica'" font-size="9">ner</tspan></text>
<line fill="none" stroke="#CD1719" stroke-width="0.75" stroke-linecap="round" stroke-linejoin="round" stroke-dasharray="0,2.262" x1="92.4" y1="30.1" x2="152.3" y2="30.1"/>
<line fill="none" stroke="#CD1719" stroke-width="0.75" stroke-linecap="round" stroke-linejoin="round" stroke-dasharray="0,2.1" x1="154.8" y1="31.7" x2="160.9" y2="38.9"/>
<path fill="none" stroke="#CD1719" stroke-width="0.75" stroke-linecap="round" stroke-linejoin="round" d="M161.5,39.7L161.5,39.7
	 M153.5,30.1L153.5,30.1 M90.1,30.1L90.1,30.1"/>
</svg>
