<?xml version="1.0" encoding="utf-8"?>
<!-- Generator: Adobe Illustrator 18.1.1, SVG Export Plug-In . SVG Version: 6.00 Build 0)  -->
<svg version="1.1" id="Layer_1" xmlns="http://www.w3.org/2000/svg" xmlns:xlink="http://www.w3.org/1999/xlink" x="0px" y="0px"
	 viewBox="0 0 179.7 144.8" enable-background="new 0 0 179.7 144.8" xml:space="preserve">
<polyline fill="none" stroke="#000000" stroke-width="0.48" stroke-linejoin="round" stroke-miterlimit="1.414" points="169.5,39.9 
	141.6,39.9 155.5,29.7 169.5,39.9 "/>
<polyline fill="none" stroke="#000000" stroke-width="0.48" stroke-linejoin="round" stroke-miterlimit="1.414" points="169.5,67.7 
	169.5,39.9 179.7,53.8 169.5,67.7 "/>
<polyline fill="none" stroke="#000000" stroke-width="0.48" stroke-linejoin="round" stroke-miterlimit="1.414" points="141.6,67.7 
	169.5,67.7 155.5,78 141.6,67.7 "/>
<polyline fill="none" stroke="#000000" stroke-width="0.48" stroke-linejoin="round" stroke-miterlimit="1.414" points="141.6,39.9 
	141.6,67.7 131.4,53.8 141.6,39.9 "/>
<polyline fill="none" stroke="#000000" stroke-width="0.48" stroke-linejoin="round" stroke-miterlimit="1.414" points="
	169.5,106.7 141.6,106.7 155.5,96.5 169.5,106.7 "/>
<polyline fill="none" stroke="#000000" stroke-width="0.48" stroke-linejoin="round" stroke-miterlimit="1.414" points="
	169.5,134.6 169.5,106.7 179.7,120.7 169.5,134.6 "/>
<polyline fill="none" stroke="#000000" stroke-width="0.48" stroke-linejoin="round" stroke-miterlimit="1.414" points="
	141.6,134.6 169.5,134.6 155.5,144.8 141.6,134.6 "/>
<polyline fill="none" stroke="#000000" stroke-width="0.48" stroke-linejoin="round" stroke-miterlimit="1.414" points="
	141.6,106.7 141.6,134.6 131.4,120.7 141.6,106.7 "/>
<rect x="154.9" y="121" width="1.5" height="0.6"/>
<path fill-rule="evenodd" clip-rule="evenodd" d="M153.5,102.6c0-0.9,0.1-1.5,0.2-1.8c0.2-0.3,0.4-0.4,0.7-0.4
	c0.2,0,0.4,0.1,0.6,0.4c0.2,0.3,0.3,0.9,0.3,1.8c0,0.9-0.1,1.4-0.3,1.7c-0.2,0.4-0.4,0.5-0.6,0.5c-0.3,0-0.5-0.1-0.7-0.4
	C153.6,104.1,153.5,103.5,153.5,102.6 M152.9,102.6c0,1,0.2,1.7,0.4,2.1c0.3,0.4,0.6,0.6,1.1,0.6c0.4,0,0.8-0.2,1.1-0.7
	c0.2-0.4,0.3-1.1,0.3-2c0-1-0.1-1.7-0.4-2.2c-0.3-0.4-0.6-0.6-1-0.6c-0.5,0-0.9,0.3-1.1,0.7C153,101,152.9,101.7,152.9,102.6"/>
<path fill-rule="evenodd" clip-rule="evenodd" d="M158.4,105.3v-5.5h-0.3c-0.1,0.3-0.3,0.5-0.5,0.8c-0.3,0.2-0.5,0.4-0.8,0.6v0.6
	c0.2-0.1,0.4-0.2,0.6-0.3c0.2-0.2,0.3-0.3,0.5-0.5v4.3H158.4"/>
<path fill-rule="evenodd" clip-rule="evenodd" d="M171.3,120.7c0-0.9,0.1-1.5,0.3-1.8c0.2-0.3,0.4-0.4,0.6-0.4
	c0.3,0,0.5,0.1,0.7,0.4c0.1,0.3,0.2,0.9,0.2,1.8c0,0.9-0.1,1.5-0.2,1.8c-0.2,0.3-0.4,0.4-0.7,0.4c-0.2,0-0.4-0.1-0.6-0.4
	C171.4,122.2,171.3,121.6,171.3,120.7 M170.8,120.7c0,1,0.1,1.7,0.4,2.1c0.3,0.5,0.6,0.7,1,0.7c0.5,0,0.9-0.3,1.1-0.7
	c0.3-0.5,0.4-1.2,0.4-2.1c0-1-0.2-1.7-0.5-2.2c-0.2-0.4-0.5-0.6-1-0.6c-0.4,0-0.8,0.3-1,0.7C170.9,119.1,170.8,119.8,170.8,120.7"/>
<path fill-rule="evenodd" clip-rule="evenodd" d="M177.1,122.7h-2.2c0.1-0.1,0.2-0.2,0.3-0.3c0.1-0.2,0.3-0.4,0.6-0.7
	c0.5-0.5,0.8-1,1-1.3c0.2-0.3,0.3-0.6,0.3-1c0-0.4-0.1-0.7-0.4-1c-0.2-0.3-0.5-0.5-1-0.5c-0.4,0-0.7,0.2-1,0.4
	c-0.2,0.3-0.4,0.7-0.4,1.2l0.5,0.1c0-0.4,0.1-0.6,0.3-0.8c0.1-0.2,0.3-0.3,0.6-0.3c0.2,0,0.4,0.1,0.6,0.2c0.2,0.2,0.2,0.4,0.2,0.7
	c0,0.3,0,0.5-0.2,0.8c-0.2,0.3-0.5,0.7-1,1.2c-0.4,0.4-0.7,0.8-0.9,1.1c-0.2,0.3-0.2,0.6-0.2,0.9h2.9V122.7"/>
<path fill-rule="evenodd" clip-rule="evenodd" d="M153.1,138.5c0-0.9,0-1.5,0.2-1.8c0.2-0.3,0.4-0.4,0.6-0.4c0.3,0,0.5,0.1,0.7,0.4
	c0.1,0.3,0.2,0.9,0.2,1.8c0,0.9-0.1,1.4-0.2,1.7c-0.2,0.3-0.4,0.5-0.6,0.5c-0.3,0-0.5-0.1-0.7-0.4
	C153.1,140,153.1,139.4,153.1,138.5 M152.5,138.5c0,1,0.1,1.7,0.4,2.1s0.6,0.6,1,0.6c0.5,0,0.9-0.2,1.1-0.7c0.3-0.4,0.4-1.1,0.4-2
	c0-1-0.2-1.7-0.5-2.2c-0.2-0.4-0.5-0.6-1-0.6c-0.4,0-0.8,0.3-1,0.7C152.6,136.9,152.5,137.6,152.5,138.5"/>
<path fill-rule="evenodd" clip-rule="evenodd" d="M155.9,139.7c0.1,0.5,0.2,0.9,0.5,1.1c0.3,0.3,0.6,0.4,1,0.4c0.4,0,0.7-0.1,1-0.4
	c0.3-0.3,0.4-0.7,0.4-1.2c0-0.3,0-0.5-0.1-0.7c0-0.2-0.1-0.3-0.2-0.4c-0.2-0.1-0.3-0.2-0.5-0.3c0.2-0.1,0.4-0.2,0.5-0.4
	c0.1-0.2,0.1-0.4,0.1-0.7c0-0.4-0.1-0.7-0.3-1c-0.3-0.2-0.6-0.4-1-0.4c-0.3,0-0.6,0.1-0.8,0.4c-0.3,0.2-0.4,0.6-0.5,1l0.5,0.1
	c0.1-0.3,0.2-0.5,0.3-0.7c0.2-0.1,0.3-0.2,0.5-0.2s0.4,0,0.6,0.2c0.1,0.2,0.2,0.4,0.2,0.6c0,0.3-0.1,0.5-0.3,0.7
	c-0.1,0.1-0.4,0.2-0.6,0.2h-0.1l-0.1,0.6c0.2-0.1,0.3-0.1,0.4-0.1c0.2,0,0.4,0.1,0.6,0.3s0.3,0.5,0.3,0.8s-0.1,0.6-0.3,0.8
	c-0.2,0.2-0.4,0.3-0.7,0.3c-0.4,0-0.7-0.4-0.8-1.1L155.9,139.7"/>
<path fill-rule="evenodd" clip-rule="evenodd" d="M134.5,120.7c0-0.9,0.1-1.5,0.3-1.8c0.1-0.3,0.3-0.4,0.6-0.4s0.5,0.1,0.6,0.4
	c0.2,0.3,0.3,0.9,0.3,1.8c0,0.9-0.1,1.5-0.3,1.8c-0.1,0.3-0.3,0.4-0.6,0.4c-0.2,0-0.5-0.1-0.6-0.4
	C134.6,122.2,134.5,121.6,134.5,120.7 M134,120.7c0,1,0.1,1.7,0.4,2.1c0.2,0.5,0.6,0.7,1,0.7c0.5,0,0.8-0.3,1.1-0.7
	c0.2-0.5,0.4-1.2,0.4-2.1c0-1-0.2-1.7-0.5-2.2c-0.2-0.4-0.6-0.6-1-0.6c-0.5,0-0.8,0.3-1.1,0.7C134.1,119.1,134,119.8,134,120.7"/>
<path fill-rule="evenodd" clip-rule="evenodd" d="M139.1,121.5h-1.3l1.3-2.5V121.5z M139.1,123.4h0.6v-1.3h0.6v-0.6h-0.6V118h-0.5
	l-2,3.5v0.6h1.9V123.4"/>
<path fill-rule="evenodd" clip-rule="evenodd" d="M153.5,35.7c0-0.8,0.1-1.4,0.2-1.7c0.2-0.3,0.4-0.5,0.7-0.5c0.2,0,0.4,0.2,0.6,0.5
	s0.3,0.9,0.3,1.7c0,0.9-0.1,1.5-0.3,1.8s-0.4,0.4-0.6,0.4c-0.3,0-0.5-0.1-0.7-0.4C153.6,37.2,153.5,36.6,153.5,35.7 M152.9,35.7
	c0,1,0.2,1.8,0.4,2.2c0.3,0.4,0.6,0.6,1.1,0.6c0.4,0,0.8-0.2,1.1-0.7c0.2-0.5,0.3-1.2,0.3-2.1c0-1-0.1-1.7-0.4-2.2
	c-0.3-0.3-0.6-0.5-1-0.5c-0.5,0-0.9,0.2-1.1,0.7C153,34.1,152.9,34.8,152.9,35.7"/>
<path fill-rule="evenodd" clip-rule="evenodd" d="M158.4,38.4V33h-0.3c-0.1,0.2-0.3,0.4-0.5,0.7c-0.3,0.2-0.5,0.5-0.8,0.6V35
	c0.2-0.1,0.4-0.2,0.6-0.4c0.2-0.1,0.3-0.3,0.5-0.4v4.2H158.4"/>
<rect x="173" y="54.2" width="1.7" height="0.7"/>
<rect x="154.7" y="72" width="1.7" height="0.7"/>
<path fill-rule="evenodd" clip-rule="evenodd" d="M134.4,53.8c0-0.8,0.1-1.4,0.3-1.7c0.1-0.3,0.3-0.5,0.6-0.5c0.2,0,0.5,0.2,0.6,0.5
	c0.2,0.3,0.3,0.9,0.3,1.7c0,0.9-0.1,1.5-0.3,1.8c-0.1,0.3-0.3,0.5-0.6,0.5c-0.3,0-0.5-0.2-0.6-0.5C134.5,55.3,134.4,54.7,134.4,53.8
	 M133.8,53.8c0,1.1,0.2,1.8,0.4,2.2c0.3,0.4,0.7,0.6,1.1,0.6c0.5,0,0.8-0.2,1.1-0.7c0.2-0.5,0.3-1.2,0.3-2.1c0-1-0.1-1.7-0.4-2.2
	c-0.2-0.3-0.6-0.5-1-0.5c-0.5,0-0.8,0.2-1.1,0.7C134,52.2,133.8,52.9,133.8,53.8"/>
<path fill-rule="evenodd" clip-rule="evenodd" d="M140.2,55.9H138c0-0.1,0.1-0.3,0.2-0.4c0.1-0.1,0.3-0.3,0.6-0.7
	c0.6-0.5,0.9-0.9,1.1-1.2c0.2-0.4,0.3-0.7,0.3-1c0-0.4-0.2-0.8-0.4-1.1s-0.6-0.4-1-0.4c-0.4,0-0.8,0.1-1,0.4
	c-0.3,0.2-0.4,0.6-0.5,1.1l0.6,0.1c0-0.3,0.1-0.6,0.2-0.8c0.2-0.2,0.4-0.3,0.7-0.3c0.2,0,0.4,0.1,0.6,0.3c0.1,0.2,0.2,0.4,0.2,0.7
	c0,0.2-0.1,0.5-0.2,0.7c-0.2,0.3-0.5,0.7-1,1.2c-0.5,0.4-0.8,0.8-0.9,1.1c-0.2,0.4-0.3,0.7-0.3,0.9h3V55.9"/>
<path fill-rule="evenodd" clip-rule="evenodd" d="M148,54.3h1.1v0.9c-0.1,0.1-0.3,0.3-0.5,0.3c-0.2,0.1-0.4,0.2-0.6,0.2
	c-0.5,0-0.8-0.2-1.1-0.5c-0.2-0.3-0.4-0.8-0.4-1.4c0-0.4,0.1-0.8,0.2-1.1c0.1-0.3,0.3-0.5,0.5-0.6c0.2-0.1,0.5-0.2,0.7-0.2
	s0.4,0,0.6,0.1c0.1,0.1,0.3,0.2,0.3,0.3c0.1,0.1,0.2,0.3,0.3,0.6l0.4-0.1c0-0.4-0.1-0.7-0.3-0.8c-0.1-0.2-0.3-0.4-0.5-0.5
	c-0.2-0.1-0.5-0.2-0.7-0.2c-0.4,0-0.8,0.1-1,0.3c-0.3,0.2-0.6,0.5-0.7,0.9c-0.2,0.4-0.3,0.8-0.3,1.3s0.1,1,0.3,1.3
	c0.1,0.4,0.4,0.7,0.7,0.9c0.3,0.2,0.6,0.3,1,0.3c0.3,0,0.6-0.1,0.8-0.2c0.3-0.1,0.6-0.3,0.8-0.6v-1.7H148V54.3"/>
<rect x="150.1" y="54.2" fill-rule="evenodd" clip-rule="evenodd" width="1.5" height="0.6"/>
<path fill-rule="evenodd" clip-rule="evenodd" d="M152.5,53.8c0-0.7,0-1.2,0.2-1.5c0.1-0.3,0.3-0.4,0.5-0.4c0.3,0,0.5,0.1,0.6,0.4
	c0.1,0.2,0.2,0.8,0.2,1.5c0,0.8-0.1,1.3-0.2,1.6c-0.1,0.2-0.3,0.4-0.5,0.4c-0.3,0-0.5-0.1-0.6-0.4C152.5,55.1,152.5,54.6,152.5,53.8
	 M152,53.8c0,0.9,0.1,1.6,0.3,1.9c0.3,0.4,0.6,0.6,0.9,0.6c0.5,0,0.8-0.2,1-0.7c0.2-0.4,0.3-1,0.3-1.8c0-0.8-0.1-1.5-0.4-1.9
	c-0.2-0.3-0.5-0.5-0.9-0.5c-0.4,0-0.7,0.2-0.9,0.6C152.1,52.4,152,53,152,53.8"/>
<path fill-rule="evenodd" clip-rule="evenodd" d="M157.5,55.6h-1.9c0.1-0.1,0.1-0.2,0.2-0.3c0.1-0.1,0.3-0.3,0.6-0.6
	c0.4-0.5,0.7-0.8,0.9-1.1c0.1-0.3,0.2-0.6,0.2-0.9s-0.1-0.6-0.3-0.9c-0.2-0.3-0.5-0.4-0.9-0.4c-0.4,0-0.7,0.1-0.9,0.4
	c-0.2,0.2-0.3,0.5-0.4,1h0.5c0-0.3,0.1-0.5,0.2-0.7c0.2-0.1,0.4-0.2,0.6-0.2c0.2,0,0.4,0.1,0.5,0.2c0.2,0.2,0.2,0.4,0.2,0.6
	s0,0.4-0.2,0.7c-0.1,0.2-0.4,0.6-0.9,1c-0.3,0.4-0.6,0.7-0.8,1c-0.1,0.3-0.2,0.6-0.2,0.8h2.6V55.6"/>
<rect x="158" y="54.2" fill-rule="evenodd" clip-rule="evenodd" width="1.5" height="0.6"/>
<path fill-rule="evenodd" clip-rule="evenodd" d="M161.6,56.2v-4.8h-0.3c0,0.2-0.2,0.4-0.4,0.6c-0.2,0.3-0.4,0.5-0.7,0.6v0.6
	c0.2-0.1,0.3-0.2,0.5-0.3c0.2-0.2,0.4-0.3,0.5-0.4v3.7H161.6"/>
<path fill-rule="evenodd" clip-rule="evenodd" d="M165.4,55.6h-1.9c0-0.1,0.1-0.2,0.2-0.3c0.1-0.1,0.3-0.3,0.5-0.6
	c0.5-0.5,0.8-0.8,0.9-1.1c0.2-0.3,0.3-0.6,0.3-0.9s-0.1-0.6-0.3-0.9c-0.2-0.3-0.5-0.4-0.9-0.4c-0.4,0-0.7,0.1-0.9,0.4
	c-0.2,0.2-0.4,0.5-0.4,1h0.5c0-0.3,0.1-0.5,0.2-0.7c0.2-0.1,0.3-0.2,0.6-0.2c0.2,0,0.3,0.1,0.5,0.2c0.1,0.2,0.2,0.4,0.2,0.6
	s-0.1,0.4-0.2,0.7c-0.1,0.2-0.4,0.6-0.9,1c-0.4,0.4-0.6,0.7-0.8,1c-0.1,0.3-0.2,0.6-0.2,0.8h2.6V55.6"/>
<text transform="matrix(1 0 0 1 0 6.8564)"><tspan x="0" y="0" fill="#1D1D1B" font-family="'Helvetica'" font-size="8">INTERNAL ELE</tspan><tspan x="52.9" y="0" fill="#1D1D1B" font-family="'Helvetica'" font-size="8">V</tspan><tspan x="57.2" y="0" fill="#1D1D1B" font-family="'Helvetica'" font-size="8">A</tspan><tspan x="61.7" y="0" fill="#1D1D1B" font-family="'Helvetica'" font-size="8">TIONS</tspan></text>
<text transform="matrix(1 0 0 1 18.4253 129.3184)" fill="#CD1719" font-family="'Helvetica'" font-size="9">Same sheet</text>
<text transform="matrix(1 0 0 1 18.4253 38.4678)" fill="#CD1719" font-family="'Helvetica'" font-size="9">Detail number</text>
<text transform="matrix(1 0 0 1 18.4253 106.6406)" fill="#CD1719" font-family="'Helvetica'" font-size="9">Detail number</text>
<text transform="matrix(1 0 0 1 18.4253 56.6094)" fill="#CD1719" font-family="'Helvetica'" font-size="9">Drawing number</text>
<text transform="matrix(1 0 0 1 82.6035 56.6094)" fill="#CD1719" font-family="'Helvetica'" font-size="9"> </text>
<text transform="matrix(1 0 0 1 18.4253 67.209)"><tspan x="0" y="0" fill="#CD1719" font-family="'Helvetica'" font-size="9">di</tspan><tspan x="6.8" y="0" fill="#CD1719" font-family="'Helvetica'" font-size="9">f</tspan><tspan x="9" y="0" fill="#CD1719" font-family="'Helvetica'" font-size="9">fe</tspan><tspan x="16" y="0" fill="#CD1719" font-family="'Helvetica'" font-size="9">r</tspan><tspan x="18.7" y="0" fill="#CD1719" font-family="'Helvetica'" font-size="9">ent sheet</tspan></text>
<line fill="none" stroke="#CD1719" stroke-width="0.75" stroke-linecap="round" stroke-linejoin="round" stroke-dasharray="0,2.272" x1="72.5" y1="125.5" x2="153.1" y2="125.5"/>
<path fill="none" stroke="#CD1719" stroke-width="0.75" stroke-linecap="round" stroke-linejoin="round" d="M154.3,125.5
	L154.3,125.5 M70.2,125.5L70.2,125.5"/>
<line fill="none" stroke="#CD1719" stroke-width="0.75" stroke-linecap="round" stroke-linejoin="round" stroke-dasharray="0,2.228" x1="79.5" y1="103.8" x2="147.5" y2="103.8"/>
<path fill="none" stroke="#CD1719" stroke-width="0.75" stroke-linecap="round" stroke-linejoin="round" d="M148.6,103.8
	L148.6,103.8 M77.3,103.8L77.3,103.8"/>
<line fill="none" stroke="#CD1719" stroke-width="0.75" stroke-linecap="round" stroke-linejoin="round" stroke-dasharray="0,2.262" x1="91.6" y1="53.5" x2="142.5" y2="53.5"/>
<path fill="none" stroke="#CD1719" stroke-width="0.75" stroke-linecap="round" stroke-linejoin="round" d="M143.6,53.5L143.6,53.5
	 M89.3,53.5L89.3,53.5"/>
<line fill="none" stroke="#CD1719" stroke-width="0.75" stroke-linecap="round" stroke-linejoin="round" stroke-dasharray="0,2.277" x1="80.3" y1="36" x2="147.4" y2="36"/>
<path fill="none" stroke="#CD1719" stroke-width="0.75" stroke-linecap="round" stroke-linejoin="round" d="M148.6,36L148.6,36
	 M78,36L78,36"/>
</svg>
