<svg version="1.1" id="Layer_1" xmlns="http://www.w3.org/2000/svg" xmlns:xlink="http://www.w3.org/1999/xlink" x="0px" y="0px"
	 viewBox="0 0 270 144.77" enable-background="new 0 0 270 144.77" xml:space="preserve">
<polyline fill="none" stroke="#000000" stroke-width="0.48" stroke-linejoin="round" stroke-miterlimit="1.414" points="
	169.529,39.87 141.629,39.87 155.529,29.67 169.529,39.87 "/>
<polyline fill="none" stroke="#000000" stroke-width="0.48" stroke-linejoin="round" stroke-miterlimit="1.414" points="
	169.529,67.67 169.529,39.87 179.729,53.77 169.529,67.67 "/>
<polyline fill="none" stroke="#000000" stroke-width="0.48" stroke-linejoin="round" stroke-miterlimit="1.414" points="
	141.629,67.67 169.529,67.67 155.529,77.97 141.629,67.67 "/>
<polyline fill="none" stroke="#000000" stroke-width="0.48" stroke-linejoin="round" stroke-miterlimit="1.414" points="
	141.629,39.87 141.629,67.67 131.429,53.77 141.629,39.87 "/>
<polyline fill="none" stroke="#000000" stroke-width="0.48" stroke-linejoin="round" stroke-miterlimit="1.414" points="
	169.529,106.67 141.629,106.67 155.529,96.47 169.529,106.67 "/>
<polyline fill="none" stroke="#000000" stroke-width="0.48" stroke-linejoin="round" stroke-miterlimit="1.414" points="
	169.529,134.57 169.529,106.67 179.729,120.67 169.529,134.57 "/>
<polyline fill="none" stroke="#000000" stroke-width="0.48" stroke-linejoin="round" stroke-miterlimit="1.414" points="
	141.629,134.57 169.529,134.57 155.529,144.77 141.629,134.57 "/>
<polyline fill="none" stroke="#000000" stroke-width="0.48" stroke-linejoin="round" stroke-miterlimit="1.414" points="
	141.629,106.67 141.629,134.57 131.429,120.67 141.629,106.67 "/>
<rect x="154.929" y="120.97" width="1.499" height="0.6"/>
<path fill-rule="evenodd" clip-rule="evenodd" d="M153.529,102.57c0-0.9,0.1-1.5,0.2-1.8c0.2-0.3,0.4-0.4,0.7-0.4
	c0.2,0,0.4,0.1,0.6,0.4c0.2,0.3,0.3,0.9,0.3,1.8c0,0.9-0.1,1.4-0.3,1.7c-0.2,0.4-0.4,0.5-0.6,0.5c-0.3,0-0.5-0.1-0.7-0.4
	C153.629,104.07,153.529,103.47,153.529,102.57 M152.929,102.57c0,1,0.2,1.7,0.4,2.1c0.3,0.4,0.6,0.6,1.1,0.6c0.4,0,0.8-0.2,1.1-0.7
	c0.2-0.4,0.3-1.1,0.3-2c0-1-0.1-1.7-0.4-2.2c-0.3-0.4-0.6-0.6-1-0.6c-0.5,0-0.9,0.3-1.1,0.7
	C153.029,100.97,152.929,101.67,152.929,102.57"/>
<path fill-rule="evenodd" clip-rule="evenodd" d="M158.429,105.27v-5.5h-0.3c-0.1,0.3-0.3,0.5-0.5,0.8c-0.3,0.2-0.5,0.4-0.8,0.6v0.6
	c0.2-0.1,0.4-0.2,0.6-0.3c0.2-0.2,0.3-0.3,0.5-0.5v4.3H158.429"/>
<path fill-rule="evenodd" clip-rule="evenodd" d="M171.329,120.67c0-0.9,0.1-1.5,0.3-1.8c0.2-0.3,0.4-0.4,0.6-0.4
	c0.3,0,0.5,0.1,0.7,0.4c0.1,0.3,0.2,0.9,0.2,1.8c0,0.9-0.1,1.5-0.2,1.8c-0.2,0.3-0.4,0.4-0.7,0.4c-0.2,0-0.4-0.1-0.6-0.4
	C171.429,122.17,171.329,121.57,171.329,120.67 M170.829,120.67c0,1,0.1,1.7,0.4,2.1c0.3,0.5,0.6,0.7,1,0.7c0.5,0,0.9-0.3,1.1-0.7
	c0.3-0.5,0.4-1.2,0.4-2.1c0-1-0.2-1.7-0.5-2.2c-0.2-0.4-0.5-0.6-1-0.6c-0.4,0-0.8,0.3-1,0.7
	C170.929,119.07,170.829,119.77,170.829,120.67"/>
<path fill-rule="evenodd" clip-rule="evenodd" d="M177.129,122.67h-2.2c0.1-0.1,0.2-0.2,0.3-0.3c0.1-0.2,0.3-0.4,0.6-0.7
	c0.5-0.5,0.8-1,1-1.3c0.2-0.3,0.3-0.6,0.3-1c0-0.4-0.1-0.7-0.4-1c-0.2-0.3-0.5-0.5-1-0.5c-0.4,0-0.7,0.2-1,0.4
	c-0.2,0.3-0.4,0.7-0.4,1.2l0.5,0.1c0-0.4,0.1-0.6,0.3-0.8c0.1-0.2,0.3-0.3,0.6-0.3c0.2,0,0.4,0.1,0.6,0.2c0.2,0.2,0.2,0.4,0.2,0.7
	c0,0.3,0,0.5-0.2,0.8c-0.2,0.3-0.5,0.7-1,1.2c-0.4,0.4-0.7,0.8-0.9,1.1c-0.2,0.3-0.2,0.6-0.2,0.9h2.9V122.67"/>
<path fill-rule="evenodd" clip-rule="evenodd" d="M153.129,138.47c0-0.9,0-1.5,0.2-1.8c0.2-0.3,0.4-0.4,0.6-0.4
	c0.3,0,0.5,0.1,0.7,0.4c0.1,0.3,0.2,0.9,0.2,1.8c0,0.9-0.1,1.4-0.2,1.7c-0.2,0.3-0.4,0.5-0.6,0.5c-0.3,0-0.5-0.1-0.7-0.4
	C153.129,139.97,153.129,139.37,153.129,138.47 M152.529,138.47c0,1,0.1,1.7,0.4,2.1s0.6,0.6,1,0.6c0.5,0,0.9-0.2,1.1-0.7
	c0.3-0.4,0.4-1.1,0.4-2c0-1-0.2-1.7-0.5-2.2c-0.2-0.4-0.5-0.6-1-0.6c-0.4,0-0.8,0.3-1,0.7
	C152.629,136.87,152.529,137.57,152.529,138.47"/>
<path fill-rule="evenodd" clip-rule="evenodd" d="M155.929,139.67c0.1,0.5,0.2,0.9,0.5,1.1c0.3,0.3,0.6,0.4,1,0.4
	c0.4,0,0.7-0.1,1-0.4c0.3-0.3,0.4-0.7,0.4-1.2c0-0.3,0-0.5-0.1-0.7c0-0.2-0.1-0.3-0.2-0.4c-0.2-0.1-0.3-0.2-0.5-0.3
	c0.2-0.1,0.4-0.2,0.5-0.4c0.1-0.2,0.1-0.4,0.1-0.7c0-0.4-0.1-0.7-0.3-1c-0.3-0.2-0.6-0.4-1-0.4c-0.3,0-0.6,0.1-0.8,0.4
	c-0.3,0.2-0.4,0.6-0.5,1l0.5,0.1c0.1-0.3,0.2-0.5,0.3-0.7c0.2-0.1,0.3-0.2,0.5-0.2s0.4,0,0.6,0.2c0.1,0.2,0.2,0.4,0.2,0.6
	c0,0.3-0.1,0.5-0.3,0.7c-0.1,0.1-0.4,0.2-0.6,0.2h-0.1l-0.1,0.6c0.2-0.1,0.3-0.1,0.4-0.1c0.2,0,0.4,0.1,0.6,0.3s0.3,0.5,0.3,0.8
	s-0.1,0.6-0.3,0.8c-0.2,0.2-0.4,0.3-0.7,0.3c-0.4,0-0.7-0.4-0.8-1.1L155.929,139.67"/>
<path fill-rule="evenodd" clip-rule="evenodd" d="M134.529,120.67c0-0.9,0.1-1.5,0.3-1.8c0.1-0.3,0.3-0.4,0.6-0.4s0.5,0.1,0.6,0.4
	c0.2,0.3,0.3,0.9,0.3,1.8c0,0.9-0.1,1.5-0.3,1.8c-0.1,0.3-0.3,0.4-0.6,0.4c-0.2,0-0.5-0.1-0.6-0.4
	C134.629,122.17,134.529,121.57,134.529,120.67 M134.029,120.67c0,1,0.1,1.7,0.4,2.1c0.2,0.5,0.6,0.7,1,0.7c0.5,0,0.8-0.3,1.1-0.7
	c0.2-0.5,0.4-1.2,0.4-2.1c0-1-0.2-1.7-0.5-2.2c-0.2-0.4-0.6-0.6-1-0.6c-0.5,0-0.8,0.3-1.1,0.7
	C134.129,119.07,134.029,119.77,134.029,120.67"/>
<path fill-rule="evenodd" clip-rule="evenodd" d="M139.129,121.47h-1.3l1.3-2.5V121.47z M139.129,123.37h0.6v-1.3h0.6v-0.6h-0.6
	v-3.5h-0.5l-2,3.5v0.6h1.9V123.37"/>
<path fill-rule="evenodd" clip-rule="evenodd" d="M153.529,35.67c0-0.8,0.1-1.4,0.2-1.7c0.2-0.3,0.4-0.5,0.7-0.5
	c0.2,0,0.4,0.2,0.6,0.5s0.3,0.9,0.3,1.7c0,0.9-0.1,1.5-0.3,1.8s-0.4,0.4-0.6,0.4c-0.3,0-0.5-0.1-0.7-0.4
	C153.629,37.17,153.529,36.57,153.529,35.67 M152.929,35.67c0,1,0.2,1.8,0.4,2.2c0.3,0.4,0.6,0.6,1.1,0.6c0.4,0,0.8-0.2,1.1-0.7
	c0.2-0.5,0.3-1.2,0.3-2.1c0-1-0.1-1.7-0.4-2.2c-0.3-0.3-0.6-0.5-1-0.5c-0.5,0-0.9,0.2-1.1,0.7
	C153.029,34.07,152.929,34.77,152.929,35.67"/>
<path fill-rule="evenodd" clip-rule="evenodd" d="M158.429,38.37v-5.4h-0.3c-0.1,0.2-0.3,0.4-0.5,0.7c-0.3,0.2-0.5,0.5-0.8,0.6v0.7
	c0.2-0.1,0.4-0.2,0.6-0.4c0.2-0.1,0.3-0.3,0.5-0.4v4.2H158.429"/>
<rect x="173.029" y="54.17" width="1.7" height="0.7"/>
<rect x="154.729" y="71.97" width="1.699" height="0.699"/>
<path fill-rule="evenodd" clip-rule="evenodd" d="M134.429,53.77c0-0.8,0.1-1.4,0.3-1.7c0.1-0.3,0.3-0.5,0.6-0.5
	c0.2,0,0.5,0.2,0.6,0.5c0.2,0.3,0.3,0.9,0.3,1.7c0,0.9-0.1,1.5-0.3,1.8c-0.1,0.3-0.3,0.5-0.6,0.5c-0.3,0-0.5-0.2-0.6-0.5
	C134.529,55.27,134.429,54.67,134.429,53.77 M133.829,53.77c0,1.1,0.2,1.8,0.4,2.2c0.3,0.4,0.7,0.6,1.1,0.6c0.5,0,0.8-0.2,1.1-0.7
	c0.2-0.5,0.3-1.2,0.3-2.1c0-1-0.1-1.7-0.4-2.2c-0.2-0.3-0.6-0.5-1-0.5c-0.5,0-0.8,0.2-1.1,0.7
	C134.029,52.17,133.829,52.87,133.829,53.77"/>
<path fill-rule="evenodd" clip-rule="evenodd" d="M140.229,55.87h-2.2c0-0.1,0.1-0.3,0.2-0.4c0.1-0.1,0.3-0.3,0.6-0.7
	c0.6-0.5,0.9-0.9,1.1-1.2c0.2-0.4,0.3-0.7,0.3-1c0-0.4-0.2-0.8-0.4-1.1s-0.6-0.4-1-0.4c-0.4,0-0.8,0.1-1,0.4
	c-0.3,0.2-0.4,0.6-0.5,1.1l0.6,0.1c0-0.3,0.1-0.6,0.2-0.8c0.2-0.2,0.4-0.3,0.7-0.3c0.2,0,0.4,0.1,0.6,0.3c0.1,0.2,0.2,0.4,0.2,0.7
	c0,0.2-0.1,0.5-0.2,0.7c-0.2,0.3-0.5,0.7-1,1.2c-0.5,0.4-0.8,0.8-0.9,1.1c-0.2,0.4-0.3,0.7-0.3,0.9h3V55.87"/>
<path fill-rule="evenodd" clip-rule="evenodd" d="M148.029,54.27h1.1v0.9c-0.1,0.1-0.3,0.3-0.5,0.3c-0.2,0.1-0.4,0.2-0.6,0.2
	c-0.5,0-0.8-0.2-1.1-0.5c-0.2-0.3-0.4-0.8-0.4-1.4c0-0.4,0.1-0.8,0.2-1.1c0.1-0.3,0.3-0.5,0.5-0.6c0.2-0.1,0.5-0.2,0.7-0.2
	s0.4,0,0.6,0.1c0.1,0.1,0.3,0.2,0.3,0.3c0.1,0.1,0.2,0.3,0.3,0.6l0.4-0.1c0-0.4-0.1-0.7-0.3-0.8c-0.1-0.2-0.3-0.4-0.5-0.5
	c-0.2-0.1-0.5-0.2-0.7-0.2c-0.4,0-0.8,0.1-1,0.3c-0.3,0.2-0.6,0.5-0.7,0.9c-0.2,0.4-0.3,0.8-0.3,1.3s0.1,1,0.3,1.3
	c0.1,0.4,0.4,0.7,0.7,0.9c0.3,0.2,0.6,0.3,1,0.3c0.3,0,0.6-0.1,0.8-0.2c0.3-0.1,0.6-0.3,0.8-0.6v-1.7h-1.6V54.27"/>
<rect x="150.129" y="54.169" fill-rule="evenodd" clip-rule="evenodd" width="1.5" height="0.6"/>
<path fill-rule="evenodd" clip-rule="evenodd" d="M152.529,53.77c0-0.7,0-1.2,0.2-1.5c0.1-0.3,0.3-0.4,0.5-0.4
	c0.3,0,0.5,0.1,0.6,0.4c0.1,0.2,0.2,0.8,0.2,1.5c0,0.8-0.1,1.3-0.2,1.6c-0.1,0.2-0.3,0.4-0.5,0.4c-0.3,0-0.5-0.1-0.6-0.4
	C152.529,55.07,152.529,54.57,152.529,53.77 M152.029,53.77c0,0.9,0.1,1.6,0.3,1.9c0.3,0.4,0.6,0.6,0.9,0.6c0.5,0,0.8-0.2,1-0.7
	c0.2-0.4,0.3-1,0.3-1.8c0-0.8-0.1-1.5-0.4-1.9c-0.2-0.3-0.5-0.5-0.9-0.5c-0.4,0-0.7,0.2-0.9,0.6
	C152.129,52.37,152.029,52.97,152.029,53.77"/>
<path fill-rule="evenodd" clip-rule="evenodd" d="M157.529,55.57h-1.9c0.1-0.1,0.1-0.2,0.2-0.3c0.1-0.1,0.3-0.3,0.6-0.6
	c0.4-0.5,0.7-0.8,0.9-1.1c0.1-0.3,0.2-0.6,0.2-0.9s-0.1-0.6-0.3-0.9c-0.2-0.3-0.5-0.4-0.9-0.4c-0.4,0-0.7,0.1-0.9,0.4
	c-0.2,0.2-0.3,0.5-0.4,1h0.5c0-0.3,0.1-0.5,0.2-0.7c0.2-0.1,0.4-0.2,0.6-0.2c0.2,0,0.4,0.1,0.5,0.2c0.2,0.2,0.2,0.4,0.2,0.6
	s0,0.4-0.2,0.7c-0.1,0.2-0.4,0.6-0.9,1c-0.3,0.4-0.6,0.7-0.8,1c-0.1,0.3-0.2,0.6-0.2,0.8h2.6V55.57"/>
<rect x="158.029" y="54.169" fill-rule="evenodd" clip-rule="evenodd" width="1.5" height="0.6"/>
<path fill-rule="evenodd" clip-rule="evenodd" d="M161.629,56.17v-4.8h-0.3c0,0.2-0.2,0.4-0.4,0.6c-0.2,0.3-0.4,0.5-0.7,0.6v0.6
	c0.2-0.1,0.3-0.2,0.5-0.3c0.2-0.2,0.4-0.3,0.5-0.4v3.7H161.629"/>
<path fill-rule="evenodd" clip-rule="evenodd" d="M165.429,55.57h-1.9c0-0.1,0.1-0.2,0.2-0.3c0.1-0.1,0.3-0.3,0.5-0.6
	c0.5-0.5,0.8-0.8,0.9-1.1c0.2-0.3,0.3-0.6,0.3-0.9s-0.1-0.6-0.3-0.9c-0.2-0.3-0.5-0.4-0.9-0.4c-0.4,0-0.7,0.1-0.9,0.4
	c-0.2,0.2-0.4,0.5-0.4,1h0.5c0-0.3,0.1-0.5,0.2-0.7c0.2-0.1,0.3-0.2,0.6-0.2c0.2,0,0.3,0.1,0.5,0.2c0.1,0.2,0.2,0.4,0.2,0.6
	s-0.1,0.4-0.2,0.7c-0.1,0.2-0.4,0.6-0.9,1c-0.4,0.4-0.6,0.7-0.8,1c-0.1,0.3-0.2,0.6-0.2,0.8h2.6V55.57"/>
<text transform="matrix(1 0 0 1 0 6.8564)"><tspan x="0" y="0" fill="#1D1D1B" font-family="'Helvetica'" font-size="8">INTERNAL ELE</tspan><tspan x="52.912" y="0" fill="#1D1D1B" font-family="'Helvetica'" font-size="8">V</tspan><tspan x="57.216" y="0" fill="#1D1D1B" font-family="'Helvetica'" font-size="8">A</tspan><tspan x="61.72" y="0" fill="#1D1D1B" font-family="'Helvetica'" font-size="8">TIONS</tspan></text>
<text transform="matrix(1 0 0 1 18.4253 129.3184)" fill="#CD1719" font-family="'Helvetica'" font-size="9">S</text>
<text transform="matrix(1 0 0 1 24.0952 129.3184)" fill="#CD1719" font-family="'Helvetica'" font-size="9">ame sheet</text>
<text transform="matrix(1 0 0 1 18.4253 38.4678)" fill="#CD1719" font-family="'Helvetica'" font-size="9">D</text>
<text transform="matrix(1 0 0 1 24.5903 38.4678)" fill="#CD1719" font-family="'Helvetica'" font-size="9">etail number</text>
<text transform="matrix(1 0 0 1 18.4253 106.6406)" fill="#CD1719" font-family="'Helvetica'" font-size="9">D</text>
<text transform="matrix(1 0 0 1 24.5903 106.6406)" fill="#CD1719" font-family="'Helvetica'" font-size="9">etail number</text>
<text transform="matrix(1 0 0 1 18.4253 56.6094)" fill="#CD1719" font-family="'Helvetica'" font-size="9">D</text>
<text transform="matrix(1 0 0 1 24.5903 56.6094)" fill="#CD1719" font-family="'Helvetica'" font-size="9">rawing number</text>
<text transform="matrix(1 0 0 1 82.6035 56.6094)" fill="#CD1719" font-family="'Helvetica'" font-size="9"> </text>
<text transform="matrix(1 0 0 1 18.4253 67.209)"><tspan x="0" y="0" fill="#CD1719" font-family="'Helvetica'" font-size="9">di</tspan><tspan x="6.831" y="0" fill="#CD1719" font-family="'Helvetica'" font-size="9">f</tspan><tspan x="9.009" y="0" fill="#CD1719" font-family="'Helvetica'" font-size="9">fe</tspan><tspan x="16.011" y="0" fill="#CD1719" font-family="'Helvetica'" font-size="9">r</tspan><tspan x="18.693" y="0" fill="#CD1719" font-family="'Helvetica'" font-size="9">ent sheet</tspan></text>
<line fill="none" stroke="#CD1719" stroke-width="0.75" stroke-linecap="round" stroke-linejoin="round" stroke-dasharray="0,2.272" x1="72.462" y1="125.526" x2="153.114" y2="125.526"/>
<path fill="none" stroke="#CD1719" stroke-width="0.75" stroke-linecap="round" stroke-linejoin="round" d="M154.251,125.526
	L154.251,125.526 M70.19,125.526L70.19,125.526"/>
<line fill="none" stroke="#CD1719" stroke-width="0.75" stroke-linecap="round" stroke-linejoin="round" stroke-dasharray="0,2.228" x1="79.505" y1="103.817" x2="147.467" y2="103.817"/>
<path fill="none" stroke="#CD1719" stroke-width="0.75" stroke-linecap="round" stroke-linejoin="round" d="M148.582,103.817
	L148.582,103.817 M77.277,103.817L77.277,103.817"/>
<line fill="none" stroke="#CD1719" stroke-width="0.75" stroke-linecap="round" stroke-linejoin="round" stroke-dasharray="0,2.262" x1="91.586" y1="53.526" x2="142.489" y2="53.526"/>
<path fill="none" stroke="#CD1719" stroke-width="0.75" stroke-linecap="round" stroke-linejoin="round" d="M143.621,53.526
	L143.621,53.526 M89.324,53.526L89.324,53.526"/>
<line fill="none" stroke="#CD1719" stroke-width="0.75" stroke-linecap="round" stroke-linejoin="round" stroke-dasharray="0,2.277" x1="80.263" y1="35.951" x2="147.443" y2="35.951"/>
<path fill="none" stroke="#CD1719" stroke-width="0.75" stroke-linecap="round" stroke-linejoin="round" d="M148.582,35.951
	L148.582,35.951 M77.986,35.951L77.986,35.951"/>
</svg>
