<svg class="Layer_1" xmlns="http://www.w3.org/2000/svg" xmlns:xlink="http://www.w3.org/1999/xlink" x="0px" y="0px"
	 viewBox="0 0 270 133.533" enable-background="new 0 0 270 133.533" xml:space="preserve">
<polyline fill="none" stroke="#000000" stroke-width="0.24" stroke-linejoin="bevel" stroke-miterlimit="1.414" points="
	189.764,56.656 157.664,56.656 131.164,83.656 "/>
<line fill="none" stroke="#000000" stroke-width="0.72" stroke-linejoin="round" stroke-miterlimit="1.414" x1="131.164" y1="83.656" x2="137.264" y2="85.256"/>
<line fill="none" stroke="#000000" stroke-width="0.72" stroke-linejoin="round" stroke-miterlimit="1.414" x1="131.164" y1="83.656" x2="129.464" y2="77.656"/>
<path fill-rule="evenodd" clip-rule="evenodd" d="M194.264,66.456v-2.5h1.5c0.4,0,0.7,0,0.9,0.1c0.1,0.1,0.3,0.2,0.4,0.4
	c0.1,0.2,0.1,0.5,0.1,0.7c0,0.5-0.1,0.8-0.3,1c-0.2,0.2-0.6,0.3-1,0.3H194.264 M193.564,70.156h0.7v-2.8h1.5c0.8,0,1.4-0.2,1.7-0.6
	c0.4-0.4,0.5-1,0.5-1.6c0-0.5-0.1-0.9-0.3-1.2c-0.2-0.4-0.5-0.6-0.8-0.7c-0.2-0.1-0.6-0.1-1.1-0.1h-2.2V70.156"/>
<path fill-rule="evenodd" clip-rule="evenodd" d="M199.964,67.256l0.7-2c0.1-0.5,0.2-0.9,0.3-1.4c0.1,0.4,0.2,0.9,0.4,1.5l0.6,1.9
	H199.964 M198.364,70.156h0.8l0.6-2.1h2.4l0.7,2.1h0.9l-2.4-7h-0.8L198.364,70.156"/>
<rect x="204.564" y="63.156" fill-rule="evenodd" clip-rule="evenodd" width="0.7" height="7"/>
<polygon fill-rule="evenodd" clip-rule="evenodd" points="206.564,70.156 207.364,70.156 207.364,64.656 210.364,70.156 
	211.164,70.156 211.164,63.156 210.464,63.156 210.464,68.656 207.364,63.156 206.564,63.156 "/>
<polygon fill-rule="evenodd" clip-rule="evenodd" points="213.964,70.156 214.764,70.156 214.764,63.956 216.664,63.956 
	216.664,63.156 212.064,63.156 212.064,63.956 213.964,63.956 "/>
<polygon fill-rule="evenodd" clip-rule="evenodd" points="217.464,70.156 221.764,70.156 221.764,69.356 218.264,69.356 
	218.264,66.956 221.464,66.956 221.464,66.156 218.264,66.156 218.264,63.956 221.664,63.956 221.664,63.156 217.464,63.156 "/>
<path fill-rule="evenodd" clip-rule="evenodd" d="M223.564,69.356v-5.4h1.3c0.4,0,0.7,0,0.9,0.1c0.3,0.2,0.6,0.4,0.8,0.9
	c0.2,0.4,0.3,0.9,0.3,1.7c0,0.6-0.1,1.2-0.3,1.7c-0.1,0.3-0.3,0.6-0.6,0.8c-0.2,0.1-0.6,0.2-1.1,0.2H223.564 M222.864,70.156h2.1
	c0.6,0,1-0.1,1.4-0.3c0.4-0.2,0.7-0.6,0.9-1.2c0.3-0.6,0.4-1.2,0.4-2c0-0.7-0.1-1.2-0.2-1.7c-0.2-0.4-0.4-0.8-0.6-1.1
	c-0.3-0.3-0.6-0.5-0.9-0.6c-0.3-0.1-0.6-0.1-1.1-0.1h-2V70.156"/>
<path fill-rule="evenodd" clip-rule="evenodd" d="M231.764,66.456v-2.5h1.5c0.4,0,0.6,0,0.8,0.1c0.1,0.1,0.3,0.2,0.4,0.4
	c0.1,0.2,0.1,0.5,0.1,0.7c0,0.5-0.1,0.8-0.3,1c-0.2,0.2-0.5,0.3-1,0.3H231.764 M230.964,70.156h0.8v-2.8h1.5c0.8,0,1.3-0.2,1.6-0.6
	c0.4-0.4,0.5-1,0.5-1.6c0-0.5-0.1-0.9-0.3-1.2c-0.2-0.4-0.4-0.6-0.8-0.7c-0.2-0.1-0.6-0.1-1.1-0.1h-2.2V70.156"/>
<polygon fill-rule="evenodd" clip-rule="evenodd" points="237.864,70.156 238.664,70.156 238.664,63.956 240.564,63.956 
	240.564,63.156 235.964,63.156 235.964,63.956 237.864,63.956 "/>
<rect x="240.964" y="67.156" fill-rule="evenodd" clip-rule="evenodd" width="2.2" height="0.9"/>
<path fill-rule="evenodd" clip-rule="evenodd" d="M246.064,67.656h-1.9l1.9-3.1V67.656z M246.064,70.156h0.7v-1.7h0.8v-0.8h-0.8
	v-4.5h-0.6l-2.7,4.5v0.8h2.6V70.156"/>
<path fill-rule="evenodd" clip-rule="evenodd" d="M197.664,57.056c-0.1,0.6-0.3,1.1-0.6,1.4c-0.3,0.3-0.7,0.4-1.1,0.4
	c-0.6,0-1-0.2-1.4-0.7c-0.3-0.5-0.5-1.2-0.5-2.2c0-0.6,0.1-1.1,0.3-1.6c0.2-0.4,0.4-0.7,0.7-0.9c0.3-0.2,0.6-0.3,1-0.3
	c0.8,0,1.3,0.5,1.5,1.5l0.8-0.2c-0.2-0.7-0.5-1.2-0.9-1.6c-0.4-0.3-0.8-0.5-1.4-0.5c-0.5,0-1,0.1-1.4,0.4c-0.4,0.3-0.7,0.7-1,1.2
	c-0.2,0.6-0.4,1.2-0.4,2c0,0.8,0.2,1.5,0.4,2.1c0.3,0.6,0.6,1,0.9,1.2c0.4,0.3,0.9,0.4,1.4,0.4c0.6,0,1.2-0.2,1.6-0.6
	c0.4-0.3,0.7-0.9,0.9-1.7L197.664,57.056"/>
<polygon fill-rule="evenodd" clip-rule="evenodd" points="199.364,59.556 202.964,59.556 202.964,58.756 200.164,58.756 
	200.164,52.456 199.364,52.456 "/>
<path fill-rule="evenodd" clip-rule="evenodd" d="M204.964,56.656l0.6-2.1c0.2-0.4,0.3-0.9,0.3-1.3c0.1,0.4,0.3,0.8,0.5,1.4l0.6,2
	H204.964 M203.264,59.556h0.8l0.7-2.1h2.4l0.7,2.1h0.9l-2.4-7.1h-0.9L203.264,59.556"/>
<path fill-rule="evenodd" clip-rule="evenodd" d="M210.064,58.756v-5.4h1.2c0.5,0,0.8,0,1,0.1c0.3,0.1,0.6,0.4,0.8,0.8
	s0.3,1,0.3,1.7c0,0.7-0.1,1.3-0.3,1.7s-0.4,0.7-0.6,0.8c-0.3,0.2-0.6,0.3-1.1,0.3H210.064 M209.264,59.556h2.1
	c0.6,0,1.1-0.1,1.5-0.3c0.4-0.3,0.7-0.7,0.9-1.2c0.2-0.6,0.4-1.3,0.4-2.1c0-0.6-0.1-1.1-0.3-1.6c-0.1-0.4-0.3-0.8-0.5-1.1
	c-0.3-0.3-0.6-0.5-0.9-0.6c-0.3-0.1-0.7-0.2-1.1-0.2h-2.1V59.556"/>
<path fill-rule="evenodd" clip-rule="evenodd" d="M215.964,58.756v-5.4h1.2c0.4,0,0.8,0,1,0.1c0.3,0.1,0.5,0.4,0.7,0.8
	c0.2,0.4,0.3,1,0.3,1.7c0,0.7-0.1,1.3-0.3,1.7c-0.1,0.4-0.3,0.7-0.5,0.8c-0.3,0.2-0.7,0.3-1.2,0.3H215.964 M215.164,59.556h2.1
	c0.6,0,1.1-0.1,1.5-0.3c0.3-0.3,0.6-0.7,0.9-1.2c0.2-0.6,0.3-1.3,0.3-2.1c0-0.6-0.1-1.1-0.2-1.6c-0.1-0.4-0.3-0.8-0.6-1.1
	c-0.2-0.3-0.5-0.5-0.9-0.6c-0.2-0.1-0.6-0.2-1.1-0.2h-2V59.556"/>
<rect x="221.164" y="52.456" fill-rule="evenodd" clip-rule="evenodd" width="0.8" height="7.1"/>
<polygon fill-rule="evenodd" clip-rule="evenodd" points="223.264,59.556 224.064,59.556 224.064,54.056 227.064,59.556 
	227.864,59.556 227.864,52.456 227.164,52.456 227.164,58.056 224.064,52.456 223.264,52.456 "/>
<path fill-rule="evenodd" clip-rule="evenodd" d="M231.864,56.756h1.7v1.4c-0.1,0.2-0.4,0.3-0.7,0.5c-0.3,0.1-0.6,0.2-0.9,0.2
	c-0.7,0-1.2-0.2-1.6-0.7c-0.4-0.5-0.6-1.2-0.6-2.1c0-0.7,0.1-1.2,0.3-1.6c0.2-0.5,0.4-0.8,0.7-1s0.7-0.3,1.1-0.3
	c0.3,0,0.6,0.1,0.8,0.2s0.4,0.2,0.6,0.4c0.1,0.2,0.2,0.5,0.3,0.9l0.7-0.2c-0.1-0.5-0.3-0.9-0.5-1.2c-0.2-0.3-0.4-0.5-0.7-0.7
	c-0.4-0.1-0.7-0.2-1.2-0.2s-1,0.1-1.5,0.4c-0.4,0.3-0.7,0.7-1,1.3c-0.2,0.6-0.4,1.2-0.4,2c0,0.8,0.2,1.4,0.4,2
	c0.3,0.5,0.6,0.9,1.1,1.2c0.4,0.3,0.9,0.4,1.5,0.4c0.4,0,0.8-0.1,1.2-0.2c0.4-0.2,0.8-0.5,1.2-0.9v-2.6h-2.5V56.756"/>
<polygon fill-rule="evenodd" clip-rule="evenodd" points="237.764,59.556 242.064,59.556 242.064,58.756 238.564,58.756 
	238.564,56.356 241.764,56.356 241.764,55.456 238.564,55.456 238.564,53.356 241.964,53.356 241.964,52.456 237.764,52.456 "/>
<path fill-rule="evenodd" clip-rule="evenodd" d="M244.164,59.556h0.8l1.2-5.4c0.1-0.2,0.1-0.5,0.2-0.8l0.2,0.8l1.2,5.4h0.7l1.6-7.1
	h-0.7l-1,4.6c-0.1,0.5-0.2,1.1-0.2,1.5c-0.1-0.8-0.3-1.6-0.5-2.5l-0.8-3.6h-0.9l-1.2,4.8l-0.2,1.3c-0.1-0.5-0.2-0.9-0.3-1.4
	l-0.8-4.7h-0.8L244.164,59.556"/>
<path fill-rule="evenodd" clip-rule="evenodd" d="M250.564,57.256c0,0.4,0.1,0.7,0.2,1c0.1,0.3,0.2,0.6,0.4,0.8
	c0.5,0.4,1,0.6,1.8,0.6c0.4,0,0.8-0.1,1.2-0.2c0.3-0.2,0.5-0.5,0.7-0.8c0.2-0.3,0.3-0.7,0.3-1.1s-0.1-0.8-0.3-1
	c-0.1-0.3-0.4-0.6-0.8-0.8c-0.2-0.1-0.6-0.2-1.2-0.4c-0.6-0.1-0.9-0.3-1.1-0.5c-0.2-0.1-0.3-0.3-0.3-0.6c0-0.3,0.2-0.6,0.4-0.8
	s0.6-0.3,1-0.3c0.4,0,0.7,0.1,1,0.4c0.2,0.2,0.4,0.5,0.4,1l0.7-0.1c0-0.4-0.1-0.8-0.3-1.1c-0.1-0.3-0.4-0.6-0.7-0.7
	c-0.3-0.2-0.7-0.3-1.1-0.3c-0.7,0-1.2,0.2-1.5,0.6c-0.4,0.3-0.6,0.8-0.6,1.4c0,0.3,0.1,0.6,0.2,0.8c0.1,0.3,0.3,0.5,0.5,0.6
	c0.3,0.2,0.7,0.4,1.2,0.5c0.6,0.2,1,0.4,1.2,0.5c0.2,0.1,0.3,0.2,0.4,0.3c0.1,0.2,0.2,0.4,0.2,0.6c0,0.3-0.2,0.6-0.4,0.9
	c-0.3,0.2-0.6,0.3-1.1,0.3c-0.3,0-0.6-0.1-0.8-0.2c-0.3-0.1-0.5-0.3-0.6-0.5c-0.2-0.3-0.2-0.6-0.3-0.9H250.564"/>
<rect x="255.864" y="56.556" fill-rule="evenodd" clip-rule="evenodd" width="2.2" height="0.9"/>
<path fill-rule="evenodd" clip-rule="evenodd" d="M258.664,57.656c0,0.6,0.2,1.1,0.5,1.5c0.4,0.4,0.8,0.5,1.3,0.5s1-0.2,1.4-0.6
	c0.4-0.4,0.6-0.9,0.6-1.6c0-0.3-0.1-0.6-0.2-0.8c-0.1-0.3-0.2-0.5-0.4-0.6c-0.1-0.2-0.3-0.3-0.5-0.3c0.2-0.2,0.4-0.4,0.6-0.6
	c0.1-0.3,0.2-0.5,0.2-0.9c0-0.5-0.2-0.9-0.5-1.3c-0.4-0.3-0.8-0.5-1.2-0.5c-0.5,0-0.9,0.2-1.2,0.5c-0.3,0.3-0.5,0.7-0.6,1.3l0.7,0.2
	c0.1-0.4,0.2-0.8,0.4-1c0.2-0.2,0.4-0.3,0.7-0.3s0.5,0.1,0.7,0.3c0.1,0.2,0.2,0.5,0.2,0.8c0,0.4-0.1,0.7-0.3,0.9
	c-0.2,0.2-0.5,0.3-0.8,0.3h-0.2v0.8c0.2-0.1,0.3-0.1,0.5-0.1c0.3,0,0.5,0.1,0.8,0.3c0.2,0.3,0.3,0.6,0.3,1c0,0.5-0.1,0.8-0.4,1.1
	c-0.2,0.3-0.5,0.4-0.8,0.4c-0.6,0-1-0.4-1.1-1.4L258.664,57.656"/>
<path fill-rule="evenodd" clip-rule="evenodd" d="M263.564,59.556h0.4c0,0.3-0.1,0.5-0.1,0.7c-0.1,0.2-0.2,0.3-0.4,0.3l0.2,0.4
	c0.2-0.1,0.4-0.3,0.5-0.5c0.1-0.2,0.2-0.5,0.2-0.9v-1h-0.8V59.556"/>
<text transform="matrix(1 0 0 1 0 6.856)" fill="#1d1d1b" font-family="'Helvetica'" font-size="8">NOTES</text>
<text transform="matrix(1 0 0 1 14.3154 76.6147)" fill="#cd1719" font-family="'Helvetica'" font-size="9">O</text>
<text transform="matrix(1 0 0 1 20.9844 76.6147)" fill="#cd1719" font-family="'Helvetica'" font-size="9">btuse angle </text>
<text transform="matrix(1 0 0 1 68.4941 76.6147)" fill="#cd1719" font-family="'Helvetica'" font-size="9"> </text>
<text transform="matrix(1 0 0 1 14.3154 87.2148)"><tspan x="0" y="0" fill="#cd1719" font-family="'Helvetica'" font-size="9">ar</tspan><tspan x="7.506" y="0" fill="#cd1719" font-family="'Helvetica'" font-size="9">r</tspan><tspan x="10.188" y="0" fill="#cd1719" font-family="'Helvetica'" font-size="9">ow</tspan></text>
<text transform="matrix(1 0 0 1 14.3154 107.3706)" fill="#cd1719" font-family="'Helvetica'" font-size="9">G</text>
<path fill="#cd1719" d="M21.857,105.202c0,0.21,0.03,0.423,0.09,0.639c0.06,0.216,0.15,0.411,0.27,0.585
	c0.12,0.174,0.277,0.318,0.473,0.432c0.195,0.114,0.427,0.171,0.698,0.171c0.414,0,0.738-0.109,0.972-0.328
	c0.234-0.219,0.396-0.505,0.486-0.859h0.567c-0.12,0.528-0.341,0.938-0.661,1.228c-0.321,0.291-0.776,0.437-1.363,0.437
	c-0.372,0-0.69-0.066-0.954-0.198c-0.264-0.132-0.48-0.311-0.648-0.536c-0.168-0.225-0.292-0.486-0.374-0.783
	c-0.081-0.297-0.121-0.61-0.121-0.94c0-0.306,0.04-0.606,0.121-0.9c0.081-0.294,0.205-0.556,0.374-0.788
	c0.168-0.231,0.384-0.417,0.648-0.558c0.264-0.141,0.582-0.211,0.954-0.211c0.372,0,0.69,0.075,0.954,0.225
	c0.264,0.15,0.478,0.346,0.643,0.589c0.165,0.243,0.284,0.522,0.355,0.837c0.072,0.315,0.102,0.634,0.09,0.958H21.857z
	 M24.863,104.725c-0.006-0.216-0.044-0.423-0.112-0.621c-0.069-0.198-0.167-0.374-0.293-0.526c-0.126-0.153-0.279-0.276-0.459-0.369
	c-0.18-0.093-0.384-0.139-0.612-0.139c-0.234,0-0.441,0.047-0.621,0.139c-0.18,0.093-0.333,0.216-0.459,0.369
	c-0.126,0.153-0.227,0.33-0.301,0.531c-0.075,0.201-0.125,0.407-0.149,0.617H24.863z M26.186,102.727h0.567v0.801h0.018
	c0.054-0.138,0.13-0.266,0.229-0.383s0.214-0.216,0.346-0.297c0.132-0.081,0.276-0.144,0.432-0.189
	c0.156-0.045,0.315-0.068,0.477-0.068c0.324,0,0.595,0.042,0.814,0.126c0.219,0.084,0.394,0.203,0.526,0.356
	c0.132,0.153,0.225,0.341,0.279,0.563c0.054,0.222,0.081,0.471,0.081,0.747v2.988H29.39v-2.898c0-0.198-0.018-0.382-0.054-0.553
	c-0.036-0.171-0.099-0.319-0.189-0.445s-0.212-0.225-0.365-0.297c-0.153-0.072-0.344-0.108-0.572-0.108
	c-0.228,0-0.431,0.04-0.608,0.121c-0.177,0.081-0.328,0.192-0.454,0.333c-0.126,0.141-0.222,0.309-0.288,0.504
	c-0.066,0.195-0.102,0.407-0.108,0.634v2.709h-0.567V102.727z M31.361,105.202c0,0.21,0.03,0.423,0.09,0.639
	c0.06,0.216,0.15,0.411,0.27,0.585c0.12,0.174,0.277,0.318,0.473,0.432c0.195,0.114,0.427,0.171,0.698,0.171
	c0.414,0,0.738-0.109,0.972-0.328c0.234-0.219,0.396-0.505,0.486-0.859h0.567c-0.12,0.528-0.341,0.938-0.661,1.228
	c-0.321,0.291-0.776,0.437-1.363,0.437c-0.372,0-0.69-0.066-0.954-0.198c-0.264-0.132-0.48-0.311-0.648-0.536
	c-0.168-0.225-0.292-0.486-0.374-0.783c-0.081-0.297-0.121-0.61-0.121-0.94c0-0.306,0.04-0.606,0.121-0.9
	c0.081-0.294,0.205-0.556,0.374-0.788c0.168-0.231,0.384-0.417,0.648-0.558c0.264-0.141,0.582-0.211,0.954-0.211
	c0.372,0,0.69,0.075,0.954,0.225c0.264,0.15,0.478,0.346,0.643,0.589c0.165,0.243,0.284,0.522,0.355,0.837
	c0.072,0.315,0.102,0.634,0.09,0.958H31.361z M34.367,104.725c-0.006-0.216-0.044-0.423-0.112-0.621
	c-0.069-0.198-0.167-0.374-0.293-0.526c-0.126-0.153-0.279-0.276-0.459-0.369c-0.18-0.093-0.384-0.139-0.612-0.139
	c-0.234,0-0.441,0.047-0.621,0.139c-0.18,0.093-0.333,0.216-0.459,0.369c-0.126,0.153-0.227,0.33-0.301,0.531
	c-0.075,0.201-0.125,0.407-0.149,0.617H34.367z M35.699,102.727h0.522v1.089h0.018c0.144-0.378,0.367-0.669,0.671-0.873
	c0.303-0.204,0.664-0.297,1.085-0.279v0.567c-0.258-0.012-0.492,0.023-0.702,0.104c-0.21,0.081-0.392,0.197-0.544,0.346
	c-0.153,0.15-0.272,0.33-0.355,0.54c-0.084,0.21-0.126,0.435-0.126,0.675v2.475h-0.567V102.727z M38.543,100.954h0.567v0.9h-0.567
	V100.954z M38.543,102.727h0.567v4.644h-0.567V102.727z M43.475,104.185c-0.078-0.348-0.224-0.621-0.437-0.819
	c-0.213-0.198-0.506-0.297-0.877-0.297c-0.27,0-0.507,0.057-0.711,0.171c-0.204,0.114-0.373,0.264-0.508,0.45
	c-0.135,0.186-0.237,0.398-0.306,0.634c-0.069,0.237-0.104,0.479-0.104,0.725c0,0.246,0.034,0.488,0.104,0.724
	c0.069,0.237,0.171,0.449,0.306,0.634c0.135,0.186,0.304,0.336,0.508,0.45c0.204,0.114,0.441,0.171,0.711,0.171
	c0.174,0,0.339-0.033,0.495-0.099c0.156-0.066,0.294-0.158,0.414-0.275c0.12-0.117,0.219-0.256,0.297-0.418
	c0.078-0.162,0.126-0.339,0.144-0.531h0.567c-0.078,0.564-0.287,1.005-0.626,1.323c-0.339,0.318-0.77,0.477-1.291,0.477
	c-0.354,0-0.668-0.066-0.941-0.198c-0.273-0.132-0.503-0.309-0.689-0.531c-0.186-0.222-0.327-0.482-0.423-0.779
	c-0.096-0.297-0.144-0.613-0.144-0.949c0-0.33,0.048-0.645,0.144-0.945c0.096-0.3,0.237-0.561,0.423-0.783
	c0.186-0.222,0.415-0.399,0.689-0.531c0.273-0.132,0.586-0.198,0.941-0.198c0.498,0,0.919,0.132,1.264,0.396
	c0.345,0.264,0.55,0.663,0.616,1.197H43.475z M47.678,103.204h-0.792v-0.477h0.792v-0.423c0-0.198,0.015-0.381,0.045-0.549
	c0.03-0.168,0.087-0.312,0.171-0.432c0.084-0.12,0.199-0.213,0.346-0.279c0.147-0.066,0.334-0.099,0.563-0.099
	c0.084,0,0.162,0.003,0.234,0.009c0.072,0.006,0.153,0.015,0.243,0.027v0.486c-0.078-0.012-0.15-0.023-0.216-0.031
	c-0.066-0.009-0.132-0.014-0.198-0.014c-0.156,0-0.276,0.024-0.36,0.072c-0.084,0.048-0.146,0.113-0.185,0.194
	c-0.039,0.081-0.062,0.176-0.068,0.284c-0.006,0.108-0.009,0.225-0.009,0.351v0.405h0.918v0.477h-0.918v4.167h-0.567V103.204z
	 M49.712,100.945h0.567v0.909h-0.567V100.945z M49.712,102.727h0.567v4.644h-0.567V102.727z M51.359,102.727h0.567v0.801h0.018
	c0.054-0.138,0.13-0.266,0.229-0.383s0.214-0.216,0.346-0.297c0.132-0.081,0.276-0.144,0.432-0.189
	c0.156-0.045,0.315-0.068,0.477-0.068c0.324,0,0.595,0.042,0.814,0.126c0.219,0.084,0.394,0.203,0.526,0.356
	c0.132,0.153,0.225,0.341,0.279,0.563c0.054,0.222,0.081,0.471,0.081,0.747v2.988h-0.567v-2.898c0-0.198-0.018-0.382-0.054-0.553
	c-0.036-0.171-0.099-0.319-0.189-0.445s-0.212-0.225-0.365-0.297c-0.153-0.072-0.344-0.108-0.572-0.108
	c-0.228,0-0.431,0.04-0.608,0.121c-0.177,0.081-0.328,0.192-0.454,0.333c-0.126,0.141-0.222,0.309-0.288,0.504
	c-0.066,0.195-0.102,0.407-0.108,0.634v2.709h-0.567V102.727z M56.21,100.954h0.567v0.9H56.21V100.954z M56.21,102.727h0.567v4.644
	H56.21V102.727z M60.647,104.086c-0.006-0.174-0.042-0.325-0.108-0.454c-0.066-0.129-0.155-0.235-0.266-0.319
	c-0.111-0.084-0.238-0.145-0.383-0.185c-0.144-0.039-0.297-0.059-0.459-0.059c-0.126,0-0.254,0.014-0.382,0.041
	c-0.129,0.027-0.247,0.072-0.355,0.136c-0.108,0.063-0.195,0.146-0.261,0.249c-0.066,0.103-0.099,0.229-0.099,0.38
	c0,0.127,0.031,0.234,0.095,0.321c0.063,0.087,0.142,0.161,0.238,0.222c0.096,0.06,0.201,0.11,0.315,0.149
	c0.114,0.039,0.219,0.071,0.315,0.095l0.756,0.17c0.162,0.024,0.322,0.067,0.482,0.13c0.159,0.063,0.3,0.145,0.423,0.247
	c0.123,0.102,0.223,0.227,0.302,0.377c0.078,0.15,0.117,0.326,0.117,0.529c0,0.251-0.057,0.465-0.171,0.642
	c-0.114,0.176-0.26,0.32-0.436,0.431c-0.177,0.111-0.377,0.191-0.599,0.242c-0.222,0.051-0.441,0.076-0.657,0.076
	c-0.546,0-0.989-0.131-1.328-0.392c-0.339-0.261-0.533-0.676-0.581-1.246h0.567c0.024,0.384,0.163,0.674,0.418,0.868
	c0.255,0.195,0.572,0.292,0.949,0.292c0.132,0,0.273-0.015,0.423-0.045c0.15-0.03,0.288-0.081,0.414-0.153
	c0.126-0.072,0.229-0.163,0.311-0.275c0.081-0.111,0.121-0.247,0.121-0.409c0-0.132-0.029-0.246-0.086-0.342
	c-0.057-0.096-0.134-0.175-0.229-0.238c-0.096-0.063-0.206-0.115-0.328-0.158c-0.123-0.042-0.247-0.078-0.374-0.108l-0.729-0.162
	c-0.186-0.048-0.357-0.104-0.513-0.167c-0.156-0.063-0.293-0.141-0.409-0.234c-0.117-0.093-0.209-0.207-0.275-0.342
	c-0.066-0.135-0.099-0.302-0.099-0.5c0-0.234,0.052-0.435,0.158-0.603c0.105-0.168,0.241-0.303,0.409-0.405
	c0.168-0.102,0.355-0.177,0.563-0.225c0.207-0.048,0.412-0.072,0.617-0.072c0.234,0,0.451,0.03,0.652,0.09
	c0.201,0.06,0.378,0.153,0.531,0.279c0.153,0.126,0.274,0.282,0.364,0.468c0.09,0.186,0.141,0.405,0.153,0.657H60.647z
	 M62.186,100.945h0.567v2.583h0.018c0.054-0.138,0.13-0.266,0.229-0.383s0.214-0.216,0.346-0.297
	c0.132-0.081,0.276-0.144,0.432-0.189c0.156-0.045,0.315-0.068,0.477-0.068c0.324,0,0.595,0.042,0.814,0.126
	c0.219,0.084,0.394,0.203,0.526,0.356c0.132,0.153,0.225,0.341,0.279,0.563c0.054,0.222,0.081,0.471,0.081,0.747v2.988H65.39v-2.898
	c0-0.198-0.018-0.382-0.054-0.553c-0.036-0.171-0.099-0.319-0.189-0.445s-0.212-0.225-0.365-0.297
	c-0.153-0.072-0.344-0.108-0.572-0.108c-0.228,0-0.431,0.04-0.608,0.121c-0.177,0.081-0.328,0.192-0.454,0.333
	c-0.126,0.141-0.222,0.309-0.288,0.504c-0.066,0.195-0.102,0.407-0.108,0.634v2.709h-0.567V100.945z"/>
<text transform="matrix(1 0 0 1 66.4873 107.3706)" fill="#cd1719" font-family="'Helvetica'" font-size="9"> </text>
<text transform="matrix(1 0 0 1 14.3154 117.9707)" fill="#cd1719" font-family="'Helvetica'" font-size="9">description</text>
<text transform="matrix(1 0 0 1 14.3154 41.6069)" fill="#cd1719" font-family="'Helvetica'" font-size="9">G</text>
<text transform="matrix(1 0 0 1 20.9844 41.6069)" fill="#cd1719" font-family="'Helvetica'" font-size="9">eneric system</text>
<text transform="matrix(1 0 0 1 74.4883 41.6069)" fill="#cd1719" font-family="'Helvetica'" font-size="9"> </text>
<text transform="matrix(1 0 0 1 14.3154 52.207)" fill="#cd1719" font-family="'Helvetica'" font-size="9">description</text>
<text transform="matrix(1 0 0 1 14.3154 131.6074)" fill="#cd1719" font-family="'Helvetica'" font-size="9">F</text>
<text transform="matrix(1 0 0 1 19.1475 131.6074)" fill="#cd1719" font-family="'Helvetica'" font-size="9">inish code</text>
<text transform="matrix(1 0 0 1 14.3154 29.2056)" fill="#cd1719" font-family="'Helvetica'" font-size="9">S</text>
<text transform="matrix(1 0 0 1 19.9854 29.2056)" fill="#cd1719" font-family="'Helvetica'" font-size="9">ystem code</text>
<text transform="matrix(1 0 0 1 14.3154 64.2842)" fill="#cd1719" font-family="'Helvetica'" font-size="9">C</text>
<text transform="matrix(1 0 0 1 20.6514 64.2842)" fill="#cd1719" font-family="'Helvetica'" font-size="9">ranked lead line</text>
<line fill="none" stroke="#cd1719" stroke-width="0.75" stroke-linecap="round" stroke-linejoin="round" stroke-dasharray="0,2.249" x1="80.01" y1="40.375" x2="209.345" y2="40.375"/>
<line fill="none" stroke="#cd1719" stroke-width="0.75" stroke-linecap="round" stroke-linejoin="round" stroke-dasharray="0,2.152" x1="211.773" y1="42.086" x2="215.032" y2="46.365"/>
<path fill="none" stroke="#cd1719" stroke-width="0.75" stroke-linecap="round" stroke-linejoin="round" d="M215.685,47.221
	L215.685,47.221 M210.47,40.375L210.47,40.375 M77.761,40.375L77.761,40.375"/>
<line fill="none" stroke="#cd1719" stroke-width="0.75" stroke-linecap="round" stroke-linejoin="round" stroke-dasharray="0,2.261" x1="67.538" y1="129.058" x2="197.563" y2="129.058"/>
<line fill="none" stroke="#cd1719" stroke-width="0.75" stroke-linecap="round" stroke-linejoin="round" stroke-dasharray="0,2.26" x1="200.119" y1="127.304" x2="242.162" y2="75.563"/>
<path fill="none" stroke="#cd1719" stroke-width="0.75" stroke-linecap="round" stroke-linejoin="round" d="M242.875,74.686
	L242.875,74.686 M198.694,129.058L198.694,129.058 M65.276,129.058L65.276,129.058"/>
<line fill="none" stroke="#cd1719" stroke-width="0.75" stroke-linecap="round" stroke-linejoin="round" stroke-dasharray="0,2.248" x1="63.413" y1="115.444" x2="181.412" y2="115.444"/>
<line fill="none" stroke="#cd1719" stroke-width="0.75" stroke-linecap="round" stroke-linejoin="round" stroke-dasharray="0,2.237" x1="183.933" y1="113.696" x2="213.973" y2="76.13"/>
<path fill="none" stroke="#cd1719" stroke-width="0.75" stroke-linecap="round" stroke-linejoin="round" d="M214.671,75.257
	L214.671,75.257 M182.535,115.444L182.535,115.444 M61.165,115.444L61.165,115.444"/>
<line fill="none" stroke="#cd1719" stroke-width="0.75" stroke-linecap="round" stroke-linejoin="round" stroke-dasharray="0,2.258" x1="71.787" y1="26.886" x2="228.746" y2="26.886"/>
<line fill="none" stroke="#cd1719" stroke-width="0.75" stroke-linecap="round" stroke-linejoin="round" stroke-dasharray="0,2.197" x1="231.312" y1="28.549" x2="247.833" y2="47.665"/>
<path fill="none" stroke="#cd1719" stroke-width="0.75" stroke-linecap="round" stroke-linejoin="round" d="M248.551,48.495
	L248.551,48.495 M229.875,26.886L229.875,26.886 M69.528,26.886L69.528,26.886"/>
<line fill="none" stroke="#cd1719" stroke-width="0.75" stroke-linecap="round" stroke-linejoin="round" stroke-dasharray="0,2.236" x1="87.226" y1="62.485" x2="130.832" y2="62.485"/>
<line fill="none" stroke="#cd1719" stroke-width="0.75" stroke-linecap="round" stroke-linejoin="round" stroke-dasharray="0,2.407" x1="133.602" y1="64.236" x2="137.731" y2="68.612"/>
<path fill="none" stroke="#cd1719" stroke-width="0.75" stroke-linecap="round" stroke-linejoin="round" d="M138.556,69.487
	L138.556,69.487 M131.95,62.485L131.95,62.485 M84.989,62.485L84.989,62.485"/>
<line fill="none" stroke="#cd1719" stroke-width="0.75" stroke-linecap="round" stroke-linejoin="round" stroke-dasharray="0,2.244" x1="43.013" y1="84.303" x2="122.667" y2="84.303"/>
<path fill="none" stroke="#cd1719" stroke-width="0.75" stroke-linecap="round" stroke-linejoin="round" d="M123.79,84.303
	L123.79,84.303 M40.769,84.303L40.769,84.303"/>
</svg>
