<?xml version="1.0" encoding="utf-8"?>
<!-- Generator: Adobe Illustrator 18.1.1, SVG Export Plug-In . SVG Version: 6.00 Build 0)  -->
<svg version="1.1" id="Layer_1" xmlns="http://www.w3.org/2000/svg" xmlns:xlink="http://www.w3.org/1999/xlink" x="0px" y="0px"
	 viewBox="0 0 278.3 133.5" enable-background="new 0 0 278.3 133.5" xml:space="preserve">
<polyline fill="none" stroke="#000000" stroke-width="0.24" stroke-linejoin="bevel" stroke-miterlimit="1.414" points="144,58.8 
	111.9,58.8 85.4,85.8 "/>
<line fill="none" stroke="#000000" stroke-width="0.72" stroke-linejoin="round" stroke-miterlimit="1.414" x1="85.4" y1="85.8" x2="91.5" y2="87.4"/>
<line fill="none" stroke="#000000" stroke-width="0.72" stroke-linejoin="round" stroke-miterlimit="1.414" x1="85.4" y1="85.8" x2="83.7" y2="79.8"/>
<rect x="80.1" y="29.5" fill="#FFFFFF" width="142.7" height="75.1"/>
<polyline fill="none" stroke="#000000" stroke-width="0.24" stroke-linejoin="bevel" stroke-miterlimit="1.414" points="189.8,56.7 
	157.7,56.7 131.2,83.7 "/>
<line fill="none" stroke="#000000" stroke-width="0.72" stroke-linejoin="round" stroke-miterlimit="1.414" x1="131.2" y1="83.7" x2="137.3" y2="85.3"/>
<line fill="none" stroke="#000000" stroke-width="0.72" stroke-linejoin="round" stroke-miterlimit="1.414" x1="131.2" y1="83.7" x2="129.5" y2="77.7"/>
<path fill-rule="evenodd" clip-rule="evenodd" d="M194.3,66.5V64h1.5c0.4,0,0.7,0,0.9,0.1c0.1,0.1,0.3,0.2,0.4,0.4
	c0.1,0.2,0.1,0.5,0.1,0.7c0,0.5-0.1,0.8-0.3,1c-0.2,0.2-0.6,0.3-1,0.3H194.3 M193.6,70.2h0.7v-2.8h1.5c0.8,0,1.4-0.2,1.7-0.6
	c0.4-0.4,0.5-1,0.5-1.6c0-0.5-0.1-0.9-0.3-1.2c-0.2-0.4-0.5-0.6-0.8-0.7c-0.2-0.1-0.6-0.1-1.1-0.1h-2.2V70.2"/>
<path fill-rule="evenodd" clip-rule="evenodd" d="M200,67.3l0.7-2c0.1-0.5,0.2-0.9,0.3-1.4c0.1,0.4,0.2,0.9,0.4,1.5l0.6,1.9H200
	 M198.4,70.2h0.8l0.6-2.1h2.4l0.7,2.1h0.9l-2.4-7h-0.8L198.4,70.2"/>
<rect x="204.6" y="63.2" fill-rule="evenodd" clip-rule="evenodd" width="0.7" height="7"/>
<polygon fill-rule="evenodd" clip-rule="evenodd" points="206.6,70.2 207.4,70.2 207.4,64.7 210.4,70.2 211.2,70.2 211.2,63.2 
	210.5,63.2 210.5,68.7 207.4,63.2 206.6,63.2 "/>
<polygon fill-rule="evenodd" clip-rule="evenodd" points="214,70.2 214.8,70.2 214.8,64 216.7,64 216.7,63.2 212.1,63.2 212.1,64 
	214,64 "/>
<polygon fill-rule="evenodd" clip-rule="evenodd" points="217.5,70.2 221.8,70.2 221.8,69.4 218.3,69.4 218.3,67 221.5,67 
	221.5,66.2 218.3,66.2 218.3,64 221.7,64 221.7,63.2 217.5,63.2 "/>
<path fill-rule="evenodd" clip-rule="evenodd" d="M223.6,69.4V64h1.3c0.4,0,0.7,0,0.9,0.1c0.3,0.2,0.6,0.4,0.8,0.9
	c0.2,0.4,0.3,0.9,0.3,1.7c0,0.6-0.1,1.2-0.3,1.7c-0.1,0.3-0.3,0.6-0.6,0.8c-0.2,0.1-0.6,0.2-1.1,0.2H223.6 M222.9,70.2h2.1
	c0.6,0,1-0.1,1.4-0.3c0.4-0.2,0.7-0.6,0.9-1.2c0.3-0.6,0.4-1.2,0.4-2c0-0.7-0.1-1.2-0.2-1.7c-0.2-0.4-0.4-0.8-0.6-1.1
	c-0.3-0.3-0.6-0.5-0.9-0.6c-0.3-0.1-0.6-0.1-1.1-0.1h-2V70.2"/>
<path fill-rule="evenodd" clip-rule="evenodd" d="M231.8,66.5V64h1.5c0.4,0,0.6,0,0.8,0.1c0.1,0.1,0.3,0.2,0.4,0.4
	c0.1,0.2,0.1,0.5,0.1,0.7c0,0.5-0.1,0.8-0.3,1c-0.2,0.2-0.5,0.3-1,0.3H231.8 M231,70.2h0.8v-2.8h1.5c0.8,0,1.3-0.2,1.6-0.6
	c0.4-0.4,0.5-1,0.5-1.6c0-0.5-0.1-0.9-0.3-1.2c-0.2-0.4-0.4-0.6-0.8-0.7c-0.2-0.1-0.6-0.1-1.1-0.1H231V70.2"/>
<polygon fill-rule="evenodd" clip-rule="evenodd" points="237.9,70.2 238.7,70.2 238.7,64 240.6,64 240.6,63.2 236,63.2 236,64 
	237.9,64 "/>
<rect x="241" y="67.2" fill-rule="evenodd" clip-rule="evenodd" width="2.2" height="0.9"/>
<path fill-rule="evenodd" clip-rule="evenodd" d="M246.1,67.7h-1.9l1.9-3.1V67.7z M246.1,70.2h0.7v-1.7h0.8v-0.8h-0.8v-4.5h-0.6
	l-2.7,4.5v0.8h2.6V70.2"/>
<path fill-rule="evenodd" clip-rule="evenodd" d="M197.7,57.1c-0.1,0.6-0.3,1.1-0.6,1.4c-0.3,0.3-0.7,0.4-1.1,0.4
	c-0.6,0-1-0.2-1.4-0.7c-0.3-0.5-0.5-1.2-0.5-2.2c0-0.6,0.1-1.1,0.3-1.6c0.2-0.4,0.4-0.7,0.7-0.9c0.3-0.2,0.6-0.3,1-0.3
	c0.8,0,1.3,0.5,1.5,1.5l0.8-0.2c-0.2-0.7-0.5-1.2-0.9-1.6c-0.4-0.3-0.8-0.5-1.4-0.5c-0.5,0-1,0.1-1.4,0.4c-0.4,0.3-0.7,0.7-1,1.2
	c-0.2,0.6-0.4,1.2-0.4,2c0,0.8,0.2,1.5,0.4,2.1c0.3,0.6,0.6,1,0.9,1.2c0.4,0.3,0.9,0.4,1.4,0.4c0.6,0,1.2-0.2,1.6-0.6
	c0.4-0.3,0.7-0.9,0.9-1.7L197.7,57.1"/>
<polygon fill-rule="evenodd" clip-rule="evenodd" points="199.4,59.6 203,59.6 203,58.8 200.2,58.8 200.2,52.5 199.4,52.5 "/>
<path fill-rule="evenodd" clip-rule="evenodd" d="M205,56.7l0.6-2.1c0.2-0.4,0.3-0.9,0.3-1.3c0.1,0.4,0.3,0.8,0.5,1.4l0.6,2H205
	 M203.3,59.6h0.8l0.7-2.1h2.4l0.7,2.1h0.9l-2.4-7.1h-0.9L203.3,59.6"/>
<path fill-rule="evenodd" clip-rule="evenodd" d="M210.1,58.8v-5.4h1.2c0.5,0,0.8,0,1,0.1c0.3,0.1,0.6,0.4,0.8,0.8s0.3,1,0.3,1.7
	c0,0.7-0.1,1.3-0.3,1.7s-0.4,0.7-0.6,0.8c-0.3,0.2-0.6,0.3-1.1,0.3H210.1 M209.3,59.6h2.1c0.6,0,1.1-0.1,1.5-0.3
	c0.4-0.3,0.7-0.7,0.9-1.2c0.2-0.6,0.4-1.3,0.4-2.1c0-0.6-0.1-1.1-0.3-1.6c-0.1-0.4-0.3-0.8-0.5-1.1c-0.3-0.3-0.6-0.5-0.9-0.6
	c-0.3-0.1-0.7-0.2-1.1-0.2h-2.1V59.6"/>
<path fill-rule="evenodd" clip-rule="evenodd" d="M216,58.8v-5.4h1.2c0.4,0,0.8,0,1,0.1c0.3,0.1,0.5,0.4,0.7,0.8
	c0.2,0.4,0.3,1,0.3,1.7c0,0.7-0.1,1.3-0.3,1.7c-0.1,0.4-0.3,0.7-0.5,0.8c-0.3,0.2-0.7,0.3-1.2,0.3H216 M215.2,59.6h2.1
	c0.6,0,1.1-0.1,1.5-0.3c0.3-0.3,0.6-0.7,0.9-1.2c0.2-0.6,0.3-1.3,0.3-2.1c0-0.6-0.1-1.1-0.2-1.6c-0.1-0.4-0.3-0.8-0.6-1.1
	c-0.2-0.3-0.5-0.5-0.9-0.6c-0.2-0.1-0.6-0.2-1.1-0.2h-2V59.6"/>
<rect x="221.2" y="52.5" fill-rule="evenodd" clip-rule="evenodd" width="0.8" height="7.1"/>
<polygon fill-rule="evenodd" clip-rule="evenodd" points="223.3,59.6 224.1,59.6 224.1,54.1 227.1,59.6 227.9,59.6 227.9,52.5 
	227.2,52.5 227.2,58.1 224.1,52.5 223.3,52.5 "/>
<path fill-rule="evenodd" clip-rule="evenodd" d="M231.9,56.8h1.7v1.4c-0.1,0.2-0.4,0.3-0.7,0.5c-0.3,0.1-0.6,0.2-0.9,0.2
	c-0.7,0-1.2-0.2-1.6-0.7c-0.4-0.5-0.6-1.2-0.6-2.1c0-0.7,0.1-1.2,0.3-1.6c0.2-0.5,0.4-0.8,0.7-1s0.7-0.3,1.1-0.3
	c0.3,0,0.6,0.1,0.8,0.2s0.4,0.2,0.6,0.4c0.1,0.2,0.2,0.5,0.3,0.9l0.7-0.2c-0.1-0.5-0.3-0.9-0.5-1.2c-0.2-0.3-0.4-0.5-0.7-0.7
	c-0.4-0.1-0.7-0.2-1.2-0.2s-1,0.1-1.5,0.4c-0.4,0.3-0.7,0.7-1,1.3c-0.2,0.6-0.4,1.2-0.4,2c0,0.8,0.2,1.4,0.4,2
	c0.3,0.5,0.6,0.9,1.1,1.2c0.4,0.3,0.9,0.4,1.5,0.4c0.4,0,0.8-0.1,1.2-0.2c0.4-0.2,0.8-0.5,1.2-0.9V56h-2.5V56.8"/>
<polygon fill-rule="evenodd" clip-rule="evenodd" points="237.8,59.6 242.1,59.6 242.1,58.8 238.6,58.8 238.6,56.4 241.8,56.4 
	241.8,55.5 238.6,55.5 238.6,53.4 242,53.4 242,52.5 237.8,52.5 "/>
<path fill-rule="evenodd" clip-rule="evenodd" d="M244.2,59.6h0.8l1.2-5.4c0.1-0.2,0.1-0.5,0.2-0.8l0.2,0.8l1.2,5.4h0.7l1.6-7.1
	h-0.7l-1,4.6c-0.1,0.5-0.2,1.1-0.2,1.5c-0.1-0.8-0.3-1.6-0.5-2.5l-0.8-3.6H246l-1.2,4.8l-0.2,1.3c-0.1-0.5-0.2-0.9-0.3-1.4l-0.8-4.7
	h-0.8L244.2,59.6"/>
<path fill-rule="evenodd" clip-rule="evenodd" d="M250.6,57.3c0,0.4,0.1,0.7,0.2,1c0.1,0.3,0.2,0.6,0.4,0.8c0.5,0.4,1,0.6,1.8,0.6
	c0.4,0,0.8-0.1,1.2-0.2c0.3-0.2,0.5-0.5,0.7-0.8c0.2-0.3,0.3-0.7,0.3-1.1s-0.1-0.8-0.3-1c-0.1-0.3-0.4-0.6-0.8-0.8
	c-0.2-0.1-0.6-0.2-1.2-0.4c-0.6-0.1-0.9-0.3-1.1-0.5c-0.2-0.1-0.3-0.3-0.3-0.6c0-0.3,0.2-0.6,0.4-0.8s0.6-0.3,1-0.3
	c0.4,0,0.7,0.1,1,0.4c0.2,0.2,0.4,0.5,0.4,1l0.7-0.1c0-0.4-0.1-0.8-0.3-1.1c-0.1-0.3-0.4-0.6-0.7-0.7c-0.3-0.2-0.7-0.3-1.1-0.3
	c-0.7,0-1.2,0.2-1.5,0.6c-0.4,0.3-0.6,0.8-0.6,1.4c0,0.3,0.1,0.6,0.2,0.8c0.1,0.3,0.3,0.5,0.5,0.6c0.3,0.2,0.7,0.4,1.2,0.5
	c0.6,0.2,1,0.4,1.2,0.5c0.2,0.1,0.3,0.2,0.4,0.3c0.1,0.2,0.2,0.4,0.2,0.6c0,0.3-0.2,0.6-0.4,0.9c-0.3,0.2-0.6,0.3-1.1,0.3
	c-0.3,0-0.6-0.1-0.8-0.2c-0.3-0.1-0.5-0.3-0.6-0.5c-0.2-0.3-0.2-0.6-0.3-0.9H250.6"/>
<rect x="255.9" y="56.6" fill-rule="evenodd" clip-rule="evenodd" width="2.2" height="0.9"/>
<path fill-rule="evenodd" clip-rule="evenodd" d="M258.7,57.7c0,0.6,0.2,1.1,0.5,1.5c0.4,0.4,0.8,0.5,1.3,0.5s1-0.2,1.4-0.6
	c0.4-0.4,0.6-0.9,0.6-1.6c0-0.3-0.1-0.6-0.2-0.8c-0.1-0.3-0.2-0.5-0.4-0.6c-0.1-0.2-0.3-0.3-0.5-0.3c0.2-0.2,0.4-0.4,0.6-0.6
	c0.1-0.3,0.2-0.5,0.2-0.9c0-0.5-0.2-0.9-0.5-1.3c-0.4-0.3-0.8-0.5-1.2-0.5c-0.5,0-0.9,0.2-1.2,0.5c-0.3,0.3-0.5,0.7-0.6,1.3l0.7,0.2
	c0.1-0.4,0.2-0.8,0.4-1c0.2-0.2,0.4-0.3,0.7-0.3s0.5,0.1,0.7,0.3c0.1,0.2,0.2,0.5,0.2,0.8c0,0.4-0.1,0.7-0.3,0.9
	c-0.2,0.2-0.5,0.3-0.8,0.3h-0.2v0.8c0.2-0.1,0.3-0.1,0.5-0.1c0.3,0,0.5,0.1,0.8,0.3c0.2,0.3,0.3,0.6,0.3,1c0,0.5-0.1,0.8-0.4,1.1
	c-0.2,0.3-0.5,0.4-0.8,0.4c-0.6,0-1-0.4-1.1-1.4L258.7,57.7"/>
<path fill-rule="evenodd" clip-rule="evenodd" d="M263.6,59.6h0.4c0,0.3-0.1,0.5-0.1,0.7c-0.1,0.2-0.2,0.3-0.4,0.3l0.2,0.4
	c0.2-0.1,0.4-0.3,0.5-0.5c0.1-0.2,0.2-0.5,0.2-0.9v-1h-0.8V59.6"/>
<rect x="117.6" y="35.9" fill="none" width="160.6" height="60.9"/>
<text transform="matrix(1 0 0 1 0 6.856)" fill="#1D1D1B" font-family="'Helvetica'" font-size="8">NOTES</text>
<text transform="matrix(1 0 0 1 14.3154 76.6147)" fill="#CD1719" font-family="'Helvetica'" font-size="9">Obtuse angle </text>
<text transform="matrix(1 0 0 1 68.4941 76.6147)" fill="#CD1719" font-family="'Helvetica'" font-size="9"> </text>
<text transform="matrix(1 0 0 1 14.3154 87.2148)"><tspan x="0" y="0" fill="#CD1719" font-family="'Helvetica'" font-size="9">ar</tspan><tspan x="7.5" y="0" fill="#CD1719" font-family="'Helvetica'" font-size="9">r</tspan><tspan x="10.2" y="0" fill="#CD1719" font-family="'Helvetica'" font-size="9">ow</tspan></text>
<text transform="matrix(1 0 0 1 14.3154 107.3706)" fill="#CD1719" font-family="'Helvetica'" font-size="9">Generic finish</text>
<text transform="matrix(1 0 0 1 79.8095 100.8096)" fill="#CD1719" font-family="'Helvetica'" font-size="9"> </text>
<text transform="matrix(1 0 0 1 14.3154 117.9707)" fill="#CD1719" font-family="'Helvetica'" font-size="9">description</text>
<text transform="matrix(1 0 0 1 14.3154 41.6069)" fill="#CD1719" font-family="'Helvetica'" font-size="9">Generic system</text>
<text transform="matrix(1 0 0 1 74.4883 41.6069)" fill="#CD1719" font-family="'Helvetica'" font-size="9"> </text>
<text transform="matrix(1 0 0 1 14.3154 52.207)" fill="#CD1719" font-family="'Helvetica'" font-size="9">description</text>
<text transform="matrix(1 0 0 1 14.3154 131.6074)" fill="#CD1719" font-family="'Helvetica'" font-size="9">Finish code</text>
<text transform="matrix(1 0 0 1 14.3154 29.2056)" fill="#CD1719" font-family="'Helvetica'" font-size="9">System code</text>
<text transform="matrix(1 0 0 1 14.3154 64.2842)" fill="#CD1719" font-family="'Helvetica'" font-size="9">Cranked lead line</text>
<line fill="none" stroke="#CD1719" stroke-width="0.75" stroke-linecap="round" stroke-linejoin="round" stroke-dasharray="0,2.249" x1="80" y1="40.4" x2="209.3" y2="40.4"/>
<line fill="none" stroke="#CD1719" stroke-width="0.75" stroke-linecap="round" stroke-linejoin="round" stroke-dasharray="0,2.152" x1="211.8" y1="42.1" x2="215" y2="46.4"/>
<path fill="none" stroke="#CD1719" stroke-width="0.75" stroke-linecap="round" stroke-linejoin="round" d="M215.7,47.2L215.7,47.2
	 M210.5,40.4L210.5,40.4 M77.8,40.4L77.8,40.4"/>
<line fill="none" stroke="#CD1719" stroke-width="0.75" stroke-linecap="round" stroke-linejoin="round" stroke-dasharray="0,2.261" x1="67.5" y1="129.1" x2="197.6" y2="129.1"/>
<line fill="none" stroke="#CD1719" stroke-width="0.75" stroke-linecap="round" stroke-linejoin="round" stroke-dasharray="0,2.26" x1="200.1" y1="127.3" x2="242.2" y2="75.6"/>
<path fill="none" stroke="#CD1719" stroke-width="0.75" stroke-linecap="round" stroke-linejoin="round" d="M242.9,74.7L242.9,74.7
	 M198.7,129.1L198.7,129.1 M65.3,129.1L65.3,129.1"/>
<line fill="none" stroke="#CD1719" stroke-width="0.75" stroke-linecap="round" stroke-linejoin="round" stroke-dasharray="0,2.248" x1="63.4" y1="115.4" x2="181.4" y2="115.4"/>
<line fill="none" stroke="#CD1719" stroke-width="0.75" stroke-linecap="round" stroke-linejoin="round" stroke-dasharray="0,2.237" x1="183.9" y1="113.7" x2="214" y2="76.1"/>
<path fill="none" stroke="#CD1719" stroke-width="0.75" stroke-linecap="round" stroke-linejoin="round" d="M214.7,75.3L214.7,75.3
	 M182.5,115.4L182.5,115.4 M61.2,115.4L61.2,115.4"/>
<line fill="none" stroke="#CD1719" stroke-width="0.75" stroke-linecap="round" stroke-linejoin="round" stroke-dasharray="0,2.258" x1="71.8" y1="26.9" x2="228.7" y2="26.9"/>
<line fill="none" stroke="#CD1719" stroke-width="0.75" stroke-linecap="round" stroke-linejoin="round" stroke-dasharray="0,2.197" x1="231.3" y1="28.5" x2="247.8" y2="47.7"/>
<path fill="none" stroke="#CD1719" stroke-width="0.75" stroke-linecap="round" stroke-linejoin="round" d="M248.6,48.5L248.6,48.5
	 M229.9,26.9L229.9,26.9 M69.5,26.9L69.5,26.9"/>
<line fill="none" stroke="#CD1719" stroke-width="0.75" stroke-linecap="round" stroke-linejoin="round" stroke-dasharray="0,2.236" x1="87.2" y1="62.5" x2="130.8" y2="62.5"/>
<line fill="none" stroke="#CD1719" stroke-width="0.75" stroke-linecap="round" stroke-linejoin="round" stroke-dasharray="0,2.407" x1="133.6" y1="64.2" x2="137.7" y2="68.6"/>
<path fill="none" stroke="#CD1719" stroke-width="0.75" stroke-linecap="round" stroke-linejoin="round" d="M138.6,69.5L138.6,69.5
	 M132,62.5L132,62.5 M85,62.5L85,62.5"/>
<line fill="none" stroke="#CD1719" stroke-width="0.75" stroke-linecap="round" stroke-linejoin="round" stroke-dasharray="0,2.244" x1="43" y1="84.3" x2="122.7" y2="84.3"/>
<path fill="none" stroke="#CD1719" stroke-width="0.75" stroke-linecap="round" stroke-linejoin="round" d="M123.8,84.3L123.8,84.3
	 M40.8,84.3L40.8,84.3"/>
</svg>
