<svg class="Layer_1" xmlns="http://www.w3.org/2000/svg" xmlns:xlink="http://www.w3.org/1999/xlink" x="0px" y="0px"
	 viewBox="0 0 270 210.663" enable-background="new 0 0 270 210.663" xml:space="preserve">
<line fill="none" stroke="#000000" stroke-width="0.72" stroke-linejoin="round" stroke-miterlimit="1.414" x1="185.122" y1="177.463" x2="186.722" y2="180.163"/>
<line fill="none" stroke="#000000" stroke-width="0.72" stroke-linejoin="round" stroke-miterlimit="1.414" x1="185.122" y1="177.463" x2="186.722" y2="174.763"/>
<line fill="none" stroke="#000000" stroke-width="0.24" stroke-linejoin="bevel" stroke-miterlimit="1.414" x1="185.122" y1="177.463" x2="197.522" y2="177.463"/>
<line fill="none" stroke="#000000" stroke-width="0.72" stroke-linejoin="round" stroke-miterlimit="1.414" x1="225.922" y1="159.663" x2="223.222" y2="161.263"/>
<line fill="none" stroke="#000000" stroke-width="0.72" stroke-linejoin="round" stroke-miterlimit="1.414" x1="225.922" y1="159.663" x2="228.622" y2="161.263"/>
<line fill="none" stroke="#000000" stroke-width="0.24" stroke-linejoin="bevel" stroke-miterlimit="1.414" x1="225.922" y1="159.663" x2="225.922" y2="171.963"/>
<polyline fill="none" stroke="#b3b3b3" stroke-width="0.72" stroke-linejoin="round" stroke-miterlimit="1.414" points="
	170.122,47.963 170.122,47.663 169.722,47.663 169.722,48.763 171.022,48.763 171.022,49.163 173.122,49.163 173.122,48.763 
	173.122,47.663 172.722,47.663 172.722,47.963 "/>
<polyline fill="none" stroke="#b3b3b3" stroke-width="0.72" stroke-linejoin="round" stroke-miterlimit="1.414" points="
	170.122,75.663 170.122,75.963 169.722,75.963 169.722,74.863 171.022,74.863 171.022,74.463 173.122,74.463 173.122,74.863 
	173.122,75.963 172.722,75.963 172.722,75.663 "/>
<path fill="none" stroke="#b3b3b3" stroke-width="0.24" stroke-linejoin="bevel" stroke-miterlimit="1.414" d="M143.422,48.963
	c0.1,7.2,3.1,14,8.2,18.9c5.2,4.8,12,7.4,19.1,6.9"/>
<rect x="143.422" y="48.963" fill="none" stroke="#b3b3b3" stroke-width="0.24" stroke-linejoin="bevel" stroke-miterlimit="1.414" width="26.1" height="1.2"/>
<polyline fill="none" stroke="#b3b3b3" stroke-width="0.24" stroke-linejoin="bevel" stroke-miterlimit="1.414" points="
	169.522,48.863 169.522,49.563 169.522,49.863 169.422,49.863 169.422,48.863 "/>
<polyline fill="none" stroke="#b3b3b3" stroke-width="0.24" stroke-linejoin="bevel" stroke-miterlimit="1.414" points="
	169.622,48.663 170.322,48.663 170.622,48.663 170.622,48.763 169.622,48.763 "/>
<polyline fill="none" stroke="#b3b3b3" stroke-width="0.24" stroke-linejoin="bevel" stroke-miterlimit="1.414" points="
	169.622,48.763 170.322,48.763 170.622,48.763 170.622,48.863 169.622,48.863 "/>
<line fill="none" stroke="#b3b3b3" stroke-width="0.48" stroke-linejoin="round" stroke-miterlimit="1.414" x1="169.522" y1="47.663" x2="173.122" y2="47.663"/>
<line fill="none" stroke="#b3b3b3" stroke-width="0.48" stroke-linejoin="round" stroke-miterlimit="1.414" x1="173.122" y1="75.963" x2="173.122" y2="129.163"/>
<line fill="none" stroke="#b3b3b3" stroke-width="0.48" stroke-linejoin="round" stroke-miterlimit="1.414" x1="169.522" y1="75.963" x2="173.122" y2="75.963"/>
<line fill="none" stroke="#b3b3b3" stroke-width="0.48" stroke-linejoin="round" stroke-miterlimit="1.414" x1="169.522" y1="75.963" x2="169.522" y2="210.663"/>
<polyline fill="none" stroke="#b3b3b3" stroke-width="0.72" stroke-linejoin="round" stroke-miterlimit="1.414" points="
	213.322,39.563 213.522,39.563 213.522,39.163 212.522,39.163 212.522,40.463 212.022,40.463 212.022,42.563 212.522,42.563 
	213.522,42.563 213.522,42.163 213.322,42.163 "/>
<polyline fill="none" stroke="#b3b3b3" stroke-width="0.72" stroke-linejoin="round" stroke-miterlimit="1.414" points="
	185.522,39.563 185.222,39.563 185.222,39.163 186.322,39.163 186.322,40.463 186.722,40.463 186.722,42.563 186.322,42.563 
	185.222,42.563 185.222,42.163 185.522,42.163 "/>
<path fill="none" stroke="#b3b3b3" stroke-width="0.24" stroke-linejoin="bevel" stroke-miterlimit="1.414" d="M212.222,12.863
	c-7.1,0.1-13.9,3-18.8,8.2c-4.9,5.1-7.4,12-7,19"/>
<rect x="211.122" y="12.863" fill="none" stroke="#b3b3b3" stroke-width="0.24" stroke-linejoin="bevel" stroke-miterlimit="1.414" width="1.1" height="26"/>
<polyline fill="none" stroke="#b3b3b3" stroke-width="0.24" stroke-linejoin="bevel" stroke-miterlimit="1.414" points="
	212.322,38.863 211.622,38.863 211.422,38.863 212.322,38.863 "/>
<polyline fill="none" stroke="#b3b3b3" stroke-width="0.24" stroke-linejoin="bevel" stroke-miterlimit="1.414" points="
	212.522,38.963 212.522,39.663 212.522,39.963 212.522,39.063 "/>
<polyline fill="none" stroke="#b3b3b3" stroke-width="0.24" stroke-linejoin="bevel" stroke-miterlimit="1.414" points="
	212.422,39.063 212.422,39.663 212.422,39.963 212.422,38.963 "/>
<line fill="none" stroke="#b3b3b3" stroke-width="0.48" stroke-linejoin="round" stroke-miterlimit="1.414" x1="173.122" y1="132.763" x2="173.122" y2="210.663"/>
<line fill="none" stroke="#b3b3b3" stroke-width="0.48" stroke-linejoin="round" stroke-miterlimit="1.414" x1="173.122" y1="42.563" x2="173.122" y2="47.663"/>
<line fill="none" stroke="#b3b3b3" stroke-width="0.48" stroke-linejoin="round" stroke-miterlimit="1.414" x1="238.922" y1="132.763" x2="173.122" y2="132.763"/>
<line fill="none" stroke="#b3b3b3" stroke-width="0.48" stroke-linejoin="round" stroke-miterlimit="1.414" x1="238.922" y1="129.163" x2="173.122" y2="129.163"/>
<line fill="none" stroke="#b3b3b3" stroke-width="0.48" stroke-linejoin="round" stroke-miterlimit="1.414" x1="238.922" y1="38.963" x2="213.522" y2="38.963"/>
<line fill="none" stroke="#b3b3b3" stroke-width="0.48" stroke-linejoin="round" stroke-miterlimit="1.414" x1="238.922" y1="42.563" x2="213.522" y2="42.563"/>
<line fill="none" stroke="#b3b3b3" stroke-width="0.48" stroke-linejoin="round" stroke-miterlimit="1.414" x1="213.522" y1="38.963" x2="213.522" y2="42.563"/>
<line fill="none" stroke="#b3b3b3" stroke-width="0.48" stroke-linejoin="round" stroke-miterlimit="1.414" x1="185.222" y1="42.563" x2="173.122" y2="42.563"/>
<line fill="none" stroke="#b3b3b3" stroke-width="0.48" stroke-linejoin="round" stroke-miterlimit="1.414" x1="185.222" y1="38.963" x2="185.222" y2="42.563"/>
<line fill="none" stroke="#b3b3b3" stroke-width="0.48" stroke-linejoin="round" stroke-miterlimit="1.414" x1="185.222" y1="38.963" x2="129.322" y2="38.963"/>
<polyline fill="none" stroke="#b3b3b3" stroke-width="0.48" stroke-linejoin="round" stroke-miterlimit="1.414" points="
	129.322,42.563 169.522,42.563 169.522,47.663 "/>
<line fill="none" stroke="#b3b3b3" stroke-width="0.24" stroke-linejoin="bevel" stroke-miterlimit="1.414" x1="176.022" y1="161.163" x2="176.022" y2="132.763"/>
<rect x="173.122" y="132.763" fill="none" stroke="#b3b3b3" stroke-width="0.24" stroke-linejoin="bevel" stroke-miterlimit="1.414" width="8.5" height="28.4"/>
<rect x="173.122" y="132.763" fill="none" stroke="#b3b3b3" stroke-width="0.24" stroke-linejoin="bevel" stroke-miterlimit="1.414" width="22.7" height="56.7"/>
<line fill="none" stroke="#b3b3b3" stroke-width="0.24" stroke-linejoin="bevel" stroke-miterlimit="1.414" x1="230.422" y1="164.763" x2="230.422" y2="152.063"/>
<rect x="221.922" y="152.063" fill="none" stroke="#b3b3b3" stroke-width="0.24" stroke-linejoin="bevel" stroke-miterlimit="1.414" width="17" height="12.7"/>
<rect x="197.522" y="171.963" fill="none" stroke="#000000" stroke-width="0.48" stroke-linejoin="round" stroke-miterlimit="1.414" width="10.9" height="11"/>
<rect x="220.422" y="171.963" fill="none" stroke="#000000" stroke-width="0.48" stroke-linejoin="round" stroke-miterlimit="1.414" width="11" height="11"/>
<polyline fill="none" stroke="#000000" stroke-width="0.48" stroke-linejoin="round" stroke-miterlimit="1.414" points="
	168.022,112.263 163.122,109.363 158.222,112.263 158.222,117.863 163.122,120.763 168.022,117.863 168.022,112.263 "/>
<polyline fill="none" stroke="#000000" stroke-width="0.48" stroke-linejoin="round" stroke-miterlimit="1.414" points="
	196.522,120.163 191.622,117.363 186.622,120.163 186.622,125.863 191.622,128.663 196.522,125.863 196.522,120.163 "/>
<line fill="none" stroke="#000000" stroke-width="0.48" stroke-linejoin="round" stroke-miterlimit="1.414" x1="168.022" y1="115.063" x2="175.122" y2="115.063"/>
<line fill="none" stroke="#000000" stroke-width="0.48" stroke-linejoin="round" stroke-miterlimit="1.414" x1="191.622" y1="128.663" x2="191.622" y2="135.763"/>
<polyline fill-rule="evenodd" clip-rule="evenodd" fill="#ffffff" points="137.722,18.463 154.422,18.463 154.422,10.763 
	137.722,10.763 "/>
<rect x="137.722" y="10.763" fill="none" stroke="#000000" stroke-width="0.24" stroke-linejoin="bevel" stroke-miterlimit="1.414" width="16.7" height="7.7"/>
<path fill="none" stroke="#000000" stroke-width="0.48" stroke-linejoin="round" stroke-miterlimit="1.414" d="M199.122,23.863
	c0-1,0.4-1.9,1-2.6c0.7-0.7,1.7-1.1,2.6-1.1c1,0,1.9,0.4,2.6,1.1c0.7,0.7,1.1,1.6,1.1,2.6"/>
<line fill="none" stroke="#000000" stroke-width="0.48" stroke-linejoin="round" stroke-miterlimit="1.414" x1="199.122" y1="44.763" x2="199.122" y2="23.863"/>
<line fill="none" stroke="#000000" stroke-width="0.48" stroke-linejoin="round" stroke-miterlimit="1.414" x1="206.422" y1="23.863" x2="206.422" y2="44.763"/>
<path fill="none" stroke="#000000" stroke-width="0.48" stroke-linejoin="round" stroke-miterlimit="1.414" d="M206.422,44.763
	c0,1-0.4,1.9-1.1,2.6c-0.7,0.7-1.6,1.1-2.6,1.1c-0.9,0-1.9-0.4-2.6-1.1c-0.6-0.7-1-1.6-1-2.6"/>
<path fill="none" stroke="#000000" stroke-width="0.48" stroke-linejoin="round" stroke-miterlimit="1.414" d="M175.022,54.063
	c0.9,0,1.9,0.4,2.6,1.1c0.6,0.7,1,1.6,1,2.6s-0.4,1.9-1,2.6c-0.7,0.7-1.7,1-2.6,1"/>
<line fill="none" stroke="#000000" stroke-width="0.48" stroke-linejoin="round" stroke-miterlimit="1.414" x1="154.022" y1="54.063" x2="175.022" y2="54.063"/>
<line fill="none" stroke="#000000" stroke-width="0.48" stroke-linejoin="round" stroke-miterlimit="1.414" x1="175.022" y1="61.363" x2="154.022" y2="61.363"/>
<path fill="none" stroke="#000000" stroke-width="0.48" stroke-linejoin="round" stroke-miterlimit="1.414" d="M154.022,61.363
	c-1,0-1.9-0.3-2.6-1c-0.7-0.7-1.1-1.6-1.1-2.6s0.4-1.9,1.1-2.6c0.7-0.7,1.6-1.1,2.6-1.1"/>
<path fill-rule="evenodd" clip-rule="evenodd" d="M198.022,178.663c0,0.6,0.2,1.1,0.4,1.3c0.2,0.3,0.5,0.4,0.9,0.4s0.7-0.1,1-0.4
	c0.2-0.3,0.3-0.8,0.3-1.5v-3.8h-0.6v3.9c0,0.3,0,0.6-0.1,0.7c0,0.2-0.1,0.3-0.2,0.3c-0.1,0.1-0.3,0.2-0.4,0.2
	c-0.2,0-0.4-0.1-0.5-0.3c-0.1-0.1-0.2-0.4-0.2-0.9L198.022,178.663"/>
<path fill-rule="evenodd" clip-rule="evenodd" d="M202.022,178.663c0-0.3,0.1-0.6,0.2-0.8c0.2-0.2,0.4-0.3,0.7-0.3
	c0.3,0,0.5,0.1,0.7,0.3s0.3,0.5,0.3,0.8c0,0.4-0.1,0.6-0.3,0.8c-0.2,0.3-0.4,0.4-0.7,0.4c-0.2,0-0.5-0.1-0.7-0.4
	C202.122,179.263,202.022,178.963,202.022,178.663 M202.222,176.063c0-0.3,0-0.5,0.2-0.6c0.1-0.2,0.3-0.3,0.5-0.3
	c0.2,0,0.4,0.1,0.5,0.3c0.2,0.1,0.3,0.4,0.3,0.6c0,0.3-0.1,0.5-0.3,0.6c-0.1,0.2-0.3,0.3-0.5,0.3c-0.2,0-0.4-0.1-0.5-0.3
	C202.222,176.563,202.222,176.363,202.222,176.063 M202.322,177.263c-0.3,0-0.5,0.2-0.7,0.5c-0.1,0.2-0.2,0.5-0.2,0.9
	c0,0.5,0.1,0.9,0.4,1.3c0.3,0.3,0.7,0.4,1.1,0.4c0.4,0,0.8-0.1,1.1-0.4c0.3-0.4,0.4-0.8,0.4-1.3c0-0.3,0-0.7-0.2-0.9
	c-0.1-0.2-0.4-0.4-0.6-0.5c0.2-0.1,0.4-0.3,0.5-0.5c0.1-0.2,0.2-0.4,0.2-0.7c0-0.4-0.2-0.8-0.4-1c-0.3-0.3-0.6-0.5-1-0.5
	c-0.4,0-0.7,0.2-1,0.5c-0.2,0.2-0.3,0.6-0.3,1c0,0.3,0,0.5,0.1,0.7C201.922,176.963,202.022,177.163,202.322,177.263"/>
<path fill-rule="evenodd" clip-rule="evenodd" d="M205.622,178.663c0-0.3,0.1-0.6,0.2-0.8c0.2-0.2,0.4-0.3,0.7-0.3
	c0.3,0,0.5,0.1,0.7,0.3s0.3,0.5,0.3,0.8c0,0.4-0.1,0.6-0.3,0.8c-0.2,0.3-0.4,0.4-0.7,0.4c-0.2,0-0.5-0.1-0.6-0.4
	C205.722,179.263,205.622,178.963,205.622,178.663 M205.822,176.063c0-0.3,0-0.5,0.2-0.6c0.1-0.2,0.3-0.3,0.5-0.3
	c0.2,0,0.4,0.1,0.5,0.3c0.2,0.1,0.3,0.4,0.3,0.6c0,0.3-0.1,0.5-0.2,0.6c-0.2,0.2-0.4,0.3-0.6,0.3c-0.2,0-0.4-0.1-0.5-0.3
	C205.822,176.563,205.822,176.363,205.822,176.063 M205.922,177.263c-0.3,0-0.5,0.2-0.7,0.5c-0.1,0.2-0.2,0.5-0.2,0.9
	c0,0.5,0.1,0.9,0.4,1.3c0.3,0.3,0.7,0.4,1.1,0.4c0.5,0,0.8-0.1,1.1-0.4c0.3-0.4,0.4-0.8,0.4-1.3c0-0.3,0-0.7-0.2-0.9
	c-0.1-0.2-0.3-0.4-0.6-0.5c0.2-0.1,0.4-0.3,0.5-0.5c0.1-0.2,0.2-0.4,0.2-0.7c0-0.4-0.2-0.8-0.4-1c-0.3-0.3-0.6-0.5-1-0.5
	c-0.4,0-0.7,0.2-0.9,0.5c-0.3,0.2-0.4,0.6-0.4,1c0,0.3,0,0.5,0.2,0.7C205.522,176.963,205.622,177.163,205.922,177.263"/>
<path fill-rule="evenodd" clip-rule="evenodd" d="M221.022,178.663c0,0.6,0.1,1.1,0.3,1.3c0.2,0.3,0.5,0.4,0.9,0.4
	c0.5,0,0.8-0.1,1-0.4c0.2-0.3,0.4-0.8,0.4-1.5v-3.8h-0.7v3.9v0.7c-0.1,0.2-0.2,0.3-0.3,0.3c-0.1,0.1-0.2,0.2-0.4,0.2
	c-0.2,0-0.3-0.1-0.4-0.3c-0.2-0.1-0.2-0.4-0.2-0.9L221.022,178.663"/>
<path fill-rule="evenodd" clip-rule="evenodd" d="M224.922,178.663c0-0.3,0.1-0.6,0.3-0.8c0.2-0.2,0.4-0.3,0.6-0.3
	c0.3,0,0.5,0.1,0.7,0.3s0.3,0.5,0.3,0.8c0,0.4-0.1,0.6-0.3,0.8c-0.2,0.3-0.4,0.4-0.6,0.4c-0.3,0-0.5-0.1-0.7-0.4
	C225.022,179.263,224.922,178.963,224.922,178.663 M225.122,176.063c0-0.3,0.1-0.5,0.2-0.6c0.2-0.2,0.4-0.3,0.6-0.3
	c0.2,0,0.3,0.1,0.5,0.3c0.1,0.1,0.2,0.4,0.2,0.6c0,0.3-0.1,0.5-0.2,0.6c-0.2,0.2-0.3,0.3-0.5,0.3c-0.2,0-0.4-0.1-0.6-0.3
	C225.222,176.563,225.122,176.363,225.122,176.063 M225.222,177.263c-0.3,0-0.5,0.2-0.6,0.5c-0.2,0.2-0.3,0.5-0.3,0.9
	c0,0.5,0.2,0.9,0.5,1.3c0.3,0.3,0.6,0.4,1.1,0.4c0.4,0,0.8-0.1,1.1-0.4c0.2-0.4,0.4-0.8,0.4-1.3c0-0.3-0.1-0.7-0.2-0.9
	c-0.2-0.2-0.4-0.4-0.7-0.5c0.2-0.1,0.4-0.3,0.5-0.5c0.1-0.2,0.2-0.4,0.2-0.7c0-0.4-0.1-0.8-0.4-1c-0.2-0.3-0.6-0.5-0.9-0.5
	c-0.4,0-0.7,0.2-1,0.5c-0.3,0.2-0.4,0.6-0.4,1c0,0.3,0.1,0.5,0.2,0.7C224.822,176.963,225.022,177.163,225.222,177.263"/>
<path fill-rule="evenodd" clip-rule="evenodd" d="M228.522,178.663c0-0.3,0.1-0.6,0.3-0.8c0.2-0.2,0.4-0.3,0.7-0.3
	c0.2,0,0.4,0.1,0.6,0.3s0.3,0.5,0.3,0.8c0,0.4-0.1,0.6-0.3,0.8c-0.1,0.3-0.4,0.4-0.6,0.4c-0.3,0-0.5-0.1-0.7-0.4
	C228.622,179.263,228.522,178.963,228.522,178.663 M228.722,176.063c0-0.3,0.1-0.5,0.2-0.6c0.2-0.2,0.4-0.3,0.6-0.3s0.3,0.1,0.5,0.3
	c0.1,0.1,0.2,0.4,0.2,0.6c0,0.3,0,0.5-0.2,0.6c-0.1,0.2-0.3,0.3-0.5,0.3s-0.4-0.1-0.6-0.3
	C228.822,176.563,228.722,176.363,228.722,176.063 M228.822,177.263c-0.3,0-0.5,0.2-0.6,0.5c-0.2,0.2-0.3,0.5-0.3,0.9
	c0,0.5,0.2,0.9,0.5,1.3c0.3,0.3,0.6,0.4,1.1,0.4c0.4,0,0.8-0.1,1.1-0.4c0.3-0.4,0.4-0.8,0.4-1.3c0-0.3-0.1-0.7-0.2-0.9
	c-0.2-0.2-0.4-0.4-0.7-0.5c0.3-0.1,0.4-0.3,0.5-0.5c0.2-0.2,0.2-0.4,0.2-0.7c0-0.4-0.1-0.8-0.4-1c-0.2-0.3-0.5-0.5-0.9-0.5
	c-0.4,0-0.7,0.2-1,0.5c-0.2,0.2-0.4,0.6-0.4,1c0,0.3,0.1,0.5,0.2,0.7C228.422,176.963,228.622,177.163,228.822,177.263"/>
<path fill-rule="evenodd" clip-rule="evenodd" d="M160.622,114.963v-2.1h1.2c0.3,0,0.5,0.1,0.7,0.1c0.1,0.1,0.2,0.2,0.3,0.4
	c0.1,0.1,0.1,0.3,0.1,0.5c0,0.4-0.1,0.6-0.3,0.8c-0.1,0.2-0.4,0.3-0.8,0.3H160.622 M160.022,117.863h0.6v-2.3h1.2
	c0.6,0,1.1-0.1,1.3-0.4c0.3-0.4,0.4-0.8,0.4-1.3c0-0.4,0-0.7-0.2-1c-0.2-0.2-0.4-0.4-0.6-0.5c-0.2-0.1-0.5-0.1-1-0.1h-1.7V117.863"
	/>
<path fill-rule="evenodd" clip-rule="evenodd" d="M166.222,117.863v-5.6h-0.3c-0.1,0.2-0.3,0.5-0.5,0.7c-0.3,0.3-0.6,0.5-0.9,0.7
	v0.7c0.2-0.1,0.4-0.3,0.6-0.4c0.2-0.2,0.4-0.3,0.6-0.5v4.4H166.222"/>
<path fill-rule="evenodd" clip-rule="evenodd" d="M189.022,122.863v-2h1.2h0.7c0.1,0.1,0.2,0.2,0.3,0.4c0.1,0.1,0.1,0.3,0.1,0.6
	c0,0.3,0,0.6-0.2,0.7c-0.2,0.2-0.5,0.3-0.8,0.3H189.022 M188.422,125.863h0.6v-2.3h1.2c0.7,0,1.1-0.2,1.4-0.5
	c0.2-0.4,0.4-0.8,0.4-1.3c0-0.4-0.1-0.7-0.3-1c-0.1-0.2-0.3-0.4-0.6-0.5c-0.2-0.1-0.5-0.1-0.9-0.1h-1.8V125.863"/>
<path fill-rule="evenodd" clip-rule="evenodd" d="M194.722,125.863v-5.7h-0.4c-0.1,0.2-0.3,0.5-0.5,0.7c-0.3,0.3-0.5,0.5-0.8,0.7
	v0.7c0.1-0.1,0.3-0.2,0.6-0.4c0.2-0.2,0.4-0.3,0.5-0.5v4.5H194.722"/>
<path fill-rule="evenodd" clip-rule="evenodd" d="M143.122,6.163c-0.1,0.7-0.3,1.2-0.7,1.5c-0.3,0.4-0.7,0.5-1.2,0.5
	c-0.6,0-1.1-0.2-1.5-0.8c-0.4-0.5-0.6-1.3-0.6-2.4c0-0.7,0.1-1.3,0.3-1.8s0.4-0.8,0.8-1c0.3-0.3,0.6-0.4,1.1-0.4
	c0.9,0,1.4,0.6,1.7,1.7l0.9-0.3c-0.2-0.7-0.5-1.3-1-1.7c-0.4-0.4-1-0.6-1.6-0.6s-1.1,0.2-1.6,0.5c-0.4,0.3-0.8,0.7-1.1,1.4
	c-0.2,0.6-0.4,1.3-0.4,2.2s0.2,1.6,0.4,2.3c0.3,0.6,0.7,1.1,1.1,1.4c0.4,0.3,0.9,0.4,1.5,0.4c0.7,0,1.3-0.2,1.8-0.6
	c0.5-0.5,0.8-1.1,1-2L143.122,6.163"/>
<path fill-rule="evenodd" clip-rule="evenodd" d="M145.722,5.063c0-1.1,0.2-1.9,0.6-2.5c0.4-0.5,1-0.8,1.6-0.8
	c0.4,0,0.8,0.1,1.2,0.4c0.3,0.2,0.6,0.6,0.7,1c0.2,0.5,0.4,1.1,0.4,1.8c0,1.1-0.3,1.9-0.7,2.4c-0.4,0.6-0.9,0.8-1.6,0.8
	c-0.6,0-1.1-0.2-1.6-0.8C145.922,6.863,145.722,6.063,145.722,5.063 M144.822,5.063c0,1.1,0.3,2,0.8,2.8c0.6,0.8,1.4,1.2,2.3,1.2
	c1,0,1.7-0.4,2.3-1.2c0.6-0.7,0.8-1.7,0.8-2.9c0-0.8-0.1-1.6-0.4-2.2s-0.6-1.1-1.1-1.4c-0.5-0.3-1-0.5-1.6-0.5
	c-0.9,0-1.6,0.4-2.2,1.1C145.122,2.663,144.822,3.763,144.822,5.063"/>
<path fill-rule="evenodd" clip-rule="evenodd" d="M153.022,4.563v-2.7h2c0.5,0,0.9,0.2,1.1,0.4c0.2,0.2,0.3,0.5,0.3,0.9
	c0,0.3,0,0.5-0.1,0.8c-0.2,0.2-0.3,0.3-0.5,0.4c-0.3,0.1-0.6,0.2-1,0.2H153.022 M152.122,8.963h0.9v-3.5h1c0.3,0,0.5,0,0.6,0.1
	c0.2,0.1,0.4,0.2,0.5,0.4c0.2,0.3,0.5,0.7,0.8,1.3l0.9,1.7h1.1l-1.2-2.2c-0.2-0.3-0.4-0.7-0.7-1c-0.1-0.1-0.3-0.3-0.5-0.4
	c0.6-0.1,1-0.4,1.4-0.7c0.3-0.4,0.4-0.9,0.4-1.5c0-0.4-0.1-0.8-0.3-1.2c-0.1-0.3-0.4-0.6-0.7-0.7c-0.2-0.2-0.7-0.2-1.3-0.2h-2.9
	V8.963"/>
<path fill-rule="evenodd" clip-rule="evenodd" d="M159.522,4.563v-2.7h2.1c0.5,0,0.8,0.2,1.1,0.4c0.2,0.2,0.3,0.5,0.3,0.9
	c0,0.3-0.1,0.5-0.2,0.8c-0.1,0.2-0.3,0.3-0.5,0.4c-0.2,0.1-0.5,0.2-0.9,0.2H159.522 M158.722,8.963h0.8v-3.5h1c0.3,0,0.5,0,0.7,0.1
	c0.2,0.1,0.3,0.2,0.5,0.4c0.2,0.3,0.4,0.7,0.8,1.3l0.8,1.7h1.1l-1.1-2.2c-0.2-0.3-0.4-0.7-0.7-1c-0.1-0.1-0.3-0.3-0.5-0.4
	c0.6-0.1,1-0.4,1.3-0.7c0.3-0.4,0.5-0.9,0.5-1.5c0-0.4-0.1-0.8-0.3-1.2c-0.2-0.3-0.4-0.6-0.7-0.7c-0.3-0.2-0.7-0.2-1.3-0.2h-2.9
	V8.963"/>
<rect x="165.422" y="1.063" fill-rule="evenodd" clip-rule="evenodd" width="0.9" height="7.9"/>
<path fill-rule="evenodd" clip-rule="evenodd" d="M168.622,8.063v-6.1h1.4c0.5,0,0.9,0.1,1.1,0.2c0.3,0.1,0.6,0.4,0.8,0.9
	c0.2,0.4,0.4,1.1,0.4,1.9c0,0.7-0.1,1.4-0.4,1.9c-0.1,0.4-0.3,0.7-0.6,0.9c-0.3,0.2-0.7,0.3-1.3,0.3H168.622 M167.822,8.963h2.3
	c0.7,0,1.2-0.1,1.6-0.4c0.4-0.3,0.8-0.7,1-1.3c0.3-0.7,0.4-1.4,0.4-2.3c0-0.7,0-1.3-0.2-1.8c-0.2-0.5-0.4-1-0.6-1.3
	c-0.3-0.3-0.7-0.6-1-0.7c-0.3-0.1-0.7-0.1-1.3-0.1h-2.2V8.963"/>
<path fill-rule="evenodd" clip-rule="evenodd" d="M175.022,5.063c0-1.1,0.2-1.9,0.6-2.5c0.4-0.5,1-0.8,1.6-0.8
	c0.4,0,0.8,0.1,1.1,0.4c0.4,0.2,0.6,0.6,0.8,1c0.2,0.5,0.3,1.1,0.3,1.8c0,1.1-0.2,1.9-0.6,2.4c-0.4,0.6-1,0.8-1.6,0.8
	c-0.6,0-1.1-0.2-1.6-0.8C175.222,6.863,175.022,6.063,175.022,5.063 M174.122,5.063c0,1.1,0.3,2,0.8,2.8c0.6,0.8,1.4,1.2,2.3,1.2
	c1,0,1.7-0.4,2.3-1.2c0.6-0.7,0.8-1.7,0.8-2.9c0-0.8-0.1-1.6-0.4-2.2s-0.6-1.1-1.1-1.4c-0.5-0.3-1-0.5-1.6-0.5
	c-0.9,0-1.6,0.4-2.2,1.1C174.422,2.663,174.122,3.763,174.122,5.063"/>
<path fill-rule="evenodd" clip-rule="evenodd" d="M182.322,4.563v-2.7h2c0.5,0,0.8,0.2,1.1,0.4c0.2,0.2,0.3,0.5,0.3,0.9
	c0,0.3,0,0.5-0.2,0.8c-0.1,0.2-0.2,0.3-0.5,0.4c-0.2,0.1-0.5,0.2-0.9,0.2H182.322 M181.422,8.963h0.9v-3.5h1c0.2,0,0.5,0,0.6,0.1
	c0.2,0.1,0.4,0.2,0.5,0.4c0.2,0.3,0.5,0.7,0.8,1.3l0.9,1.7h1l-1.1-2.2c-0.2-0.3-0.4-0.7-0.7-1c-0.1-0.1-0.3-0.3-0.5-0.4
	c0.6-0.1,1-0.4,1.3-0.7c0.4-0.4,0.5-0.9,0.5-1.5c0-0.4-0.1-0.8-0.3-1.2c-0.1-0.3-0.4-0.6-0.7-0.7c-0.3-0.2-0.7-0.2-1.3-0.2h-2.9
	V8.963"/>
<path fill-rule="evenodd" clip-rule="evenodd" d="M141.322,17.463v-5.7h-0.4c-0.1,0.3-0.3,0.5-0.6,0.8c-0.2,0.2-0.5,0.4-0.8,0.6v0.7
	c0.1,0,0.2-0.1,0.3-0.1c0.1-0.1,0.2-0.2,0.3-0.3c0.2-0.1,0.4-0.3,0.6-0.4v4.4H141.322"/>
<path fill-rule="evenodd" clip-rule="evenodd" d="M145.922,16.763h-2.4c0.1-0.1,0.2-0.2,0.3-0.3c0.1-0.2,0.3-0.4,0.6-0.8
	c0.5-0.4,0.8-0.7,1-1c0.1-0.2,0.3-0.4,0.3-0.7c0.1-0.2,0.2-0.4,0.2-0.6c0-0.5-0.2-0.8-0.4-1.1c-0.3-0.3-0.7-0.5-1.1-0.5
	c-0.5,0-0.9,0.1-1.1,0.4c-0.3,0.3-0.5,0.7-0.5,1.2l0.6,0.1c0-0.3,0.1-0.6,0.3-0.8c0.1-0.2,0.4-0.3,0.7-0.3c0.2,0,0.4,0.1,0.6,0.3
	c0.2,0.2,0.3,0.4,0.3,0.7c0,0.2-0.1,0.5-0.3,0.8c-0.2,0.3-0.6,0.7-1.1,1.2c-0.3,0.3-0.6,0.6-0.8,0.9c-0.1,0.2-0.3,0.5-0.3,0.7
	c-0.1,0.2-0.1,0.3-0.1,0.5h3.2V16.763"/>
<path fill-rule="evenodd" clip-rule="evenodd" d="M146.522,15.963c0.1,0.5,0.2,0.8,0.5,1.1c0.3,0.3,0.6,0.5,1,0.5
	c0.5,0,0.9-0.2,1.2-0.5c0.3-0.4,0.5-0.8,0.5-1.3c0-0.3-0.1-0.7-0.3-0.9c-0.1-0.2-0.3-0.4-0.6-0.5c0.2-0.1,0.4-0.3,0.5-0.5
	c0.1-0.2,0.1-0.4,0.1-0.6c0-0.3,0-0.5-0.1-0.8c-0.2-0.2-0.3-0.4-0.6-0.5c-0.2-0.1-0.4-0.2-0.7-0.2c-0.4,0-0.7,0.1-0.9,0.4
	c-0.3,0.2-0.5,0.6-0.5,1.1l0.6,0.1c0-0.3,0.1-0.6,0.3-0.8c0.1-0.1,0.3-0.2,0.5-0.2c0.3,0,0.5,0.1,0.6,0.2c0.1,0.2,0.2,0.4,0.2,0.7
	c0,0.3-0.1,0.5-0.3,0.7c-0.2,0.1-0.4,0.2-0.7,0.2h-0.1v0.6c0.1,0,0.3-0.1,0.4-0.1c0.3,0,0.5,0.1,0.7,0.3c0.1,0.3,0.2,0.5,0.2,0.8
	c0,0.4-0.1,0.7-0.2,0.9c-0.2,0.2-0.5,0.3-0.8,0.3c-0.2,0-0.4-0.1-0.6-0.2c-0.1-0.2-0.2-0.5-0.3-0.9L146.522,15.963"/>
<path fill-rule="evenodd" clip-rule="evenodd" d="M152.122,15.463h-1.5l1.5-2.6V15.463z M152.122,17.463h0.6v-1.4h0.7v-0.6h-0.7
	v-3.7h-0.4l-2.2,3.7v0.6h2V17.463"/>
<path fill-rule="evenodd" clip-rule="evenodd" d="M205.422,43.463h-5.4v0.4c0.2,0.1,0.5,0.2,0.7,0.5c0.3,0.2,0.5,0.5,0.7,0.8h0.6
	c-0.1-0.2-0.2-0.4-0.3-0.6c-0.2-0.2-0.3-0.4-0.5-0.5h4.2V43.463"/>
<path fill-rule="evenodd" clip-rule="evenodd" d="M204.822,39.263v2.1c-0.1,0-0.2-0.1-0.4-0.2c-0.1-0.1-0.3-0.3-0.6-0.6
	c-0.6-0.5-1-0.9-1.3-1.1c-0.3-0.1-0.7-0.2-1-0.2c-0.4,0-0.7,0.1-1,0.3c-0.3,0.2-0.5,0.6-0.5,1c0,0.5,0.1,0.8,0.4,1
	c0.3,0.3,0.7,0.4,1.2,0.5v-0.6c-0.3,0-0.6-0.1-0.8-0.2c-0.2-0.2-0.2-0.4-0.2-0.6c0-0.3,0-0.5,0.2-0.6c0.2-0.2,0.4-0.3,0.7-0.3
	c0.2,0,0.5,0.1,0.8,0.3c0.2,0.1,0.6,0.4,1.1,1c0.5,0.4,0.8,0.7,1.2,0.9c0.3,0.1,0.6,0.2,0.8,0.2v-2.9H204.822"/>
<path fill-rule="evenodd" clip-rule="evenodd" d="M204.022,38.663c0.5-0.1,0.8-0.2,1.1-0.5c0.3-0.2,0.4-0.6,0.4-0.9
	c0-0.4-0.1-0.8-0.4-1.1c-0.4-0.3-0.8-0.4-1.3-0.4c-0.2,0-0.4,0-0.6,0.1c-0.2,0.1-0.3,0.1-0.5,0.3c-0.1,0.1-0.1,0.2-0.2,0.4
	c-0.1-0.2-0.3-0.3-0.4-0.4c-0.2-0.2-0.4-0.2-0.7-0.2c-0.4,0-0.7,0.1-1,0.4c-0.3,0.2-0.4,0.5-0.4,0.9c0,0.3,0.1,0.6,0.4,0.9
	c0.2,0.2,0.5,0.4,1,0.4l0.1-0.5c-0.3-0.1-0.5-0.1-0.7-0.3c-0.2-0.1-0.2-0.3-0.2-0.5c0-0.2,0-0.4,0.2-0.5c0.1-0.2,0.3-0.2,0.6-0.2
	c0.3,0,0.5,0,0.7,0.2c0.1,0.2,0.2,0.4,0.2,0.7l0.6,0.1c-0.1-0.1-0.1-0.3-0.1-0.4c0-0.2,0.1-0.4,0.3-0.6c0.2-0.2,0.4-0.2,0.7-0.2
	c0.4,0,0.7,0,0.9,0.2c0.2,0.2,0.3,0.4,0.3,0.7c0,0.4-0.4,0.7-1.1,0.8L204.022,38.663"/>
<path fill-rule="evenodd" clip-rule="evenodd" d="M203.522,33.463v1.4l-2.4-1.4H203.522z M205.422,33.463v-0.6h-1.3v-0.6h-0.6v0.6
	h-3.5v0.5l3.5,2h0.6v-1.9H205.422"/>
<rect x="204.722" y="30.763" fill-rule="evenodd" clip-rule="evenodd" width="0.7" height="0.7"/>
<path fill-rule="evenodd" clip-rule="evenodd" d="M204.822,29.263h-4.1v-1c0-0.3,0-0.6,0.1-0.7c0.1-0.3,0.3-0.5,0.6-0.6
	c0.3-0.1,0.7-0.2,1.3-0.2c0.5,0,0.9,0,1.3,0.2c0.3,0.1,0.5,0.2,0.6,0.4c0.1,0.2,0.2,0.5,0.2,0.9V29.263 M205.422,29.763v-1.6
	c0-0.4-0.1-0.8-0.2-1.1c-0.2-0.2-0.5-0.5-0.9-0.7c-0.5-0.1-1-0.2-1.6-0.2c-0.5,0-0.9,0-1.2,0.1c-0.4,0.1-0.7,0.3-0.9,0.5
	c-0.2,0.2-0.4,0.4-0.5,0.6c0,0.2-0.1,0.5-0.1,0.9v1.5H205.422"/>
<path fill-rule="evenodd" clip-rule="evenodd" d="M205.422,23.463h-5.4v0.4c0.2,0.1,0.5,0.2,0.7,0.5c0.3,0.2,0.5,0.5,0.7,0.8h0.6
	c-0.1-0.2-0.2-0.4-0.3-0.6c-0.2-0.2-0.3-0.4-0.5-0.5h4.2V23.463"/>
<path fill-rule="evenodd" clip-rule="evenodd" d="M155.322,60.463v-5.4h-0.4c-0.1,0.2-0.2,0.4-0.4,0.7c-0.3,0.2-0.5,0.4-0.8,0.6v0.7
	c0.1-0.1,0.3-0.2,0.5-0.4c0.3-0.1,0.4-0.3,0.6-0.4v4.2H155.322"/>
<path fill-rule="evenodd" clip-rule="evenodd" d="M159.622,59.863h-2.2c0-0.2,0.1-0.3,0.2-0.4c0.1-0.1,0.3-0.4,0.6-0.7
	c0.6-0.5,0.9-0.9,1.1-1.3c0.2-0.3,0.3-0.6,0.3-0.9c0-0.4-0.2-0.8-0.4-1.1c-0.2-0.3-0.6-0.4-1-0.4c-0.4,0-0.8,0.1-1,0.4
	c-0.3,0.2-0.4,0.6-0.5,1.1l0.6,0.1c0-0.4,0.1-0.6,0.2-0.8c0.2-0.2,0.4-0.3,0.7-0.3c0.2,0,0.4,0.1,0.6,0.3c0.1,0.1,0.2,0.4,0.2,0.6
	c0,0.3-0.1,0.5-0.2,0.8c-0.2,0.3-0.5,0.7-1,1.2c-0.5,0.4-0.8,0.8-0.9,1.1c-0.2,0.3-0.3,0.6-0.3,0.9h3V59.863"/>
<path fill-rule="evenodd" clip-rule="evenodd" d="M160.122,59.063c0.1,0.4,0.2,0.8,0.5,1.1c0.3,0.2,0.6,0.4,1,0.4
	c0.4,0,0.7-0.2,1-0.5c0.3-0.3,0.4-0.7,0.4-1.2c0-0.2,0-0.5-0.1-0.6c0-0.2-0.1-0.4-0.2-0.5c-0.2-0.1-0.3-0.2-0.5-0.2
	c0.2-0.1,0.4-0.3,0.5-0.5c0.1-0.2,0.1-0.4,0.1-0.6c0-0.4-0.1-0.8-0.3-1c-0.3-0.3-0.6-0.4-1-0.4c-0.3,0-0.6,0.1-0.8,0.3
	c-0.3,0.3-0.4,0.6-0.5,1.1l0.5,0.1c0.1-0.3,0.2-0.6,0.3-0.7c0.2-0.2,0.3-0.3,0.5-0.3c0.2,0,0.4,0.1,0.6,0.2c0.1,0.2,0.2,0.4,0.2,0.6
	c0,0.3-0.1,0.5-0.3,0.7c-0.2,0.2-0.4,0.3-0.6,0.3l-0.1-0.1l-0.1,0.6h0.4c0.2,0,0.4,0.1,0.6,0.2c0.2,0.2,0.3,0.5,0.3,0.8
	c0,0.3-0.1,0.6-0.3,0.8c-0.2,0.2-0.4,0.3-0.7,0.3c-0.4,0-0.7-0.3-0.8-1L160.122,59.063"/>
<path fill-rule="evenodd" clip-rule="evenodd" d="M164.222,58.663c0-0.3,0.1-0.6,0.3-0.8c0.1-0.2,0.3-0.3,0.6-0.3
	c0.2,0,0.4,0.1,0.6,0.3c0.1,0.2,0.2,0.5,0.2,0.9c0,0.4-0.1,0.7-0.2,0.9c-0.2,0.2-0.4,0.3-0.6,0.3c-0.2,0-0.5-0.1-0.6-0.3
	C164.322,59.363,164.222,59.063,164.222,58.663 M166.422,56.363c0-0.2-0.1-0.4-0.1-0.6c-0.1-0.1-0.2-0.3-0.3-0.4
	c-0.2-0.2-0.5-0.3-0.8-0.3c-0.5,0-0.9,0.2-1.2,0.6c-0.3,0.5-0.4,1.2-0.4,2.3c0,0.9,0.1,1.6,0.4,2c0.3,0.4,0.7,0.6,1.1,0.6
	c0.3,0,0.5-0.1,0.7-0.2c0.2-0.2,0.4-0.4,0.5-0.7c0.1-0.3,0.2-0.6,0.2-1c0-0.5-0.1-0.9-0.4-1.2c-0.3-0.4-0.6-0.5-0.9-0.5
	c-0.2,0-0.4,0-0.6,0.2c-0.2,0.1-0.4,0.3-0.5,0.5c0-0.7,0.1-1.2,0.3-1.5c0.1-0.4,0.4-0.6,0.7-0.6c0.2,0,0.4,0.1,0.5,0.3
	c0.1,0.1,0.2,0.3,0.3,0.6L166.422,56.363"/>
<rect x="167.422" y="59.663" fill-rule="evenodd" clip-rule="evenodd" width="0.6" height="0.8"/>
<path fill-rule="evenodd" clip-rule="evenodd" d="M169.622,59.863v-4.2h0.9c0.3,0,0.6,0.1,0.7,0.1c0.3,0.1,0.5,0.3,0.6,0.7
	c0.2,0.3,0.2,0.7,0.2,1.3c0,0.5,0,0.9-0.2,1.3c-0.1,0.2-0.2,0.4-0.4,0.6c-0.2,0.1-0.5,0.2-0.9,0.2H169.622 M169.022,60.463h1.6
	c0.4,0,0.8-0.1,1.1-0.3c0.3-0.2,0.5-0.5,0.7-0.9c0.2-0.4,0.2-0.9,0.2-1.5c0-0.5,0-0.9-0.1-1.3c-0.1-0.3-0.3-0.6-0.5-0.8
	c-0.1-0.3-0.4-0.4-0.6-0.5c-0.2-0.1-0.5-0.1-0.9-0.1h-1.5V60.463"/>
<path fill-rule="evenodd" clip-rule="evenodd" d="M175.322,60.463v-5.4h-0.4c-0.1,0.2-0.2,0.4-0.5,0.7c-0.2,0.2-0.5,0.4-0.8,0.6v0.7
	c0.2-0.1,0.4-0.2,0.6-0.4c0.2-0.1,0.4-0.3,0.5-0.4v4.2H175.322"/>
<text transform="matrix(1 0 0 1 0.0557 6.8564)" fill="#1d1d1b" font-family="'Helvetica'" font-size="8">ROOM NAMES </text>
<text transform="matrix(1 0 0 1 55.4795 6.8564)" fill="#1d1d1b" font-family="'Helvetica'" font-size="8"> </text>
<text transform="matrix(1 0 0 1 0.0557 15.8564)" fill="#1d1d1b" font-family="'Helvetica'" font-size="8">AND NUMBERS</text>
<text transform="matrix(1 0 0 1 0.0557 59.9678)"><tspan x="0" y="0" fill="#1d1d1b" font-family="'Helvetica'" font-size="8">DOOR </tspan><tspan x="24.896" y="0" fill="#1d1d1b" font-family="'Helvetica'" font-size="8">T</tspan><tspan x="28.8" y="0" fill="#1d1d1b" font-family="'Helvetica'" font-size="8">AGS</tspan></text>
<text transform="matrix(1 0 0 1 0.0557 117.4072)"><tspan x="0" y="0" fill="#1d1d1b" font-family="'Helvetica'" font-size="8">P</tspan><tspan x="4.456" y="0" fill="#1d1d1b" font-family="'Helvetica'" font-size="8">A</tspan><tspan x="9.496" y="0" fill="#1d1d1b" font-family="'Helvetica'" font-size="8">R</tspan><tspan x="14.88" y="0" fill="#1d1d1b" font-family="'Helvetica'" font-size="8">TITION </tspan><tspan x="41.112" y="0" fill="#1d1d1b" font-family="'Helvetica'" font-size="8">T</tspan><tspan x="45.017" y="0" fill="#1d1d1b" font-family="'Helvetica'" font-size="8">AGS</tspan></text>
<text transform="matrix(1 0 0 1 0.0557 179.6563)"><tspan x="0" y="0" fill="#1d1d1b" font-family="'Helvetica'" font-size="8">JOINE</tspan><tspan x="22.08" y="0" fill="#1d1d1b" font-family="'Helvetica'" font-size="8">R</tspan><tspan x="27.32" y="0" fill="#1d1d1b" font-family="'Helvetica'" font-size="8">Y AND </tspan></text>
<text transform="matrix(1 0 0 1 52.8555 179.6563)" fill="#1d1d1b" font-family="'Helvetica'" font-size="8"> </text>
<text transform="matrix(1 0 0 1 0.0557 188.6563)"><tspan x="0" y="0" fill="#1d1d1b" font-family="'Helvetica'" font-size="8">EQUIPMENT </tspan><tspan x="46.68" y="0" fill="#1d1d1b" font-family="'Helvetica'" font-size="8">T</tspan><tspan x="50.584" y="0" fill="#1d1d1b" font-family="'Helvetica'" font-size="8">AGS</tspan></text>
<line fill="none" stroke="#cd1719" stroke-width="0.75" stroke-linecap="round" stroke-linejoin="round" stroke-dasharray="0,2.233" x1="60.903" y1="177.048" x2="178.135" y2="177.048"/>
<path fill="none" stroke="#cd1719" stroke-width="0.75" stroke-linecap="round" stroke-linejoin="round" d="M179.252,177.048
	L179.252,177.048 M58.67,177.048L58.67,177.048"/>
<line fill="none" stroke="#cd1719" stroke-width="0.75" stroke-linecap="round" stroke-linejoin="round" stroke-dasharray="0,2.275" x1="70.157" y1="114.551" x2="150.914" y2="114.551"/>
<path fill="none" stroke="#cd1719" stroke-width="0.75" stroke-linecap="round" stroke-linejoin="round" d="M152.052,114.551
	L152.052,114.551 M67.883,114.551L67.883,114.551"/>
<line fill="none" stroke="#cd1719" stroke-width="0.75" stroke-linecap="round" stroke-linejoin="round" stroke-dasharray="0,2.227" x1="55.228" y1="57.112" x2="145.411" y2="57.112"/>
<path fill="none" stroke="#cd1719" stroke-width="0.75" stroke-linecap="round" stroke-linejoin="round" d="M146.524,57.112
	L146.524,57.112 M53.001,57.112L53.001,57.112"/>
<line fill="none" stroke="#cd1719" stroke-width="0.75" stroke-linecap="round" stroke-linejoin="round" stroke-dasharray="0,2.272" x1="60.941" y1="4.355" x2="130.222" y2="4.675"/>
<path fill="none" stroke="#cd1719" stroke-width="0.75" stroke-linecap="round" stroke-linejoin="round" d="M131.359,4.681
	L131.359,4.681 M58.67,4.345L58.67,4.345"/>
</svg>
