<?xml version="1.0" encoding="utf-8"?>
<svg version="1.1" width="100%" xmlns="http://www.w3.org/2000/svg" xmlns:xlink="http://www.w3.org/1999/xlink" x="0px" y="0px"
	 viewBox="0 0 238.9 210.7" enable-background="new 0 0 238.9 210.7" xml:space="preserve">
<line fill="none" stroke="#000000" stroke-width="0.72" stroke-linejoin="round" stroke-miterlimit="1.414" x1="185.1" y1="177.5" x2="186.7" y2="180.2"/>
<line fill="none" stroke="#000000" stroke-width="0.72" stroke-linejoin="round" stroke-miterlimit="1.414" x1="185.1" y1="177.5" x2="186.7" y2="174.8"/>
<line fill="none" stroke="#000000" stroke-width="0.24" stroke-linejoin="bevel" stroke-miterlimit="1.414" x1="185.1" y1="177.5" x2="197.5" y2="177.5"/>
<line fill="none" stroke="#000000" stroke-width="0.72" stroke-linejoin="round" stroke-miterlimit="1.414" x1="225.9" y1="159.7" x2="223.2" y2="161.3"/>
<line fill="none" stroke="#000000" stroke-width="0.72" stroke-linejoin="round" stroke-miterlimit="1.414" x1="225.9" y1="159.7" x2="228.6" y2="161.3"/>
<line fill="none" stroke="#000000" stroke-width="0.24" stroke-linejoin="bevel" stroke-miterlimit="1.414" x1="225.9" y1="159.7" x2="225.9" y2="172"/>
<polyline fill="none" stroke="#B3B3B3" stroke-width="0.72" stroke-linejoin="round" stroke-miterlimit="1.414" points="170.1,48 
	170.1,47.7 169.7,47.7 169.7,48.8 171,48.8 171,49.2 173.1,49.2 173.1,48.8 173.1,47.7 172.7,47.7 172.7,48 "/>
<polyline fill="none" stroke="#B3B3B3" stroke-width="0.72" stroke-linejoin="round" stroke-miterlimit="1.414" points="170.1,75.7 
	170.1,76 169.7,76 169.7,74.9 171,74.9 171,74.5 173.1,74.5 173.1,74.9 173.1,76 172.7,76 172.7,75.7 "/>
<rect x="143.4" y="49" fill="none" stroke="#B3B3B3" stroke-width="0.24" stroke-linejoin="bevel" stroke-miterlimit="1.414" width="26.1" height="1.2"/>
<polyline fill="none" stroke="#B3B3B3" stroke-width="0.24" stroke-linejoin="bevel" stroke-miterlimit="1.414" points="169.5,48.9 
	169.5,49.6 169.5,49.9 169.4,49.9 169.4,48.9 "/>
<polyline fill="none" stroke="#B3B3B3" stroke-width="0.24" stroke-linejoin="bevel" stroke-miterlimit="1.414" points="169.6,48.7 
	170.3,48.7 170.6,48.7 170.6,48.8 169.6,48.8 "/>
<polyline fill="none" stroke="#B3B3B3" stroke-width="0.24" stroke-linejoin="bevel" stroke-miterlimit="1.414" points="169.6,48.8 
	170.3,48.8 170.6,48.8 170.6,48.9 169.6,48.9 "/>
<line fill="none" stroke="#B3B3B3" stroke-width="0.48" stroke-linejoin="round" stroke-miterlimit="1.414" x1="169.5" y1="47.7" x2="173.1" y2="47.7"/>
<line fill="none" stroke="#B3B3B3" stroke-width="0.48" stroke-linejoin="round" stroke-miterlimit="1.414" x1="173.1" y1="76" x2="173.1" y2="129.2"/>
<line fill="none" stroke="#B3B3B3" stroke-width="0.48" stroke-linejoin="round" stroke-miterlimit="1.414" x1="169.5" y1="76" x2="173.1" y2="76"/>
<line fill="none" stroke="#B3B3B3" stroke-width="0.48" stroke-linejoin="round" stroke-miterlimit="1.414" x1="169.5" y1="76" x2="169.5" y2="210.7"/>
<polyline fill="none" stroke="#B3B3B3" stroke-width="0.72" stroke-linejoin="round" stroke-miterlimit="1.414" points="213.3,39.6 
	213.5,39.6 213.5,39.2 212.5,39.2 212.5,40.5 212,40.5 212,42.6 212.5,42.6 213.5,42.6 213.5,42.2 213.3,42.2 "/>
<polyline fill="none" stroke="#B3B3B3" stroke-width="0.72" stroke-linejoin="round" stroke-miterlimit="1.414" points="185.5,39.6 
	185.2,39.6 185.2,39.2 186.3,39.2 186.3,40.5 186.7,40.5 186.7,42.6 186.3,42.6 185.2,42.6 185.2,42.2 185.5,42.2 "/>
<rect x="211.1" y="12.9" fill="none" stroke="#B3B3B3" stroke-width="0.24" stroke-linejoin="bevel" stroke-miterlimit="1.414" width="1.1" height="26"/>
<polyline fill="none" stroke="#B3B3B3" stroke-width="0.24" stroke-linejoin="bevel" stroke-miterlimit="1.414" points="212.3,38.9 
	211.6,38.9 211.4,38.9 212.3,38.9 "/>
<polyline fill="none" stroke="#B3B3B3" stroke-width="0.24" stroke-linejoin="bevel" stroke-miterlimit="1.414" points="212.5,39 
	212.5,39.7 212.5,40 212.5,39.1 "/>
<polyline fill="none" stroke="#B3B3B3" stroke-width="0.24" stroke-linejoin="bevel" stroke-miterlimit="1.414" points="212.4,39.1 
	212.4,39.7 212.4,40 212.4,39 "/>
<line fill="none" stroke="#B3B3B3" stroke-width="0.48" stroke-linejoin="round" stroke-miterlimit="1.414" x1="173.1" y1="132.8" x2="173.1" y2="210.7"/>
<line fill="none" stroke="#B3B3B3" stroke-width="0.48" stroke-linejoin="round" stroke-miterlimit="1.414" x1="173.1" y1="42.6" x2="173.1" y2="47.7"/>
<line fill="none" stroke="#B3B3B3" stroke-width="0.48" stroke-linejoin="round" stroke-miterlimit="1.414" x1="238.9" y1="132.8" x2="173.1" y2="132.8"/>
<line fill="none" stroke="#B3B3B3" stroke-width="0.48" stroke-linejoin="round" stroke-miterlimit="1.414" x1="238.9" y1="129.2" x2="173.1" y2="129.2"/>
<line fill="none" stroke="#B3B3B3" stroke-width="0.48" stroke-linejoin="round" stroke-miterlimit="1.414" x1="238.9" y1="39" x2="213.5" y2="39"/>
<line fill="none" stroke="#B3B3B3" stroke-width="0.48" stroke-linejoin="round" stroke-miterlimit="1.414" x1="238.9" y1="42.6" x2="213.5" y2="42.6"/>
<line fill="none" stroke="#B3B3B3" stroke-width="0.48" stroke-linejoin="round" stroke-miterlimit="1.414" x1="213.5" y1="39" x2="213.5" y2="42.6"/>
<line fill="none" stroke="#B3B3B3" stroke-width="0.48" stroke-linejoin="round" stroke-miterlimit="1.414" x1="185.2" y1="42.6" x2="173.1" y2="42.6"/>
<line fill="none" stroke="#B3B3B3" stroke-width="0.48" stroke-linejoin="round" stroke-miterlimit="1.414" x1="185.2" y1="39" x2="185.2" y2="42.6"/>
<line fill="none" stroke="#B3B3B3" stroke-width="0.48" stroke-linejoin="round" stroke-miterlimit="1.414" x1="185.2" y1="39" x2="129.3" y2="39"/>
<polyline fill="none" stroke="#B3B3B3" stroke-width="0.48" stroke-linejoin="round" stroke-miterlimit="1.414" points="129.3,42.6 
	169.5,42.6 169.5,47.7 "/>
<line fill="none" stroke="#B3B3B3" stroke-width="0.24" stroke-linejoin="bevel" stroke-miterlimit="1.414" x1="176" y1="161.2" x2="176" y2="132.8"/>
<rect x="173.1" y="132.8" fill="none" stroke="#B3B3B3" stroke-width="0.24" stroke-linejoin="bevel" stroke-miterlimit="1.414" width="8.5" height="28.4"/>
<rect x="173.1" y="132.8" fill="none" stroke="#B3B3B3" stroke-width="0.24" stroke-linejoin="bevel" stroke-miterlimit="1.414" width="22.7" height="56.7"/>
<line fill="none" stroke="#B3B3B3" stroke-width="0.24" stroke-linejoin="bevel" stroke-miterlimit="1.414" x1="230.4" y1="164.8" x2="230.4" y2="152.1"/>
<rect x="221.9" y="152.1" fill="none" stroke="#B3B3B3" stroke-width="0.24" stroke-linejoin="bevel" stroke-miterlimit="1.414" width="17" height="12.7"/>
<rect x="197.5" y="172" fill="none" stroke="#000000" stroke-width="0.48" stroke-linejoin="round" stroke-miterlimit="1.414" width="10.9" height="11"/>
<rect x="220.4" y="172" fill="none" stroke="#000000" stroke-width="0.48" stroke-linejoin="round" stroke-miterlimit="1.414" width="11" height="11"/>
<polyline fill="none" stroke="#000000" stroke-width="0.48" stroke-linejoin="round" stroke-miterlimit="1.414" points="168,112.3 
	163.1,109.4 158.2,112.3 158.2,117.9 163.1,120.8 168,117.9 168,112.3 "/>
<polyline fill="none" stroke="#000000" stroke-width="0.48" stroke-linejoin="round" stroke-miterlimit="1.414" points="
	196.5,120.2 191.6,117.4 186.6,120.2 186.6,125.9 191.6,128.7 196.5,125.9 196.5,120.2 "/>
<line fill="none" stroke="#000000" stroke-width="0.48" stroke-linejoin="round" stroke-miterlimit="1.414" x1="168" y1="115.1" x2="175.1" y2="115.1"/>
<line fill="none" stroke="#000000" stroke-width="0.48" stroke-linejoin="round" stroke-miterlimit="1.414" x1="191.6" y1="128.7" x2="191.6" y2="135.8"/>
<polyline fill-rule="evenodd" clip-rule="evenodd" fill="#FFFFFF" points="137.7,18.5 154.4,18.5 154.4,10.8 137.7,10.8 "/>
<rect x="137.7" y="10.8" fill="none" stroke="#000000" stroke-width="0.24" stroke-linejoin="bevel" stroke-miterlimit="1.414" width="16.7" height="7.7"/>
<path fill="none" stroke="#000000" stroke-width="0.48" stroke-linejoin="round" stroke-miterlimit="1.414" d="M199.1,23.9
	c0-1,0.4-1.9,1-2.6c0.7-0.7,1.7-1.1,2.6-1.1c1,0,1.9,0.4,2.6,1.1c0.7,0.7,1.1,1.6,1.1,2.6"/>
<line fill="none" stroke="#000000" stroke-width="0.48" stroke-linejoin="round" stroke-miterlimit="1.414" x1="199.1" y1="44.8" x2="199.1" y2="23.9"/>
<line fill="none" stroke="#000000" stroke-width="0.48" stroke-linejoin="round" stroke-miterlimit="1.414" x1="206.4" y1="23.9" x2="206.4" y2="44.8"/>
<path fill="none" stroke="#000000" stroke-width="0.48" stroke-linejoin="round" stroke-miterlimit="1.414" d="M206.4,44.8
	c0,1-0.4,1.9-1.1,2.6c-0.7,0.7-1.6,1.1-2.6,1.1c-0.9,0-1.9-0.4-2.6-1.1c-0.6-0.7-1-1.6-1-2.6"/>
<path fill="none" stroke="#000000" stroke-width="0.48" stroke-linejoin="round" stroke-miterlimit="1.414" d="M175,54.1
	c0.9,0,1.9,0.4,2.6,1.1c0.6,0.7,1,1.6,1,2.6s-0.4,1.9-1,2.6c-0.7,0.7-1.7,1-2.6,1"/>
<line fill="none" stroke="#000000" stroke-width="0.48" stroke-linejoin="round" stroke-miterlimit="1.414" x1="154" y1="54.1" x2="175" y2="54.1"/>
<line fill="none" stroke="#000000" stroke-width="0.48" stroke-linejoin="round" stroke-miterlimit="1.414" x1="175" y1="61.4" x2="154" y2="61.4"/>
<path fill="none" stroke="#000000" stroke-width="0.48" stroke-linejoin="round" stroke-miterlimit="1.414" d="M154,61.4
	c-1,0-1.9-0.3-2.6-1c-0.7-0.7-1.1-1.6-1.1-2.6s0.4-1.9,1.1-2.6c0.7-0.7,1.6-1.1,2.6-1.1"/>
<path fill-rule="evenodd" clip-rule="evenodd" d="M198,178.7c0,0.6,0.2,1.1,0.4,1.3c0.2,0.3,0.5,0.4,0.9,0.4s0.7-0.1,1-0.4
	c0.2-0.3,0.3-0.8,0.3-1.5v-3.8H200v3.9c0,0.3,0,0.6-0.1,0.7c0,0.2-0.1,0.3-0.2,0.3c-0.1,0.1-0.3,0.2-0.4,0.2c-0.2,0-0.4-0.1-0.5-0.3
	c-0.1-0.1-0.2-0.4-0.2-0.9L198,178.7"/>
<path fill-rule="evenodd" clip-rule="evenodd" d="M202,178.7c0-0.3,0.1-0.6,0.2-0.8c0.2-0.2,0.4-0.3,0.7-0.3c0.3,0,0.5,0.1,0.7,0.3
	s0.3,0.5,0.3,0.8c0,0.4-0.1,0.6-0.3,0.8c-0.2,0.3-0.4,0.4-0.7,0.4c-0.2,0-0.5-0.1-0.7-0.4C202.1,179.3,202,179,202,178.7
	 M202.2,176.1c0-0.3,0-0.5,0.2-0.6c0.1-0.2,0.3-0.3,0.5-0.3c0.2,0,0.4,0.1,0.5,0.3c0.2,0.1,0.3,0.4,0.3,0.6c0,0.3-0.1,0.5-0.3,0.6
	c-0.1,0.2-0.3,0.3-0.5,0.3c-0.2,0-0.4-0.1-0.5-0.3C202.2,176.6,202.2,176.4,202.2,176.1 M202.3,177.3c-0.3,0-0.5,0.2-0.7,0.5
	c-0.1,0.2-0.2,0.5-0.2,0.9c0,0.5,0.1,0.9,0.4,1.3c0.3,0.3,0.7,0.4,1.1,0.4c0.4,0,0.8-0.1,1.1-0.4c0.3-0.4,0.4-0.8,0.4-1.3
	c0-0.3,0-0.7-0.2-0.9c-0.1-0.2-0.4-0.4-0.6-0.5c0.2-0.1,0.4-0.3,0.5-0.5c0.1-0.2,0.2-0.4,0.2-0.7c0-0.4-0.2-0.8-0.4-1
	c-0.3-0.3-0.6-0.5-1-0.5c-0.4,0-0.7,0.2-1,0.5c-0.2,0.2-0.3,0.6-0.3,1c0,0.3,0,0.5,0.1,0.7C201.9,177,202,177.2,202.3,177.3"/>
<path fill-rule="evenodd" clip-rule="evenodd" d="M205.6,178.7c0-0.3,0.1-0.6,0.2-0.8c0.2-0.2,0.4-0.3,0.7-0.3
	c0.3,0,0.5,0.1,0.7,0.3s0.3,0.5,0.3,0.8c0,0.4-0.1,0.6-0.3,0.8c-0.2,0.3-0.4,0.4-0.7,0.4c-0.2,0-0.5-0.1-0.6-0.4
	C205.7,179.3,205.6,179,205.6,178.7 M205.8,176.1c0-0.3,0-0.5,0.2-0.6c0.1-0.2,0.3-0.3,0.5-0.3c0.2,0,0.4,0.1,0.5,0.3
	c0.2,0.1,0.3,0.4,0.3,0.6c0,0.3-0.1,0.5-0.2,0.6c-0.2,0.2-0.4,0.3-0.6,0.3c-0.2,0-0.4-0.1-0.5-0.3
	C205.8,176.6,205.8,176.4,205.8,176.1 M205.9,177.3c-0.3,0-0.5,0.2-0.7,0.5c-0.1,0.2-0.2,0.5-0.2,0.9c0,0.5,0.1,0.9,0.4,1.3
	c0.3,0.3,0.7,0.4,1.1,0.4c0.5,0,0.8-0.1,1.1-0.4c0.3-0.4,0.4-0.8,0.4-1.3c0-0.3,0-0.7-0.2-0.9c-0.1-0.2-0.3-0.4-0.6-0.5
	c0.2-0.1,0.4-0.3,0.5-0.5c0.1-0.2,0.2-0.4,0.2-0.7c0-0.4-0.2-0.8-0.4-1c-0.3-0.3-0.6-0.5-1-0.5c-0.4,0-0.7,0.2-0.9,0.5
	c-0.3,0.2-0.4,0.6-0.4,1c0,0.3,0,0.5,0.2,0.7C205.5,177,205.6,177.2,205.9,177.3"/>
<path fill-rule="evenodd" clip-rule="evenodd" d="M221,178.7c0,0.6,0.1,1.1,0.3,1.3c0.2,0.3,0.5,0.4,0.9,0.4c0.5,0,0.8-0.1,1-0.4
	c0.2-0.3,0.4-0.8,0.4-1.5v-3.8h-0.7v3.9v0.7c-0.1,0.2-0.2,0.3-0.3,0.3c-0.1,0.1-0.2,0.2-0.4,0.2c-0.2,0-0.3-0.1-0.4-0.3
	c-0.2-0.1-0.2-0.4-0.2-0.9L221,178.7"/>
<path fill-rule="evenodd" clip-rule="evenodd" d="M224.9,178.7c0-0.3,0.1-0.6,0.3-0.8c0.2-0.2,0.4-0.3,0.6-0.3
	c0.3,0,0.5,0.1,0.7,0.3s0.3,0.5,0.3,0.8c0,0.4-0.1,0.6-0.3,0.8c-0.2,0.3-0.4,0.4-0.6,0.4c-0.3,0-0.5-0.1-0.7-0.4
	C225,179.3,224.9,179,224.9,178.7 M225.1,176.1c0-0.3,0.1-0.5,0.2-0.6c0.2-0.2,0.4-0.3,0.6-0.3c0.2,0,0.3,0.1,0.5,0.3
	c0.1,0.1,0.2,0.4,0.2,0.6c0,0.3-0.1,0.5-0.2,0.6c-0.2,0.2-0.3,0.3-0.5,0.3c-0.2,0-0.4-0.1-0.6-0.3
	C225.2,176.6,225.1,176.4,225.1,176.1 M225.2,177.3c-0.3,0-0.5,0.2-0.6,0.5c-0.2,0.2-0.3,0.5-0.3,0.9c0,0.5,0.2,0.9,0.5,1.3
	c0.3,0.3,0.6,0.4,1.1,0.4c0.4,0,0.8-0.1,1.1-0.4c0.2-0.4,0.4-0.8,0.4-1.3c0-0.3-0.1-0.7-0.2-0.9c-0.2-0.2-0.4-0.4-0.7-0.5
	c0.2-0.1,0.4-0.3,0.5-0.5c0.1-0.2,0.2-0.4,0.2-0.7c0-0.4-0.1-0.8-0.4-1c-0.2-0.3-0.6-0.5-0.9-0.5c-0.4,0-0.7,0.2-1,0.5
	c-0.3,0.2-0.4,0.6-0.4,1c0,0.3,0.1,0.5,0.2,0.7C224.8,177,225,177.2,225.2,177.3"/>
<path fill-rule="evenodd" clip-rule="evenodd" d="M228.5,178.7c0-0.3,0.1-0.6,0.3-0.8c0.2-0.2,0.4-0.3,0.7-0.3
	c0.2,0,0.4,0.1,0.6,0.3s0.3,0.5,0.3,0.8c0,0.4-0.1,0.6-0.3,0.8c-0.1,0.3-0.4,0.4-0.6,0.4c-0.3,0-0.5-0.1-0.7-0.4
	C228.6,179.3,228.5,179,228.5,178.7 M228.7,176.1c0-0.3,0.1-0.5,0.2-0.6c0.2-0.2,0.4-0.3,0.6-0.3s0.3,0.1,0.5,0.3
	c0.1,0.1,0.2,0.4,0.2,0.6c0,0.3,0,0.5-0.2,0.6c-0.1,0.2-0.3,0.3-0.5,0.3s-0.4-0.1-0.6-0.3C228.8,176.6,228.7,176.4,228.7,176.1
	 M228.8,177.3c-0.3,0-0.5,0.2-0.6,0.5c-0.2,0.2-0.3,0.5-0.3,0.9c0,0.5,0.2,0.9,0.5,1.3c0.3,0.3,0.6,0.4,1.1,0.4
	c0.4,0,0.8-0.1,1.1-0.4c0.3-0.4,0.4-0.8,0.4-1.3c0-0.3-0.1-0.7-0.2-0.9c-0.2-0.2-0.4-0.4-0.7-0.5c0.3-0.1,0.4-0.3,0.5-0.5
	c0.2-0.2,0.2-0.4,0.2-0.7c0-0.4-0.1-0.8-0.4-1c-0.2-0.3-0.5-0.5-0.9-0.5c-0.4,0-0.7,0.2-1,0.5c-0.2,0.2-0.4,0.6-0.4,1
	c0,0.3,0.1,0.5,0.2,0.7C228.4,177,228.6,177.2,228.8,177.3"/>
<path fill-rule="evenodd" clip-rule="evenodd" d="M160.6,115v-2.1h1.2c0.3,0,0.5,0.1,0.7,0.1c0.1,0.1,0.2,0.2,0.3,0.4
	c0.1,0.1,0.1,0.3,0.1,0.5c0,0.4-0.1,0.6-0.3,0.8c-0.1,0.2-0.4,0.3-0.8,0.3H160.6 M160,117.9h0.6v-2.3h1.2c0.6,0,1.1-0.1,1.3-0.4
	c0.3-0.4,0.4-0.8,0.4-1.3c0-0.4,0-0.7-0.2-1c-0.2-0.2-0.4-0.4-0.6-0.5c-0.2-0.1-0.5-0.1-1-0.1H160V117.9"/>
<path fill-rule="evenodd" clip-rule="evenodd" d="M166.2,117.9v-5.6h-0.3c-0.1,0.2-0.3,0.5-0.5,0.7c-0.3,0.3-0.6,0.5-0.9,0.7v0.7
	c0.2-0.1,0.4-0.3,0.6-0.4c0.2-0.2,0.4-0.3,0.6-0.5v4.4H166.2"/>
<path fill-rule="evenodd" clip-rule="evenodd" d="M189,122.9v-2h1.2h0.7c0.1,0.1,0.2,0.2,0.3,0.4c0.1,0.1,0.1,0.3,0.1,0.6
	c0,0.3,0,0.6-0.2,0.7c-0.2,0.2-0.5,0.3-0.8,0.3H189 M188.4,125.9h0.6v-2.3h1.2c0.7,0,1.1-0.2,1.4-0.5c0.2-0.4,0.4-0.8,0.4-1.3
	c0-0.4-0.1-0.7-0.3-1c-0.1-0.2-0.3-0.4-0.6-0.5c-0.2-0.1-0.5-0.1-0.9-0.1h-1.8V125.9"/>
<path fill-rule="evenodd" clip-rule="evenodd" d="M194.7,125.9v-5.7h-0.4c-0.1,0.2-0.3,0.5-0.5,0.7c-0.3,0.3-0.5,0.5-0.8,0.7v0.7
	c0.1-0.1,0.3-0.2,0.6-0.4c0.2-0.2,0.4-0.3,0.5-0.5v4.5H194.7"/>
<path fill-rule="evenodd" clip-rule="evenodd" d="M143.1,6.2c-0.1,0.7-0.3,1.2-0.7,1.5c-0.3,0.4-0.7,0.5-1.2,0.5
	c-0.6,0-1.1-0.2-1.5-0.8c-0.4-0.5-0.6-1.3-0.6-2.4c0-0.7,0.1-1.3,0.3-1.8s0.4-0.8,0.8-1c0.3-0.3,0.6-0.4,1.1-0.4
	c0.9,0,1.4,0.6,1.7,1.7l0.9-0.3c-0.2-0.7-0.5-1.3-1-1.7c-0.4-0.4-1-0.6-1.6-0.6s-1.1,0.2-1.6,0.5c-0.4,0.3-0.8,0.7-1.1,1.4
	c-0.2,0.6-0.4,1.3-0.4,2.2s0.2,1.6,0.4,2.3c0.3,0.6,0.7,1.1,1.1,1.4c0.4,0.3,0.9,0.4,1.5,0.4c0.7,0,1.3-0.2,1.8-0.6
	c0.5-0.5,0.8-1.1,1-2L143.1,6.2"/>
<path fill-rule="evenodd" clip-rule="evenodd" d="M145.7,5.1c0-1.1,0.2-1.9,0.6-2.5c0.4-0.5,1-0.8,1.6-0.8c0.4,0,0.8,0.1,1.2,0.4
	c0.3,0.2,0.6,0.6,0.7,1c0.2,0.5,0.4,1.1,0.4,1.8c0,1.1-0.3,1.9-0.7,2.4c-0.4,0.6-0.9,0.8-1.6,0.8c-0.6,0-1.1-0.2-1.6-0.8
	C145.9,6.9,145.7,6.1,145.7,5.1 M144.8,5.1c0,1.1,0.3,2,0.8,2.8c0.6,0.8,1.4,1.2,2.3,1.2c1,0,1.7-0.4,2.3-1.2
	c0.6-0.7,0.8-1.7,0.8-2.9c0-0.8-0.1-1.6-0.4-2.2s-0.6-1.1-1.1-1.4c-0.5-0.3-1-0.5-1.6-0.5c-0.9,0-1.6,0.4-2.2,1.1
	C145.1,2.7,144.8,3.8,144.8,5.1"/>
<path fill-rule="evenodd" clip-rule="evenodd" d="M153,4.6V1.9h2c0.5,0,0.9,0.2,1.1,0.4c0.2,0.2,0.3,0.5,0.3,0.9
	c0,0.3,0,0.5-0.1,0.8c-0.2,0.2-0.3,0.3-0.5,0.4c-0.3,0.1-0.6,0.2-1,0.2H153 M152.1,9h0.9V5.5h1c0.3,0,0.5,0,0.6,0.1
	c0.2,0.1,0.4,0.2,0.5,0.4c0.2,0.3,0.5,0.7,0.8,1.3l0.9,1.7h1.1l-1.2-2.2c-0.2-0.3-0.4-0.7-0.7-1c-0.1-0.1-0.3-0.3-0.5-0.4
	c0.6-0.1,1-0.4,1.4-0.7c0.3-0.4,0.4-0.9,0.4-1.5c0-0.4-0.1-0.8-0.3-1.2c-0.1-0.3-0.4-0.6-0.7-0.7c-0.2-0.2-0.7-0.2-1.3-0.2h-2.9V9"
	/>
<path fill-rule="evenodd" clip-rule="evenodd" d="M159.5,4.6V1.9h2.1c0.5,0,0.8,0.2,1.1,0.4c0.2,0.2,0.3,0.5,0.3,0.9
	c0,0.3-0.1,0.5-0.2,0.8c-0.1,0.2-0.3,0.3-0.5,0.4c-0.2,0.1-0.5,0.2-0.9,0.2H159.5 M158.7,9h0.8V5.5h1c0.3,0,0.5,0,0.7,0.1
	c0.2,0.1,0.3,0.2,0.5,0.4c0.2,0.3,0.4,0.7,0.8,1.3l0.8,1.7h1.1l-1.1-2.2c-0.2-0.3-0.4-0.7-0.7-1c-0.1-0.1-0.3-0.3-0.5-0.4
	c0.6-0.1,1-0.4,1.3-0.7c0.3-0.4,0.5-0.9,0.5-1.5c0-0.4-0.1-0.8-0.3-1.2c-0.2-0.3-0.4-0.6-0.7-0.7c-0.3-0.2-0.7-0.2-1.3-0.2h-2.9V9"
	/>
<rect x="165.4" y="1.1" fill-rule="evenodd" clip-rule="evenodd" width="0.9" height="7.9"/>
<path fill-rule="evenodd" clip-rule="evenodd" d="M168.6,8.1V2h1.4c0.5,0,0.9,0.1,1.1,0.2c0.3,0.1,0.6,0.4,0.8,0.9
	c0.2,0.4,0.4,1.1,0.4,1.9c0,0.7-0.1,1.4-0.4,1.9c-0.1,0.4-0.3,0.7-0.6,0.9C171,8,170.6,8.1,170,8.1H168.6 M167.8,9h2.3
	c0.7,0,1.2-0.1,1.6-0.4c0.4-0.3,0.8-0.7,1-1.3c0.3-0.7,0.4-1.4,0.4-2.3c0-0.7,0-1.3-0.2-1.8c-0.2-0.5-0.4-1-0.6-1.3
	c-0.3-0.3-0.7-0.6-1-0.7c-0.3-0.1-0.7-0.1-1.3-0.1h-2.2V9"/>
<path fill-rule="evenodd" clip-rule="evenodd" d="M175,5.1c0-1.1,0.2-1.9,0.6-2.5c0.4-0.5,1-0.8,1.6-0.8c0.4,0,0.8,0.1,1.1,0.4
	c0.4,0.2,0.6,0.6,0.8,1c0.2,0.5,0.3,1.1,0.3,1.8c0,1.1-0.2,1.9-0.6,2.4c-0.4,0.6-1,0.8-1.6,0.8c-0.6,0-1.1-0.2-1.6-0.8
	C175.2,6.9,175,6.1,175,5.1 M174.1,5.1c0,1.1,0.3,2,0.8,2.8c0.6,0.8,1.4,1.2,2.3,1.2c1,0,1.7-0.4,2.3-1.2c0.6-0.7,0.8-1.7,0.8-2.9
	c0-0.8-0.1-1.6-0.4-2.2s-0.6-1.1-1.1-1.4c-0.5-0.3-1-0.5-1.6-0.5c-0.9,0-1.6,0.4-2.2,1.1C174.4,2.7,174.1,3.8,174.1,5.1"/>
<path fill-rule="evenodd" clip-rule="evenodd" d="M182.3,4.6V1.9h2c0.5,0,0.8,0.2,1.1,0.4c0.2,0.2,0.3,0.5,0.3,0.9
	c0,0.3,0,0.5-0.2,0.8c-0.1,0.2-0.2,0.3-0.5,0.4c-0.2,0.1-0.5,0.2-0.9,0.2H182.3 M181.4,9h0.9V5.5h1c0.2,0,0.5,0,0.6,0.1
	c0.2,0.1,0.4,0.2,0.5,0.4c0.2,0.3,0.5,0.7,0.8,1.3l0.9,1.7h1L186,6.8c-0.2-0.3-0.4-0.7-0.7-1c-0.1-0.1-0.3-0.3-0.5-0.4
	c0.6-0.1,1-0.4,1.3-0.7c0.4-0.4,0.5-0.9,0.5-1.5c0-0.4-0.1-0.8-0.3-1.2c-0.1-0.3-0.4-0.6-0.7-0.7c-0.3-0.2-0.7-0.2-1.3-0.2h-2.9V9"
	/>
<path fill-rule="evenodd" clip-rule="evenodd" d="M141.3,17.5v-5.7h-0.4c-0.1,0.3-0.3,0.5-0.6,0.8c-0.2,0.2-0.5,0.4-0.8,0.6v0.7
	c0.1,0,0.2-0.1,0.3-0.1c0.1-0.1,0.2-0.2,0.3-0.3c0.2-0.1,0.4-0.3,0.6-0.4v4.4H141.3"/>
<path fill-rule="evenodd" clip-rule="evenodd" d="M145.9,16.8h-2.4c0.1-0.1,0.2-0.2,0.3-0.3c0.1-0.2,0.3-0.4,0.6-0.8
	c0.5-0.4,0.8-0.7,1-1c0.1-0.2,0.3-0.4,0.3-0.7c0.1-0.2,0.2-0.4,0.2-0.6c0-0.5-0.2-0.8-0.4-1.1c-0.3-0.3-0.7-0.5-1.1-0.5
	c-0.5,0-0.9,0.1-1.1,0.4c-0.3,0.3-0.5,0.7-0.5,1.2l0.6,0.1c0-0.3,0.1-0.6,0.3-0.8c0.1-0.2,0.4-0.3,0.7-0.3c0.2,0,0.4,0.1,0.6,0.3
	c0.2,0.2,0.3,0.4,0.3,0.7c0,0.2-0.1,0.5-0.3,0.8c-0.2,0.3-0.6,0.7-1.1,1.2c-0.3,0.3-0.6,0.6-0.8,0.9c-0.1,0.2-0.3,0.5-0.3,0.7
	c-0.1,0.2-0.1,0.3-0.1,0.5h3.2V16.8"/>
<path fill-rule="evenodd" clip-rule="evenodd" d="M146.5,16c0.1,0.5,0.2,0.8,0.5,1.1c0.3,0.3,0.6,0.5,1,0.5c0.5,0,0.9-0.2,1.2-0.5
	c0.3-0.4,0.5-0.8,0.5-1.3c0-0.3-0.1-0.7-0.3-0.9c-0.1-0.2-0.3-0.4-0.6-0.5c0.2-0.1,0.4-0.3,0.5-0.5c0.1-0.2,0.1-0.4,0.1-0.6
	c0-0.3,0-0.5-0.1-0.8c-0.2-0.2-0.3-0.4-0.6-0.5c-0.2-0.1-0.4-0.2-0.7-0.2c-0.4,0-0.7,0.1-0.9,0.4c-0.3,0.2-0.5,0.6-0.5,1.1l0.6,0.1
	c0-0.3,0.1-0.6,0.3-0.8c0.1-0.1,0.3-0.2,0.5-0.2c0.3,0,0.5,0.1,0.6,0.2c0.1,0.2,0.2,0.4,0.2,0.7c0,0.3-0.1,0.5-0.3,0.7
	c-0.2,0.1-0.4,0.2-0.7,0.2h-0.1v0.6c0.1,0,0.3-0.1,0.4-0.1c0.3,0,0.5,0.1,0.7,0.3c0.1,0.3,0.2,0.5,0.2,0.8c0,0.4-0.1,0.7-0.2,0.9
	c-0.2,0.2-0.5,0.3-0.8,0.3c-0.2,0-0.4-0.1-0.6-0.2c-0.1-0.2-0.2-0.5-0.3-0.9L146.5,16"/>
<path fill-rule="evenodd" clip-rule="evenodd" d="M152.1,15.5h-1.5l1.5-2.6V15.5z M152.1,17.5h0.6v-1.4h0.7v-0.6h-0.7v-3.7h-0.4
	l-2.2,3.7v0.6h2V17.5"/>
<path fill-rule="evenodd" clip-rule="evenodd" d="M205.4,43.5H200v0.4c0.2,0.1,0.5,0.2,0.7,0.5c0.3,0.2,0.5,0.5,0.7,0.8h0.6
	c-0.1-0.2-0.2-0.4-0.3-0.6c-0.2-0.2-0.3-0.4-0.5-0.5h4.2V43.5"/>
<path fill-rule="evenodd" clip-rule="evenodd" d="M204.8,39.3v2.1c-0.1,0-0.2-0.1-0.4-0.2c-0.1-0.1-0.3-0.3-0.6-0.6
	c-0.6-0.5-1-0.9-1.3-1.1c-0.3-0.1-0.7-0.2-1-0.2c-0.4,0-0.7,0.1-1,0.3c-0.3,0.2-0.5,0.6-0.5,1c0,0.5,0.1,0.8,0.4,1
	c0.3,0.3,0.7,0.4,1.2,0.5v-0.6c-0.3,0-0.6-0.1-0.8-0.2c-0.2-0.2-0.2-0.4-0.2-0.6c0-0.3,0-0.5,0.2-0.6c0.2-0.2,0.4-0.3,0.7-0.3
	c0.2,0,0.5,0.1,0.8,0.3c0.2,0.1,0.6,0.4,1.1,1c0.5,0.4,0.8,0.7,1.2,0.9c0.3,0.1,0.6,0.2,0.8,0.2v-2.9H204.8"/>
<path fill-rule="evenodd" clip-rule="evenodd" d="M204,38.7c0.5-0.1,0.8-0.2,1.1-0.5c0.3-0.2,0.4-0.6,0.4-0.9c0-0.4-0.1-0.8-0.4-1.1
	c-0.4-0.3-0.8-0.4-1.3-0.4c-0.2,0-0.4,0-0.6,0.1c-0.2,0.1-0.3,0.1-0.5,0.3c-0.1,0.1-0.1,0.2-0.2,0.4c-0.1-0.2-0.3-0.3-0.4-0.4
	c-0.2-0.2-0.4-0.2-0.7-0.2c-0.4,0-0.7,0.1-1,0.4c-0.3,0.2-0.4,0.5-0.4,0.9c0,0.3,0.1,0.6,0.4,0.9c0.2,0.2,0.5,0.4,1,0.4l0.1-0.5
	c-0.3-0.1-0.5-0.1-0.7-0.3c-0.2-0.1-0.2-0.3-0.2-0.5c0-0.2,0-0.4,0.2-0.5c0.1-0.2,0.3-0.2,0.6-0.2c0.3,0,0.5,0,0.7,0.2
	c0.1,0.2,0.2,0.4,0.2,0.7l0.6,0.1c-0.1-0.1-0.1-0.3-0.1-0.4c0-0.2,0.1-0.4,0.3-0.6c0.2-0.2,0.4-0.2,0.7-0.2c0.4,0,0.7,0,0.9,0.2
	c0.2,0.2,0.3,0.4,0.3,0.7c0,0.4-0.4,0.7-1.1,0.8L204,38.7"/>
<path fill-rule="evenodd" clip-rule="evenodd" d="M203.5,33.5v1.4l-2.4-1.4H203.5z M205.4,33.5v-0.6h-1.3v-0.6h-0.6v0.6H200v0.5
	l3.5,2h0.6v-1.9H205.4"/>
<rect x="204.7" y="30.8" fill-rule="evenodd" clip-rule="evenodd" width="0.7" height="0.7"/>
<path fill-rule="evenodd" clip-rule="evenodd" d="M204.8,29.3h-4.1v-1c0-0.3,0-0.6,0.1-0.7c0.1-0.3,0.3-0.5,0.6-0.6
	c0.3-0.1,0.7-0.2,1.3-0.2c0.5,0,0.9,0,1.3,0.2c0.3,0.1,0.5,0.2,0.6,0.4c0.1,0.2,0.2,0.5,0.2,0.9V29.3 M205.4,29.8v-1.6
	c0-0.4-0.1-0.8-0.2-1.1c-0.2-0.2-0.5-0.5-0.9-0.7c-0.5-0.1-1-0.2-1.6-0.2c-0.5,0-0.9,0-1.2,0.1c-0.4,0.1-0.7,0.3-0.9,0.5
	c-0.2,0.2-0.4,0.4-0.5,0.6c0,0.2-0.1,0.5-0.1,0.9v1.5H205.4"/>
<path fill-rule="evenodd" clip-rule="evenodd" d="M205.4,23.5H200v0.4c0.2,0.1,0.5,0.2,0.7,0.5c0.3,0.2,0.5,0.5,0.7,0.8h0.6
	c-0.1-0.2-0.2-0.4-0.3-0.6c-0.2-0.2-0.3-0.4-0.5-0.5h4.2V23.5"/>
<path fill-rule="evenodd" clip-rule="evenodd" d="M155.3,60.5v-5.4h-0.4c-0.1,0.2-0.2,0.4-0.4,0.7c-0.3,0.2-0.5,0.4-0.8,0.6v0.7
	c0.1-0.1,0.3-0.2,0.5-0.4c0.3-0.1,0.4-0.3,0.6-0.4v4.2H155.3"/>
<path fill-rule="evenodd" clip-rule="evenodd" d="M159.6,59.9h-2.2c0-0.2,0.1-0.3,0.2-0.4c0.1-0.1,0.3-0.4,0.6-0.7
	c0.6-0.5,0.9-0.9,1.1-1.3c0.2-0.3,0.3-0.6,0.3-0.9c0-0.4-0.2-0.8-0.4-1.1c-0.2-0.3-0.6-0.4-1-0.4c-0.4,0-0.8,0.1-1,0.4
	c-0.3,0.2-0.4,0.6-0.5,1.1l0.6,0.1c0-0.4,0.1-0.6,0.2-0.8c0.2-0.2,0.4-0.3,0.7-0.3c0.2,0,0.4,0.1,0.6,0.3c0.1,0.1,0.2,0.4,0.2,0.6
	c0,0.3-0.1,0.5-0.2,0.8c-0.2,0.3-0.5,0.7-1,1.2c-0.5,0.4-0.8,0.8-0.9,1.1c-0.2,0.3-0.3,0.6-0.3,0.9h3V59.9"/>
<path fill-rule="evenodd" clip-rule="evenodd" d="M160.1,59.1c0.1,0.4,0.2,0.8,0.5,1.1c0.3,0.2,0.6,0.4,1,0.4c0.4,0,0.7-0.2,1-0.5
	c0.3-0.3,0.4-0.7,0.4-1.2c0-0.2,0-0.5-0.1-0.6c0-0.2-0.1-0.4-0.2-0.5c-0.2-0.1-0.3-0.2-0.5-0.2c0.2-0.1,0.4-0.3,0.5-0.5
	c0.1-0.2,0.1-0.4,0.1-0.6c0-0.4-0.1-0.8-0.3-1c-0.3-0.3-0.6-0.4-1-0.4c-0.3,0-0.6,0.1-0.8,0.3c-0.3,0.3-0.4,0.6-0.5,1.1l0.5,0.1
	c0.1-0.3,0.2-0.6,0.3-0.7c0.2-0.2,0.3-0.3,0.5-0.3c0.2,0,0.4,0.1,0.6,0.2c0.1,0.2,0.2,0.4,0.2,0.6c0,0.3-0.1,0.5-0.3,0.7
	c-0.2,0.2-0.4,0.3-0.6,0.3l-0.1-0.1l-0.1,0.6h0.4c0.2,0,0.4,0.1,0.6,0.2c0.2,0.2,0.3,0.5,0.3,0.8c0,0.3-0.1,0.6-0.3,0.8
	c-0.2,0.2-0.4,0.3-0.7,0.3c-0.4,0-0.7-0.3-0.8-1L160.1,59.1"/>
<path fill-rule="evenodd" clip-rule="evenodd" d="M164.2,58.7c0-0.3,0.1-0.6,0.3-0.8c0.1-0.2,0.3-0.3,0.6-0.3c0.2,0,0.4,0.1,0.6,0.3
	c0.1,0.2,0.2,0.5,0.2,0.9c0,0.4-0.1,0.7-0.2,0.9c-0.2,0.2-0.4,0.3-0.6,0.3c-0.2,0-0.5-0.1-0.6-0.3C164.3,59.4,164.2,59.1,164.2,58.7
	 M166.4,56.4c0-0.2-0.1-0.4-0.1-0.6c-0.1-0.1-0.2-0.3-0.3-0.4c-0.2-0.2-0.5-0.3-0.8-0.3c-0.5,0-0.9,0.2-1.2,0.6
	c-0.3,0.5-0.4,1.2-0.4,2.3c0,0.9,0.1,1.6,0.4,2c0.3,0.4,0.7,0.6,1.1,0.6c0.3,0,0.5-0.1,0.7-0.2c0.2-0.2,0.4-0.4,0.5-0.7
	c0.1-0.3,0.2-0.6,0.2-1c0-0.5-0.1-0.9-0.4-1.2c-0.3-0.4-0.6-0.5-0.9-0.5c-0.2,0-0.4,0-0.6,0.2c-0.2,0.1-0.4,0.3-0.5,0.5
	c0-0.7,0.1-1.2,0.3-1.5c0.1-0.4,0.4-0.6,0.7-0.6c0.2,0,0.4,0.1,0.5,0.3c0.1,0.1,0.2,0.3,0.3,0.6L166.4,56.4"/>
<rect x="167.4" y="59.7" fill-rule="evenodd" clip-rule="evenodd" width="0.6" height="0.8"/>
<path fill-rule="evenodd" clip-rule="evenodd" d="M169.6,59.9v-4.2h0.9c0.3,0,0.6,0.1,0.7,0.1c0.3,0.1,0.5,0.3,0.6,0.7
	c0.2,0.3,0.2,0.7,0.2,1.3c0,0.5,0,0.9-0.2,1.3c-0.1,0.2-0.2,0.4-0.4,0.6c-0.2,0.1-0.5,0.2-0.9,0.2H169.6 M169,60.5h1.6
	c0.4,0,0.8-0.1,1.1-0.3c0.3-0.2,0.5-0.5,0.7-0.9c0.2-0.4,0.2-0.9,0.2-1.5c0-0.5,0-0.9-0.1-1.3c-0.1-0.3-0.3-0.6-0.5-0.8
	c-0.1-0.3-0.4-0.4-0.6-0.5c-0.2-0.1-0.5-0.1-0.9-0.1H169V60.5"/>
<path fill-rule="evenodd" clip-rule="evenodd" d="M175.3,60.5v-5.4h-0.4c-0.1,0.2-0.2,0.4-0.5,0.7c-0.2,0.2-0.5,0.4-0.8,0.6v0.7
	c0.2-0.1,0.4-0.2,0.6-0.4c0.2-0.1,0.4-0.3,0.5-0.4v4.2H175.3"/>
<text transform="matrix(1 0 0 1 5.566406e-002 6.8564)" fill="#1D1D1B" font-family="'Helvetica'" font-size="8">ROOM NAMES </text>
<text transform="matrix(1 0 0 1 55.4795 6.8564)" fill="#1D1D1B" font-family="'Helvetica'" font-size="8"> </text>
<text transform="matrix(1 0 0 1 5.566406e-002 15.8564)" fill="#1D1D1B" font-family="'Helvetica'" font-size="8">AND NUMBERS</text>
<text transform="matrix(1 0 0 1 5.566406e-002 59.9678)"><tspan x="0" y="0" fill="#1D1D1B" font-family="'Helvetica'" font-size="8">DOOR </tspan><tspan x="24.9" y="0" fill="#1D1D1B" font-family="'Helvetica'" font-size="8">T</tspan><tspan x="28.8" y="0" fill="#1D1D1B" font-family="'Helvetica'" font-size="8">AGS</tspan></text>
<text transform="matrix(1 0 0 1 5.566406e-002 117.4072)"><tspan x="0" y="0" fill="#1D1D1B" font-family="'Helvetica'" font-size="8">P</tspan><tspan x="4.5" y="0" fill="#1D1D1B" font-family="'Helvetica'" font-size="8">A</tspan><tspan x="9.5" y="0" fill="#1D1D1B" font-family="'Helvetica'" font-size="8">R</tspan><tspan x="14.9" y="0" fill="#1D1D1B" font-family="'Helvetica'" font-size="8">TITION </tspan><tspan x="41.1" y="0" fill="#1D1D1B" font-family="'Helvetica'" font-size="8">T</tspan><tspan x="45" y="0" fill="#1D1D1B" font-family="'Helvetica'" font-size="8">AGS</tspan></text>
<text transform="matrix(1 0 0 1 5.566406e-002 179.6563)"><tspan x="0" y="0" fill="#1D1D1B" font-family="'Helvetica'" font-size="8">JOINE</tspan><tspan x="22.1" y="0" fill="#1D1D1B" font-family="'Helvetica'" font-size="8">R</tspan><tspan x="27.3" y="0" fill="#1D1D1B" font-family="'Helvetica'" font-size="8">Y AND </tspan></text>
<text transform="matrix(1 0 0 1 52.8555 179.6563)" fill="#1D1D1B" font-family="'Helvetica'" font-size="8"> </text>
<text transform="matrix(1 0 0 1 5.566406e-002 188.6563)"><tspan x="0" y="0" fill="#1D1D1B" font-family="'Helvetica'" font-size="8">EQUIPMENT </tspan><tspan x="46.7" y="0" fill="#1D1D1B" font-family="'Helvetica'" font-size="8">T</tspan><tspan x="50.6" y="0" fill="#1D1D1B" font-family="'Helvetica'" font-size="8">AGS</tspan></text>
<line fill="none" stroke="#CD1719" stroke-width="0.75" stroke-linecap="round" stroke-linejoin="round" stroke-dasharray="0,2.233" x1="60.9" y1="177" x2="178.1" y2="177"/>
<path fill="none" stroke="#CD1719" stroke-width="0.75" stroke-linecap="round" stroke-linejoin="round" d="M179.3,177L179.3,177
	 M58.7,177L58.7,177"/>
<line fill="none" stroke="#CD1719" stroke-width="0.75" stroke-linecap="round" stroke-linejoin="round" stroke-dasharray="0,2.275" x1="70.2" y1="114.6" x2="150.9" y2="114.6"/>
<path fill="none" stroke="#CD1719" stroke-width="0.75" stroke-linecap="round" stroke-linejoin="round" d="M152.1,114.6
	L152.1,114.6 M67.9,114.6L67.9,114.6"/>
<line fill="none" stroke="#CD1719" stroke-width="0.75" stroke-linecap="round" stroke-linejoin="round" stroke-dasharray="0,2.227" x1="55.2" y1="57.1" x2="145.4" y2="57.1"/>
<path fill="none" stroke="#CD1719" stroke-width="0.75" stroke-linecap="round" stroke-linejoin="round" d="M146.5,57.1L146.5,57.1
	 M53,57.1L53,57.1"/>
<line fill="none" stroke="#CD1719" stroke-width="0.75" stroke-linecap="round" stroke-linejoin="round" stroke-dasharray="0,2.272" x1="60.9" y1="4.4" x2="130.2" y2="4.7"/>
<path fill="none" stroke="#CD1719" stroke-width="0.75" stroke-linecap="round" stroke-linejoin="round" d="M131.4,4.7L131.4,4.7
	 M58.7,4.3L58.7,4.3"/>
<path fill="none" stroke="#B3B3B3" stroke-width="0.24" stroke-linejoin="bevel" stroke-miterlimit="1.414" d="M149.1,55
	c-0.1,0-0.1,0-0.1,0.1s0,0.1,0.1,0.1c0.1,0,0.1,0,0.1-0.1S149.2,55,149.1,55"/>
<path fill="none" stroke="#B3B3B3" stroke-width="0.24" stroke-linejoin="bevel" stroke-miterlimit="1.414" d="M143.4,49
	c0.1,7.2,3.1,14,8.2,18.9c5.2,4.8,12,7.4,19.1,6.9"/>
<path fill="none" stroke="#B3B3B3" stroke-width="0.24" stroke-linejoin="bevel" stroke-miterlimit="1.414" d="M212.2,12.9
	c-7.1,0.1-13.9,3-18.8,8.2c-4.9,5.1-7.4,12-7,19"/>
</svg>
