<svg version="1.1" id="Layer_1" xmlns="http://www.w3.org/2000/svg" xmlns:xlink="http://www.w3.org/1999/xlink" x="0px" y="0px"
	 viewBox="0 0 270 236.813" enable-background="new 0 0 270 236.813" xml:space="preserve">
<polyline fill="none" stroke="#000000" stroke-width="0.24" stroke-linejoin="bevel" stroke-miterlimit="1.414" points="
	128.268,168.513 113.468,168.513 113.468,157.013 "/>
<line fill="none" stroke="#000000" stroke-width="0.72" stroke-linejoin="round" stroke-miterlimit="1.414" x1="113.468" y1="157.013" x2="117.868" y2="159.613"/>
<line fill="none" stroke="#000000" stroke-width="0.72" stroke-linejoin="round" stroke-miterlimit="1.414" x1="113.468" y1="157.013" x2="109.068" y2="159.613"/>
<polyline fill="none" stroke="#000000" stroke-width="0.24" stroke-linejoin="bevel" stroke-miterlimit="1.414" points="
	145.668,168.513 160.468,168.513 160.468,157.013 "/>
<line fill="none" stroke="#000000" stroke-width="0.72" stroke-linejoin="round" stroke-miterlimit="1.414" x1="160.468" y1="157.013" x2="156.068" y2="159.613"/>
<line fill="none" stroke="#000000" stroke-width="0.72" stroke-linejoin="round" stroke-miterlimit="1.414" x1="160.468" y1="157.013" x2="164.968" y2="159.613"/>
<polyline fill="none" stroke="#000000" stroke-width="0.24" stroke-linejoin="bevel" stroke-miterlimit="1.414" points="
	190.968,153.713 190.968,168.513 179.468,168.513 "/>
<line fill="none" stroke="#000000" stroke-width="0.72" stroke-linejoin="round" stroke-miterlimit="1.414" x1="179.468" y1="168.513" x2="181.968" y2="164.113"/>
<line fill="none" stroke="#000000" stroke-width="0.72" stroke-linejoin="round" stroke-miterlimit="1.414" x1="179.468" y1="168.513" x2="181.968" y2="173.013"/>
<polyline fill="none" stroke="#000000" stroke-width="0.24" stroke-linejoin="bevel" stroke-miterlimit="1.414" points="
	190.968,136.313 190.968,121.513 179.468,121.513 "/>
<line fill="none" stroke="#000000" stroke-width="0.72" stroke-linejoin="round" stroke-miterlimit="1.414" x1="179.468" y1="121.513" x2="181.968" y2="125.913"/>
<line fill="none" stroke="#000000" stroke-width="0.72" stroke-linejoin="round" stroke-miterlimit="1.414" x1="179.468" y1="121.513" x2="181.968" y2="117.113"/>
<path fill="none" stroke="#000000" stroke-width="0.24" stroke-linejoin="bevel" stroke-miterlimit="1.414" d="M151.568,222.213
	c0-3.8-1.5-7.5-4.2-10.3c-2.8-2.7-6.5-4.3-10.3-4.3c-3.9,0-7.6,1.6-10.4,4.3c-2.7,2.8-4.2,6.5-4.2,10.3c0,3.9,1.5,7.6,4.2,10.3
	c2.8,2.8,6.5,4.3,10.4,4.3c3.8,0,7.5-1.5,10.3-4.3C150.068,229.813,151.568,226.113,151.568,222.213"/>
<polyline fill-rule="evenodd" clip-rule="evenodd" points="136.268,222.213 137.768,222.213 137.768,207.613 136.268,207.613 "/>
<path fill-rule="evenodd" clip-rule="evenodd" d="M130.768,169.013l0.4-1.5c0.1-0.3,0.1-0.7,0.2-1c0,0.3,0.1,0.6,0.2,1.1l0.4,1.4
	H130.768 M129.668,171.113h0.6l0.3-1.6h1.5l0.5,1.6h0.5l-1.5-5.1h-0.5L129.668,171.113"/>
<polygon fill-rule="evenodd" clip-rule="evenodd" points="133.468,171.113 135.668,171.113 135.668,170.513 133.868,170.513 
	133.868,166.013 133.468,166.013 "/>
<rect x="136.368" y="166.013" fill-rule="evenodd" clip-rule="evenodd" width="0.4" height="5.1"/>
<path fill-rule="evenodd" clip-rule="evenodd" d="M139.268,169.113h1.1v0.9c-0.1,0.2-0.3,0.3-0.5,0.4s-0.4,0.2-0.5,0.2
	c-0.4,0-0.8-0.2-1-0.6c-0.2-0.3-0.4-0.8-0.4-1.5c0-0.4,0.1-0.8,0.2-1.1c0.1-0.3,0.3-0.6,0.5-0.7c0.1-0.2,0.4-0.2,0.6-0.2
	c0.2,0,0.4,0,0.5,0.1c0.2,0.1,0.3,0.2,0.4,0.3c0,0.2,0.1,0.4,0.2,0.7l0.4-0.2c-0.1-0.4-0.2-0.6-0.3-0.9c-0.1-0.2-0.3-0.3-0.5-0.4
	c-0.2-0.2-0.4-0.2-0.7-0.2c-0.3,0-0.6,0.1-0.9,0.3c-0.2,0.2-0.4,0.5-0.6,0.9c-0.2,0.4-0.3,0.9-0.3,1.4c0,0.6,0.1,1.1,0.3,1.5
	c0.1,0.4,0.4,0.7,0.6,0.9c0.3,0.2,0.6,0.3,1,0.3c0.2,0,0.5-0.1,0.7-0.2c0.3-0.2,0.5-0.4,0.8-0.6v-1.9h-1.6V169.113"/>
<polygon fill-rule="evenodd" clip-rule="evenodd" points="141.468,171.113 141.968,171.113 141.968,167.113 143.868,171.113 
	144.368,171.113 144.368,166.013 143.868,166.013 143.868,170.013 141.968,166.013 141.468,166.013 "/>
<path fill-rule="evenodd" clip-rule="evenodd" d="M191.368,151.313l-1.5-0.4c-0.3-0.1-0.6-0.2-0.9-0.2c0.2-0.1,0.6-0.2,1-0.3
	l1.4-0.4V151.313 M193.468,152.313v-0.5l-1.5-0.4v-1.5l1.5-0.4v-0.6l-5.1,1.5v0.5L193.468,152.313"/>
<polygon fill-rule="evenodd" clip-rule="evenodd" points="193.468,148.613 193.468,146.313 192.868,146.313 192.868,148.113 
	188.368,148.113 188.368,148.613 "/>
<rect x="188.368" y="145.213" fill-rule="evenodd" clip-rule="evenodd" width="5.1" height="0.5"/>
<path fill-rule="evenodd" clip-rule="evenodd" d="M191.468,142.713v-1.1h1c0.1,0.2,0.2,0.3,0.3,0.5c0.1,0.2,0.2,0.4,0.2,0.6
	c0,0.4-0.2,0.7-0.5,0.9c-0.4,0.3-0.9,0.4-1.5,0.4c-0.5,0-0.9-0.1-1.2-0.2s-0.5-0.2-0.7-0.4c-0.1-0.2-0.2-0.4-0.2-0.7
	c0-0.2,0-0.3,0.1-0.5c0.1-0.1,0.2-0.2,0.4-0.3c0.1-0.1,0.3-0.2,0.6-0.2l-0.2-0.5c-0.3,0.1-0.6,0.2-0.8,0.3c-0.2,0.1-0.4,0.3-0.5,0.5
	c-0.1,0.2-0.2,0.4-0.2,0.7c0,0.3,0.1,0.6,0.3,0.9c0.2,0.3,0.5,0.5,0.9,0.6c0.4,0.2,0.9,0.3,1.5,0.3c0.5,0,1-0.1,1.4-0.3
	c0.4-0.1,0.7-0.3,0.9-0.6c0.2-0.3,0.3-0.6,0.3-0.9c0-0.3-0.1-0.6-0.2-0.8c-0.1-0.3-0.3-0.5-0.6-0.7h-1.9v1.5H191.468"/>
<polygon fill-rule="evenodd" clip-rule="evenodd" points="193.468,140.513 193.468,140.013 189.468,140.013 193.468,138.213 
	193.468,137.713 188.368,137.713 188.368,138.113 192.368,138.113 188.368,140.013 188.368,140.513 "/>
<line fill="none" stroke="#000000" stroke-width="0.48" stroke-linejoin="round" stroke-miterlimit="1.414" x1="94.654" y1="60.357" x2="157.654" y2="60.357"/>
<line fill="none" stroke="#000000" stroke-width="0.24" stroke-linejoin="bevel" stroke-miterlimit="1.414" x1="101.554" y1="54.357" x2="94.654" y2="54.357"/>
<line fill="none" stroke="#000000" stroke-width="0.24" stroke-linejoin="bevel" stroke-miterlimit="1.414" x1="98.154" y1="60.357" x2="94.654" y2="54.357"/>
<line fill="none" stroke="#000000" stroke-width="0.24" stroke-linejoin="bevel" stroke-miterlimit="1.414" x1="98.154" y1="60.357" x2="101.554" y2="54.357"/>
<polygon fill-rule="evenodd" clip-rule="evenodd" points="131.054,67.657 131.654,67.657 131.654,65.157 133.854,65.157 
	133.854,64.457 131.654,64.457 131.654,62.757 134.154,62.757 134.154,62.057 131.054,62.057 "/>
<polygon fill-rule="evenodd" clip-rule="evenodd" points="134.954,67.657 135.554,67.657 135.554,65.157 137.754,65.157 
	137.754,64.457 135.554,64.457 135.554,62.757 138.054,62.757 138.054,62.057 134.954,62.057 "/>
<polygon fill-rule="evenodd" clip-rule="evenodd" points="138.854,67.657 141.654,67.657 141.654,66.957 139.454,66.957 
	139.454,62.057 138.854,62.057 "/>
<rect x="142.254" y="63.758" width="3" height="0.599"/>
<rect x="142.254" y="65.458" width="3" height="0.599"/>
<path fill-rule="evenodd" clip-rule="evenodd" d="M148.054,67.657v-5.6h-0.4c-0.1,0.2-0.3,0.5-0.5,0.7c-0.3,0.3-0.5,0.5-0.8,0.7v0.7
	c0.1-0.1,0.3-0.2,0.6-0.4c0.2-0.2,0.4-0.3,0.5-0.5v4.4H148.054"/>
<path fill-rule="evenodd" clip-rule="evenodd" d="M152.354,66.957h-2.2c0.1-0.1,0.1-0.2,0.2-0.3c0.1-0.2,0.4-0.4,0.7-0.7
	c0.5-0.6,0.9-1,1.1-1.3c0.1-0.4,0.2-0.7,0.2-1.1c0-0.4-0.1-0.7-0.3-1c-0.3-0.3-0.6-0.5-1.1-0.5c-0.4,0-0.7,0.1-1,0.4
	c-0.3,0.3-0.4,0.7-0.5,1.2l0.6,0.1c0-0.4,0.1-0.7,0.3-0.8c0.1-0.2,0.3-0.3,0.6-0.3c0.2,0,0.4,0.1,0.6,0.2c0.2,0.2,0.3,0.4,0.3,0.7
	s-0.1,0.5-0.3,0.8c-0.1,0.3-0.5,0.7-1,1.2s-0.8,0.9-0.9,1.2c-0.2,0.3-0.3,0.6-0.3,0.9h3V66.957"/>
<rect x="153.354" y="66.857" fill-rule="evenodd" clip-rule="evenodd" width="0.6" height="0.8"/>
<path fill-rule="evenodd" clip-rule="evenodd" d="M155.354,66.057c0-0.3,0.1-0.6,0.3-0.8c0.1-0.2,0.4-0.3,0.6-0.3
	c0.3,0,0.5,0.1,0.7,0.3c0.2,0.2,0.3,0.5,0.3,0.8s-0.1,0.6-0.3,0.8c-0.2,0.2-0.4,0.3-0.7,0.3c-0.2,0-0.4-0.1-0.6-0.3
	C155.454,66.657,155.354,66.357,155.354,66.057 M155.554,63.457c0-0.2,0.1-0.4,0.2-0.6c0.1-0.2,0.3-0.2,0.5-0.2s0.4,0,0.5,0.2
	c0.2,0.2,0.3,0.4,0.3,0.6c0,0.3-0.1,0.5-0.2,0.7c-0.2,0.1-0.4,0.2-0.6,0.2s-0.4-0.1-0.5-0.2
	C155.654,63.957,155.554,63.757,155.554,63.457 M155.654,64.657c-0.3,0.1-0.5,0.2-0.6,0.5c-0.2,0.2-0.3,0.5-0.3,0.9
	c0,0.5,0.2,0.9,0.5,1.2c0.2,0.3,0.6,0.5,1,0.5c0.5,0,0.8-0.2,1.1-0.5s0.4-0.7,0.4-1.2c0-0.4,0-0.7-0.2-0.9c-0.1-0.2-0.4-0.4-0.6-0.5
	c0.2-0.1,0.4-0.3,0.5-0.5c0.1-0.2,0.1-0.4,0.1-0.6c0-0.5-0.1-0.8-0.3-1.1c-0.3-0.3-0.6-0.4-1-0.4c-0.4,0-0.7,0.1-0.9,0.4
	c-0.3,0.3-0.4,0.6-0.4,1c0,0.3,0.1,0.5,0.2,0.7C155.254,64.357,155.454,64.557,155.654,64.657"/>
<polygon fill-rule="evenodd" clip-rule="evenodd" points="123.254,58.257 126.754,58.257 126.754,57.457 123.954,57.457 
	123.954,51.357 123.254,51.357 "/>
<polygon fill-rule="evenodd" clip-rule="evenodd" points="127.654,58.257 131.954,58.257 131.954,57.457 128.454,57.457 
	128.454,55.057 131.554,55.057 131.554,54.257 128.454,54.257 128.454,52.157 131.754,52.157 131.754,51.357 127.654,51.357 "/>
<path fill-rule="evenodd" clip-rule="evenodd" d="M134.554,58.257h0.8l2.2-6.9h-0.8l-1.5,5c-0.1,0.2-0.1,0.4-0.2,0.6
	c0,0.2-0.1,0.4-0.1,0.6l-0.3-1.2l-1.5-5h-0.8L134.554,58.257"/>
<polygon fill-rule="evenodd" clip-rule="evenodd" points="138.254,58.257 142.454,58.257 142.454,57.457 138.954,57.457 
	138.954,55.057 142.054,55.057 142.054,54.257 138.954,54.257 138.954,52.157 142.254,52.157 142.254,51.357 138.254,51.357 "/>
<polygon fill-rule="evenodd" clip-rule="evenodd" points="143.454,58.257 146.954,58.257 146.954,57.457 144.154,57.457 
	144.154,51.357 143.454,51.357 "/>
<path fill-rule="evenodd" clip-rule="evenodd" d="M150.454,54.857c0-1.1,0.1-1.8,0.3-2.2c0.2-0.4,0.5-0.6,0.8-0.6
	c0.4,0,0.6,0.2,0.8,0.6c0.3,0.3,0.4,1.1,0.4,2.2c0,1.1-0.1,1.9-0.4,2.3c-0.2,0.3-0.4,0.5-0.7,0.5c-0.4,0-0.7-0.2-0.9-0.5
	C150.554,56.757,150.454,55.957,150.454,54.857 M149.754,54.857c0,1.3,0.2,2.2,0.5,2.7c0.4,0.6,0.8,0.8,1.3,0.8
	c0.6,0,1.1-0.3,1.4-0.9c0.3-0.6,0.5-1.4,0.5-2.6c0-1.3-0.2-2.2-0.6-2.8c-0.3-0.5-0.7-0.7-1.3-0.7c-0.6,0-1,0.3-1.3,0.9
	C149.854,52.857,149.754,53.757,149.754,54.857"/>
<path fill-rule="evenodd" clip-rule="evenodd" d="M157.754,57.457h-2.7c0-0.2,0.1-0.3,0.3-0.5c0.1-0.1,0.3-0.4,0.8-0.8
	c0.6-0.7,1-1.2,1.3-1.6c0.2-0.4,0.3-0.9,0.3-1.3c0-0.5-0.1-0.9-0.4-1.3c-0.3-0.4-0.8-0.6-1.3-0.6c-0.6,0-1,0.2-1.3,0.5
	c-0.3,0.3-0.5,0.8-0.6,1.5l0.7,0.1c0-0.5,0.1-0.8,0.4-1c0.2-0.3,0.4-0.4,0.7-0.4s0.6,0.1,0.8,0.3c0.2,0.2,0.3,0.5,0.3,0.9
	c0,0.3-0.1,0.6-0.3,1c-0.2,0.3-0.6,0.8-1.3,1.5c-0.5,0.5-0.9,1-1.1,1.4c-0.2,0.4-0.3,0.8-0.3,1.1h3.7V57.457"/>
<text transform="matrix(1 0 0 1 16.5723 41.396)" fill="#cd1719" font-family="'Helvetica'" font-size="9">N</text>
<text transform="matrix(1 0 0 1 22.9082 41.396)" fill="#cd1719" font-family="'Helvetica'" font-size="9">umber with </text>
<text transform="matrix(1 0 0 1 68.7446 41.396)" fill="#cd1719" font-family="'Helvetica'" font-size="9"> </text>
<text transform="matrix(1 0 0 1 16.5723 51.9956)"><tspan x="0" y="0" fill="#cd1719" font-family="'Helvetica'" font-size="9">leading ze</tspan><tspan x="39.015" y="0" fill="#cd1719" font-family="'Helvetica'" font-size="9">r</tspan><tspan x="41.696" y="0" fill="#cd1719" font-family="'Helvetica'" font-size="9">o</tspan></text>
<text transform="matrix(1 0 0 1 16.5723 82.7817)" fill="#cd1719" font-family="'Helvetica'" font-size="9">F</text>
<path fill="#cd1719" d="M21.954,76.365h0.567v0.9h-0.567V76.365z M21.954,78.138h0.567v4.644h-0.567V78.138z M23.601,78.138h0.567
	v0.801h0.018c0.054-0.138,0.131-0.266,0.229-0.383c0.099-0.117,0.214-0.216,0.347-0.297c0.132-0.081,0.276-0.144,0.432-0.189
	c0.156-0.045,0.315-0.068,0.477-0.068c0.324,0,0.595,0.042,0.814,0.126c0.219,0.084,0.394,0.203,0.527,0.356
	c0.132,0.153,0.225,0.341,0.279,0.563c0.054,0.222,0.081,0.471,0.081,0.747v2.988h-0.567v-2.898c0-0.198-0.018-0.383-0.054-0.553
	c-0.036-0.171-0.099-0.32-0.189-0.445c-0.09-0.126-0.211-0.225-0.364-0.297c-0.153-0.072-0.344-0.108-0.572-0.108
	c-0.228,0-0.431,0.041-0.607,0.122c-0.177,0.081-0.328,0.192-0.454,0.333c-0.126,0.141-0.222,0.309-0.288,0.504
	c-0.066,0.195-0.102,0.407-0.108,0.635v2.709h-0.567V78.138z M28.452,76.365h0.567v0.9h-0.567V76.365z M28.452,78.138h0.567v4.644
	h-0.567V78.138z M32.889,79.497c-0.006-0.174-0.042-0.325-0.108-0.455c-0.066-0.129-0.155-0.235-0.265-0.32
	c-0.111-0.084-0.239-0.145-0.382-0.185c-0.144-0.039-0.297-0.058-0.459-0.058c-0.126,0-0.254,0.014-0.382,0.041
	c-0.129,0.027-0.248,0.072-0.356,0.136c-0.108,0.063-0.195,0.146-0.261,0.249c-0.066,0.103-0.099,0.229-0.099,0.38
	c0,0.127,0.031,0.234,0.094,0.321c0.063,0.087,0.142,0.161,0.239,0.222c0.096,0.06,0.201,0.11,0.315,0.149
	c0.114,0.039,0.219,0.071,0.315,0.095l0.756,0.17c0.162,0.024,0.322,0.067,0.481,0.13c0.159,0.063,0.3,0.145,0.423,0.247
	c0.123,0.102,0.223,0.227,0.301,0.377c0.078,0.15,0.117,0.326,0.117,0.529c0,0.251-0.057,0.465-0.171,0.641
	c-0.114,0.177-0.26,0.32-0.437,0.431c-0.177,0.111-0.377,0.191-0.598,0.242c-0.222,0.051-0.441,0.076-0.657,0.076
	c-0.546,0-0.989-0.13-1.327-0.391c-0.339-0.261-0.533-0.676-0.58-1.247h0.567c0.024,0.384,0.163,0.674,0.419,0.868
	c0.255,0.195,0.571,0.293,0.949,0.293c0.132,0,0.273-0.015,0.423-0.045c0.15-0.03,0.288-0.081,0.414-0.153
	c0.126-0.072,0.229-0.163,0.31-0.275c0.081-0.111,0.122-0.247,0.122-0.409c0-0.132-0.029-0.246-0.086-0.342
	c-0.057-0.096-0.134-0.176-0.229-0.239c-0.096-0.063-0.206-0.115-0.328-0.157c-0.123-0.042-0.247-0.078-0.373-0.108l-0.729-0.162
	c-0.186-0.048-0.357-0.104-0.513-0.167c-0.156-0.063-0.292-0.141-0.41-0.234c-0.117-0.093-0.209-0.207-0.274-0.342
	c-0.066-0.135-0.099-0.302-0.099-0.5c0-0.234,0.052-0.435,0.158-0.603c0.105-0.168,0.241-0.303,0.41-0.405
	c0.168-0.102,0.355-0.177,0.563-0.225c0.207-0.048,0.412-0.072,0.616-0.072c0.234,0,0.451,0.03,0.653,0.09
	c0.201,0.06,0.378,0.153,0.531,0.279c0.153,0.126,0.274,0.282,0.365,0.468c0.09,0.186,0.141,0.405,0.153,0.657H32.889z
	 M34.428,76.356h0.567v2.583h0.018c0.054-0.138,0.131-0.266,0.229-0.383c0.099-0.117,0.214-0.216,0.347-0.297
	c0.132-0.081,0.276-0.144,0.432-0.189c0.156-0.045,0.315-0.068,0.477-0.068c0.324,0,0.595,0.042,0.814,0.126
	c0.219,0.084,0.394,0.203,0.527,0.356c0.132,0.153,0.225,0.341,0.279,0.563c0.054,0.222,0.081,0.471,0.081,0.747v2.988h-0.567
	v-2.898c0-0.198-0.018-0.383-0.054-0.553c-0.036-0.171-0.099-0.32-0.189-0.445c-0.09-0.126-0.211-0.225-0.364-0.297
	c-0.153-0.072-0.344-0.108-0.572-0.108c-0.228,0-0.431,0.041-0.607,0.122c-0.177,0.081-0.328,0.192-0.454,0.333
	c-0.126,0.141-0.222,0.309-0.288,0.504c-0.066,0.195-0.102,0.407-0.108,0.635v2.709h-0.567V76.356z M39.603,80.613
	c0,0.21,0.03,0.423,0.09,0.639c0.06,0.216,0.15,0.411,0.27,0.585c0.12,0.174,0.277,0.318,0.472,0.432
	c0.195,0.114,0.428,0.171,0.698,0.171c0.414,0,0.738-0.109,0.972-0.328c0.234-0.219,0.396-0.505,0.486-0.86h0.567
	c-0.12,0.528-0.341,0.938-0.661,1.229c-0.321,0.291-0.776,0.437-1.363,0.437c-0.372,0-0.69-0.066-0.954-0.198
	c-0.264-0.132-0.48-0.31-0.648-0.536c-0.168-0.225-0.293-0.486-0.374-0.783c-0.081-0.297-0.121-0.61-0.121-0.941
	c0-0.306,0.04-0.606,0.121-0.9c0.081-0.294,0.205-0.556,0.374-0.788c0.168-0.231,0.384-0.417,0.648-0.558
	c0.264-0.141,0.582-0.211,0.954-0.211c0.372,0,0.69,0.075,0.954,0.225c0.264,0.15,0.478,0.346,0.643,0.59
	c0.165,0.243,0.283,0.522,0.355,0.837c0.072,0.315,0.102,0.635,0.09,0.958H39.603z M42.609,80.136
	c-0.006-0.216-0.044-0.423-0.113-0.621c-0.069-0.198-0.167-0.373-0.292-0.526c-0.126-0.153-0.279-0.276-0.459-0.369
	c-0.18-0.093-0.384-0.14-0.612-0.14c-0.234,0-0.441,0.047-0.621,0.14c-0.18,0.093-0.333,0.216-0.459,0.369
	c-0.126,0.153-0.227,0.33-0.301,0.531c-0.075,0.201-0.125,0.407-0.148,0.617H42.609z M48.027,82.782h-0.522V81.9h-0.018
	c-0.06,0.15-0.148,0.288-0.266,0.414c-0.117,0.126-0.251,0.234-0.4,0.324c-0.15,0.09-0.311,0.159-0.481,0.207
	c-0.171,0.048-0.341,0.072-0.509,0.072c-0.354,0-0.661-0.066-0.922-0.198c-0.261-0.132-0.479-0.31-0.653-0.536
	c-0.174-0.225-0.303-0.486-0.387-0.783c-0.084-0.297-0.126-0.61-0.126-0.941c0-0.33,0.042-0.643,0.126-0.94
	c0.084-0.297,0.213-0.558,0.387-0.783c0.174-0.225,0.392-0.404,0.653-0.536c0.261-0.132,0.568-0.198,0.922-0.198
	c0.174,0,0.343,0.023,0.509,0.068c0.165,0.045,0.319,0.11,0.463,0.193c0.144,0.084,0.271,0.189,0.383,0.315
	c0.111,0.126,0.196,0.273,0.257,0.441h0.018v-2.664h0.567V82.782z M44.31,80.46c0,0.24,0.028,0.479,0.086,0.716
	c0.057,0.237,0.147,0.449,0.27,0.635c0.123,0.186,0.28,0.337,0.473,0.454c0.192,0.117,0.423,0.176,0.693,0.176
	c0.3,0,0.554-0.059,0.761-0.176s0.375-0.268,0.504-0.454c0.129-0.186,0.222-0.397,0.279-0.635c0.057-0.237,0.086-0.475,0.086-0.716
	c0-0.24-0.029-0.478-0.086-0.715c-0.057-0.237-0.15-0.448-0.279-0.635c-0.129-0.186-0.297-0.338-0.504-0.455
	s-0.461-0.175-0.761-0.175c-0.27,0-0.501,0.058-0.693,0.175c-0.192,0.117-0.35,0.269-0.473,0.455
	c-0.123,0.186-0.213,0.398-0.27,0.635C44.339,79.981,44.31,80.22,44.31,80.46z M51.915,78.615h-0.792v-0.477h0.792v-0.423
	c0-0.198,0.015-0.381,0.045-0.549c0.03-0.168,0.087-0.312,0.171-0.432c0.084-0.12,0.199-0.213,0.346-0.279
	c0.147-0.066,0.334-0.099,0.563-0.099c0.084,0,0.162,0.003,0.234,0.009c0.072,0.006,0.153,0.015,0.243,0.027v0.486
	c-0.078-0.012-0.15-0.023-0.216-0.031c-0.066-0.009-0.132-0.013-0.198-0.013c-0.156,0-0.276,0.024-0.36,0.072
	c-0.084,0.048-0.146,0.112-0.184,0.194c-0.039,0.081-0.062,0.175-0.068,0.283c-0.006,0.108-0.009,0.225-0.009,0.351v0.405H53.4
	v0.477h-0.918v4.167h-0.567V78.615z M53.949,76.356h0.567v6.426h-0.567V76.356z M57.567,78.003c0.354,0,0.667,0.066,0.941,0.198
	c0.273,0.132,0.502,0.309,0.688,0.531c0.186,0.222,0.327,0.483,0.423,0.783c0.096,0.3,0.144,0.615,0.144,0.945
	c0,0.336-0.048,0.653-0.144,0.95c-0.096,0.297-0.237,0.557-0.423,0.779c-0.186,0.222-0.416,0.399-0.688,0.531
	c-0.273,0.132-0.587,0.198-0.941,0.198c-0.354,0-0.668-0.066-0.941-0.198c-0.273-0.132-0.503-0.309-0.688-0.531
	c-0.186-0.222-0.327-0.482-0.423-0.779c-0.096-0.297-0.144-0.613-0.144-0.95c0-0.33,0.048-0.645,0.144-0.945
	c0.096-0.3,0.237-0.561,0.423-0.783c0.186-0.222,0.415-0.399,0.688-0.531C56.9,78.069,57.213,78.003,57.567,78.003z M57.567,78.48
	c-0.27,0-0.507,0.057-0.711,0.171c-0.204,0.114-0.374,0.264-0.508,0.45c-0.135,0.186-0.237,0.398-0.306,0.635
	c-0.069,0.237-0.104,0.479-0.104,0.724c0,0.246,0.034,0.488,0.104,0.725c0.069,0.237,0.171,0.449,0.306,0.634
	c0.135,0.186,0.304,0.336,0.508,0.45c0.204,0.114,0.441,0.171,0.711,0.171s0.507-0.057,0.711-0.171
	c0.204-0.114,0.374-0.264,0.508-0.45c0.135-0.186,0.237-0.397,0.306-0.634c0.069-0.237,0.104-0.478,0.104-0.725
	c0-0.246-0.035-0.487-0.104-0.724c-0.069-0.237-0.171-0.448-0.306-0.635c-0.135-0.186-0.305-0.336-0.508-0.45
	C58.074,78.537,57.837,78.48,57.567,78.48z M62.571,78.003c0.354,0,0.667,0.066,0.941,0.198c0.273,0.132,0.502,0.309,0.688,0.531
	c0.186,0.222,0.327,0.483,0.423,0.783c0.096,0.3,0.144,0.615,0.144,0.945c0,0.336-0.048,0.653-0.144,0.95
	c-0.096,0.297-0.237,0.557-0.423,0.779c-0.186,0.222-0.416,0.399-0.688,0.531c-0.273,0.132-0.587,0.198-0.941,0.198
	c-0.354,0-0.668-0.066-0.941-0.198c-0.273-0.132-0.503-0.309-0.688-0.531c-0.186-0.222-0.327-0.482-0.423-0.779
	c-0.096-0.297-0.144-0.613-0.144-0.95c0-0.33,0.048-0.645,0.144-0.945c0.096-0.3,0.237-0.561,0.423-0.783
	c0.186-0.222,0.415-0.399,0.688-0.531C61.904,78.069,62.217,78.003,62.571,78.003z M62.571,78.48c-0.27,0-0.507,0.057-0.711,0.171
	c-0.204,0.114-0.374,0.264-0.508,0.45c-0.135,0.186-0.237,0.398-0.306,0.635c-0.069,0.237-0.104,0.479-0.104,0.724
	c0,0.246,0.034,0.488,0.104,0.725c0.069,0.237,0.171,0.449,0.306,0.634c0.135,0.186,0.304,0.336,0.508,0.45
	c0.204,0.114,0.441,0.171,0.711,0.171s0.507-0.057,0.711-0.171c0.204-0.114,0.374-0.264,0.508-0.45
	c0.135-0.186,0.237-0.397,0.306-0.634c0.069-0.237,0.104-0.478,0.104-0.725c0-0.246-0.035-0.487-0.104-0.724
	c-0.069-0.237-0.171-0.448-0.306-0.635c-0.135-0.186-0.305-0.336-0.508-0.45C63.078,78.537,62.841,78.48,62.571,78.48z
	 M65.613,78.138h0.522v1.089h0.018c0.144-0.378,0.367-0.669,0.671-0.873c0.303-0.204,0.664-0.297,1.085-0.279v0.567
	c-0.258-0.012-0.492,0.023-0.702,0.104c-0.21,0.081-0.391,0.197-0.544,0.346c-0.153,0.15-0.272,0.33-0.355,0.54
	c-0.084,0.21-0.126,0.435-0.126,0.675v2.475h-0.567V78.138z"/>
<text transform="matrix(1 0 0 1 70.4097 82.7817)" fill="#cd1719" font-family="'Helvetica'" font-size="9"> </text>
<text transform="matrix(1 0 0 1 16.5723 93.3818)"><tspan x="0" y="0" fill="#cd1719" font-family="'Helvetica'" font-size="9">level in met</tspan><tspan x="43.172" y="0" fill="#cd1719" font-family="'Helvetica'" font-size="9">r</tspan><tspan x="45.854" y="0" fill="#cd1719" font-family="'Helvetica'" font-size="9">es</tspan></text>
<text transform="matrix(1 0 0 1 0.0562 6.856)"><tspan x="0" y="0" fill="#1d1d1b" font-family="'Helvetica'" font-size="8">ELE</tspan><tspan x="13.784" y="0" fill="#1d1d1b" font-family="'Helvetica'" font-size="8">V</tspan><tspan x="18.096" y="0" fill="#1d1d1b" font-family="'Helvetica'" font-size="8">A</tspan><tspan x="22.6" y="0" fill="#1d1d1b" font-family="'Helvetica'" font-size="8">TION AND</tspan></text>
<text transform="matrix(1 0 0 1 58.7993 6.856)" fill="#1d1d1b" font-family="'Helvetica'" font-size="8"> </text>
<text transform="matrix(1 0 0 1 0.0562 15.856)" fill="#1d1d1b" font-family="'Helvetica'" font-size="8">SECTION LEVEL</text>
<text transform="matrix(1 0 0 1 58.3032 15.856)" fill="#1d1d1b" font-family="'Helvetica'" font-size="8"> </text>
<text transform="matrix(1 0 0 1 0.0562 24.856)" fill="#1d1d1b" font-family="'Helvetica'" font-size="8">BENCHMARK</text>
<text transform="matrix(1 0 0 1 0.0562 118.2944)" fill="#1d1d1b" font-family="'Helvetica'" font-size="8">ALIGN </text>
<text transform="matrix(1 0 0 1 24.9517 118.2944)" fill="#1d1d1b" font-family="'Helvetica'" font-size="8"> </text>
<text transform="matrix(1 0 0 1 0.0562 127.2944)"><tspan x="0" y="0" fill="#1d1d1b" font-family="'Helvetica'" font-size="8">SUR</tspan><tspan x="15.856" y="0" fill="#1d1d1b" font-family="'Helvetica'" font-size="8">F</tspan><tspan x="19.72" y="0" fill="#1d1d1b" font-family="'Helvetica'" font-size="8">ACES</tspan></text>
<text transform="matrix(1 0 0 1 0.0562 204.3398)"><tspan x="0" y="0" fill="#1d1d1b" font-family="'Helvetica'" font-size="8">NO</tspan><tspan x="11.56" y="0" fill="#1d1d1b" font-family="'Helvetica'" font-size="8">R</tspan><tspan x="16.944" y="0" fill="#1d1d1b" font-family="'Helvetica'" font-size="8">TH SYMBOL</tspan></text>
<line fill="none" stroke="#cd1719" stroke-width="0.75" stroke-linecap="round" stroke-linejoin="round" stroke-dasharray="0,2.234" x1="74.164" y1="39.171" x2="142.313" y2="39.171"/>
<line fill="none" stroke="#cd1719" stroke-width="0.75" stroke-linecap="round" stroke-linejoin="round" stroke-dasharray="0,2.77" x1="143.43" y1="41.942" x2="143.43" y2="43.327"/>
<path fill="none" stroke="#cd1719" stroke-width="0.75" stroke-linecap="round" stroke-linejoin="round" d="M143.43,44.712
	L143.43,44.712 M143.43,39.171L143.43,39.171 M71.93,39.171L71.93,39.171"/>
<path fill="#cd1719" d="M143.43,43.212c-0.828,0-1.5,0.671-1.5,1.5c0,0.828,0.672,1.5,1.5,1.5c0.828,0,1.5-0.672,1.5-1.5
	C144.93,43.883,144.258,43.212,143.43,43.212"/>
<line fill="none" stroke="#cd1719" stroke-width="0.75" stroke-linecap="round" stroke-linejoin="round" stroke-dasharray="0,2.234" x1="73.513" y1="80.822" x2="141.662" y2="80.822"/>
<line fill="none" stroke="#cd1719" stroke-width="0.75" stroke-linecap="round" stroke-linejoin="round" stroke-dasharray="0,2.319" x1="142.778" y1="78.502" x2="142.778" y2="75.023"/>
<path fill="none" stroke="#cd1719" stroke-width="0.75" stroke-linecap="round" stroke-linejoin="round" d="M142.778,73.864
	L142.778,73.864 M142.778,80.822L142.778,80.822 M71.278,80.822L71.278,80.822"/>
<path fill="#cd1719" d="M142.778,75.364c-0.828,0-1.5-0.672-1.5-1.5c0-0.828,0.672-1.5,1.5-1.5c0.828,0,1.5,0.672,1.5,1.5
	C144.278,74.692,143.606,75.364,142.778,75.364"/>
</svg>
