<?xml version="1.0" encoding="utf-8"?>
<svg version="1.1" width="100%" xmlns="http://www.w3.org/2000/svg" xmlns:xlink="http://www.w3.org/1999/xlink" x="0px" y="0px"
	 viewBox="0 0 193.6 236.8" enable-background="new 0 0 193.6 236.8" xml:space="preserve">
<polyline fill="none" stroke="#000000" stroke-width="0.24" stroke-linejoin="bevel" stroke-miterlimit="1.414" points="
	128.3,168.5 113.5,168.5 113.5,157 "/>
<line fill="none" stroke="#000000" stroke-width="0.72" stroke-linejoin="round" stroke-miterlimit="1.414" x1="113.5" y1="157" x2="117.9" y2="159.6"/>
<line fill="none" stroke="#000000" stroke-width="0.72" stroke-linejoin="round" stroke-miterlimit="1.414" x1="113.5" y1="157" x2="109.1" y2="159.6"/>
<polyline fill="none" stroke="#000000" stroke-width="0.24" stroke-linejoin="bevel" stroke-miterlimit="1.414" points="
	145.7,168.5 160.5,168.5 160.5,157 "/>
<line fill="none" stroke="#000000" stroke-width="0.72" stroke-linejoin="round" stroke-miterlimit="1.414" x1="160.5" y1="157" x2="156.1" y2="159.6"/>
<line fill="none" stroke="#000000" stroke-width="0.72" stroke-linejoin="round" stroke-miterlimit="1.414" x1="160.5" y1="157" x2="165" y2="159.6"/>
<polyline fill="none" stroke="#000000" stroke-width="0.24" stroke-linejoin="bevel" stroke-miterlimit="1.414" points="191,153.7 
	191,168.5 179.5,168.5 "/>
<line fill="none" stroke="#000000" stroke-width="0.72" stroke-linejoin="round" stroke-miterlimit="1.414" x1="179.5" y1="168.5" x2="182" y2="164.1"/>
<line fill="none" stroke="#000000" stroke-width="0.72" stroke-linejoin="round" stroke-miterlimit="1.414" x1="179.5" y1="168.5" x2="182" y2="173"/>
<polyline fill="none" stroke="#000000" stroke-width="0.24" stroke-linejoin="bevel" stroke-miterlimit="1.414" points="191,136.3 
	191,121.5 179.5,121.5 "/>
<line fill="none" stroke="#000000" stroke-width="0.72" stroke-linejoin="round" stroke-miterlimit="1.414" x1="179.5" y1="121.5" x2="182" y2="125.9"/>
<line fill="none" stroke="#000000" stroke-width="0.72" stroke-linejoin="round" stroke-miterlimit="1.414" x1="179.5" y1="121.5" x2="182" y2="117.1"/>
<path fill="none" stroke="#000000" stroke-width="0.24" stroke-linejoin="bevel" stroke-miterlimit="1.414" d="M151.6,222.2
	c0-3.8-1.5-7.5-4.2-10.3c-2.8-2.7-6.5-4.3-10.3-4.3c-3.9,0-7.6,1.6-10.4,4.3c-2.7,2.8-4.2,6.5-4.2,10.3c0,3.9,1.5,7.6,4.2,10.3
	c2.8,2.8,6.5,4.3,10.4,4.3c3.8,0,7.5-1.5,10.3-4.3C150.1,229.8,151.6,226.1,151.6,222.2"/>
<polyline fill-rule="evenodd" clip-rule="evenodd" points="136.3,222.2 137.8,222.2 137.8,207.6 136.3,207.6 "/>
<g>
	<path fill-rule="evenodd" clip-rule="evenodd" d="M130.8,169l0.4-1.5c0.1-0.3,0.1-0.7,0.2-1c0,0.3,0.1,0.6,0.2,1.1l0.4,1.4H130.8
		 M129.7,171.1h0.6l0.3-1.6h1.5l0.5,1.6h0.5l-1.5-5.1h-0.5L129.7,171.1"/>
	<polygon fill-rule="evenodd" clip-rule="evenodd" points="133.5,171.1 135.7,171.1 135.7,170.5 133.9,170.5 133.9,166 133.5,166 	
		"/>
	<rect x="136.4" y="166" fill-rule="evenodd" clip-rule="evenodd" width="0.4" height="5.1"/>
	<path fill-rule="evenodd" clip-rule="evenodd" d="M139.3,169.1h1.1v0.9c-0.1,0.2-0.3,0.3-0.5,0.4s-0.4,0.2-0.5,0.2
		c-0.4,0-0.8-0.2-1-0.6c-0.2-0.3-0.4-0.8-0.4-1.5c0-0.4,0.1-0.8,0.2-1.1c0.1-0.3,0.3-0.6,0.5-0.7c0.1-0.2,0.4-0.2,0.6-0.2
		c0.2,0,0.4,0,0.5,0.1c0.2,0.1,0.3,0.2,0.4,0.3c0,0.2,0.1,0.4,0.2,0.7l0.4-0.2c-0.1-0.4-0.2-0.6-0.3-0.9c-0.1-0.2-0.3-0.3-0.5-0.4
		c-0.2-0.2-0.4-0.2-0.7-0.2c-0.3,0-0.6,0.1-0.9,0.3c-0.2,0.2-0.4,0.5-0.6,0.9c-0.2,0.4-0.3,0.9-0.3,1.4c0,0.6,0.1,1.1,0.3,1.5
		c0.1,0.4,0.4,0.7,0.6,0.9c0.3,0.2,0.6,0.3,1,0.3c0.2,0,0.5-0.1,0.7-0.2c0.3-0.2,0.5-0.4,0.8-0.6v-1.9h-1.6V169.1"/>
	<polygon fill-rule="evenodd" clip-rule="evenodd" points="141.5,171.1 142,171.1 142,167.1 143.9,171.1 144.4,171.1 144.4,166 
		143.9,166 143.9,170 142,166 141.5,166 	"/>
	<path fill-rule="evenodd" clip-rule="evenodd" d="M191.4,151.3l-1.5-0.4c-0.3-0.1-0.6-0.2-0.9-0.2c0.2-0.1,0.6-0.2,1-0.3l1.4-0.4
		V151.3 M193.5,152.3v-0.5l-1.5-0.4v-1.5l1.5-0.4v-0.6l-5.1,1.5v0.5L193.5,152.3"/>
	<polygon fill-rule="evenodd" clip-rule="evenodd" points="193.5,148.6 193.5,146.3 192.9,146.3 192.9,148.1 188.4,148.1 
		188.4,148.6 	"/>
	<rect x="188.4" y="145.2" fill-rule="evenodd" clip-rule="evenodd" width="5.1" height="0.5"/>
	<path fill-rule="evenodd" clip-rule="evenodd" d="M191.5,142.7v-1.1h1c0.1,0.2,0.2,0.3,0.3,0.5c0.1,0.2,0.2,0.4,0.2,0.6
		c0,0.4-0.2,0.7-0.5,0.9c-0.4,0.3-0.9,0.4-1.5,0.4c-0.5,0-0.9-0.1-1.2-0.2s-0.5-0.2-0.7-0.4c-0.1-0.2-0.2-0.4-0.2-0.7
		c0-0.2,0-0.3,0.1-0.5c0.1-0.1,0.2-0.2,0.4-0.3c0.1-0.1,0.3-0.2,0.6-0.2l-0.2-0.5c-0.3,0.1-0.6,0.2-0.8,0.3
		c-0.2,0.1-0.4,0.3-0.5,0.5c-0.1,0.2-0.2,0.4-0.2,0.7c0,0.3,0.1,0.6,0.3,0.9c0.2,0.3,0.5,0.5,0.9,0.6c0.4,0.2,0.9,0.3,1.5,0.3
		c0.5,0,1-0.1,1.4-0.3c0.4-0.1,0.7-0.3,0.9-0.6c0.2-0.3,0.3-0.6,0.3-0.9c0-0.3-0.1-0.6-0.2-0.8c-0.1-0.3-0.3-0.5-0.6-0.7h-1.9v1.5
		H191.5"/>
	<polygon fill-rule="evenodd" clip-rule="evenodd" points="193.5,140.5 193.5,140 189.5,140 193.5,138.2 193.5,137.7 188.4,137.7 
		188.4,138.1 192.4,138.1 188.4,140 188.4,140.5 	"/>
</g>
<line fill="none" stroke="#000000" stroke-width="0.48" stroke-linejoin="round" stroke-miterlimit="1.414" x1="94.7" y1="60.4" x2="157.7" y2="60.4"/>
<line fill="none" stroke="#000000" stroke-width="0.24" stroke-linejoin="bevel" stroke-miterlimit="1.414" x1="101.6" y1="54.4" x2="94.7" y2="54.4"/>
<line fill="none" stroke="#000000" stroke-width="0.24" stroke-linejoin="bevel" stroke-miterlimit="1.414" x1="98.2" y1="60.4" x2="94.7" y2="54.4"/>
<line fill="none" stroke="#000000" stroke-width="0.24" stroke-linejoin="bevel" stroke-miterlimit="1.414" x1="98.2" y1="60.4" x2="101.6" y2="54.4"/>
<polygon fill-rule="evenodd" clip-rule="evenodd" points="131.1,67.7 131.7,67.7 131.7,65.2 133.9,65.2 133.9,64.5 131.7,64.5 
	131.7,62.8 134.2,62.8 134.2,62.1 131.1,62.1 "/>
<polygon fill-rule="evenodd" clip-rule="evenodd" points="135,67.7 135.6,67.7 135.6,65.2 137.8,65.2 137.8,64.5 135.6,64.5 
	135.6,62.8 138.1,62.8 138.1,62.1 135,62.1 "/>
<polygon fill-rule="evenodd" clip-rule="evenodd" points="138.9,67.7 141.7,67.7 141.7,67 139.5,67 139.5,62.1 138.9,62.1 "/>
<rect x="142.3" y="63.8" width="3" height="0.6"/>
<rect x="142.3" y="65.5" width="3" height="0.6"/>
<path fill-rule="evenodd" clip-rule="evenodd" d="M148.1,67.7v-5.6h-0.4c-0.1,0.2-0.3,0.5-0.5,0.7c-0.3,0.3-0.5,0.5-0.8,0.7v0.7
	c0.1-0.1,0.3-0.2,0.6-0.4c0.2-0.2,0.4-0.3,0.5-0.5v4.4H148.1"/>
<path fill-rule="evenodd" clip-rule="evenodd" d="M152.4,67h-2.2c0.1-0.1,0.1-0.2,0.2-0.3c0.1-0.2,0.4-0.4,0.7-0.7
	c0.5-0.6,0.9-1,1.1-1.3c0.1-0.4,0.2-0.7,0.2-1.1c0-0.4-0.1-0.7-0.3-1c-0.3-0.3-0.6-0.5-1.1-0.5c-0.4,0-0.7,0.1-1,0.4
	c-0.3,0.3-0.4,0.7-0.5,1.2l0.6,0.1c0-0.4,0.1-0.7,0.3-0.8c0.1-0.2,0.3-0.3,0.6-0.3c0.2,0,0.4,0.1,0.6,0.2c0.2,0.2,0.3,0.4,0.3,0.7
	s-0.1,0.5-0.3,0.8c-0.1,0.3-0.5,0.7-1,1.2s-0.8,0.9-0.9,1.2c-0.2,0.3-0.3,0.6-0.3,0.9h3V67"/>
<rect x="153.4" y="66.9" fill-rule="evenodd" clip-rule="evenodd" width="0.6" height="0.8"/>
<path fill-rule="evenodd" clip-rule="evenodd" d="M155.4,66.1c0-0.3,0.1-0.6,0.3-0.8c0.1-0.2,0.4-0.3,0.6-0.3c0.3,0,0.5,0.1,0.7,0.3
	c0.2,0.2,0.3,0.5,0.3,0.8s-0.1,0.6-0.3,0.8c-0.2,0.2-0.4,0.3-0.7,0.3c-0.2,0-0.4-0.1-0.6-0.3C155.5,66.7,155.4,66.4,155.4,66.1
	 M155.6,63.5c0-0.2,0.1-0.4,0.2-0.6c0.1-0.2,0.3-0.2,0.5-0.2s0.4,0,0.5,0.2c0.2,0.2,0.3,0.4,0.3,0.6c0,0.3-0.1,0.5-0.2,0.7
	c-0.2,0.1-0.4,0.2-0.6,0.2s-0.4-0.1-0.5-0.2C155.7,64,155.6,63.8,155.6,63.5 M155.7,64.7c-0.3,0.1-0.5,0.2-0.6,0.5
	c-0.2,0.2-0.3,0.5-0.3,0.9c0,0.5,0.2,0.9,0.5,1.2c0.2,0.3,0.6,0.5,1,0.5c0.5,0,0.8-0.2,1.1-0.5s0.4-0.7,0.4-1.2c0-0.4,0-0.7-0.2-0.9
	c-0.1-0.2-0.4-0.4-0.6-0.5c0.2-0.1,0.4-0.3,0.5-0.5c0.1-0.2,0.1-0.4,0.1-0.6c0-0.5-0.1-0.8-0.3-1.1c-0.3-0.3-0.6-0.4-1-0.4
	c-0.4,0-0.7,0.1-0.9,0.4c-0.3,0.3-0.4,0.6-0.4,1c0,0.3,0.1,0.5,0.2,0.7C155.3,64.4,155.5,64.6,155.7,64.7"/>
<polygon fill-rule="evenodd" clip-rule="evenodd" points="123.3,58.3 126.8,58.3 126.8,57.5 124,57.5 124,51.4 123.3,51.4 "/>
<polygon fill-rule="evenodd" clip-rule="evenodd" points="127.7,58.3 132,58.3 132,57.5 128.5,57.5 128.5,55.1 131.6,55.1 
	131.6,54.3 128.5,54.3 128.5,52.2 131.8,52.2 131.8,51.4 127.7,51.4 "/>
<path fill-rule="evenodd" clip-rule="evenodd" d="M134.6,58.3h0.8l2.2-6.9h-0.8l-1.5,5c-0.1,0.2-0.1,0.4-0.2,0.6
	c0,0.2-0.1,0.4-0.1,0.6l-0.3-1.2l-1.5-5h-0.8L134.6,58.3"/>
<polygon fill-rule="evenodd" clip-rule="evenodd" points="138.3,58.3 142.5,58.3 142.5,57.5 139,57.5 139,55.1 142.1,55.1 
	142.1,54.3 139,54.3 139,52.2 142.3,52.2 142.3,51.4 138.3,51.4 "/>
<polygon fill-rule="evenodd" clip-rule="evenodd" points="143.5,58.3 147,58.3 147,57.5 144.2,57.5 144.2,51.4 143.5,51.4 "/>
<path fill-rule="evenodd" clip-rule="evenodd" d="M150.5,54.9c0-1.1,0.1-1.8,0.3-2.2c0.2-0.4,0.5-0.6,0.8-0.6c0.4,0,0.6,0.2,0.8,0.6
	c0.3,0.3,0.4,1.1,0.4,2.2c0,1.1-0.1,1.9-0.4,2.3c-0.2,0.3-0.4,0.5-0.7,0.5c-0.4,0-0.7-0.2-0.9-0.5C150.6,56.8,150.5,56,150.5,54.9
	 M149.8,54.9c0,1.3,0.2,2.2,0.5,2.7c0.4,0.6,0.8,0.8,1.3,0.8c0.6,0,1.1-0.3,1.4-0.9c0.3-0.6,0.5-1.4,0.5-2.6c0-1.3-0.2-2.2-0.6-2.8
	c-0.3-0.5-0.7-0.7-1.3-0.7c-0.6,0-1,0.3-1.3,0.9C149.9,52.9,149.8,53.8,149.8,54.9"/>
<path fill-rule="evenodd" clip-rule="evenodd" d="M157.8,57.5h-2.7c0-0.2,0.1-0.3,0.3-0.5c0.1-0.1,0.3-0.4,0.8-0.8
	c0.6-0.7,1-1.2,1.3-1.6c0.2-0.4,0.3-0.9,0.3-1.3c0-0.5-0.1-0.9-0.4-1.3c-0.3-0.4-0.8-0.6-1.3-0.6c-0.6,0-1,0.2-1.3,0.5
	c-0.3,0.3-0.5,0.8-0.6,1.5l0.7,0.1c0-0.5,0.1-0.8,0.4-1c0.2-0.3,0.4-0.4,0.7-0.4s0.6,0.1,0.8,0.3c0.2,0.2,0.3,0.5,0.3,0.9
	c0,0.3-0.1,0.6-0.3,1c-0.2,0.3-0.6,0.8-1.3,1.5c-0.5,0.5-0.9,1-1.1,1.4c-0.2,0.4-0.3,0.8-0.3,1.1h3.7V57.5"/>
<text transform="matrix(1 0 0 1 16.5723 41.396)" fill="#CD1719" font-family="'Helvetica'" font-size="9">N</text>
<text transform="matrix(1 0 0 1 22.9082 41.396)" fill="#CD1719" font-family="'Helvetica'" font-size="9">umber with </text>
<text transform="matrix(1 0 0 1 68.7446 41.396)" fill="#CD1719" font-family="'Helvetica'" font-size="9"> </text>
<text transform="matrix(1 0 0 1 16.5723 51.9956)"><tspan x="0" y="0" fill="#CD1719" font-family="'Helvetica'" font-size="9">leading ze</tspan><tspan x="39" y="0" fill="#CD1719" font-family="'Helvetica'" font-size="9">r</tspan><tspan x="41.7" y="0" fill="#CD1719" font-family="'Helvetica'" font-size="9">o</tspan></text>
<text transform="matrix(1 0 0 1 16.5723 82.7817)" fill="#CD1719" font-family="'Helvetica'" font-size="9">F</text>
<path fill="#CD1719" d="M22,76.4h0.6v0.9H22V76.4z M22,78.1h0.6v4.6H22V78.1z M23.6,78.1h0.6v0.8h0c0.1-0.1,0.1-0.3,0.2-0.4
	c0.1-0.1,0.2-0.2,0.3-0.3c0.1-0.1,0.3-0.1,0.4-0.2c0.2,0,0.3-0.1,0.5-0.1c0.3,0,0.6,0,0.8,0.1c0.2,0.1,0.4,0.2,0.5,0.4
	c0.1,0.2,0.2,0.3,0.3,0.6c0.1,0.2,0.1,0.5,0.1,0.7v3h-0.6v-2.9c0-0.2,0-0.4-0.1-0.6c0-0.2-0.1-0.3-0.2-0.4c-0.1-0.1-0.2-0.2-0.4-0.3
	c-0.2-0.1-0.3-0.1-0.6-0.1c-0.2,0-0.4,0-0.6,0.1c-0.2,0.1-0.3,0.2-0.5,0.3c-0.1,0.1-0.2,0.3-0.3,0.5c-0.1,0.2-0.1,0.4-0.1,0.6v2.7
	h-0.6V78.1z M28.5,76.4H29v0.9h-0.6V76.4z M28.5,78.1H29v4.6h-0.6V78.1z M32.9,79.5c0-0.2,0-0.3-0.1-0.5c-0.1-0.1-0.2-0.2-0.3-0.3
	c-0.1-0.1-0.2-0.1-0.4-0.2c-0.1,0-0.3-0.1-0.5-0.1c-0.1,0-0.3,0-0.4,0c-0.1,0-0.2,0.1-0.4,0.1c-0.1,0.1-0.2,0.1-0.3,0.2
	c-0.1,0.1-0.1,0.2-0.1,0.4c0,0.1,0,0.2,0.1,0.3c0.1,0.1,0.1,0.2,0.2,0.2c0.1,0.1,0.2,0.1,0.3,0.1c0.1,0,0.2,0.1,0.3,0.1l0.8,0.2
	c0.2,0,0.3,0.1,0.5,0.1c0.2,0.1,0.3,0.1,0.4,0.2c0.1,0.1,0.2,0.2,0.3,0.4c0.1,0.1,0.1,0.3,0.1,0.5c0,0.3-0.1,0.5-0.2,0.6
	c-0.1,0.2-0.3,0.3-0.4,0.4c-0.2,0.1-0.4,0.2-0.6,0.2c-0.2,0.1-0.4,0.1-0.7,0.1c-0.5,0-1-0.1-1.3-0.4c-0.3-0.3-0.5-0.7-0.6-1.2h0.6
	c0,0.4,0.2,0.7,0.4,0.9c0.3,0.2,0.6,0.3,0.9,0.3c0.1,0,0.3,0,0.4,0c0.1,0,0.3-0.1,0.4-0.2c0.1-0.1,0.2-0.2,0.3-0.3
	c0.1-0.1,0.1-0.2,0.1-0.4c0-0.1,0-0.2-0.1-0.3c-0.1-0.1-0.1-0.2-0.2-0.2c-0.1-0.1-0.2-0.1-0.3-0.2c-0.1,0-0.2-0.1-0.4-0.1l-0.7-0.2
	c-0.2,0-0.4-0.1-0.5-0.2c-0.2-0.1-0.3-0.1-0.4-0.2c-0.1-0.1-0.2-0.2-0.3-0.3C30,79.7,30,79.5,30,79.3c0-0.2,0.1-0.4,0.2-0.6
	c0.1-0.2,0.2-0.3,0.4-0.4c0.2-0.1,0.4-0.2,0.6-0.2c0.2,0,0.4-0.1,0.6-0.1c0.2,0,0.5,0,0.7,0.1c0.2,0.1,0.4,0.2,0.5,0.3
	c0.2,0.1,0.3,0.3,0.4,0.5c0.1,0.2,0.1,0.4,0.2,0.7H32.9z M34.4,76.4H35v2.6h0c0.1-0.1,0.1-0.3,0.2-0.4c0.1-0.1,0.2-0.2,0.3-0.3
	c0.1-0.1,0.3-0.1,0.4-0.2c0.2,0,0.3-0.1,0.5-0.1c0.3,0,0.6,0,0.8,0.1c0.2,0.1,0.4,0.2,0.5,0.4c0.1,0.2,0.2,0.3,0.3,0.6
	c0.1,0.2,0.1,0.5,0.1,0.7v3h-0.6v-2.9c0-0.2,0-0.4-0.1-0.6c0-0.2-0.1-0.3-0.2-0.4c-0.1-0.1-0.2-0.2-0.4-0.3
	c-0.2-0.1-0.3-0.1-0.6-0.1c-0.2,0-0.4,0-0.6,0.1c-0.2,0.1-0.3,0.2-0.5,0.3c-0.1,0.1-0.2,0.3-0.3,0.5C35,79.6,35,79.8,35,80.1v2.7
	h-0.6V76.4z M39.6,80.6c0,0.2,0,0.4,0.1,0.6c0.1,0.2,0.1,0.4,0.3,0.6c0.1,0.2,0.3,0.3,0.5,0.4c0.2,0.1,0.4,0.2,0.7,0.2
	c0.4,0,0.7-0.1,1-0.3c0.2-0.2,0.4-0.5,0.5-0.9h0.6c-0.1,0.5-0.3,0.9-0.7,1.2c-0.3,0.3-0.8,0.4-1.4,0.4c-0.4,0-0.7-0.1-1-0.2
	c-0.3-0.1-0.5-0.3-0.6-0.5c-0.2-0.2-0.3-0.5-0.4-0.8c-0.1-0.3-0.1-0.6-0.1-0.9c0-0.3,0-0.6,0.1-0.9c0.1-0.3,0.2-0.6,0.4-0.8
	c0.2-0.2,0.4-0.4,0.6-0.6c0.3-0.1,0.6-0.2,1-0.2c0.4,0,0.7,0.1,1,0.2c0.3,0.2,0.5,0.3,0.6,0.6c0.2,0.2,0.3,0.5,0.4,0.8
	c0.1,0.3,0.1,0.6,0.1,1H39.6z M42.6,80.1c0-0.2,0-0.4-0.1-0.6c-0.1-0.2-0.2-0.4-0.3-0.5c-0.1-0.2-0.3-0.3-0.5-0.4
	c-0.2-0.1-0.4-0.1-0.6-0.1c-0.2,0-0.4,0-0.6,0.1c-0.2,0.1-0.3,0.2-0.5,0.4c-0.1,0.2-0.2,0.3-0.3,0.5c-0.1,0.2-0.1,0.4-0.1,0.6H42.6z
	 M48,82.8h-0.5v-0.9h0c-0.1,0.2-0.1,0.3-0.3,0.4c-0.1,0.1-0.3,0.2-0.4,0.3c-0.2,0.1-0.3,0.2-0.5,0.2c-0.2,0-0.3,0.1-0.5,0.1
	c-0.4,0-0.7-0.1-0.9-0.2c-0.3-0.1-0.5-0.3-0.7-0.5c-0.2-0.2-0.3-0.5-0.4-0.8c-0.1-0.3-0.1-0.6-0.1-0.9c0-0.3,0-0.6,0.1-0.9
	c0.1-0.3,0.2-0.6,0.4-0.8c0.2-0.2,0.4-0.4,0.7-0.5c0.3-0.1,0.6-0.2,0.9-0.2c0.2,0,0.3,0,0.5,0.1c0.2,0,0.3,0.1,0.5,0.2
	c0.1,0.1,0.3,0.2,0.4,0.3c0.1,0.1,0.2,0.3,0.3,0.4h0v-2.7H48V82.8z M44.3,80.5c0,0.2,0,0.5,0.1,0.7c0.1,0.2,0.1,0.4,0.3,0.6
	c0.1,0.2,0.3,0.3,0.5,0.5c0.2,0.1,0.4,0.2,0.7,0.2c0.3,0,0.6-0.1,0.8-0.2s0.4-0.3,0.5-0.5c0.1-0.2,0.2-0.4,0.3-0.6
	c0.1-0.2,0.1-0.5,0.1-0.7c0-0.2,0-0.5-0.1-0.7c-0.1-0.2-0.2-0.4-0.3-0.6c-0.1-0.2-0.3-0.3-0.5-0.5s-0.5-0.2-0.8-0.2
	c-0.3,0-0.5,0.1-0.7,0.2c-0.2,0.1-0.3,0.3-0.5,0.5c-0.1,0.2-0.2,0.4-0.3,0.6C44.3,80,44.3,80.2,44.3,80.5z M51.9,78.6h-0.8v-0.5h0.8
	v-0.4c0-0.2,0-0.4,0-0.5c0-0.2,0.1-0.3,0.2-0.4c0.1-0.1,0.2-0.2,0.3-0.3c0.1-0.1,0.3-0.1,0.6-0.1c0.1,0,0.2,0,0.2,0
	c0.1,0,0.2,0,0.2,0v0.5c-0.1,0-0.2,0-0.2,0c-0.1,0-0.1,0-0.2,0c-0.2,0-0.3,0-0.4,0.1c-0.1,0-0.1,0.1-0.2,0.2c0,0.1-0.1,0.2-0.1,0.3
	c0,0.1,0,0.2,0,0.4v0.4h0.9v0.5h-0.9v4.2h-0.6V78.6z M53.9,76.4h0.6v6.4h-0.6V76.4z M57.6,78c0.4,0,0.7,0.1,0.9,0.2
	c0.3,0.1,0.5,0.3,0.7,0.5c0.2,0.2,0.3,0.5,0.4,0.8c0.1,0.3,0.1,0.6,0.1,0.9c0,0.3,0,0.7-0.1,0.9c-0.1,0.3-0.2,0.6-0.4,0.8
	c-0.2,0.2-0.4,0.4-0.7,0.5c-0.3,0.1-0.6,0.2-0.9,0.2c-0.4,0-0.7-0.1-0.9-0.2c-0.3-0.1-0.5-0.3-0.7-0.5c-0.2-0.2-0.3-0.5-0.4-0.8
	c-0.1-0.3-0.1-0.6-0.1-0.9c0-0.3,0-0.6,0.1-0.9c0.1-0.3,0.2-0.6,0.4-0.8c0.2-0.2,0.4-0.4,0.7-0.5C56.9,78.1,57.2,78,57.6,78z
	 M57.6,78.5c-0.3,0-0.5,0.1-0.7,0.2c-0.2,0.1-0.4,0.3-0.5,0.4c-0.1,0.2-0.2,0.4-0.3,0.6c-0.1,0.2-0.1,0.5-0.1,0.7
	c0,0.2,0,0.5,0.1,0.7c0.1,0.2,0.2,0.4,0.3,0.6c0.1,0.2,0.3,0.3,0.5,0.5c0.2,0.1,0.4,0.2,0.7,0.2s0.5-0.1,0.7-0.2
	c0.2-0.1,0.4-0.3,0.5-0.5c0.1-0.2,0.2-0.4,0.3-0.6c0.1-0.2,0.1-0.5,0.1-0.7c0-0.2,0-0.5-0.1-0.7c-0.1-0.2-0.2-0.4-0.3-0.6
	c-0.1-0.2-0.3-0.3-0.5-0.4C58.1,78.5,57.8,78.5,57.6,78.5z M62.6,78c0.4,0,0.7,0.1,0.9,0.2c0.3,0.1,0.5,0.3,0.7,0.5
	c0.2,0.2,0.3,0.5,0.4,0.8c0.1,0.3,0.1,0.6,0.1,0.9c0,0.3,0,0.7-0.1,0.9c-0.1,0.3-0.2,0.6-0.4,0.8c-0.2,0.2-0.4,0.4-0.7,0.5
	c-0.3,0.1-0.6,0.2-0.9,0.2c-0.4,0-0.7-0.1-0.9-0.2c-0.3-0.1-0.5-0.3-0.7-0.5c-0.2-0.2-0.3-0.5-0.4-0.8c-0.1-0.3-0.1-0.6-0.1-0.9
	c0-0.3,0-0.6,0.1-0.9c0.1-0.3,0.2-0.6,0.4-0.8c0.2-0.2,0.4-0.4,0.7-0.5C61.9,78.1,62.2,78,62.6,78z M62.6,78.5
	c-0.3,0-0.5,0.1-0.7,0.2c-0.2,0.1-0.4,0.3-0.5,0.4c-0.1,0.2-0.2,0.4-0.3,0.6c-0.1,0.2-0.1,0.5-0.1,0.7c0,0.2,0,0.5,0.1,0.7
	c0.1,0.2,0.2,0.4,0.3,0.6c0.1,0.2,0.3,0.3,0.5,0.5c0.2,0.1,0.4,0.2,0.7,0.2s0.5-0.1,0.7-0.2c0.2-0.1,0.4-0.3,0.5-0.5
	c0.1-0.2,0.2-0.4,0.3-0.6c0.1-0.2,0.1-0.5,0.1-0.7c0-0.2,0-0.5-0.1-0.7c-0.1-0.2-0.2-0.4-0.3-0.6c-0.1-0.2-0.3-0.3-0.5-0.4
	C63.1,78.5,62.8,78.5,62.6,78.5z M65.6,78.1h0.5v1.1h0c0.1-0.4,0.4-0.7,0.7-0.9c0.3-0.2,0.7-0.3,1.1-0.3v0.6c-0.3,0-0.5,0-0.7,0.1
	c-0.2,0.1-0.4,0.2-0.5,0.3c-0.2,0.2-0.3,0.3-0.4,0.5c-0.1,0.2-0.1,0.4-0.1,0.7v2.5h-0.6V78.1z"/>
<text transform="matrix(1 0 0 1 70.4097 82.7817)" fill="#CD1719" font-family="'Helvetica'" font-size="9"> </text>
<text transform="matrix(1 0 0 1 16.5723 93.3818)"><tspan x="0" y="0" fill="#CD1719" font-family="'Helvetica'" font-size="9">level in met</tspan><tspan x="43.2" y="0" fill="#CD1719" font-family="'Helvetica'" font-size="9">r</tspan><tspan x="45.9" y="0" fill="#CD1719" font-family="'Helvetica'" font-size="9">es</tspan></text>
<text transform="matrix(1 0 0 1 5.615234e-002 6.856)"><tspan x="0" y="0" fill="#1D1D1B" font-family="'Helvetica'" font-size="8">ELE</tspan><tspan x="13.8" y="0" fill="#1D1D1B" font-family="'Helvetica'" font-size="8">V</tspan><tspan x="18.1" y="0" fill="#1D1D1B" font-family="'Helvetica'" font-size="8">A</tspan><tspan x="22.6" y="0" fill="#1D1D1B" font-family="'Helvetica'" font-size="8">TION AND</tspan></text>
<text transform="matrix(1 0 0 1 58.7993 6.856)" fill="#1D1D1B" font-family="'Helvetica'" font-size="8"> </text>
<text transform="matrix(1 0 0 1 5.615234e-002 15.856)" fill="#1D1D1B" font-family="'Helvetica'" font-size="8">SECTION LEVEL</text>
<text transform="matrix(1 0 0 1 58.3032 15.856)" fill="#1D1D1B" font-family="'Helvetica'" font-size="8"> </text>
<text transform="matrix(1 0 0 1 5.615234e-002 24.856)" fill="#1D1D1B" font-family="'Helvetica'" font-size="8">BENCHMARK</text>
<text transform="matrix(1 0 0 1 5.615234e-002 118.2944)" fill="#1D1D1B" font-family="'Helvetica'" font-size="8">ALIGN </text>
<text transform="matrix(1 0 0 1 24.9517 118.2944)" fill="#1D1D1B" font-family="'Helvetica'" font-size="8"> </text>
<text transform="matrix(1 0 0 1 5.615234e-002 127.2944)"><tspan x="0" y="0" fill="#1D1D1B" font-family="'Helvetica'" font-size="8">SUR</tspan><tspan x="15.9" y="0" fill="#1D1D1B" font-family="'Helvetica'" font-size="8">F</tspan><tspan x="19.7" y="0" fill="#1D1D1B" font-family="'Helvetica'" font-size="8">ACES</tspan></text>
<text transform="matrix(1 0 0 1 5.615234e-002 204.3398)"><tspan x="0" y="0" fill="#1D1D1B" font-family="'Helvetica'" font-size="8">NO</tspan><tspan x="11.6" y="0" fill="#1D1D1B" font-family="'Helvetica'" font-size="8">R</tspan><tspan x="16.9" y="0" fill="#1D1D1B" font-family="'Helvetica'" font-size="8">TH SYMBOL</tspan></text>
<line fill="none" stroke="#CD1719" stroke-width="0.75" stroke-linecap="round" stroke-linejoin="round" stroke-dasharray="0,2.234" x1="74.2" y1="39.2" x2="142.3" y2="39.2"/>
<line fill="none" stroke="#CD1719" stroke-width="0.75" stroke-linecap="round" stroke-linejoin="round" stroke-dasharray="0,2.77" x1="143.4" y1="41.9" x2="143.4" y2="43.3"/>
<path fill="none" stroke="#CD1719" stroke-width="0.75" stroke-linecap="round" stroke-linejoin="round" d="M143.4,44.7L143.4,44.7
	 M143.4,39.2L143.4,39.2 M71.9,39.2L71.9,39.2"/>
<path fill="#CD1719" d="M143.4,43.2c-0.8,0-1.5,0.7-1.5,1.5c0,0.8,0.7,1.5,1.5,1.5c0.8,0,1.5-0.7,1.5-1.5
	C144.9,43.9,144.3,43.2,143.4,43.2"/>
<line fill="none" stroke="#CD1719" stroke-width="0.75" stroke-linecap="round" stroke-linejoin="round" stroke-dasharray="0,2.234" x1="73.5" y1="80.8" x2="141.7" y2="80.8"/>
<line fill="none" stroke="#CD1719" stroke-width="0.75" stroke-linecap="round" stroke-linejoin="round" stroke-dasharray="0,2.319" x1="142.8" y1="78.5" x2="142.8" y2="75"/>
<path fill="none" stroke="#CD1719" stroke-width="0.75" stroke-linecap="round" stroke-linejoin="round" d="M142.8,73.9L142.8,73.9
	 M142.8,80.8L142.8,80.8 M71.3,80.8L71.3,80.8"/>
<path fill="#CD1719" d="M142.8,75.4c-0.8,0-1.5-0.7-1.5-1.5c0-0.8,0.7-1.5,1.5-1.5c0.8,0,1.5,0.7,1.5,1.5
	C144.3,74.7,143.6,75.4,142.8,75.4"/>
</svg>
