<?xml version="1.0" encoding="utf-8"?>
<!-- Generator: Adobe Illustrator 18.1.1, SVG Export Plug-In . SVG Version: 6.00 Build 0)  -->
<svg version="1.1" id="Layer_1" xmlns="http://www.w3.org/2000/svg" xmlns:xlink="http://www.w3.org/1999/xlink" x="0px" y="0px"
	 viewBox="0 0 237.2 264.7" enable-background="new 0 0 237.2 264.7" xml:space="preserve">
<line fill="none" stroke="#000000" stroke-width="0.24" stroke-linejoin="bevel" stroke-miterlimit="1.414" x1="80" y1="247.7" x2="80" y2="247.7"/>
<line fill="none" stroke="#000000" stroke-width="0.24" stroke-linejoin="bevel" stroke-miterlimit="1.414" x1="80" y1="247.7" x2="80" y2="247.7"/>
<line fill="none" stroke="#000000" stroke-width="0.48" stroke-linejoin="round" stroke-miterlimit="1.414" x1="70.1" y1="247.7" x2="104.1" y2="247.7"/>
<g>
	<path fill="none" stroke="#000000" stroke-width="0.48" stroke-linejoin="round" stroke-miterlimit="1.414" d="M104.1,247.7
		c0-4.5-1.8-8.9-5-12.1c-3.2-3.1-7.5-4.9-12-4.9s-8.9,1.8-12.1,4.9c-3.1,3.2-4.9,7.6-4.9,12.1s1.8,8.8,4.9,12c3.2,3.2,7.6,5,12.1,5
		s8.8-1.8,12-5C102.3,256.5,104.1,252.2,104.1,247.7"/>
	<path fill-rule="evenodd" clip-rule="evenodd" fill="#FFFFFF" d="M98.7,52.7c0-3-1.2-5.9-3.3-8.1c-2.2-2.1-5.1-3.4-8.1-3.4
		c-3.1,0-6,1.3-8.2,3.4c-2.1,2.2-3.3,5.1-3.3,8.1c0,3.1,1.2,6,3.3,8.1c2.2,2.2,5.1,3.4,8.2,3.4c3,0,5.9-1.2,8.1-3.4
		C97.5,58.7,98.7,55.8,98.7,52.7"/>
	<path fill="none" stroke="#000000" stroke-width="0.24" stroke-linejoin="bevel" stroke-miterlimit="1.414" d="M98.7,52.7
		c0-3-1.2-5.9-3.3-8.1c-2.2-2.1-5.1-3.4-8.1-3.4c-3.1,0-6,1.3-8.2,3.4c-2.1,2.2-3.3,5.1-3.3,8.1c0,3.1,1.2,6,3.3,8.1
		c2.2,2.2,5.1,3.4,8.2,3.4c3,0,5.9-1.2,8.1-3.4C97.5,58.7,98.7,55.8,98.7,52.7"/>
	<path fill-rule="evenodd" clip-rule="evenodd" fill="#FFFFFF" d="M139.9,52.7c0-3-1.2-5.9-3.3-8.1c-2.2-2.1-5.1-3.4-8.2-3.4
		c-3,0-5.9,1.3-8.1,3.4c-2.1,2.2-3.3,5.1-3.3,8.1c0,3.1,1.2,6,3.3,8.1c2.2,2.2,5.1,3.4,8.1,3.4c3.1,0,6-1.2,8.2-3.4
		C138.7,58.7,139.9,55.8,139.9,52.7"/>
	<path fill="none" stroke="#000000" stroke-width="0.24" stroke-linejoin="bevel" stroke-miterlimit="1.414" d="M139.9,52.7
		c0-3-1.2-5.9-3.3-8.1c-2.2-2.1-5.1-3.4-8.2-3.4c-3,0-5.9,1.3-8.1,3.4c-2.1,2.2-3.3,5.1-3.3,8.1c0,3.1,1.2,6,3.3,8.1
		c2.2,2.2,5.1,3.4,8.1,3.4c3.1,0,6-1.2,8.2-3.4C138.7,58.7,139.9,55.8,139.9,52.7"/>
	<path fill-rule="evenodd" clip-rule="evenodd" fill="#FFFFFF" d="M181.1,52.7c0-3-1.2-5.9-3.4-8.1c-2.1-2.1-5-3.4-8.1-3.4
		c-3,0-5.9,1.3-8.1,3.4c-2.1,2.2-3.4,5.1-3.4,8.1c0,3.1,1.3,6,3.4,8.1c2.2,2.2,5.1,3.4,8.1,3.4c3.1,0,6-1.2,8.1-3.4
		C179.9,58.7,181.1,55.8,181.1,52.7"/>
	<path fill="none" stroke="#000000" stroke-width="0.24" stroke-linejoin="bevel" stroke-miterlimit="1.414" d="M181.1,52.7
		c0-3-1.2-5.9-3.4-8.1c-2.1-2.1-5-3.4-8.1-3.4c-3,0-5.9,1.3-8.1,3.4c-2.1,2.2-3.4,5.1-3.4,8.1c0,3.1,1.3,6,3.4,8.1
		c2.2,2.2,5.1,3.4,8.1,3.4c3.1,0,6-1.2,8.1-3.4C179.9,58.7,181.1,55.8,181.1,52.7"/>
	<path fill-rule="evenodd" clip-rule="evenodd" fill="#FFFFFF" d="M197.5,175.1c3,0,5.9-1.2,8.1-3.4c2.1-2.2,3.3-5.1,3.3-8.1
		c0-3.1-1.2-6-3.3-8.1c-2.2-2.2-5.1-3.4-8.1-3.4c-3.1,0-6,1.2-8.2,3.4c-2.1,2.1-3.3,5-3.3,8.1c0,3,1.2,5.9,3.3,8.1
		C191.5,173.9,194.4,175.1,197.5,175.1"/>
	<path fill="none" stroke="#000000" stroke-width="0.24" stroke-linejoin="bevel" stroke-miterlimit="1.414" d="M197.5,175.1
		c3,0,5.9-1.2,8.1-3.4c2.1-2.2,3.3-5.1,3.3-8.1c0-3.1-1.2-6-3.3-8.1c-2.2-2.2-5.1-3.4-8.1-3.4c-3.1,0-6,1.2-8.2,3.4
		c-2.1,2.1-3.3,5-3.3,8.1c0,3,1.2,5.9,3.3,8.1C191.5,173.9,194.4,175.1,197.5,175.1"/>
	<path fill-rule="evenodd" clip-rule="evenodd" fill="#FFFFFF" d="M197.5,134.6c3,0,5.9-1.3,8.1-3.4c2.1-2.2,3.3-5.1,3.3-8.1
		c0-3.1-1.2-6-3.3-8.1c-2.2-2.2-5.1-3.4-8.1-3.4c-3.1,0-6,1.2-8.2,3.4c-2.1,2.1-3.3,5-3.3,8.1c0,3,1.2,5.9,3.3,8.1
		C191.5,133.3,194.4,134.6,197.5,134.6"/>
	<path fill="none" stroke="#000000" stroke-width="0.24" stroke-linejoin="bevel" stroke-miterlimit="1.414" d="M197.5,134.6
		c3,0,5.9-1.3,8.1-3.4c2.1-2.2,3.3-5.1,3.3-8.1c0-3.1-1.2-6-3.3-8.1c-2.2-2.2-5.1-3.4-8.1-3.4c-3.1,0-6,1.2-8.2,3.4
		c-2.1,2.1-3.3,5-3.3,8.1c0,3,1.2,5.9,3.3,8.1C191.5,133.3,194.4,134.6,197.5,134.6"/>
	<path fill-rule="evenodd" clip-rule="evenodd" fill="#FFFFFF" d="M197.5,94.1c3,0,5.9-1.3,8.1-3.4c2.1-2.2,3.3-5.1,3.3-8.1
		c0-3.1-1.2-6-3.3-8.1c-2.2-2.2-5.1-3.4-8.1-3.4c-3.1,0-6,1.2-8.2,3.4c-2.1,2.1-3.3,5-3.3,8.1c0,3,1.2,5.9,3.3,8.1
		C191.5,92.8,194.4,94.1,197.5,94.1"/>
	<path fill="none" stroke="#000000" stroke-width="0.24" stroke-linejoin="bevel" stroke-miterlimit="1.414" d="M197.5,94.1
		c3,0,5.9-1.3,8.1-3.4c2.1-2.2,3.3-5.1,3.3-8.1c0-3.1-1.2-6-3.3-8.1c-2.2-2.2-5.1-3.4-8.1-3.4c-3.1,0-6,1.2-8.2,3.4
		c-2.1,2.1-3.3,5-3.3,8.1c0,3,1.2,5.9,3.3,8.1C191.5,92.8,194.4,94.1,197.5,94.1"/>
	
		<line fill="none" stroke="#000000" stroke-width="0.48" stroke-linejoin="round" stroke-miterlimit="1.414" x1="104.1" y1="247.7" x2="229" y2="247.7"/>
	<path fill-rule="evenodd" clip-rule="evenodd" d="M83.4,241.1c0-1.6,0.1-2.6,0.4-3.2c0.3-0.5,0.7-0.8,1.2-0.8s0.9,0.3,1.2,0.8
		c0.3,0.6,0.4,1.6,0.4,3.2c0,1.6-0.1,2.7-0.4,3.3c-0.3,0.5-0.7,0.8-1.2,0.8s-0.8-0.3-1.2-0.8C83.5,243.8,83.4,242.8,83.4,241.1
		 M82.4,241.1c0,1.9,0.2,3.2,0.7,4c0.5,0.7,1.1,1.1,1.9,1.1c0.9,0,1.5-0.4,2-1.3c0.4-0.8,0.7-2.1,0.7-3.8c0-1.8-0.3-3.1-0.9-4
		c-0.4-0.7-1-1-1.8-1c-0.9,0-1.5,0.4-2,1.3C82.6,238.2,82.4,239.5,82.4,241.1"/>
	<path fill-rule="evenodd" clip-rule="evenodd" d="M92.4,246v-9.9h-0.6c-0.2,0.4-0.5,0.9-0.9,1.3c-0.4,0.5-0.9,0.9-1.5,1.2v1.2
		c0.4-0.2,0.7-0.4,1.1-0.7c0.4-0.3,0.7-0.5,0.9-0.8v7.7H92.4"/>
	<path fill-rule="evenodd" clip-rule="evenodd" d="M120,239.3v-4.1h2.4c0.6,0,1.1,0.1,1.3,0.2c0.3,0.1,0.5,0.3,0.7,0.6
		c0.1,0.4,0.2,0.7,0.2,1.2c0,0.7-0.2,1.2-0.5,1.5c-0.4,0.4-0.9,0.6-1.7,0.6H120 M118.8,245.2h1.2v-4.6h2.4c1.3,0,2.2-0.3,2.7-1
		c0.5-0.6,0.8-1.5,0.8-2.5c0-0.7-0.2-1.4-0.5-1.9c-0.3-0.6-0.7-0.9-1.3-1.1c-0.4-0.2-1-0.2-1.8-0.2h-3.5V245.2"/>
	<polygon fill-rule="evenodd" clip-rule="evenodd" points="127.4,245.2 133.2,245.2 133.2,243.9 128.6,243.9 128.6,233.9 
		127.4,233.9 	"/>
	<path fill-rule="evenodd" clip-rule="evenodd" d="M136.3,240.5l1.1-3.3c0.2-0.7,0.3-1.4,0.5-2.2c0.1,0.7,0.3,1.4,0.6,2.4l1,3.1
		H136.3 M133.7,245.2h1.3l1-3.4h3.9l1,3.4h1.5l-3.8-11.3h-1.4L133.7,245.2"/>
	<polygon fill-rule="evenodd" clip-rule="evenodd" points="143.3,245.2 144.5,245.2 144.5,236.3 149.4,245.2 150.6,245.2 
		150.6,233.9 149.4,233.9 149.4,242.8 144.6,233.9 143.3,233.9 	"/>
	<rect x="155.7" y="240.4" fill-rule="evenodd" clip-rule="evenodd" width="3.5" height="1.4"/>
	<polygon fill-rule="evenodd" clip-rule="evenodd" points="164.3,245.2 171.2,245.2 171.2,243.9 165.5,243.9 165.5,240 170.6,240 
		170.6,238.7 165.5,238.7 165.5,235.2 171,235.2 171,233.9 164.3,233.9 	"/>
	<path fill-rule="evenodd" clip-rule="evenodd" d="M172,245.2h1.5l2.3-4c0.1-0.1,0.2-0.4,0.4-0.8c0.2,0.3,0.3,0.5,0.4,0.8l2.4,4h1.5
		l-3.5-6l3.2-5.3h-1.3l-1.9,3c-0.3,0.4-0.5,0.9-0.7,1.2c-0.1-0.3-0.4-0.7-0.7-1.3l-1.7-2.9h-1.5l3.2,5.4L172,245.2"/>
	<rect x="181.8" y="233.9" fill-rule="evenodd" clip-rule="evenodd" width="1.2" height="11.3"/>
	<path fill-rule="evenodd" clip-rule="evenodd" d="M184.8,241.5c0,0.6,0.1,1.2,0.3,1.6c0.1,0.5,0.4,0.9,0.7,1.3c0.7,0.6,1.6,1,2.8,1
		c0.7,0,1.4-0.2,1.9-0.4c0.5-0.3,0.9-0.7,1.2-1.2c0.3-0.6,0.5-1.2,0.5-1.8c0-0.7-0.2-1.2-0.5-1.7c-0.2-0.5-0.7-0.9-1.2-1.1
		c-0.4-0.2-1.1-0.5-2-0.7c-0.9-0.3-1.5-0.5-1.8-0.8c-0.3-0.2-0.4-0.6-0.4-1c0-0.5,0.2-0.9,0.6-1.3c0.3-0.3,0.9-0.4,1.6-0.4
		c0.6,0,1.2,0.2,1.6,0.5c0.3,0.4,0.6,0.9,0.6,1.6l1.2-0.1c0-0.6-0.2-1.2-0.5-1.8c-0.3-0.5-0.7-0.9-1.2-1.1c-0.5-0.3-1.1-0.4-1.8-0.4
		c-1,0-1.8,0.2-2.4,0.8c-0.6,0.6-0.9,1.4-0.9,2.3c0,0.5,0.1,0.9,0.3,1.4c0.2,0.4,0.5,0.7,0.9,1c0.4,0.2,1,0.5,1.9,0.7
		c1,0.3,1.6,0.6,1.9,0.7c0.3,0.2,0.5,0.4,0.7,0.6c0.1,0.3,0.2,0.6,0.2,0.9c0,0.6-0.2,1-0.6,1.4c-0.4,0.4-1,0.5-1.7,0.5
		c-0.5,0-1-0.1-1.4-0.3c-0.4-0.2-0.7-0.5-0.9-0.8c-0.3-0.4-0.4-0.9-0.5-1.5L184.8,241.5"/>
	<polygon fill-rule="evenodd" clip-rule="evenodd" points="196.2,245.2 197.5,245.2 197.5,235.2 200.5,235.2 200.5,233.9 
		193.2,233.9 193.2,235.2 196.2,235.2 	"/>
	<rect x="202" y="233.9" fill-rule="evenodd" clip-rule="evenodd" width="1.2" height="11.3"/>
	<polygon fill-rule="evenodd" clip-rule="evenodd" points="205.3,245.2 206.5,245.2 206.5,236.3 211.4,245.2 212.7,245.2 
		212.7,233.9 211.5,233.9 211.5,242.8 206.6,233.9 205.3,233.9 	"/>
	<path fill-rule="evenodd" clip-rule="evenodd" d="M219.1,240.7h2.8v2.2c-0.3,0.3-0.7,0.6-1.2,0.8c-0.6,0.2-1.1,0.3-1.5,0.3
		c-1.1,0-1.9-0.3-2.5-1.1s-1-1.9-1-3.4c0-1,0.2-1.8,0.5-2.5c0.3-0.7,0.7-1.2,1.2-1.6c0.4-0.3,1-0.5,1.7-0.5c0.5,0,0.9,0.1,1.3,0.3
		c0.3,0.2,0.6,0.4,0.9,0.8c0.2,0.3,0.4,0.8,0.5,1.4l1.1-0.4c-0.1-0.8-0.4-1.4-0.7-1.9s-0.8-0.8-1.3-1.1c-0.5-0.2-1.1-0.3-1.8-0.3
		c-0.9,0-1.7,0.2-2.4,0.6c-0.6,0.4-1.2,1.1-1.6,2c-0.4,1-0.6,2-0.6,3.3c0,1.2,0.2,2.2,0.6,3.1c0.4,0.9,1,1.6,1.7,2
		c0.7,0.5,1.5,0.7,2.4,0.7c0.7,0,1.4-0.2,2-0.5s1.3-0.7,1.9-1.3v-4.2h-4V240.7"/>
</g>
<rect x="86.3" y="253.8" width="2.1" height="0.9"/>
<g>
	<path fill-rule="evenodd" clip-rule="evenodd" d="M122.2,260.8v-9.9h-0.7c-0.1,0.4-0.4,0.9-0.8,1.3c-0.5,0.5-1,0.9-1.5,1.2v1.2
		c0.3-0.2,0.7-0.4,1.1-0.7c0.4-0.3,0.7-0.5,0.9-0.8v7.7H122.2"/>
	<rect x="125.4" y="253.7" fill-rule="evenodd" clip-rule="evenodd" width="1.1" height="1.4"/>
	<rect x="125.4" y="259.5" fill-rule="evenodd" clip-rule="evenodd" width="1.1" height="1.3"/>
	<path fill-rule="evenodd" clip-rule="evenodd" d="M131.7,260.8v-9.9H131c-0.1,0.4-0.4,0.9-0.9,1.3c-0.4,0.5-0.9,0.9-1.4,1.2v1.2
		c0.3-0.2,0.7-0.4,1-0.7c0.4-0.3,0.7-0.5,1-0.8v7.7H131.7"/>
	<path fill-rule="evenodd" clip-rule="evenodd" d="M135.3,256c0-1.6,0.1-2.7,0.4-3.3c0.3-0.5,0.7-0.8,1.2-0.8c0.4,0,0.8,0.3,1.2,0.8
		c0.3,0.6,0.4,1.6,0.4,3.3c0,1.6-0.1,2.6-0.4,3.2c-0.3,0.5-0.7,0.8-1.2,0.8s-0.9-0.3-1.2-0.8C135.4,258.6,135.3,257.6,135.3,256
		 M134.2,256c0,1.8,0.3,3.1,0.8,3.9c0.5,0.7,1.1,1.1,1.9,1.1c0.9,0,1.5-0.4,2-1.3c0.4-0.8,0.6-2.1,0.6-3.7c0-1.9-0.2-3.2-0.8-4.1
		c-0.4-0.7-1-1-1.8-1c-0.9,0-1.5,0.4-2,1.3C134.5,253,134.2,254.3,134.2,256"/>
	<path fill-rule="evenodd" clip-rule="evenodd" d="M141.6,256c0-1.6,0.1-2.7,0.4-3.3c0.3-0.5,0.7-0.8,1.2-0.8s0.9,0.3,1.2,0.8
		c0.3,0.6,0.4,1.6,0.4,3.3c0,1.6-0.1,2.6-0.4,3.2c-0.3,0.5-0.7,0.8-1.2,0.8c-0.4,0-0.8-0.3-1.2-0.8
		C141.7,258.6,141.6,257.6,141.6,256 M140.6,256c0,1.8,0.2,3.1,0.7,3.9c0.5,0.7,1.1,1.1,1.9,1.1c0.9,0,1.5-0.4,2-1.3
		c0.4-0.8,0.7-2.1,0.7-3.7c0-1.9-0.3-3.2-0.8-4.1c-0.5-0.7-1.1-1-1.9-1c-0.9,0-1.5,0.4-2,1.3C140.8,253,140.6,254.3,140.6,256"/>
	
		<line fill="none" stroke="#000000" stroke-width="0.24" stroke-linejoin="bevel" stroke-miterlimit="1.414" stroke-dasharray="7.92,3,2.04,3" x1="87.3" y1="64.2" x2="87.3" y2="188.5"/>
	
		<line fill="none" stroke="#000000" stroke-width="0.24" stroke-linejoin="bevel" stroke-miterlimit="1.414" stroke-dasharray="7.92,3,2.04,3" x1="128.4" y1="64.2" x2="128.4" y2="188.5"/>
	
		<line fill="none" stroke="#000000" stroke-width="0.24" stroke-linejoin="bevel" stroke-miterlimit="1.414" stroke-dasharray="7.92,3,2.04,3" x1="169.6" y1="64.2" x2="169.6" y2="188.5"/>
	
		<line fill="none" stroke="#000000" stroke-width="0.24" stroke-linejoin="bevel" stroke-miterlimit="1.414" stroke-dasharray="7.92,3,2.04,3" x1="186" y1="163.6" x2="69.1" y2="163.6"/>
	
		<line fill="none" stroke="#000000" stroke-width="0.24" stroke-linejoin="bevel" stroke-miterlimit="1.414" stroke-dasharray="7.92,3,2.04,3" x1="186" y1="123.1" x2="69.1" y2="123.1"/>
	
		<line fill="none" stroke="#000000" stroke-width="0.24" stroke-linejoin="bevel" stroke-miterlimit="1.414" stroke-dasharray="7.92,3,2.04,3" x1="186" y1="82.6" x2="69.1" y2="82.6"/>
	<path fill-rule="evenodd" clip-rule="evenodd" d="M85.9,53.5l0.8-2.7c0.2-0.5,0.3-1.1,0.4-1.7c0.1,0.5,0.3,1.1,0.6,1.9l0.7,2.5
		H85.9 M83.7,57.3h1.1l0.8-2.8h3.2l0.8,2.8h1.2l-3.1-9.2h-1.1L83.7,57.3"/>
	<path fill-rule="evenodd" clip-rule="evenodd" d="M127,56.2v-3.1h1.7c0.5,0,0.9,0,1.2,0.1c0.2,0.2,0.4,0.3,0.5,0.6
		c0.2,0.2,0.3,0.5,0.3,0.8c0,0.4-0.1,0.7-0.3,1c-0.1,0.2-0.3,0.4-0.6,0.5c-0.2,0.1-0.5,0.1-0.9,0.1H127 M127,52v-2.8h1.5
		c0.5,0,0.9,0.1,1.1,0.1c0.2,0.1,0.4,0.3,0.5,0.5c0.2,0.2,0.2,0.5,0.2,0.8c0,0.4,0,0.7-0.2,0.9c-0.1,0.2-0.3,0.3-0.6,0.4
		c-0.2,0.1-0.5,0.1-0.9,0.1H127 M126,57.3h2.9c0.6,0,1.1-0.1,1.5-0.3s0.7-0.5,0.9-0.9c0.3-0.4,0.4-0.9,0.4-1.4
		c0-0.6-0.2-1.1-0.4-1.5c-0.3-0.3-0.6-0.6-1-0.8c0.3-0.2,0.6-0.4,0.7-0.8c0.2-0.3,0.3-0.7,0.3-1.1c0-0.5-0.1-0.9-0.3-1.3
		c-0.2-0.4-0.5-0.6-0.8-0.8c-0.4-0.2-0.8-0.3-1.4-0.3H126V57.3"/>
	<path fill-rule="evenodd" clip-rule="evenodd" d="M172.2,54.1c-0.1,0.8-0.4,1.4-0.8,1.8c-0.4,0.3-0.9,0.5-1.4,0.5
		c-0.7,0-1.3-0.3-1.8-0.9c-0.4-0.6-0.6-1.6-0.6-2.8c0-0.9,0.1-1.6,0.3-2.1c0.2-0.5,0.5-0.9,0.9-1.2c0.3-0.3,0.8-0.4,1.3-0.4
		c1,0,1.7,0.6,2,1.9l1-0.3c-0.2-0.8-0.6-1.5-1.1-2c-0.5-0.4-1.2-0.6-1.9-0.6c-0.7,0-1.3,0.1-1.8,0.5s-1,0.9-1.3,1.6
		c-0.3,0.7-0.5,1.5-0.5,2.6c0,1,0.2,1.9,0.5,2.6c0.3,0.8,0.7,1.3,1.2,1.7c0.5,0.3,1.1,0.5,1.8,0.5c0.8,0,1.5-0.3,2-0.8
		c0.6-0.5,1-1.3,1.2-2.3L172.2,54.1"/>
	<path fill-rule="evenodd" clip-rule="evenodd" d="M193.7,163.6c0-1.4,0.2-2.4,0.5-2.9c0.2-0.6,0.6-0.8,1-0.8c0.5,0,0.8,0.2,1.1,0.7
		c0.3,0.5,0.5,1.5,0.5,3s-0.2,2.5-0.5,3c-0.3,0.5-0.6,0.8-1,0.8c-0.5,0-0.8-0.2-1.1-0.8C193.9,166.1,193.7,165.1,193.7,163.6
		 M192.8,163.6c0,1.8,0.2,3,0.7,3.7c0.4,0.7,1,1,1.7,1c0.9,0,1.5-0.4,1.9-1.2c0.4-0.8,0.6-1.9,0.6-3.5c0-1.7-0.2-2.9-0.7-3.7
		c-0.5-0.6-1-0.9-1.7-0.9c-0.9,0-1.5,0.3-1.9,1.1C193,160.9,192.8,162.1,192.8,163.6"/>
	<path fill-rule="evenodd" clip-rule="evenodd" d="M202.1,168.2V159h-0.6c-0.1,0.4-0.4,0.8-0.8,1.2c-0.4,0.4-0.8,0.8-1.4,1.1v1.1
		c0.3-0.2,0.7-0.4,1-0.6c0.4-0.3,0.7-0.6,0.9-0.8v7.2H202.1"/>
	<path fill-rule="evenodd" clip-rule="evenodd" d="M193,123.1c0-1.4,0.2-2.4,0.5-2.9c0.3-0.6,0.6-0.8,1-0.8c0.5,0,0.8,0.2,1.1,0.7
		c0.3,0.5,0.5,1.5,0.5,3s-0.2,2.5-0.5,3c-0.2,0.5-0.6,0.8-1,0.8c-0.5,0-0.8-0.3-1.1-0.8S193,124.6,193,123.1 M192.1,123.1
		c0,1.8,0.2,3,0.7,3.7c0.4,0.7,1,1,1.7,1c0.9,0,1.5-0.4,1.9-1.2c0.4-0.8,0.6-1.9,0.6-3.5c0-1.7-0.2-2.9-0.7-3.7
		c-0.5-0.6-1-0.9-1.7-0.9c-0.9,0-1.5,0.3-1.9,1.1C192.3,120.4,192.1,121.6,192.1,123.1"/>
	<path fill-rule="evenodd" clip-rule="evenodd" d="M202.8,126.6h-3.7c0.1-0.2,0.3-0.4,0.4-0.6c0.2-0.2,0.5-0.6,1.1-1.2
		c0.9-0.9,1.4-1.6,1.7-2.1c0.4-0.6,0.5-1.1,0.5-1.7c0-0.7-0.2-1.3-0.6-1.8c-0.4-0.5-1-0.7-1.7-0.7c-0.7,0-1.3,0.2-1.7,0.6
		c-0.5,0.5-0.7,1.1-0.8,2l1,0.1c0-0.6,0.1-1,0.4-1.3c0.3-0.4,0.6-0.5,1-0.5s0.8,0.1,1.1,0.4c0.2,0.3,0.4,0.7,0.4,1.2
		c0,0.4-0.2,0.8-0.4,1.3c-0.3,0.5-0.9,1.1-1.7,2c-0.8,0.7-1.3,1.4-1.6,1.9c-0.2,0.5-0.4,1-0.4,1.5h5V126.6"/>
	<path fill-rule="evenodd" clip-rule="evenodd" d="M193,82.6c0-1.4,0.2-2.4,0.4-2.9c0.3-0.6,0.7-0.8,1.1-0.8c0.4,0,0.8,0.2,1.1,0.7
		c0.3,0.5,0.4,1.5,0.4,3s-0.1,2.5-0.4,3c-0.3,0.5-0.6,0.8-1.1,0.8c-0.4,0-0.8-0.3-1.1-0.8C193.2,85.1,193,84.1,193,82.6 M192.1,82.6
		c0,1.8,0.2,3,0.7,3.7c0.4,0.7,1,1,1.7,1c0.8,0,1.5-0.4,1.9-1.2c0.4-0.8,0.6-1.9,0.6-3.5c0-1.7-0.3-2.9-0.8-3.7
		c-0.4-0.6-0.9-1-1.7-1s-1.4,0.4-1.8,1.2C192.3,79.9,192.1,81.1,192.1,82.6"/>
	<path fill-rule="evenodd" clip-rule="evenodd" d="M197.9,84.7c0.1,0.8,0.3,1.5,0.8,1.9c0.4,0.5,1,0.7,1.6,0.7
		c0.7,0,1.3-0.2,1.8-0.8c0.5-0.5,0.8-1.2,0.8-2c0-0.4-0.1-0.8-0.2-1.1c-0.1-0.3-0.3-0.6-0.5-0.8s-0.4-0.3-0.7-0.4
		c0.3-0.2,0.5-0.4,0.7-0.8c0.2-0.3,0.3-0.7,0.3-1.1c0-0.7-0.2-1.2-0.7-1.7c-0.4-0.4-0.9-0.7-1.5-0.7c-0.6,0-1.1,0.3-1.5,0.7
		c-0.4,0.4-0.7,0.9-0.8,1.7l0.9,0.2c0.1-0.5,0.3-0.9,0.5-1.2c0.2-0.3,0.5-0.4,0.9-0.4c0.3,0,0.6,0.1,0.9,0.4c0.2,0.2,0.3,0.6,0.3,1
		c0,0.5-0.1,0.8-0.4,1.1c-0.3,0.3-0.6,0.4-1.1,0.4h-0.1l-0.2,1c0.3-0.1,0.5-0.1,0.7-0.1c0.4,0,0.8,0.2,1,0.5
		c0.3,0.3,0.5,0.7,0.5,1.3c0,0.5-0.2,1-0.5,1.4c-0.3,0.3-0.7,0.5-1.1,0.5c-0.8,0-1.3-0.6-1.5-1.8L197.9,84.7"/>
</g>
<text transform="matrix(1 0 0 1 4.9443 28.0234)" fill="#1D1D1B" font-family="'Helvetica'" font-size="8">GRID LINES</text>
<text transform="matrix(1 0 0 1 84.0254 7.7129)" fill="#CD1719" font-family="'Helvetica'" font-size="9">D</text>
<text transform="matrix(1 0 0 1 90.1904 7.7129)"><tspan x="0" y="0" fill="#CD1719" font-family="'Helvetica'" font-size="9">i</tspan><tspan x="1.7" y="0" fill="#CD1719" font-family="'Helvetica'" font-size="9">r</tspan><tspan x="4.3" y="0" fill="#CD1719" font-family="'Helvetica'" font-size="9">ection</tspan></text>
<text transform="matrix(0 -1 1 0 231.5162 174.9095)" fill="#CD1719" font-family="'Helvetica'" font-size="9">D</text>
<text transform="matrix(0 -1 1 0 231.5161 168.7435)"><tspan x="0" y="0" fill="#CD1719" font-family="'Helvetica'" font-size="9">i</tspan><tspan x="1.7" y="0" fill="#CD1719" font-family="'Helvetica'" font-size="9">r</tspan><tspan x="4.3" y="0" fill="#CD1719" font-family="'Helvetica'" font-size="9">ection</tspan></text>
<text transform="matrix(1 0 0 1 0 221.667)"><tspan x="0" y="0" fill="#1D1D1B" font-family="'Helvetica'" font-size="8">DE</tspan><tspan x="10.2" y="0" fill="#1D1D1B" font-family="'Helvetica'" font-size="8">T</tspan><tspan x="14.1" y="0" fill="#1D1D1B" font-family="'Helvetica'" font-size="8">AIL TITLE</tspan></text>
<line fill="none" stroke="#CD1719" stroke-width="0.75" stroke-linecap="round" stroke-linejoin="round" stroke-dasharray="0,2.245" x1="233.7" y1="172" x2="233.7" y2="65.3"/>
<path fill="none" stroke="#CD1719" stroke-width="0.75" stroke-linecap="round" stroke-linejoin="round" d="M233.7,64.2L233.7,64.2
	 M233.7,174.2L233.7,174.2"/>
<polyline fill="none" stroke="#CD1719" stroke-width="0.75" points="230.2,67.9 233.7,64.2 237.2,67.9 "/>
<line fill="none" stroke="#CD1719" stroke-width="0.75" stroke-linecap="round" stroke-linejoin="round" stroke-dasharray="0,2.245" x1="86.6" y1="10" x2="193.3" y2="10"/>
<path fill="none" stroke="#CD1719" stroke-width="0.75" stroke-linecap="round" stroke-linejoin="round" d="M194.4,10L194.4,10
	 M84.4,10L84.4,10"/>
<polyline fill="none" stroke="#CD1719" stroke-width="0.75" points="190.7,6.5 194.4,10 190.7,13.5 "/>
</svg>
