<svg class="Layer_1" xmlns="http://www.w3.org/2000/svg" xmlns:xlink="http://www.w3.org/1999/xlink" x="0px" y="0px"
	 viewBox="0 0 270 264.715" enable-background="new 0 0 270 264.715" xml:space="preserve">
<line fill="none" stroke="#000000" stroke-width="0.24" stroke-linejoin="bevel" stroke-miterlimit="1.414" x1="79.965" y1="247.715" x2="79.965" y2="247.715"/>
<line fill="none" stroke="#000000" stroke-width="0.24" stroke-linejoin="bevel" stroke-miterlimit="1.414" x1="79.965" y1="247.715" x2="79.965" y2="247.715"/>
<line fill="none" stroke="#000000" stroke-width="0.48" stroke-linejoin="round" stroke-miterlimit="1.414" x1="70.065" y1="247.715" x2="104.065" y2="247.715"/>
<path fill="none" stroke="#000000" stroke-width="0.48" stroke-linejoin="round" stroke-miterlimit="1.414" d="M104.065,247.715
	c0-4.5-1.8-8.9-5-12.1c-3.2-3.1-7.5-4.9-12-4.9s-8.9,1.8-12.1,4.9c-3.1,3.2-4.9,7.6-4.9,12.1s1.8,8.8,4.9,12c3.2,3.2,7.6,5,12.1,5
	s8.8-1.8,12-5C102.265,256.515,104.065,252.215,104.065,247.715"/>
<path fill-rule="evenodd" clip-rule="evenodd" fill="#ffffff" d="M98.665,52.715c0-3-1.2-5.9-3.3-8.1c-2.2-2.1-5.1-3.4-8.1-3.4
	c-3.1,0-6,1.3-8.2,3.4c-2.1,2.2-3.3,5.1-3.3,8.1c0,3.1,1.2,6,3.3,8.1c2.2,2.2,5.1,3.4,8.2,3.4c3,0,5.9-1.2,8.1-3.4
	C97.465,58.715,98.665,55.815,98.665,52.715"/>
<path fill="none" stroke="#000000" stroke-width="0.24" stroke-linejoin="bevel" stroke-miterlimit="1.414" d="M98.665,52.715
	c0-3-1.2-5.9-3.3-8.1c-2.2-2.1-5.1-3.4-8.1-3.4c-3.1,0-6,1.3-8.2,3.4c-2.1,2.2-3.3,5.1-3.3,8.1c0,3.1,1.2,6,3.3,8.1
	c2.2,2.2,5.1,3.4,8.2,3.4c3,0,5.9-1.2,8.1-3.4C97.465,58.715,98.665,55.815,98.665,52.715"/>
<path fill-rule="evenodd" clip-rule="evenodd" fill="#ffffff" d="M139.865,52.715c0-3-1.2-5.9-3.3-8.1c-2.2-2.1-5.1-3.4-8.2-3.4
	c-3,0-5.9,1.3-8.1,3.4c-2.1,2.2-3.3,5.1-3.3,8.1c0,3.1,1.2,6,3.3,8.1c2.2,2.2,5.1,3.4,8.1,3.4c3.1,0,6-1.2,8.2-3.4
	C138.665,58.715,139.865,55.815,139.865,52.715"/>
<path fill="none" stroke="#000000" stroke-width="0.24" stroke-linejoin="bevel" stroke-miterlimit="1.414" d="M139.865,52.715
	c0-3-1.2-5.9-3.3-8.1c-2.2-2.1-5.1-3.4-8.2-3.4c-3,0-5.9,1.3-8.1,3.4c-2.1,2.2-3.3,5.1-3.3,8.1c0,3.1,1.2,6,3.3,8.1
	c2.2,2.2,5.1,3.4,8.1,3.4c3.1,0,6-1.2,8.2-3.4C138.665,58.715,139.865,55.815,139.865,52.715"/>
<path fill-rule="evenodd" clip-rule="evenodd" fill="#ffffff" d="M181.065,52.715c0-3-1.2-5.9-3.4-8.1c-2.1-2.1-5-3.4-8.1-3.4
	c-3,0-5.9,1.3-8.1,3.4c-2.1,2.2-3.4,5.1-3.4,8.1c0,3.1,1.3,6,3.4,8.1c2.2,2.2,5.1,3.4,8.1,3.4c3.1,0,6-1.2,8.1-3.4
	C179.865,58.715,181.065,55.815,181.065,52.715"/>
<path fill="none" stroke="#000000" stroke-width="0.24" stroke-linejoin="bevel" stroke-miterlimit="1.414" d="M181.065,52.715
	c0-3-1.2-5.9-3.4-8.1c-2.1-2.1-5-3.4-8.1-3.4c-3,0-5.9,1.3-8.1,3.4c-2.1,2.2-3.4,5.1-3.4,8.1c0,3.1,1.3,6,3.4,8.1
	c2.2,2.2,5.1,3.4,8.1,3.4c3.1,0,6-1.2,8.1-3.4C179.865,58.715,181.065,55.815,181.065,52.715"/>
<path fill-rule="evenodd" clip-rule="evenodd" fill="#ffffff" d="M197.465,175.115c3,0,5.9-1.2,8.1-3.4c2.1-2.2,3.3-5.1,3.3-8.1
	c0-3.1-1.2-6-3.3-8.1c-2.2-2.2-5.1-3.4-8.1-3.4c-3.1,0-6,1.2-8.2,3.4c-2.1,2.1-3.3,5-3.3,8.1c0,3,1.2,5.9,3.3,8.1
	C191.465,173.915,194.365,175.115,197.465,175.115"/>
<path fill="none" stroke="#000000" stroke-width="0.24" stroke-linejoin="bevel" stroke-miterlimit="1.414" d="M197.465,175.115
	c3,0,5.9-1.2,8.1-3.4c2.1-2.2,3.3-5.1,3.3-8.1c0-3.1-1.2-6-3.3-8.1c-2.2-2.2-5.1-3.4-8.1-3.4c-3.1,0-6,1.2-8.2,3.4
	c-2.1,2.1-3.3,5-3.3,8.1c0,3,1.2,5.9,3.3,8.1C191.465,173.915,194.365,175.115,197.465,175.115"/>
<path fill-rule="evenodd" clip-rule="evenodd" fill="#ffffff" d="M197.465,134.615c3,0,5.9-1.3,8.1-3.4c2.1-2.2,3.3-5.1,3.3-8.1
	c0-3.1-1.2-6-3.3-8.1c-2.2-2.2-5.1-3.4-8.1-3.4c-3.1,0-6,1.2-8.2,3.4c-2.1,2.1-3.3,5-3.3,8.1c0,3,1.2,5.9,3.3,8.1
	C191.465,133.315,194.365,134.615,197.465,134.615"/>
<path fill="none" stroke="#000000" stroke-width="0.24" stroke-linejoin="bevel" stroke-miterlimit="1.414" d="M197.465,134.615
	c3,0,5.9-1.3,8.1-3.4c2.1-2.2,3.3-5.1,3.3-8.1c0-3.1-1.2-6-3.3-8.1c-2.2-2.2-5.1-3.4-8.1-3.4c-3.1,0-6,1.2-8.2,3.4
	c-2.1,2.1-3.3,5-3.3,8.1c0,3,1.2,5.9,3.3,8.1C191.465,133.315,194.365,134.615,197.465,134.615"/>
<path fill-rule="evenodd" clip-rule="evenodd" fill="#ffffff" d="M197.465,94.115c3,0,5.9-1.3,8.1-3.4c2.1-2.2,3.3-5.1,3.3-8.1
	c0-3.1-1.2-6-3.3-8.1c-2.2-2.2-5.1-3.4-8.1-3.4c-3.1,0-6,1.2-8.2,3.4c-2.1,2.1-3.3,5-3.3,8.1c0,3,1.2,5.9,3.3,8.1
	C191.465,92.815,194.365,94.115,197.465,94.115"/>
<path fill="none" stroke="#000000" stroke-width="0.24" stroke-linejoin="bevel" stroke-miterlimit="1.414" d="M197.465,94.115
	c3,0,5.9-1.3,8.1-3.4c2.1-2.2,3.3-5.1,3.3-8.1c0-3.1-1.2-6-3.3-8.1c-2.2-2.2-5.1-3.4-8.1-3.4c-3.1,0-6,1.2-8.2,3.4
	c-2.1,2.1-3.3,5-3.3,8.1c0,3,1.2,5.9,3.3,8.1C191.465,92.815,194.365,94.115,197.465,94.115"/>
<line fill="none" stroke="#000000" stroke-width="0.48" stroke-linejoin="round" stroke-miterlimit="1.414" x1="104.065" y1="247.715" x2="228.965" y2="247.715"/>
<path fill-rule="evenodd" clip-rule="evenodd" d="M83.365,241.115c0-1.6,0.1-2.6,0.4-3.2c0.3-0.5,0.7-0.8,1.2-0.8s0.9,0.3,1.2,0.8
	c0.3,0.6,0.4,1.6,0.4,3.2c0,1.6-0.1,2.7-0.4,3.3c-0.3,0.5-0.7,0.8-1.2,0.8s-0.8-0.3-1.2-0.8
	C83.465,243.815,83.365,242.815,83.365,241.115 M82.365,241.115c0,1.9,0.2,3.2,0.7,4c0.5,0.7,1.1,1.1,1.9,1.1c0.9,0,1.5-0.4,2-1.3
	c0.4-0.8,0.7-2.1,0.7-3.8c0-1.8-0.3-3.1-0.9-4c-0.4-0.7-1-1-1.8-1c-0.9,0-1.5,0.4-2,1.3
	C82.565,238.215,82.365,239.515,82.365,241.115"/>
<path fill-rule="evenodd" clip-rule="evenodd" d="M92.365,246.015v-9.9h-0.6c-0.2,0.4-0.5,0.9-0.9,1.3c-0.4,0.5-0.9,0.9-1.5,1.2v1.2
	c0.4-0.2,0.7-0.4,1.1-0.7c0.4-0.3,0.7-0.5,0.9-0.8v7.7H92.365"/>
<path fill-rule="evenodd" clip-rule="evenodd" d="M119.965,239.315v-4.1h2.4c0.6,0,1.1,0.1,1.3,0.2c0.3,0.1,0.5,0.3,0.7,0.6
	c0.1,0.4,0.2,0.7,0.2,1.2c0,0.7-0.2,1.2-0.5,1.5c-0.4,0.4-0.9,0.6-1.7,0.6H119.965 M118.765,245.215h1.2v-4.6h2.4
	c1.3,0,2.2-0.3,2.7-1c0.5-0.6,0.8-1.5,0.8-2.5c0-0.7-0.2-1.4-0.5-1.9c-0.3-0.6-0.7-0.9-1.3-1.1c-0.4-0.2-1-0.2-1.8-0.2h-3.5V245.215
	"/>
<polygon fill-rule="evenodd" clip-rule="evenodd" points="127.365,245.215 133.165,245.215 133.165,243.915 128.565,243.915 
	128.565,233.915 127.365,233.915 "/>
<path fill-rule="evenodd" clip-rule="evenodd" d="M136.264,240.515l1.1-3.3c0.2-0.7,0.3-1.4,0.5-2.2c0.1,0.7,0.3,1.4,0.6,2.4l1,3.1
	H136.264 M133.665,245.215h1.3l1-3.4h3.9l1,3.4h1.5l-3.8-11.3h-1.4L133.665,245.215"/>
<polygon fill-rule="evenodd" clip-rule="evenodd" points="143.265,245.215 144.465,245.215 144.465,236.315 149.365,245.215 
	150.565,245.215 150.565,233.915 149.365,233.915 149.365,242.815 144.565,233.915 143.265,233.915 "/>
<rect x="155.664" y="240.415" fill-rule="evenodd" clip-rule="evenodd" width="3.5" height="1.4"/>
<polygon fill-rule="evenodd" clip-rule="evenodd" points="164.265,245.215 171.165,245.215 171.165,243.915 165.465,243.915 
	165.465,240.015 170.565,240.015 170.565,238.715 165.465,238.715 165.465,235.215 170.965,235.215 170.965,233.915 
	164.265,233.915 "/>
<path fill-rule="evenodd" clip-rule="evenodd" d="M171.965,245.215h1.5l2.3-4c0.1-0.1,0.2-0.4,0.4-0.8c0.2,0.3,0.3,0.5,0.4,0.8
	l2.4,4h1.5l-3.5-6l3.2-5.3h-1.3l-1.9,3c-0.3,0.4-0.5,0.9-0.7,1.2c-0.1-0.3-0.4-0.7-0.7-1.3l-1.7-2.9h-1.5l3.2,5.4L171.965,245.215"
	/>
<rect x="181.764" y="233.915" fill-rule="evenodd" clip-rule="evenodd" width="1.2" height="11.3"/>
<path fill-rule="evenodd" clip-rule="evenodd" d="M184.765,241.515c0,0.6,0.1,1.2,0.3,1.6c0.1,0.5,0.4,0.9,0.7,1.3
	c0.7,0.6,1.6,1,2.8,1c0.7,0,1.4-0.2,1.9-0.4c0.5-0.3,0.9-0.7,1.2-1.2c0.3-0.6,0.5-1.2,0.5-1.8c0-0.7-0.2-1.2-0.5-1.7
	c-0.2-0.5-0.7-0.9-1.2-1.1c-0.4-0.2-1.1-0.5-2-0.7c-0.9-0.3-1.5-0.5-1.8-0.8c-0.3-0.2-0.4-0.6-0.4-1c0-0.5,0.2-0.9,0.6-1.3
	c0.3-0.3,0.9-0.4,1.6-0.4c0.6,0,1.2,0.2,1.6,0.5c0.3,0.4,0.6,0.9,0.6,1.6l1.2-0.1c0-0.6-0.2-1.2-0.5-1.8c-0.3-0.5-0.7-0.9-1.2-1.1
	c-0.5-0.3-1.1-0.4-1.8-0.4c-1,0-1.8,0.2-2.4,0.8c-0.6,0.6-0.9,1.4-0.9,2.3c0,0.5,0.1,0.9,0.3,1.4c0.2,0.4,0.5,0.7,0.9,1
	c0.4,0.2,1,0.5,1.9,0.7c1,0.3,1.6,0.6,1.9,0.7c0.3,0.2,0.5,0.4,0.7,0.6c0.1,0.3,0.2,0.6,0.2,0.9c0,0.6-0.2,1-0.6,1.4
	c-0.4,0.4-1,0.5-1.7,0.5c-0.5,0-1-0.1-1.4-0.3c-0.4-0.2-0.7-0.5-0.9-0.8c-0.3-0.4-0.4-0.9-0.5-1.5L184.765,241.515"/>
<polygon fill-rule="evenodd" clip-rule="evenodd" points="196.165,245.215 197.465,245.215 197.465,235.215 200.465,235.215 
	200.465,233.915 193.165,233.915 193.165,235.215 196.165,235.215 "/>
<rect x="201.964" y="233.915" fill-rule="evenodd" clip-rule="evenodd" width="1.2" height="11.3"/>
<polygon fill-rule="evenodd" clip-rule="evenodd" points="205.265,245.215 206.465,245.215 206.465,236.315 211.365,245.215 
	212.665,245.215 212.665,233.915 211.465,233.915 211.465,242.815 206.565,233.915 205.265,233.915 "/>
<path fill-rule="evenodd" clip-rule="evenodd" d="M219.065,240.715h2.8v2.2c-0.3,0.3-0.7,0.6-1.2,0.8c-0.6,0.2-1.1,0.3-1.5,0.3
	c-1.1,0-1.9-0.3-2.5-1.1s-1-1.9-1-3.4c0-1,0.2-1.8,0.5-2.5c0.3-0.7,0.7-1.2,1.2-1.6c0.4-0.3,1-0.5,1.7-0.5c0.5,0,0.9,0.1,1.3,0.3
	c0.3,0.2,0.6,0.4,0.9,0.8c0.2,0.3,0.4,0.8,0.5,1.4l1.1-0.4c-0.1-0.8-0.4-1.4-0.7-1.9s-0.8-0.8-1.3-1.1c-0.5-0.2-1.1-0.3-1.8-0.3
	c-0.9,0-1.7,0.2-2.4,0.6c-0.6,0.4-1.2,1.1-1.6,2c-0.4,1-0.6,2-0.6,3.3c0,1.2,0.2,2.2,0.6,3.1c0.4,0.9,1,1.6,1.7,2
	c0.7,0.5,1.5,0.7,2.4,0.7c0.7,0,1.4-0.2,2-0.5s1.3-0.7,1.9-1.3v-4.2h-4V240.715"/>
<rect x="86.264" y="253.815" width="2.1" height="0.9"/>
<path fill-rule="evenodd" clip-rule="evenodd" d="M122.165,260.815v-9.9h-0.7c-0.1,0.4-0.4,0.9-0.8,1.3c-0.5,0.5-1,0.9-1.5,1.2v1.2
	c0.3-0.2,0.7-0.4,1.1-0.7c0.4-0.3,0.7-0.5,0.9-0.8v7.7H122.165"/>
<rect x="125.364" y="253.715" fill-rule="evenodd" clip-rule="evenodd" width="1.1" height="1.4"/>
<rect x="125.364" y="259.515" fill-rule="evenodd" clip-rule="evenodd" width="1.1" height="1.3"/>
<path fill-rule="evenodd" clip-rule="evenodd" d="M131.665,260.815v-9.9h-0.7c-0.1,0.4-0.4,0.9-0.9,1.3c-0.4,0.5-0.9,0.9-1.4,1.2
	v1.2c0.3-0.2,0.7-0.4,1-0.7c0.4-0.3,0.7-0.5,1-0.8v7.7H131.665"/>
<path fill-rule="evenodd" clip-rule="evenodd" d="M135.264,256.015c0-1.6,0.1-2.7,0.4-3.3c0.3-0.5,0.7-0.8,1.2-0.8
	c0.4,0,0.8,0.3,1.2,0.8c0.3,0.6,0.4,1.6,0.4,3.3c0,1.6-0.1,2.6-0.4,3.2c-0.3,0.5-0.7,0.8-1.2,0.8s-0.9-0.3-1.2-0.8
	C135.365,258.615,135.264,257.615,135.264,256.015 M134.165,256.015c0,1.8,0.3,3.1,0.8,3.9c0.5,0.7,1.1,1.1,1.9,1.1
	c0.9,0,1.5-0.4,2-1.3c0.4-0.8,0.6-2.1,0.6-3.7c0-1.9-0.2-3.2-0.8-4.1c-0.4-0.7-1-1-1.8-1c-0.9,0-1.5,0.4-2,1.3
	C134.465,253.015,134.165,254.315,134.165,256.015"/>
<path fill-rule="evenodd" clip-rule="evenodd" d="M141.565,256.015c0-1.6,0.1-2.7,0.4-3.3c0.3-0.5,0.7-0.8,1.2-0.8s0.9,0.3,1.2,0.8
	c0.3,0.6,0.4,1.6,0.4,3.3c0,1.6-0.1,2.6-0.4,3.2c-0.3,0.5-0.7,0.8-1.2,0.8c-0.4,0-0.8-0.3-1.2-0.8
	C141.665,258.615,141.565,257.615,141.565,256.015 M140.565,256.015c0,1.8,0.2,3.1,0.7,3.9c0.5,0.7,1.1,1.1,1.9,1.1
	c0.9,0,1.5-0.4,2-1.3c0.4-0.8,0.7-2.1,0.7-3.7c0-1.9-0.3-3.2-0.8-4.1c-0.5-0.7-1.1-1-1.9-1c-0.9,0-1.5,0.4-2,1.3
	C140.765,253.015,140.565,254.315,140.565,256.015"/>
<line fill="none" stroke="#000000" stroke-width="0.24" stroke-linejoin="bevel" stroke-miterlimit="1.414" stroke-dasharray="7.92,3,2.04,3" x1="87.265" y1="64.215" x2="87.265" y2="188.515"/>
<line fill="none" stroke="#000000" stroke-width="0.24" stroke-linejoin="bevel" stroke-miterlimit="1.414" stroke-dasharray="7.92,3,2.04,3" x1="128.365" y1="64.215" x2="128.365" y2="188.515"/>
<line fill="none" stroke="#000000" stroke-width="0.24" stroke-linejoin="bevel" stroke-miterlimit="1.414" stroke-dasharray="7.92,3,2.04,3" x1="169.565" y1="64.215" x2="169.565" y2="188.515"/>
<line fill="none" stroke="#000000" stroke-width="0.24" stroke-linejoin="bevel" stroke-miterlimit="1.414" stroke-dasharray="7.92,3,2.04,3" x1="185.965" y1="163.615" x2="69.064" y2="163.615"/>
<line fill="none" stroke="#000000" stroke-width="0.24" stroke-linejoin="bevel" stroke-miterlimit="1.414" stroke-dasharray="7.92,3,2.04,3" x1="185.965" y1="123.115" x2="69.064" y2="123.115"/>
<line fill="none" stroke="#000000" stroke-width="0.24" stroke-linejoin="bevel" stroke-miterlimit="1.414" stroke-dasharray="7.92,3,2.04,3" x1="185.965" y1="82.615" x2="69.064" y2="82.615"/>
<path fill-rule="evenodd" clip-rule="evenodd" d="M85.865,53.515l0.8-2.7c0.2-0.5,0.3-1.1,0.4-1.7c0.1,0.5,0.3,1.1,0.6,1.9l0.7,2.5
	H85.865 M83.665,57.315h1.1l0.8-2.8h3.2l0.8,2.8h1.2l-3.1-9.2h-1.1L83.665,57.315"/>
<path fill-rule="evenodd" clip-rule="evenodd" d="M126.965,56.215v-3.1h1.7c0.5,0,0.9,0,1.2,0.1c0.2,0.2,0.4,0.3,0.5,0.6
	c0.2,0.2,0.3,0.5,0.3,0.8c0,0.4-0.1,0.7-0.3,1c-0.1,0.2-0.3,0.4-0.6,0.5c-0.2,0.1-0.5,0.1-0.9,0.1H126.965 M126.965,52.015v-2.8h1.5
	c0.5,0,0.9,0.1,1.1,0.1c0.2,0.1,0.4,0.3,0.5,0.5c0.2,0.2,0.2,0.5,0.2,0.8c0,0.4,0,0.7-0.2,0.9c-0.1,0.2-0.3,0.3-0.6,0.4
	c-0.2,0.1-0.5,0.1-0.9,0.1H126.965 M125.965,57.315h2.9c0.6,0,1.1-0.1,1.5-0.3s0.7-0.5,0.9-0.9c0.3-0.4,0.4-0.9,0.4-1.4
	c0-0.6-0.2-1.1-0.4-1.5c-0.3-0.3-0.6-0.6-1-0.8c0.3-0.2,0.6-0.4,0.7-0.8c0.2-0.3,0.3-0.7,0.3-1.1c0-0.5-0.1-0.9-0.3-1.3
	c-0.2-0.4-0.5-0.6-0.8-0.8c-0.4-0.2-0.8-0.3-1.4-0.3h-2.8V57.315"/>
<path fill-rule="evenodd" clip-rule="evenodd" d="M172.165,54.115c-0.1,0.8-0.4,1.4-0.8,1.8c-0.4,0.3-0.9,0.5-1.4,0.5
	c-0.7,0-1.3-0.3-1.8-0.9c-0.4-0.6-0.6-1.6-0.6-2.8c0-0.9,0.1-1.6,0.3-2.1c0.2-0.5,0.5-0.9,0.9-1.2c0.3-0.3,0.8-0.4,1.3-0.4
	c1,0,1.7,0.6,2,1.9l1-0.3c-0.2-0.8-0.6-1.5-1.1-2c-0.5-0.4-1.2-0.6-1.9-0.6c-0.7,0-1.3,0.1-1.8,0.5s-1,0.9-1.3,1.6
	c-0.3,0.7-0.5,1.5-0.5,2.6c0,1,0.2,1.9,0.5,2.6c0.3,0.8,0.7,1.3,1.2,1.7c0.5,0.3,1.1,0.5,1.8,0.5c0.8,0,1.5-0.3,2-0.8
	c0.6-0.5,1-1.3,1.2-2.3L172.165,54.115"/>
<path fill-rule="evenodd" clip-rule="evenodd" d="M193.665,163.615c0-1.4,0.2-2.4,0.5-2.9c0.2-0.6,0.6-0.8,1-0.8
	c0.5,0,0.8,0.2,1.1,0.7c0.3,0.5,0.5,1.5,0.5,3s-0.2,2.5-0.5,3c-0.3,0.5-0.6,0.8-1,0.8c-0.5,0-0.8-0.2-1.1-0.8
	C193.865,166.115,193.665,165.115,193.665,163.615 M192.765,163.615c0,1.8,0.2,3,0.7,3.7c0.4,0.7,1,1,1.7,1c0.9,0,1.5-0.4,1.9-1.2
	c0.4-0.8,0.6-1.9,0.6-3.5c0-1.7-0.2-2.9-0.7-3.7c-0.5-0.6-1-0.9-1.7-0.9c-0.9,0-1.5,0.3-1.9,1.1
	C192.965,160.915,192.765,162.115,192.765,163.615"/>
<path fill-rule="evenodd" clip-rule="evenodd" d="M202.065,168.215v-9.2h-0.6c-0.1,0.4-0.4,0.8-0.8,1.2c-0.4,0.4-0.8,0.8-1.4,1.1
	v1.1c0.3-0.2,0.7-0.4,1-0.6c0.4-0.3,0.7-0.6,0.9-0.8v7.2H202.065"/>
<path fill-rule="evenodd" clip-rule="evenodd" d="M192.965,123.115c0-1.4,0.2-2.4,0.5-2.9c0.3-0.6,0.6-0.8,1-0.8
	c0.5,0,0.8,0.2,1.1,0.7c0.3,0.5,0.5,1.5,0.5,3s-0.2,2.5-0.5,3c-0.2,0.5-0.6,0.8-1,0.8c-0.5,0-0.8-0.3-1.1-0.8
	S192.965,124.615,192.965,123.115 M192.065,123.115c0,1.8,0.2,3,0.7,3.7c0.4,0.7,1,1,1.7,1c0.9,0,1.5-0.4,1.9-1.2
	c0.4-0.8,0.6-1.9,0.6-3.5c0-1.7-0.2-2.9-0.7-3.7c-0.5-0.6-1-0.9-1.7-0.9c-0.9,0-1.5,0.3-1.9,1.1
	C192.265,120.415,192.065,121.615,192.065,123.115"/>
<path fill-rule="evenodd" clip-rule="evenodd" d="M202.765,126.615h-3.7c0.1-0.2,0.3-0.4,0.4-0.6c0.2-0.2,0.5-0.6,1.1-1.2
	c0.9-0.9,1.4-1.6,1.7-2.1c0.4-0.6,0.5-1.1,0.5-1.7c0-0.7-0.2-1.3-0.6-1.8c-0.4-0.5-1-0.7-1.7-0.7c-0.7,0-1.3,0.2-1.7,0.6
	c-0.5,0.5-0.7,1.1-0.8,2l1,0.1c0-0.6,0.1-1,0.4-1.3c0.3-0.4,0.6-0.5,1-0.5s0.8,0.1,1.1,0.4c0.2,0.3,0.4,0.7,0.4,1.2
	c0,0.4-0.2,0.8-0.4,1.3c-0.3,0.5-0.9,1.1-1.7,2c-0.8,0.7-1.3,1.4-1.6,1.9c-0.2,0.5-0.4,1-0.4,1.5h5V126.615"/>
<path fill-rule="evenodd" clip-rule="evenodd" d="M192.965,82.615c0-1.4,0.2-2.4,0.4-2.9c0.3-0.6,0.7-0.8,1.1-0.8
	c0.4,0,0.8,0.2,1.1,0.7c0.3,0.5,0.4,1.5,0.4,3s-0.1,2.5-0.4,3c-0.3,0.5-0.6,0.8-1.1,0.8c-0.4,0-0.8-0.3-1.1-0.8
	C193.165,85.115,192.965,84.115,192.965,82.615 M192.065,82.615c0,1.8,0.2,3,0.7,3.7c0.4,0.7,1,1,1.7,1c0.8,0,1.5-0.4,1.9-1.2
	c0.4-0.8,0.6-1.9,0.6-3.5c0-1.7-0.3-2.9-0.8-3.7c-0.4-0.6-0.9-1-1.7-1s-1.4,0.4-1.8,1.2
	C192.265,79.915,192.065,81.115,192.065,82.615"/>
<path fill-rule="evenodd" clip-rule="evenodd" d="M197.865,84.715c0.1,0.8,0.3,1.5,0.8,1.9c0.4,0.5,1,0.7,1.6,0.7
	c0.7,0,1.3-0.2,1.8-0.8c0.5-0.5,0.8-1.2,0.8-2c0-0.4-0.1-0.8-0.2-1.1c-0.1-0.3-0.3-0.6-0.5-0.8s-0.4-0.3-0.7-0.4
	c0.3-0.2,0.5-0.4,0.7-0.8c0.2-0.3,0.3-0.7,0.3-1.1c0-0.7-0.2-1.2-0.7-1.7c-0.4-0.4-0.9-0.7-1.5-0.7c-0.6,0-1.1,0.3-1.5,0.7
	c-0.4,0.4-0.7,0.9-0.8,1.7l0.9,0.2c0.1-0.5,0.3-0.9,0.5-1.2c0.2-0.3,0.5-0.4,0.9-0.4c0.3,0,0.6,0.1,0.9,0.4c0.2,0.2,0.3,0.6,0.3,1
	c0,0.5-0.1,0.8-0.4,1.1c-0.3,0.3-0.6,0.4-1.1,0.4h-0.1l-0.2,1c0.3-0.1,0.5-0.1,0.7-0.1c0.4,0,0.8,0.2,1,0.5c0.3,0.3,0.5,0.7,0.5,1.3
	c0,0.5-0.2,1-0.5,1.4c-0.3,0.3-0.7,0.5-1.1,0.5c-0.8,0-1.3-0.6-1.5-1.8L197.865,84.715"/>
<text transform="matrix(1 0 0 1 4.9443 28.0234)" fill="#1d1d1b" font-family="'Helvetica'" font-size="8">GRID LINES</text>
<text transform="matrix(1 0 0 1 84.0254 7.7129)" fill="#cd1719" font-family="'Helvetica'" font-size="9">D</text>
<text transform="matrix(1 0 0 1 90.1904 7.7129)"><tspan x="0" y="0" fill="#cd1719" font-family="'Helvetica'" font-size="9">i</tspan><tspan x="1.665" y="0" fill="#cd1719" font-family="'Helvetica'" font-size="9">r</tspan><tspan x="4.347" y="0" fill="#cd1719" font-family="'Helvetica'" font-size="9">ection</tspan></text>
<text transform="matrix(0 -1 1 0 231.5162 174.9095)" fill="#cd1719" font-family="'Helvetica'" font-size="9">D</text>
<text transform="matrix(0 -1 1 0 231.5161 168.7435)"><tspan x="0" y="0" fill="#cd1719" font-family="'Helvetica'" font-size="9">i</tspan><tspan x="1.665" y="0" fill="#cd1719" font-family="'Helvetica'" font-size="9">r</tspan><tspan x="4.347" y="0" fill="#cd1719" font-family="'Helvetica'" font-size="9">ection</tspan></text>
<text transform="matrix(1 0 0 1 0 221.667)"><tspan x="0" y="0" fill="#1d1d1b" font-family="'Helvetica'" font-size="8">DE</tspan><tspan x="10.224" y="0" fill="#1d1d1b" font-family="'Helvetica'" font-size="8">T</tspan><tspan x="14.128" y="0" fill="#1d1d1b" font-family="'Helvetica'" font-size="8">AIL TITLE</tspan></text>
<line fill="none" stroke="#cd1719" stroke-width="0.75" stroke-linecap="round" stroke-linejoin="round" stroke-dasharray="0,2.245" x1="233.708" y1="171.955" x2="233.708" y2="65.322"/>
<path fill="none" stroke="#cd1719" stroke-width="0.75" stroke-linecap="round" stroke-linejoin="round" d="M233.708,64.2
	L233.708,64.2 M233.708,174.2L233.708,174.2"/>
<polyline fill="none" stroke="#cd1719" stroke-width="0.75" points="230.234,67.936 233.708,64.201 237.181,67.936 "/>
<line fill="none" stroke="#cd1719" stroke-width="0.75" stroke-linecap="round" stroke-linejoin="round" stroke-dasharray="0,2.245" x1="86.647" y1="9.996" x2="193.279" y2="9.996"/>
<path fill="none" stroke="#cd1719" stroke-width="0.75" stroke-linecap="round" stroke-linejoin="round" d="M194.401,9.996
	L194.401,9.996 M84.401,9.996L84.401,9.996"/>
<polyline fill="none" stroke="#cd1719" stroke-width="0.75" points="190.666,6.522 194.401,9.996 190.666,13.469 "/>
</svg>
