<?xml version="1.0" encoding="utf-8"?>
<svg version="1.1" width="100%" xmlns="http://www.w3.org/2000/svg" xmlns:xlink="http://www.w3.org/1999/xlink" x="0px" y="0px"
	 viewBox="0 0 479 446.5" enable-background="new 0 0 479 446.5" xml:space="preserve">
<polyline fill="none" stroke="#999999" stroke-width="0.48" stroke-linejoin="round" stroke-miterlimit="1.414" points="468,13.1 
	440.1,13.1 454,2.9 468,13.1 "/>
<polyline fill="none" stroke="#999999" stroke-width="0.48" stroke-linejoin="round" stroke-miterlimit="1.414" points="468,41 
	468,13.1 478.2,27 468,41 "/>
<polyline fill="none" stroke="#999999" stroke-width="0.48" stroke-linejoin="round" stroke-miterlimit="1.414" points="440.1,41 
	468,41 454,51.2 440.1,41 "/>
<polyline fill="none" stroke="#999999" stroke-width="0.48" stroke-linejoin="round" stroke-miterlimit="1.414" points="440.1,13.1 
	440.1,41 429.9,27 440.1,13.1 "/>
<polyline fill="none" stroke="#999999" stroke-width="0.48" stroke-linejoin="round" stroke-miterlimit="1.414" points="402.4,13.1 
	374.6,13.1 388.5,2.9 402.4,13.1 "/>
<polyline fill="none" stroke="#999999" stroke-width="0.48" stroke-linejoin="round" stroke-miterlimit="1.414" points="402.4,41 
	402.4,13.1 412.7,27 402.4,41 "/>
<polyline fill="none" stroke="#999999" stroke-width="0.48" stroke-linejoin="round" stroke-miterlimit="1.414" points="374.6,41 
	402.4,41 388.5,51.2 374.6,41 "/>
<polyline fill="none" stroke="#999999" stroke-width="0.48" stroke-linejoin="round" stroke-miterlimit="1.414" points="374.6,13.1 
	374.6,41 364.4,27 374.6,13.1 "/>
<line fill="none" stroke="#999999" stroke-width="0.72" stroke-linejoin="round" stroke-miterlimit="1.414" x1="368.8" y1="195.6" x2="370.3" y2="198.4"/>
<line fill="none" stroke="#999999" stroke-width="0.72" stroke-linejoin="round" stroke-miterlimit="1.414" x1="368.8" y1="195.6" x2="370.3" y2="192.9"/>
<line fill="none" stroke="#999999" stroke-width="0.24" stroke-linejoin="bevel" stroke-miterlimit="1.414" x1="368.8" y1="195.6" x2="381.1" y2="195.6"/>
<line fill="none" stroke="#999999" stroke-width="0.72" stroke-linejoin="round" stroke-miterlimit="1.414" x1="409.5" y1="177.8" x2="406.8" y2="179.4"/>
<line fill="none" stroke="#999999" stroke-width="0.72" stroke-linejoin="round" stroke-miterlimit="1.414" x1="409.5" y1="177.8" x2="412.3" y2="179.4"/>
<line fill="none" stroke="#999999" stroke-width="0.24" stroke-linejoin="bevel" stroke-miterlimit="1.414" x1="409.5" y1="177.8" x2="409.5" y2="190.1"/>
<line fill="none" stroke="#999999" stroke-width="0.72" stroke-linejoin="round" stroke-miterlimit="1.414" x1="427.3" y1="218.6" x2="425.8" y2="215.8"/>
<line fill="none" stroke="#999999" stroke-width="0.72" stroke-linejoin="round" stroke-miterlimit="1.414" x1="427.3" y1="218.6" x2="425.8" y2="221.3"/>
<line fill="none" stroke="#999999" stroke-width="0.24" stroke-linejoin="bevel" stroke-miterlimit="1.414" x1="427.3" y1="218.6" x2="415" y2="218.6"/>
<line fill="none" stroke="#999999" stroke-width="0.72" stroke-linejoin="round" stroke-miterlimit="1.414" x1="386.6" y1="236.4" x2="389.3" y2="234.8"/>
<line fill="none" stroke="#999999" stroke-width="0.72" stroke-linejoin="round" stroke-miterlimit="1.414" x1="386.6" y1="236.4" x2="383.8" y2="234.8"/>
<line fill="none" stroke="#999999" stroke-width="0.24" stroke-linejoin="bevel" stroke-miterlimit="1.414" x1="386.6" y1="236.4" x2="386.6" y2="224.1"/>
<path fill-rule="evenodd" clip-rule="evenodd" fill="#ffffff" d="M180.3,19.7c0-3.7-1.4-7.2-4-9.7c-2.6-2.6-6-4-9.7-4
	c-3.6,0-7.1,1.4-9.7,4c-2.6,2.5-4,6-4,9.7c0,3.6,1.4,7.1,4,9.7c2.6,2.6,6.1,4,9.7,4c3.7,0,7.1-1.4,9.7-4
	C178.9,26.8,180.3,23.3,180.3,19.7"/>
<path fill="none" stroke="#999999" stroke-width="0.48" stroke-linejoin="round" stroke-miterlimit="1.414" d="M180.3,19.7
	c0-3.7-1.4-7.2-4-9.7c-2.6-2.6-6-4-9.7-4c-3.6,0-7.1,1.4-9.7,4c-2.6,2.5-4,6-4,9.7c0,3.6,1.4,7.1,4,9.7c2.6,2.6,6.1,4,9.7,4
	c3.7,0,7.1-1.4,9.7-4C178.9,26.8,180.3,23.3,180.3,19.7"/>
<path fill-rule="evenodd" clip-rule="evenodd" fill="#ffffff" d="M135.5,19.7c0-3.7-1.4-7.2-4-9.7c-2.6-2.6-6.1-4-9.7-4
	c-3.6,0-7.1,1.4-9.7,4c-2.6,2.5-4,6-4,9.7c0,3.6,1.4,7.1,4,9.7c2.6,2.6,6.1,4,9.7,4c3.7,0,7.1-1.4,9.7-4
	C134.1,26.8,135.5,23.3,135.5,19.7"/>
<path fill="none" stroke="#999999" stroke-width="0.48" stroke-linejoin="round" stroke-miterlimit="1.414" d="M135.5,19.7
	c0-3.7-1.4-7.2-4-9.7c-2.6-2.6-6.1-4-9.7-4c-3.6,0-7.1,1.4-9.7,4c-2.6,2.5-4,6-4,9.7c0,3.6,1.4,7.1,4,9.7c2.6,2.6,6.1,4,9.7,4
	c3.7,0,7.1-1.4,9.7-4C134.1,26.8,135.5,23.3,135.5,19.7"/>
<path fill-rule="evenodd" clip-rule="evenodd" fill="#ffffff" d="M33.4,82.5c0-3.6-1.5-7.1-4.1-9.7c-2.5-2.6-6-4-9.7-4
	c-3.6,0-7.1,1.4-9.7,4c-2.5,2.6-4,6.1-4,9.7c0,3.7,1.5,7.1,4,9.7c2.6,2.6,6.1,4,9.7,4c3.7,0,7.2-1.4,9.7-4
	C31.9,89.6,33.4,86.2,33.4,82.5"/>
<path fill="none" stroke="#999999" stroke-width="0.48" stroke-linejoin="round" stroke-miterlimit="1.414" d="M33.4,82.5
	c0-3.6-1.5-7.1-4.1-9.7c-2.5-2.6-6-4-9.7-4c-3.6,0-7.1,1.4-9.7,4c-2.5,2.6-4,6.1-4,9.7c0,3.7,1.5,7.1,4,9.7c2.6,2.6,6.1,4,9.7,4
	c3.7,0,7.2-1.4,9.7-4C31.9,89.6,33.4,86.2,33.4,82.5"/>
<path fill-rule="evenodd" clip-rule="evenodd" fill="#ffffff" d="M163.2,146.7c0-3.6-1.5-7.1-4.1-9.7c-2.5-2.6-6-4-9.7-4
	c-3.6,0-7.1,1.4-9.7,4c-2.5,2.6-4,6.1-4,9.7c0,3.7,1.5,7.2,4,9.7c2.6,2.6,6.1,4.1,9.7,4.1c3.7,0,7.2-1.5,9.7-4.1
	C161.7,153.9,163.2,150.4,163.2,146.7"/>
<path fill="none" stroke="#999999" stroke-width="0.48" stroke-linejoin="round" stroke-miterlimit="1.414" d="M163.2,146.7
	c0-3.6-1.5-7.1-4.1-9.7c-2.5-2.6-6-4-9.7-4c-3.6,0-7.1,1.4-9.7,4c-2.5,2.6-4,6.1-4,9.7c0,3.7,1.5,7.2,4,9.7c2.6,2.6,6.1,4.1,9.7,4.1
	c3.7,0,7.2-1.5,9.7-4.1C161.7,153.9,163.2,150.4,163.2,146.7"/>
<path fill-rule="evenodd" clip-rule="evenodd" fill="#ffffff" d="M225,146.7c0-3.6-1.5-7.1-4.1-9.7c-2.5-2.5-6-4-9.7-4
	c-3.6,0-7.1,1.5-9.7,4c-2.5,2.6-4,6.1-4,9.7c0,3.7,1.5,7.2,4,9.7c2.6,2.6,6.1,4.1,9.7,4.1c3.7,0,7.2-1.5,9.7-4.1
	C223.5,153.9,225,150.4,225,146.7"/>
<path fill="none" stroke="#999999" stroke-width="0.48" stroke-linejoin="round" stroke-miterlimit="1.414" d="M225,146.7
	c0-3.6-1.5-7.1-4.1-9.7c-2.5-2.5-6-4-9.7-4c-3.6,0-7.1,1.5-9.7,4c-2.5,2.6-4,6.1-4,9.7c0,3.7,1.5,7.2,4,9.7c2.6,2.6,6.1,4.1,9.7,4.1
	c3.7,0,7.2-1.5,9.7-4.1C223.5,153.9,225,150.4,225,146.7"/>
<path fill-rule="evenodd" clip-rule="evenodd" fill="#ffffff" d="M33.4,41.3c0-3.6-1.5-7.1-4.1-9.7c-2.5-2.6-6-4-9.7-4
	c-3.6,0-7.1,1.4-9.7,4c-2.5,2.6-4,6.1-4,9.7c0,3.6,1.5,7.1,4,9.7c2.6,2.6,6.1,4,9.7,4c3.7,0,7.2-1.4,9.7-4
	C31.9,48.4,33.4,44.9,33.4,41.3"/>
<path fill="none" stroke="#999999" stroke-width="0.48" stroke-linejoin="round" stroke-miterlimit="1.414" d="M33.4,41.3
	c0-3.6-1.5-7.1-4.1-9.7c-2.5-2.6-6-4-9.7-4c-3.6,0-7.1,1.4-9.7,4c-2.5,2.6-4,6.1-4,9.7c0,3.6,1.5,7.1,4,9.7c2.6,2.6,6.1,4,9.7,4
	c3.7,0,7.2-1.4,9.7-4C31.9,48.4,33.4,44.9,33.4,41.3"/>
<path fill-rule="evenodd" clip-rule="evenodd" fill="#ffffff" d="M96.3,237.1c0-3.7-1.4-7.1-4-9.7c-2.5-2.6-6-4-9.7-4
	c-3.6,0-7.1,1.4-9.7,4c-2.6,2.6-4,6-4,9.7c0,3.6,1.4,7.1,4,9.7c2.6,2.6,6.1,4,9.7,4c3.7,0,7.2-1.4,9.7-4
	C94.9,244.2,96.3,240.7,96.3,237.1"/>
<path fill="none" stroke="#999999" stroke-width="0.48" stroke-linejoin="round" stroke-miterlimit="1.414" d="M96.3,237.1
	c0-3.7-1.4-7.1-4-9.7c-2.5-2.6-6-4-9.7-4c-3.6,0-7.1,1.4-9.7,4c-2.6,2.6-4,6-4,9.7c0,3.6,1.4,7.1,4,9.7c2.6,2.6,6.1,4,9.7,4
	c3.7,0,7.2-1.4,9.7-4C94.9,244.2,96.3,240.7,96.3,237.1"/>
<path fill-rule="evenodd" clip-rule="evenodd" fill="#ffffff" d="M197,237.1c0-3.7-1.4-7.1-4-9.7c-2.6-2.6-6.1-4-9.7-4
	c-3.6,0-7.1,1.4-9.7,4c-2.6,2.6-4,6-4,9.7c0,3.6,1.4,7.1,4,9.7c2.6,2.6,6.1,4,9.7,4c3.6,0,7.1-1.4,9.7-4
	C195.6,244.2,197,240.7,197,237.1"/>
<path fill="none" stroke="#999999" stroke-width="0.48" stroke-linejoin="round" stroke-miterlimit="1.414" d="M197,237.1
	c0-3.7-1.4-7.1-4-9.7c-2.6-2.6-6.1-4-9.7-4c-3.6,0-7.1,1.4-9.7,4c-2.6,2.6-4,6-4,9.7c0,3.6,1.4,7.1,4,9.7c2.6,2.6,6.1,4,9.7,4
	c3.6,0,7.1-1.4,9.7-4C195.6,244.2,197,240.7,197,237.1"/>
<path fill-rule="evenodd" clip-rule="evenodd" fill="#ffffff" d="M151.8,237.1c0-3.7-1.4-7.1-4-9.7c-2.6-2.6-6.1-4-9.7-4
	c-3.6,0-7.1,1.4-9.7,4c-2.6,2.6-4,6-4,9.7c0,3.6,1.4,7.1,4,9.7c2.6,2.6,6.1,4,9.7,4c3.6,0,7.1-1.4,9.7-4
	C150.4,244.2,151.8,240.7,151.8,237.1"/>
<path fill="none" stroke="#999999" stroke-width="0.48" stroke-linejoin="round" stroke-miterlimit="1.414" d="M151.8,237.1
	c0-3.7-1.4-7.1-4-9.7c-2.6-2.6-6.1-4-9.7-4c-3.6,0-7.1,1.4-9.7,4c-2.6,2.6-4,6-4,9.7c0,3.6,1.4,7.1,4,9.7c2.6,2.6,6.1,4,9.7,4
	c3.6,0,7.1-1.4,9.7-4C150.4,244.2,151.8,240.7,151.8,237.1"/>
<path fill-rule="evenodd" clip-rule="evenodd" fill="#ffffff" d="M51.1,236.6c0-3.6-1.4-7.1-4-9.7c-2.5-2.6-6-4-9.7-4
	c-3.6,0-7.1,1.4-9.7,4s-4,6.1-4,9.7c0,3.7,1.4,7.2,4,9.7c2.6,2.6,6.1,4,9.7,4c3.7,0,7.2-1.4,9.7-4C49.7,243.8,51.1,240.3,51.1,236.6
	"/>
<path fill="none" stroke="#999999" stroke-width="0.48" stroke-linejoin="round" stroke-miterlimit="1.414" d="M51.1,236.6
	c0-3.6-1.4-7.1-4-9.7c-2.5-2.6-6-4-9.7-4c-3.6,0-7.1,1.4-9.7,4s-4,6.1-4,9.7c0,3.7,1.4,7.2,4,9.7c2.6,2.6,6.1,4,9.7,4
	c3.7,0,7.2-1.4,9.7-4C49.7,243.8,51.1,240.3,51.1,236.6"/>
<path fill="none" stroke="#999999" stroke-width="0.72" stroke-linejoin="round" stroke-miterlimit="1.414" stroke-dasharray="4.92,3" d="
	M47.6,359.7v53.9c0,2.7,1.1,5.2,3,7.1c1.9,1.9,4.5,3,7.1,3h26.6c2.7,0,5.3-1.1,7.2-3c1.9-1.9,2.9-4.4,2.9-7.1v-53.9
	c0-2.7-1-5.2-2.9-7.1c-1.9-1.9-4.5-3-7.2-3H57.7c-2.6,0-5.2,1.1-7.1,3C48.7,354.5,47.6,357,47.6,359.7"/>
<polyline fill="none" stroke="#999999" stroke-width="0.48" stroke-linejoin="round" stroke-miterlimit="1.414" points="50.6,352.6 
	41.3,340.6 34.8,340.6 "/>
<path fill-rule="evenodd" clip-rule="evenodd" fill="#ffffff" d="M7.3,340.6c0,3.6,1.5,7.1,4,9.7c2.6,2.5,6.1,4,9.8,4
	c3.6,0,7.1-1.5,9.7-4c2.6-2.6,4-6.1,4-9.7c0-3.7-1.4-7.2-4-9.8c-2.6-2.5-6.1-4-9.7-4c-3.7,0-7.2,1.5-9.8,4
	C8.8,333.4,7.3,336.9,7.3,340.6"/>
<path fill="none" stroke="#999999" stroke-width="0.48" stroke-linejoin="round" stroke-miterlimit="1.414" d="M7.3,340.6
	c0,3.6,1.5,7.1,4,9.7c2.6,2.5,6.1,4,9.8,4c3.6,0,7.1-1.5,9.7-4c2.6-2.6,4-6.1,4-9.7c0-3.7-1.4-7.2-4-9.8c-2.6-2.5-6.1-4-9.7-4
	c-3.7,0-7.2,1.5-9.8,4C8.8,333.4,7.3,336.9,7.3,340.6"/>
<path fill="none" stroke="#999999" stroke-width="0.72" stroke-linejoin="round" stroke-miterlimit="1.414" stroke-dasharray="4.92,3" d="
	M106.1,360.7v53.9c0,2.6,1,5.2,2.9,7.1c1.9,1.9,4.5,3,7.2,3h26.6c2.6,0,5.2-1.1,7.1-3c1.9-1.9,3-4.5,3-7.1v-53.9
	c0-2.7-1.1-5.2-3-7.1c-1.9-1.9-4.5-3-7.1-3h-26.6c-2.7,0-5.3,1.1-7.2,3S106.1,358,106.1,360.7"/>
<polyline fill="none" stroke="#999999" stroke-width="0.48" stroke-linejoin="round" stroke-miterlimit="1.414" points="
	149.9,353.6 159.2,341.5 165.7,341.5 "/>
<path fill-rule="evenodd" clip-rule="evenodd" fill="#ffffff" d="M193.2,341.5c0-3.6-1.5-7.1-4-9.7c-2.6-2.6-6.1-4-9.8-4
	c-3.6,0-7.1,1.4-9.7,4c-2.6,2.6-4,6.1-4,9.7c0,3.7,1.4,7.2,4,9.8c2.6,2.5,6.1,4,9.7,4c3.7,0,7.2-1.5,9.8-4
	C191.7,348.7,193.2,345.2,193.2,341.5"/>
<path fill="none" stroke="#999999" stroke-width="0.48" stroke-linejoin="round" stroke-miterlimit="1.414" d="M193.2,341.5
	c0-3.6-1.5-7.1-4-9.7c-2.6-2.6-6.1-4-9.8-4c-3.6,0-7.1,1.4-9.7,4c-2.6,2.6-4,6.1-4,9.7c0,3.7,1.4,7.2,4,9.8c2.6,2.5,6.1,4,9.7,4
	c3.7,0,7.2-1.5,9.8-4C191.7,348.7,193.2,345.2,193.2,341.5"/>
<path fill="none" stroke="#999999" stroke-width="0.72" stroke-linejoin="round" stroke-miterlimit="1.414" stroke-dasharray="4.92,3" d="
	M223.2,359.7v53.9c0,2.7,1.1,5.2,3,7.1c1.9,1.9,4.4,3,7.1,3h26.6c2.7,0,5.3-1.1,7.2-3c1.8-1.9,2.9-4.4,2.9-7.1v-53.9
	c0-2.7-1.1-5.2-2.9-7.1c-1.9-1.9-4.5-3-7.2-3h-26.6c-2.7,0-5.2,1.1-7.1,3C224.3,354.5,223.2,357,223.2,359.7"/>
<polyline fill="none" stroke="#999999" stroke-width="0.48" stroke-linejoin="round" stroke-miterlimit="1.414" points="
	226.2,420.7 216.9,432.8 210.4,432.8 "/>
<path fill-rule="evenodd" clip-rule="evenodd" fill="#ffffff" d="M182.9,432.8c0,3.6,1.5,7.1,4,9.7c2.6,2.5,6.1,4,9.8,4
	c3.6,0,7.1-1.5,9.7-4c2.5-2.6,4-6.1,4-9.7c0-3.7-1.5-7.2-4-9.8c-2.6-2.5-6.1-4-9.7-4c-3.7,0-7.2,1.5-9.8,4
	C184.4,425.6,182.9,429.1,182.9,432.8"/>
<path fill="none" stroke="#999999" stroke-width="0.48" stroke-linejoin="round" stroke-miterlimit="1.414" d="M182.9,432.8
	c0,3.6,1.5,7.1,4,9.7c2.6,2.5,6.1,4,9.8,4c3.6,0,7.1-1.5,9.7-4c2.5-2.6,4-6.1,4-9.7c0-3.7-1.5-7.2-4-9.8c-2.6-2.5-6.1-4-9.7-4
	c-3.7,0-7.2,1.5-9.8,4C184.4,425.6,182.9,429.1,182.9,432.8"/>
<path fill="none" stroke="#999999" stroke-width="0.72" stroke-linejoin="round" stroke-miterlimit="1.414" stroke-dasharray="4.92,3" d="
	M280.1,359.7v53.9c0,2.7,1.1,5.2,3,7.1c1.9,1.9,4.5,3,7.1,3h26.6c2.7,0,5.3-1.1,7.2-3c1.9-1.9,2.9-4.4,2.9-7.1v-53.9
	c0-2.7-1-5.2-2.9-7.1s-4.5-3-7.2-3h-26.6c-2.6,0-5.2,1.1-7.1,3C281.2,354.5,280.1,357,280.1,359.7"/>
<polyline fill="none" stroke="#999999" stroke-width="0.48" stroke-linejoin="round" stroke-miterlimit="1.414" points="324,420.7 
	333.2,432.8 339.8,432.8 "/>
<path fill-rule="evenodd" clip-rule="evenodd" fill="#ffffff" d="M367.2,432.8c0-3.7-1.4-7.2-4-9.8c-2.6-2.5-6.1-4-9.7-4
	s-7.1,1.5-9.7,4c-2.6,2.6-4,6.1-4,9.8c0,3.6,1.4,7.1,4,9.7c2.6,2.5,6.1,4,9.7,4s7.1-1.5,9.7-4C365.8,439.9,367.2,436.4,367.2,432.8"
	/>
<path fill="none" stroke="#999999" stroke-width="0.48" stroke-linejoin="round" stroke-miterlimit="1.414" d="M367.2,432.8
	c0-3.7-1.4-7.2-4-9.8c-2.6-2.5-6.1-4-9.7-4s-7.1,1.5-9.7,4c-2.6,2.6-4,6.1-4,9.8c0,3.6,1.4,7.1,4,9.7c2.6,2.5,6.1,4,9.7,4
	s7.1-1.5,9.7-4C365.8,439.9,367.2,436.4,367.2,432.8"/>
<line fill="none" stroke="#999999" stroke-width="0.48" stroke-linejoin="round" stroke-miterlimit="1.414" x1="166.7" y1="74.5" x2="166.7" y2="94.8"/>
<polyline fill-rule="evenodd" clip-rule="evenodd" fill="#999999" points="166.7,94.8 166.7,92.5 182.2,92.5 182.2,94.8 "/>
<line fill="none" stroke="#999999" stroke-width="0.48" stroke-linejoin="round" stroke-miterlimit="1.414" x1="166.6" y1="33.4" x2="166.6" y2="53.6"/>
<path fill-rule="evenodd" clip-rule="evenodd" fill="#999999" d="M166.6,6V0L186,19.7l-19.4,19.7v-6c1.6,0,3.4-0.3,5.1-1
	c1.7-0.6,3.3-1.7,4.6-3c1.4-1.4,2.4-3,3.1-4.7c0.6-1.7,0.9-3.4,0.9-5c0-1.6-0.3-3.4-0.9-5.1c-0.7-1.7-1.7-3.3-3.1-4.6
	c-1.3-1.4-2.9-2.4-4.6-3.1S168.2,6,166.6,6"/>
<line fill="none" stroke="#999999" stroke-width="0.48" stroke-linejoin="round" stroke-miterlimit="1.414" x1="121.7" y1="74.5" x2="121.7" y2="94.8"/>
<line fill="none" stroke="#999999" stroke-width="0.48" stroke-linejoin="round" stroke-miterlimit="1.414" x1="180.3" y1="19.7" x2="152.9" y2="19.7"/>
<polyline fill-rule="evenodd" clip-rule="evenodd" fill="#999999" points="121.7,94.8 121.7,92.5 106.2,92.5 106.2,94.8 "/>
<line fill="none" stroke="#999999" stroke-width="0.48" stroke-linejoin="round" stroke-miterlimit="1.414" x1="121.8" y1="33.4" x2="121.8" y2="53.6"/>
<path fill-rule="evenodd" clip-rule="evenodd" fill="#999999" d="M121.8,6V0l-19.4,19.7l19.4,19.7v-6c-1.6,0-3.3-0.3-5-1
	c-1.7-0.6-3.3-1.7-4.7-3c-1.4-1.4-2.4-3-3.1-4.7c-0.6-1.7-0.9-3.4-0.9-5c0-1.6,0.3-3.4,0.9-5.1c0.7-1.7,1.7-3.3,3.1-4.6
	c1.4-1.4,3-2.4,4.7-3.1C118.5,6.2,120.2,6,121.8,6"/>
<line fill="none" stroke="#999999" stroke-width="0.48" stroke-linejoin="round" stroke-miterlimit="1.414" x1="135.5" y1="19.7" x2="108.1" y2="19.7"/>
<line fill="none" stroke="#999999" stroke-width="0.48" stroke-linejoin="round" stroke-miterlimit="1.414" x1="74.5" y1="82.6" x2="94.8" y2="82.6"/>
<line fill="none" stroke="#999999" stroke-width="0.48" stroke-linejoin="round" stroke-miterlimit="1.414" x1="33.4" y1="82.5" x2="5.9" y2="82.5"/>
<polyline fill-rule="evenodd" clip-rule="evenodd" fill="#999999" points="94.8,82.6 92.5,82.6 92.5,98.1 94.8,98.1 "/>
<line fill="none" stroke="#999999" stroke-width="0.48" stroke-linejoin="round" stroke-miterlimit="1.414" x1="33.4" y1="82.5" x2="53.6" y2="82.5"/>
<path fill-rule="evenodd" clip-rule="evenodd" fill="#999999" d="M5.9,82.5H0l19.6,19.4l19.7-19.4h-5.9c0,1.6-0.3,3.4-1,5.1
	c-0.7,1.7-1.7,3.3-3.1,4.6c-1.3,1.4-2.9,2.4-4.6,3.1c-1.7,0.6-3.4,0.9-5.1,0.9c-1.6,0-3.3-0.3-5-0.9c-1.7-0.7-3.3-1.7-4.7-3.1
	c-1.3-1.3-2.3-2.9-3-4.6C6.2,85.9,5.9,84.1,5.9,82.5"/>
<line fill="none" stroke="#999999" stroke-width="0.48" stroke-linejoin="round" stroke-miterlimit="1.414" x1="149.3" y1="91.9" x2="149.3" y2="71.6"/>
<line fill="none" stroke="#999999" stroke-width="0.48" stroke-linejoin="round" stroke-miterlimit="1.414" x1="163.2" y1="146.7" x2="135.7" y2="146.7"/>
<polyline fill-rule="evenodd" clip-rule="evenodd" fill="#999999" points="149.3,71.6 149.3,73.9 133.8,73.9 133.8,71.6 "/>
<line fill="none" stroke="#999999" stroke-width="0.48" stroke-linejoin="round" stroke-miterlimit="1.414" x1="149.4" y1="133" x2="149.4" y2="112.8"/>
<path fill-rule="evenodd" clip-rule="evenodd" fill="#999999" d="M149.4,160.5v5.9L130,146.7l19.4-19.6v5.9c-1.6,0-3.3,0.3-5,1
	c-1.7,0.7-3.3,1.7-4.7,3c-1.3,1.4-2.4,3-3,4.7c-0.7,1.7-1,3.4-1,5c0,1.7,0.3,3.4,1,5.1c0.6,1.7,1.7,3.3,3,4.6c1.4,1.4,3,2.4,4.7,3.1
	C146.1,160.2,147.8,160.5,149.4,160.5"/>
<line fill="none" stroke="#999999" stroke-width="0.48" stroke-linejoin="round" stroke-miterlimit="1.414" x1="211.4" y1="91.9" x2="211.4" y2="71.6"/>
<polyline fill-rule="evenodd" clip-rule="evenodd" fill="#999999" points="211.4,71.6 211.4,73.9 226.8,73.9 226.8,71.6 "/>
<line fill="none" stroke="#999999" stroke-width="0.48" stroke-linejoin="round" stroke-miterlimit="1.414" x1="211.2" y1="133" x2="211.2" y2="112.8"/>
<path fill-rule="evenodd" clip-rule="evenodd" fill="#999999" d="M211.2,160.5v5.9l19.4-19.7l-19.4-19.6v5.9c1.7,0,3.4,0.3,5.1,1
	c1.7,0.7,3.3,1.7,4.6,3c1.4,1.4,2.4,3,3.1,4.7s1,3.4,1,5c0,1.7-0.3,3.4-1,5.1c-0.7,1.7-1.7,3.3-3.1,4.6c-1.3,1.4-2.9,2.4-4.6,3.1
	C214.6,160.2,212.9,160.5,211.2,160.5"/>
<line fill="none" stroke="#999999" stroke-width="0.48" stroke-linejoin="round" stroke-miterlimit="1.414" x1="225" y1="146.7" x2="197.5" y2="146.7"/>
<line fill="none" stroke="#999999" stroke-width="0.48" stroke-linejoin="round" stroke-miterlimit="1.414" x1="74.5" y1="41.2" x2="94.8" y2="41.2"/>
<line fill="none" stroke="#999999" stroke-width="0.48" stroke-linejoin="round" stroke-miterlimit="1.414" x1="33.4" y1="41.3" x2="5.9" y2="41.3"/>
<polyline fill-rule="evenodd" clip-rule="evenodd" fill="#999999" points="94.8,41.2 92.5,41.2 92.5,25.7 94.8,25.7 "/>
<line fill="none" stroke="#999999" stroke-width="0.48" stroke-linejoin="round" stroke-miterlimit="1.414" x1="33.4" y1="41.3" x2="53.6" y2="41.3"/>
<path fill-rule="evenodd" clip-rule="evenodd" fill="#999999" d="M5.9,41.3H0l19.6-19.4l19.7,19.4h-5.9c0-1.6-0.3-3.3-1-5.1
	c-0.7-1.7-1.7-3.3-3.1-4.6c-1.3-1.4-2.9-2.4-4.6-3.1c-1.7-0.6-3.4-0.9-5.1-0.9c-1.6,0-3.3,0.3-5,0.9c-1.7,0.7-3.3,1.7-4.7,3.1
	c-1.3,1.3-2.3,2.9-3,4.6C6.2,38,5.9,39.7,5.9,41.3"/>
<line fill="none" stroke="#999999" stroke-width="0.48" stroke-linejoin="round" stroke-miterlimit="1.414" x1="96.3" y1="237.1" x2="68.9" y2="237.1"/>
<path fill-rule="evenodd" clip-rule="evenodd" fill="#999999" d="M82.6,250.8v6l19.4-19.7l-19.4-19.7v6c1.6,0,3.4,0.3,5.1,0.9
	c1.7,0.7,3.3,1.7,4.6,3.1c1.4,1.3,2.4,2.9,3.1,4.6c0.7,1.7,0.9,3.5,0.9,5.1s-0.2,3.3-0.9,5c-0.7,1.7-1.7,3.3-3.1,4.7
	c-1.3,1.4-2.9,2.4-4.6,3.1C86,250.5,84.2,250.8,82.6,250.8"/>
<line fill="none" stroke="#999999" stroke-width="0.48" stroke-linejoin="round" stroke-miterlimit="1.414" x1="197" y1="237.1" x2="169.6" y2="237.1"/>
<path fill-rule="evenodd" clip-rule="evenodd" fill="#999999" d="M183.3,250.8v6l-19.4-19.7l19.4-19.7v6c-1.6,0-3.3,0.3-5,0.9
	c-1.8,0.7-3.3,1.7-4.7,3.1c-1.4,1.3-2.4,2.9-3.1,4.6c-0.6,1.7-0.9,3.5-0.9,5.1s0.3,3.3,0.9,5c0.7,1.7,1.7,3.3,3.1,4.7
	c1.4,1.4,2.9,2.4,4.7,3.1C180,250.5,181.7,250.8,183.3,250.8"/>
<line fill="none" stroke="#999999" stroke-width="0.48" stroke-linejoin="round" stroke-miterlimit="1.414" x1="151.8" y1="237.1" x2="124.4" y2="237.1"/>
<path fill-rule="evenodd" clip-rule="evenodd" fill="#999999" d="M124.4,237.1h-6l19.7-19.4l19.7,19.4h-6c0-1.6-0.3-3.4-0.9-5.1
	c-0.7-1.7-1.7-3.3-3.1-4.6c-1.3-1.4-2.9-2.4-4.6-3.1c-1.7-0.6-3.5-0.9-5.1-0.9c-1.6,0-3.3,0.3-5,0.9c-1.8,0.7-3.3,1.7-4.7,3.1
	c-1.4,1.3-2.4,2.9-3.1,4.6C124.7,233.7,124.4,235.5,124.4,237.1"/>
<line fill="none" stroke="#999999" stroke-width="0.48" stroke-linejoin="round" stroke-miterlimit="1.414" x1="51.1" y1="236.6" x2="23.7" y2="236.6"/>
<path fill-rule="evenodd" clip-rule="evenodd" fill="#999999" d="M51.1,236.6h6L37.4,256l-19.7-19.4h6c0,1.6,0.3,3.4,1,5.1
	c0.6,1.7,1.7,3.3,3,4.6c1.4,1.4,3,2.4,4.7,3.1c1.7,0.7,3.4,0.9,5,0.9s3.4-0.2,5.1-0.9c1.7-0.7,3.3-1.7,4.6-3.1
	c1.4-1.3,2.4-2.9,3.1-4.6C50.9,240,51.1,238.2,51.1,236.6"/>
<polyline fill="none" stroke="#999999" stroke-width="0.48" stroke-linejoin="round" stroke-miterlimit="1.414" points="414.8,150 
	409.9,147.2 405,150 405,155.7 409.9,158.5 414.8,155.7 414.8,150 "/>
<line fill="none" stroke="#999999" stroke-width="0.48" stroke-linejoin="round" stroke-miterlimit="1.414" x1="405" y1="152.9" x2="397.9" y2="152.9"/>
<polyline fill="none" stroke="#999999" stroke-width="0.48" stroke-linejoin="round" stroke-miterlimit="1.414" points="
	390.3,124.9 385.4,122.1 380.5,124.9 380.5,130.6 385.4,133.4 390.3,130.6 390.3,124.9 "/>
<polyline fill="none" stroke="#999999" stroke-width="0.48" stroke-linejoin="round" stroke-miterlimit="1.414" points="414,124.9 
	409.1,122.1 404.2,124.9 404.2,130.6 409.1,133.4 414,130.6 414,124.9 "/>
<line fill="none" stroke="#999999" stroke-width="0.48" stroke-linejoin="round" stroke-miterlimit="1.414" x1="390.3" y1="127.7" x2="397.4" y2="127.7"/>
<polyline fill="none" stroke="#999999" stroke-width="0.48" stroke-linejoin="round" stroke-miterlimit="1.414" points="390,150.4 
	385,147.6 380.1,150.4 380.1,156.1 385,158.9 390,156.1 390,150.4 "/>
<line fill="none" stroke="#999999" stroke-width="0.48" stroke-linejoin="round" stroke-miterlimit="1.414" x1="409.1" y1="133.4" x2="409.1" y2="140.5"/>
<rect x="381.1" y="190.1" fill="none" stroke="#999999" stroke-width="0.48" stroke-linejoin="round" stroke-miterlimit="1.414" width="11" height="11"/>
<line fill="none" stroke="#999999" stroke-width="0.48" stroke-linejoin="round" stroke-miterlimit="1.414" x1="385" y1="140.5" x2="385" y2="147.6"/>
<rect x="404.1" y="190.1" fill="none" stroke="#999999" stroke-width="0.48" stroke-linejoin="round" stroke-miterlimit="1.414" width="10.9" height="11"/>
<rect x="404.1" y="213.1" fill="none" stroke="#999999" stroke-width="0.48" stroke-linejoin="round" stroke-miterlimit="1.414" width="10.9" height="11"/>
<rect x="381.1" y="213.1" fill="none" stroke="#999999" stroke-width="0.48" stroke-linejoin="round" stroke-miterlimit="1.414" width="11" height="11"/>
<line fill="none" stroke="#999999" stroke-width="0.48" stroke-linejoin="round" stroke-miterlimit="1.414" x1="34.8" y1="340.6" x2="7.3" y2="340.5"/>
<line fill="none" stroke="#999999" stroke-width="0.48" stroke-linejoin="round" stroke-miterlimit="1.414" x1="15.6" y1="340.6" x2="15.6" y2="340.6"/>
<line fill="none" stroke="#999999" stroke-width="0.48" stroke-linejoin="round" stroke-miterlimit="1.414" x1="15.6" y1="340.6" x2="15.6" y2="340.6"/>
<line fill="none" stroke="#999999" stroke-width="0.48" stroke-linejoin="round" stroke-miterlimit="1.414" x1="165.7" y1="341.5" x2="193.2" y2="341.5"/>
<line fill="none" stroke="#999999" stroke-width="0.48" stroke-linejoin="round" stroke-miterlimit="1.414" x1="173.7" y1="341.5" x2="173.7" y2="341.5"/>
<line fill="none" stroke="#999999" stroke-width="0.48" stroke-linejoin="round" stroke-miterlimit="1.414" x1="173.7" y1="341.5" x2="173.7" y2="341.5"/>
<line fill="none" stroke="#999999" stroke-width="0.48" stroke-linejoin="round" stroke-miterlimit="1.414" x1="210.4" y1="432.8" x2="182.9" y2="432.8"/>
<line fill="none" stroke="#999999" stroke-width="0.48" stroke-linejoin="round" stroke-miterlimit="1.414" x1="339.8" y1="432.8" x2="367.2" y2="432.8"/>
<rect x="387.9" y="27.4" fill="#999999" width="1.4" height="0.6"/>
<path fill-rule="evenodd" clip-rule="evenodd" fill="#999999" d="M154.6,26h0.7l1.1-1.8c0-0.1,0.1-0.2,0.2-0.4
	c0,0.1,0.1,0.2,0.2,0.3l1,1.9h0.7l-1.6-2.8l1.5-2.4h-0.6l-0.9,1.4c-0.1,0.2-0.2,0.4-0.3,0.6c-0.1-0.2-0.2-0.4-0.3-0.7l-0.8-1.3h-0.7
	l1.5,2.5L154.6,26"/>
<rect x="158.7" y="23.8" fill-rule="evenodd" clip-rule="evenodd" fill="#999999" width="1.6" height="0.6"/>
<path fill-rule="evenodd" clip-rule="evenodd" fill="#999999" d="M160.5,26h0.7l1.1-1.8c0-0.1,0.1-0.2,0.2-0.4
	c0,0.1,0.1,0.2,0.1,0.3l1.1,1.9h0.7l-1.6-2.8l1.5-2.4h-0.6l-0.9,1.4c-0.1,0.2-0.2,0.4-0.3,0.6c-0.1-0.2-0.2-0.4-0.3-0.7l-0.8-1.3
	h-0.7l1.5,2.5L160.5,26"/>
<path fill-rule="evenodd" clip-rule="evenodd" fill="#999999" d="M164.5,26h0.6l1.1-1.8c0-0.1,0.1-0.2,0.2-0.4
	c0,0.1,0.1,0.2,0.2,0.3l1,1.9h0.7l-1.6-2.8l1.5-2.4h-0.6l-0.8,1.4c-0.2,0.2-0.3,0.4-0.4,0.6c0-0.2-0.2-0.4-0.3-0.7l-0.8-1.3h-0.6
	l1.4,2.5L164.5,26"/>
<rect x="168.5" y="23.8" fill-rule="evenodd" clip-rule="evenodd" fill="#999999" width="1.6" height="0.6"/>
<path fill-rule="evenodd" clip-rule="evenodd" fill="#999999" d="M170.3,26h0.7l1.1-1.8c0-0.1,0.1-0.2,0.2-0.4
	c0,0.1,0.1,0.2,0.2,0.3l1,1.9h0.7l-1.6-2.8l1.5-2.4h-0.6l-0.9,1.4c-0.1,0.2-0.2,0.4-0.3,0.6c-0.1-0.2-0.2-0.4-0.3-0.7l-0.8-1.3h-0.7
	l1.5,2.5L170.3,26"/>
<path fill-rule="evenodd" clip-rule="evenodd" fill="#999999" d="M174.3,26h0.6l1.1-1.8c0-0.1,0.1-0.2,0.2-0.4
	c0.1,0.1,0.1,0.2,0.2,0.3l1,1.9h0.7l-1.6-2.8l1.5-2.4h-0.6l-0.8,1.4c-0.2,0.2-0.3,0.4-0.4,0.6c0-0.2-0.1-0.4-0.3-0.7l-0.8-1.3h-0.6
	l1.4,2.5L174.3,26"/>
<path fill-rule="evenodd" clip-rule="evenodd" fill="#999999" d="M161.3,17.9h0.9l1.5-2.5c0.1-0.1,0.2-0.3,0.3-0.6
	c0.1,0.2,0.2,0.4,0.2,0.5l1.5,2.6h1l-2.2-3.8l2-3.4h-0.8l-1.2,1.9c-0.2,0.3-0.3,0.5-0.5,0.8c-0.1-0.2-0.2-0.5-0.4-0.9l-1.1-1.8h-0.9
	l2,3.4L161.3,17.9"/>
<path fill-rule="evenodd" clip-rule="evenodd" fill="#999999" d="M166.8,17.9h0.9l1.5-2.5c0.1-0.1,0.2-0.3,0.3-0.6
	c0.1,0.2,0.2,0.4,0.2,0.5l1.5,2.6h1l-2.2-3.8l2-3.4h-0.8l-1.2,1.9c-0.2,0.3-0.3,0.5-0.5,0.8c-0.1-0.2-0.2-0.5-0.4-0.9l-1.1-1.8h-0.9
	l2,3.4L166.8,17.9"/>
<path fill-rule="evenodd" clip-rule="evenodd" fill="#999999" d="M109.8,26h0.7l1.1-1.8c0-0.1,0.1-0.2,0.2-0.4
	c0,0.1,0.1,0.2,0.2,0.3l1,1.9h0.7l-1.6-2.8l1.5-2.4H113l-0.9,1.4c-0.1,0.2-0.2,0.4-0.3,0.6c-0.1-0.2-0.2-0.4-0.3-0.7l-0.8-1.3H110
	l1.5,2.5L109.8,26"/>
<rect x="113.9" y="23.8" fill-rule="evenodd" clip-rule="evenodd" fill="#999999" width="1.6" height="0.6"/>
<path fill-rule="evenodd" clip-rule="evenodd" fill="#999999" d="M115.7,26h0.7l1.1-1.8c0-0.1,0.1-0.2,0.2-0.4
	c0,0.1,0.1,0.2,0.1,0.3l1.1,1.9h0.7l-1.6-2.8l1.5-2.4h-0.6l-0.9,1.4c-0.1,0.2-0.2,0.4-0.3,0.6c-0.1-0.2-0.2-0.4-0.3-0.7l-0.8-1.3
	h-0.7l1.5,2.5L115.7,26"/>
<path fill-rule="evenodd" clip-rule="evenodd" fill="#999999" d="M119.7,26h0.6l1.1-1.8c0-0.1,0.1-0.2,0.2-0.4
	c0,0.1,0.1,0.2,0.2,0.3l1,1.9h0.7l-1.6-2.8l1.5-2.4h-0.6l-0.8,1.4c-0.2,0.2-0.3,0.4-0.4,0.6c0-0.2-0.2-0.4-0.3-0.7l-0.8-1.3h-0.7
	l1.5,2.5L119.7,26"/>
<rect x="123.7" y="23.8" fill-rule="evenodd" clip-rule="evenodd" fill="#999999" width="1.6" height="0.6"/>
<path fill-rule="evenodd" clip-rule="evenodd" fill="#999999" d="M125.5,26h0.7l1.1-1.8c0-0.1,0.1-0.2,0.2-0.4
	c0,0.1,0.1,0.2,0.2,0.3l1,1.9h0.7l-1.6-2.8l1.5-2.4h-0.6l-0.9,1.4c-0.1,0.2-0.2,0.4-0.3,0.6c-0.1-0.2-0.2-0.4-0.3-0.7l-0.8-1.3h-0.7
	l1.5,2.5L125.5,26"/>
<path fill-rule="evenodd" clip-rule="evenodd" fill="#999999" d="M129.5,26h0.6l1.1-1.8c0-0.1,0.1-0.2,0.2-0.4
	c0.1,0.1,0.1,0.2,0.2,0.3l1,1.9h0.7l-1.6-2.8l1.5-2.4h-0.6l-0.8,1.4c-0.2,0.2-0.3,0.4-0.4,0.6c0-0.2-0.1-0.4-0.3-0.7l-0.8-1.3h-0.6
	l1.4,2.5L129.5,26"/>
<path fill-rule="evenodd" clip-rule="evenodd" fill="#999999" d="M116.5,17.9h0.9l1.5-2.5c0.1-0.1,0.2-0.3,0.3-0.6
	c0.1,0.2,0.2,0.4,0.2,0.5l1.5,2.6h1l-2.2-3.8l2-3.4h-0.8l-1.2,1.9c-0.2,0.3-0.3,0.5-0.5,0.8c-0.1-0.2-0.2-0.5-0.4-0.9l-1.1-1.8h-1
	l2.1,3.4L116.5,17.9"/>
<path fill-rule="evenodd" clip-rule="evenodd" fill="#999999" d="M122,17.9h0.9l1.5-2.5c0.1-0.1,0.2-0.3,0.3-0.6
	c0.1,0.2,0.2,0.4,0.2,0.5l1.5,2.6h1l-2.2-3.8l2-3.4h-0.8l-1.2,1.9c-0.2,0.3-0.3,0.5-0.5,0.8c-0.1-0.2-0.2-0.5-0.4-0.9l-1.1-1.8h-0.9
	l2,3.4L122,17.9"/>
<path fill-rule="evenodd" clip-rule="evenodd" fill="#999999" d="M7.7,88.8h0.6L9.4,87c0-0.1,0.1-0.2,0.2-0.4
	c0.1,0.2,0.1,0.3,0.2,0.4l1,1.8h0.7l-1.6-2.7l1.5-2.4h-0.6L10,85c-0.2,0.2-0.3,0.4-0.4,0.6c0-0.1-0.1-0.4-0.3-0.6l-0.8-1.3H7.9
	l1.4,2.4L7.7,88.8"/>
<rect x="11.8" y="86.6" fill-rule="evenodd" clip-rule="evenodd" fill="#999999" width="1.5" height="0.7"/>
<path fill-rule="evenodd" clip-rule="evenodd" fill="#999999" d="M13.6,88.8h0.6l1.1-1.8c0-0.1,0.1-0.2,0.2-0.4
	c0.1,0.2,0.1,0.3,0.2,0.4l1,1.8h0.7l-1.6-2.7l1.5-2.4h-0.6L15.9,85c-0.2,0.2-0.3,0.4-0.4,0.6c0-0.1-0.2-0.4-0.3-0.6l-0.8-1.3h-0.6
	l1.4,2.4L13.6,88.8"/>
<path fill-rule="evenodd" clip-rule="evenodd" fill="#999999" d="M17.5,88.8h0.7l1-1.8c0.1-0.1,0.1-0.2,0.2-0.4
	c0.1,0.2,0.1,0.3,0.2,0.4l1.1,1.8h0.6l-1.5-2.7l1.4-2.4h-0.6L19.8,85c-0.2,0.2-0.3,0.4-0.4,0.6c0-0.1-0.1-0.4-0.3-0.6l-0.8-1.3h-0.6
	l1.4,2.4L17.5,88.8"/>
<rect x="21.6" y="86.6" fill-rule="evenodd" clip-rule="evenodd" fill="#999999" width="1.6" height="0.7"/>
<path fill-rule="evenodd" clip-rule="evenodd" fill="#999999" d="M23.4,88.8H24l1.1-1.8c0-0.1,0.1-0.2,0.2-0.4
	c0.1,0.2,0.1,0.3,0.2,0.4l1,1.8h0.7l-1.6-2.7l1.5-2.4h-0.6L25.7,85c-0.2,0.2-0.3,0.4-0.4,0.6c0-0.1-0.1-0.4-0.3-0.6l-0.8-1.3h-0.6
	l1.4,2.4L23.4,88.8"/>
<path fill-rule="evenodd" clip-rule="evenodd" fill="#999999" d="M27.3,88.8H28l1-1.8c0.1-0.1,0.1-0.2,0.2-0.4
	c0.1,0.2,0.2,0.3,0.2,0.4l1.1,1.8h0.7l-1.6-2.7l1.4-2.4h-0.6L29.6,85c-0.1,0.2-0.3,0.4-0.3,0.6c-0.1-0.1-0.2-0.4-0.4-0.6l-0.7-1.3
	h-0.7l1.4,2.4L27.3,88.8"/>
<path fill-rule="evenodd" clip-rule="evenodd" fill="#999999" d="M14.3,80.7h0.9l1.5-2.5c0.1-0.1,0.2-0.3,0.3-0.5
	c0.1,0.1,0.2,0.3,0.3,0.4l1.5,2.6h0.9l-2.2-3.8l2.1-3.4h-0.9l-1.2,1.9c-0.2,0.3-0.3,0.6-0.4,0.8c-0.1-0.2-0.3-0.5-0.5-0.9l-1.1-1.8
	h-0.9l2,3.5L14.3,80.7"/>
<path fill-rule="evenodd" clip-rule="evenodd" fill="#999999" d="M19.8,80.7h1l1.4-2.5c0.1-0.1,0.2-0.3,0.3-0.5
	c0.1,0.1,0.2,0.3,0.3,0.4l1.5,2.6h0.9L23,76.9l2.1-3.4h-0.9L23,75.4c-0.2,0.3-0.3,0.6-0.4,0.8c-0.1-0.2-0.3-0.5-0.5-0.9L21,73.5
	h-0.9l2,3.5L19.8,80.7"/>
<path fill-rule="evenodd" clip-rule="evenodd" fill="#999999" d="M137.5,153h0.6l1.1-1.8c0,0,0.1-0.2,0.2-0.4
	c0.1,0.2,0.1,0.3,0.2,0.4l1,1.8h0.7l-1.6-2.7l1.5-2.4h-0.6l-0.8,1.3c-0.2,0.2-0.3,0.4-0.4,0.6c0-0.1-0.1-0.3-0.3-0.6l-0.8-1.3h-0.6
	l1.4,2.4L137.5,153"/>
<rect x="141.6" y="150.8" fill-rule="evenodd" clip-rule="evenodd" fill="#999999" width="1.5" height="0.7"/>
<path fill-rule="evenodd" clip-rule="evenodd" fill="#999999" d="M143.4,153h0.6l1.1-1.8c0,0,0.1-0.2,0.2-0.4c0,0.2,0.1,0.3,0.2,0.4
	l1,1.8h0.7l-1.6-2.7l1.5-2.4h-0.6l-0.9,1.3l-0.3,0.6c-0.1-0.1-0.2-0.3-0.3-0.6l-0.8-1.3h-0.7l1.5,2.4L143.4,153"/>
<path fill-rule="evenodd" clip-rule="evenodd" fill="#999999" d="M147.3,153h0.6l1.1-1.8c0,0,0.1-0.2,0.2-0.4
	c0.1,0.2,0.1,0.3,0.2,0.4l1.1,1.8h0.6l-1.6-2.7l1.5-2.4h-0.6l-0.8,1.3c-0.2,0.2-0.3,0.4-0.4,0.6c0-0.1-0.1-0.3-0.3-0.6l-0.8-1.3
	h-0.6l1.4,2.4L147.3,153"/>
<rect x="151.4" y="150.8" fill-rule="evenodd" clip-rule="evenodd" fill="#999999" width="1.6" height="0.7"/>
<path fill-rule="evenodd" clip-rule="evenodd" fill="#999999" d="M153.2,153h0.6l1.1-1.8c0,0,0.1-0.2,0.2-0.4
	c0.1,0.2,0.1,0.3,0.2,0.4l1,1.8h0.7l-1.6-2.7l1.5-2.4h-0.6l-0.8,1.3c-0.2,0.2-0.3,0.4-0.4,0.6c0-0.1-0.2-0.3-0.3-0.6l-0.8-1.3h-0.6
	l1.4,2.4L153.2,153"/>
<path fill-rule="evenodd" clip-rule="evenodd" fill="#999999" d="M157.1,153h0.7l1-1.8c0.1,0,0.1-0.2,0.2-0.4
	c0.1,0.2,0.1,0.3,0.2,0.4l1.1,1.8h0.7l-1.6-2.7l1.4-2.4h-0.6l-0.8,1.3c-0.1,0.2-0.3,0.4-0.3,0.6c-0.1-0.1-0.2-0.3-0.4-0.6l-0.8-1.3
	h-0.6l1.4,2.4L157.1,153"/>
<path fill-rule="evenodd" clip-rule="evenodd" fill="#999999" d="M144.1,144.9h0.9l1.5-2.5c0.1-0.1,0.2-0.3,0.3-0.5
	c0.1,0.1,0.2,0.3,0.3,0.5l1.5,2.5h0.9l-2.2-3.8l2.1-3.4h-0.9l-1.2,1.9c-0.2,0.3-0.3,0.6-0.4,0.8c-0.1-0.2-0.3-0.5-0.5-0.8l-1.1-1.9
	h-0.9l2,3.5L144.1,144.9"/>
<path fill-rule="evenodd" clip-rule="evenodd" fill="#999999" d="M149.6,144.9h0.9l1.5-2.5c0.1-0.1,0.2-0.3,0.3-0.5
	c0.1,0.1,0.2,0.3,0.3,0.5l1.5,2.5h0.9l-2.2-3.8l2.1-3.4H154l-1.2,1.9c-0.2,0.3-0.3,0.6-0.4,0.8c-0.1-0.2-0.3-0.5-0.5-0.8l-1.1-1.9
	h-0.9l2,3.5L149.6,144.9"/>
<path fill-rule="evenodd" clip-rule="evenodd" fill="#999999" d="M199.3,153h0.6l1.1-1.8c0,0,0.1-0.2,0.2-0.3
	c0.1,0.1,0.1,0.2,0.2,0.3l1,1.8h0.7l-1.6-2.7l1.5-2.4h-0.6l-0.8,1.4c-0.2,0.2-0.3,0.4-0.4,0.5c0-0.1-0.1-0.3-0.3-0.6l-0.8-1.3h-0.6
	l1.4,2.5L199.3,153"/>
<rect x="203.4" y="150.9" fill-rule="evenodd" clip-rule="evenodd" fill="#999999" width="1.5" height="0.6"/>
<path fill-rule="evenodd" clip-rule="evenodd" fill="#999999" d="M205.2,153h0.6l1.1-1.8c0,0,0.1-0.2,0.2-0.3
	c0.1,0.1,0.1,0.2,0.2,0.3l1,1.8h0.7l-1.6-2.7l1.5-2.4h-0.6l-0.8,1.4c-0.2,0.2-0.3,0.4-0.4,0.5c0-0.1-0.2-0.3-0.3-0.6l-0.8-1.3h-0.6
	l1.4,2.5L205.2,153"/>
<path fill-rule="evenodd" clip-rule="evenodd" fill="#999999" d="M209.1,153h0.7l1-1.8c0.1,0,0.1-0.2,0.2-0.3
	c0.1,0.1,0.1,0.2,0.2,0.3l1.1,1.8h0.6l-1.5-2.7l1.4-2.4h-0.6l-0.8,1.4c-0.2,0.2-0.3,0.4-0.4,0.5c0-0.1-0.1-0.3-0.3-0.6l-0.8-1.3
	h-0.6l1.4,2.5L209.1,153"/>
<rect x="213.2" y="150.9" fill-rule="evenodd" clip-rule="evenodd" fill="#999999" width="1.6" height="0.6"/>
<path fill-rule="evenodd" clip-rule="evenodd" fill="#999999" d="M215,153h0.6l1.1-1.8c0,0,0.1-0.2,0.2-0.3c0.1,0.1,0.1,0.2,0.2,0.3
	l1,1.8h0.7l-1.6-2.7l1.5-2.4h-0.6l-0.8,1.4c-0.2,0.2-0.3,0.4-0.4,0.5c0-0.1-0.1-0.3-0.3-0.6l-0.8-1.3h-0.6l1.4,2.5L215,153"/>
<path fill-rule="evenodd" clip-rule="evenodd" fill="#999999" d="M218.9,153h0.7l1-1.8c0.1,0,0.1-0.2,0.2-0.3
	c0.1,0.1,0.2,0.2,0.2,0.3l1.1,1.8h0.7l-1.6-2.7l1.4-2.4H222l-0.8,1.4c-0.1,0.2-0.3,0.4-0.3,0.5c-0.1-0.1-0.2-0.3-0.4-0.6l-0.7-1.3
	h-0.7l1.4,2.5L218.9,153"/>
<path fill-rule="evenodd" clip-rule="evenodd" fill="#999999" d="M205.9,144.9h0.9l1.5-2.5c0.1-0.1,0.2-0.3,0.3-0.5
	c0.1,0.2,0.2,0.3,0.3,0.5l1.5,2.5h0.9l-2.2-3.8l2.1-3.4h-0.9l-1.2,1.9c-0.2,0.3-0.3,0.6-0.4,0.9c-0.1-0.3-0.3-0.5-0.5-0.9l-1.1-1.9
	h-0.9l2,3.5L205.9,144.9"/>
<path fill-rule="evenodd" clip-rule="evenodd" fill="#999999" d="M211.4,144.9h1l1.4-2.5c0.1-0.1,0.2-0.3,0.3-0.5
	c0.1,0.2,0.2,0.3,0.3,0.5l1.5,2.5h0.9l-2.2-3.8l2.1-3.4h-0.9l-1.2,1.9c-0.2,0.3-0.3,0.6-0.4,0.9c-0.1-0.3-0.3-0.5-0.5-0.9l-1.1-1.9
	h-0.9l2,3.5L211.4,144.9"/>
<path fill-rule="evenodd" clip-rule="evenodd" fill="#999999" d="M7.7,47.6h0.6l1.1-1.8c0-0.1,0.1-0.2,0.2-0.4
	c0.1,0.1,0.1,0.3,0.2,0.4l1,1.8h0.7l-1.6-2.7l1.5-2.5h-0.6L10,43.8c-0.2,0.2-0.3,0.4-0.4,0.6c0-0.2-0.1-0.4-0.3-0.6l-0.8-1.4H7.9
	l1.4,2.5L7.7,47.6"/>
<rect x="11.8" y="45.4" fill-rule="evenodd" clip-rule="evenodd" fill="#999999" width="1.5" height="0.6"/>
<path fill-rule="evenodd" clip-rule="evenodd" fill="#999999" d="M13.6,47.6h0.6l1.1-1.8c0-0.1,0.1-0.2,0.2-0.4
	c0.1,0.1,0.1,0.3,0.2,0.4l1,1.8h0.7l-1.6-2.7l1.5-2.5h-0.6l-0.8,1.4c-0.2,0.2-0.3,0.4-0.4,0.6c0-0.2-0.2-0.4-0.3-0.6l-0.8-1.4h-0.6
	l1.4,2.5L13.6,47.6"/>
<path fill-rule="evenodd" clip-rule="evenodd" fill="#999999" d="M17.5,47.6h0.7l1-1.8c0.1-0.1,0.1-0.2,0.2-0.4
	c0.1,0.1,0.1,0.3,0.2,0.4l1.1,1.8h0.6l-1.5-2.7l1.4-2.5h-0.6l-0.8,1.4c-0.2,0.2-0.3,0.4-0.4,0.6c0-0.2-0.1-0.4-0.3-0.6l-0.8-1.4
	h-0.6l1.4,2.5L17.5,47.6"/>
<rect x="21.6" y="45.4" fill-rule="evenodd" clip-rule="evenodd" fill="#999999" width="1.6" height="0.6"/>
<path fill-rule="evenodd" clip-rule="evenodd" fill="#999999" d="M23.4,47.6H24l1.1-1.8c0-0.1,0.1-0.2,0.2-0.4
	c0.1,0.1,0.1,0.3,0.2,0.4l1,1.8h0.7l-1.6-2.7l1.5-2.5h-0.6l-0.8,1.4c-0.2,0.2-0.3,0.4-0.4,0.6c0-0.2-0.1-0.4-0.3-0.6l-0.8-1.4h-0.6
	l1.4,2.5L23.4,47.6"/>
<path fill-rule="evenodd" clip-rule="evenodd" fill="#999999" d="M27.3,47.6H28l1-1.8c0.1-0.1,0.1-0.2,0.2-0.4
	c0.1,0.1,0.2,0.3,0.2,0.4l1.1,1.8h0.7l-1.6-2.7l1.4-2.5h-0.6l-0.8,1.4c-0.1,0.2-0.3,0.4-0.3,0.6c-0.1-0.2-0.2-0.4-0.4-0.6l-0.7-1.4
	h-0.7l1.4,2.5L27.3,47.6"/>
<path fill-rule="evenodd" clip-rule="evenodd" fill="#999999" d="M14.3,39.5h0.9l1.5-2.5c0.1-0.1,0.2-0.3,0.3-0.6
	c0.1,0.2,0.2,0.4,0.3,0.5l1.5,2.6h0.9l-2.2-3.8l2.1-3.4h-0.9l-1.2,1.9c-0.2,0.3-0.3,0.6-0.4,0.8c-0.1-0.2-0.3-0.5-0.5-0.9l-1.1-1.8
	h-0.9l2,3.4L14.3,39.5"/>
<path fill-rule="evenodd" clip-rule="evenodd" fill="#999999" d="M19.8,39.5h1l1.4-2.5c0.1-0.1,0.2-0.3,0.3-0.6
	c0.1,0.2,0.2,0.4,0.3,0.5l1.5,2.6h0.9L23,35.7l2.1-3.4h-0.9L23,34.2c-0.2,0.3-0.3,0.6-0.4,0.8c-0.1-0.2-0.3-0.5-0.5-0.9L21,32.3
	h-0.9l2,3.4L19.8,39.5"/>
<path fill-rule="evenodd" clip-rule="evenodd" fill="#999999" d="M70.7,243.4h0.6l1.1-1.8c0-0.1,0.1-0.2,0.2-0.4
	c0,0.1,0.1,0.2,0.2,0.3l1,1.9h0.7l-1.6-2.7l1.5-2.5h-0.6l-0.8,1.4c-0.2,0.2-0.3,0.4-0.4,0.6c0-0.2-0.2-0.4-0.3-0.6l-0.8-1.4h-0.7
	l1.5,2.5L70.7,243.4"/>
<rect x="74.7" y="241.2" fill-rule="evenodd" clip-rule="evenodd" fill="#999999" width="1.6" height="0.6"/>
<path fill-rule="evenodd" clip-rule="evenodd" fill="#999999" d="M76.5,243.4h0.7l1.1-1.8c0-0.1,0.1-0.2,0.2-0.4
	c0,0.1,0.1,0.2,0.2,0.3l1,1.9h0.7l-1.6-2.7l1.5-2.5h-0.6l-0.9,1.4c-0.1,0.2-0.2,0.4-0.3,0.6c-0.1-0.2-0.2-0.4-0.3-0.6l-0.8-1.4h-0.7
	l1.5,2.5L76.5,243.4"/>
<path fill-rule="evenodd" clip-rule="evenodd" fill="#999999" d="M80.5,243.4h0.6l1.1-1.8c0-0.1,0.1-0.2,0.2-0.4
	c0.1,0.1,0.1,0.2,0.2,0.3l1,1.9h0.7l-1.6-2.7l1.5-2.5h-0.6l-0.8,1.4c-0.2,0.2-0.3,0.4-0.4,0.6c0-0.2-0.1-0.4-0.3-0.6l-0.8-1.4h-0.6
	l1.4,2.5L80.5,243.4"/>
<rect x="84.6" y="241.2" fill-rule="evenodd" clip-rule="evenodd" fill="#999999" width="1.5" height="0.6"/>
<path fill-rule="evenodd" clip-rule="evenodd" fill="#999999" d="M86.4,243.4H87l1.1-1.8c0-0.1,0.1-0.2,0.2-0.4
	c0,0.1,0.1,0.2,0.2,0.3l1,1.9h0.7l-1.6-2.7l1.5-2.5h-0.6l-0.9,1.4c-0.1,0.2-0.2,0.4-0.3,0.6c-0.1-0.2-0.2-0.4-0.3-0.6l-0.8-1.4h-0.7
	l1.5,2.5L86.4,243.4"/>
<path fill-rule="evenodd" clip-rule="evenodd" fill="#999999" d="M90.3,243.4h0.6l1.1-1.8c0-0.1,0.1-0.2,0.2-0.4
	c0.1,0.1,0.1,0.2,0.2,0.3l1.1,1.9h0.6l-1.6-2.7l1.5-2.5h-0.6l-0.8,1.4c-0.2,0.2-0.3,0.4-0.4,0.6c0-0.2-0.1-0.4-0.3-0.6l-0.8-1.4
	h-0.6l1.4,2.5L90.3,243.4"/>
<path fill-rule="evenodd" clip-rule="evenodd" fill="#999999" d="M77.3,235.3h0.9l1.5-2.5c0.1-0.1,0.2-0.3,0.3-0.6
	c0.1,0.2,0.2,0.4,0.3,0.5l1.4,2.6h1l-2.2-3.8l2-3.4h-0.8l-1.2,1.9c-0.2,0.3-0.3,0.6-0.5,0.8c-0.1-0.2-0.2-0.5-0.4-0.9l-1.1-1.8h-0.9
	l2,3.4L77.3,235.3"/>
<path fill-rule="evenodd" clip-rule="evenodd" fill="#999999" d="M82.8,235.3h0.9l1.5-2.5c0.1-0.1,0.2-0.3,0.3-0.6
	c0.1,0.2,0.2,0.4,0.3,0.5l1.4,2.6h1l-2.2-3.8l2.1-3.4h-0.9L86,230c-0.2,0.3-0.3,0.6-0.5,0.8c0-0.2-0.2-0.5-0.4-0.9l-1.1-1.8h-0.9
	l2,3.4L82.8,235.3"/>
<path fill-rule="evenodd" clip-rule="evenodd" fill="#999999" d="M171.3,243.4h0.7l1.1-1.8c0-0.1,0.1-0.2,0.2-0.4
	c0,0.1,0.1,0.2,0.1,0.3l1.1,1.9h0.7l-1.6-2.7l1.5-2.5h-0.6l-0.9,1.4c-0.1,0.2-0.2,0.4-0.3,0.6l-0.3-0.6l-0.8-1.4h-0.7l1.5,2.5
	L171.3,243.4"/>
<rect x="175.4" y="241.2" fill-rule="evenodd" clip-rule="evenodd" fill="#999999" width="1.6" height="0.6"/>
<path fill-rule="evenodd" clip-rule="evenodd" fill="#999999" d="M177.2,243.4h0.7l1.1-1.8c0-0.1,0.1-0.2,0.2-0.4
	c0,0.1,0.1,0.2,0.1,0.3l1.1,1.9h0.7l-1.6-2.7l1.5-2.5h-0.6l-0.9,1.4c-0.1,0.2-0.2,0.4-0.3,0.6l-0.3-0.6l-0.8-1.4h-0.7l1.5,2.5
	L177.2,243.4"/>
<path fill-rule="evenodd" clip-rule="evenodd" fill="#999999" d="M181.1,243.4h0.7l1.1-1.8c0-0.1,0.1-0.2,0.2-0.4
	c0,0.1,0.1,0.2,0.2,0.3l1,1.9h0.7l-1.6-2.7l1.5-2.5h-0.6l-0.9,1.4c-0.1,0.2-0.2,0.4-0.3,0.6c-0.1-0.2-0.2-0.4-0.3-0.6l-0.8-1.4h-0.7
	l1.5,2.5L181.1,243.4"/>
<rect x="185.2" y="241.2" fill-rule="evenodd" clip-rule="evenodd" fill="#999999" width="1.6" height="0.6"/>
<path fill-rule="evenodd" clip-rule="evenodd" fill="#999999" d="M187,243.4h0.7l1.1-1.8c0-0.1,0.1-0.2,0.2-0.4
	c0,0.1,0.1,0.2,0.1,0.3l1.1,1.9h0.7l-1.6-2.7l1.5-2.5h-0.6l-0.9,1.4c-0.1,0.2-0.2,0.4-0.3,0.6c-0.1-0.2-0.2-0.4-0.3-0.6l-0.8-1.4
	h-0.7l1.5,2.5L187,243.4"/>
<path fill-rule="evenodd" clip-rule="evenodd" fill="#999999" d="M191,243.4h0.6l1.1-1.8c0-0.1,0.1-0.2,0.2-0.4
	c0.1,0.1,0.1,0.2,0.2,0.3l1,1.9h0.7l-1.6-2.7l1.5-2.5h-0.6l-0.8,1.4c-0.2,0.2-0.3,0.4-0.4,0.6c0-0.2-0.2-0.4-0.3-0.6l-0.8-1.4h-0.6
	l1.4,2.5L191,243.4"/>
<path fill-rule="evenodd" clip-rule="evenodd" fill="#999999" d="M178,235.3h0.9l1.5-2.5c0.1-0.1,0.1-0.3,0.3-0.6
	c0.1,0.2,0.2,0.4,0.2,0.5l1.5,2.6h1l-2.2-3.8l2-3.4h-0.8l-1.2,1.9c-0.2,0.3-0.4,0.6-0.5,0.8c-0.1-0.2-0.2-0.5-0.4-0.9l-1.1-1.8h-1
	l2.1,3.4L178,235.3"/>
<path fill-rule="evenodd" clip-rule="evenodd" fill="#999999" d="M183.5,235.3h0.9l1.5-2.5c0.1-0.1,0.2-0.3,0.3-0.6
	c0.1,0.2,0.2,0.4,0.2,0.5l1.5,2.6h1l-2.2-3.8l2-3.4h-0.8l-1.2,1.9c-0.2,0.3-0.3,0.6-0.5,0.8c-0.1-0.2-0.2-0.5-0.4-0.9l-1.1-1.8h-0.9
	l2,3.4L183.5,235.3"/>
<path fill-rule="evenodd" clip-rule="evenodd" fill="#999999" d="M126.1,243.4h0.7l1.1-1.8c0-0.1,0.1-0.2,0.2-0.4
	c0,0.1,0.1,0.2,0.2,0.3l1,1.9h0.7l-1.6-2.7l1.5-2.5h-0.6l-0.9,1.4c-0.1,0.2-0.2,0.4-0.3,0.6l-0.3-0.6l-0.8-1.4h-0.7l1.5,2.5
	L126.1,243.4"/>
<rect x="130.2" y="241.2" fill-rule="evenodd" clip-rule="evenodd" fill="#999999" width="1.6" height="0.6"/>
<path fill-rule="evenodd" clip-rule="evenodd" fill="#999999" d="M132,243.4h0.7l1.1-1.8c0-0.1,0.1-0.2,0.2-0.4
	c0,0.1,0.1,0.2,0.1,0.3l1.1,1.9h0.7l-1.6-2.7l1.5-2.5h-0.6l-0.9,1.4c-0.1,0.2-0.2,0.4-0.3,0.6l-0.3-0.6l-0.8-1.4h-0.7l1.5,2.5
	L132,243.4"/>
<path fill-rule="evenodd" clip-rule="evenodd" fill="#999999" d="M136,243.4h0.6l1.1-1.8c0-0.1,0.1-0.2,0.2-0.4
	c0,0.1,0.1,0.2,0.2,0.3l1,1.9h0.7l-1.6-2.7l1.5-2.5h-0.6l-0.9,1.4c-0.1,0.2-0.2,0.4-0.3,0.6c-0.1-0.2-0.2-0.4-0.3-0.6l-0.8-1.4h-0.7
	l1.5,2.5L136,243.4"/>
<rect x="140" y="241.2" fill-rule="evenodd" clip-rule="evenodd" fill="#999999" width="1.6" height="0.6"/>
<path fill-rule="evenodd" clip-rule="evenodd" fill="#999999" d="M141.8,243.4h0.7l1.1-1.8c0-0.1,0.1-0.2,0.2-0.4
	c0,0.1,0.1,0.2,0.1,0.3l1.1,1.9h0.7l-1.6-2.7l1.5-2.5H145l-0.9,1.4c-0.1,0.2-0.2,0.4-0.3,0.6l-0.3-0.6l-0.8-1.4H142l1.5,2.5
	L141.8,243.4"/>
<path fill-rule="evenodd" clip-rule="evenodd" fill="#999999" d="M145.8,243.4h0.6l1.1-1.8c0-0.1,0.1-0.2,0.2-0.4
	c0.1,0.1,0.1,0.2,0.2,0.3l1,1.9h0.7l-1.6-2.7l1.5-2.5h-0.6l-0.8,1.4c-0.2,0.2-0.3,0.4-0.4,0.6c0-0.2-0.2-0.4-0.3-0.6l-0.8-1.4H146
	l1.4,2.5L145.8,243.4"/>
<path fill-rule="evenodd" clip-rule="evenodd" fill="#999999" d="M132.8,235.3h0.9l1.5-2.5c0.1-0.1,0.1-0.3,0.3-0.6
	c0.1,0.2,0.2,0.4,0.2,0.5l1.5,2.6h1l-2.2-3.8l2-3.4h-0.8L136,230c-0.2,0.3-0.3,0.6-0.5,0.8c-0.1-0.2-0.2-0.5-0.4-0.9l-1.1-1.8h-1
	l2.1,3.4L132.8,235.3"/>
<path fill-rule="evenodd" clip-rule="evenodd" fill="#999999" d="M138.3,235.3h0.9l1.5-2.5c0.1-0.1,0.2-0.3,0.3-0.6
	c0.1,0.2,0.2,0.4,0.2,0.5l1.5,2.6h1l-2.2-3.8l2-3.4h-0.8l-1.2,1.9c-0.2,0.3-0.3,0.6-0.5,0.8c-0.1-0.2-0.2-0.5-0.4-0.9l-1.1-1.8h-0.9
	l2,3.4L138.3,235.3"/>
<path fill-rule="evenodd" clip-rule="evenodd" fill="#999999" d="M25.5,242.9h0.6l1.1-1.8c0-0.1,0.1-0.2,0.2-0.4
	c0,0.2,0.1,0.3,0.2,0.4l1,1.8h0.7l-1.6-2.7l1.5-2.4h-0.6l-0.8,1.3c-0.2,0.2-0.3,0.4-0.4,0.6c0-0.1-0.2-0.3-0.3-0.6l-0.8-1.3h-0.7
	l1.5,2.4L25.5,242.9"/>
<rect x="29.5" y="240.7" fill-rule="evenodd" clip-rule="evenodd" fill="#999999" width="1.6" height="0.7"/>
<path fill-rule="evenodd" clip-rule="evenodd" fill="#999999" d="M31.3,242.9H32l1.1-1.8c0-0.1,0.1-0.2,0.2-0.4
	c0,0.2,0.1,0.3,0.2,0.4l1,1.8h0.7l-1.6-2.7l1.5-2.4h-0.6l-0.9,1.3c-0.1,0.2-0.2,0.4-0.3,0.6c-0.1-0.1-0.2-0.3-0.3-0.6l-0.8-1.3h-0.7
	l1.5,2.4L31.3,242.9"/>
<path fill-rule="evenodd" clip-rule="evenodd" fill="#999999" d="M35.3,242.9h0.6l1.1-1.8c0-0.1,0.1-0.2,0.2-0.4
	c0.1,0.2,0.1,0.3,0.2,0.4l1,1.8h0.7l-1.6-2.7l1.5-2.4h-0.6l-0.8,1.3c-0.2,0.2-0.3,0.4-0.4,0.6c0-0.1-0.1-0.3-0.3-0.6l-0.8-1.3h-0.6
	l1.4,2.4L35.3,242.9"/>
<rect x="39.4" y="240.7" fill-rule="evenodd" clip-rule="evenodd" fill="#999999" width="1.5" height="0.7"/>
<path fill-rule="evenodd" clip-rule="evenodd" fill="#999999" d="M41.2,242.9h0.6l1.1-1.8c0-0.1,0.1-0.2,0.2-0.4
	c0,0.2,0.1,0.3,0.2,0.4l1,1.8H45l-1.6-2.7l1.5-2.4h-0.6l-0.9,1.3c-0.1,0.2-0.2,0.4-0.3,0.6c0-0.1-0.2-0.3-0.3-0.6l-0.8-1.3h-0.7
	l1.5,2.4L41.2,242.9"/>
<path fill-rule="evenodd" clip-rule="evenodd" fill="#999999" d="M45.1,242.9h0.6l1.1-1.8c0-0.1,0.1-0.2,0.2-0.4
	c0.1,0.2,0.1,0.3,0.2,0.4l1.1,1.8h0.6l-1.5-2.7l1.4-2.4h-0.6l-0.8,1.3c-0.2,0.2-0.3,0.4-0.4,0.6c0-0.1-0.1-0.3-0.3-0.6l-0.8-1.3
	h-0.6l1.4,2.4L45.1,242.9"/>
<path fill-rule="evenodd" clip-rule="evenodd" fill="#999999" d="M32.1,234.8H33l1.5-2.5c0.1-0.1,0.2-0.3,0.3-0.5
	c0.1,0.1,0.2,0.3,0.3,0.4l1.4,2.6h1l-2.2-3.8l2-3.4h-0.8l-1.2,1.9c-0.2,0.3-0.3,0.6-0.5,0.8c-0.1-0.2-0.2-0.5-0.4-0.9l-1.1-1.8h-0.9
	l2,3.5L32.1,234.8"/>
<path fill-rule="evenodd" clip-rule="evenodd" fill="#999999" d="M37.6,234.8h0.9l1.5-2.5c0.1-0.1,0.2-0.3,0.3-0.5
	c0.1,0.1,0.2,0.3,0.3,0.4l1.4,2.6h1l-2.2-3.8l2.1-3.4H42l-1.2,1.9c-0.2,0.3-0.3,0.6-0.5,0.8c0-0.2-0.2-0.5-0.4-0.9l-1.1-1.8h-0.9
	l2,3.5L37.6,234.8"/>
<polygon fill-rule="evenodd" clip-rule="evenodd" fill="#999999" points="406.9,155.7 407.5,155.7 407.5,153.1 409.7,153.1 
	409.7,152.5 407.5,152.5 407.5,150.7 410,150.7 410,150 406.9,150 "/>
<path fill-rule="evenodd" clip-rule="evenodd" fill="#999999" d="M413.5,155h-2.2c0-0.1,0.1-0.2,0.2-0.3c0.1-0.2,0.3-0.4,0.7-0.8
	c0.5-0.5,0.9-0.9,1.1-1.3c0.1-0.3,0.2-0.7,0.2-1c0-0.4-0.1-0.8-0.3-1.1c-0.3-0.3-0.6-0.5-1.1-0.5c-0.4,0-0.8,0.2-1.1,0.4
	c-0.2,0.3-0.4,0.7-0.4,1.3h0.6c0-0.3,0.1-0.6,0.2-0.8c0.2-0.2,0.4-0.3,0.7-0.3c0.2,0,0.4,0.1,0.6,0.3c0.2,0.1,0.3,0.4,0.3,0.7
	c0,0.2-0.1,0.5-0.3,0.8c-0.2,0.3-0.5,0.7-1,1.2s-0.8,0.9-1,1.2c-0.2,0.3-0.2,0.6-0.2,0.9h3V155"/>
<polygon fill-rule="evenodd" clip-rule="evenodd" fill="#999999" points="382.4,130.6 383,130.6 383,128 385.2,128 385.2,127.3 
	383,127.3 383,125.6 385.5,125.6 385.5,124.9 382.4,124.9 "/>
<path fill-rule="evenodd" clip-rule="evenodd" fill="#999999" d="M389,129.9h-2.2c0-0.1,0.1-0.3,0.2-0.4c0.1-0.1,0.3-0.4,0.7-0.7
	c0.5-0.6,0.9-1,1-1.3c0.2-0.4,0.3-0.7,0.3-1.1c0-0.4-0.1-0.7-0.3-1.1c-0.3-0.3-0.6-0.4-1.1-0.4c-0.4,0-0.8,0.1-1.1,0.4
	c-0.2,0.3-0.4,0.7-0.4,1.2l0.6,0.1c0-0.4,0.1-0.7,0.2-0.9c0.2-0.2,0.4-0.3,0.7-0.3c0.2,0,0.4,0.1,0.6,0.3c0.2,0.2,0.2,0.4,0.2,0.7
	c0,0.3,0,0.5-0.2,0.8c-0.2,0.3-0.5,0.7-1,1.3c-0.5,0.4-0.8,0.8-1,1.2c-0.2,0.3-0.2,0.6-0.2,0.9h3V129.9"/>
<polygon fill-rule="evenodd" clip-rule="evenodd" fill="#999999" points="406,130.6 406.6,130.6 406.6,128 408.8,128 408.8,127.3 
	406.6,127.3 406.6,125.6 409.2,125.6 409.2,124.9 406,124.9 "/>
<path fill-rule="evenodd" clip-rule="evenodd" fill="#999999" d="M412.7,129.9h-2.3c0.1-0.1,0.2-0.3,0.3-0.4
	c0.1-0.1,0.3-0.4,0.6-0.7c0.6-0.6,0.9-1,1.1-1.3c0.2-0.4,0.3-0.7,0.3-1.1c0-0.4-0.1-0.7-0.4-1.1c-0.2-0.3-0.6-0.4-1-0.4
	c-0.5,0-0.8,0.1-1.1,0.4c-0.3,0.3-0.4,0.7-0.5,1.2l0.6,0.1c0-0.4,0.1-0.7,0.3-0.9c0.1-0.2,0.4-0.3,0.6-0.3c0.3,0,0.5,0.1,0.7,0.3
	c0.1,0.2,0.2,0.4,0.2,0.7c0,0.3-0.1,0.5-0.2,0.8c-0.2,0.3-0.6,0.7-1.1,1.3c-0.4,0.4-0.8,0.8-0.9,1.2c-0.2,0.3-0.3,0.6-0.3,0.9h3.1
	V129.9"/>
<polygon fill-rule="evenodd" clip-rule="evenodd" fill="#999999" points="382,156.1 382.6,156.1 382.6,153.5 384.8,153.5 
	384.8,152.9 382.6,152.9 382.6,151.1 385.1,151.1 385.1,150.4 382,150.4 "/>
<path fill-rule="evenodd" clip-rule="evenodd" fill="#999999" d="M388.7,155.4h-2.3c0-0.1,0.1-0.2,0.2-0.3c0.1-0.2,0.3-0.4,0.7-0.8
	c0.5-0.5,0.9-0.9,1.1-1.3c0.2-0.3,0.3-0.7,0.3-1c0-0.4-0.2-0.8-0.4-1.1c-0.3-0.3-0.6-0.5-1.1-0.5c-0.4,0-0.8,0.2-1,0.4
	c-0.3,0.3-0.5,0.7-0.5,1.3h0.6c0-0.3,0.1-0.6,0.2-0.8c0.2-0.2,0.4-0.3,0.7-0.3c0.2,0,0.4,0.1,0.6,0.3c0.2,0.1,0.3,0.4,0.3,0.7
	c0,0.2-0.1,0.5-0.3,0.8c-0.1,0.3-0.5,0.7-1,1.2s-0.8,0.9-1,1.2c-0.1,0.3-0.2,0.6-0.2,0.9h3.1V155.4"/>
<path fill-rule="evenodd" clip-rule="evenodd" fill="#999999" d="M381.7,196.8c0,0.6,0.1,1.1,0.3,1.4c0.2,0.2,0.5,0.4,0.9,0.4
	s0.8-0.2,1-0.5c0.2-0.3,0.3-0.8,0.3-1.4v-3.9h-0.6v3.9c0,0.3,0,0.6-0.1,0.8c0,0.1-0.1,0.2-0.2,0.3c-0.1,0-0.2,0.1-0.4,0.1
	c-0.2,0-0.4-0.1-0.5-0.3c-0.1-0.1-0.2-0.4-0.2-0.8H381.7"/>
<path fill-rule="evenodd" clip-rule="evenodd" fill="#999999" d="M385.6,196.8c0-0.3,0.1-0.6,0.3-0.8c0.1-0.2,0.4-0.3,0.6-0.3
	c0.3,0,0.5,0.1,0.7,0.3c0.2,0.2,0.3,0.5,0.3,0.8c0,0.4-0.1,0.7-0.3,0.9c-0.2,0.2-0.4,0.3-0.7,0.3c-0.2,0-0.4-0.1-0.6-0.3
	C385.7,197.5,385.6,197.2,385.6,196.8 M385.8,194.2c0-0.2,0-0.4,0.2-0.6c0.1-0.2,0.3-0.3,0.5-0.3c0.2,0,0.4,0.1,0.6,0.3
	c0.1,0.2,0.2,0.4,0.2,0.6c0,0.3-0.1,0.5-0.2,0.7c-0.2,0.1-0.4,0.2-0.6,0.2c-0.2,0-0.4-0.1-0.5-0.2
	C385.8,194.7,385.8,194.5,385.8,194.2 M385.9,195.4c-0.3,0.1-0.5,0.2-0.7,0.5c-0.1,0.2-0.2,0.5-0.2,0.9c0,0.5,0.1,1,0.4,1.3
	c0.3,0.3,0.7,0.5,1.1,0.5c0.5,0,0.8-0.2,1.1-0.5c0.3-0.3,0.5-0.8,0.5-1.3c0-0.3-0.1-0.6-0.3-0.9c-0.1-0.2-0.3-0.4-0.6-0.5
	c0.2-0.1,0.4-0.3,0.5-0.5c0.1-0.1,0.2-0.4,0.2-0.7c0-0.4-0.2-0.7-0.4-1c-0.3-0.3-0.6-0.4-1-0.4c-0.4,0-0.7,0.1-0.9,0.4
	c-0.3,0.2-0.4,0.6-0.4,1c0,0.3,0,0.5,0.2,0.7C385.5,195.1,385.7,195.3,385.9,195.4"/>
<path fill-rule="evenodd" clip-rule="evenodd" fill="#999999" d="M389.2,196.8c0-0.3,0.1-0.6,0.3-0.8c0.1-0.2,0.4-0.3,0.6-0.3
	c0.3,0,0.5,0.1,0.7,0.3c0.2,0.2,0.3,0.5,0.3,0.8c0,0.4-0.1,0.7-0.3,0.9c-0.2,0.2-0.4,0.3-0.7,0.3c-0.2,0-0.4-0.1-0.6-0.3
	C389.3,197.5,389.2,197.2,389.2,196.8 M389.4,194.2c0-0.2,0.1-0.4,0.2-0.6c0.2-0.2,0.3-0.3,0.5-0.3c0.2,0,0.4,0.1,0.6,0.3
	c0.1,0.2,0.2,0.4,0.2,0.6c0,0.3-0.1,0.5-0.2,0.7c-0.2,0.1-0.3,0.2-0.6,0.2c-0.2,0-0.4-0.1-0.5-0.2
	C389.5,194.7,389.4,194.5,389.4,194.2 M389.5,195.4c-0.3,0.1-0.5,0.2-0.7,0.5c-0.1,0.2-0.2,0.5-0.2,0.9c0,0.5,0.2,1,0.4,1.3
	c0.3,0.3,0.7,0.5,1.1,0.5c0.5,0,0.8-0.2,1.1-0.5c0.3-0.3,0.5-0.8,0.5-1.3c0-0.3-0.1-0.6-0.3-0.9c-0.1-0.2-0.3-0.4-0.6-0.5
	c0.2-0.1,0.4-0.3,0.5-0.5c0.1-0.1,0.2-0.4,0.2-0.7c0-0.4-0.1-0.7-0.4-1c-0.3-0.3-0.6-0.4-1-0.4c-0.4,0-0.7,0.1-0.9,0.4
	c-0.3,0.2-0.4,0.6-0.4,1c0,0.3,0.1,0.5,0.2,0.7C389.1,195.1,389.3,195.3,389.5,195.4"/>
<path fill-rule="evenodd" clip-rule="evenodd" fill="#999999" d="M404.6,196.8c0,0.6,0.1,1.1,0.4,1.4c0.2,0.2,0.5,0.4,0.9,0.4
	s0.7-0.2,0.9-0.5c0.3-0.3,0.4-0.8,0.4-1.4v-3.9h-0.6v3.9c0,0.3-0.1,0.6-0.1,0.8c-0.1,0.1-0.1,0.2-0.3,0.3c-0.1,0-0.2,0.1-0.3,0.1
	c-0.2,0-0.4-0.1-0.5-0.3c-0.1-0.1-0.2-0.4-0.2-0.8H404.6"/>
<path fill-rule="evenodd" clip-rule="evenodd" fill="#999999" d="M408.5,196.8c0-0.3,0.1-0.6,0.3-0.8c0.2-0.2,0.4-0.3,0.7-0.3
	c0.2,0,0.5,0.1,0.6,0.3c0.2,0.2,0.3,0.5,0.3,0.8c0,0.4-0.1,0.7-0.3,0.9c-0.1,0.2-0.4,0.3-0.6,0.3c-0.3,0-0.5-0.1-0.7-0.3
	C408.6,197.5,408.5,197.2,408.5,196.8 M408.7,194.2c0-0.2,0.1-0.4,0.2-0.6c0.2-0.2,0.4-0.3,0.6-0.3c0.2,0,0.4,0.1,0.5,0.3
	c0.2,0.2,0.2,0.4,0.2,0.6c0,0.3,0,0.5-0.2,0.7c-0.1,0.1-0.3,0.2-0.5,0.2c-0.2,0-0.4-0.1-0.6-0.2
	C408.8,194.7,408.7,194.5,408.7,194.2 M408.8,195.4c-0.2,0.1-0.5,0.2-0.6,0.5c-0.2,0.2-0.3,0.5-0.3,0.9c0,0.5,0.2,1,0.5,1.3
	c0.3,0.3,0.6,0.5,1.1,0.5c0.4,0,0.8-0.2,1.1-0.5s0.4-0.8,0.4-1.3c0-0.3-0.1-0.6-0.2-0.9c-0.2-0.2-0.4-0.4-0.7-0.5
	c0.3-0.1,0.4-0.3,0.5-0.5c0.2-0.1,0.2-0.4,0.2-0.7c0-0.4-0.1-0.7-0.4-1c-0.2-0.3-0.5-0.4-0.9-0.4s-0.7,0.1-1,0.4
	c-0.2,0.2-0.4,0.6-0.4,1c0,0.3,0.1,0.5,0.2,0.7C408.4,195.1,408.6,195.3,408.8,195.4"/>
<path fill-rule="evenodd" clip-rule="evenodd" fill="#999999" d="M412.1,196.8c0-0.3,0.1-0.6,0.3-0.8c0.2-0.2,0.4-0.3,0.7-0.3
	c0.2,0,0.5,0.1,0.7,0.3c0.1,0.2,0.2,0.5,0.2,0.8c0,0.4-0.1,0.7-0.2,0.9c-0.2,0.2-0.4,0.3-0.7,0.3c-0.3,0-0.5-0.1-0.7-0.3
	C412.2,197.5,412.1,197.2,412.1,196.8 M412.3,194.2c0-0.2,0.1-0.4,0.3-0.6c0.1-0.2,0.3-0.3,0.5-0.3c0.2,0,0.4,0.1,0.5,0.3
	c0.2,0.2,0.2,0.4,0.2,0.6c0,0.3,0,0.5-0.2,0.7c-0.1,0.1-0.3,0.2-0.5,0.2c-0.2,0-0.4-0.1-0.5-0.2
	C412.4,194.7,412.3,194.5,412.3,194.2 M412.4,195.4c-0.2,0.1-0.5,0.2-0.6,0.5c-0.2,0.2-0.2,0.5-0.2,0.9c0,0.5,0.1,1,0.4,1.3
	c0.3,0.3,0.7,0.5,1.1,0.5s0.8-0.2,1.1-0.5s0.4-0.8,0.4-1.3c0-0.3-0.1-0.6-0.2-0.9c-0.2-0.2-0.4-0.4-0.7-0.5c0.3-0.1,0.4-0.3,0.6-0.5
	c0.1-0.1,0.1-0.4,0.1-0.7c0-0.4-0.1-0.7-0.4-1c-0.2-0.3-0.5-0.4-0.9-0.4s-0.7,0.1-1,0.4c-0.2,0.2-0.4,0.6-0.4,1
	c0,0.3,0.1,0.6,0.2,0.7C412,195.1,412.2,195.3,412.4,195.4"/>
<path fill-rule="evenodd" clip-rule="evenodd" fill="#999999" d="M404.6,219.8c0,0.6,0.1,1,0.4,1.3c0.2,0.3,0.5,0.4,0.9,0.4
	s0.7-0.1,0.9-0.4c0.3-0.3,0.4-0.8,0.4-1.5v-3.9h-0.6v3.9c0,0.4-0.1,0.6-0.1,0.8c-0.1,0.1-0.1,0.2-0.3,0.3c-0.1,0.1-0.2,0.1-0.3,0.1
	c-0.2,0-0.4,0-0.5-0.2c-0.1-0.2-0.2-0.5-0.2-0.9L404.6,219.8"/>
<path fill-rule="evenodd" clip-rule="evenodd" fill="#999999" d="M408.5,219.8c0-0.4,0.1-0.6,0.3-0.8c0.2-0.3,0.4-0.4,0.7-0.4
	c0.2,0,0.5,0.1,0.6,0.4c0.2,0.2,0.3,0.4,0.3,0.8c0,0.3-0.1,0.6-0.3,0.8c-0.1,0.2-0.4,0.3-0.6,0.3c-0.3,0-0.5-0.1-0.7-0.3
	C408.6,220.4,408.5,220.1,408.5,219.8 M408.7,217.2c0-0.3,0.1-0.5,0.2-0.7c0.2-0.1,0.4-0.2,0.6-0.2c0.2,0,0.4,0.1,0.5,0.2
	c0.2,0.2,0.2,0.4,0.2,0.7c0,0.3,0,0.5-0.2,0.6c-0.1,0.2-0.3,0.3-0.5,0.3c-0.2,0-0.4-0.1-0.6-0.3
	C408.8,217.7,408.7,217.4,408.7,217.2 M408.8,218.3c-0.2,0.1-0.5,0.3-0.6,0.5c-0.2,0.3-0.3,0.6-0.3,1c0,0.5,0.2,0.9,0.5,1.2
	c0.3,0.3,0.6,0.5,1.1,0.5c0.4,0,0.8-0.2,1.1-0.5s0.4-0.7,0.4-1.2c0-0.4-0.1-0.7-0.2-0.9c-0.2-0.3-0.4-0.5-0.7-0.6
	c0.3-0.1,0.4-0.2,0.5-0.4c0.2-0.2,0.2-0.4,0.2-0.7c0-0.4-0.1-0.8-0.4-1.1c-0.2-0.2-0.5-0.4-0.9-0.4s-0.7,0.2-1,0.4
	c-0.2,0.3-0.4,0.6-0.4,1.1c0,0.3,0.1,0.5,0.2,0.7C408.4,218.1,408.6,218.2,408.8,218.3"/>
<path fill-rule="evenodd" clip-rule="evenodd" fill="#999999" d="M412.1,219.8c0-0.4,0.1-0.6,0.3-0.8c0.2-0.3,0.4-0.4,0.7-0.4
	c0.2,0,0.5,0.1,0.7,0.4c0.1,0.2,0.2,0.4,0.2,0.8c0,0.3-0.1,0.6-0.2,0.8c-0.2,0.2-0.4,0.3-0.7,0.3c-0.3,0-0.5-0.1-0.7-0.3
	C412.2,220.4,412.1,220.1,412.1,219.8 M412.3,217.2c0-0.3,0.1-0.5,0.3-0.7c0.1-0.1,0.3-0.2,0.5-0.2c0.2,0,0.4,0.1,0.5,0.2
	c0.2,0.2,0.2,0.4,0.2,0.7c0,0.3,0,0.5-0.2,0.6c-0.1,0.2-0.3,0.3-0.5,0.3c-0.2,0-0.4-0.1-0.5-0.3
	C412.4,217.7,412.3,217.4,412.3,217.2 M412.4,218.3c-0.2,0.1-0.5,0.3-0.6,0.5c-0.2,0.3-0.2,0.6-0.2,1c0,0.5,0.1,0.9,0.4,1.2
	c0.3,0.3,0.7,0.5,1.1,0.5s0.8-0.2,1.1-0.5s0.4-0.7,0.4-1.2c0-0.4-0.1-0.7-0.2-0.9c-0.2-0.3-0.4-0.5-0.7-0.6c0.3-0.1,0.4-0.2,0.6-0.4
	c0.1-0.2,0.1-0.4,0.1-0.7c0-0.4-0.1-0.8-0.4-1.1c-0.2-0.2-0.5-0.4-0.9-0.4s-0.7,0.2-1,0.4c-0.2,0.3-0.4,0.6-0.4,1.1
	c0,0.3,0.1,0.5,0.2,0.7C412,218.1,412.2,218.2,412.4,218.3"/>
<path fill-rule="evenodd" clip-rule="evenodd" fill="#999999" d="M381.7,219.8c0,0.6,0.1,1,0.3,1.3c0.2,0.3,0.5,0.4,0.9,0.4
	s0.8-0.1,1-0.4c0.2-0.3,0.3-0.8,0.3-1.5v-3.9h-0.6v3.9c0,0.4,0,0.6-0.1,0.8c0,0.1-0.1,0.2-0.2,0.3c-0.1,0.1-0.2,0.1-0.4,0.1
	c-0.2,0-0.4,0-0.5-0.2c-0.1-0.2-0.2-0.5-0.2-0.9L381.7,219.8"/>
<path fill-rule="evenodd" clip-rule="evenodd" fill="#999999" d="M385.6,219.8c0-0.4,0.1-0.6,0.3-0.8c0.1-0.3,0.4-0.4,0.6-0.4
	c0.3,0,0.5,0.1,0.7,0.4c0.2,0.2,0.3,0.4,0.3,0.8c0,0.3-0.1,0.6-0.3,0.8c-0.2,0.2-0.4,0.3-0.7,0.3c-0.2,0-0.4-0.1-0.6-0.3
	C385.7,220.4,385.6,220.1,385.6,219.8 M385.8,217.2c0-0.3,0-0.5,0.2-0.7c0.1-0.1,0.3-0.2,0.5-0.2c0.2,0,0.4,0.1,0.6,0.2
	c0.1,0.2,0.2,0.4,0.2,0.7c0,0.3-0.1,0.5-0.2,0.6c-0.2,0.2-0.4,0.3-0.6,0.3c-0.2,0-0.4-0.1-0.5-0.3
	C385.8,217.7,385.8,217.4,385.8,217.2 M385.9,218.3c-0.3,0.1-0.5,0.3-0.7,0.5c-0.1,0.3-0.2,0.6-0.2,1c0,0.5,0.1,0.9,0.4,1.2
	c0.3,0.3,0.7,0.5,1.1,0.5c0.5,0,0.8-0.2,1.1-0.5c0.3-0.3,0.5-0.7,0.5-1.2c0-0.4-0.1-0.7-0.3-0.9c-0.1-0.3-0.3-0.5-0.6-0.6
	c0.2-0.1,0.4-0.2,0.5-0.4c0.1-0.2,0.2-0.4,0.2-0.7c0-0.4-0.2-0.8-0.4-1.1c-0.3-0.2-0.6-0.4-1-0.4c-0.4,0-0.7,0.2-0.9,0.4
	c-0.3,0.3-0.4,0.6-0.4,1.1c0,0.3,0,0.5,0.2,0.7C385.5,218.1,385.7,218.2,385.9,218.3"/>
<path fill-rule="evenodd" clip-rule="evenodd" fill="#999999" d="M389.2,219.8c0-0.4,0.1-0.6,0.3-0.8c0.1-0.3,0.4-0.4,0.6-0.4
	c0.3,0,0.5,0.1,0.7,0.4c0.2,0.2,0.3,0.4,0.3,0.8c0,0.3-0.1,0.6-0.3,0.8c-0.2,0.2-0.4,0.3-0.7,0.3c-0.2,0-0.4-0.1-0.6-0.3
	C389.3,220.4,389.2,220.1,389.2,219.8 M389.4,217.2c0-0.3,0.1-0.5,0.2-0.7c0.2-0.1,0.3-0.2,0.5-0.2c0.2,0,0.4,0.1,0.6,0.2
	c0.1,0.2,0.2,0.4,0.2,0.7c0,0.3-0.1,0.5-0.2,0.6c-0.2,0.2-0.3,0.3-0.6,0.3c-0.2,0-0.4-0.1-0.5-0.3
	C389.5,217.7,389.4,217.4,389.4,217.2 M389.5,218.3c-0.3,0.1-0.5,0.3-0.7,0.5c-0.1,0.3-0.2,0.6-0.2,1c0,0.5,0.2,0.9,0.4,1.2
	c0.3,0.3,0.7,0.5,1.1,0.5c0.5,0,0.8-0.2,1.1-0.5c0.3-0.3,0.5-0.7,0.5-1.2c0-0.4-0.1-0.7-0.3-0.9c-0.1-0.3-0.3-0.5-0.6-0.6
	c0.2-0.1,0.4-0.2,0.5-0.4c0.1-0.2,0.2-0.4,0.2-0.7c0-0.4-0.1-0.8-0.4-1.1c-0.3-0.2-0.6-0.4-1-0.4c-0.4,0-0.7,0.2-0.9,0.4
	c-0.3,0.3-0.4,0.6-0.4,1.1c0,0.3,0.1,0.5,0.2,0.7C389.1,218.1,389.3,218.2,389.5,218.3"/>
<path fill-rule="evenodd" clip-rule="evenodd" fill="#999999" d="M9.3,346.8H10l1.1-1.7c0-0.1,0.1-0.2,0.2-0.4
	c0,0.1,0.1,0.2,0.1,0.3l1.1,1.8h0.7l-1.6-2.7l1.5-2.4h-0.6l-0.9,1.4c-0.1,0.2-0.2,0.4-0.3,0.6c-0.1-0.2-0.2-0.4-0.3-0.7l-0.8-1.3
	H9.5l1.5,2.5L9.3,346.8"/>
<rect x="13.4" y="344.7" fill-rule="evenodd" clip-rule="evenodd" fill="#999999" width="1.6" height="0.6"/>
<path fill-rule="evenodd" clip-rule="evenodd" fill="#999999" d="M15.2,346.8h0.7l1-1.7c0.1-0.1,0.2-0.2,0.2-0.4
	c0.1,0.1,0.2,0.2,0.2,0.3l1.1,1.8h0.7l-1.6-2.7l1.5-2.4h-0.6l-0.9,1.4c-0.1,0.2-0.2,0.4-0.3,0.6c-0.1-0.2-0.2-0.4-0.4-0.7l-0.7-1.3
	h-0.7l1.4,2.5L15.2,346.8"/>
<path fill-rule="evenodd" clip-rule="evenodd" fill="#999999" d="M19.1,346.8h0.7l1.1-1.7c0-0.1,0.1-0.2,0.2-0.4
	c0,0.1,0.1,0.2,0.2,0.3l1,1.8H23l-1.6-2.7l1.5-2.4h-0.6l-0.9,1.4c-0.1,0.2-0.2,0.4-0.3,0.6c-0.1-0.2-0.2-0.4-0.3-0.7l-0.8-1.3h-0.7
	l1.5,2.5L19.1,346.8"/>
<rect x="23.2" y="344.7" fill-rule="evenodd" clip-rule="evenodd" fill="#999999" width="1.6" height="0.6"/>
<path fill-rule="evenodd" clip-rule="evenodd" fill="#999999" d="M25,346.8h0.7l1.1-1.7c0-0.1,0.1-0.2,0.2-0.4
	c0,0.1,0.1,0.2,0.2,0.3l1,1.8h0.7l-1.6-2.7l1.5-2.4h-0.6l-0.9,1.4c-0.1,0.2-0.2,0.4-0.3,0.6c-0.1-0.2-0.2-0.4-0.3-0.7l-0.8-1.3h-0.7
	l1.5,2.5L25,346.8"/>
<path fill-rule="evenodd" clip-rule="evenodd" fill="#999999" d="M29,346.8h0.6l1.1-1.7c0-0.1,0.1-0.2,0.2-0.4
	c0.1,0.1,0.1,0.2,0.2,0.3l1,1.8h0.7l-1.6-2.7l1.5-2.4h-0.6l-0.8,1.4c-0.2,0.2-0.3,0.4-0.4,0.6c0-0.2-0.1-0.4-0.3-0.7l-0.8-1.3h-0.6
	l1.4,2.5L29,346.8"/>
<path fill-rule="evenodd" clip-rule="evenodd" fill="#999999" d="M16,338.7h0.9l1.5-2.5c0-0.1,0.1-0.2,0.3-0.5
	c0.1,0.2,0.1,0.3,0.2,0.5l1.5,2.5h1l-2.2-3.8l2-3.4h-0.8l-1.2,1.9c-0.2,0.3-0.4,0.6-0.5,0.9c-0.1-0.2-0.2-0.5-0.5-0.9l-1-1.9h-1
	l2.1,3.5L16,338.7"/>
<path fill-rule="evenodd" clip-rule="evenodd" fill="#999999" d="M21.5,338.7h0.9l1.5-2.5c0.1-0.1,0.2-0.2,0.3-0.5
	c0.1,0.2,0.2,0.3,0.2,0.5l1.5,2.5h1l-2.2-3.8l2-3.4h-0.8l-1.2,1.9c-0.2,0.3-0.3,0.6-0.5,0.9c-0.1-0.2-0.2-0.5-0.4-0.9l-1.1-1.9h-1
	l2.1,3.5L21.5,338.7"/>
<path fill-rule="evenodd" clip-rule="evenodd" fill="#999999" d="M167.5,347.8h0.6l1.1-1.8c0,0,0.1-0.2,0.2-0.3
	c0.1,0.1,0.1,0.2,0.2,0.3l1,1.8h0.7l-1.6-2.7l1.5-2.4h-0.6l-0.8,1.4c-0.2,0.2-0.3,0.4-0.4,0.5c0-0.1-0.2-0.3-0.3-0.6l-0.8-1.3h-0.6
	l1.4,2.5L167.5,347.8"/>
<rect x="171.5" y="345.6" fill-rule="evenodd" clip-rule="evenodd" fill="#999999" width="1.6" height="0.7"/>
<path fill-rule="evenodd" clip-rule="evenodd" fill="#999999" d="M173.4,347.8h0.6l1.1-1.8c0,0,0.1-0.2,0.2-0.3
	c0,0.1,0.1,0.2,0.2,0.3l1,1.8h0.7l-1.6-2.7l1.5-2.4h-0.6l-0.9,1.4c-0.1,0.2-0.2,0.4-0.3,0.5c0-0.1-0.2-0.3-0.3-0.6l-0.8-1.3h-0.7
	l1.5,2.5L173.4,347.8"/>
<path fill-rule="evenodd" clip-rule="evenodd" fill="#999999" d="M177.3,347.8h0.7l1-1.8c0.1,0,0.1-0.2,0.2-0.3
	c0.1,0.1,0.1,0.2,0.2,0.3l1.1,1.8h0.6l-1.5-2.7l1.4-2.4h-0.6l-0.8,1.4c-0.2,0.2-0.3,0.4-0.4,0.5c0-0.1-0.1-0.3-0.3-0.6l-0.8-1.3
	h-0.6l1.4,2.5L177.3,347.8"/>
<rect x="181.4" y="345.6" fill-rule="evenodd" clip-rule="evenodd" fill="#999999" width="1.6" height="0.7"/>
<path fill-rule="evenodd" clip-rule="evenodd" fill="#999999" d="M183.2,347.8h0.6l1.1-1.8c0,0,0.1-0.2,0.2-0.3
	c0.1,0.1,0.1,0.2,0.2,0.3l1.1,1.8h0.6l-1.6-2.7l1.5-2.4h-0.6l-0.8,1.4c-0.2,0.2-0.3,0.4-0.4,0.5c0-0.1-0.1-0.3-0.3-0.6l-0.8-1.3
	h-0.6l1.4,2.5L183.2,347.8"/>
<path fill-rule="evenodd" clip-rule="evenodd" fill="#999999" d="M187.1,347.8h0.7l1-1.8c0.1,0,0.1-0.2,0.2-0.3
	c0.1,0.1,0.2,0.2,0.2,0.3l1.1,1.8h0.7l-1.6-2.7l1.5-2.4h-0.6l-0.9,1.4c-0.1,0.2-0.2,0.4-0.3,0.5c-0.1-0.1-0.2-0.3-0.4-0.6l-0.7-1.3
	h-0.7l1.4,2.5L187.1,347.8"/>
<path fill-rule="evenodd" clip-rule="evenodd" fill="#999999" d="M174.1,339.7h0.9l1.5-2.5c0.1-0.1,0.2-0.3,0.3-0.5
	c0.1,0.2,0.2,0.3,0.3,0.5l1.5,2.5h0.9l-2.2-3.8l2.1-3.4h-0.9l-1.2,1.9c-0.2,0.3-0.3,0.6-0.4,0.8c-0.1-0.2-0.3-0.5-0.5-0.8l-1.1-1.9
	h-0.9l2,3.5L174.1,339.7"/>
<path fill-rule="evenodd" clip-rule="evenodd" fill="#999999" d="M179.6,339.7h1l1.4-2.5c0.1-0.1,0.2-0.3,0.3-0.5
	c0.1,0.2,0.2,0.3,0.3,0.5l1.5,2.5h0.9l-2.2-3.8l2.1-3.4H184l-1.2,1.9c-0.2,0.3-0.3,0.6-0.4,0.8c-0.1-0.2-0.3-0.5-0.5-0.8l-1.1-1.9
	h-0.9l2,3.5L179.6,339.7"/>
<path fill-rule="evenodd" clip-rule="evenodd" fill="#999999" d="M184.9,439.1h0.7l1-1.8c0.1-0.1,0.2-0.2,0.2-0.4
	c0.1,0.1,0.2,0.2,0.2,0.3l1.1,1.9h0.7l-1.6-2.8l1.5-2.4h-0.6l-0.9,1.4c-0.1,0.2-0.2,0.4-0.3,0.6c-0.1-0.2-0.2-0.4-0.4-0.7l-0.7-1.3
	h-0.7l1.4,2.5L184.9,439.1"/>
<rect x="189" y="436.9" fill-rule="evenodd" clip-rule="evenodd" fill="#999999" width="1.6" height="0.6"/>
<path fill-rule="evenodd" clip-rule="evenodd" fill="#999999" d="M190.8,439.1h0.7l1-1.8c0.1-0.1,0.1-0.2,0.2-0.4
	c0.1,0.1,0.2,0.2,0.2,0.3l1.1,1.9h0.7l-1.6-2.8l1.5-2.4H194l-0.9,1.4c-0.1,0.2-0.2,0.4-0.3,0.6c-0.1-0.2-0.2-0.4-0.4-0.7l-0.7-1.3
	H191l1.4,2.5L190.8,439.1"/>
<path fill-rule="evenodd" clip-rule="evenodd" fill="#999999" d="M194.7,439.1h0.7l1.1-1.8c0-0.1,0.1-0.2,0.2-0.4
	c0,0.1,0.1,0.2,0.1,0.3l1.1,1.9h0.7l-1.6-2.8l1.5-2.4h-0.6l-0.9,1.4c-0.1,0.2-0.2,0.4-0.3,0.6c-0.1-0.2-0.2-0.4-0.3-0.7l-0.8-1.3
	h-0.7l1.5,2.5L194.7,439.1"/>
<rect x="198.8" y="436.9" fill-rule="evenodd" clip-rule="evenodd" fill="#999999" width="1.6" height="0.6"/>
<path fill-rule="evenodd" clip-rule="evenodd" fill="#999999" d="M200.6,439.1h0.7l1.1-1.8c0-0.1,0.1-0.2,0.2-0.4
	c0,0.1,0.1,0.2,0.1,0.3l1.1,1.9h0.7l-1.6-2.8l1.5-2.4h-0.6l-0.9,1.4c-0.1,0.2-0.2,0.4-0.3,0.6c-0.1-0.2-0.2-0.4-0.3-0.7l-0.8-1.3
	h-0.7l1.5,2.5L200.6,439.1"/>
<path fill-rule="evenodd" clip-rule="evenodd" fill="#999999" d="M204.6,439.1h0.6l1.1-1.8c0-0.1,0.1-0.2,0.2-0.4
	c0.1,0.1,0.1,0.2,0.2,0.3l1,1.9h0.7l-1.6-2.8l1.5-2.4h-0.6l-0.8,1.4c-0.2,0.2-0.3,0.4-0.4,0.6c0-0.2-0.2-0.4-0.3-0.7l-0.8-1.3h-0.6
	l1.4,2.5L204.6,439.1"/>
<path fill-rule="evenodd" clip-rule="evenodd" fill="#999999" d="M191.6,431h0.9l1.5-2.6c0-0.1,0.1-0.2,0.3-0.5
	c0.1,0.2,0.1,0.3,0.2,0.5l1.5,2.6h1l-2.3-3.9l2.1-3.4H196l-1.2,2c-0.2,0.3-0.4,0.5-0.5,0.8c-0.1-0.2-0.2-0.5-0.5-0.9l-1-1.9h-1
	l2,3.5L191.6,431"/>
<path fill-rule="evenodd" clip-rule="evenodd" fill="#999999" d="M197.1,431h0.9l1.5-2.6c0-0.1,0.1-0.2,0.3-0.5
	c0.1,0.2,0.1,0.3,0.2,0.5l1.5,2.6h1l-2.2-3.9l2-3.4h-0.8l-1.2,2c-0.2,0.3-0.4,0.5-0.5,0.8c-0.1-0.2-0.2-0.5-0.5-0.9l-1-1.9h-1
	l2.1,3.5L197.1,431"/>
<path fill-rule="evenodd" clip-rule="evenodd" fill="#999999" d="M341.5,439.1h0.7l1.1-1.8c0-0.1,0.1-0.2,0.2-0.4
	c0,0.1,0.1,0.2,0.1,0.3l1.1,1.9h0.7l-1.6-2.8l1.5-2.4h-0.6l-0.9,1.4c-0.1,0.2-0.2,0.4-0.3,0.6c-0.1-0.2-0.2-0.4-0.4-0.7l-0.7-1.3
	h-0.7l1.5,2.5L341.5,439.1"/>
<rect x="345.6" y="436.9" fill-rule="evenodd" clip-rule="evenodd" fill="#999999" width="1.6" height="0.6"/>
<path fill-rule="evenodd" clip-rule="evenodd" fill="#999999" d="M347.4,439.1h0.7l1-1.8c0.1-0.1,0.2-0.2,0.2-0.4
	c0.1,0.1,0.2,0.2,0.2,0.3l1.1,1.9h0.7l-1.6-2.8l1.5-2.4h-0.6l-0.9,1.4c-0.1,0.2-0.2,0.4-0.3,0.6c-0.1-0.2-0.2-0.4-0.4-0.7l-0.7-1.3
	h-0.7l1.4,2.5L347.4,439.1"/>
<path fill-rule="evenodd" clip-rule="evenodd" fill="#999999" d="M351.3,439.1h0.7l1.1-1.8c0-0.1,0.1-0.2,0.2-0.4
	c0,0.1,0.1,0.2,0.2,0.3l1,1.9h0.7l-1.6-2.8l1.5-2.4h-0.6l-0.9,1.4c-0.1,0.2-0.2,0.4-0.3,0.6c-0.1-0.2-0.2-0.4-0.3-0.7l-0.8-1.3h-0.7
	l1.5,2.5L351.3,439.1"/>
<rect x="355.4" y="436.9" fill-rule="evenodd" clip-rule="evenodd" fill="#999999" width="1.6" height="0.6"/>
<path fill-rule="evenodd" clip-rule="evenodd" fill="#999999" d="M357.2,439.1h0.7l1.1-1.8c0-0.1,0.1-0.2,0.2-0.4
	c0,0.1,0.1,0.2,0.2,0.3l1,1.9h0.7l-1.6-2.8l1.5-2.4h-0.6l-0.9,1.4c-0.1,0.2-0.2,0.4-0.3,0.6c-0.1-0.2-0.2-0.4-0.3-0.7l-0.8-1.3h-0.7
	l1.5,2.5L357.2,439.1"/>
<path fill-rule="evenodd" clip-rule="evenodd" fill="#999999" d="M361.2,439.1h0.6l1.1-1.8c0-0.1,0.1-0.2,0.2-0.4
	c0.1,0.1,0.1,0.2,0.2,0.3l1,1.9h0.7l-1.6-2.8l1.5-2.4h-0.6l-0.8,1.4c-0.2,0.2-0.3,0.4-0.4,0.6c0-0.2-0.1-0.4-0.3-0.7l-0.8-1.3h-0.6
	l1.4,2.5L361.2,439.1"/>
<path fill-rule="evenodd" clip-rule="evenodd" fill="#999999" d="M348.2,431h0.9l1.5-2.6c0-0.1,0.1-0.2,0.3-0.5
	c0.1,0.2,0.1,0.3,0.2,0.5l1.5,2.6h1l-2.2-3.9l2-3.4h-0.8l-1.2,2c-0.2,0.3-0.4,0.5-0.5,0.8c-0.1-0.2-0.2-0.5-0.5-0.9l-1-1.9h-1
	l2.1,3.5L348.2,431"/>
<path fill-rule="evenodd" clip-rule="evenodd" fill="#999999" d="M353.7,431h0.9l1.5-2.6c0.1-0.1,0.2-0.2,0.3-0.5
	c0.1,0.2,0.2,0.3,0.2,0.5l1.5,2.6h1l-2.2-3.9l2-3.4h-0.8l-1.2,2c-0.2,0.3-0.3,0.5-0.5,0.8c-0.1-0.2-0.2-0.5-0.4-0.9l-1.1-1.9h-1
	l2.1,3.5L353.7,431"/>
<path fill-rule="evenodd" clip-rule="evenodd" fill="#999999" d="M386.4,8.9c0-0.8,0.1-1.4,0.3-1.7c0.2-0.3,0.4-0.5,0.6-0.5
	c0.3,0,0.5,0.2,0.7,0.5c0.1,0.3,0.2,0.9,0.2,1.7c0,0.9-0.1,1.5-0.2,1.8c-0.2,0.3-0.4,0.5-0.7,0.5c-0.2,0-0.4-0.2-0.6-0.5
	C386.5,10.4,386.4,9.8,386.4,8.9 M385.9,8.9c0,1.1,0.1,1.8,0.4,2.2c0.3,0.4,0.6,0.6,1,0.6c0.5,0,0.9-0.2,1.1-0.7
	c0.3-0.5,0.4-1.2,0.4-2.1c0-1-0.2-1.7-0.5-2.1c-0.2-0.4-0.5-0.6-1-0.6c-0.4,0-0.8,0.2-1.1,0.7C386,7.4,385.9,8,385.9,8.9"/>
<path fill-rule="evenodd" clip-rule="evenodd" fill="#999999" d="M391.4,11.6V6.2H391c-0.1,0.2-0.2,0.5-0.5,0.7
	c-0.2,0.3-0.5,0.5-0.8,0.6v0.7c0.2-0.1,0.4-0.2,0.6-0.4c0.2-0.1,0.4-0.3,0.5-0.4v4.2H391.4"/>
<path fill-rule="evenodd" clip-rule="evenodd" fill="#999999" d="M404.3,27.1c0-0.9,0.1-1.5,0.3-1.8c0.1-0.3,0.3-0.5,0.6-0.5
	c0.2,0,0.5,0.2,0.6,0.5c0.2,0.3,0.3,0.9,0.3,1.8c0,0.8-0.1,1.4-0.3,1.7c-0.1,0.3-0.3,0.5-0.6,0.5c-0.3,0-0.5-0.2-0.6-0.5
	C404.4,28.5,404.3,27.9,404.3,27.1 M403.7,27.1c0,1,0.2,1.7,0.4,2.1c0.3,0.4,0.7,0.6,1.1,0.6c0.5,0,0.8-0.2,1.1-0.7
	c0.2-0.5,0.3-1.1,0.3-2c0-1.1-0.1-1.8-0.4-2.2c-0.2-0.4-0.6-0.6-1-0.6c-0.5,0-0.8,0.2-1.1,0.7C403.9,25.5,403.7,26.1,403.7,27.1"/>
<path fill-rule="evenodd" clip-rule="evenodd" fill="#999999" d="M410.1,29.1h-2.2c0-0.1,0.1-0.3,0.2-0.4c0.1-0.1,0.3-0.3,0.6-0.7
	c0.6-0.5,0.9-0.9,1.1-1.2c0.2-0.3,0.3-0.7,0.3-1c0-0.4-0.2-0.7-0.4-1.1c-0.2-0.3-0.6-0.4-1-0.4c-0.4,0-0.8,0.1-1,0.4
	c-0.3,0.2-0.4,0.6-0.5,1.2h0.6c0-0.3,0.1-0.6,0.2-0.8c0.2-0.2,0.4-0.3,0.7-0.3c0.2,0,0.4,0.1,0.6,0.3c0.1,0.2,0.2,0.4,0.2,0.7
	c0,0.2-0.1,0.5-0.2,0.7c-0.2,0.3-0.5,0.7-1,1.2s-0.8,0.8-0.9,1.2c-0.2,0.3-0.3,0.6-0.3,0.8h3V29.1"/>
<path fill-rule="evenodd" clip-rule="evenodd" fill="#999999" d="M386,44.8c0-0.8,0.1-1.4,0.3-1.7c0.1-0.3,0.3-0.5,0.6-0.5
	c0.2,0,0.5,0.2,0.6,0.5c0.2,0.3,0.3,0.9,0.3,1.7c0,0.9-0.1,1.5-0.3,1.8c-0.1,0.3-0.3,0.5-0.6,0.5c-0.2,0-0.5-0.2-0.6-0.5
	C386.1,46.3,386,45.7,386,44.8 M385.5,44.8c0,1.1,0.1,1.8,0.4,2.2c0.2,0.4,0.6,0.6,1,0.6c0.5,0,0.8-0.2,1.1-0.7
	c0.2-0.5,0.3-1.2,0.3-2.1c0-1-0.1-1.7-0.4-2.2c-0.2-0.3-0.6-0.5-1-0.5c-0.5,0-0.8,0.2-1.1,0.7C385.6,43.2,385.5,43.9,385.5,44.8"/>
<path fill-rule="evenodd" clip-rule="evenodd" fill="#999999" d="M388.9,46.1c0,0.4,0.2,0.8,0.5,1.1c0.2,0.3,0.5,0.4,0.9,0.4
	s0.8-0.2,1.1-0.5c0.3-0.3,0.4-0.7,0.4-1.2c0-0.2,0-0.4-0.1-0.6s-0.2-0.4-0.3-0.5c-0.1-0.1-0.2-0.2-0.4-0.2c0.2-0.1,0.3-0.3,0.4-0.5
	c0.1-0.2,0.2-0.4,0.2-0.6c0-0.4-0.1-0.8-0.4-1c-0.2-0.3-0.5-0.4-0.9-0.4c-0.3,0-0.6,0.1-0.9,0.3c-0.2,0.3-0.4,0.6-0.4,1.1l0.5,0.1
	c0-0.3,0.1-0.6,0.3-0.7c0.1-0.2,0.3-0.3,0.5-0.3c0.2,0,0.4,0.1,0.5,0.3c0.2,0.1,0.2,0.3,0.2,0.6c0,0.2-0.1,0.5-0.2,0.6
	c-0.2,0.2-0.4,0.3-0.7,0.3H390v0.5h0.4c0.2,0,0.4,0.1,0.6,0.3c0.1,0.2,0.2,0.4,0.2,0.7c0,0.4-0.1,0.6-0.3,0.8
	c-0.1,0.3-0.3,0.4-0.6,0.4c-0.5,0-0.7-0.4-0.9-1.1L388.9,46.1"/>
<path fill-rule="evenodd" clip-rule="evenodd" fill="#999999" d="M367.5,27.1c0-0.9,0.1-1.5,0.2-1.8c0.2-0.3,0.4-0.5,0.6-0.5
	c0.3,0,0.5,0.2,0.7,0.5c0.2,0.3,0.2,0.9,0.2,1.8c0,0.8,0,1.4-0.2,1.7c-0.2,0.3-0.4,0.5-0.6,0.5c-0.3,0-0.5-0.2-0.7-0.5
	C367.6,28.5,367.5,27.9,367.5,27.1 M366.9,27.1c0,1,0.1,1.7,0.4,2.1c0.3,0.4,0.6,0.6,1.1,0.6c0.4,0,0.8-0.2,1-0.7
	c0.3-0.5,0.4-1.1,0.4-2c0-1.1-0.1-1.8-0.4-2.2c-0.3-0.4-0.6-0.6-1-0.6c-0.5,0-0.9,0.2-1.1,0.7C367,25.5,366.9,26.1,366.9,27.1"/>
<path fill-rule="evenodd" clip-rule="evenodd" fill="#999999" d="M372.1,27.8h-1.4l1.4-2.4V27.8z M372.1,29.7h0.6v-1.3h0.6v-0.6
	h-0.6v-3.5h-0.5l-2,3.5v0.6h1.9V29.7"/>
<path fill-rule="evenodd" clip-rule="evenodd" fill="#999999" d="M443.2,29.4h0.6l1-1.7c0,0,0.1-0.1,0.2-0.3c0,0.1,0.1,0.2,0.1,0.3
	l1,1.7h0.6l-1.4-2.5l1.3-2.3h-0.5l-0.8,1.3c-0.1,0.2-0.2,0.4-0.3,0.5c-0.1-0.1-0.2-0.3-0.3-0.5l-0.7-1.3h-0.6l1.3,2.3L443.2,29.4"/>
<rect x="447" y="27.4" fill-rule="evenodd" clip-rule="evenodd" fill="#999999" width="1.4" height="0.6"/>
<path fill-rule="evenodd" clip-rule="evenodd" fill="#999999" d="M448.6,29.4h0.6l1-1.7c0.1,0,0.1-0.1,0.2-0.3
	c0.1,0.1,0.1,0.2,0.2,0.3l1,1.7h0.6l-1.5-2.5l1.4-2.3h-0.6l-0.8,1.3c-0.1,0.2-0.2,0.4-0.3,0.5c0-0.1-0.1-0.3-0.3-0.5l-0.7-1.3h-0.6
	l1.3,2.3L448.6,29.4"/>
<path fill-rule="evenodd" clip-rule="evenodd" fill="#999999" d="M452.3,29.4h0.6l1-1.7c0,0,0.1-0.1,0.1-0.3
	c0.1,0.1,0.2,0.2,0.2,0.3l1,1.7h0.6l-1.4-2.5l1.3-2.3h-0.5l-0.8,1.3c-0.1,0.2-0.2,0.4-0.3,0.5c-0.1-0.1-0.2-0.3-0.3-0.5l-0.8-1.3
	h-0.6l1.4,2.3L452.3,29.4"/>
<rect x="456" y="27.4" fill-rule="evenodd" clip-rule="evenodd" fill="#999999" width="1.5" height="0.6"/>
<path fill-rule="evenodd" clip-rule="evenodd" fill="#999999" d="M457.7,29.4h0.6l1-1.7c0,0,0.1-0.1,0.2-0.3c0,0.1,0.1,0.2,0.2,0.3
	l0.9,1.7h0.7l-1.5-2.5l1.4-2.3h-0.6l-0.8,1.3c-0.1,0.2-0.2,0.4-0.3,0.5c0-0.1-0.1-0.3-0.3-0.5l-0.7-1.3h-0.6l1.3,2.3L457.7,29.4"/>
<path fill-rule="evenodd" clip-rule="evenodd" fill="#999999" d="M461.3,29.4h0.7l0.9-1.7c0.1,0,0.1-0.1,0.2-0.3
	c0.1,0.1,0.1,0.2,0.2,0.3l1,1.7h0.6l-1.5-2.5l1.4-2.3h-0.6l-0.7,1.3c-0.2,0.2-0.3,0.4-0.3,0.5c-0.1-0.1-0.2-0.3-0.4-0.5l-0.7-1.3
	h-0.6l1.3,2.3L461.3,29.4"/>
<path fill-rule="evenodd" clip-rule="evenodd" fill="#999999" d="M452,8.9c0-0.8,0-1.4,0.2-1.7c0.2-0.3,0.4-0.5,0.6-0.5
	c0.3,0,0.5,0.2,0.7,0.5c0.2,0.3,0.2,0.9,0.2,1.7c0,0.9,0,1.5-0.2,1.8c-0.2,0.3-0.4,0.5-0.6,0.5c-0.3,0-0.5-0.2-0.7-0.5
	C452,10.4,452,9.8,452,8.9 M451.4,8.9c0,1.1,0.1,1.8,0.4,2.2c0.3,0.4,0.6,0.6,1,0.6c0.5,0,0.9-0.2,1.1-0.7c0.3-0.5,0.4-1.2,0.4-2.1
	c0-1-0.1-1.7-0.4-2.1c-0.3-0.4-0.6-0.6-1-0.6c-0.5,0-0.9,0.2-1.1,0.7C451.5,7.4,451.4,8,451.4,8.9"/>
<path fill-rule="evenodd" clip-rule="evenodd" fill="#999999" d="M456.9,11.6V6.2h-0.4c0,0.2-0.2,0.5-0.4,0.7
	c-0.3,0.3-0.5,0.5-0.8,0.6v0.7c0.1-0.1,0.3-0.2,0.5-0.4c0.3-0.1,0.4-0.3,0.6-0.4v4.2H456.9"/>
<path fill-rule="evenodd" clip-rule="evenodd" fill="#999999" d="M469.8,27.1c0-0.9,0.1-1.5,0.3-1.8c0.1-0.3,0.3-0.5,0.6-0.5
	s0.5,0.2,0.7,0.5c0.1,0.3,0.2,0.9,0.2,1.8c0,0.8-0.1,1.4-0.2,1.7c-0.2,0.3-0.4,0.5-0.7,0.5c-0.2,0-0.5-0.2-0.6-0.5
	C469.9,28.5,469.8,27.9,469.8,27.1 M469.3,27.1c0,1,0.1,1.7,0.4,2.1c0.2,0.4,0.6,0.6,1,0.6c0.5,0,0.9-0.2,1.1-0.7
	c0.2-0.5,0.4-1.1,0.4-2c0-1.1-0.2-1.8-0.5-2.2c-0.2-0.4-0.6-0.6-1-0.6c-0.5,0-0.8,0.2-1.1,0.7C469.4,25.5,469.3,26.1,469.3,27.1"/>
<path fill-rule="evenodd" clip-rule="evenodd" fill="#999999" d="M475.6,29.1h-2.2c0.1-0.1,0.1-0.3,0.2-0.4c0.1-0.1,0.3-0.3,0.7-0.7
	c0.5-0.5,0.8-0.9,1-1.2c0.2-0.3,0.3-0.7,0.3-1c0-0.4-0.1-0.7-0.4-1.1c-0.2-0.3-0.5-0.4-1-0.4c-0.4,0-0.7,0.1-1,0.4
	c-0.3,0.2-0.4,0.6-0.4,1.2h0.5c0-0.3,0.1-0.6,0.3-0.8c0.1-0.2,0.3-0.3,0.6-0.3c0.2,0,0.4,0.1,0.6,0.3c0.1,0.2,0.2,0.4,0.2,0.7
	c0,0.2-0.1,0.5-0.2,0.7c-0.2,0.3-0.5,0.7-1,1.2s-0.8,0.8-0.9,1.2c-0.2,0.3-0.3,0.6-0.2,0.8h2.9V29.1"/>
<path fill-rule="evenodd" clip-rule="evenodd" fill="#999999" d="M451.5,44.8c0-0.8,0.1-1.4,0.3-1.7c0.2-0.3,0.4-0.5,0.6-0.5
	c0.3,0,0.5,0.2,0.7,0.5c0.1,0.3,0.2,0.9,0.2,1.7c0,0.9-0.1,1.5-0.2,1.8c-0.2,0.3-0.4,0.5-0.7,0.5c-0.2,0-0.4-0.2-0.6-0.5
	C451.6,46.3,451.5,45.7,451.5,44.8 M451,44.8c0,1.1,0.1,1.8,0.4,2.2s0.6,0.6,1,0.6c0.5,0,0.9-0.2,1.1-0.7c0.3-0.5,0.4-1.2,0.4-2.1
	c0-1-0.2-1.7-0.5-2.2c-0.2-0.3-0.5-0.5-1-0.5c-0.4,0-0.8,0.2-1.1,0.7C451.1,43.2,451,43.9,451,44.8"/>
<path fill-rule="evenodd" clip-rule="evenodd" fill="#999999" d="M454.4,46.1c0.1,0.4,0.2,0.8,0.5,1.1c0.2,0.3,0.6,0.4,0.9,0.4
	c0.4,0,0.8-0.2,1.1-0.5c0.3-0.3,0.4-0.7,0.4-1.2c0-0.2,0-0.4-0.1-0.6c-0.1-0.2-0.1-0.4-0.3-0.5c-0.1-0.1-0.2-0.2-0.4-0.2
	c0.2-0.1,0.3-0.3,0.5-0.5c0.1-0.2,0.1-0.4,0.1-0.6c0-0.4-0.1-0.8-0.4-1c-0.2-0.3-0.5-0.4-0.9-0.4c-0.3,0-0.6,0.1-0.9,0.3
	c-0.2,0.3-0.4,0.6-0.4,1.1l0.5,0.1c0.1-0.3,0.2-0.6,0.3-0.7c0.1-0.2,0.3-0.3,0.5-0.3s0.4,0.1,0.5,0.3c0.2,0.1,0.3,0.3,0.3,0.6
	c0,0.2-0.1,0.5-0.3,0.6c-0.2,0.2-0.4,0.3-0.7,0.3l-0.1,0.5h0.4c0.2,0,0.4,0.1,0.6,0.3c0.2,0.2,0.2,0.4,0.2,0.7c0,0.4,0,0.6-0.2,0.8
	c-0.2,0.3-0.4,0.4-0.7,0.4c-0.4,0-0.7-0.4-0.8-1.1L454.4,46.1"/>
<path fill-rule="evenodd" clip-rule="evenodd" fill="#999999" d="M433,27.1c0-0.9,0.1-1.5,0.2-1.8c0.2-0.3,0.4-0.5,0.7-0.5
	c0.2,0,0.4,0.2,0.6,0.5c0.2,0.3,0.3,0.9,0.3,1.8c0,0.8-0.1,1.4-0.3,1.7c-0.1,0.3-0.4,0.5-0.6,0.5c-0.3,0-0.5-0.2-0.7-0.5
	C433.1,28.5,433,27.9,433,27.1 M432.4,27.1c0,1,0.2,1.7,0.4,2.1c0.3,0.4,0.7,0.6,1.1,0.6c0.5,0,0.8-0.2,1.1-0.7
	c0.2-0.5,0.3-1.1,0.3-2c0-1.1-0.1-1.8-0.4-2.2c-0.3-0.4-0.6-0.6-1-0.6c-0.5,0-0.9,0.2-1.1,0.7C432.6,25.5,432.4,26.1,432.4,27.1"/>
<path fill-rule="evenodd" clip-rule="evenodd" fill="#999999" d="M437.6,27.8h-1.4l1.4-2.4V27.8z M437.6,29.7h0.6v-1.3h0.6v-0.6
	h-0.6v-3.5h-0.5l-2,3.5v0.6h1.9V29.7"/>
</svg>
