<?xml version="1.0" encoding="utf-8"?>
<svg version="1.1" width="75%" xmlns="http://www.w3.org/2000/svg" xmlns:xlink="http://www.w3.org/1999/xlink" x="0px" y="0px"
	 viewBox="0 0 82.6 7.5" enable-background="new 0 0 82.6 7.5" xml:space="preserve">
<line fill="none" stroke="#000000" stroke-width="0.958" stroke-linejoin="round" stroke-miterlimit="1.414" x1="0" y1="7.5" x2="82.6" y2="7.5"/>
<line fill="none" stroke="#000000" stroke-width="0.24" stroke-linejoin="bevel" stroke-miterlimit="1.414" x1="0" y1="2.3" x2="2.2" y2="0"/>
<line fill="none" stroke="#000000" stroke-width="0.24" stroke-linejoin="bevel" stroke-miterlimit="1.414" x1="72.9" y1="7.5" x2="80.3" y2="0"/>
<line fill="none" stroke="#000000" stroke-width="0.24" stroke-linejoin="bevel" stroke-miterlimit="1.414" x1="76.3" y1="7.5" x2="82.6" y2="1.2"/>
<line fill="none" stroke="#000000" stroke-width="0.24" stroke-linejoin="bevel" stroke-miterlimit="1.414" x1="62.7" y1="7.5" x2="70.1" y2="0"/>
<line fill="none" stroke="#000000" stroke-width="0.24" stroke-linejoin="bevel" stroke-miterlimit="1.414" x1="66.1" y1="7.5" x2="73.6" y2="0"/>
<line fill="none" stroke="#000000" stroke-width="0.24" stroke-linejoin="bevel" stroke-miterlimit="1.414" x1="52.5" y1="7.5" x2="59.9" y2="0"/>
<line fill="none" stroke="#000000" stroke-width="0.24" stroke-linejoin="bevel" stroke-miterlimit="1.414" x1="55.9" y1="7.5" x2="63.4" y2="0"/>
<line fill="none" stroke="#000000" stroke-width="0.24" stroke-linejoin="bevel" stroke-miterlimit="1.414" x1="42.3" y1="7.5" x2="49.7" y2="0"/>
<line fill="none" stroke="#000000" stroke-width="0.24" stroke-linejoin="bevel" stroke-miterlimit="1.414" x1="45.7" y1="7.5" x2="53.2" y2="0"/>
<line fill="none" stroke="#000000" stroke-width="0.24" stroke-linejoin="bevel" stroke-miterlimit="1.414" x1="32.1" y1="7.5" x2="39.5" y2="0"/>
<line fill="none" stroke="#000000" stroke-width="0.24" stroke-linejoin="bevel" stroke-miterlimit="1.414" x1="35.5" y1="7.5" x2="43" y2="0"/>
<line fill="none" stroke="#000000" stroke-width="0.24" stroke-linejoin="bevel" stroke-miterlimit="1.414" x1="22" y1="7.5" x2="29.4" y2="0"/>
<line fill="none" stroke="#000000" stroke-width="0.24" stroke-linejoin="bevel" stroke-miterlimit="1.414" x1="25.4" y1="7.5" x2="32.8" y2="0"/>
<line fill="none" stroke="#000000" stroke-width="0.24" stroke-linejoin="bevel" stroke-miterlimit="1.414" x1="11.8" y1="7.5" x2="19.2" y2="0"/>
<line fill="none" stroke="#000000" stroke-width="0.24" stroke-linejoin="bevel" stroke-miterlimit="1.414" x1="15.2" y1="7.5" x2="22.6" y2="0"/>
<line fill="none" stroke="#000000" stroke-width="0.24" stroke-linejoin="bevel" stroke-miterlimit="1.414" x1="5" y1="7.5" x2="12.4" y2="0"/>
<line fill="none" stroke="#000000" stroke-width="0.24" stroke-linejoin="bevel" stroke-miterlimit="1.414" x1="1.6" y1="7.5" x2="9" y2="0"/>
<line fill="none" stroke="#000000" stroke-width="0.958" stroke-linejoin="round" stroke-miterlimit="1.414" x1="0" y1="0" x2="82.6" y2="0"/>
</svg>
