<?xml version="1.0" encoding="utf-8"?>
<svg width="75%" xmlns="http://www.w3.org/2000/svg" xmlns:xlink="http://www.w3.org/1999/xlink" x="0px" y="0px"
	 viewBox="0 0 82.6 7.4" enable-background="new 0 0 82.6 7.4" xml:space="preserve">
<line fill="none" stroke="#000000" stroke-width="0.958" stroke-linejoin="round" stroke-miterlimit="1.414" x1="0" y1="0" x2="82.6" y2="0"/>
<line fill="none" stroke="#000000" stroke-width="0.958" stroke-linejoin="round" stroke-miterlimit="1.414" x1="0" y1="7.4" x2="82.6" y2="7.4"/>
<line fill="none" stroke="#000000" stroke-width="0.24" stroke-linejoin="bevel" stroke-miterlimit="1.414" x1="4.1" y1="1.8" x2="5.9" y2="0"/>
<line fill="none" stroke="#000000" stroke-width="0.24" stroke-linejoin="bevel" stroke-miterlimit="1.414" x1="1.3" y1="4.6" x2="3.1" y2="2.8"/>
<line fill="none" stroke="#000000" stroke-width="0.24" stroke-linejoin="bevel" stroke-miterlimit="1.414" x1="0" y1="2.5" x2="2.5" y2="0"/>
<line fill="none" stroke="#000000" stroke-width="0.24" stroke-linejoin="bevel" stroke-miterlimit="1.414" x1="5.1" y1="7.4" x2="6.9" y2="5.6"/>
<line fill="none" stroke="#000000" stroke-width="0.24" stroke-linejoin="bevel" stroke-miterlimit="1.414" x1="10.7" y1="1.8" x2="12.5" y2="0"/>
<line fill="none" stroke="#000000" stroke-width="0.24" stroke-linejoin="bevel" stroke-miterlimit="1.414" x1="7.9" y1="4.6" x2="9.7" y2="2.8"/>
<line fill="none" stroke="#000000" stroke-width="0.24" stroke-linejoin="bevel" stroke-miterlimit="1.414" x1="1.7" y1="7.4" x2="9.2" y2="0"/>
<line fill="none" stroke="#000000" stroke-width="0.24" stroke-linejoin="bevel" stroke-miterlimit="1.414" x1="81.2" y1="7.4" x2="82.6" y2="6"/>
<line fill="none" stroke="#000000" stroke-width="0.24" stroke-linejoin="bevel" stroke-miterlimit="1.414" x1="77.9" y1="7.4" x2="79.7" y2="5.6"/>
<line fill="none" stroke="#000000" stroke-width="0.24" stroke-linejoin="bevel" stroke-miterlimit="1.414" x1="80.8" y1="4.6" x2="82.5" y2="2.8"/>
<line fill="none" stroke="#000000" stroke-width="0.24" stroke-linejoin="bevel" stroke-miterlimit="1.414" x1="74.6" y1="7.4" x2="82" y2="0"/>
<line fill="none" stroke="#000000" stroke-width="0.24" stroke-linejoin="bevel" stroke-miterlimit="1.414" x1="71.3" y1="7.4" x2="73.1" y2="5.6"/>
<line fill="none" stroke="#000000" stroke-width="0.24" stroke-linejoin="bevel" stroke-miterlimit="1.414" x1="76.9" y1="1.8" x2="78.7" y2="0"/>
<line fill="none" stroke="#000000" stroke-width="0.24" stroke-linejoin="bevel" stroke-miterlimit="1.414" x1="74.1" y1="4.6" x2="75.9" y2="2.8"/>
<line fill="none" stroke="#000000" stroke-width="0.24" stroke-linejoin="bevel" stroke-miterlimit="1.414" x1="67.9" y1="7.4" x2="75.4" y2="0"/>
<line fill="none" stroke="#000000" stroke-width="0.24" stroke-linejoin="bevel" stroke-miterlimit="1.414" x1="64.6" y1="7.4" x2="66.5" y2="5.6"/>
<line fill="none" stroke="#000000" stroke-width="0.24" stroke-linejoin="bevel" stroke-miterlimit="1.414" x1="70.3" y1="1.8" x2="72.1" y2="0"/>
<line fill="none" stroke="#000000" stroke-width="0.24" stroke-linejoin="bevel" stroke-miterlimit="1.414" x1="67.5" y1="4.6" x2="69.3" y2="2.8"/>
<line fill="none" stroke="#000000" stroke-width="0.24" stroke-linejoin="bevel" stroke-miterlimit="1.414" x1="61.3" y1="7.4" x2="68.8" y2="0"/>
<line fill="none" stroke="#000000" stroke-width="0.24" stroke-linejoin="bevel" stroke-miterlimit="1.414" x1="58" y1="7.4" x2="59.8" y2="5.6"/>
<line fill="none" stroke="#000000" stroke-width="0.24" stroke-linejoin="bevel" stroke-miterlimit="1.414" x1="63.7" y1="1.8" x2="65.4" y2="0"/>
<line fill="none" stroke="#000000" stroke-width="0.24" stroke-linejoin="bevel" stroke-miterlimit="1.414" x1="60.9" y1="4.6" x2="62.7" y2="2.8"/>
<line fill="none" stroke="#000000" stroke-width="0.24" stroke-linejoin="bevel" stroke-miterlimit="1.414" x1="54.7" y1="7.4" x2="62.1" y2="0"/>
<line fill="none" stroke="#000000" stroke-width="0.24" stroke-linejoin="bevel" stroke-miterlimit="1.414" x1="51.4" y1="7.4" x2="53.2" y2="5.6"/>
<line fill="none" stroke="#000000" stroke-width="0.24" stroke-linejoin="bevel" stroke-miterlimit="1.414" x1="57" y1="1.8" x2="58.8" y2="0"/>
<line fill="none" stroke="#000000" stroke-width="0.24" stroke-linejoin="bevel" stroke-miterlimit="1.414" x1="54.2" y1="4.6" x2="56" y2="2.8"/>
<line fill="none" stroke="#000000" stroke-width="0.24" stroke-linejoin="bevel" stroke-miterlimit="1.414" x1="48.1" y1="7.4" x2="55.5" y2="0"/>
<line fill="none" stroke="#000000" stroke-width="0.24" stroke-linejoin="bevel" stroke-miterlimit="1.414" x1="44.7" y1="7.4" x2="46.6" y2="5.6"/>
<line fill="none" stroke="#000000" stroke-width="0.24" stroke-linejoin="bevel" stroke-miterlimit="1.414" x1="50.4" y1="1.8" x2="52.2" y2="0"/>
<line fill="none" stroke="#000000" stroke-width="0.24" stroke-linejoin="bevel" stroke-miterlimit="1.414" x1="47.6" y1="4.6" x2="49.4" y2="2.8"/>
<line fill="none" stroke="#000000" stroke-width="0.24" stroke-linejoin="bevel" stroke-miterlimit="1.414" x1="41.4" y1="7.4" x2="48.9" y2="0"/>
<line fill="none" stroke="#000000" stroke-width="0.24" stroke-linejoin="bevel" stroke-miterlimit="1.414" x1="38.1" y1="7.4" x2="39.9" y2="5.6"/>
<line fill="none" stroke="#000000" stroke-width="0.24" stroke-linejoin="bevel" stroke-miterlimit="1.414" x1="43.8" y1="1.8" x2="45.5" y2="0"/>
<line fill="none" stroke="#000000" stroke-width="0.24" stroke-linejoin="bevel" stroke-miterlimit="1.414" x1="41" y1="4.6" x2="42.8" y2="2.8"/>
<line fill="none" stroke="#000000" stroke-width="0.24" stroke-linejoin="bevel" stroke-miterlimit="1.414" x1="34.8" y1="7.4" x2="42.2" y2="0"/>
<line fill="none" stroke="#000000" stroke-width="0.24" stroke-linejoin="bevel" stroke-miterlimit="1.414" x1="31.6" y1="7.4" x2="33.3" y2="5.6"/>
<line fill="none" stroke="#000000" stroke-width="0.24" stroke-linejoin="bevel" stroke-miterlimit="1.414" x1="37.2" y1="1.8" x2="38.9" y2="0"/>
<line fill="none" stroke="#000000" stroke-width="0.24" stroke-linejoin="bevel" stroke-miterlimit="1.414" x1="34.3" y1="4.6" x2="36.1" y2="2.8"/>
<line fill="none" stroke="#000000" stroke-width="0.24" stroke-linejoin="bevel" stroke-miterlimit="1.414" x1="28.3" y1="7.4" x2="35.6" y2="0"/>
<line fill="none" stroke="#000000" stroke-width="0.24" stroke-linejoin="bevel" stroke-miterlimit="1.414" x1="24.9" y1="7.4" x2="26.8" y2="5.6"/>
<line fill="none" stroke="#000000" stroke-width="0.24" stroke-linejoin="bevel" stroke-miterlimit="1.414" x1="30.6" y1="1.8" x2="32.3" y2="0"/>
<line fill="none" stroke="#000000" stroke-width="0.24" stroke-linejoin="bevel" stroke-miterlimit="1.414" x1="27.8" y1="4.6" x2="29.6" y2="2.8"/>
<line fill="none" stroke="#000000" stroke-width="0.24" stroke-linejoin="bevel" stroke-miterlimit="1.414" x1="21.6" y1="7.4" x2="29.1" y2="0"/>
<line fill="none" stroke="#000000" stroke-width="0.24" stroke-linejoin="bevel" stroke-miterlimit="1.414" x1="18.3" y1="7.4" x2="20.2" y2="5.6"/>
<line fill="none" stroke="#000000" stroke-width="0.24" stroke-linejoin="bevel" stroke-miterlimit="1.414" x1="24" y1="1.8" x2="25.8" y2="0"/>
<line fill="none" stroke="#000000" stroke-width="0.24" stroke-linejoin="bevel" stroke-miterlimit="1.414" x1="21.2" y1="4.6" x2="23" y2="2.8"/>
<line fill="none" stroke="#000000" stroke-width="0.24" stroke-linejoin="bevel" stroke-miterlimit="1.414" x1="15" y1="7.4" x2="22.4" y2="0"/>
<line fill="none" stroke="#000000" stroke-width="0.24" stroke-linejoin="bevel" stroke-miterlimit="1.414" x1="11.7" y1="7.4" x2="13.5" y2="5.6"/>
<line fill="none" stroke="#000000" stroke-width="0.24" stroke-linejoin="bevel" stroke-miterlimit="1.414" x1="17.4" y1="1.8" x2="19.1" y2="0"/>
<line fill="none" stroke="#000000" stroke-width="0.24" stroke-linejoin="bevel" stroke-miterlimit="1.414" x1="14.5" y1="4.6" x2="16.3" y2="2.8"/>
<line fill="none" stroke="#000000" stroke-width="0.24" stroke-linejoin="bevel" stroke-miterlimit="1.414" x1="8.4" y1="7.4" x2="15.8" y2="0"/>
</svg>
