<?xml version="1.0" encoding="utf-8"?>
<!-- Generator: Adobe Illustrator 18.1.1, SVG Export Plug-In . SVG Version: 6.00 Build 0)  -->
<svg version="1.1" id="Layer_1" xmlns="http://www.w3.org/2000/svg" xmlns:xlink="http://www.w3.org/1999/xlink" x="0px" y="0px"
	 viewBox="0 0 82.6 8.8" enable-background="new 0 0 82.6 8.8" xml:space="preserve">
<line fill="none" stroke="#000000" stroke-width="0.958" stroke-linejoin="round" stroke-miterlimit="1.414" x1="0" y1="0" x2="82.6" y2="0"/>
<line fill="none" stroke="#000000" stroke-width="0.24" stroke-linejoin="bevel" stroke-miterlimit="1.414" x1="0" y1="5" x2="5.1" y2="0"/>
<line fill="none" stroke="#000000" stroke-width="0.24" stroke-linejoin="bevel" stroke-miterlimit="1.414" x1="0" y1="0.9" x2="1" y2="0"/>
<line fill="none" stroke="#000000" stroke-width="0.24" stroke-linejoin="bevel" stroke-miterlimit="1.414" x1="81.8" y1="8.8" x2="82.5" y2="8.1"/>
<line fill="none" stroke="#000000" stroke-width="0.24" stroke-linejoin="bevel" stroke-miterlimit="1.414" x1="77.8" y1="8.8" x2="82.5" y2="4"/>
<line fill="none" stroke="#000000" stroke-width="0.24" stroke-linejoin="bevel" stroke-miterlimit="1.414" x1="73.7" y1="8.8" x2="82.5" y2="0"/>
<line fill="none" stroke="#000000" stroke-width="0.24" stroke-linejoin="bevel" stroke-miterlimit="1.414" x1="69.6" y1="8.8" x2="78.4" y2="0"/>
<line fill="none" stroke="#000000" stroke-width="0.24" stroke-linejoin="bevel" stroke-miterlimit="1.414" x1="65.5" y1="8.8" x2="74.4" y2="0"/>
<line fill="none" stroke="#000000" stroke-width="0.24" stroke-linejoin="bevel" stroke-miterlimit="1.414" x1="61.4" y1="8.8" x2="70.3" y2="0"/>
<line fill="none" stroke="#000000" stroke-width="0.24" stroke-linejoin="bevel" stroke-miterlimit="1.414" x1="57.4" y1="8.8" x2="66.2" y2="0"/>
<line fill="none" stroke="#000000" stroke-width="0.24" stroke-linejoin="bevel" stroke-miterlimit="1.414" x1="53.3" y1="8.8" x2="62.1" y2="0"/>
<line fill="none" stroke="#000000" stroke-width="0.24" stroke-linejoin="bevel" stroke-miterlimit="1.414" x1="49.2" y1="8.8" x2="58" y2="0"/>
<line fill="none" stroke="#000000" stroke-width="0.24" stroke-linejoin="bevel" stroke-miterlimit="1.414" x1="45.1" y1="8.8" x2="54" y2="0"/>
<line fill="none" stroke="#000000" stroke-width="0.24" stroke-linejoin="bevel" stroke-miterlimit="1.414" x1="41" y1="8.8" x2="49.9" y2="0"/>
<line fill="none" stroke="#000000" stroke-width="0.24" stroke-linejoin="bevel" stroke-miterlimit="1.414" x1="37" y1="8.8" x2="45.8" y2="0"/>
<line fill="none" stroke="#000000" stroke-width="0.24" stroke-linejoin="bevel" stroke-miterlimit="1.414" x1="32.9" y1="8.8" x2="41.7" y2="0"/>
<line fill="none" stroke="#000000" stroke-width="0.24" stroke-linejoin="bevel" stroke-miterlimit="1.414" x1="28.9" y1="8.8" x2="37.6" y2="0"/>
<line fill="none" stroke="#000000" stroke-width="0.24" stroke-linejoin="bevel" stroke-miterlimit="1.414" x1="24.8" y1="8.8" x2="33.6" y2="0"/>
<line fill="none" stroke="#000000" stroke-width="0.24" stroke-linejoin="bevel" stroke-miterlimit="1.414" x1="20.7" y1="8.8" x2="29.6" y2="0"/>
<line fill="none" stroke="#000000" stroke-width="0.24" stroke-linejoin="bevel" stroke-miterlimit="1.414" x1="16.7" y1="8.8" x2="25.5" y2="0"/>
<line fill="none" stroke="#000000" stroke-width="0.24" stroke-linejoin="bevel" stroke-miterlimit="1.414" x1="12.6" y1="8.8" x2="21.4" y2="0"/>
<line fill="none" stroke="#000000" stroke-width="0.24" stroke-linejoin="bevel" stroke-miterlimit="1.414" x1="8.5" y1="8.8" x2="17.3" y2="0"/>
<line fill="none" stroke="#000000" stroke-width="0.24" stroke-linejoin="bevel" stroke-miterlimit="1.414" x1="4.4" y1="8.8" x2="13.3" y2="0"/>
<line fill="none" stroke="#000000" stroke-width="0.24" stroke-linejoin="bevel" stroke-miterlimit="1.414" x1="0.3" y1="8.8" x2="9.2" y2="0"/>
</svg>
