<?xml version="1.0" encoding="utf-8"?>
<!-- Generator: Adobe Illustrator 18.1.1, SVG Export Plug-In . SVG Version: 6.00 Build 0)  -->
<svg version="1.1" id="Layer_1" xmlns="http://www.w3.org/2000/svg" xmlns:xlink="http://www.w3.org/1999/xlink" x="0px" y="0px"
	 viewBox="0 0 51 13.1" enable-background="new 0 0 51 13.1" xml:space="preserve">
<line fill="none" stroke="#000000" stroke-width="0.958" stroke-linejoin="round" stroke-miterlimit="1.414" x1="51" y1="13.1" x2="0" y2="13.1"/>
<line fill="none" stroke="#000000" stroke-width="0.958" stroke-linejoin="round" stroke-miterlimit="1.414" x1="51" y1="0" x2="0" y2="0"/>
<line fill="none" stroke="#000000" stroke-width="0.24" stroke-linejoin="bevel" stroke-miterlimit="1.414" x1="40" y1="6.4" x2="40.3" y2="6.7"/>
<line fill="none" stroke="#000000" stroke-width="0.24" stroke-linejoin="bevel" stroke-miterlimit="1.414" x1="40.7" y1="4.9" x2="40.9" y2="5.2"/>
<line fill="none" stroke="#000000" stroke-width="0.24" stroke-linejoin="bevel" stroke-miterlimit="1.414" x1="48.2" y1="3.7" x2="47.7" y2="3.7"/>
<line fill="none" stroke="#000000" stroke-width="0.24" stroke-linejoin="bevel" stroke-miterlimit="1.414" x1="49.5" y1="2.7" x2="49.5" y2="3.3"/>
<line fill="none" stroke="#000000" stroke-width="0.24" stroke-linejoin="bevel" stroke-miterlimit="1.414" x1="48.8" y1="1.5" x2="48.8" y2="2"/>
<line fill="none" stroke="#000000" stroke-width="0.24" stroke-linejoin="bevel" stroke-miterlimit="1.414" x1="48.1" y1="2.8" x2="48.6" y2="2.8"/>
<line fill="none" stroke="#000000" stroke-width="0.24" stroke-linejoin="bevel" stroke-miterlimit="1.414" x1="43.5" y1="2.5" x2="43" y2="2.5"/>
<line fill="none" stroke="#000000" stroke-width="0.24" stroke-linejoin="bevel" stroke-miterlimit="1.414" x1="44.7" y1="1.5" x2="44.7" y2="2"/>
<line fill="none" stroke="#000000" stroke-width="0.24" stroke-linejoin="bevel" stroke-miterlimit="1.414" x1="44.1" y1="0.2" x2="44.1" y2="0.7"/>
<line fill="none" stroke="#000000" stroke-width="0.24" stroke-linejoin="bevel" stroke-miterlimit="1.414" x1="43.4" y1="1.5" x2="43.9" y2="1.5"/>
<line fill="none" stroke="#000000" stroke-width="0.24" stroke-linejoin="bevel" stroke-miterlimit="1.414" x1="33.1" y1="8.2" x2="32.6" y2="8.2"/>
<line fill="none" stroke="#000000" stroke-width="0.24" stroke-linejoin="bevel" stroke-miterlimit="1.414" x1="34.3" y1="7.2" x2="34.3" y2="7.7"/>
<line fill="none" stroke="#000000" stroke-width="0.24" stroke-linejoin="bevel" stroke-miterlimit="1.414" x1="33.7" y1="5.9" x2="33.7" y2="6.4"/>
<line fill="none" stroke="#000000" stroke-width="0.24" stroke-linejoin="bevel" stroke-miterlimit="1.414" x1="33" y1="7.2" x2="33.5" y2="7.2"/>
<line fill="none" stroke="#000000" stroke-width="0.24" stroke-linejoin="bevel" stroke-miterlimit="1.414" x1="29.6" y1="11.4" x2="29.1" y2="11.4"/>
<line fill="none" stroke="#000000" stroke-width="0.24" stroke-linejoin="bevel" stroke-miterlimit="1.414" x1="30.8" y1="10.4" x2="30.8" y2="11"/>
<line fill="none" stroke="#000000" stroke-width="0.24" stroke-linejoin="bevel" stroke-miterlimit="1.414" x1="30.2" y1="9.2" x2="30.2" y2="9.7"/>
<line fill="none" stroke="#000000" stroke-width="0.24" stroke-linejoin="bevel" stroke-miterlimit="1.414" x1="29.5" y1="10.5" x2="30" y2="10.5"/>
<line fill="none" stroke="#000000" stroke-width="0.24" stroke-linejoin="bevel" stroke-miterlimit="1.414" x1="17.4" y1="3.2" x2="16.9" y2="3.2"/>
<line fill="none" stroke="#000000" stroke-width="0.24" stroke-linejoin="bevel" stroke-miterlimit="1.414" x1="18.6" y1="2.2" x2="18.6" y2="2.7"/>
<line fill="none" stroke="#000000" stroke-width="0.24" stroke-linejoin="bevel" stroke-miterlimit="1.414" x1="18" y1="0.9" x2="18" y2="1.4"/>
<line fill="none" stroke="#000000" stroke-width="0.24" stroke-linejoin="bevel" stroke-miterlimit="1.414" x1="17.3" y1="2.3" x2="17.8" y2="2.3"/>
<line fill="none" stroke="#000000" stroke-width="0.24" stroke-linejoin="bevel" stroke-miterlimit="1.414" x1="15.3" y1="11" x2="15" y2="11.3"/>
<line fill="none" stroke="#000000" stroke-width="0.24" stroke-linejoin="bevel" stroke-miterlimit="1.414" x1="12.4" y1="12.1" x2="12.1" y2="12.4"/>
<line fill="none" stroke="#000000" stroke-width="0.24" stroke-linejoin="bevel" stroke-miterlimit="1.414" x1="12.4" y1="11.1" x2="12.8" y2="11.1"/>
<line fill="none" stroke="#000000" stroke-width="0.24" stroke-linejoin="bevel" stroke-miterlimit="1.414" x1="12.1" y1="10.5" x2="11.6" y2="10.5"/>
<line fill="none" stroke="#000000" stroke-width="0.24" stroke-linejoin="bevel" stroke-miterlimit="1.414" x1="13.3" y1="9.5" x2="13.3" y2="10"/>
<line fill="none" stroke="#000000" stroke-width="0.24" stroke-linejoin="bevel" stroke-miterlimit="1.414" x1="12.7" y1="8.2" x2="12.7" y2="8.7"/>
<line fill="none" stroke="#000000" stroke-width="0.24" stroke-linejoin="bevel" stroke-miterlimit="1.414" x1="12" y1="9.5" x2="12.5" y2="9.5"/>
<line fill="none" stroke="#000000" stroke-width="0.24" stroke-linejoin="bevel" stroke-miterlimit="1.414" x1="46.6" y1="9.3" x2="46.3" y2="9.7"/>
<line fill="none" stroke="#000000" stroke-width="0.24" stroke-linejoin="bevel" stroke-miterlimit="1.414" x1="43.7" y1="10.4" x2="43.4" y2="10.7"/>
<line fill="none" stroke="#000000" stroke-width="0.24" stroke-linejoin="bevel" stroke-miterlimit="1.414" x1="43.7" y1="9.4" x2="44.1" y2="9.4"/>
<line fill="none" stroke="#000000" stroke-width="0.24" stroke-linejoin="bevel" stroke-miterlimit="1.414" x1="43.4" y1="8.8" x2="42.9" y2="8.8"/>
<line fill="none" stroke="#000000" stroke-width="0.24" stroke-linejoin="bevel" stroke-miterlimit="1.414" x1="44.6" y1="7.8" x2="44.6" y2="8.3"/>
<line fill="none" stroke="#000000" stroke-width="0.24" stroke-linejoin="bevel" stroke-miterlimit="1.414" x1="44" y1="6.6" x2="44" y2="7.1"/>
<line fill="none" stroke="#000000" stroke-width="0.24" stroke-linejoin="bevel" stroke-miterlimit="1.414" x1="43.3" y1="7.9" x2="43.8" y2="7.9"/>
<line fill="none" stroke="#000000" stroke-width="0.24" stroke-linejoin="bevel" stroke-miterlimit="1.414" x1="38.5" y1="4.8" x2="38.2" y2="5.2"/>
<line fill="none" stroke="#000000" stroke-width="0.24" stroke-linejoin="bevel" stroke-miterlimit="1.414" x1="35.6" y1="5.9" x2="35.3" y2="6.2"/>
<line fill="none" stroke="#000000" stroke-width="0.24" stroke-linejoin="bevel" stroke-miterlimit="1.414" x1="35.6" y1="4.9" x2="36" y2="4.9"/>
<line fill="none" stroke="#000000" stroke-width="0.24" stroke-linejoin="bevel" stroke-miterlimit="1.414" x1="35.3" y1="4.3" x2="34.8" y2="4.3"/>
<line fill="none" stroke="#000000" stroke-width="0.24" stroke-linejoin="bevel" stroke-miterlimit="1.414" x1="36.5" y1="3.3" x2="36.5" y2="3.8"/>
<line fill="none" stroke="#000000" stroke-width="0.24" stroke-linejoin="bevel" stroke-miterlimit="1.414" x1="35.9" y1="2" x2="35.9" y2="2.5"/>
<line fill="none" stroke="#000000" stroke-width="0.24" stroke-linejoin="bevel" stroke-miterlimit="1.414" x1="35.2" y1="3.4" x2="35.7" y2="3.4"/>
<line fill="none" stroke="#000000" stroke-width="0.24" stroke-linejoin="bevel" stroke-miterlimit="1.414" x1="29.7" y1="4.8" x2="29.4" y2="5.2"/>
<line fill="none" stroke="#000000" stroke-width="0.24" stroke-linejoin="bevel" stroke-miterlimit="1.414" x1="26.8" y1="5.9" x2="26.5" y2="6.2"/>
<line fill="none" stroke="#000000" stroke-width="0.24" stroke-linejoin="bevel" stroke-miterlimit="1.414" x1="26.8" y1="4.9" x2="27.2" y2="4.9"/>
<line fill="none" stroke="#000000" stroke-width="0.24" stroke-linejoin="bevel" stroke-miterlimit="1.414" x1="26.5" y1="4.3" x2="26" y2="4.3"/>
<line fill="none" stroke="#000000" stroke-width="0.24" stroke-linejoin="bevel" stroke-miterlimit="1.414" x1="27.7" y1="3.3" x2="27.7" y2="3.8"/>
<line fill="none" stroke="#000000" stroke-width="0.24" stroke-linejoin="bevel" stroke-miterlimit="1.414" x1="27.1" y1="2" x2="27.1" y2="2.5"/>
<line fill="none" stroke="#000000" stroke-width="0.24" stroke-linejoin="bevel" stroke-miterlimit="1.414" x1="26.4" y1="3.4" x2="26.9" y2="3.4"/>
<line fill="none" stroke="#000000" stroke-width="0.24" stroke-linejoin="bevel" stroke-miterlimit="1.414" x1="14.6" y1="4.8" x2="14.3" y2="5.2"/>
<line fill="none" stroke="#000000" stroke-width="0.24" stroke-linejoin="bevel" stroke-miterlimit="1.414" x1="11.7" y1="5.9" x2="11.4" y2="6.2"/>
<line fill="none" stroke="#000000" stroke-width="0.24" stroke-linejoin="bevel" stroke-miterlimit="1.414" x1="11.7" y1="4.9" x2="12.1" y2="4.9"/>
<line fill="none" stroke="#000000" stroke-width="0.24" stroke-linejoin="bevel" stroke-miterlimit="1.414" x1="11.4" y1="4.3" x2="10.9" y2="4.3"/>
<line fill="none" stroke="#000000" stroke-width="0.24" stroke-linejoin="bevel" stroke-miterlimit="1.414" x1="12.6" y1="3.3" x2="12.6" y2="3.8"/>
<line fill="none" stroke="#000000" stroke-width="0.24" stroke-linejoin="bevel" stroke-miterlimit="1.414" x1="12" y1="2" x2="12" y2="2.5"/>
<line fill="none" stroke="#000000" stroke-width="0.24" stroke-linejoin="bevel" stroke-miterlimit="1.414" x1="11.3" y1="3.4" x2="11.8" y2="3.4"/>
<line fill="none" stroke="#000000" stroke-width="0.24" stroke-linejoin="bevel" stroke-miterlimit="1.414" x1="23.4" y1="8.6" x2="23.1" y2="8.9"/>
<line fill="none" stroke="#000000" stroke-width="0.24" stroke-linejoin="bevel" stroke-miterlimit="1.414" x1="20.4" y1="9.6" x2="20.2" y2="9.9"/>
<line fill="none" stroke="#000000" stroke-width="0.24" stroke-linejoin="bevel" stroke-miterlimit="1.414" x1="20.5" y1="8.7" x2="20.8" y2="8.7"/>
<line fill="none" stroke="#000000" stroke-width="0.24" stroke-linejoin="bevel" stroke-miterlimit="1.414" x1="20.2" y1="8.1" x2="19.7" y2="8.1"/>
<line fill="none" stroke="#000000" stroke-width="0.24" stroke-linejoin="bevel" stroke-miterlimit="1.414" x1="21.4" y1="7.1" x2="21.4" y2="7.6"/>
<line fill="none" stroke="#000000" stroke-width="0.24" stroke-linejoin="bevel" stroke-miterlimit="1.414" x1="20.8" y1="5.8" x2="20.8" y2="6.3"/>
<line fill="none" stroke="#000000" stroke-width="0.24" stroke-linejoin="bevel" stroke-miterlimit="1.414" x1="20.1" y1="7.1" x2="20.6" y2="7.1"/>
<line fill="none" stroke="#000000" stroke-width="0.24" stroke-linejoin="bevel" stroke-miterlimit="1.414" x1="4" y1="11.5" x2="3.6" y2="11.5"/>
<line fill="none" stroke="#000000" stroke-width="0.24" stroke-linejoin="bevel" stroke-miterlimit="1.414" x1="4.3" y1="12.1" x2="4" y2="12.1"/>
<line fill="none" stroke="#000000" stroke-width="0.24" stroke-linejoin="bevel" stroke-miterlimit="1.414" x1="6.3" y1="10.8" x2="6" y2="11"/>
<line fill="none" stroke="#000000" stroke-width="0.24" stroke-linejoin="bevel" stroke-miterlimit="1.414" x1="6.1" y1="11.4" x2="5.7" y2="11.7"/>
<line fill="none" stroke="#000000" stroke-width="0.24" stroke-linejoin="bevel" stroke-miterlimit="1.414" x1="9.3" y1="7.5" x2="9.6" y2="7.8"/>
<line fill="none" stroke="#000000" stroke-width="0.24" stroke-linejoin="bevel" stroke-miterlimit="1.414" x1="8.3" y1="5.6" x2="8.6" y2="6"/>
<line fill="none" stroke="#000000" stroke-width="0.24" stroke-linejoin="bevel" stroke-miterlimit="1.414" x1="6" y1="3.2" x2="5.7" y2="3.6"/>
<line fill="none" stroke="#000000" stroke-width="0.24" stroke-linejoin="bevel" stroke-miterlimit="1.414" x1="3" y1="4.3" x2="2.8" y2="4.6"/>
<line fill="none" stroke="#000000" stroke-width="0.24" stroke-linejoin="bevel" stroke-miterlimit="1.414" x1="3.1" y1="3.3" x2="3.4" y2="3.3"/>
<line fill="none" stroke="#000000" stroke-width="0.24" stroke-linejoin="bevel" stroke-miterlimit="1.414" x1="2.8" y1="2.7" x2="2.3" y2="2.7"/>
<line fill="none" stroke="#000000" stroke-width="0.24" stroke-linejoin="bevel" stroke-miterlimit="1.414" x1="4" y1="1.7" x2="4" y2="2.2"/>
<line fill="none" stroke="#000000" stroke-width="0.24" stroke-linejoin="bevel" stroke-miterlimit="1.414" x1="3.4" y1="0.4" x2="3.4" y2="1"/>
<line fill="none" stroke="#000000" stroke-width="0.24" stroke-linejoin="bevel" stroke-miterlimit="1.414" x1="2.7" y1="1.8" x2="3.2" y2="1.8"/>
</svg>
