<?xml version="1.0" encoding="utf-8"?>
<svg width="75%" xmlns="http://www.w3.org/2000/svg" xmlns:xlink="http://www.w3.org/1999/xlink" x="0px" y="0px"
	 viewBox="0 0 48.4 30.9" enable-background="new 0 0 48.4 30.9" xml:space="preserve">
<polyline fill="none" stroke="#000000" stroke-width="0.958" stroke-linejoin="round" stroke-miterlimit="1.414" points="5.1,30.9 
	0,30.9 0,7.8 38.1,5.4 38.1,0 48.4,0 48.4,30.9 10.2,30.9 "/>
<path fill="none" stroke="#000000" stroke-width="0.958" stroke-linejoin="round" stroke-miterlimit="1.414" d="M5.1,30.9
	c0-1.4,1.2-2.5,2.6-2.5c1.4,0,2.5,1.1,2.5,2.5"/>
<line fill="none" stroke="#000000" stroke-width="0.24" stroke-linejoin="bevel" stroke-miterlimit="1.414" x1="46" y1="1.4" x2="47.4" y2="0"/>
<line fill="none" stroke="#000000" stroke-width="0.24" stroke-linejoin="bevel" stroke-miterlimit="1.414" x1="26.3" y1="7.3" x2="27.5" y2="6.1"/>
<line fill="none" stroke="#000000" stroke-width="0.24" stroke-linejoin="bevel" stroke-miterlimit="1.414" x1="40.1" y1="7.3" x2="43.8" y2="3.6"/>
<line fill="none" stroke="#000000" stroke-width="0.24" stroke-linejoin="bevel" stroke-miterlimit="1.414" x1="6.6" y1="13.2" x2="10.3" y2="9.5"/>
<line fill="none" stroke="#000000" stroke-width="0.24" stroke-linejoin="bevel" stroke-miterlimit="1.414" x1="20.4" y1="13.2" x2="24.1" y2="9.5"/>
<line fill="none" stroke="#000000" stroke-width="0.24" stroke-linejoin="bevel" stroke-miterlimit="1.414" x1="34.2" y1="13.2" x2="37.9" y2="9.5"/>
<line fill="none" stroke="#000000" stroke-width="0.24" stroke-linejoin="bevel" stroke-miterlimit="1.414" x1="44.2" y1="30.9" x2="48.1" y2="27.1"/>
<line fill="none" stroke="#000000" stroke-width="0.24" stroke-linejoin="bevel" stroke-miterlimit="1.414" x1="37.3" y1="30.9" x2="48.4" y2="19.8"/>
<line fill="none" stroke="#000000" stroke-width="0.24" stroke-linejoin="bevel" stroke-miterlimit="1.414" x1="30.4" y1="30.9" x2="34.2" y2="27.1"/>
<line fill="none" stroke="#000000" stroke-width="0.24" stroke-linejoin="bevel" stroke-miterlimit="1.414" x1="42.2" y1="19.1" x2="45.9" y2="15.4"/>
<line fill="none" stroke="#000000" stroke-width="0.24" stroke-linejoin="bevel" stroke-miterlimit="1.414" x1="36.3" y1="24.9" x2="40.1" y2="21.2"/>
<line fill="none" stroke="#000000" stroke-width="0.24" stroke-linejoin="bevel" stroke-miterlimit="1.414" x1="23.5" y1="30.9" x2="48.4" y2="6"/>
<line fill="none" stroke="#000000" stroke-width="0.24" stroke-linejoin="bevel" stroke-miterlimit="1.414" x1="16.6" y1="30.9" x2="20.4" y2="27.1"/>
<line fill="none" stroke="#000000" stroke-width="0.24" stroke-linejoin="bevel" stroke-miterlimit="1.414" x1="28.4" y1="19.1" x2="32" y2="15.4"/>
<line fill="none" stroke="#000000" stroke-width="0.24" stroke-linejoin="bevel" stroke-miterlimit="1.414" x1="22.5" y1="24.9" x2="26.3" y2="21.2"/>
<line fill="none" stroke="#000000" stroke-width="0.24" stroke-linejoin="bevel" stroke-miterlimit="1.414" x1="10.2" y1="30.4" x2="34.8" y2="5.6"/>
<line fill="none" stroke="#000000" stroke-width="0.24" stroke-linejoin="bevel" stroke-miterlimit="1.414" x1="2.7" y1="30.9" x2="6.5" y2="27.1"/>
<line fill="none" stroke="#000000" stroke-width="0.24" stroke-linejoin="bevel" stroke-miterlimit="1.414" x1="14.6" y1="19.1" x2="18.2" y2="15.4"/>
<line fill="none" stroke="#000000" stroke-width="0.24" stroke-linejoin="bevel" stroke-miterlimit="1.414" x1="8.7" y1="24.9" x2="12.4" y2="21.2"/>
<line fill="none" stroke="#000000" stroke-width="0.24" stroke-linejoin="bevel" stroke-miterlimit="1.414" x1="0" y1="26.7" x2="20.2" y2="6.5"/>
<line fill="none" stroke="#000000" stroke-width="0.24" stroke-linejoin="bevel" stroke-miterlimit="1.414" x1="0.7" y1="19.1" x2="4.4" y2="15.4"/>
<line fill="none" stroke="#000000" stroke-width="0.24" stroke-linejoin="bevel" stroke-miterlimit="1.414" x1="0" y1="12.8" x2="5.4" y2="7.4"/>
</svg>
