<?xml version="1.0" encoding="utf-8"?>
<!-- Generator: Adobe Illustrator 18.1.1, SVG Export Plug-In . SVG Version: 6.00 Build 0)  -->
<svg version="1.1" id="Layer_1" xmlns="http://www.w3.org/2000/svg" xmlns:xlink="http://www.w3.org/1999/xlink" x="0px" y="0px"
	 viewBox="0 0 82.5 18.1" enable-background="new 0 0 82.5 18.1" xml:space="preserve">
<line fill="none" stroke="#000000" stroke-width="0.958" stroke-linejoin="round" stroke-miterlimit="1.414" x1="0" y1="18.1" x2="82.5" y2="18.1"/>
<line fill="none" stroke="#000000" stroke-width="0.958" stroke-linejoin="round" stroke-miterlimit="1.414" x1="0" y1="0" x2="82.5" y2="0"/>
<path fill="none" stroke="#000000" stroke-width="0.24" stroke-linejoin="bevel" stroke-miterlimit="1.414" d="M81.6,4.2
	c0-1,0.4-1.9,0.9-2.6"/>
<path fill="none" stroke="#000000" stroke-width="0.24" stroke-linejoin="bevel" stroke-miterlimit="1.414" d="M0,16.7
	c0.7-0.8,1-1.8,1-2.9"/>
<polyline fill="none" stroke="#000000" stroke-width="0.24" stroke-linejoin="bevel" stroke-miterlimit="1.414" points="0,11.4 
	1,13.8 5.3,4.2 "/>
<line fill="none" stroke="#000000" stroke-width="0.24" stroke-linejoin="bevel" stroke-miterlimit="1.414" x1="81.6" y1="4.2" x2="82.5" y2="6.3"/>
<line fill="none" stroke="#000000" stroke-width="0.24" stroke-linejoin="bevel" stroke-miterlimit="1.414" x1="77.4" y1="13.8" x2="81.6" y2="4.2"/>
<line fill="none" stroke="#000000" stroke-width="0.24" stroke-linejoin="bevel" stroke-miterlimit="1.414" x1="73.1" y1="4.2" x2="77.4" y2="13.8"/>
<line fill="none" stroke="#000000" stroke-width="0.24" stroke-linejoin="bevel" stroke-miterlimit="1.414" x1="68.9" y1="13.8" x2="73.1" y2="4.2"/>
<line fill="none" stroke="#000000" stroke-width="0.24" stroke-linejoin="bevel" stroke-miterlimit="1.414" x1="64.6" y1="4.2" x2="68.9" y2="13.8"/>
<line fill="none" stroke="#000000" stroke-width="0.24" stroke-linejoin="bevel" stroke-miterlimit="1.414" x1="60.4" y1="13.8" x2="64.6" y2="4.2"/>
<line fill="none" stroke="#000000" stroke-width="0.24" stroke-linejoin="bevel" stroke-miterlimit="1.414" x1="56.1" y1="4.2" x2="60.4" y2="13.8"/>
<line fill="none" stroke="#000000" stroke-width="0.24" stroke-linejoin="bevel" stroke-miterlimit="1.414" x1="51.9" y1="13.8" x2="56.1" y2="4.2"/>
<line fill="none" stroke="#000000" stroke-width="0.24" stroke-linejoin="bevel" stroke-miterlimit="1.414" x1="47.7" y1="4.2" x2="51.9" y2="13.8"/>
<line fill="none" stroke="#000000" stroke-width="0.24" stroke-linejoin="bevel" stroke-miterlimit="1.414" x1="43.4" y1="13.8" x2="47.7" y2="4.2"/>
<line fill="none" stroke="#000000" stroke-width="0.24" stroke-linejoin="bevel" stroke-miterlimit="1.414" x1="39.2" y1="4.2" x2="43.4" y2="13.8"/>
<line fill="none" stroke="#000000" stroke-width="0.24" stroke-linejoin="bevel" stroke-miterlimit="1.414" x1="34.9" y1="13.8" x2="39.2" y2="4.2"/>
<line fill="none" stroke="#000000" stroke-width="0.24" stroke-linejoin="bevel" stroke-miterlimit="1.414" x1="30.8" y1="4.2" x2="34.9" y2="13.8"/>
<line fill="none" stroke="#000000" stroke-width="0.24" stroke-linejoin="bevel" stroke-miterlimit="1.414" x1="26.5" y1="13.8" x2="30.8" y2="4.2"/>
<line fill="none" stroke="#000000" stroke-width="0.24" stroke-linejoin="bevel" stroke-miterlimit="1.414" x1="22.3" y1="4.2" x2="26.5" y2="13.8"/>
<line fill="none" stroke="#000000" stroke-width="0.24" stroke-linejoin="bevel" stroke-miterlimit="1.414" x1="18" y1="13.8" x2="22.3" y2="4.2"/>
<line fill="none" stroke="#000000" stroke-width="0.24" stroke-linejoin="bevel" stroke-miterlimit="1.414" x1="13.8" y1="4.2" x2="18" y2="13.8"/>
<line fill="none" stroke="#000000" stroke-width="0.24" stroke-linejoin="bevel" stroke-miterlimit="1.414" x1="9.5" y1="13.8" x2="13.8" y2="4.2"/>
<line fill="none" stroke="#000000" stroke-width="0.24" stroke-linejoin="bevel" stroke-miterlimit="1.414" x1="5.3" y1="4.2" x2="9.5" y2="13.8"/>
<path fill="none" stroke="#000000" stroke-width="0.24" stroke-linejoin="bevel" stroke-miterlimit="1.414" d="M1,13.8
	c0,1.2,0.5,2.3,1.3,3c0.8,0.8,1.9,1.3,3,1.3c1.1,0,2.2-0.5,3-1.3c0.8-0.7,1.2-1.8,1.2-3"/>
<path fill="none" stroke="#000000" stroke-width="0.24" stroke-linejoin="bevel" stroke-miterlimit="1.414" d="M9.5,13.8
	c0,1.2,0.5,2.3,1.3,3c0.8,0.8,1.9,1.3,3,1.3c1.1,0,2.2-0.5,3-1.3c0.8-0.7,1.2-1.8,1.2-3"/>
<path fill="none" stroke="#000000" stroke-width="0.24" stroke-linejoin="bevel" stroke-miterlimit="1.414" d="M18,13.8
	c0,1.2,0.5,2.3,1.3,3c0.8,0.8,1.8,1.3,3,1.3c1.1,0,2.2-0.5,3-1.3c0.8-0.7,1.2-1.8,1.2-3"/>
<path fill="none" stroke="#000000" stroke-width="0.24" stroke-linejoin="bevel" stroke-miterlimit="1.414" d="M77.4,13.8
	c0,1.3,0.6,2.6,1.6,3.4c1,0.8,2.3,1.1,3.5,0.8"/>
<path fill="none" stroke="#000000" stroke-width="0.24" stroke-linejoin="bevel" stroke-miterlimit="1.414" d="M68.9,13.8
	c0,1.2,0.4,2.3,1.2,3c0.8,0.8,1.9,1.3,3,1.3c1.2,0,2.2-0.5,3-1.3c0.8-0.7,1.3-1.8,1.3-3"/>
<path fill="none" stroke="#000000" stroke-width="0.24" stroke-linejoin="bevel" stroke-miterlimit="1.414" d="M60.4,13.8
	c0,1.2,0.4,2.3,1.2,3c0.8,0.8,1.9,1.3,3,1.3c1.2,0,2.2-0.5,3-1.3c0.8-0.7,1.3-1.8,1.3-3"/>
<path fill="none" stroke="#000000" stroke-width="0.24" stroke-linejoin="bevel" stroke-miterlimit="1.414" d="M51.9,13.8
	c0,1.2,0.4,2.3,1.2,3c0.8,0.8,1.9,1.3,3,1.3c1.2,0,2.3-0.5,3.1-1.3c0.7-0.7,1.2-1.8,1.2-3"/>
<path fill="none" stroke="#000000" stroke-width="0.24" stroke-linejoin="bevel" stroke-miterlimit="1.414" d="M43.4,13.8
	c0,1.2,0.5,2.3,1.3,3c0.7,0.8,1.8,1.3,3,1.3c1.1,0,2.2-0.5,3-1.3c0.8-0.7,1.2-1.8,1.2-3"/>
<path fill="none" stroke="#000000" stroke-width="0.24" stroke-linejoin="bevel" stroke-miterlimit="1.414" d="M34.9,13.8
	c0,1.2,0.5,2.3,1.3,3c0.8,0.8,1.8,1.3,3,1.3c1.1,0,2.2-0.5,3-1.3c0.8-0.7,1.2-1.8,1.2-3"/>
<path fill="none" stroke="#000000" stroke-width="0.24" stroke-linejoin="bevel" stroke-miterlimit="1.414" d="M26.5,13.8
	c0,1.2,0.5,2.3,1.3,3c0.8,0.8,1.8,1.3,3,1.3c1.1,0,2.2-0.5,3-1.3c0.8-0.7,1.2-1.8,1.2-3"/>
<path fill="none" stroke="#000000" stroke-width="0.24" stroke-linejoin="bevel" stroke-miterlimit="1.414" d="M0,0.1
	C1.2-0.2,2.6,0,3.6,0.8c1.1,0.8,1.7,2.1,1.7,3.4"/>
<path fill="none" stroke="#000000" stroke-width="0.24" stroke-linejoin="bevel" stroke-miterlimit="1.414" d="M5.3,4.2
	c0-1.1,0.4-2.2,1.2-3C7.3,0.4,8.4,0,9.5,0c1.2,0,2.2,0.4,3,1.2c0.8,0.8,1.3,1.9,1.3,3"/>
<path fill="none" stroke="#000000" stroke-width="0.24" stroke-linejoin="bevel" stroke-miterlimit="1.414" d="M13.8,4.2
	c0-1.1,0.4-2.2,1.2-3C15.8,0.4,16.9,0,18,0c1.2,0,2.2,0.4,3,1.2c0.8,0.8,1.3,1.9,1.3,3"/>
<path fill="none" stroke="#000000" stroke-width="0.24" stroke-linejoin="bevel" stroke-miterlimit="1.414" d="M73.1,4.2
	c0-1.1,0.5-2.2,1.3-3c0.8-0.8,1.9-1.2,3-1.2s2.2,0.4,3,1.2c0.8,0.8,1.2,1.9,1.2,3"/>
<path fill="none" stroke="#000000" stroke-width="0.24" stroke-linejoin="bevel" stroke-miterlimit="1.414" d="M64.6,4.2
	c0-1.1,0.5-2.2,1.3-3c0.8-0.8,1.9-1.2,3-1.2s2.2,0.4,3,1.2c0.8,0.8,1.2,1.9,1.2,3"/>
<path fill="none" stroke="#000000" stroke-width="0.24" stroke-linejoin="bevel" stroke-miterlimit="1.414" d="M56.1,4.2
	c0-1.1,0.5-2.2,1.3-3c0.8-0.8,1.9-1.2,3-1.2c1.1,0,2.2,0.4,3,1.2c0.8,0.8,1.2,1.9,1.2,3"/>
<path fill="none" stroke="#000000" stroke-width="0.24" stroke-linejoin="bevel" stroke-miterlimit="1.414" d="M47.7,4.2
	c0-1.1,0.4-2.2,1.2-3c0.8-0.8,1.9-1.2,3-1.2c1.1,0,2.2,0.4,3,1.2c0.8,0.8,1.2,1.9,1.2,3"/>
<path fill="none" stroke="#000000" stroke-width="0.24" stroke-linejoin="bevel" stroke-miterlimit="1.414" d="M39.2,4.2
	c0-1.1,0.4-2.2,1.2-3c0.8-0.8,1.9-1.2,3-1.2c1.1,0,2.2,0.4,3,1.2c0.8,0.8,1.3,1.9,1.3,3"/>
<path fill="none" stroke="#000000" stroke-width="0.24" stroke-linejoin="bevel" stroke-miterlimit="1.414" d="M30.8,4.2
	c0-1.1,0.4-2.2,1.2-3c0.8-0.8,1.9-1.2,3-1.2c1.1,0,2.2,0.4,3,1.2c0.8,0.8,1.3,1.9,1.3,3"/>
<path fill="none" stroke="#000000" stroke-width="0.24" stroke-linejoin="bevel" stroke-miterlimit="1.414" d="M22.3,4.2
	c0-1.1,0.4-2.2,1.2-3c0.8-0.8,1.9-1.2,3-1.2c1.1,0,2.2,0.4,3,1.2c0.8,0.8,1.3,1.9,1.3,3"/>
</svg>
