<?xml version="1.0" encoding="utf-8"?>
<!-- Generator: Adobe Illustrator 18.1.1, SVG Export Plug-In . SVG Version: 6.00 Build 0)  -->
<svg version="1.1" id="Layer_1" xmlns="http://www.w3.org/2000/svg" xmlns:xlink="http://www.w3.org/1999/xlink" x="0px" y="0px"
	 viewBox="0 0 57.5 24.5" enable-background="new 0 0 57.5 24.5" xml:space="preserve">
<rect x="0" y="0" fill="none" stroke="#000000" stroke-width="0.958" stroke-linejoin="round" stroke-miterlimit="1.414" width="57.5" height="24.5"/>
<line fill="none" stroke="#000000" stroke-width="0.24" stroke-linejoin="bevel" stroke-miterlimit="1.414" x1="30.7" y1="16.7" x2="46.5" y2="23"/>
<line fill="none" stroke="#000000" stroke-width="0.24" stroke-linejoin="bevel" stroke-miterlimit="1.414" x1="5.1" y1="12.6" x2="15.5" y2="23.1"/>
<line fill="none" stroke="#000000" stroke-width="0.24" stroke-linejoin="bevel" stroke-miterlimit="1.414" x1="2.4" y1="5.4" x2="24.8" y2="14.3"/>
<line fill="none" stroke="#000000" stroke-width="0.24" stroke-linejoin="bevel" stroke-miterlimit="1.414" x1="4.4" y1="3" x2="54.3" y2="10.8"/>
<path fill="none" stroke="#000000" stroke-width="0.24" stroke-linejoin="bevel" stroke-miterlimit="1.414" d="M57.5,14.5
	c-0.7,3.4-1.7,6.7-2.9,10"/>
<path fill="none" stroke="#000000" stroke-width="0.24" stroke-linejoin="bevel" stroke-miterlimit="1.414" d="M53.3,0
	c-0.6,8.5-2.8,16.8-6.6,24.5"/>
<path fill="none" stroke="#000000" stroke-width="0.24" stroke-linejoin="bevel" stroke-miterlimit="1.414" d="M46.4,0
	c-0.9,8.7-3.8,17.1-8.5,24.5"/>
<path fill="none" stroke="#000000" stroke-width="0.24" stroke-linejoin="bevel" stroke-miterlimit="1.414" d="M39,0
	C38.5,9.1,34.9,17.7,29,24.5"/>
<path fill="none" stroke="#000000" stroke-width="0.24" stroke-linejoin="bevel" stroke-miterlimit="1.414" d="M31.7,0
	c-0.4,4.7-1.7,9.4-4,13.6c-2.2,4.2-5.3,7.9-9,10.9"/>
<path fill="none" stroke="#000000" stroke-width="0.24" stroke-linejoin="bevel" stroke-miterlimit="1.414" d="M26.9,0
	c-0.6,5.1-2.4,9.9-5.2,14.2c-2.8,4.2-6.6,7.8-11,10.3"/>
<path fill="none" stroke="#000000" stroke-width="0.24" stroke-linejoin="bevel" stroke-miterlimit="1.414" d="M22.4,0
	c-0.9,5.7-3.5,11-7.6,15.2c-4,4.1-9.2,6.9-14.8,8"/>
<path fill="none" stroke="#000000" stroke-width="0.24" stroke-linejoin="bevel" stroke-miterlimit="1.414" d="M14.9,0
	c-0.5,3.8-2.3,7.4-5,10.1c-2.6,2.8-6.1,4.7-9.9,5.3"/>
<path fill="none" stroke="#000000" stroke-width="0.24" stroke-linejoin="bevel" stroke-miterlimit="1.414" d="M9.2,0
	C7.4,4.1,4.1,7.4,0,9.3"/>
<path fill="none" stroke="#000000" stroke-width="0.24" stroke-linejoin="bevel" stroke-miterlimit="1.414" d="M3,0
	C2.7,1.7,1.5,3.2,0,4"/>
</svg>
