<svg {{include.meta}} version="1.1" baseProfile="tiny" xmlns="http://www.w3.org/2000/svg" xmlns:xlink="http://www.w3.org/1999/xlink"
	 x="0px" y="0px" viewBox="0 0 75.2 52" xml:space="preserve" alt="Inverted colour examples.">
<rect x="2.8" y="2.8" fill="#010202" width="69.6" height="46.4"/>
	<path fill="#FFFFFF" d="M44.5,18.1v17.3h-4.5L44.5,18.1z M27.4,35.5c0.6-1.1,0.9-2.3,0.9-3.6c0-2.3-1-4.4-2.5-5.8
		c1.5-1.5,2.5-3.5,2.5-5.8c0,0,0,0,0,0l4,15.3H27.4z M16.6,35.5v-7.2h3.6c2,0,3.6,1.6,3.6,3.6c0,2-1.6,3.6-3.6,3.6H16.6z M20.2,16.6
		c2,0,3.6,1.6,3.6,3.6c0,2-1.6,3.6-3.6,3.6h-3.6v-7.2H20.2z M40.3,16.6l-4.2,16.4l-4.2-16.4H40.3z M57,35.5h-8V22.3L57,35.5z
		 M58.7,29.7l-8-13.2h8V29.7z M12.1,12.1v27.8h51V12.1H12.1z"/>
</svg>
