<svg {{include.meta}} version="1.1" baseProfile="tiny" xmlns="http://www.w3.org/2000/svg" xmlns:xlink="http://www.w3.org/1999/xlink"
	 x="0px" y="0px" viewBox="0 0 119.1 70.3" xml:space="preserve" alt="Crazy background example">

	<!-- background -->
	<rect x="2.8" y="2.8" class="background" width="113.4" height="64.8"/>

	<!-- stripes -->
	<rect x="2.8" y="2.8" class="foreground" width="113.4" height="13"/>
	<rect x="2.8" y="28.8" class="foreground" width="113.4" height="13"/>
	<rect x="2.8" y="54.7" class="foreground" width="113.4" height="13"/>
	
	<!-- Text -->
	<path id="logo-colour-text" class="bvn-text-colour" d="M66.4,27.4v17.3H62L66.4,27.4z M49.3,44.7c0.6-1.1,0.9-2.3,0.9-3.6c0-2.3-1-4.4-2.5-5.8
			c1.5-1.5,2.5-3.5,2.5-5.8c0,0,0,0,0,0l4,15.3H49.3z M38.5,44.7v-7.2h3.6c2,0,3.6,1.6,3.6,3.6c0,2-1.6,3.6-3.6,3.6H38.5z M42.1,25.8
			c2,0,3.6,1.6,3.6,3.6c0,2-1.6,3.6-3.6,3.6h-3.6v-7.2H42.1z M62.2,25.8L58,42.1l-4.2-16.4H62.2z M78.9,44.7h-8V31.5L78.9,44.7z
			 M80.6,39l-8-13.2h8V39z M34,21.3v27.8h51V21.3H34z"/>

</svg>
