<svg version="1.1" xmlns="http://www.w3.org/2000/svg" xmlns:xlink="http://www.w3.org/1999/xlink" x="0px" y="0px" viewBox="-0.105 850.695 1272.728 848.977" enable-background="new -0.105 850.695 1272.728 848.977" xml:space="preserve" alt="BVN logo is based on geometrical shapes used in graphical elements.">
<rect id="logo-structure-surrounding-box" x="2.729" y="853.53" fill="none" stroke="#000000" stroke-miterlimit="10" width="1267.058" height="843.301"/>
<path id="logo-structure-bvn-text" fill="black" opacity="0.3" d="M171.562,1022.362v506.498h929.399v-506.498H171.562z M319.086,1448.543h-66.66v-0.546v-131.679h66.112
	c36.063,0,66.114,29.505,66.114,66.112C384.653,1418.492,355.148,1448.543,319.086,1448.543z M319.086,1235.452h-66.66v-132.225
	h66.112c36.063,0,66.114,29.504,66.114,66.111C384.653,1205.401,355.148,1235.452,319.086,1235.452z M449.671,1447.997v-0.547h0.265
	c9.674-19.542,15.579-41.746,15.579-65.566c0-41.524-17.484-79.774-45.896-106.545c28.411-26.774,45.896-64.475,45.896-106.544
	c0,0,0,0,0-0.548l72.122,279.203h-87.701C449.846,1447.632,449.762,1447.816,449.671,1447.997z M532.174,1103.227h153.535
	l-76.493,297.779L532.174,1103.227z M761.659,1447.996h-81.415l81.415-315.811V1447.996z M843.067,1447.997v-240.41l145.342,240.41
	H843.067z M1020.098,1343.636l-145.336-240.409h145.336V1343.636z" />
<circle id="logo-structure-circle-top"  r="145.642" fill="none" stroke="#000000" stroke-width="1" cx="318.011" cy="1168.813"></circle>
<circle id="logo-structure-circle-bot" r="145.642" fill="none" stroke="#000000" stroke-width="1" cx="318.011" cy="1381.001"></circle>
<line fill="none" stroke="#000000" y2="1022.627" y1="1022.627" x1="2.729" stroke-width="1" x2="1269.78"/>
<line fill="none" stroke="#000000" stroke-width="1" x2="1269.78" y1="1102.265" x1="2.729" y2="1102.265"/>
<line fill="none" stroke="#000000" x2="1269.78" x1="2.729" stroke-width="1" y2="1449.222" y1="1449.222"/>
<line fill="none" stroke="#000000" stroke-width="1" x2="1269.78" x1="2.729" y1="1528.86" y2="1528.86"/>
<line fill="none" stroke="#000000" x2="251.464" y1="853.529" x1="251.464" y2="1696.83" stroke-width="1"/>
<line fill="none" stroke-width="1" y2="1696.83" x2="171.826" y1="853.529" x1="171.826" stroke="#000000"/>
<line fill="none" stroke-width="1" y1="853.529" x2="1100.583" x1="1100.961" y2="1696.83" stroke="#000000"/>
<line fill="none" stroke="#000000" stroke-width="1" y2="1696.83" y1="853.529" x2="1021.323" x1="1021.323"/>
</svg>
