
<svg id="logo-logo-with-address-3" version="1.1" baseProfile="tiny" xmlns="http://www.w3.org/2000/svg" xmlns:xlink="http://www.w3.org/1999/xlink"
	 x="0px" y="0px" viewBox="0 0 235.3 168" xml:space="preserve">

<rect x="2.8" y="2.8" fill="#FFFFFF" stroke="#010202" stroke-width="0.25" width="229.6" height="162.3"/>

	<path fill="#010202" d="M186,14v4.3h-1.1L186,14z M181.7,18.3c0.1-0.3,0.2-0.6,0.2-0.9c0-0.6-0.2-1.1-0.6-1.5
		c0.4-0.4,0.6-0.9,0.6-1.5c0,0,0,0,0,0l1,3.8H181.7z M179,18.3v-1.8h0.9c0.5,0,0.9,0.4,0.9,0.9c0,0.5-0.4,0.9-0.9,0.9H179z
		 M179.9,13.6c0.5,0,0.9,0.4,0.9,0.9c0,0.5-0.4,0.9-0.9,0.9H179v-1.8H179.9z M184.9,13.6l-1.1,4.1l-1.1-4.1H184.9z M189.1,18.3h-2
		V15L189.1,18.3z M189.5,16.9l-2-3.3h2V16.9z M177.9,12.5v7h12.8v-7H177.9z"/>

<text transform="matrix(1 0 0 1 177.8743 10.1027)" fill="#010202" font-size="2">225 PITT STREET / SYDNEY 2000 AUSTRALIA / BVN.COM.AU</text>

</svg>
