<svg {{include.meta}} version="1.1" baseProfile="tiny" xmlns="http://www.w3.org/2000/svg" xmlns:xlink="http://www.w3.org/1999/xlink"
	 x="0px" y="0px" viewBox="0 0 161.6 83.6" xml:space="preserve">

<rect x="2.8" y="2.8" fill="#FFFFFF" stroke="#010202" stroke-width="0.25" width="155.9" height="78"/>

<path fill="#010202" d="M26.5,70.7V75h-1.1L26.5,70.7z M22.2,75c0.1-0.3,0.2-0.6,0.2-0.9c0-0.6-0.2-1.1-0.6-1.5
		c0.4-0.4,0.6-0.9,0.6-1.5c0,0,0,0,0,0l1,3.8H22.2z M19.5,75v-1.8h0.9c0.5,0,0.9,0.4,0.9,0.9c0,0.5-0.4,0.9-0.9,0.9H19.5z
		 M20.4,70.3c0.5,0,0.9,0.4,0.9,0.9c0,0.5-0.4,0.9-0.9,0.9h-0.9v-1.8H20.4z M25.5,70.3l-1.1,4.1l-1.1-4.1H25.5z M29.6,75h-2v-3.3
		L29.6,75z M30.1,73.6l-2-3.3h2V73.6z M18.4,69.1v7h12.8v-7H18.4z"/>

<text transform="matrix(1 0 0 1 18.4255 66.7962)" fill="#010202" font-size="2">225 PITT STREET / SYDNEY 2000 AUSTRALIA / BVN.COM.AU</text>

</svg>
