<?xml version="1.0" encoding="utf-8"?>
<!-- Generator: Adobe Illustrator 18.1.1, SVG Export Plug-In . SVG Version: 6.00 Build 0)  -->
<svg id="logo-logo-with-address-2" version="1.1" baseProfile="tiny" xmlns="http://www.w3.org/2000/svg" xmlns:xlink="http://www.w3.org/1999/xlink"
	 x="0px" y="0px" viewBox="0 0 161.6 83.6" xml:space="preserve">
<rect x="2.8" y="2.8" fill="#FFFFFF" width="155.9" height="78"/>
<rect x="2.8" y="2.8" fill="none" stroke="#010202" stroke-width="0.25" width="155.9" height="78"/>
<g>
	<path fill="#010202" d="M26.5,70.7V75h-1.1L26.5,70.7z M22.2,75c0.1-0.3,0.2-0.6,0.2-0.9c0-0.6-0.2-1.1-0.6-1.5
		c0.4-0.4,0.6-0.9,0.6-1.5c0,0,0,0,0,0l1,3.8H22.2z M19.5,75v-1.8h0.9c0.5,0,0.9,0.4,0.9,0.9c0,0.5-0.4,0.9-0.9,0.9H19.5z
		 M20.4,70.3c0.5,0,0.9,0.4,0.9,0.9c0,0.5-0.4,0.9-0.9,0.9h-0.9v-1.8H20.4z M25.5,70.3l-1.1,4.1l-1.1-4.1H25.5z M29.6,75h-2v-3.3
		L29.6,75z M30.1,73.6l-2-3.3h2V73.6z M18.4,69.1v7h12.8v-7H18.4z"/>
</g>
<text transform="matrix(1 0 0 1 18.4255 66.7962)" fill="#010202" font-size="2">2</text>
<text transform="matrix(1 0 0 1 19.4333 66.7962)" fill="#010202" font-size="2">5</text>
<text transform="matrix(1 0 0 1 20.4416 66.7962)" fill="#010202" font-size="2">5</text>
<text transform="matrix(1 0 0 1 21.4494 66.7962)" fill="#010202" font-size="2"> </text>
<text transform="matrix(1 0 0 1 21.9055 66.7962)" fill="#010202" font-size="2">P</text>
<text transform="matrix(1 0 0 1 22.9494 66.7962)" fill="#010202" font-size="2">I</text>
<text transform="matrix(1 0 0 1 23.3816 66.7962)" fill="#010202" font-size="2">T</text>
<text transform="matrix(1 0 0 1 24.3215 66.7962)" fill="#010202" font-size="2">T</text>
<text transform="matrix(1 0 0 1 25.2614 66.7962)" fill="#010202" font-size="2"> </text>
<text transform="matrix(1 0 0 1 25.7175 66.7962)" fill="#010202" font-size="2">S</text>
<text transform="matrix(1 0 0 1 26.8132 66.7962)" fill="#010202" font-size="2">T</text>
<text transform="matrix(1 0 0 1 27.7531 66.7962)" fill="#010202" font-size="2">R</text>
<text transform="matrix(1 0 0 1 28.8552 66.7962)" fill="#010202" font-size="2">E</text>
<text transform="matrix(1 0 0 1 29.8513 66.7962)" fill="#010202" font-size="2">E</text>
<text transform="matrix(1 0 0 1 30.8474 66.7962)" fill="#010202" font-size="2">T</text>
<text transform="matrix(1 0 0 1 31.7873 66.7962)" fill="#010202" font-size="2"> </text>
<text transform="matrix(1 0 0 1 32.2434 66.7962)" fill="#010202" font-size="2">/</text>
<text transform="matrix(1 0 0 1 33.0871 66.7962)" fill="#010202" font-size="2"> </text>
<text transform="matrix(1 0 0 1 33.5432 66.7962)" fill="#010202" font-size="2">S</text>
<text transform="matrix(1 0 0 1 34.6394 66.7962)" fill="#010202" font-size="2">Y</text>
<text transform="matrix(1 0 0 1 35.5471 66.7962)" fill="#010202" font-size="2">D</text>
<text transform="matrix(1 0 0 1 36.635 66.7962)" fill="#010202" font-size="2">N</text>
<text transform="matrix(1 0 0 1 37.7351 66.7962)" fill="#010202" font-size="2">E</text>
<text transform="matrix(1 0 0 1 38.7312 66.7962)" fill="#010202" font-size="2">Y</text>
<text transform="matrix(1 0 0 1 39.6389 66.7962)" fill="#010202" font-size="2"> </text>
<text transform="matrix(1 0 0 1 40.0949 66.7962)" fill="#010202" font-size="2">2</text>
<text transform="matrix(1 0 0 1 41.1032 66.7962)" fill="#010202" font-size="2">0</text>
<text transform="matrix(1 0 0 1 42.1111 66.7962)" fill="#010202" font-size="2">0</text>
<text transform="matrix(1 0 0 1 43.1189 66.7962)" fill="#010202" font-size="2">0</text>
<text transform="matrix(1 0 0 1 44.1272 66.7962)" fill="#010202" font-size="2"> </text>
<text transform="matrix(1 0 0 1 44.5832 66.7962)" fill="#010202" font-size="2">A</text>
<text transform="matrix(1 0 0 1 45.657 66.7962)" fill="#010202" font-size="2">U</text>
<text transform="matrix(1 0 0 1 46.7512 66.7962)" fill="#010202" font-size="2">S</text>
<text transform="matrix(1 0 0 1 47.8469 66.7962)" fill="#010202" font-size="2">T</text>
<text transform="matrix(1 0 0 1 48.7868 66.7962)" fill="#010202" font-size="2">R</text>
<text transform="matrix(1 0 0 1 49.8889 66.7962)" fill="#010202" font-size="2">A</text>
<text transform="matrix(1 0 0 1 50.9631 66.7962)" fill="#010202" font-size="2">L</text>
<text transform="matrix(1 0 0 1 51.8728 66.7962)" fill="#010202" font-size="2">I</text>
<text transform="matrix(1 0 0 1 52.3054 66.7962)" fill="#010202" font-size="2">A</text>
<text transform="matrix(1 0 0 1 53.3786 66.7962)" fill="#010202" font-size="2"> </text>
<text transform="matrix(1 0 0 1 53.8347 66.7962)" fill="#010202" font-size="2">/</text>
<text transform="matrix(1 0 0 1 54.6784 66.7962)" fill="#010202" font-size="2"> </text>
<text transform="matrix(1 0 0 1 55.1345 66.7962)" fill="#010202" font-size="2">B</text>
<text transform="matrix(1 0 0 1 56.2165 66.7962)" fill="#010202" font-size="2">V</text>
<text transform="matrix(1 0 0 1 57.2585 66.7962)" fill="#010202" font-size="2">N</text>
<text transform="matrix(1 0 0 1 58.3591 66.7962)" fill="#010202" font-size="2">.</text>
<text transform="matrix(1 0 0 1 58.8005 66.7962)" fill="#010202" font-size="2">C</text>
<text transform="matrix(1 0 0 1 59.8445 66.7962)" fill="#010202" font-size="2">O</text>
<text transform="matrix(1 0 0 1 60.9792 66.7962)" fill="#010202" font-size="2">M</text>
<text transform="matrix(1 0 0 1 62.279 66.7962)" fill="#010202" font-size="2">.</text>
<text transform="matrix(1 0 0 1 62.7585 66.7962)" fill="#010202" font-size="2">A</text>
<text transform="matrix(1 0 0 1 63.8327 66.7962)" fill="#010202" font-size="2">U</text>
</svg>
