<svg version="1.1" id="Layer_1" xmlns="http://www.w3.org/2000/svg" xmlns:xlink="http://www.w3.org/1999/xlink" x="0px" y="0px" viewBox="-0.105 850.695 1272.728 848.977" enable-background="new -0.105 850.695 1272.728 848.977" xml:space="preserve">

<!-- Surrounding box -->
<rect id="logo-structure-surrounding-box" x="2.729" y="853.53" fill="none" stroke="#000000" stroke-miterlimit="10" width="1267.058" height="834"/>

<!-- Black box -->
<rect id="logo-structure-black-box" x="171.562" y="1022.362" width="929.399" height="506.498"/>

<!-- White box -->
<rect id="logo-structure-white-box" x="252.426" y="1103.028" fill="#FFFFFF" width="770.469" height="345.515"/>

<!-- BVN text -->
<path id="logo-structure-bvn-text" fill="black" d="M171.562,1022.362v506.498h929.399v-506.498H171.562z M319.086,1448.543h-66.66v-0.546v-131.679h66.112
	c36.063,0,66.114,29.505,66.114,66.112C384.653,1418.492,355.148,1448.543,319.086,1448.543z M319.086,1235.452h-66.66v-132.225
	h66.112c36.063,0,66.114,29.504,66.114,66.111C384.653,1205.401,355.148,1235.452,319.086,1235.452z M449.671,1447.997v-0.547h0.265
	c9.674-19.542,15.579-41.746,15.579-65.566c0-41.524-17.484-79.774-45.896-106.545c28.411-26.774,45.896-64.475,45.896-106.544
	c0,0,0,0,0-0.548l72.122,279.203h-87.701C449.846,1447.632,449.762,1447.816,449.671,1447.997z M532.174,1103.227h153.535
	l-76.493,297.779L532.174,1103.227z M761.659,1447.996h-81.415l81.415-315.811V1447.996z M843.067,1447.997v-240.41l145.342,240.41
	H843.067z M1020.098,1343.636l-145.336-240.409h145.336V1343.636z" />

<!--Frame -->
<path id="logo-structure-frame" d="M171.562,1022.362v506.498h929.399v-506.498H171.562z M1020.098,1447.997H252.426v-344.77h767.672V1447.997z"/>

<!-- Two circles -->
<circle id="logo-structure-circle-top"  r="145.642" fill="none" stroke="#000000" stroke-width="1" cx="318.011" cy="1168.813"></circle>
<circle id="logo-structure-circle-bot" r="145.642" fill="none" stroke="#000000" stroke-width="1" cx="318.011" cy="1381.001"></circle>

<!-- Grid lines -->
<g id="logo-structure-grid-lines">
<line  fill="none" stroke="#000000" stroke-width="1" y2="1022.627" x2="1267.68" y1="1022.627" x1="2.729"></line>
<line  fill="none" stroke="#000000" stroke-width="1" y2="1102.265" x2="1267.68" y1="1102.265" x1="2.729"></line>
<line  fill="none" stroke="#000000" stroke-width="1" y2="1448.094" x2="1267.68" y1="1448.094" x1="2.729"></line>
<line  fill="none" stroke="#000000" stroke-width="1" y2="1527.187" x2="1267.68" y1="1527.187" x1="2.729"></line>
<line  fill="none" stroke="#000000" stroke-width="1" y2="1696.83" x2="251.464" y1="853.529" x1="251.464"></line>
<line  fill="none" stroke="#000000" stroke-width="1" y2="1696.83" x2="171.826" y1="853.529" x1="171.826"></line>
<line  fill="none" stroke="#000000" stroke-width="1" y2="1696.83" x2="1098.583" y1="853.529" x1="1098.583"></line>
<line  fill="none" stroke="#000000" stroke-width="1" y2="1696.83" x2="1018.944" y1="853.529" x1="1018.944"></line>
</g>

</svg>
