<svg {{include.meta}} version="1.1" xmlns="http://www.w3.org/2000/svg" xmlns:xlink="http://www.w3.org/1999/xlink" x="0px" y="0px" viewBox="0 0 1700.79 850.391" enable-background="new 0 0 1700.79 850.391" xml:space="preserve">

<g class="logo-one-third-clear-space">

	
  <!-- White 1/3 boxes -->
 	<rect x="282.286" y="5.455" fill="none" stroke="#000000" stroke-width="0.25" width="1264.949" height="843.299"/>
	<rect x="451.383" y="680.202" fill="#FFFFFF" stroke="#000000" stroke-width="0.25" width="168.005" height="168.552"/>
	<rect x="282.832" y="511.107" fill="#FFFFFF" stroke="#000000" stroke-width="0.25" width="168.005" height="168.551"/>
	<rect x="283.377" y="174.551" fill="#FFFFFF" width="166.369" height="167.46"/>
	<path d="M449.746,175.642v165.823H284.468V175.642H449.746 M450.837,174.006H282.832v168.551h168.005V174.006L450.837,174.006z"/>

  <!-- side box -->
	<rect x="267.013" y="174.006" width="15.273" height="168.551"/>

  <!--X Text -->
	<text transform="matrix(1 0 0 1 356.7891 273.679)" font-size="38.183">X</text>
	<text transform="matrix(1 0 0 1 525.4414 776.8547)" font-size="38.183">X</text>
	<text transform="matrix(1 0 0 1 154.6445 273.8352)" font-size="38.183">1/3</text>
</g>

<g class="logo-surrounding-rectangle">
	<rect x="282.286" y="5.455" fill="none" stroke="#000000" stroke-width="0.25" width="1264.949" height="843.299"/>
</g>

<!-- 2 Circles -->
<circle class="logo-top-circle" fill="none" stroke="#000000" stroke-width="0.25" cx="597.568" cy="320.738" r="145.641"/>
<circle class="logo-bot-circle" fill="none" stroke="#000000" stroke-width="0.25" cx="597.568" cy="532.926" r="145.641"/>

<!-- Guide Lines -->
<g class="logo-guide-lines">
	<line fill="none" stroke="#000000" stroke-width="0.25" x1="282.286" y1="174.551" x2="1547.235" y2="174.551"/>
	<line fill="none" stroke="#000000" stroke-width="0.25" x1="282.286" y1="254.19" x2="1547.235" y2="254.19"/>
	<line fill="none" stroke="#000000" stroke-width="0.25" x1="282.286" y1="600.019" x2="1547.235" y2="600.019"/>
	<line fill="none" stroke="#000000" stroke-width="0.25" x1="282.286" y1="679.112" x2="1547.235" y2="679.112"/>
	<line fill="none" stroke="#000000" stroke-width="0.25" x1="531.021" y1="5.455" x2="531.021" y2="848.754"/>
	<line fill="none" stroke="#000000" stroke-width="0.25" x1="451.383" y1="5.455" x2="451.383" y2="848.754"/>
	<line fill="none" stroke="#000000" stroke-width="0.25" x1="1378.139" y1="5.455" x2="1378.139" y2="848.754"/>
	<line fill="none" stroke="#000000" stroke-width="0.25" x1="1298.5" y1="5.455" x2="1298.5" y2="848.754"/>
</g>


<!-- BVN Text -->
<!-- Grey D0D0D0 -->
<path class="logo-bvn-text" fill="#000000" d="M1039.946,283.645v315.283H958.67L1039.946,283.645z M728.482,598.928c9.817-19.639,15.817-42.002,15.817-66.003
		c0-41.455-17.455-79.64-45.819-106.366c28.364-26.729,45.819-64.366,45.819-106.367c0,0,0,0,0-0.546l72.002,278.736h-87.819
		V598.928z M531.566,598.928V467.469h66.002c36.002,0,66.003,29.455,66.003,66.002c0,36.001-29.456,66.002-65.457,66.002h-66.548
		V598.928L531.566,598.928z M597.568,254.735c36.002,0,66.003,29.456,66.003,66.003c0,36.001-29.456,66.002-65.457,66.002h-66.548
		V254.735H597.568z M964.125,254.735L887.76,552.017l-76.913-297.282H964.125L964.125,254.735z M1266.317,598.928h-145.096V358.921
		L1266.317,598.928z M1297.954,494.742L1152.86,254.735h145.094V494.742z M450.837,174.006v505.651h927.847V174.006H450.837z"/>


<!-- White Rectangle -->
<!--
<rect id="logo-white-rectangle" x="531.566" y="254.735" fill="#FFFFFF" width="766.387" height="344.193"/>
-->
</svg>
