<svg xmlns="http://www.w3.org/2000/svg" xmlns:xlink="http://www.w3.org/1999/xlink" viewBox="0 0 384.426 174.634" alt="Example of the BVN Logo used with the address.">
  <path fill="#FFF" d="M2.8 2.8h378.8v169H2.8z" stroke="black" stroke-width="0.1"/>
  <path d="M66.7 45.6v17h-4.3l4.3-17zm-16.4 17c.5-1 .8-2 .8-3.4 0-2.3-.8-4.3-2.3-5.8C50.2 52 51 50 51 47.7l4 15h-4.7zm-10.3 0v-7h3.4c2 0 3.5 1.6 3.5 3.6s-1.7 3.5-3.6 3.5H40zm3.4-18.5c2 0 3.5 1.7 3.5 3.7s-1.7 3.5-3.6 3.5H40v-7h3.4zm19.3 0l-4 16.2-4-16h8zm16 18.7H71v-13l7.6 13zM80 57l-7.6-13h7.6v13zM35.7 39.8V67h48.8V39.8H35.7z"/>
  <text transform="translate(36.89 30.382)" font-size="8">
    255 PITT STREET / SYDNEY 2000 AUSTRALIA / T +61 2 8297 7200 / BVN.COM.AU
  </text>
</svg>