<?xml version="1.0" encoding="utf-8"?>
<!-- Generator: Adobe Illustrator 16.0.0, SVG Export Plug-In . SVG Version: 6.00 Build 0)  -->
<!DOCTYPE svg PUBLIC "-//W3C//DTD SVG 1.1//EN" "http://www.w3.org/Graphics/SVG/1.1/DTD/svg11.dtd">
<svg version="1.1" id="Layer_1" xmlns="http://www.w3.org/2000/svg" xmlns:xlink="http://www.w3.org/1999/xlink" x="0px" y="0px"
	 width="1700.79px" height="850.391px" viewBox="0 0 1700.79 850.391" enable-background="new 0 0 1700.79 850.391"
	 xml:space="preserve">
<rect x="282.286" y="5.455" fill="none" stroke="#000000" stroke-width="0.25" width="1264.949" height="843.299"/>
<rect x="531.566" y="254.735" fill="#FFFFFF" width="766.387" height="344.193"/>
<g id="third-gap">
	<rect x="282.286" y="5.455" fill="none" stroke="#000000" stroke-width="0.25" width="1264.949" height="843.299"/>
	<rect x="451.383" y="680.203" fill="#FFFFFF" stroke="#000000" stroke-width="0.25" width="168.005" height="168.551"/>
	<rect x="282.832" y="511.107" fill="#FFFFFF" stroke="#000000" stroke-width="0.25" width="168.005" height="168.551"/>
	<g>
		<rect x="283.377" y="174.551" fill="#FFFFFF" width="166.369" height="167.46"/>
		<path d="M449.746,175.642v165.823H284.468V175.642H449.746 M450.837,174.006H282.832v168.551h168.005V174.006L450.837,174.006z"/>
	</g>
	<rect x="267.013" y="174.006" width="15.273" height="168.551"/>
	<rect x="282.286" y="5.455" fill="none" stroke="#000000" stroke-width="0.25" width="1264.949" height="843.299"/>
	<text transform="matrix(1 0 0 1 356.7891 273.6794)" font-family="'Blender-Medium'" font-size="38.183">X</text>
	<text transform="matrix(1 0 0 1 525.4414 776.8552)" font-family="'Blender-Medium'" font-size="38.183">X</text>
	<text transform="matrix(1 0 0 1 154.6445 273.8357)" font-family="'Blender-Medium'" font-size="38.183">1/3</text>
</g>
<g id="structure">
	<rect x="282.286" y="5.455" fill="none" stroke="#000000" stroke-width="0.25" width="1264.949" height="843.299"/>
</g>
<circle id="top-circle" fill="none" stroke="#000000" stroke-width="0.25" cx="597.568" cy="320.738" r="145.641"/>
<circle id="bot-circle" fill="none" stroke="#000000" stroke-width="0.25" cx="597.568" cy="532.926" r="145.641"/>
<g id="guides">
	<line fill="none" stroke="#000000" stroke-width="0.25" x1="282.286" y1="174.551" x2="1547.235" y2="174.551"/>
	<line fill="none" stroke="#000000" stroke-width="0.25" x1="282.286" y1="254.19" x2="1547.235" y2="254.19"/>
	<line fill="none" stroke="#000000" stroke-width="0.25" x1="282.286" y1="600.019" x2="1547.235" y2="600.019"/>
	<line fill="none" stroke="#000000" stroke-width="0.25" x1="282.286" y1="679.112" x2="1547.235" y2="679.112"/>
	<line fill="none" stroke="#000000" stroke-width="0.25" x1="531.021" y1="5.455" x2="531.021" y2="848.754"/>
	<line fill="none" stroke="#000000" stroke-width="0.25" x1="451.383" y1="5.455" x2="451.383" y2="848.754"/>
	<line fill="none" stroke="#000000" stroke-width="0.25" x1="1378.139" y1="5.455" x2="1378.139" y2="848.754"/>
	<line fill="none" stroke="#000000" stroke-width="0.25" x1="1298.5" y1="5.455" x2="1298.5" y2="848.754"/>
</g>
<g>
	<path fill="#D0D0D0" d="M1039.946,283.645v315.283H958.67L1039.946,283.645z M728.482,598.928
		c9.818-19.638,15.818-42.002,15.818-66.003c0-41.455-17.455-79.639-45.819-106.366c28.364-26.729,45.819-64.366,45.819-106.367
		c0,0,0,0,0-0.546l72.002,278.736h-87.82V598.928z M531.566,598.928V467.469h66.002c36.002,0,66.003,29.455,66.003,66.002
		c0,36.001-29.456,66.002-65.457,66.002h-66.548V598.928z M597.568,254.735c36.002,0,66.003,29.456,66.003,66.003
		c0,36.001-29.456,66.002-65.457,66.002h-66.548V254.735H597.568z M964.125,254.735L887.76,552.017l-76.912-297.282H964.125z
		 M1266.317,598.928h-145.096V358.921L1266.317,598.928z M1297.954,494.743L1152.86,254.735h145.094V494.743z M450.837,174.006
		v505.652h927.847V174.006H450.837z"/>
</g>
<g id="bvn-text">
	<path d="M1039.946,283.645v315.283H958.67L1039.946,283.645z M728.482,598.928c9.818-19.638,15.818-42.002,15.818-66.003
		c0-41.455-17.455-79.639-45.819-106.366c28.364-26.729,45.819-64.366,45.819-106.367c0,0,0,0,0-0.546l72.002,278.736h-87.82
		V598.928z M531.566,598.928V467.469h66.002c36.002,0,66.003,29.455,66.003,66.002c0,36.001-29.456,66.002-65.457,66.002h-66.548
		V598.928z M597.568,254.735c36.002,0,66.003,29.456,66.003,66.003c0,36.001-29.456,66.002-65.457,66.002h-66.548V254.735H597.568z
		 M964.125,254.735L887.76,552.017l-76.912-297.282H964.125z M1266.317,598.928h-145.096V358.921L1266.317,598.928z
		 M1297.954,494.743L1152.86,254.735h145.094V494.743z M450.837,174.006v505.652h927.847V174.006H450.837z"/>
</g>
</svg>
