<svg {{include.meta}} version="1.1" baseProfile="tiny" xmlns="http://www.w3.org/2000/svg" xmlns:xlink="http://www.w3.org/1999/xlink"
	 x="0px" y="0px" viewBox="0 0 63.4 50.3" xml:space="preserve">

<path fill="#010202" d="M35.8,6.9v11.6h-3L35.8,6.9z M24.4,18.4c0.4-0.7,0.6-1.5,0.6-2.4c0-1.5-0.6-2.9-1.7-3.9
		c1-1,1.7-2.4,1.7-3.9c0,0,0,0,0,0l2.6,10.2H24.4z M17.1,18.4v-4.8h2.4c1.3,0,2.4,1.1,2.4,2.4c0,1.3-1.1,2.4-2.4,2.4H17.1z
		 M19.5,5.8c1.3,0,2.4,1.1,2.4,2.4c0,1.3-1.1,2.4-2.4,2.4h-2.4V5.8H19.5z M33,5.8l-2.8,10.9L27.4,5.8H33z M44.1,18.4h-5.3V9.6
		L44.1,18.4z M45.2,14.6l-5.3-8.8h5.3V14.6z M14.2,2.8v18.6h34V2.8H14.2z"/>
<line fill="none" stroke="#010202" stroke-width="0.5" x1="14.5" y1="28.2" x2="47.9" y2="28.2"/>
<line fill="none" stroke="#010202" stroke-width="0.5" x1="14.5" y1="27.1" x2="14.5" y2="29.3"/>
<line fill="none" stroke="#010202" stroke-width="0.5" x1="47.9" y1="27.1" x2="47.9" y2="29.3"/>
<text transform="matrix(1 0 0 1 2.8347 46.2423)" fill="#010202" font-size="7">MINIMUM SIZE 12</text>
<text transform="matrix(1 0 0 1 50.9811 46.2423)" fill="#010202" font-size="7">mm</text>
</svg>
