<svg {{include.meta}} version="1.1" baseProfile="tiny" xmlns="http://www.w3.org/2000/svg" xmlns:xlink="http://www.w3.org/1999/xlink"
	 x="0px" y="0px" viewBox="0 0 72.7 59.6" xml:space="preserve">
<g>
	<path fill="#010202" d="M41.8,8.9v17.3h-4.5L41.8,8.9z M24.7,26.2c0.6-1.1,0.9-2.3,0.9-3.6c0-2.3-1-4.4-2.5-5.8
		c1.5-1.5,2.5-3.5,2.5-5.8c0,0,0,0,0,0l4,15.3H24.7z M13.9,26.2V19h3.6c2,0,3.6,1.6,3.6,3.6c0,2-1.6,3.6-3.6,3.6H13.9z M17.5,7.3
		c2,0,3.6,1.6,3.6,3.6c0,2-1.6,3.6-3.6,3.6h-3.6V7.3H17.5z M37.7,7.3l-4.2,16.4L29.2,7.3H37.7z M54.3,26.2h-8V13L54.3,26.2z
		 M56,20.5L48,7.3h8V20.5z M9.4,2.8v27.8h51V2.8H9.4z"/>
</g>
<line fill="none" stroke="#010202" stroke-width="0.5" x1="9.7" y1="37.5" x2="60.2" y2="37.5"/>
<line fill="none" stroke="#010202" stroke-width="0.5" x1="9.7" y1="36.3" x2="9.7" y2="38.6"/>
<line fill="none" stroke="#010202" stroke-width="0.5" x1="60.2" y1="36.3" x2="60.2" y2="38.6"/>
<text transform="matrix(1 0 0 1 2.8347 55.517)" fill="#010202" font-size="7">PREFERRED SIZE 18</text>
<text transform="matrix(1 0 0 1 59.8503 55.517)" fill="#010202" font-size="7">mm</text>
</svg>
