<?xml version="1.0" encoding="utf-8"?>
<!-- Generator: Adobe Illustrator 18.1.1, SVG Export Plug-In . SVG Version: 6.00 Build 0)  -->
<svg id="Layer_1" xmlns="http://www.w3.org/2000/svg" xmlns:xlink="http://www.w3.org/1999/xlink" x="0px" y="0px"
	 viewBox="0 0 320 65.019" enable-background="new 0 0 320 65.019" xml:space="preserve">
<rect y="0" fill="#ffffff" width="320.315" height="65.019"/>
<rect x="2.562" y="0.001" fill="#c5d9f1" width="156.66" height="0.681"/>
<rect x="162.541" y="0.001" fill="#c5d9f1" width="156.818" height="0.681"/>
<rect x="2.562" y="12.64" fill="#c5d9f1" width="156.66" height="4.056"/>
<rect x="162.541" y="12.64" fill="#c5d9f1" width="156.818" height="4.056"/>
<rect x="2.562" y="56.677" fill="#c5d9f1" width="156.66" height="4.056"/>
<rect x="162.541" y="56.678" fill="#c5d9f1" width="156.818" height="4.056"/>
<rect x="0.072" y="0" fill="none" width="319.393" height="65.019"/>
<text transform="matrix(1 0 0 1 2.9304 3.3688)" font-family="'Arial'" font-size="2.6865">TIL-01</text>
<text transform="matrix(1 0 0 1 16.416 3.4226)" font-family="'Arial'" font-size="2.6865">Vitrified ceramic floor tiling: Klingenberg/Graphite Mix  </text>
<text transform="matrix(1 0 0 1 115.8117 3.4226)" font-family="'Arial'" font-size="2.6865">Tiling</text>
<text transform="matrix(1 0 0 1 143.15 3.4226)" font-family="'Arial'" font-size="2.6865">05-400</text>
<text transform="matrix(1 0 0 1 163.0694 3.3688)" font-family="'Arial'" font-size="2.6865">TIL-03</text>
<text transform="matrix(1 0 0 1 176.5555 3.4226)" font-family="'Arial'" font-size="2.6865">Vitrified ceramic floor tiling - Metz Ceramic tiles</text>
<text transform="matrix(1 0 0 1 275.9512 3.4226)" font-family="'Arial'" font-size="2.6865">Tiling</text>
<text transform="matrix(1 0 0 1 303.289 3.4226)" font-family="'Arial'" font-size="2.6865">05-400</text>
<text transform="matrix(1 0 0 1 2.9363 7.3742)" font-family="'Arial'" font-size="2.6865">TIL-02</text>
<text transform="matrix(1 0 0 1 16.4219 7.4284)" font-family="'Arial'" font-size="2.6865">Ceramic wall tiling - Classic Ceramics: Matt White</text>
<text transform="matrix(1 0 0 1 115.8171 7.4284)" font-family="'Arial'" font-size="2.6865">Tiling</text>
<text transform="matrix(1 0 0 1 143.155 7.4284)" font-family="'Arial'" font-size="2.6865">05-400</text>
<text transform="matrix(1 0 0 1 163.0721 7.3742)" font-family="'Arial'" font-size="2.6865">TIL-04</text>
<text transform="matrix(1 0 0 1 176.5587 7.4284)" font-family="'Arial'" font-size="2.6865">Ceramic wall tiling - Classic Ceramics: Matt White</text>
<text transform="matrix(1 0 0 1 275.9539 7.4284)" font-family="'Arial'" font-size="2.6865">Tiling</text>
<text transform="matrix(1 0 0 1 303.2927 7.4284)" font-family="'Arial'" font-size="2.6865">05-400</text>
<g>
	<text transform="matrix(1 0 0 1 146.9567 11.4306)" font-family="'Arial'" font-size="2.6865">.</text>
	<text transform="matrix(1 0 0 1 118.6166 11.4306)" font-family="'Arial'" font-size="2.6865">.</text>
</g>
<g>
	<text transform="matrix(1 0 0 1 307.085 11.4284)" font-family="'Arial'" font-size="2.6865">.</text>
	<text transform="matrix(1 0 0 1 278.7448 11.4284)" font-family="'Arial'" font-size="2.6865">.</text>
</g>
<rect x="0.072" y="0" fill="none" width="319.393" height="65.019"/>
<text transform="matrix(1 0 0 1 16.4154 15.4842)" font-family="'Arial'" font-weight="bolder" font-size="2.6865">Trims/Skirtings/Architraves</text>
<text transform="matrix(1 0 0 1 118.6074 15.4842)" font-family="'Arial'" font-weight="bolder" font-size="2.6865">.</text>
<text transform="matrix(1 0 0 1 146.9471 15.4842)" font-family="'Arial'" font-weight="bolder" font-size="2.6865">.</text>
<text transform="matrix(1 0 0 1 176.5527 15.4842)" font-family="'Arial'" font-weight="bolder" font-size="2.6865">Trims/Skirtings/Architraves</text>
<text transform="matrix(1 0 0 1 278.7442 15.4842)" font-family="'Arial'" font-weight="bolder" font-size="2.6865">.</text>
<text transform="matrix(1 0 0 1 307.0839 15.4842)" font-family="'Arial'" font-weight="bolder" font-size="2.6865">.</text>
<text transform="matrix(1 0 0 1 2.9315 19.3822)" font-family="'Arial'" font-size="2.6865">TRM-01</text>
<text transform="matrix(1 0 0 1 16.4181 19.4359)" font-family="'Arial'" font-size="2.6865">Handrail and Crash Rail Combined</text>
<text transform="matrix(1 0 0 1 109.9621 19.4359)" font-family="'Arial'" font-size="2.6865">Wall Protection</text>
<text transform="matrix(1 0 0 1 143.1463 19.4359)" font-family="'Arial'" font-size="2.6865">06-150</text>
<text transform="matrix(1 0 0 1 163.0684 19.3822)" font-family="'Arial'" font-size="2.6865">TRM-10</text>
<text transform="matrix(1 0 0 1 176.5554 19.4359)" font-family="'Arial'" font-size="2.6865">Aluminium Door Threshold Plate</text>
<text transform="matrix(1 0 0 1 265.2577 19.4359)"><tspan x="0" y="0" font-family="'Arial'" font-size="2.6865">Resilient Floor Finishe</tspan><tspan x="26.576" y="0" font-family="'Arial'" font-size="2.6865" letter-spacing="10">s</tspan><tspan x="38.031" y="0" font-family="'Arial'" font-size="2.6865">05-550</tspan></text>
<text transform="matrix(1 0 0 1 2.9347 23.3875)" font-family="'Arial'" font-size="2.6865">TRM-02</text>
<text transform="matrix(1 0 0 1 16.4208 23.4418)" font-family="'Arial'" font-size="2.6865">Single Corner Guard</text>
<text transform="matrix(1 0 0 1 109.9697 23.4418)" font-family="'Arial'" font-size="2.6865">Wall Protection</text>
<text transform="matrix(1 0 0 1 143.1543 23.4418)" font-family="'Arial'" font-size="2.6865">06-150</text>
<text transform="matrix(1 0 0 1 163.072 23.3875)" font-family="'Arial'" font-size="2.6865">TRM-11</text>
<text transform="matrix(1 0 0 1 176.5576 23.4418)" font-family="'Arial'" font-size="2.6865">Aluminium skirtings</text>
<text transform="matrix(1 0 0 1 265.2608 23.4418)"><tspan x="0" y="0" font-family="'Arial'" font-size="2.6865">Resilient Floor Finishe</tspan><tspan x="26.576" y="0" font-family="'Arial'" font-size="2.6865" letter-spacing="10">s</tspan><tspan x="38.031" y="0" font-family="'Arial'" font-size="2.6865">05-100</tspan></text>
<text transform="matrix(1 0 0 1 2.9347 27.3934)" font-family="'Arial'" font-size="2.6865">TRM-03</text>
<text transform="matrix(1 0 0 1 16.4208 27.4471)" font-family="'Arial'" font-size="2.6865">Single Crash Rail</text>
<text transform="matrix(1 0 0 1 109.9697 27.4471)" font-family="'Arial'" font-size="2.6865">Wall Protection</text>
<text transform="matrix(1 0 0 1 143.1543 27.4471)" font-family="'Arial'" font-size="2.6865">06-150</text>
<text transform="matrix(1 0 0 1 163.072 27.3934)" font-family="'Arial'" font-size="2.6865">TRM-12</text>
<text transform="matrix(1 0 0 1 176.5576 27.4471)" font-family="'Arial'" font-size="2.6865">Double Corner Guards</text>
<text transform="matrix(1 0 0 1 270.1075 27.4471)" font-family="'Arial'" font-size="2.6865">Wall Protection</text>
<text transform="matrix(1 0 0 1 303.2907 27.4471)" font-family="'Arial'" font-size="2.6865">06-150</text>
<text transform="matrix(1 0 0 1 2.9347 31.3988)" font-family="'Arial'" font-size="2.6865">TRM-04</text>
<text transform="matrix(1 0 0 1 16.4208 31.4529)" font-family="'Arial'" font-size="2.6865">MDF skirtings</text>
<text transform="matrix(1 0 0 1 105.1267 31.4529)"><tspan x="0" y="0" font-family="'Arial'" font-size="2.6865">Resilient Floor Finishe</tspan><tspan x="26.576" y="0" font-family="'Arial'" font-size="2.6865" letter-spacing="10">s</tspan><tspan x="38.031" y="0" font-family="'Arial'" font-size="2.6865">05-550</tspan></text>
<text transform="matrix(1 0 0 1 163.072 31.3988)" font-family="'Arial'" font-size="2.6865">TRM-13</text>
<text transform="matrix(1 0 0 1 176.5576 31.4529)" font-family="'Arial'" font-size="2.6865">Double Crash Rail</text>
<text transform="matrix(1 0 0 1 270.1075 31.4529)" font-family="'Arial'" font-size="2.6865">Wall Protection</text>
<text transform="matrix(1 0 0 1 303.2907 31.4529)" font-family="'Arial'" font-size="2.6865">06-150</text>
<text transform="matrix(1 0 0 1 2.9369 35.4046)" font-family="'Arial'" font-size="2.6865">TRM-05</text>
<text transform="matrix(1 0 0 1 16.4234 35.4588)" font-family="'Arial'" font-size="2.6865">Aluminium skirtings</text>
<text transform="matrix(1 0 0 1 105.1267 35.4588)"><tspan x="0" y="0" font-family="'Arial'" font-size="2.6865">Resilient Floor Finishe</tspan><tspan x="26.576" y="0" font-family="'Arial'" font-size="2.6865" letter-spacing="10">s</tspan><tspan x="38.031" y="0" font-family="'Arial'" font-size="2.6865">05-100</tspan></text>
<text transform="matrix(1 0 0 1 163.0742 35.4046)" font-family="'Arial'" font-size="2.6865">TRM-14</text>
<text transform="matrix(1 0 0 1 176.5603 35.4588)" font-family="'Arial'" font-size="2.6865">Handrail and Crash Rail Combined</text>
<text transform="matrix(1 0 0 1 270.1043 35.4588)" font-family="'Arial'" font-size="2.6865">Wall Protection</text>
<text transform="matrix(1 0 0 1 303.288 35.4588)" font-family="'Arial'" font-size="2.6865">06-150</text>
<text transform="matrix(1 0 0 1 2.9369 39.41)" font-family="'Arial'" font-size="2.6865">TRM-06</text>
<text transform="matrix(1 0 0 1 16.4234 39.4642)" font-family="'Arial'" font-size="2.6865">Double Corner Guards</text>
<text transform="matrix(1 0 0 1 109.9728 39.4642)" font-family="'Arial'" font-size="2.6865">Wall Protection</text>
<text transform="matrix(1 0 0 1 143.157 39.4642)" font-family="'Arial'" font-size="2.6865">06-150</text>
<text transform="matrix(1 0 0 1 163.0742 39.41)" font-family="'Arial'" font-size="2.6865">TRM-15</text>
<text transform="matrix(1 0 0 1 176.5603 39.4642)" font-family="'Arial'" font-size="2.6865">MDF skirtings</text>
<text transform="matrix(1 0 0 1 265.2657 39.4642)"><tspan x="0" y="0" font-family="'Arial'" font-size="2.6865">Resilient Floor Finishe</tspan><tspan x="26.576" y="0" font-family="'Arial'" font-size="2.6865" letter-spacing="10">s</tspan><tspan x="38.031" y="0" font-family="'Arial'" font-size="2.6865">05-550</tspan></text>
<text transform="matrix(1 0 0 1 2.9369 43.4158)" font-family="'Arial'" font-size="2.6865">TRM-07</text>
<text transform="matrix(1 0 0 1 16.4234 43.4695)" font-family="'Arial'" font-size="2.6865">Aluminium Door Threshold Plate</text>
<text transform="matrix(1 0 0 1 105.1267 43.4695)"><tspan x="0" y="0" font-family="'Arial'" font-size="2.6865">Resilient Floor Finishe</tspan><tspan x="26.576" y="0" font-family="'Arial'" font-size="2.6865" letter-spacing="10">s</tspan><tspan x="38.031" y="0" font-family="'Arial'" font-size="2.6865">05-550</tspan></text>
<text transform="matrix(1 0 0 1 163.0779 43.4158)" font-family="'Arial'" font-size="2.6865">TRM-16</text>
<text transform="matrix(1 0 0 1 176.5635 43.4695)" font-family="'Arial'" font-size="2.6865">Single Corner Guard</text>
<text transform="matrix(1 0 0 1 270.1124 43.4695)" font-family="'Arial'" font-size="2.6865">Wall Protection</text>
<text transform="matrix(1 0 0 1 303.296 43.4695)" font-family="'Arial'" font-size="2.6865">06-150</text>
<text transform="matrix(1 0 0 1 2.94 47.4217)" font-family="'Arial'" font-size="2.6865">TRM-08</text>
<text transform="matrix(1 0 0 1 16.4262 47.4754)" font-family="'Arial'" font-size="2.6865">Double Crash Rail</text>
<text transform="matrix(1 0 0 1 109.9755 47.4754)" font-family="'Arial'" font-size="2.6865">Wall Protection</text>
<text transform="matrix(1 0 0 1 143.1592 47.4754)" font-family="'Arial'" font-size="2.6865">06-150</text>
<text transform="matrix(1 0 0 1 163.0779 47.4217)" font-family="'Arial'" font-size="2.6865">TRM-17</text>
<text transform="matrix(1 0 0 1 176.5635 47.4754)" font-family="'Arial'" font-size="2.6865">Single Corner Guard (Full Height)</text>
<text transform="matrix(1 0 0 1 270.1092 47.4754)" font-family="'Arial'" font-size="2.6865">Wall Protection</text>
<text transform="matrix(1 0 0 1 303.2928 47.4754)" font-family="'Arial'" font-size="2.6865">06-150</text>
<text transform="matrix(1 0 0 1 2.94 51.427)" font-family="'Arial'" font-size="2.6865">TRM-09</text>
<text transform="matrix(1 0 0 1 16.4262 51.4802)" font-family="'Arial'" font-size="2.6865">Single Corner Guard (Full Height)</text>
<text transform="matrix(1 0 0 1 109.9728 51.4802)" font-family="'Arial'" font-size="2.6865">Wall Protection</text>
<text transform="matrix(1 0 0 1 143.157 51.4802)" font-family="'Arial'" font-size="2.6865">06-150</text>
<text transform="matrix(1 0 0 1 163.0742 51.427)" font-family="'Arial'" font-size="2.6865">TRM-18</text>
<text transform="matrix(1 0 0 1 176.5603 51.4802)" font-family="'Arial'" font-size="2.6865">Single Crash Rail</text>
<text transform="matrix(1 0 0 1 270.1092 51.4802)" font-family="'Arial'" font-size="2.6865">Wall Protection</text>
<text transform="matrix(1 0 0 1 303.2928 51.4802)" font-family="'Arial'" font-size="2.6865">06-150</text>
<text transform="matrix(1 0 0 1 16.4234 59.5403)" font-family="'Arial'" font-weight="bolder" font-size="2.6865">Water Proofing Systems</text>
<text transform="matrix(1 0 0 1 118.6155 59.5403)" font-family="'Arial'" font-weight="bolder" font-size="2.6865">.</text>
<text transform="matrix(1 0 0 1 146.9551 59.5403)" font-family="'Arial'" font-weight="bolder" font-size="2.6865">.</text>
<text transform="matrix(1 0 0 1 176.5603 59.5403)" font-family="'Arial'" font-weight="bolder" font-size="2.6865">Water Proofing Systems</text>
<text transform="matrix(1 0 0 1 278.7518 59.5403)" font-family="'Arial'" font-weight="bolder" font-size="2.6865">.</text>
<text transform="matrix(1 0 0 1 307.0915 59.5403)" font-family="'Arial'" font-weight="bolder" font-size="2.6865">.</text>
<text transform="matrix(1 0 0 1 2.9369 63.4382)" font-family="'Arial'" font-size="2.6865">WPRS-01</text>
<text transform="matrix(1 0 0 1 16.4234 63.4924)" font-family="'Arial'" font-size="2.6865">Tanking Membrane</text>
<text transform="matrix(1 0 0 1 110.5532 63.4924)" font-family="'Arial'" font-size="2.6865">Waterproofing</text>
<text transform="matrix(1 0 0 1 143.157 63.4924)" font-family="'Arial'" font-size="2.6865">04-050</text>
<text transform="matrix(1 0 0 1 163.0742 63.4382)" font-family="'Arial'" font-size="2.6865">WPRS-06</text>
<text transform="matrix(1 0 0 1 176.5603 63.4924)" font-family="'Arial'" font-size="2.6865">Tanking Membrane</text>
<text transform="matrix(1 0 0 1 270.6901 63.4924)" font-family="'Arial'" font-size="2.6865">Waterproofing</text>
<text transform="matrix(1 0 0 1 303.2928 63.4924)" font-family="'Arial'" font-size="2.6865">04-050</text>
<rect x="0.072" y="0" fill="none" width="319.393" height="65.019"/>
<rect x="2.562" y="0.524" width="156.766" height="0.263"/>
<rect x="2.562" y="4.527" width="156.766" height="0.264"/>
<rect x="2.562" y="8.531" width="156.766" height="0.264"/>
<rect x="2.562" y="12.534" width="156.766" height="0.264"/>
<rect x="2.562" y="16.538" width="156.766" height="0.263"/>
<rect x="2.562" y="20.541" width="156.766" height="0.263"/>
<rect x="2.562" y="24.544" width="156.766" height="0.264"/>
<rect x="2.562" y="28.548" width="156.766" height="0.264"/>
<rect x="2.562" y="32.552" width="156.766" height="0.263"/>
<rect x="2.562" y="36.555" width="156.766" height="0.263"/>
<rect x="2.562" y="40.558" width="156.766" height="0.264"/>
<rect x="2.562" y="44.561" width="156.766" height="0.264"/>
<rect x="2.562" y="48.565" width="156.766" height="0.263"/>
<rect x="2.562" y="52.569" width="156.766" height="0.263"/>
<rect x="2.562" y="56.572" width="156.766" height="0.264"/>
<rect x="2.562" y="60.575" width="156.766" height="0.264"/>
<rect x="2.562" y="64.579" width="156.766" height="0.263"/>
<rect x="2.299" y="0" width="0.263" height="65.019"/>
<rect x="15.784" y="0" width="0.264" height="65.019"/>
<rect x="102.384" y="0" width="0.263" height="65.019"/>
<rect x="135.254" y="0" width="0.264" height="65.019"/>
<rect x="159.065" y="0" width="0.263" height="65.019"/>
<rect x="162.436" y="0" width="0.263" height="65.019"/>
<rect x="175.921" y="0" width="0.264" height="65.019"/>
<rect x="262.521" y="0" width="0.263" height="65.019"/>
<rect x="295.391" y="0" width="0.264" height="65.019"/>
<rect x="319.202" y="0" width="0.263" height="65.019"/>
<rect x="162.699" y="0.524" width="156.766" height="0.263"/>
<rect x="162.699" y="4.527" width="156.766" height="0.264"/>
<rect x="162.699" y="8.531" width="156.766" height="0.264"/>
<rect x="162.699" y="12.534" width="156.766" height="0.264"/>
<rect x="162.699" y="16.538" width="156.766" height="0.263"/>
<rect x="162.699" y="20.541" width="156.766" height="0.263"/>
<rect x="162.699" y="24.544" width="156.766" height="0.264"/>
<rect x="162.699" y="28.548" width="156.766" height="0.264"/>
<rect x="162.699" y="32.552" width="156.766" height="0.263"/>
<rect x="162.699" y="36.555" width="156.766" height="0.263"/>
<rect x="162.699" y="40.558" width="156.766" height="0.264"/>
<rect x="162.699" y="44.561" width="156.766" height="0.264"/>
<rect x="162.699" y="48.565" width="156.766" height="0.263"/>
<rect x="162.699" y="52.569" width="156.766" height="0.263"/>
<rect x="162.699" y="56.572" width="156.766" height="0.264"/>
<rect x="162.699" y="60.575" width="156.766" height="0.264"/>
<rect x="162.699" y="64.579" width="156.766" height="0.263"/>
</svg>
