<?xml version="1.0" encoding="utf-8"?>
<!-- Generator: Adobe Illustrator 18.1.1, SVG Export Plug-In . SVG Version: 6.00 Build 0)  -->
<svg id="Layer_1" xmlns="http://www.w3.org/2000/svg" xmlns:xlink="http://www.w3.org/1999/xlink" x="0px" y="0px"
	 viewBox="0 0 320 65.019" enable-background="new 0 0 320 65.019" xml:space="preserve">
<rect y="0" fill="#ffffff" width="320.315" height="65.019"/>
<rect x="2.562" y="15.939" fill="#c5d9f1" width="156.66" height="4.056"/>
<rect x="162.541" y="15.939" fill="#c5d9f1" width="156.819" height="4.056"/>
<rect x="2.562" y="35.956" fill="#c5d9f1" width="156.66" height="4.056"/>
<rect x="162.541" y="35.957" fill="#c5d9f1" width="156.819" height="4.055"/>
<text transform="matrix(1 0 0 1 2.9323 2.6645)"><tspan x="0" y="0" fill="#1d1d1b" font-family="'Arial'" font-size="2.6865">AP-0</tspan><tspan x="5.973" y="0" fill="#1d1d1b" font-family="'Arial'" font-size="2.6865" letter-spacing="6">3</tspan><tspan x="13.484" y="0" fill="#1d1d1b" font-family="'Arial'" font-size="2.6865">Partition access panels - Fire Rated</tspan></text>
<text transform="matrix(1 0 0 1 113.3905 2.6645)" fill="#1d1d1b" font-family="'Arial'" font-size="2.6865">Partitions</text>
<text transform="matrix(1 0 0 1 143.1514 2.6645)"><tspan x="0" y="0" fill="#1d1d1b" font-family="'Arial'" font-size="2.6865">05-10</tspan><tspan x="6.871" y="0" fill="#1d1d1b" font-family="'Arial'" font-size="2.6865" letter-spacing="11">0</tspan><tspan x="19.909" y="0" fill="#1d1d1b" font-family="'Arial'" font-size="2.6865">AP-0</tspan><tspan x="25.882" y="0" fill="#1d1d1b" font-family="'Arial'" font-size="2.6865" letter-spacing="6">3</tspan><tspan x="33.394" y="0" fill="#1d1d1b" font-family="'Arial'" font-size="2.6865">Partition access panels - Fire Rated</tspan></text>
<text transform="matrix(1 0 0 1 273.5193 2.6645)" fill="#1d1d1b" font-family="'Arial'" font-size="2.6865">Partitions</text>
<text transform="matrix(1 0 0 1 303.2802 2.6645)" fill="#1d1d1b" font-family="'Arial'" font-size="2.6865">05-100</text>
<text transform="matrix(1 0 0 1 2.9302 6.6672)"><tspan x="0" y="0" fill="#1d1d1b" font-family="'Arial'" font-size="2.6865">AP-0</tspan><tspan x="5.973" y="0" fill="#1d1d1b" font-family="'Arial'" font-size="2.6865" letter-spacing="6">4</tspan><tspan x="13.484" y="0" fill="#1d1d1b" font-family="'Arial'" font-size="2.6865">Ceiling access panels - 300mm x 300mm.</tspan></text>
<text transform="matrix(1 0 0 1 107.1184 6.6672)"><tspan x="0" y="0" fill="#1d1d1b" font-family="'Arial'" font-size="2.6865">Suspended Ceiling</tspan><tspan x="22.553" y="0" fill="#1d1d1b" font-family="'Arial'" font-size="2.6865" letter-spacing="12">s</tspan><tspan x="36.029" y="0" fill="#1d1d1b" font-family="'Arial'" font-size="2.6865">05-05</tspan><tspan x="42.9" y="0" fill="#1d1d1b" font-family="'Arial'" font-size="2.6865" letter-spacing="11">0</tspan><tspan x="55.938" y="0" fill="#1d1d1b" font-family="'Arial'" font-size="2.6865">AP-0</tspan><tspan x="61.91" y="0" fill="#1d1d1b" font-family="'Arial'" font-size="2.6865" letter-spacing="6">4</tspan><tspan x="69.421" y="0" fill="#1d1d1b" font-family="'Arial'" font-size="2.6865">Ceiling access panels - 300mm x 300mm.</tspan></text>
<text transform="matrix(1 0 0 1 267.2422 6.6672)" fill="#1d1d1b" font-family="'Arial'" font-size="2.6865">Suspended Ceiling</text>
<text transform="matrix(1 0 0 1 289.8172 6.6672)"><tspan x="0" y="0" fill="#1d1d1b" font-family="'Arial'" font-size="2.6865" letter-spacing="12">s</tspan><tspan x="13.476" y="0" fill="#1d1d1b" font-family="'Arial'" font-size="2.6865">05-050</tspan></text>
<text transform="matrix(1 0 0 1 2.9334 10.6704)"><tspan x="0" y="0" fill="#1d1d1b" font-family="'Arial'" font-size="2.6865">AP-0</tspan><tspan x="5.973" y="0" fill="#1d1d1b" font-family="'Arial'" font-size="2.6865" letter-spacing="6">5</tspan><tspan x="13.484" y="0" fill="#1d1d1b" font-family="'Arial'" font-size="2.6865">Ceiling access panels - Fire Rated - 600mm x 400mm.</tspan></text>
<text transform="matrix(1 0 0 1 107.1211 10.6704)"><tspan x="0" y="0" fill="#1d1d1b" font-family="'Arial'" font-size="2.6865">Suspended Ceiling</tspan><tspan x="22.553" y="0" fill="#1d1d1b" font-family="'Arial'" font-size="2.6865" letter-spacing="12">s</tspan><tspan x="36.028" y="0" fill="#1d1d1b" font-family="'Arial'" font-size="2.6865">05-05</tspan><tspan x="42.899" y="0" fill="#1d1d1b" font-family="'Arial'" font-size="2.6865" letter-spacing="11">0</tspan><tspan x="55.938" y="0" fill="#1d1d1b" font-family="'Arial'" font-size="2.6865">AP-0</tspan><tspan x="61.91" y="0" fill="#1d1d1b" font-family="'Arial'" font-size="2.6865" letter-spacing="6">5</tspan><tspan x="69.422" y="0" fill="#1d1d1b" font-family="'Arial'" font-size="2.6865">Ceiling access panels - Fire Rated - 600mm</tspan></text>
<text transform="matrix(1 0 0 1 228.8142 10.6704)" fill="#1d1d1b" font-family="'Arial'" font-size="2.6865"> x 400mm.</text>
<text transform="matrix(1 0 0 1 267.2655 10.6704)"><tspan x="0" y="0" fill="#1d1d1b" font-family="'Arial'" font-size="2.6865">Suspended Ceiling</tspan><tspan x="22.553" y="0" fill="#1d1d1b" font-family="'Arial'" font-size="2.6865" letter-spacing="12">s</tspan><tspan x="36.028" y="0" fill="#1d1d1b" font-family="'Arial'" font-size="2.6865">05-050</tspan></text>
<text transform="matrix(1 0 0 1 146.9538 14.6731)" fill="#1d1d1b" font-family="'Arial'" font-size="2.6865">.</text>
<text transform="matrix(1 0 0 1 118.6142 14.6731)" fill="#1d1d1b" font-family="'Arial'" font-size="2.6865">.</text>
<text transform="matrix(1 0 0 1 16.4157 18.731)" fill="#1d1d1b" font-family="'Arial'" font-weight="bolder" font-size="2.6865">Access &amp; Safety Equipment</text>
<text transform="matrix(1 0 0 1 118.6077 18.731)" fill="#1d1d1b" font-family="'Arial'" font-weight="bolder" font-size="2.6865">.</text>
<text transform="matrix(1 0 0 1 146.9474 18.731)" fill="#1d1d1b" font-family="'Arial'" font-weight="bolder" font-size="2.6865">.</text>
<text transform="matrix(1 0 0 1 176.5525 18.731)" fill="#1d1d1b" font-family="'Arial'" font-weight="bolder" font-size="2.6865">Access &amp; Safety Equipment</text>
<text transform="matrix(1 0 0 1 278.744 18.731)" fill="#1d1d1b" font-family="'Arial'" font-weight="bolder" font-size="2.6865">.</text>
<text transform="matrix(1 0 0 1 307.0847 18.731)" fill="#1d1d1b" font-family="'Arial'" font-weight="bolder" font-size="2.6865">.</text>
<text transform="matrix(1 0 0 1 2.9323 22.6826)"><tspan x="0" y="0" fill="#1d1d1b" font-family="'Arial'" font-size="2.6865">ASE-0</tspan><tspan x="7.764" y="0" fill="#1d1d1b" font-family="'Arial'" font-size="2.6865" letter-spacing="4">1</tspan><tspan x="13.484" y="0" fill="#1d1d1b" font-family="'Arial'" font-size="2.6865">Fall arrest system</tspan></text>
<text transform="matrix(1 0 0 1 109.1806 22.6826)" fill="#1d1d1b" font-family="'Arial'" font-size="2.6865">Access &amp; Safety</text>
<text transform="matrix(1 0 0 1 143.1563 22.6826)"><tspan x="0" y="0" fill="#1d1d1b" font-family="'Arial'" font-size="2.6865">06-50</tspan><tspan x="6.871" y="0" fill="#1d1d1b" font-family="'Arial'" font-size="2.6865" letter-spacing="11">0</tspan><tspan x="19.909" y="0" fill="#1d1d1b" font-family="'Arial'" font-size="2.6865">ASE-0</tspan><tspan x="27.673" y="0" fill="#1d1d1b" font-family="'Arial'" font-size="2.6865" letter-spacing="4">4</tspan><tspan x="33.394" y="0" fill="#1d1d1b" font-family="'Arial'" font-size="2.6865">Abseiling Anchorage Points</tspan></text>
<text transform="matrix(1 0 0 1 269.3094 22.6826)" fill="#1d1d1b" font-family="'Arial'" font-size="2.6865">Access &amp; Safety</text>
<text transform="matrix(1 0 0 1 303.2851 22.6826)" fill="#1d1d1b" font-family="'Arial'" font-size="2.6865">06-500</text>
<text transform="matrix(1 0 0 1 2.9323 26.6853)"><tspan x="0" y="0" fill="#1d1d1b" font-family="'Arial'" font-size="2.6865">ASE-0</tspan><tspan x="7.764" y="0" fill="#1d1d1b" font-family="'Arial'" font-size="2.6865" letter-spacing="4">2</tspan><tspan x="13.484" y="0" fill="#1d1d1b" font-family="'Arial'" font-size="2.6865">Abseiling Anchorage Points</tspan></text>
<text transform="matrix(1 0 0 1 109.1753 26.6853)" fill="#1d1d1b" font-family="'Arial'" font-size="2.6865">Access &amp; Safety</text>
<text transform="matrix(1 0 0 1 143.1514 26.6853)"><tspan x="0" y="0" fill="#1d1d1b" font-family="'Arial'" font-size="2.6865">06-50</tspan><tspan x="6.871" y="0" fill="#1d1d1b" font-family="'Arial'" font-size="2.6865" letter-spacing="11">0</tspan><tspan x="19.909" y="0" fill="#1d1d1b" font-family="'Arial'" font-size="2.6865">ASE-0</tspan><tspan x="27.673" y="0" fill="#1d1d1b" font-family="'Arial'" font-size="2.6865" letter-spacing="4">5</tspan><tspan x="33.394" y="0" fill="#1d1d1b" font-family="'Arial'" font-size="2.6865">Fall arrest system</tspan></text>
<text transform="matrix(1 0 0 1 269.3094 26.6853)" fill="#1d1d1b" font-family="'Arial'" font-size="2.6865">Access &amp; Safety</text>
<text transform="matrix(1 0 0 1 303.2851 26.6853)" fill="#1d1d1b" font-family="'Arial'" font-size="2.6865">06-500</text>
<text transform="matrix(1 0 0 1 2.9323 30.6885)"><tspan x="0" y="0" fill="#1d1d1b" font-family="'Arial'" font-size="2.6865">ASE-0</tspan><tspan x="7.764" y="0" fill="#1d1d1b" font-family="'Arial'" font-size="2.6865" letter-spacing="4">3</tspan><tspan x="13.484" y="0" fill="#1d1d1b" font-family="'Arial'" font-size="2.6865">Overhead Rail Fall Arrest System </tspan></text>
<text transform="matrix(1 0 0 1 109.178 30.6885)" fill="#1d1d1b" font-family="'Arial'" font-size="2.6865">Access &amp; Safety</text>
<text transform="matrix(1 0 0 1 143.1541 30.6885)"><tspan x="0" y="0" fill="#1d1d1b" font-family="'Arial'" font-size="2.6865">06-50</tspan><tspan x="6.871" y="0" fill="#1d1d1b" font-family="'Arial'" font-size="2.6865" letter-spacing="11">0</tspan><tspan x="19.909" y="0" fill="#1d1d1b" font-family="'Arial'" font-size="2.6865">ASE-0</tspan><tspan x="27.673" y="0" fill="#1d1d1b" font-family="'Arial'" font-size="2.6865" letter-spacing="4">6</tspan><tspan x="33.394" y="0" fill="#1d1d1b" font-family="'Arial'" font-size="2.6865">Overhead Rail Fall Arrest System </tspan></text>
<text transform="matrix(1 0 0 1 269.3094 30.6885)" fill="#1d1d1b" font-family="'Arial'" font-size="2.6865">Access &amp; Safety</text>
<text transform="matrix(1 0 0 1 303.2851 30.6885)" fill="#1d1d1b" font-family="'Arial'" font-size="2.6865">06-500</text>
<text transform="matrix(1 0 0 1 146.9474 34.6911)" fill="#1d1d1b" font-family="'Arial'" font-size="2.6865">.</text>
<text transform="matrix(1 0 0 1 118.6077 34.6911)" fill="#1d1d1b" font-family="'Arial'" font-size="2.6865">.</text>
<text transform="matrix(1 0 0 1 307.0848 34.6917)" fill="#1d1d1b" font-family="'Arial'" font-size="2.6865">.</text>
<text transform="matrix(1 0 0 1 278.7451 34.6917)" fill="#1d1d1b" font-family="'Arial'" font-size="2.6865">.</text>
<text transform="matrix(1 0 0 1 16.4157 38.748)" fill="#1d1d1b" font-family="'Arial'" font-weight="bolder" font-size="2.6865">Architectural Metalwork</text>
<text transform="matrix(1 0 0 1 118.6077 38.748)" fill="#1d1d1b" font-family="'Arial'" font-weight="bolder" font-size="2.6865">.</text>
<text transform="matrix(1 0 0 1 146.9474 38.748)" fill="#1d1d1b" font-family="'Arial'" font-weight="bolder" font-size="2.6865">.</text>
<text transform="matrix(1 0 0 1 176.5525 38.748)" fill="#1d1d1b" font-family="'Arial'" font-weight="bolder" font-size="2.6865">Architectural Metalwork</text>
<text transform="matrix(1 0 0 1 278.744 38.748)" fill="#1d1d1b" font-family="'Arial'" font-weight="bolder" font-size="2.6865">.</text>
<text transform="matrix(1 0 0 1 307.0847 38.748)" fill="#1d1d1b" font-family="'Arial'" font-weight="bolder" font-size="2.6865">.</text>
<text transform="matrix(1 0 0 1 2.9323 42.6996)"><tspan x="0" y="0" fill="#1d1d1b" font-family="'Arial'" font-size="2.6865">AM-0</tspan><tspan x="6.418" y="0" fill="#1d1d1b" font-family="'Arial'" font-size="2.6865" letter-spacing="5">1</tspan><tspan x="13.484" y="0" fill="#1d1d1b" font-family="'Arial'" font-size="2.6865">Roof access ladder</tspan></text>
<text transform="matrix(1 0 0 1 109.178 42.6996)" fill="#1d1d1b" font-family="'Arial'" font-size="2.6865">Access &amp; Safety</text>
<text transform="matrix(1 0 0 1 143.1541 42.6996)"><tspan x="0" y="0" fill="#1d1d1b" font-family="'Arial'" font-size="2.6865">06-50</tspan><tspan x="6.871" y="0" fill="#1d1d1b" font-family="'Arial'" font-size="2.6865" letter-spacing="11">0</tspan><tspan x="19.909" y="0" fill="#1d1d1b" font-family="'Arial'" font-size="2.6865">AM-0</tspan><tspan x="26.327" y="0" fill="#1d1d1b" font-family="'Arial'" font-size="2.6865" letter-spacing="5">1</tspan><tspan x="33.394" y="0" fill="#1d1d1b" font-family="'Arial'" font-size="2.6865">Roof access ladder</tspan></text>
<text transform="matrix(1 0 0 1 269.3094 42.6996)" fill="#1d1d1b" font-family="'Arial'" font-size="2.6865">Access &amp; Safety</text>
<text transform="matrix(1 0 0 1 303.2851 42.6996)" fill="#1d1d1b" font-family="'Arial'" font-size="2.6865">06-500</text>
<text transform="matrix(1 0 0 1 2.9323 46.7023)"><tspan x="0" y="0" fill="#1d1d1b" font-family="'Arial'" font-size="2.6865">AM-0</tspan><tspan x="6.418" y="0" fill="#1d1d1b" font-family="'Arial'" font-size="2.6865" letter-spacing="5">2</tspan><tspan x="13.484" y="0" fill="#1d1d1b" font-family="'Arial'" font-size="2.6865">Roof access walkway</tspan></text>
<text transform="matrix(1 0 0 1 109.178 46.7023)" fill="#1d1d1b" font-family="'Arial'" font-size="2.6865">Access &amp; Safety</text>
<text transform="matrix(1 0 0 1 143.1541 46.7023)"><tspan x="0" y="0" fill="#1d1d1b" font-family="'Arial'" font-size="2.6865">06-50</tspan><tspan x="6.871" y="0" fill="#1d1d1b" font-family="'Arial'" font-size="2.6865" letter-spacing="11">0</tspan><tspan x="19.909" y="0" fill="#1d1d1b" font-family="'Arial'" font-size="2.6865">AM-0</tspan><tspan x="26.327" y="0" fill="#1d1d1b" font-family="'Arial'" font-size="2.6865" letter-spacing="5">2</tspan><tspan x="33.394" y="0" fill="#1d1d1b" font-family="'Arial'" font-size="2.6865">Roof access walkway</tspan></text>
<text transform="matrix(1 0 0 1 269.3094 46.7023)" fill="#1d1d1b" font-family="'Arial'" font-size="2.6865">Access &amp; Safety</text>
<text transform="matrix(1 0 0 1 303.2851 46.7023)" fill="#1d1d1b" font-family="'Arial'" font-size="2.6865">06-500</text>
<text transform="matrix(1 0 0 1 2.9323 50.7056)"><tspan x="0" y="0" fill="#1d1d1b" font-family="'Arial'" font-size="2.6865">AM-0</tspan><tspan x="6.418" y="0" fill="#1d1d1b" font-family="'Arial'" font-size="2.6865" letter-spacing="5">3</tspan><tspan x="13.484" y="0" fill="#1d1d1b" font-family="'Arial'" font-size="2.6865">Aluminium Boxed out Frame</tspan></text>
<text transform="matrix(1 0 0 1 163.0691 50.7056)"><tspan x="0" y="0" fill="#1d1d1b" font-family="'Arial'" font-size="2.6865">AM-0</tspan><tspan x="6.418" y="0" fill="#1d1d1b" font-family="'Arial'" font-size="2.6865" letter-spacing="5">3</tspan><tspan x="13.484" y="0" fill="#1d1d1b" font-family="'Arial'" font-size="2.6865">Aluminium Boxed out Frame</tspan></text>
<text transform="matrix(1 0 0 1 2.9323 54.7082)"><tspan x="0" y="0" fill="#1d1d1b" font-family="'Arial'" font-size="2.6865">AM-0</tspan><tspan x="6.418" y="0" fill="#1d1d1b" font-family="'Arial'" font-size="2.6865" letter-spacing="5">4</tspan><tspan x="13.484" y="0" fill="#1d1d1b" font-family="'Arial'" font-size="2.6865">Step Bridge</tspan></text>
<text transform="matrix(1 0 0 1 109.178 54.7082)" fill="#1d1d1b" font-family="'Arial'" font-size="2.6865">Access &amp; Safety</text>
<text transform="matrix(1 0 0 1 143.1541 54.7082)"><tspan x="0" y="0" fill="#1d1d1b" font-family="'Arial'" font-size="2.6865">06-50</tspan><tspan x="6.871" y="0" fill="#1d1d1b" font-family="'Arial'" font-size="2.6865" letter-spacing="11">0</tspan><tspan x="19.909" y="0" fill="#1d1d1b" font-family="'Arial'" font-size="2.6865">AM-0</tspan><tspan x="26.327" y="0" fill="#1d1d1b" font-family="'Arial'" font-size="2.6865" letter-spacing="5">4</tspan><tspan x="33.394" y="0" fill="#1d1d1b" font-family="'Arial'" font-size="2.6865">Step Bridge</tspan></text>
<text transform="matrix(1 0 0 1 269.3094 54.7082)" fill="#1d1d1b" font-family="'Arial'" font-size="2.6865">Access &amp; Safety</text>
<text transform="matrix(1 0 0 1 303.2851 54.7082)" fill="#1d1d1b" font-family="'Arial'" font-size="2.6865">06-500</text>
<text transform="matrix(1 0 0 1 2.9296 58.7113)"><tspan x="0" y="0" fill="#1d1d1b" font-family="'Arial'" font-size="2.6865">AM-0</tspan><tspan x="6.418" y="0" fill="#1d1d1b" font-family="'Arial'" font-size="2.6865" letter-spacing="5">5</tspan><tspan x="13.484" y="0" fill="#1d1d1b" font-family="'Arial'" font-size="2.6865">WC Grab rails</tspan></text>
<text transform="matrix(1 0 0 1 112.496 58.7113)" fill="#1d1d1b" font-family="'Arial'" font-size="2.6865"> Metalwork</text>
<text transform="matrix(1 0 0 1 143.1514 58.7113)"><tspan x="0" y="0" fill="#1d1d1b" font-family="'Arial'" font-size="2.6865">05-80</tspan><tspan x="6.871" y="0" fill="#1d1d1b" font-family="'Arial'" font-size="2.6865" letter-spacing="11">0</tspan><tspan x="19.909" y="0" fill="#1d1d1b" font-family="'Arial'" font-size="2.6865">AM-0</tspan><tspan x="26.327" y="0" fill="#1d1d1b" font-family="'Arial'" font-size="2.6865" letter-spacing="5">5</tspan><tspan x="33.394" y="0" fill="#1d1d1b" font-family="'Arial'" font-size="2.6865">WC Grab rails</tspan></text>
<text transform="matrix(1 0 0 1 272.627 58.7113)" fill="#1d1d1b" font-family="'Arial'" font-size="2.6865"> Metalwork</text>
<text transform="matrix(1 0 0 1 303.2829 58.7113)" fill="#1d1d1b" font-family="'Arial'" font-size="2.6865">05-800</text>
<text transform="matrix(1 0 0 1 2.9296 62.7135)"><tspan x="0" y="0" fill="#1d1d1b" font-family="'Arial'" font-size="2.6865">AM-0</tspan><tspan x="6.418" y="0" fill="#1d1d1b" font-family="'Arial'" font-size="2.6865" letter-spacing="5">6</tspan><tspan x="13.484" y="0" fill="#1d1d1b" font-family="'Arial'" font-size="2.6865">Shower Grab rails</tspan></text>
<text transform="matrix(1 0 0 1 112.4929 62.7135)" fill="#1d1d1b" font-family="'Arial'" font-size="2.6865"> Metalwork</text>
<text transform="matrix(1 0 0 1 143.1483 62.7135)"><tspan x="0" y="0" fill="#1d1d1b" font-family="'Arial'" font-size="2.6865">05-80</tspan><tspan x="6.871" y="0" fill="#1d1d1b" font-family="'Arial'" font-size="2.6865" letter-spacing="11">0</tspan><tspan x="19.909" y="0" fill="#1d1d1b" font-family="'Arial'" font-size="2.6865">AM-0</tspan><tspan x="26.327" y="0" fill="#1d1d1b" font-family="'Arial'" font-size="2.6865" letter-spacing="5">6</tspan><tspan x="33.394" y="0" fill="#1d1d1b" font-family="'Arial'" font-size="2.6865">Shower Grab rails</tspan></text>
<text transform="matrix(1 0 0 1 272.6221 62.7135)" fill="#1d1d1b" font-family="'Arial'" font-size="2.6865"> Metalwork</text>
<text transform="matrix(1 0 0 1 303.277 62.7135)" fill="#1d1d1b" font-family="'Arial'" font-size="2.6865">05-800</text>
<rect x="0.071" y="0" fill="none" width="319.394" height="65.019"/>
<rect x="2.562" fill="#1d1d1b" width="156.766" height="0.083"/>
<rect x="2.562" y="3.822" fill="#1d1d1b" width="156.766" height="0.264"/>
<rect x="2.562" y="7.827" fill="#1d1d1b" width="156.766" height="0.263"/>
<rect x="2.562" y="11.83" fill="#1d1d1b" width="156.766" height="0.264"/>
<rect x="2.562" y="15.833" fill="#1d1d1b" width="156.766" height="0.264"/>
<rect x="2.562" y="19.836" fill="#1d1d1b" width="156.766" height="0.264"/>
<rect x="2.562" y="23.84" fill="#1d1d1b" width="156.766" height="0.263"/>
<rect x="2.562" y="27.843" fill="#1d1d1b" width="156.766" height="0.264"/>
<rect x="2.562" y="31.847" fill="#1d1d1b" width="156.766" height="0.264"/>
<rect x="2.562" y="35.85" fill="#1d1d1b" width="156.766" height="0.264"/>
<rect x="2.562" y="39.854" fill="#1d1d1b" width="156.766" height="0.263"/>
<rect x="2.562" y="43.857" fill="#1d1d1b" width="156.766" height="0.264"/>
<rect x="2.562" y="47.86" fill="#1d1d1b" width="156.766" height="0.264"/>
<rect x="2.562" y="51.864" fill="#1d1d1b" width="156.766" height="0.264"/>
<rect x="2.562" y="55.868" fill="#1d1d1b" width="156.766" height="0.263"/>
<rect x="2.562" y="59.871" fill="#1d1d1b" width="156.766" height="0.264"/>
<rect x="2.562" y="63.874" fill="#1d1d1b" width="156.766" height="0.264"/>
<rect x="2.299" y="0" fill="#1d1d1b" width="0.263" height="65.019"/>
<rect x="15.783" y="0" fill="#1d1d1b" width="0.264" height="65.019"/>
<rect x="102.384" y="0" fill="#1d1d1b" width="0.264" height="65.019"/>
<rect x="135.255" y="0" fill="#1d1d1b" width="0.263" height="65.019"/>
<rect x="159.064" y="0" fill="#1d1d1b" width="0.264" height="65.019"/>
<rect x="162.436" y="0" fill="#1d1d1b" width="0.264" height="65.019"/>
<rect x="175.921" y="0" fill="#1d1d1b" width="0.263" height="65.019"/>
<rect x="262.521" y="0" fill="#1d1d1b" width="0.264" height="65.019"/>
<rect x="295.392" y="0" fill="#1d1d1b" width="0.263" height="65.019"/>
<rect x="319.201" y="0" fill="#1d1d1b" width="0.264" height="65.019"/>
<rect x="162.699" fill="#1d1d1b" width="156.766" height="0.083"/>
<rect x="162.699" y="3.822" fill="#1d1d1b" width="156.766" height="0.264"/>
<rect x="162.699" y="7.827" fill="#1d1d1b" width="156.766" height="0.263"/>
<rect x="162.699" y="11.83" fill="#1d1d1b" width="156.766" height="0.264"/>
<rect x="162.699" y="15.833" fill="#1d1d1b" width="156.766" height="0.264"/>
<rect x="162.699" y="19.836" fill="#1d1d1b" width="156.766" height="0.264"/>
<rect x="162.699" y="23.84" fill="#1d1d1b" width="156.766" height="0.263"/>
<rect x="162.699" y="27.843" fill="#1d1d1b" width="156.766" height="0.264"/>
<rect x="162.699" y="31.847" fill="#1d1d1b" width="156.766" height="0.264"/>
<rect x="162.699" y="35.85" fill="#1d1d1b" width="156.766" height="0.264"/>
<rect x="162.699" y="39.854" fill="#1d1d1b" width="156.766" height="0.263"/>
<rect x="162.699" y="43.857" fill="#1d1d1b" width="156.766" height="0.264"/>
<rect x="162.699" y="47.86" fill="#1d1d1b" width="156.766" height="0.264"/>
<rect x="162.699" y="51.864" fill="#1d1d1b" width="156.766" height="0.264"/>
<rect x="162.699" y="55.868" fill="#1d1d1b" width="156.766" height="0.263"/>
<rect x="162.699" y="59.871" fill="#1d1d1b" width="156.766" height="0.264"/>
<rect x="162.699" y="63.874" fill="#1d1d1b" width="156.766" height="0.264"/>
</svg>
